<?xml version="1.0" encoding="UTF-8"?>
<svg xmlns="http://www.w3.org/2000/svg" viewBox="0 0 32 32" width="32" height="32" preserveAspectRatio="xMidYMid meet">
  <title>GAMEDOOR.41 Favicon</title>
  <rect width="32" height="32" rx="4" fill="#0C0800"/>
  <g transform="translate(6.22, 24)">
    <path d="M0.4 -3.92V-10.1Q0.4 -11.96 1.6 -13.06Q2.8000000000000003 -14.16 4.78 -14.16Q6.08 -14.16 7.07 -13.66Q8.06 -13.16 8.61 -12.23Q9.16 -11.3 9.16 -10.06V-9.4Q9.16 -9.26 9.08 -9.18Q9.0 -9.1 8.86 -9.1H5.7Q5.5600000000000005 -9.1 5.48 -9.18Q5.4 -9.26 5.4 -9.4V-10.1Q5.4 -10.48 5.23 -10.71Q5.0600000000000005 -10.94 4.78 -10.94Q4.5 -10.94 4.33 -10.71Q4.16 -10.48 4.16 -10.1V-3.9Q4.16 -3.52 4.33 -3.29Q4.5 -3.06 4.78 -3.06Q5.0600000000000005 -3.06 5.23 -3.29Q5.4 -3.52 5.4 -3.9V-4.88Q5.4 -5.0 5.28 -5.0H5.12Q4.98 -5.0 4.9 -5.08Q4.82 -5.16 4.82 -5.3V-7.6000000000000005Q4.82 -7.74 4.9 -7.82Q4.98 -7.9 5.12 -7.9H8.86Q9.0 -7.9 9.08 -7.82Q9.16 -7.74 9.16 -7.6000000000000005V-3.92Q9.16 -2.7 8.61 -1.77Q8.06 -0.84 7.07 -0.33999999999999997Q6.08 0.16 4.78 0.16Q2.8000000000000003 0.16 1.6 -0.9500000000000001Q0.4 -2.06 0.4 -3.92Z" fill="#F0EBE2"/>
  </g>
  <circle cx="19.78" cy="20" r="3" fill="#E07020"/>
</svg>
