<?xml version="1.0" encoding="UTF-8"?>
<svg xmlns="http://www.w3.org/2000/svg" viewBox="0 0 1080 1080" width="1080" height="1080" preserveAspectRatio="xMidYMid meet">
  <title>GAMEDOOR.41 Instagram Post</title>
  <defs>
    <linearGradient id="igBg" x1="0%" y1="0%" x2="100%" y2="100%">
      <stop offset="0%" stop-color="#1a0d08"/>
      <stop offset="50%" stop-color="#0C0800"/>
      <stop offset="100%" stop-color="#0C0800"/>
    </linearGradient>
  </defs>
  <rect width="1080" height="1080" fill="url(#igBg)"/>

  <!-- Corner marks -->
  <rect x="40" y="40" width="60" height="4" fill="#E07020"/>
  <rect x="40" y="40" width="4" height="60" fill="#E07020"/>
  <rect x="980" y="40" width="60" height="4" fill="#E07020"/>
  <rect x="1036" y="40" width="4" height="60" fill="#E07020"/>
  <rect x="40" y="1036" width="60" height="4" fill="#E07020"/>
  <rect x="40" y="980" width="4" height="60" fill="#E07020"/>
  <rect x="980" y="1036" width="60" height="4" fill="#E07020"/>
  <rect x="1036" y="980" width="4" height="60" fill="#E07020"/>

  <g transform="translate(232.00, 1140.00)" opacity="0.04">
    <path d="M522.0 -322.0V-182.0Q522.0 -175.0 518.0 -171.0Q514.0 -167.0 507.0 -167.0H477.0Q471.0 -167.0 471.0 -161.0V-15.0Q471.0 -8.0 467.0 -4.0Q463.0 0.0 456.0 0.0H298.0Q291.0 0.0 287.0 -4.0Q283.0 -8.0 283.0 -15.0V-161.0Q283.0 -167.0 277.0 -167.0H23.0Q16.0 -167.0 12.0 -171.0Q8.0 -175.0 8.0 -182.0V-293.0Q8.0 -302.0 11.0 -311.0L132.0 -688.0Q136.0 -700.0 149.0 -700.0H318.0Q326.0 -700.0 329.5 -695.5Q333.0 -691.0 331.0 -683.0L228.0 -344.0Q227.0 -337.0 233.0 -337.0H277.0Q283.0 -337.0 283.0 -343.0V-411.0Q283.0 -418.0 287.0 -422.0Q291.0 -426.0 298.0 -426.0H456.0Q463.0 -426.0 467.0 -422.0Q471.0 -418.0 471.0 -411.0V-343.0Q471.0 -337.0 477.0 -337.0H507.0Q514.0 -337.0 518.0 -333.0Q522.0 -329.0 522.0 -322.0Z M609.0 -700.0H773.0Q780.0 -700.0 784.0 -696.0Q788.0 -692.0 788.0 -685.0V-15.0Q788.0 -8.0 784.0 -4.0Q780.0 0.0 773.0 0.0H615.0Q608.0 0.0 604.0 -4.0Q600.0 -8.0 600.0 -15.0V-523.0Q600.0 -529.0 594.0 -529.0H528.0Q521.0 -529.0 517.0 -533.0Q513.0 -537.0 513.0 -544.0V-660.0Q513.0 -673.0 525.0 -677.0L591.0 -697.0Q600.0 -700.0 609.0 -700.0Z" fill="#E07020"/>
  </g>

  <g transform="translate(177.10, 180.00)">
    <path d="M11.788 -7.364V-5.488Q11.788 -5.208 11.508000000000001 -5.208H10.612Q10.5 -5.208 10.5 -5.096V-0.28Q10.5 0.0 10.22 0.0H8.092Q7.812 0.0 7.812 -0.28V-5.096Q7.812 -5.208 7.7 -5.208H0.812Q0.532 -5.208 0.532 -5.488V-7.056Q0.532 -7.168 0.588 -7.392L4.62 -19.376Q4.704 -19.6 4.956 -19.6H7.252Q7.5600000000000005 -19.6 7.476 -19.292L3.668 -7.784Q3.64 -7.728 3.6820000000000004 -7.686Q3.724 -7.644 3.7800000000000002 -7.644H7.7Q7.812 -7.644 7.812 -7.756V-11.592Q7.812 -11.872 8.092 -11.872H10.22Q10.5 -11.872 10.5 -11.592V-7.756Q10.5 -7.644 10.612 -7.644H11.508000000000001Q11.788 -7.644 11.788 -7.364Z M27.82 -19.6H30.060000000000002Q30.34 -19.6 30.34 -19.32V-0.28Q30.34 0.0 30.060000000000002 0.0H27.932000000000002Q27.652 0.0 27.652 -0.28V-16.66Q27.652 -16.716 27.61 -16.758000000000003Q27.568 -16.8 27.54 -16.772000000000002L25.048000000000002 -16.128L24.936 -16.1Q24.768 -16.1 24.712 -16.352L24.6 -17.92Q24.6 -18.172 24.796 -18.256L27.484 -19.516000000000002Q27.652 -19.6 27.82 -19.6Z M68.06 0.0H63.384Q63.104 0.0 63.104 -0.28V-19.32Q63.104 -19.6 63.384 -19.6H67.668Q70.21600000000001 -19.6 71.65800000000002 -18.270000000000003Q73.10000000000001 -16.94 73.10000000000001 -14.392Q73.10000000000001 -11.368 70.944 -10.22Q70.804 -10.136000000000001 70.916 -10.08Q72.036 -9.408 72.666 -8.204Q73.296 -7.0 73.296 -5.348Q73.296 -2.8000000000000003 71.85400000000001 -1.4000000000000001Q70.412 0.0 68.06 0.0ZM65.792 -17.164V-11.228Q65.792 -11.116 65.904 -11.116H67.696Q69.012 -11.116 69.74000000000001 -11.914Q70.468 -12.712 70.468 -14.14Q70.468 -15.624 69.74000000000001 -16.45Q69.012 -17.276 67.696 -17.276H65.904Q65.792 -17.276 65.792 -17.164ZM70.608 -5.684Q70.608 -7.308 69.88 -8.218Q69.152 -9.128 67.864 -9.128H65.904Q65.792 -9.128 65.792 -9.016V-2.464Q65.792 -2.352 65.904 -2.352H67.836Q69.124 -2.352 69.866 -3.2199999999999998Q70.608 -4.088 70.608 -5.684Z M87.872 -0.28V-19.32Q87.872 -19.6 88.152 -19.6H90.28Q90.56 -19.6 90.56 -19.32V-0.28Q90.56 0.0 90.28 0.0H88.152Q87.872 0.0 87.872 -0.28Z M105.35999999999999 -4.788V-5.516Q105.35999999999999 -5.796 105.63999999999999 -5.796H107.71199999999999Q107.99199999999999 -5.796 107.99199999999999 -5.516V-4.928Q107.99199999999999 -3.64 108.636 -2.87Q109.27999999999999 -2.1 110.288 -2.1Q111.29599999999999 -2.1 111.954 -2.842Q112.612 -3.584 112.612 -4.788Q112.612 -5.6000000000000005 112.262 -6.216Q111.91199999999999 -6.832 111.338 -7.322Q110.764 -7.812 109.476 -8.764Q108.04799999999999 -9.828 107.23599999999999 -10.584Q106.42399999999999 -11.34 105.86399999999999 -12.404Q105.30399999999999 -13.468 105.30399999999999 -14.896Q105.30399999999999 -17.164 106.648 -18.494Q107.99199999999999 -19.824 110.148 -19.824Q112.38799999999999 -19.824 113.74599999999998 -18.396Q115.10399999999998 -16.968 115.10399999999998 -14.644V-13.944Q115.10399999999998 -13.664 114.824 -13.664H112.752Q112.472 -13.664 112.472 -13.944V-14.700000000000001Q112.472 -15.96 111.828 -16.73Q111.184 -17.5 110.148 -17.5Q109.16799999999999 -17.5 108.55199999999999 -16.814Q107.93599999999999 -16.128 107.93599999999999 -14.896Q107.93599999999999 -13.776 108.55199999999999 -13.006Q109.16799999999999 -12.236 110.93199999999999 -10.948Q112.612 -9.688 113.466 -8.904Q114.32 -8.120000000000001 114.782 -7.182Q115.244 -6.244 115.244 -4.956Q115.244 -2.604 113.872 -1.19Q112.5 0.224 110.288 0.224Q108.076 0.224 106.71799999999999 -1.162Q105.35999999999999 -2.548 105.35999999999999 -4.788Z M155.00799999999998 -0.224 152.432 -8.568Q152.404 -8.652000000000001 152.32 -8.652000000000001H150.35999999999999Q150.248 -8.652000000000001 150.248 -8.540000000000001V-0.28Q150.248 0.0 149.968 0.0H147.83999999999997Q147.55999999999997 0.0 147.55999999999997 -0.28V-19.32Q147.55999999999997 -19.6 147.83999999999997 -19.6H152.85199999999998Q154.27999999999997 -19.6 155.37199999999999 -18.9Q156.464 -18.2 157.06599999999997 -16.926000000000002Q157.66799999999998 -15.652000000000001 157.66799999999998 -14.028Q157.66799999999998 -12.264000000000001 156.94 -10.962Q156.212 -9.66 154.952 -9.072000000000001Q154.868 -8.988 154.896 -8.904L157.75199999999998 -0.308L157.77999999999997 -0.196Q157.77999999999997 0.0 157.528 0.0H155.344Q155.09199999999998 0.0 155.00799999999998 -0.224ZM150.248 -17.164V-10.892Q150.248 -10.78 150.35999999999999 -10.78H152.432Q153.57999999999998 -10.78 154.27999999999997 -11.661999999999999Q154.98 -12.544 154.98 -14.0Q154.98 -15.512 154.27999999999997 -16.394Q153.57999999999998 -17.276 152.432 -17.276H150.35999999999999Q150.248 -17.276 150.248 -17.164Z M172.10399999999998 -5.32V-19.32Q172.10399999999998 -19.6 172.384 -19.6H174.51199999999997Q174.79199999999997 -19.6 174.79199999999997 -19.32V-5.04Q174.79199999999997 -3.724 175.45 -2.912Q176.10799999999998 -2.1 177.17199999999997 -2.1Q178.26399999999998 -2.1 178.92199999999997 -2.912Q179.57999999999998 -3.724 179.57999999999998 -5.04V-19.32Q179.57999999999998 -19.6 179.85999999999999 -19.6H181.98799999999997Q182.26799999999997 -19.6 182.26799999999997 -19.32V-5.32Q182.26799999999997 -2.828 180.868 -1.3019999999999998Q179.468 0.224 177.17199999999997 0.224Q174.87599999999998 0.224 173.48999999999998 -1.3019999999999998Q172.10399999999998 -2.828 172.10399999999998 -5.32Z M206.7 -17.276H200.39999999999998Q200.28799999999998 -17.276 200.28799999999998 -17.164V-11.088000000000001Q200.28799999999998 -10.976 200.39999999999998 -10.976H204.26399999999998Q204.54399999999998 -10.976 204.54399999999998 -10.696V-8.932Q204.54399999999998 -8.652000000000001 204.26399999999998 -8.652000000000001H200.39999999999998Q200.28799999999998 -8.652000000000001 200.28799999999998 -8.540000000000001V-2.436Q200.28799999999998 -2.324 200.39999999999998 -2.324H206.7Q206.97999999999996 -2.324 206.97999999999996 -2.044V-0.28Q206.97999999999996 0.0 206.7 0.0H197.87999999999997Q197.59999999999997 0.0 197.59999999999997 -0.28V-19.32Q197.59999999999997 -19.6 197.87999999999997 -19.6H206.7Q206.97999999999996 -19.6 206.97999999999996 -19.32V-17.556Q206.97999999999996 -17.276 206.7 -17.276Z M249.37599999999998 -14.0Q249.37599999999998 -11.536 248.08799999999997 -10.024000000000001Q246.79999999999998 -8.512 244.7 -8.512H242.06799999999998Q241.95599999999996 -8.512 241.95599999999996 -8.4V-0.28Q241.95599999999996 0.0 241.676 0.0H239.54799999999997Q239.26799999999997 0.0 239.26799999999997 -0.28V-19.348Q239.26799999999997 -19.628 239.54799999999997 -19.628H244.55999999999997Q246.71599999999998 -19.628 248.046 -18.073999999999998Q249.37599999999998 -16.52 249.37599999999998 -14.0ZM246.688 -13.944Q246.688 -15.484 245.988 -16.394000000000002Q245.28799999999998 -17.304000000000002 244.14 -17.304000000000002H242.06799999999998Q241.95599999999996 -17.304000000000002 241.95599999999996 -17.192V-10.78Q241.95599999999996 -10.668000000000001 242.06799999999998 -10.668000000000001H244.14Q245.28799999999998 -10.668000000000001 245.988 -11.55Q246.688 -12.432 246.688 -13.944Z M271.288 -0.252 270.67199999999997 -3.472Q270.67199999999997 -3.528 270.63 -3.556Q270.58799999999997 -3.584 270.532 -3.584H265.96799999999996Q265.912 -3.584 265.87 -3.556Q265.828 -3.528 265.828 -3.472L265.24 -0.252Q265.212 0.0 264.932 0.0H262.804Q262.664 0.0 262.594 -0.084Q262.524 -0.168 262.55199999999996 -0.308L266.724 -19.348Q266.78 -19.6 267.032 -19.6H269.524Q269.804 -19.6 269.832 -19.348L274.032 -0.308V-0.252Q274.032 0.0 273.78 0.0H271.596Q271.344 0.0 271.288 -0.252ZM266.388 -5.712H270.11199999999997Q270.19599999999997 -5.712 270.19599999999997 -5.824L268.292 -15.764000000000001Q268.264 -15.82 268.236 -15.82Q268.20799999999997 -15.82 268.18 -15.764000000000001L266.304 -5.824Q266.304 -5.712 266.388 -5.712Z M287.46 -4.788V-5.516Q287.46 -5.796 287.73999999999995 -5.796H289.81199999999995Q290.092 -5.796 290.092 -5.516V-4.928Q290.092 -3.64 290.736 -2.87Q291.37999999999994 -2.1 292.388 -2.1Q293.39599999999996 -2.1 294.054 -2.842Q294.71199999999993 -3.584 294.71199999999993 -4.788Q294.71199999999993 -5.6000000000000005 294.36199999999997 -6.216Q294.01199999999994 -6.832 293.438 -7.322Q292.864 -7.812 291.57599999999996 -8.764Q290.14799999999997 -9.828 289.33599999999996 -10.584Q288.52399999999994 -11.34 287.96399999999994 -12.404Q287.40399999999994 -13.468 287.40399999999994 -14.896Q287.40399999999994 -17.164 288.74799999999993 -18.494Q290.092 -19.824 292.24799999999993 -19.824Q294.48799999999994 -19.824 295.84599999999995 -18.396Q297.20399999999995 -16.968 297.20399999999995 -14.644V-13.944Q297.20399999999995 -13.664 296.924 -13.664H294.852Q294.57199999999995 -13.664 294.57199999999995 -13.944V-14.700000000000001Q294.57199999999995 -15.96 293.92799999999994 -16.73Q293.28399999999993 -17.5 292.24799999999993 -17.5Q291.268 -17.5 290.65199999999993 -16.814Q290.03599999999994 -16.128 290.03599999999994 -14.896Q290.03599999999994 -13.776 290.65199999999993 -13.006Q291.268 -12.236 293.032 -10.948Q294.71199999999993 -9.688 295.5659999999999 -8.904Q296.41999999999996 -8.120000000000001 296.88199999999995 -7.182Q297.34399999999994 -6.244 297.34399999999994 -4.956Q297.34399999999994 -2.604 295.972 -1.19Q294.59999999999997 0.224 292.388 0.224Q290.17599999999993 0.224 288.818 -1.162Q287.46 -2.548 287.46 -4.788Z M321.77599999999995 -19.32V-17.556Q321.77599999999995 -17.276 321.496 -17.276H317.828Q317.71599999999995 -17.276 317.71599999999995 -17.164V-0.28Q317.71599999999995 0.0 317.436 0.0H315.30799999999994Q315.02799999999996 0.0 315.02799999999996 -0.28V-17.164Q315.02799999999996 -17.276 314.91599999999994 -17.276H311.44399999999996Q311.16399999999993 -17.276 311.16399999999993 -17.556V-19.32Q311.16399999999993 -19.6 311.44399999999996 -19.6H321.496Q321.77599999999995 -19.6 321.77599999999995 -19.32Z M345.452 -17.276H339.152Q339.03999999999996 -17.276 339.03999999999996 -17.164V-11.088000000000001Q339.03999999999996 -10.976 339.152 -10.976H343.01599999999996Q343.296 -10.976 343.296 -10.696V-8.932Q343.296 -8.652000000000001 343.01599999999996 -8.652000000000001H339.152Q339.03999999999996 -8.652000000000001 339.03999999999996 -8.540000000000001V-2.436Q339.03999999999996 -2.324 339.152 -2.324H345.452Q345.73199999999997 -2.324 345.73199999999997 -2.044V-0.28Q345.73199999999997 0.0 345.452 0.0H336.632Q336.352 0.0 336.352 -0.28V-19.32Q336.352 -19.6 336.632 -19.6H345.452Q345.73199999999997 -19.6 345.73199999999997 -19.32V-17.556Q345.73199999999997 -17.276 345.452 -17.276Z M360.308 -5.32V-19.32Q360.308 -19.6 360.58799999999997 -19.6H362.716Q362.996 -19.6 362.996 -19.32V-5.04Q362.996 -3.724 363.654 -2.912Q364.312 -2.1 365.376 -2.1Q366.46799999999996 -2.1 367.126 -2.912Q367.784 -3.724 367.784 -5.04V-19.32Q367.784 -19.6 368.06399999999996 -19.6H370.192Q370.472 -19.6 370.472 -19.32V-5.32Q370.472 -2.828 369.072 -1.3019999999999998Q367.67199999999997 0.224 365.376 0.224Q363.08 0.224 361.69399999999996 -1.3019999999999998Q360.308 -2.828 360.308 -5.32Z M393.252 -0.224 390.676 -8.568Q390.64799999999997 -8.652000000000001 390.56399999999996 -8.652000000000001H388.604Q388.49199999999996 -8.652000000000001 388.49199999999996 -8.540000000000001V-0.28Q388.49199999999996 0.0 388.212 0.0H386.084Q385.804 0.0 385.804 -0.28V-19.32Q385.804 -19.6 386.084 -19.6H391.096Q392.524 -19.6 393.616 -18.9Q394.70799999999997 -18.2 395.30999999999995 -16.926000000000002Q395.912 -15.652000000000001 395.912 -14.028Q395.912 -12.264000000000001 395.18399999999997 -10.962Q394.45599999999996 -9.66 393.19599999999997 -9.072000000000001Q393.11199999999997 -8.988 393.14 -8.904L395.996 -0.308L396.024 -0.196Q396.024 0.0 395.772 0.0H393.58799999999997Q393.336 0.0 393.252 -0.224ZM388.49199999999996 -17.164V-10.892Q388.49199999999996 -10.78 388.604 -10.78H390.676Q391.82399999999996 -10.78 392.524 -11.661999999999999Q393.224 -12.544 393.224 -14.0Q393.224 -15.512 392.524 -16.394Q391.82399999999996 -17.276 390.676 -17.276H388.604Q388.49199999999996 -17.276 388.49199999999996 -17.164Z M445.04400000000004 -7.9239999999999995Q445.04400000000004 -8.708000000000002 445.548 -9.212000000000002Q446.052 -9.716000000000001 446.83600000000007 -9.716000000000001Q447.62000000000006 -9.716000000000001 448.124 -9.212000000000002Q448.62800000000004 -8.708000000000002 448.62800000000004 -7.9239999999999995Q448.62800000000004 -7.140000000000001 448.124 -6.636000000000001Q447.62000000000006 -6.1320000000000014 446.83600000000007 -6.1320000000000014Q446.052 -6.1320000000000014 445.548 -6.636000000000001Q445.04400000000004 -7.140000000000001 445.04400000000004 -7.9239999999999995Z M507.70000000000005 -19.6H509.8280000000001Q510.10800000000006 -19.6 510.10800000000006 -19.32V-0.28Q510.10800000000006 0.0 509.8280000000001 0.0H507.70000000000005Q507.4200000000001 0.0 507.4200000000001 -0.28V-14.168000000000001Q507.4200000000001 -14.252 507.37800000000004 -14.252Q507.33600000000007 -14.252 507.2800000000001 -14.196L504.5920000000001 -9.184000000000001Q504.5080000000001 -8.988 504.3400000000001 -8.988Q504.1720000000001 -8.988 504.0880000000001 -9.184000000000001L501.42800000000005 -14.168000000000001Q501.37200000000007 -14.224 501.33000000000004 -14.224Q501.28800000000007 -14.224 501.28800000000007 -14.14V-0.28Q501.28800000000007 0.0 501.0080000000001 0.0H498.88000000000005Q498.6000000000001 0.0 498.6000000000001 -0.28V-19.32Q498.6000000000001 -19.6 498.88000000000005 -19.6H501.0080000000001Q501.20400000000006 -19.6 501.34400000000005 -19.404L504.28400000000005 -14.14Q504.31200000000007 -14.112 504.36800000000005 -14.112Q504.4240000000001 -14.112 504.45200000000006 -14.14L507.3640000000001 -19.404Q507.47600000000006 -19.6 507.70000000000005 -19.6Z M525.1040000000002 -4.9V-14.672Q525.1040000000002 -16.996 526.5040000000001 -18.41Q527.9040000000001 -19.824 530.2000000000002 -19.824Q532.5240000000001 -19.824 533.9380000000001 -18.41Q535.3520000000001 -16.996 535.3520000000001 -14.672V-4.9Q535.3520000000001 -2.576 533.9380000000001 -1.176Q532.5240000000001 0.224 530.2000000000002 0.224Q527.9040000000001 0.224 526.5040000000001 -1.176Q525.1040000000002 -2.576 525.1040000000002 -4.9ZM532.6640000000001 -4.788V-14.812000000000001Q532.6640000000001 -16.016000000000002 531.9920000000001 -16.758000000000003Q531.32 -17.5 530.2000000000002 -17.5Q529.1080000000001 -17.5 528.45 -16.758000000000003Q527.7920000000001 -16.016000000000002 527.7920000000001 -14.812000000000001V-4.788Q527.7920000000001 -3.584 528.45 -2.842Q529.1080000000001 -2.1 530.2000000000002 -2.1Q531.32 -2.1 531.9920000000001 -2.842Q532.6640000000001 -3.584 532.6640000000001 -4.788Z M558.6080000000002 -19.6H560.7080000000001Q560.9880000000002 -19.6 560.9880000000002 -19.32V-0.28Q560.9880000000002 0.0 560.7080000000001 0.0H558.3000000000002Q558.0760000000001 0.0 557.9920000000002 -0.224L553.2320000000001 -13.02Q553.2040000000002 -13.076 553.1480000000001 -13.062000000000001Q553.0920000000001 -13.048 553.0920000000001 -12.992L553.1200000000001 -0.28Q553.1200000000001 0.0 552.8400000000001 0.0H550.7120000000001Q550.4320000000001 0.0 550.4320000000001 -0.28V-19.32Q550.4320000000001 -19.6 550.7120000000001 -19.6H553.0920000000001Q553.3160000000001 -19.6 553.4000000000001 -19.376L558.1880000000001 -6.58Q558.2160000000001 -6.496 558.2720000000002 -6.51Q558.3280000000001 -6.524 558.3280000000001 -6.6080000000000005V-19.32Q558.3280000000001 -19.6 558.6080000000002 -19.6Z M576.4600000000002 -0.28V-19.32Q576.4600000000002 -19.6 576.7400000000001 -19.6H581.3320000000001Q583.6560000000002 -19.6 585.0280000000002 -18.172Q586.4000000000002 -16.744 586.4000000000002 -14.308V-5.292Q586.4000000000002 -2.856 585.0280000000002 -1.428Q583.6560000000002 0.0 581.3320000000001 0.0H576.7400000000001Q576.4600000000002 0.0 576.4600000000002 -0.28ZM579.2600000000001 -2.324 581.3040000000002 -2.352Q582.3680000000002 -2.352 583.0120000000002 -3.178Q583.6560000000002 -4.0040000000000004 583.6840000000002 -5.432V-14.168000000000001Q583.6840000000002 -15.596 583.0400000000002 -16.436Q582.3960000000002 -17.276 581.3040000000002 -17.276H579.2600000000001Q579.1480000000001 -17.276 579.1480000000001 -17.164V-2.436Q579.1480000000001 -2.324 579.2600000000001 -2.324Z M610.6920000000001 -17.276H604.392Q604.2800000000001 -17.276 604.2800000000001 -17.164V-11.088000000000001Q604.2800000000001 -10.976 604.392 -10.976H608.2560000000001Q608.5360000000001 -10.976 608.5360000000001 -10.696V-8.932Q608.5360000000001 -8.652000000000001 608.2560000000001 -8.652000000000001H604.392Q604.2800000000001 -8.652000000000001 604.2800000000001 -8.540000000000001V-2.436Q604.2800000000001 -2.324 604.392 -2.324H610.6920000000001Q610.9720000000001 -2.324 610.9720000000001 -2.044V-0.28Q610.9720000000001 0.0 610.6920000000001 0.0H601.8720000000001Q601.5920000000001 0.0 601.5920000000001 -0.28V-19.32Q601.5920000000001 -19.6 601.8720000000001 -19.6H610.6920000000001Q610.9720000000001 -19.6 610.9720000000001 -19.32V-17.556Q610.9720000000001 -17.276 610.6920000000001 -17.276Z M628.8520000000001 -0.252 624.8200000000002 -19.292V-19.348Q624.8200000000002 -19.6 625.0720000000001 -19.6H627.3960000000001Q627.6760000000002 -19.6 627.7040000000001 -19.348L630.3640000000001 -4.816Q630.3920000000002 -4.76 630.4200000000001 -4.76Q630.4480000000001 -4.76 630.4760000000001 -4.816L633.0800000000002 -19.348Q633.1360000000001 -19.6 633.3880000000001 -19.6H635.6280000000002Q635.9360000000001 -19.6 635.8800000000001 -19.292L631.8480000000001 -0.252Q631.8200000000002 0.0 631.5400000000001 0.0H629.1600000000001Q628.9080000000001 0.0 628.8520000000001 -0.252Z M650.4840000000002 -0.28V-19.32Q650.4840000000002 -19.6 650.7640000000001 -19.6H652.8920000000002Q653.1720000000001 -19.6 653.1720000000001 -19.32V-0.28Q653.1720000000001 0.0 652.8920000000002 0.0H650.7640000000001Q650.4840000000002 0.0 650.4840000000002 -0.28Z M668.6440000000001 -0.28V-19.32Q668.6440000000001 -19.6 668.9240000000001 -19.6H671.0520000000001Q671.3320000000001 -19.6 671.3320000000001 -19.32V-2.436Q671.3320000000001 -2.324 671.4440000000001 -2.324H677.7160000000001Q677.9960000000001 -2.324 677.9960000000001 -2.044V-0.28Q677.9960000000001 0.0 677.7160000000001 0.0H668.9240000000001Q668.6440000000001 0.0 668.6440000000001 -0.28Z M692.0400000000001 -0.28V-19.32Q692.0400000000001 -19.6 692.32 -19.6H694.4480000000001Q694.7280000000001 -19.6 694.7280000000001 -19.32V-2.436Q694.7280000000001 -2.324 694.84 -2.324H701.1120000000001Q701.392 -2.324 701.392 -2.044V-0.28Q701.392 0.0 701.1120000000001 0.0H692.32Q692.0400000000001 0.0 692.0400000000001 -0.28Z M724.5360000000001 -17.276H718.236Q718.124 -17.276 718.124 -17.164V-11.088000000000001Q718.124 -10.976 718.236 -10.976H722.1Q722.38 -10.976 722.38 -10.696V-8.932Q722.38 -8.652000000000001 722.1 -8.652000000000001H718.236Q718.124 -8.652000000000001 718.124 -8.540000000000001V-2.436Q718.124 -2.324 718.236 -2.324H724.5360000000001Q724.816 -2.324 724.816 -2.044V-0.28Q724.816 0.0 724.5360000000001 0.0H715.716Q715.436 0.0 715.436 -0.28V-19.32Q715.436 -19.6 715.716 -19.6H724.5360000000001Q724.816 -19.6 724.816 -19.32V-17.556Q724.816 -17.276 724.5360000000001 -17.276Z" fill="#E07020"/>
  </g>

  <g transform="translate(125.29, 470.00)">
    <path d="M3.4000000000000004 -33.32V-85.85000000000001Q3.4000000000000004 -101.66000000000001 13.600000000000001 -111.01000000000002Q23.8 -120.36000000000001 40.63 -120.36000000000001Q51.68000000000001 -120.36000000000001 60.095000000000006 -116.11000000000001Q68.51 -111.86000000000001 73.185 -103.95500000000001Q77.86 -96.05000000000001 77.86 -85.51V-79.9Q77.86 -78.71000000000001 77.18 -78.03Q76.5 -77.35000000000001 75.31 -77.35000000000001H48.45Q47.260000000000005 -77.35000000000001 46.580000000000005 -78.03Q45.900000000000006 -78.71000000000001 45.900000000000006 -79.9V-85.85000000000001Q45.900000000000006 -89.08000000000001 44.455000000000005 -91.03500000000001Q43.010000000000005 -92.99000000000001 40.63 -92.99000000000001Q38.25 -92.99000000000001 36.805 -91.03500000000001Q35.36 -89.08000000000001 35.36 -85.85000000000001V-33.150000000000006Q35.36 -29.92 36.805 -27.965000000000003Q38.25 -26.01 40.63 -26.01Q43.010000000000005 -26.01 44.455000000000005 -27.965000000000003Q45.900000000000006 -29.92 45.900000000000006 -33.150000000000006V-41.480000000000004Q45.900000000000006 -42.5 44.88 -42.5H43.52Q42.330000000000005 -42.5 41.650000000000006 -43.18000000000001Q40.970000000000006 -43.86000000000001 40.970000000000006 -45.050000000000004V-64.60000000000001Q40.970000000000006 -65.79 41.650000000000006 -66.47Q42.330000000000005 -67.15 43.52 -67.15H75.31Q76.5 -67.15 77.18 -66.47Q77.86 -65.79 77.86 -64.60000000000001V-33.32Q77.86 -22.950000000000003 73.185 -15.045000000000002Q68.51 -7.140000000000001 60.095000000000006 -2.89Q51.68000000000001 1.36 40.63 1.36Q23.8 1.36 13.600000000000001 -8.075000000000001Q3.4000000000000004 -17.51 3.4000000000000004 -33.32Z M134.51000000000002 -2.3800000000000003 132.64000000000001 -15.13Q132.64000000000001 -15.47 132.3 -15.810000000000002Q131.96 -16.150000000000002 131.45000000000002 -16.150000000000002H116.49000000000001Q115.98000000000002 -16.150000000000002 115.64000000000001 -15.810000000000002Q115.30000000000001 -15.47 115.30000000000001 -15.13L113.60000000000001 -2.3800000000000003Q113.43 0.0 110.88000000000001 0.0H84.19000000000001Q81.47 0.0 81.98 -2.72L106.12 -116.79Q106.63000000000001 -119.00000000000001 109.01 -119.00000000000001H139.95000000000002Q142.33 -119.00000000000001 142.84 -116.79L166.98000000000002 -2.72V-2.04Q166.98000000000002 0.0 164.60000000000002 0.0H137.23000000000002Q134.68 0.0 134.51000000000002 -2.3800000000000003ZM119.89000000000001 -40.63H127.88000000000001Q129.07 -40.63 128.73000000000002 -41.650000000000006L124.14000000000001 -72.25Q123.97 -72.93 123.63 -72.93Q123.29 -72.93 123.12 -72.25L119.04 -41.650000000000006Q119.04 -40.63 119.89000000000001 -40.63Z M231.11000000000004 -119.00000000000001H257.63000000000005Q258.82000000000005 -119.00000000000001 259.50000000000006 -118.32000000000002Q260.18000000000006 -117.64000000000001 260.18000000000006 -116.45V-2.5500000000000003Q260.18000000000006 -1.36 259.50000000000006 -0.68Q258.82000000000005 0.0 257.63000000000005 0.0H230.77000000000004Q229.58000000000004 0.0 228.90000000000003 -0.68Q228.22000000000003 -1.36 228.22000000000003 -2.5500000000000003V-71.74000000000001Q228.22000000000003 -72.42 227.79500000000002 -72.59Q227.37000000000003 -72.76 227.03000000000003 -72.08L217.34000000000003 -55.760000000000005L215.64000000000004 -52.7H215.47000000000003L204.25000000000003 -72.08Q203.91000000000003 -72.76 203.485 -72.67500000000001Q203.06000000000003 -72.59 203.06000000000003 -71.74000000000001V-2.5500000000000003Q203.06000000000003 -1.36 202.38000000000005 -0.68Q201.70000000000005 0.0 200.51000000000005 0.0H173.65000000000003Q172.46000000000004 0.0 171.78000000000003 -0.68Q171.10000000000002 -1.36 171.10000000000002 -2.5500000000000003V-116.45Q171.10000000000002 -117.64000000000001 171.78000000000003 -118.32000000000002Q172.46000000000004 -119.00000000000001 173.65000000000003 -119.00000000000001H200.17000000000002Q202.38000000000002 -119.00000000000001 203.23000000000002 -117.13000000000001L215.13000000000002 -95.37Q215.47000000000003 -94.86000000000001 215.89500000000004 -94.775Q216.32000000000005 -94.69000000000001 216.49000000000004 -95.37L228.05000000000004 -117.13000000000001Q229.07000000000005 -119.00000000000001 231.11000000000004 -119.00000000000001Z M331.62000000000006 -91.63000000000001H299.1500000000001Q298.13000000000005 -91.63000000000001 298.13000000000005 -90.61V-74.29Q298.13000000000005 -73.27000000000001 299.1500000000001 -73.27000000000001H315.9800000000001Q317.1700000000001 -73.27000000000001 317.8500000000001 -72.59Q318.5300000000001 -71.91000000000001 318.5300000000001 -70.72V-48.45Q318.5300000000001 -47.260000000000005 317.8500000000001 -46.580000000000005Q317.1700000000001 -45.900000000000006 315.9800000000001 -45.900000000000006H299.1500000000001Q298.13000000000005 -45.900000000000006 298.13000000000005 -44.88V-28.39Q298.13000000000005 -27.37 299.1500000000001 -27.37H331.62000000000006Q332.81000000000006 -27.37 333.49000000000007 -26.69Q334.1700000000001 -26.01 334.1700000000001 -24.82V-2.5500000000000003Q334.1700000000001 -1.36 333.49000000000007 -0.68Q332.81000000000006 0.0 331.62000000000006 0.0H268.7200000000001Q267.53000000000003 0.0 266.85 -0.68Q266.1700000000001 -1.36 266.1700000000001 -2.5500000000000003V-116.45Q266.1700000000001 -117.64000000000001 266.85 -118.32000000000002Q267.53000000000003 -119.00000000000001 268.7200000000001 -119.00000000000001H331.62000000000006Q332.81000000000006 -119.00000000000001 333.49000000000007 -118.32000000000002Q334.1700000000001 -117.64000000000001 334.1700000000001 -116.45V-94.18Q334.1700000000001 -92.99000000000001 333.49000000000007 -92.31Q332.81000000000006 -91.63000000000001 331.62000000000006 -91.63000000000001Z" fill="#F0EBE2"/>
    <path d="M348.6600000000001 -1.7000000000000002V-117.30000000000001Q348.6600000000001 -119.00000000000001 350.36000000000007 -119.00000000000001H375.3500000000001Q387.93000000000006 -119.00000000000001 395.24000000000007 -110.58500000000001Q402.55000000000007 -102.17 402.55000000000007 -87.72000000000001V-31.28Q402.55000000000007 -16.830000000000002 395.24000000000007 -8.415000000000001Q387.93000000000006 0.0 375.3500000000001 0.0H350.36000000000007Q348.6600000000001 0.0 348.6600000000001 -1.7000000000000002ZM358.3500000000001 -7.99H375.3500000000001Q383.68000000000006 -8.16 388.5250000000001 -14.365Q393.37000000000006 -20.57 393.37000000000006 -31.450000000000003V-87.38000000000001Q393.37000000000006 -98.43 388.5250000000001 -104.72Q383.68000000000006 -111.01 375.18000000000006 -111.01H358.3500000000001Q357.6700000000001 -111.01 357.6700000000001 -110.33000000000001V-8.67Q357.6700000000001 -7.99 358.3500000000001 -7.99Z M422.31000000000006 -27.200000000000003V-91.63000000000001Q422.31000000000006 -104.55000000000001 429.96000000000004 -112.45500000000001Q437.61000000000007 -120.36000000000001 450.19000000000005 -120.36000000000001Q462.77000000000004 -120.36000000000001 470.59000000000003 -112.45500000000001Q478.4100000000001 -104.55000000000001 478.4100000000001 -91.63000000000001V-27.200000000000003Q478.4100000000001 -14.450000000000001 470.59000000000003 -6.545000000000001Q462.77000000000004 1.36 450.19000000000005 1.36Q437.7800000000001 1.36 430.0450000000001 -6.545000000000001Q422.31000000000006 -14.450000000000001 422.31000000000006 -27.200000000000003ZM469.40000000000003 -26.860000000000003V-91.97000000000001Q469.40000000000003 -100.98 464.0450000000001 -106.67500000000001Q458.69000000000005 -112.37 450.19000000000005 -112.37Q441.86000000000007 -112.37 436.59000000000003 -106.67500000000001Q431.32000000000005 -100.98 431.32000000000005 -91.97000000000001V-26.860000000000003Q431.32000000000005 -17.85 436.59000000000003 -12.240000000000002Q441.86000000000007 -6.630000000000001 450.19000000000005 -6.630000000000001Q458.69000000000005 -6.630000000000001 464.0450000000001 -12.240000000000002Q469.40000000000003 -17.85 469.40000000000003 -26.860000000000003Z M496.9800000000001 -27.200000000000003V-91.63000000000001Q496.9800000000001 -104.55000000000001 504.6300000000001 -112.45500000000001Q512.2800000000001 -120.36000000000001 524.8600000000001 -120.36000000000001Q537.44 -120.36000000000001 545.26 -112.45500000000001Q553.08 -104.55000000000001 553.08 -91.63000000000001V-27.200000000000003Q553.08 -14.450000000000001 545.26 -6.545000000000001Q537.44 1.36 524.8600000000001 1.36Q512.45 1.36 504.71500000000003 -6.545000000000001Q496.9800000000001 -14.450000000000001 496.9800000000001 -27.200000000000003ZM544.07 -26.860000000000003V-91.97000000000001Q544.07 -100.98 538.7150000000001 -106.67500000000001Q533.3600000000001 -112.37 524.8600000000001 -112.37Q516.5300000000001 -112.37 511.2600000000001 -106.67500000000001Q505.99000000000007 -100.98 505.99000000000007 -91.97000000000001V-26.860000000000003Q505.99000000000007 -17.85 511.2600000000001 -12.240000000000002Q516.5300000000001 -6.630000000000001 524.8600000000001 -6.630000000000001Q533.3600000000001 -6.630000000000001 538.7150000000001 -12.240000000000002Q544.07 -17.85 544.07 -26.860000000000003Z M620.6100000000001 -1.36 601.9100000000001 -55.25000000000001Q601.7400000000001 -55.760000000000005 601.2300000000001 -55.760000000000005H584.4000000000001Q583.7200000000001 -55.760000000000005 583.7200000000001 -55.080000000000005V-1.7000000000000002Q583.7200000000001 0.0 582.0200000000001 0.0H576.4100000000001Q574.71 0.0 574.71 -1.7000000000000002V-117.30000000000001Q574.71 -119.00000000000001 576.4100000000001 -119.00000000000001H602.7600000000001Q614.6600000000001 -119.00000000000001 621.97 -110.16000000000001Q629.2800000000001 -101.32000000000001 629.2800000000001 -87.04Q629.2800000000001 -75.65 624.3500000000001 -67.66Q619.4200000000001 -59.67 610.9200000000001 -56.78Q610.2400000000001 -56.61000000000001 610.4100000000001 -55.93000000000001L629.6200000000001 -1.87L629.7900000000001 -1.1900000000000002Q629.7900000000001 0.0 628.2600000000001 0.0H622.6500000000001Q621.1200000000001 0.0 620.6100000000001 -1.36ZM583.7200000000001 -110.33000000000001V-63.92Q583.7200000000001 -63.24 584.4000000000001 -63.24H601.7400000000001Q610.07 -63.24 615.1700000000001 -69.78500000000001Q620.2700000000001 -76.33000000000001 620.2700000000001 -87.04Q620.2700000000001 -97.92 615.1700000000001 -104.465Q610.07 -111.01 601.7400000000001 -111.01H584.4000000000001Q583.7200000000001 -111.01 583.7200000000001 -110.33000000000001Z" fill="#F0EBE2"/>
  </g>
  <circle cx="787.89" cy="419.00" r="13.60" fill="#E07020"/>
  <g transform="translate(815.10, 470.00)">
    <path d="M88.74000000000001 -54.74V-30.94Q88.74000000000001 -29.750000000000004 88.06 -29.07Q87.38000000000001 -28.39 86.19000000000001 -28.39H81.09Q80.07000000000001 -28.39 80.07000000000001 -27.37V-2.5500000000000003Q80.07000000000001 -1.36 79.39000000000001 -0.68Q78.71000000000001 0.0 77.52000000000001 0.0H50.660000000000004Q49.470000000000006 0.0 48.790000000000006 -0.68Q48.11000000000001 -1.36 48.11000000000001 -2.5500000000000003V-27.37Q48.11000000000001 -28.39 47.09 -28.39H3.91Q2.72 -28.39 2.04 -29.07Q1.36 -29.750000000000004 1.36 -30.94V-49.81Q1.36 -51.34 1.87 -52.870000000000005L22.44 -116.96000000000001Q23.12 -119.00000000000001 25.330000000000002 -119.00000000000001H54.06Q55.42 -119.00000000000001 56.015 -118.23500000000001Q56.61000000000001 -117.47000000000001 56.27 -116.11000000000001L38.760000000000005 -58.480000000000004Q38.59 -57.290000000000006 39.61 -57.290000000000006H47.09Q48.11000000000001 -57.290000000000006 48.11000000000001 -58.31V-69.87Q48.11000000000001 -71.06 48.790000000000006 -71.74000000000001Q49.470000000000006 -72.42 50.660000000000004 -72.42H77.52000000000001Q78.71000000000001 -72.42 79.39000000000001 -71.74000000000001Q80.07000000000001 -71.06 80.07000000000001 -69.87V-58.31Q80.07000000000001 -57.290000000000006 81.09 -57.290000000000006H86.19000000000001Q87.38000000000001 -57.290000000000006 88.06 -56.61000000000001Q88.74000000000001 -55.93000000000001 88.74000000000001 -54.74Z M105.78 -119.00000000000001H133.66000000000003Q134.85000000000002 -119.00000000000001 135.53000000000003 -118.32000000000002Q136.21 -117.64000000000001 136.21 -116.45V-2.5500000000000003Q136.21 -1.36 135.53000000000003 -0.68Q134.85000000000002 0.0 133.66000000000003 0.0H106.80000000000001Q105.61000000000001 0.0 104.93 -0.68Q104.25000000000001 -1.36 104.25000000000001 -2.5500000000000003V-88.91000000000001Q104.25000000000001 -89.93 103.23 -89.93H92.01Q90.82000000000001 -89.93 90.14000000000001 -90.61000000000001Q89.46000000000001 -91.29 89.46000000000001 -92.48V-112.2Q89.46000000000001 -114.41000000000001 91.50000000000001 -115.09L102.72000000000001 -118.49000000000001Q104.25000000000001 -119.00000000000001 105.78 -119.00000000000001Z" fill="#E07020"/>
  </g>

  <line x1="440" y1="530" x2="640" y2="530" stroke="#E07020" stroke-width="2"/>

  <g transform="translate(324.72, 610.00)">
    <path d="M24.66 -32.339999999999996H13.2Q12.84 -32.339999999999996 12.84 -31.98V-26.22Q12.84 -25.86 13.2 -25.86H19.14Q19.56 -25.86 19.799999999999997 -25.619999999999997Q20.04 -25.38 20.04 -24.96V-17.099999999999998Q20.04 -16.68 19.799999999999997 -16.439999999999998Q19.56 -16.2 19.14 -16.2H13.2Q12.84 -16.2 12.84 -15.84V-10.02Q12.84 -9.66 13.2 -9.66H24.66Q25.08 -9.66 25.32 -9.42Q25.56 -9.18 25.56 -8.76V-0.8999999999999999Q25.56 -0.48 25.32 -0.24Q25.08 0.0 24.66 0.0H2.46Q2.04 0.0 1.8 -0.24Q1.56 -0.48 1.56 -0.8999999999999999V-41.1Q1.56 -41.519999999999996 1.8 -41.76Q2.04 -42.0 2.46 -42.0H24.66Q25.08 -42.0 25.32 -41.76Q25.56 -41.519999999999996 25.56 -41.1V-33.24Q25.56 -32.82 25.32 -32.58Q25.08 -32.339999999999996 24.66 -32.339999999999996Z M50.5 -42.0H59.86Q60.28 -42.0 60.519999999999996 -41.76Q60.76 -41.519999999999996 60.76 -41.1V-0.8999999999999999Q60.76 -0.48 60.519999999999996 -0.24Q60.28 0.0 59.86 0.0H49.18Q48.4 0.0 48.22 -0.78L43.66 -18.96Q43.6 -19.14 43.42 -19.14Q43.24 -19.14 43.24 -18.9L43.36 -0.8999999999999999Q43.36 -0.48 43.120000000000005 -0.24Q42.88 0.0 42.46 0.0H33.1Q32.68 0.0 32.44 -0.24Q32.2 -0.48 32.2 -0.8999999999999999V-41.1Q32.2 -41.519999999999996 32.44 -41.76Q32.68 -42.0 33.1 -42.0H43.66Q44.44 -42.0 44.62 -41.22L49.239999999999995 -22.98Q49.3 -22.74 49.48 -22.74Q49.66 -22.74 49.66 -22.98L49.6 -41.1Q49.6 -41.519999999999996 49.84 -41.76Q50.08 -42.0 50.5 -42.0Z M95.17999999999999 -41.1V-33.24Q95.17999999999999 -32.82 94.94 -32.58Q94.69999999999999 -32.339999999999996 94.27999999999999 -32.339999999999996H87.19999999999999Q86.83999999999999 -32.339999999999996 86.83999999999999 -31.98V-0.8999999999999999Q86.83999999999999 -0.48 86.6 -0.24Q86.35999999999999 0.0 85.94 0.0H76.46Q76.03999999999999 0.0 75.79999999999998 -0.24Q75.55999999999999 -0.48 75.55999999999999 -0.8999999999999999V-31.98Q75.55999999999999 -32.339999999999996 75.19999999999999 -32.339999999999996H68.3Q67.88 -32.339999999999996 67.63999999999999 -32.58Q67.39999999999999 -32.82 67.39999999999999 -33.24V-41.1Q67.39999999999999 -41.519999999999996 67.63999999999999 -41.76Q67.88 -42.0 68.3 -42.0H94.27999999999999Q94.69999999999999 -42.0 94.94 -41.76Q95.17999999999999 -41.519999999999996 95.17999999999999 -41.1Z M117.24 -0.78 113.57999999999998 -15.84Q113.46 -16.14 113.33999999999999 -16.14Q113.1 -16.14 113.1 -15.78V-0.8999999999999999Q113.1 -0.48 112.85999999999999 -0.24Q112.61999999999999 0.0 112.19999999999999 0.0H102.71999999999998Q102.3 0.0 102.06 -0.24Q101.82 -0.48 101.82 -0.8999999999999999V-41.1Q101.82 -41.519999999999996 102.06 -41.76Q102.3 -42.0 102.71999999999998 -42.0H116.21999999999998Q119.82 -42.0 122.60999999999999 -40.29Q125.39999999999999 -38.58 126.95999999999998 -35.55Q128.51999999999998 -32.519999999999996 128.51999999999998 -28.619999999999997Q128.51999999999998 -25.32 127.38 -22.71Q126.24 -20.099999999999998 124.07999999999998 -18.48Q123.83999999999999 -18.3 123.89999999999999 -18.0L128.76 -1.02Q128.82 -0.8999999999999999 128.82 -0.72Q128.82 0.0 127.97999999999999 0.0H118.19999999999999Q117.41999999999999 0.0 117.24 -0.78ZM113.46 -32.339999999999996Q113.1 -32.339999999999996 113.1 -31.98V-25.08Q113.1 -24.72 113.46 -24.72H114.24Q115.55999999999999 -24.72 116.39999999999999 -25.71Q117.24 -26.7 117.24 -28.5Q117.24 -30.36 116.42999999999999 -31.349999999999998Q115.61999999999999 -32.339999999999996 114.24 -32.339999999999996Z M158.32 -32.339999999999996H146.85999999999999Q146.5 -32.339999999999996 146.5 -31.98V-26.22Q146.5 -25.86 146.85999999999999 -25.86H152.8Q153.22 -25.86 153.45999999999998 -25.619999999999997Q153.7 -25.38 153.7 -24.96V-17.099999999999998Q153.7 -16.68 153.45999999999998 -16.439999999999998Q153.22 -16.2 152.8 -16.2H146.85999999999999Q146.5 -16.2 146.5 -15.84V-10.02Q146.5 -9.66 146.85999999999999 -9.66H158.32Q158.74 -9.66 158.98000000000002 -9.42Q159.22 -9.18 159.22 -8.76V-0.8999999999999999Q159.22 -0.48 158.98000000000002 -0.24Q158.74 0.0 158.32 0.0H136.12Q135.7 0.0 135.45999999999998 -0.24Q135.22 -0.48 135.22 -0.8999999999999999V-41.1Q135.22 -41.519999999999996 135.45999999999998 -41.76Q135.7 -42.0 136.12 -42.0H158.32Q158.74 -42.0 158.98000000000002 -41.76Q159.22 -41.519999999999996 159.22 -41.1V-33.24Q159.22 -32.82 158.98000000000002 -32.58Q158.74 -32.339999999999996 158.32 -32.339999999999996Z M165.02 -0.8999999999999999V-9.06Q165.02 -9.6 165.32000000000002 -10.2L176.78 -31.919999999999998Q176.96 -32.339999999999996 176.54000000000002 -32.339999999999996H165.92000000000002Q165.5 -32.339999999999996 165.26 -32.58Q165.02 -32.82 165.02 -33.24V-41.1Q165.02 -41.519999999999996 165.26 -41.76Q165.5 -42.0 165.92000000000002 -42.0H188.0Q188.42000000000002 -42.0 188.66000000000003 -41.76Q188.9 -41.519999999999996 188.9 -41.1V-32.94Q188.9 -32.4 188.60000000000002 -31.799999999999997L177.02 -10.08Q176.84 -9.66 177.26000000000002 -9.66H188.0Q188.42000000000002 -9.66 188.66000000000003 -9.42Q188.9 -9.18 188.9 -8.76V-0.8999999999999999Q188.9 -0.48 188.66000000000003 -0.24Q188.42000000000002 0.0 188.0 0.0H165.92000000000002Q165.5 0.0 165.26 -0.24Q165.02 -0.48 165.02 -0.8999999999999999Z M227.42000000000002 -17.879999999999995Q227.42000000000002 -20.4 229.01000000000002 -21.959999999999997Q230.60000000000002 -23.519999999999996 233.06 -23.519999999999996Q235.52 -23.519999999999996 237.11 -21.959999999999997Q238.70000000000002 -20.4 238.70000000000002 -17.879999999999995Q238.70000000000002 -15.479999999999997 237.08 -13.859999999999996Q235.46 -12.239999999999995 233.06 -12.239999999999995Q230.60000000000002 -12.239999999999995 229.01000000000002 -13.829999999999995Q227.42000000000002 -15.419999999999995 227.42000000000002 -17.879999999999995Z M276.86 -11.52V-15.0Q276.86 -15.42 277.1 -15.66Q277.34 -15.899999999999999 277.76 -15.899999999999999H287.24Q287.65999999999997 -15.899999999999999 287.9 -15.66Q288.14 -15.42 288.14 -15.0V-11.4Q288.14 -10.44 288.62 -9.809999999999999Q289.1 -9.18 289.88 -9.18Q290.71999999999997 -9.18 291.23 -9.809999999999999Q291.74 -10.44 291.74 -11.4V-41.1Q291.74 -41.519999999999996 291.98 -41.76Q292.21999999999997 -42.0 292.64 -42.0H302.12Q302.54 -42.0 302.78 -41.76Q303.02 -41.519999999999996 303.02 -41.1V-11.52Q303.02 -7.9799999999999995 301.37 -5.25Q299.71999999999997 -2.52 296.75 -1.02Q293.78 0.48 289.88 0.48Q286.04 0.48 283.07000000000005 -1.02Q280.1 -2.52 278.48 -5.25Q276.86 -7.9799999999999995 276.86 -11.52Z M309.78 -12.36V-29.64Q309.78 -35.519999999999996 313.40999999999997 -39.0Q317.03999999999996 -42.48 323.09999999999997 -42.48Q329.15999999999997 -42.48 332.78999999999996 -39.0Q336.41999999999996 -35.519999999999996 336.41999999999996 -29.64V-12.36Q336.41999999999996 -6.4799999999999995 332.78999999999996 -3.0Q329.15999999999997 0.48 323.09999999999997 0.48Q317.03999999999996 0.48 313.40999999999997 -3.0Q309.78 -6.4799999999999995 309.78 -12.36ZM325.14 -11.879999999999999V-30.119999999999997Q325.14 -31.38 324.6 -32.1Q324.06 -32.82 323.09999999999997 -32.82Q322.14 -32.82 321.6 -32.1Q321.06 -31.38 321.06 -30.119999999999997V-11.879999999999999Q321.06 -10.62 321.6 -9.899999999999999Q322.14 -9.18 323.09999999999997 -9.18Q324.06 -9.18 324.6 -9.899999999999999Q325.14 -10.62 325.14 -11.879999999999999Z M343.06 -12.48V-41.1Q343.06 -41.519999999999996 343.3 -41.76Q343.54 -42.0 343.96 -42.0H353.44Q353.86 -42.0 354.1 -41.76Q354.34000000000003 -41.519999999999996 354.34000000000003 -41.1V-11.4Q354.34000000000003 -10.379999999999999 354.82000000000005 -9.78Q355.3 -9.18 356.08 -9.18Q356.86 -9.18 357.31 -9.78Q357.76 -10.379999999999999 357.76 -11.4V-41.1Q357.76 -41.519999999999996 358.0 -41.76Q358.24 -42.0 358.66 -42.0H368.14Q368.56 -42.0 368.8 -41.76Q369.04 -41.519999999999996 369.04 -41.1V-12.48Q369.04 -8.64 367.42 -5.7Q365.8 -2.76 362.86 -1.14Q359.92 0.48 356.08 0.48Q352.18 0.48 349.24 -1.14Q346.3 -2.76 344.68 -5.7Q343.06 -8.64 343.06 -12.48Z M399.14000000000004 -32.339999999999996H387.68Q387.32 -32.339999999999996 387.32 -31.98V-26.22Q387.32 -25.86 387.68 -25.86H393.62Q394.04 -25.86 394.28000000000003 -25.619999999999997Q394.52000000000004 -25.38 394.52000000000004 -24.96V-17.099999999999998Q394.52000000000004 -16.68 394.28000000000003 -16.439999999999998Q394.04 -16.2 393.62 -16.2H387.68Q387.32 -16.2 387.32 -15.84V-10.02Q387.32 -9.66 387.68 -9.66H399.14000000000004Q399.56 -9.66 399.8 -9.42Q400.04 -9.18 400.04 -8.76V-0.8999999999999999Q400.04 -0.48 399.8 -0.24Q399.56 0.0 399.14000000000004 0.0H376.94Q376.52000000000004 0.0 376.28000000000003 -0.24Q376.04 -0.48 376.04 -0.8999999999999999V-41.1Q376.04 -41.519999999999996 376.28000000000003 -41.76Q376.52000000000004 -42.0 376.94 -42.0H399.14000000000004Q399.56 -42.0 399.8 -41.76Q400.04 -41.519999999999996 400.04 -41.1V-33.24Q400.04 -32.82 399.8 -32.58Q399.56 -32.339999999999996 399.14000000000004 -32.339999999999996Z M405.84000000000003 -0.8999999999999999V-9.06Q405.84000000000003 -9.6 406.14 -10.2L417.6 -31.919999999999998Q417.78000000000003 -32.339999999999996 417.36 -32.339999999999996H406.74Q406.32 -32.339999999999996 406.08000000000004 -32.58Q405.84000000000003 -32.82 405.84000000000003 -33.24V-41.1Q405.84000000000003 -41.519999999999996 406.08000000000004 -41.76Q406.32 -42.0 406.74 -42.0H428.82Q429.24 -42.0 429.48 -41.76Q429.72 -41.519999999999996 429.72 -41.1V-32.94Q429.72 -32.4 429.42 -31.799999999999997L417.84000000000003 -10.08Q417.66 -9.66 418.08 -9.66H428.82Q429.24 -9.66 429.48 -9.42Q429.72 -9.18 429.72 -8.76V-0.8999999999999999Q429.72 -0.48 429.48 -0.24Q429.24 0.0 428.82 0.0H406.74Q406.32 0.0 406.08000000000004 -0.24Q405.84000000000003 -0.48 405.84000000000003 -0.8999999999999999Z" fill="#F0EBE2"/>
  </g>
  <g transform="translate(442.00, 700.00)">
    <path d="M12.4 -1.04 1.2 -54.72V-55.04Q1.2 -56.0 2.32 -56.0H16.080000000000002Q17.28 -56.0 17.36 -54.88L20.96 -26.560000000000002Q20.96 -26.32 21.200000000000003 -26.32Q21.44 -26.32 21.44 -26.560000000000002L24.72 -54.88Q24.8 -56.0 26.0 -56.0H39.36Q40.72 -56.0 40.480000000000004 -54.72L29.12 -1.04Q28.88 0.0 27.76 0.0H13.76Q12.64 0.0 12.4 -1.04Z M49.76 -1.2V-54.800000000000004Q49.76 -55.36 50.08 -55.68Q50.4 -56.0 50.96 -56.0H63.6Q64.16 -56.0 64.47999999999999 -55.68Q64.8 -55.36 64.8 -54.800000000000004V-1.2Q64.8 -0.64 64.47999999999999 -0.32Q64.16 0.0 63.6 0.0H50.96Q50.4 0.0 50.08 -0.32Q49.76 -0.64 49.76 -1.2Z M85.28 -1.04 74.08 -54.72V-55.04Q74.08 -56.0 75.19999999999999 -56.0H88.96Q90.16 -56.0 90.24 -54.88L93.84 -26.560000000000002Q93.84 -26.32 94.08 -26.32Q94.32 -26.32 94.32 -26.560000000000002L97.6 -54.88Q97.67999999999999 -56.0 98.88 -56.0H112.24Q113.6 -56.0 113.36 -54.72L102.0 -1.04Q101.75999999999999 0.0 100.64 0.0H86.64Q85.52 0.0 85.28 -1.04Z M153.44 -43.12H138.16Q137.68 -43.12 137.68 -42.64V-34.96Q137.68 -34.480000000000004 138.16 -34.480000000000004H146.08Q146.64000000000001 -34.480000000000004 146.96 -34.160000000000004Q147.28 -33.84 147.28 -33.28V-22.8Q147.28 -22.240000000000002 146.96 -21.92Q146.64000000000001 -21.6 146.08 -21.6H138.16Q137.68 -21.6 137.68 -21.12V-13.36Q137.68 -12.88 138.16 -12.88H153.44Q154.0 -12.88 154.32 -12.56Q154.64 -12.24 154.64 -11.68V-1.2Q154.64 -0.64 154.32 -0.32Q154.0 0.0 153.44 0.0H123.84Q123.28 0.0 122.96000000000001 -0.32Q122.64 -0.64 122.64 -1.2V-54.800000000000004Q122.64 -55.36 122.96000000000001 -55.68Q123.28 -56.0 123.84 -56.0H153.44Q154.0 -56.0 154.32 -55.68Q154.64 -55.36 154.64 -54.800000000000004V-44.32Q154.64 -43.76 154.32 -43.44Q154.0 -43.12 153.44 -43.12Z M163.04000000000002 -1.2V-12.08Q163.04000000000002 -12.8 163.44000000000003 -13.6L178.72000000000003 -42.56Q178.96 -43.12 178.4 -43.12H164.24Q163.68 -43.12 163.36 -43.44Q163.04000000000002 -43.76 163.04000000000002 -44.32V-54.800000000000004Q163.04000000000002 -55.36 163.36 -55.68Q163.68 -56.0 164.24 -56.0H193.68Q194.24 -56.0 194.56 -55.68Q194.88 -55.36 194.88 -54.800000000000004V-43.92Q194.88 -43.2 194.48000000000002 -42.4L179.04000000000002 -13.44Q178.8 -12.88 179.36 -12.88H193.68Q194.24 -12.88 194.56 -12.56Q194.88 -12.24 194.88 -11.68V-1.2Q194.88 -0.64 194.56 -0.32Q194.24 0.0 193.68 0.0H164.24Q163.68 0.0 163.36 -0.32Q163.04000000000002 -0.64 163.04000000000002 -1.2Z" fill="#E07020"/>
  </g>

  <g transform="translate(326.91, 780.00)">
    <path d="M10.062 -16.041999999999998H4.212Q4.108 -16.041999999999998 4.108 -15.937999999999999V-10.296Q4.108 -10.192 4.212 -10.192H7.8Q8.06 -10.192 8.06 -9.932V-8.294Q8.06 -8.033999999999999 7.8 -8.033999999999999H4.212Q4.108 -8.033999999999999 4.108 -7.93V-2.262Q4.108 -2.158 4.212 -2.158H10.062Q10.322 -2.158 10.322 -1.898V-0.26Q10.322 0.0 10.062 0.0H1.8719999999999999Q1.6119999999999999 0.0 1.6119999999999999 -0.26V-17.939999999999998Q1.6119999999999999 -18.2 1.8719999999999999 -18.2H10.062Q10.322 -18.2 10.322 -17.939999999999998V-16.302Q10.322 -16.041999999999998 10.062 -16.041999999999998Z M20.22 -4.446V-5.122Q20.22 -5.382 20.48 -5.382H22.404Q22.663999999999998 -5.382 22.663999999999998 -5.122V-4.576Q22.663999999999998 -3.38 23.262 -2.665Q23.86 -1.95 24.796 -1.95Q25.732 -1.95 26.343 -2.639Q26.954 -3.328 26.954 -4.446Q26.954 -5.2 26.628999999999998 -5.772Q26.304 -6.343999999999999 25.771 -6.7989999999999995Q25.238 -7.254 24.041999999999998 -8.138Q22.716 -9.126 21.962 -9.828Q21.208 -10.53 20.688 -11.518Q20.168 -12.506 20.168 -13.831999999999999Q20.168 -15.937999999999999 21.415999999999997 -17.173Q22.663999999999998 -18.407999999999998 24.666 -18.407999999999998Q26.746 -18.407999999999998 28.006999999999998 -17.081999999999997Q29.268 -15.755999999999998 29.268 -13.597999999999999V-12.947999999999999Q29.268 -12.687999999999999 29.008 -12.687999999999999H27.084Q26.823999999999998 -12.687999999999999 26.823999999999998 -12.947999999999999V-13.649999999999999Q26.823999999999998 -14.819999999999999 26.226 -15.535Q25.628 -16.25 24.666 -16.25Q23.756 -16.25 23.183999999999997 -15.613Q22.612 -14.975999999999999 22.612 -13.831999999999999Q22.612 -12.792 23.183999999999997 -12.077Q23.756 -11.362 25.394 -10.166Q26.954 -8.996 27.747 -8.268Q28.54 -7.54 28.969 -6.6690000000000005Q29.398 -5.798 29.398 -4.601999999999999Q29.398 -2.4179999999999997 28.124 -1.1049999999999998Q26.849999999999998 0.208 24.796 0.208Q22.741999999999997 0.208 21.480999999999998 -1.079Q20.22 -2.366 20.22 -4.446Z M39.556 -4.498V-13.728Q39.556 -15.86 40.843 -17.134Q42.13 -18.407999999999998 44.236 -18.407999999999998Q46.368 -18.407999999999998 47.655 -17.134Q48.942 -15.86 48.942 -13.728V-13.312Q48.942 -13.052 48.682 -13.052L46.706 -12.947999999999999Q46.446 -12.947999999999999 46.446 -13.208V-13.883999999999999Q46.446 -14.95 45.834999999999994 -15.6Q45.224 -16.25 44.236 -16.25Q43.248 -16.25 42.65 -15.6Q42.052 -14.95 42.052 -13.883999999999999V-4.316Q42.052 -3.25 42.65 -2.6Q43.248 -1.95 44.236 -1.95Q45.224 -1.95 45.834999999999994 -2.6Q46.446 -3.25 46.446 -4.316V-4.992Q46.446 -5.252 46.706 -5.252L48.682 -5.148Q48.942 -5.148 48.942 -4.888V-4.498Q48.942 -2.366 47.655 -1.079Q46.368 0.208 44.236 0.208Q42.13 0.208 40.843 -1.079Q39.556 -2.366 39.556 -4.498Z M66.51 -0.23399999999999999 65.938 -3.2239999999999998Q65.938 -3.276 65.899 -3.3019999999999996Q65.86 -3.328 65.808 -3.328H61.57Q61.518 -3.328 61.479 -3.3019999999999996Q61.440000000000005 -3.276 61.440000000000005 -3.2239999999999998L60.894000000000005 -0.23399999999999999Q60.868 0.0 60.608000000000004 0.0H58.632000000000005Q58.502 0.0 58.437 -0.078Q58.372 -0.156 58.398 -0.286L62.272000000000006 -17.965999999999998Q62.324000000000005 -18.2 62.558 -18.2H64.872Q65.132 -18.2 65.158 -17.965999999999998L69.058 -0.286V-0.23399999999999999Q69.058 0.0 68.824 0.0H66.796Q66.562 0.0 66.51 -0.23399999999999999ZM61.96 -5.303999999999999H65.418Q65.49600000000001 -5.303999999999999 65.49600000000001 -5.4079999999999995L63.728 -14.638Q63.702 -14.69 63.676 -14.69Q63.650000000000006 -14.69 63.624 -14.638L61.882000000000005 -5.4079999999999995Q61.882000000000005 -5.303999999999999 61.96 -5.303999999999999Z M88.368 -13.0Q88.368 -10.712 87.172 -9.308Q85.976 -7.904 84.026 -7.904H81.582Q81.478 -7.904 81.478 -7.8V-0.26Q81.478 0.0 81.218 0.0H79.242Q78.982 0.0 78.982 -0.26V-17.965999999999998Q78.982 -18.226 79.242 -18.226H83.896Q85.898 -18.226 87.133 -16.783Q88.368 -15.34 88.368 -13.0ZM85.872 -12.947999999999999Q85.872 -14.378 85.22200000000001 -15.222999999999999Q84.572 -16.067999999999998 83.506 -16.067999999999998H81.582Q81.478 -16.067999999999998 81.478 -15.963999999999999V-10.01Q81.478 -9.905999999999999 81.582 -9.905999999999999H83.506Q84.572 -9.905999999999999 85.22200000000001 -10.724999999999998Q85.872 -11.543999999999999 85.872 -12.947999999999999Z M107.184 -16.041999999999998H101.334Q101.23 -16.041999999999998 101.23 -15.937999999999999V-10.296Q101.23 -10.192 101.334 -10.192H104.922Q105.182 -10.192 105.182 -9.932V-8.294Q105.182 -8.033999999999999 104.922 -8.033999999999999H101.334Q101.23 -8.033999999999999 101.23 -7.93V-2.262Q101.23 -2.158 101.334 -2.158H107.184Q107.444 -2.158 107.444 -1.898V-0.26Q107.444 0.0 107.184 0.0H98.994Q98.734 0.0 98.734 -0.26V-17.939999999999998Q98.734 -18.2 98.994 -18.2H107.184Q107.444 -18.2 107.444 -17.939999999999998V-16.302Q107.444 -16.041999999999998 107.184 -16.041999999999998Z M143.76799999999997 -7.357999999999997Q143.76799999999997 -8.085999999999999 144.236 -8.553999999999998Q144.70399999999998 -9.021999999999998 145.432 -9.021999999999998Q146.15999999999997 -9.021999999999998 146.628 -8.553999999999998Q147.09599999999998 -8.085999999999999 147.09599999999998 -7.357999999999997Q147.09599999999998 -6.629999999999999 146.628 -6.161999999999999Q146.15999999999997 -5.693999999999999 145.432 -5.693999999999999Q144.70399999999998 -5.693999999999999 144.236 -6.161999999999999Q143.76799999999997 -6.629999999999999 143.76799999999997 -7.357999999999997Z M192.96199999999996 -13.52V-4.68Q192.96199999999996 -2.8859999999999997 192.07799999999997 -1.6249999999999998Q191.19399999999996 -0.364 189.68599999999995 0.026Q189.60799999999998 0.078 189.60799999999998 0.156V2.574Q189.60799999999998 2.834 189.34799999999996 2.834H187.34599999999998Q187.08599999999996 2.834 187.08599999999996 2.574V0.156Q187.08599999999996 0.078 187.00799999999995 0.026Q185.49999999999997 -0.38999999999999996 184.62899999999996 -1.638Q183.75799999999995 -2.8859999999999997 183.75799999999995 -4.68V-13.52Q183.75799999999995 -15.703999999999999 185.03199999999995 -17.055999999999997Q186.30599999999995 -18.407999999999998 188.35999999999996 -18.407999999999998Q190.41399999999996 -18.407999999999998 191.68799999999996 -17.055999999999997Q192.96199999999996 -15.703999999999999 192.96199999999996 -13.52ZM190.46599999999995 -13.78Q190.46599999999995 -14.872 189.88099999999997 -15.561Q189.29599999999996 -16.25 188.35999999999996 -16.25Q187.42399999999995 -16.25 186.83899999999994 -15.561Q186.25399999999996 -14.872 186.25399999999996 -13.78V-4.42Q186.25399999999996 -3.328 186.83899999999994 -2.639Q187.42399999999995 -1.95 188.35999999999996 -1.95Q189.29599999999996 -1.95 189.88099999999997 -2.639Q190.46599999999995 -3.328 190.46599999999995 -4.42Z M203.69199999999995 -4.9399999999999995V-17.939999999999998Q203.69199999999995 -18.2 203.95199999999994 -18.2H205.92799999999994Q206.18799999999996 -18.2 206.18799999999996 -17.939999999999998V-4.68Q206.18799999999996 -3.4579999999999997 206.79899999999995 -2.7039999999999997Q207.40999999999994 -1.95 208.39799999999994 -1.95Q209.41199999999995 -1.95 210.02299999999997 -2.7039999999999997Q210.63399999999996 -3.4579999999999997 210.63399999999996 -4.68V-17.939999999999998Q210.63399999999996 -18.2 210.89399999999995 -18.2H212.86999999999995Q213.12999999999994 -18.2 213.12999999999994 -17.939999999999998V-4.9399999999999995Q213.12999999999994 -2.626 211.82999999999993 -1.2089999999999999Q210.52999999999994 0.208 208.39799999999994 0.208Q206.26599999999996 0.208 204.97899999999996 -1.2089999999999999Q203.69199999999995 -2.626 203.69199999999995 -4.9399999999999995Z M224.22399999999996 -0.26V-17.939999999999998Q224.22399999999996 -18.2 224.48399999999998 -18.2H226.45999999999998Q226.71999999999997 -18.2 226.71999999999997 -17.939999999999998V-0.26Q226.71999999999997 0.0 226.45999999999998 0.0H224.48399999999998Q224.22399999999996 0.0 224.22399999999996 -0.26Z M237.08599999999996 -0.26V-2.002Q237.08599999999996 -2.132 237.16399999999996 -2.314L243.19599999999997 -15.911999999999999Q243.22199999999995 -15.963999999999999 243.19599999999997 -16.003Q243.16999999999996 -16.041999999999998 243.11799999999997 -16.041999999999998H237.34599999999998Q237.08599999999996 -16.041999999999998 237.08599999999996 -16.302V-17.939999999999998Q237.08599999999996 -18.2 237.34599999999998 -18.2H245.63999999999996Q245.89999999999998 -18.2 245.89999999999998 -17.939999999999998V-16.198Q245.89999999999998 -16.093999999999998 245.82199999999997 -15.886L239.76399999999995 -2.288Q239.73799999999997 -2.2359999999999998 239.76399999999995 -2.197Q239.78999999999996 -2.158 239.84199999999996 -2.158H245.63999999999996Q245.89999999999998 -2.158 245.89999999999998 -1.898V-0.26Q245.89999999999998 0.0 245.63999999999996 0.0H237.34599999999998Q237.08599999999996 0.0 237.08599999999996 -0.26Z M282.172 -7.357999999999997Q282.172 -8.085999999999999 282.64 -8.553999999999998Q283.108 -9.021999999999998 283.836 -9.021999999999998Q284.564 -9.021999999999998 285.03200000000004 -8.553999999999998Q285.5 -8.085999999999999 285.5 -7.357999999999997Q285.5 -6.629999999999999 285.03200000000004 -6.161999999999999Q284.564 -5.693999999999999 283.836 -5.693999999999999Q283.108 -5.693999999999999 282.64 -6.161999999999999Q282.172 -6.629999999999999 282.172 -7.357999999999997Z M329.3639999999999 -0.23399999999999999 328.7919999999999 -3.2239999999999998Q328.7919999999999 -3.276 328.75299999999993 -3.3019999999999996Q328.71399999999994 -3.328 328.6619999999999 -3.328H324.4239999999999Q324.37199999999996 -3.328 324.33299999999997 -3.3019999999999996Q324.2939999999999 -3.276 324.2939999999999 -3.2239999999999998L323.74799999999993 -0.23399999999999999Q323.7219999999999 0.0 323.46199999999993 0.0H321.48599999999993Q321.35599999999994 0.0 321.29099999999994 -0.078Q321.22599999999994 -0.156 321.25199999999995 -0.286L325.1259999999999 -17.965999999999998Q325.17799999999994 -18.2 325.4119999999999 -18.2H327.72599999999994Q327.98599999999993 -18.2 328.01199999999994 -17.965999999999998L331.9119999999999 -0.286V-0.23399999999999999Q331.9119999999999 0.0 331.67799999999994 0.0H329.6499999999999Q329.41599999999994 0.0 329.3639999999999 -0.23399999999999999ZM324.8139999999999 -5.303999999999999H328.27199999999993Q328.3499999999999 -5.303999999999999 328.3499999999999 -5.4079999999999995L326.58199999999994 -14.638Q326.5559999999999 -14.69 326.5299999999999 -14.69Q326.5039999999999 -14.69 326.47799999999995 -14.638L324.73599999999993 -5.4079999999999995Q324.73599999999993 -5.303999999999999 324.8139999999999 -5.303999999999999Z M341.49799999999993 -4.498V-13.728Q341.49799999999993 -15.86 342.78499999999997 -17.134Q344.07199999999995 -18.407999999999998 346.17799999999994 -18.407999999999998Q348.30999999999995 -18.407999999999998 349.597 -17.134Q350.88399999999996 -15.86 350.88399999999996 -13.728V-13.312Q350.88399999999996 -13.052 350.62399999999997 -13.052L348.64799999999997 -12.947999999999999Q348.3879999999999 -12.947999999999999 348.3879999999999 -13.208V-13.883999999999999Q348.3879999999999 -14.95 347.77699999999993 -15.6Q347.16599999999994 -16.25 346.17799999999994 -16.25Q345.18999999999994 -16.25 344.5919999999999 -15.6Q343.9939999999999 -14.95 343.9939999999999 -13.883999999999999V-4.316Q343.9939999999999 -3.25 344.5919999999999 -2.6Q345.18999999999994 -1.95 346.17799999999994 -1.95Q347.16599999999994 -1.95 347.77699999999993 -2.6Q348.3879999999999 -3.25 348.3879999999999 -4.316V-4.992Q348.3879999999999 -5.252 348.64799999999997 -5.252L350.62399999999997 -5.148Q350.88399999999996 -5.148 350.88399999999996 -4.888V-4.498Q350.88399999999996 -2.366 349.597 -1.079Q348.30999999999995 0.208 346.17799999999994 0.208Q344.07199999999995 0.208 342.78499999999997 -1.079Q341.49799999999993 -2.366 341.49799999999993 -4.498Z M370.63599999999997 -17.939999999999998V-16.302Q370.63599999999997 -16.041999999999998 370.376 -16.041999999999998H366.96999999999997Q366.86599999999993 -16.041999999999998 366.86599999999993 -15.937999999999999V-0.26Q366.86599999999993 0.0 366.60599999999994 0.0H364.62999999999994Q364.36999999999995 0.0 364.36999999999995 -0.26V-15.937999999999999Q364.36999999999995 -16.041999999999998 364.26599999999996 -16.041999999999998H361.042Q360.7819999999999 -16.041999999999998 360.7819999999999 -16.302V-17.939999999999998Q360.7819999999999 -18.2 361.042 -18.2H370.376Q370.63599999999997 -18.2 370.63599999999997 -17.939999999999998Z M381.02799999999996 -0.26V-17.939999999999998Q381.02799999999996 -18.2 381.28799999999995 -18.2H383.26399999999995Q383.52399999999994 -18.2 383.52399999999994 -17.939999999999998V-0.26Q383.52399999999994 0.0 383.26399999999995 0.0H381.28799999999995Q381.02799999999996 0.0 381.02799999999996 -0.26Z M394.38399999999996 -4.55V-13.623999999999999Q394.38399999999996 -15.782 395.68399999999997 -17.095Q396.984 -18.407999999999998 399.116 -18.407999999999998Q401.27399999999994 -18.407999999999998 402.587 -17.095Q403.9 -15.782 403.9 -13.623999999999999V-4.55Q403.9 -2.392 402.587 -1.0919999999999999Q401.27399999999994 0.208 399.116 0.208Q396.984 0.208 395.68399999999997 -1.0919999999999999Q394.38399999999996 -2.392 394.38399999999996 -4.55ZM401.40399999999994 -4.446V-13.754Q401.40399999999994 -14.872 400.78 -15.561Q400.15599999999995 -16.25 399.116 -16.25Q398.102 -16.25 397.491 -15.561Q396.88 -14.872 396.88 -13.754V-4.446Q396.88 -3.328 397.491 -2.639Q398.102 -1.95 399.116 -1.95Q400.15599999999995 -1.95 400.78 -2.639Q401.40399999999994 -3.328 401.40399999999994 -4.446Z M422.352 -18.2H424.30199999999996Q424.56199999999995 -18.2 424.56199999999995 -17.939999999999998V-0.26Q424.56199999999995 0.0 424.30199999999996 0.0H422.066Q421.85799999999995 0.0 421.78 -0.208L417.35999999999996 -12.09Q417.33399999999995 -12.142 417.2819999999999 -12.129Q417.22999999999996 -12.116 417.22999999999996 -12.064L417.256 -0.26Q417.256 0.0 416.996 0.0H415.02Q414.76 0.0 414.76 -0.26V-17.939999999999998Q414.76 -18.2 415.02 -18.2H417.22999999999996Q417.438 -18.2 417.51599999999996 -17.992L421.962 -6.109999999999999Q421.98799999999994 -6.032 422.03999999999996 -6.045Q422.092 -6.058 422.092 -6.136V-17.939999999999998Q422.092 -18.2 422.352 -18.2Z" fill="#8A8078"/>
  </g>

  <!-- CTA Button -->
  <rect x="340" y="860" width="400" height="84" rx="8" fill="#E07020"/>
  <g transform="translate(362.60, 913.00)">
    <path d="M7.924 -0.364 6.216 -7.392Q6.16 -7.532 6.104 -7.532Q5.992 -7.532 5.992 -7.364V-0.42Q5.992 -0.224 5.88 -0.112Q5.768 0.0 5.572 0.0H1.1480000000000001Q0.9520000000000001 0.0 0.8400000000000001 -0.112Q0.728 -0.224 0.728 -0.42V-19.18Q0.728 -19.376 0.8400000000000001 -19.488Q0.9520000000000001 -19.6 1.1480000000000001 -19.6H7.448Q9.128 -19.6 10.43 -18.802Q11.732000000000001 -18.004 12.46 -16.59Q13.188 -15.176 13.188 -13.356Q13.188 -11.816 12.656 -10.598Q12.124 -9.38 11.116 -8.624Q11.004 -8.540000000000001 11.032 -8.4L13.3 -0.47600000000000003Q13.328 -0.42 13.328 -0.336Q13.328 0.0 12.936 0.0H8.372Q8.008000000000001 0.0 7.924 -0.364ZM6.16 -15.092Q5.992 -15.092 5.992 -14.924V-11.704Q5.992 -11.536 6.16 -11.536H6.524Q7.140000000000001 -11.536 7.532 -11.998000000000001Q7.924 -12.46 7.924 -13.3Q7.924 -14.168000000000001 7.546 -14.63Q7.168 -15.092 6.524 -15.092Z M31.228 -15.092H25.88Q25.712 -15.092 25.712 -14.924V-12.236Q25.712 -12.068 25.88 -12.068H28.652Q28.848 -12.068 28.96 -11.956Q29.072 -11.844 29.072 -11.648V-7.98Q29.072 -7.784 28.96 -7.672000000000001Q28.848 -7.5600000000000005 28.652 -7.5600000000000005H25.88Q25.712 -7.5600000000000005 25.712 -7.392V-4.676Q25.712 -4.508 25.88 -4.508H31.228Q31.424 -4.508 31.536 -4.396Q31.648 -4.284 31.648 -4.088V-0.42Q31.648 -0.224 31.536 -0.112Q31.424 0.0 31.228 0.0H20.868Q20.672 0.0 20.560000000000002 -0.112Q20.448 -0.224 20.448 -0.42V-19.18Q20.448 -19.376 20.560000000000002 -19.488Q20.672 -19.6 20.868 -19.6H31.228Q31.424 -19.6 31.536 -19.488Q31.648 -19.376 31.648 -19.18V-15.512Q31.648 -15.316 31.536 -15.204Q31.424 -15.092 31.228 -15.092Z M38.768 -5.04V-5.908Q38.768 -6.104 38.88 -6.216Q38.992000000000004 -6.328 39.188 -6.328H43.556Q43.752 -6.328 43.864000000000004 -6.216Q43.976 -6.104 43.976 -5.908V-5.292Q43.976 -4.844 44.2 -4.564Q44.424 -4.284 44.760000000000005 -4.284Q45.096000000000004 -4.284 45.32000000000001 -4.536Q45.544000000000004 -4.788 45.544000000000004 -5.18Q45.544000000000004 -5.656 45.096000000000004 -6.118Q44.648 -6.58 43.22 -7.588Q41.82 -8.568 40.91 -9.379999999999999Q40.0 -10.192 39.328 -11.424Q38.656 -12.656 38.656 -14.252Q38.656 -15.904 39.397999999999996 -17.164Q40.14 -18.424 41.498000000000005 -19.124000000000002Q42.856 -19.824 44.620000000000005 -19.824Q46.412 -19.824 47.769999999999996 -19.124000000000002Q49.128 -18.424 49.870000000000005 -17.164Q50.612 -15.904 50.612 -14.252V-13.636000000000001Q50.612 -13.44 50.5 -13.328Q50.388000000000005 -13.216000000000001 50.192 -13.216000000000001H45.852000000000004Q45.656 -13.216000000000001 45.544 -13.328Q45.432 -13.44 45.432 -13.636000000000001V-14.364Q45.432 -14.784 45.208 -15.05Q44.984 -15.316 44.620000000000005 -15.316Q44.256 -15.316 44.046 -15.036000000000001Q43.836 -14.756 43.836 -14.280000000000001Q43.836 -13.72 44.284 -13.202000000000002Q44.732 -12.684000000000001 46.076 -11.704Q47.868 -10.388 48.778000000000006 -9.576Q49.688 -8.764 50.206 -7.741999999999999Q50.724000000000004 -6.72 50.724000000000004 -5.348Q50.724000000000004 -2.8000000000000003 49.072 -1.288Q47.42 0.224 44.732 0.224Q42.94 0.224 41.596000000000004 -0.44800000000000006Q40.252 -1.12 39.510000000000005 -2.31Q38.768 -3.5 38.768 -5.04Z M68.624 -15.092H63.275999999999996Q63.108 -15.092 63.108 -14.924V-12.236Q63.108 -12.068 63.275999999999996 -12.068H66.048Q66.244 -12.068 66.356 -11.956Q66.468 -11.844 66.468 -11.648V-7.98Q66.468 -7.784 66.356 -7.672000000000001Q66.244 -7.5600000000000005 66.048 -7.5600000000000005H63.275999999999996Q63.108 -7.5600000000000005 63.108 -7.392V-4.676Q63.108 -4.508 63.275999999999996 -4.508H68.624Q68.82 -4.508 68.93199999999999 -4.396Q69.044 -4.284 69.044 -4.088V-0.42Q69.044 -0.224 68.93199999999999 -0.112Q68.82 0.0 68.624 0.0H58.264Q58.068 0.0 57.956 -0.112Q57.844 -0.224 57.844 -0.42V-19.18Q57.844 -19.376 57.956 -19.488Q58.068 -19.6 58.264 -19.6H68.624Q68.82 -19.6 68.93199999999999 -19.488Q69.044 -19.376 69.044 -19.18V-15.512Q69.044 -15.316 68.93199999999999 -15.204Q68.82 -15.092 68.624 -15.092Z M83.47200000000001 -0.364 81.764 -7.392Q81.708 -7.532 81.652 -7.532Q81.54 -7.532 81.54 -7.364V-0.42Q81.54 -0.224 81.428 -0.112Q81.316 0.0 81.12 0.0H76.696Q76.5 0.0 76.388 -0.112Q76.276 -0.224 76.276 -0.42V-19.18Q76.276 -19.376 76.388 -19.488Q76.5 -19.6 76.696 -19.6H82.99600000000001Q84.676 -19.6 85.97800000000001 -18.802Q87.28 -18.004 88.00800000000001 -16.59Q88.736 -15.176 88.736 -13.356Q88.736 -11.816 88.20400000000001 -10.598Q87.672 -9.38 86.664 -8.624Q86.552 -8.540000000000001 86.58 -8.4L88.848 -0.47600000000000003Q88.876 -0.42 88.876 -0.336Q88.876 0.0 88.48400000000001 0.0H83.92Q83.556 0.0 83.47200000000001 -0.364ZM81.708 -15.092Q81.54 -15.092 81.54 -14.924V-11.704Q81.54 -11.536 81.708 -11.536H82.072Q82.688 -11.536 83.08000000000001 -11.998000000000001Q83.47200000000001 -12.46 83.47200000000001 -13.3Q83.47200000000001 -14.168000000000001 83.09400000000001 -14.63Q82.71600000000001 -15.092 82.072 -15.092Z M99.608 -0.364 95.688 -19.152V-19.264Q95.688 -19.6 96.08 -19.6H100.896Q101.316 -19.6 101.344 -19.208000000000002L102.604 -9.296Q102.604 -9.212 102.688 -9.212Q102.772 -9.212 102.772 -9.296L103.92 -19.208000000000002Q103.94800000000001 -19.6 104.368 -19.6H109.044Q109.52 -19.6 109.436 -19.152L105.46000000000001 -0.364Q105.376 0.0 104.98400000000001 0.0H100.084Q99.69200000000001 0.0 99.608 -0.364Z M127.36399999999999 -15.092H122.01599999999999Q121.848 -15.092 121.848 -14.924V-12.236Q121.848 -12.068 122.01599999999999 -12.068H124.788Q124.984 -12.068 125.096 -11.956Q125.208 -11.844 125.208 -11.648V-7.98Q125.208 -7.784 125.096 -7.672000000000001Q124.984 -7.5600000000000005 124.788 -7.5600000000000005H122.01599999999999Q121.848 -7.5600000000000005 121.848 -7.392V-4.676Q121.848 -4.508 122.01599999999999 -4.508H127.36399999999999Q127.56 -4.508 127.672 -4.396Q127.78399999999999 -4.284 127.78399999999999 -4.088V-0.42Q127.78399999999999 -0.224 127.672 -0.112Q127.56 0.0 127.36399999999999 0.0H117.00399999999999Q116.80799999999999 0.0 116.696 -0.112Q116.58399999999999 -0.224 116.58399999999999 -0.42V-19.18Q116.58399999999999 -19.376 116.696 -19.488Q116.80799999999999 -19.6 117.00399999999999 -19.6H127.36399999999999Q127.56 -19.6 127.672 -19.488Q127.78399999999999 -19.376 127.78399999999999 -19.18V-15.512Q127.78399999999999 -15.316 127.672 -15.204Q127.56 -15.092 127.36399999999999 -15.092Z M134.62400000000002 -0.42V-4.228Q134.62400000000002 -4.48 134.764 -4.76L140.11200000000002 -14.896Q140.196 -15.092 140.0 -15.092H135.044Q134.848 -15.092 134.73600000000002 -15.204Q134.62400000000002 -15.316 134.62400000000002 -15.512V-19.18Q134.62400000000002 -19.376 134.73600000000002 -19.488Q134.848 -19.6 135.044 -19.6H145.348Q145.544 -19.6 145.656 -19.488Q145.768 -19.376 145.768 -19.18V-15.372Q145.768 -15.120000000000001 145.62800000000001 -14.84L140.22400000000002 -4.704Q140.14000000000001 -4.508 140.336 -4.508H145.348Q145.544 -4.508 145.656 -4.396Q145.768 -4.284 145.768 -4.088V-0.42Q145.768 -0.224 145.656 -0.112Q145.544 0.0 145.348 0.0H135.044Q134.848 0.0 134.73600000000002 -0.112Q134.62400000000002 -0.224 134.62400000000002 -0.42Z M174.23200000000003 -19.6H178.60000000000002Q178.79600000000002 -19.6 178.90800000000002 -19.488Q179.02 -19.376 179.02 -19.18V-0.42Q179.02 -0.224 178.90800000000002 -0.112Q178.79600000000002 0.0 178.60000000000002 0.0H174.17600000000002Q173.98000000000002 0.0 173.86800000000002 -0.112Q173.75600000000003 -0.224 173.75600000000003 -0.42V-11.816Q173.75600000000003 -11.928 173.68600000000004 -11.956Q173.616 -11.984 173.56000000000003 -11.872L171.96400000000003 -9.184000000000001L171.68400000000003 -8.68H171.656L169.80800000000002 -11.872Q169.752 -11.984 169.68200000000002 -11.969999999999999Q169.61200000000002 -11.956 169.61200000000002 -11.816V-0.42Q169.61200000000002 -0.224 169.50000000000003 -0.112Q169.38800000000003 0.0 169.192 0.0H164.76800000000003Q164.57200000000003 0.0 164.46000000000004 -0.112Q164.348 -0.224 164.348 -0.42V-19.18Q164.348 -19.376 164.46000000000004 -19.488Q164.57200000000003 -19.6 164.76800000000003 -19.6H169.13600000000002Q169.50000000000003 -19.6 169.64000000000001 -19.292L171.60000000000002 -15.708Q171.656 -15.624 171.726 -15.61Q171.79600000000002 -15.596 171.824 -15.708L173.728 -19.292Q173.89600000000002 -19.6 174.23200000000003 -19.6Z M194.708 -0.392 194.4 -2.492Q194.4 -2.548 194.344 -2.604Q194.288 -2.66 194.204 -2.66H191.74Q191.656 -2.66 191.60000000000002 -2.604Q191.544 -2.548 191.544 -2.492L191.264 -0.392Q191.236 0.0 190.816 0.0H186.42000000000002Q185.972 0.0 186.056 -0.448L190.032 -19.236Q190.116 -19.6 190.508 -19.6H195.604Q195.996 -19.6 196.08 -19.236L200.056 -0.448V-0.336Q200.056 0.0 199.66400000000002 0.0H195.156Q194.736 0.0 194.708 -0.392ZM192.3 -6.692H193.616Q193.812 -6.692 193.756 -6.86L193.0 -11.9Q192.972 -12.012 192.916 -12.012Q192.86 -12.012 192.832 -11.9L192.16 -6.86Q192.16 -6.692 192.3 -6.692Z M207.204 -0.42V-19.18Q207.204 -19.376 207.316 -19.488Q207.428 -19.6 207.624 -19.6H212.048Q212.244 -19.6 212.356 -19.488Q212.468 -19.376 212.468 -19.18V-0.42Q212.468 -0.224 212.356 -0.112Q212.244 0.0 212.048 0.0H207.624Q207.428 0.0 207.316 -0.112Q207.204 -0.224 207.204 -0.42Z M228.464 -19.6H232.832Q233.028 -19.6 233.14 -19.488Q233.252 -19.376 233.252 -19.18V-0.42Q233.252 -0.224 233.14 -0.112Q233.028 0.0 232.832 0.0H227.848Q227.484 0.0 227.4 -0.364L225.272 -8.848Q225.244 -8.932 225.16 -8.932Q225.076 -8.932 225.076 -8.82L225.132 -0.42Q225.132 -0.224 225.01999999999998 -0.112Q224.908 0.0 224.712 0.0H220.344Q220.148 0.0 220.036 -0.112Q219.924 -0.224 219.924 -0.42V-19.18Q219.924 -19.376 220.036 -19.488Q220.148 -19.6 220.344 -19.6H225.272Q225.636 -19.6 225.72 -19.236L227.876 -10.724Q227.904 -10.612 227.988 -10.612Q228.072 -10.612 228.072 -10.724L228.044 -19.18Q228.044 -19.376 228.156 -19.488Q228.268 -19.6 228.464 -19.6Z M253.44799999999998 -19.18V-15.512Q253.44799999999998 -15.316 253.33599999999998 -15.204Q253.224 -15.092 253.028 -15.092H249.724Q249.55599999999998 -15.092 249.55599999999998 -14.924V-0.42Q249.55599999999998 -0.224 249.444 -0.112Q249.332 0.0 249.136 0.0H244.712Q244.516 0.0 244.404 -0.112Q244.292 -0.224 244.292 -0.42V-14.924Q244.292 -15.092 244.124 -15.092H240.904Q240.708 -15.092 240.596 -15.204Q240.48399999999998 -15.316 240.48399999999998 -15.512V-19.18Q240.48399999999998 -19.376 240.596 -19.488Q240.708 -19.6 240.904 -19.6H253.028Q253.224 -19.6 253.33599999999998 -19.488Q253.44799999999998 -19.376 253.44799999999998 -19.18Z M271.46 -15.092H266.112Q265.944 -15.092 265.944 -14.924V-12.236Q265.944 -12.068 266.112 -12.068H268.884Q269.08 -12.068 269.192 -11.956Q269.304 -11.844 269.304 -11.648V-7.98Q269.304 -7.784 269.192 -7.672000000000001Q269.08 -7.5600000000000005 268.884 -7.5600000000000005H266.112Q265.944 -7.5600000000000005 265.944 -7.392V-4.676Q265.944 -4.508 266.112 -4.508H271.46Q271.656 -4.508 271.76800000000003 -4.396Q271.88 -4.284 271.88 -4.088V-0.42Q271.88 -0.224 271.76800000000003 -0.112Q271.656 0.0 271.46 0.0H261.1Q260.904 0.0 260.79200000000003 -0.112Q260.68 -0.224 260.68 -0.42V-19.18Q260.68 -19.376 260.79200000000003 -19.488Q260.904 -19.6 261.1 -19.6H271.46Q271.656 -19.6 271.76800000000003 -19.488Q271.88 -19.376 271.88 -19.18V-15.512Q271.88 -15.316 271.76800000000003 -15.204Q271.656 -15.092 271.46 -15.092Z M287.65200000000004 -19.6H292.02000000000004Q292.216 -19.6 292.328 -19.488Q292.44 -19.376 292.44 -19.18V-0.42Q292.44 -0.224 292.328 -0.112Q292.216 0.0 292.02000000000004 0.0H287.036Q286.672 0.0 286.588 -0.364L284.46000000000004 -8.848Q284.432 -8.932 284.348 -8.932Q284.264 -8.932 284.264 -8.82L284.32 -0.42Q284.32 -0.224 284.20799999999997 -0.112Q284.096 0.0 283.90000000000003 0.0H279.53200000000004Q279.336 0.0 279.22400000000005 -0.112Q279.112 -0.224 279.112 -0.42V-19.18Q279.112 -19.376 279.22400000000005 -19.488Q279.336 -19.6 279.53200000000004 -19.6H284.46000000000004Q284.824 -19.6 284.908 -19.236L287.064 -10.724Q287.09200000000004 -10.612 287.17600000000004 -10.612Q287.26 -10.612 287.26 -10.724L287.232 -19.18Q287.232 -19.376 287.34400000000005 -19.488Q287.456 -19.6 287.65200000000004 -19.6Z M308.26800000000003 -0.392 307.96 -2.492Q307.96 -2.548 307.904 -2.604Q307.848 -2.66 307.764 -2.66H305.3Q305.216 -2.66 305.15999999999997 -2.604Q305.104 -2.548 305.104 -2.492L304.824 -0.392Q304.796 0.0 304.37600000000003 0.0H299.98Q299.532 0.0 299.616 -0.448L303.592 -19.236Q303.676 -19.6 304.068 -19.6H309.164Q309.556 -19.6 309.64 -19.236L313.616 -0.448V-0.336Q313.616 0.0 313.224 0.0H308.716Q308.296 0.0 308.26800000000003 -0.392ZM305.86 -6.692H307.176Q307.372 -6.692 307.31600000000003 -6.86L306.56 -11.9Q306.532 -12.012 306.476 -12.012Q306.42 -12.012 306.392 -11.9L305.72 -6.86Q305.72 -6.692 305.86 -6.692Z M329.304 -19.6H333.672Q333.868 -19.6 333.98 -19.488Q334.092 -19.376 334.092 -19.18V-0.42Q334.092 -0.224 333.98 -0.112Q333.868 0.0 333.672 0.0H328.688Q328.324 0.0 328.24 -0.364L326.112 -8.848Q326.084 -8.932 326.0 -8.932Q325.916 -8.932 325.916 -8.82L325.972 -0.42Q325.972 -0.224 325.86 -0.112Q325.748 0.0 325.552 0.0H321.184Q320.988 0.0 320.876 -0.112Q320.764 -0.224 320.764 -0.42V-19.18Q320.764 -19.376 320.876 -19.488Q320.988 -19.6 321.184 -19.6H326.112Q326.476 -19.6 326.56 -19.236L328.716 -10.724Q328.744 -10.612 328.828 -10.612Q328.912 -10.612 328.912 -10.724L328.884 -19.18Q328.884 -19.376 328.996 -19.488Q329.108 -19.6 329.304 -19.6Z M354.288 -19.18V-15.512Q354.288 -15.316 354.176 -15.204Q354.06399999999996 -15.092 353.868 -15.092H350.56399999999996Q350.396 -15.092 350.396 -14.924V-0.42Q350.396 -0.224 350.284 -0.112Q350.17199999999997 0.0 349.976 0.0H345.552Q345.356 0.0 345.244 -0.112Q345.132 -0.224 345.132 -0.42V-14.924Q345.132 -15.092 344.964 -15.092H341.74399999999997Q341.548 -15.092 341.43600000000004 -15.204Q341.324 -15.316 341.324 -15.512V-19.18Q341.324 -19.376 341.43600000000004 -19.488Q341.548 -19.6 341.74399999999997 -19.6H353.868Q354.06399999999996 -19.6 354.176 -19.488Q354.288 -19.376 354.288 -19.18Z" fill="#0E0B08"/>
  </g>

  <g transform="translate(443.81, 1000.00)">
    <path d="M1.056 -3.674V-11.725999999999999Q1.056 -13.463999999999999 2.145 -14.52Q3.234 -15.575999999999999 5.016 -15.575999999999999Q6.798 -15.575999999999999 7.898 -14.52Q8.998 -13.463999999999999 8.998 -11.703999999999999V-10.78Q8.998 -10.559999999999999 8.777999999999999 -10.559999999999999H7.106Q6.885999999999999 -10.559999999999999 6.885999999999999 -10.78V-11.748Q6.885999999999999 -12.649999999999999 6.369 -13.2Q5.851999999999999 -13.75 5.016 -13.75Q4.18 -13.75 3.663 -13.2Q3.146 -12.649999999999999 3.146 -11.748V-3.6519999999999997Q3.146 -2.75 3.663 -2.2Q4.18 -1.65 5.016 -1.65Q5.851999999999999 -1.65 6.369 -2.2Q6.885999999999999 -2.75 6.885999999999999 -3.6519999999999997V-6.072Q6.885999999999999 -6.159999999999999 6.798 -6.159999999999999H5.1259999999999994Q4.906 -6.159999999999999 4.906 -6.38V-7.744Q4.906 -7.9639999999999995 5.1259999999999994 -7.9639999999999995H8.777999999999999Q8.998 -7.9639999999999995 8.998 -7.744V-3.674Q8.998 -1.936 7.898 -0.88Q6.798 0.176 5.016 0.176Q3.234 0.176 2.145 -0.88Q1.056 -1.936 1.056 -3.674Z M23.204 -0.19799999999999998 22.720000000000002 -2.7279999999999998Q22.720000000000002 -2.772 22.687000000000005 -2.7939999999999996Q22.654000000000003 -2.816 22.610000000000003 -2.816H19.024Q18.98 -2.816 18.947000000000003 -2.7939999999999996Q18.914 -2.772 18.914 -2.7279999999999998L18.452 -0.19799999999999998Q18.430000000000003 0.0 18.21 0.0H16.538000000000004Q16.428 0.0 16.373 -0.066Q16.318 -0.132 16.340000000000003 -0.242L19.618000000000002 -15.202Q19.662000000000003 -15.399999999999999 19.860000000000003 -15.399999999999999H21.818Q22.038000000000004 -15.399999999999999 22.060000000000002 -15.202L25.36 -0.242V-0.19799999999999998Q25.36 0.0 25.162 0.0H23.446Q23.248 0.0 23.204 -0.19799999999999998ZM19.354000000000003 -4.4879999999999995H22.28Q22.346000000000004 -4.4879999999999995 22.346000000000004 -4.576L20.85 -12.386Q20.828000000000003 -12.43 20.806000000000004 -12.43Q20.784000000000002 -12.43 20.762 -12.386L19.288000000000004 -4.576Q19.288000000000004 -4.4879999999999995 19.354000000000003 -4.4879999999999995Z M40.116 -15.399999999999999H41.788Q42.008 -15.399999999999999 42.008 -15.18V-0.21999999999999997Q42.008 0.0 41.788 0.0H40.116Q39.896 0.0 39.896 -0.21999999999999997V-11.132Q39.896 -11.197999999999999 39.863 -11.197999999999999Q39.83 -11.197999999999999 39.786 -11.154L37.674 -7.215999999999999Q37.608000000000004 -7.061999999999999 37.476 -7.061999999999999Q37.344 -7.061999999999999 37.278 -7.215999999999999L35.188 -11.132Q35.144 -11.176 35.111000000000004 -11.176Q35.078 -11.176 35.078 -11.11V-0.21999999999999997Q35.078 0.0 34.858000000000004 0.0H33.186Q32.966 0.0 32.966 -0.21999999999999997V-15.18Q32.966 -15.399999999999999 33.186 -15.399999999999999H34.858000000000004Q35.012 -15.399999999999999 35.122 -15.245999999999999L37.432 -11.11Q37.454 -11.088 37.498000000000005 -11.088Q37.542 -11.088 37.564 -11.11L39.852000000000004 -15.245999999999999Q39.94 -15.399999999999999 40.116 -15.399999999999999Z M57.81999999999999 -13.574H52.87Q52.782 -13.574 52.782 -13.485999999999999V-8.712Q52.782 -8.623999999999999 52.87 -8.623999999999999H55.906Q56.126 -8.623999999999999 56.126 -8.404V-7.018Q56.126 -6.798 55.906 -6.798H52.87Q52.782 -6.798 52.782 -6.71V-1.914Q52.782 -1.8259999999999998 52.87 -1.8259999999999998H57.81999999999999Q58.04 -1.8259999999999998 58.04 -1.6059999999999999V-0.21999999999999997Q58.04 0.0 57.81999999999999 0.0H50.89Q50.669999999999995 0.0 50.669999999999995 -0.21999999999999997V-15.18Q50.669999999999995 -15.399999999999999 50.89 -15.399999999999999H57.81999999999999Q58.04 -15.399999999999999 58.04 -15.18V-13.793999999999999Q58.04 -13.574 57.81999999999999 -13.574Z M66.174 -0.21999999999999997V-15.18Q66.174 -15.399999999999999 66.394 -15.399999999999999H70.002Q71.828 -15.399999999999999 72.906 -14.277999999999999Q73.98400000000001 -13.155999999999999 73.98400000000001 -11.241999999999999V-4.1579999999999995Q73.98400000000001 -2.2439999999999998 72.906 -1.1219999999999999Q71.828 0.0 70.002 0.0H66.394Q66.174 0.0 66.174 -0.21999999999999997ZM68.374 -1.8259999999999998 69.98 -1.8479999999999999Q70.816 -1.8479999999999999 71.322 -2.497Q71.828 -3.146 71.85 -4.268V-11.132Q71.85 -12.254 71.344 -12.914Q70.83800000000001 -13.574 69.98 -13.574H68.374Q68.286 -13.574 68.286 -13.485999999999999V-1.914Q68.286 -1.8259999999999998 68.374 -1.8259999999999998Z M82.184 -3.8499999999999996V-11.527999999999999Q82.184 -13.354 83.28399999999999 -14.465Q84.384 -15.575999999999999 86.188 -15.575999999999999Q88.014 -15.575999999999999 89.125 -14.465Q90.236 -13.354 90.236 -11.527999999999999V-3.8499999999999996Q90.236 -2.024 89.125 -0.924Q88.014 0.176 86.188 0.176Q84.384 0.176 83.28399999999999 -0.924Q82.184 -2.024 82.184 -3.8499999999999996ZM88.124 -3.7619999999999996V-11.638Q88.124 -12.584 87.596 -13.167Q87.068 -13.75 86.188 -13.75Q85.33 -13.75 84.813 -13.167Q84.296 -12.584 84.296 -11.638V-3.7619999999999996Q84.296 -2.816 84.813 -2.2329999999999997Q85.33 -1.65 86.188 -1.65Q87.068 -1.65 87.596 -2.2329999999999997Q88.124 -2.816 88.124 -3.7619999999999996Z M98.348 -3.8499999999999996V-11.527999999999999Q98.348 -13.354 99.44800000000001 -14.465Q100.548 -15.575999999999999 102.352 -15.575999999999999Q104.178 -15.575999999999999 105.289 -14.465Q106.4 -13.354 106.4 -11.527999999999999V-3.8499999999999996Q106.4 -2.024 105.289 -0.924Q104.178 0.176 102.352 0.176Q100.548 0.176 99.44800000000001 -0.924Q98.348 -2.024 98.348 -3.8499999999999996ZM104.288 -3.7619999999999996V-11.638Q104.288 -12.584 103.75999999999999 -13.167Q103.232 -13.75 102.352 -13.75Q101.494 -13.75 100.977 -13.167Q100.46000000000001 -12.584 100.46000000000001 -11.638V-3.7619999999999996Q100.46000000000001 -2.816 100.977 -2.2329999999999997Q101.494 -1.65 102.352 -1.65Q103.232 -1.65 103.75999999999999 -2.2329999999999997Q104.288 -2.816 104.288 -3.7619999999999996Z M120.672 -0.176 118.648 -6.731999999999999Q118.626 -6.798 118.56 -6.798H117.02Q116.932 -6.798 116.932 -6.71V-0.21999999999999997Q116.932 0.0 116.712 0.0H115.04Q114.82000000000001 0.0 114.82000000000001 -0.21999999999999997V-15.18Q114.82000000000001 -15.399999999999999 115.04 -15.399999999999999H118.97800000000001Q120.10000000000001 -15.399999999999999 120.958 -14.849999999999998Q121.816 -14.299999999999999 122.289 -13.299Q122.762 -12.298 122.762 -11.022Q122.762 -9.636 122.19 -8.613Q121.618 -7.59 120.628 -7.127999999999999Q120.562 -7.061999999999999 120.584 -6.9959999999999996L122.828 -0.242L122.85000000000001 -0.154Q122.85000000000001 0.0 122.652 0.0H120.936Q120.738 0.0 120.672 -0.176ZM116.932 -13.485999999999999V-8.558Q116.932 -8.469999999999999 117.02 -8.469999999999999H118.648Q119.55 -8.469999999999999 120.1 -9.163Q120.65 -9.856 120.65 -11.0Q120.65 -12.187999999999999 120.1 -12.881Q119.55 -13.574 118.648 -13.574H117.02Q116.932 -13.574 116.932 -13.485999999999999Z M138.684 -5.786V-4.311999999999999Q138.684 -4.092 138.464 -4.092H137.76Q137.672 -4.092 137.672 -4.004V-0.21999999999999997Q137.672 0.0 137.452 0.0H135.78Q135.56 0.0 135.56 -0.21999999999999997V-4.004Q135.56 -4.092 135.472 -4.092H130.06Q129.84 -4.092 129.84 -4.311999999999999V-5.544Q129.84 -5.632 129.884 -5.808L133.052 -15.223999999999998Q133.118 -15.399999999999999 133.316 -15.399999999999999H135.12Q135.362 -15.399999999999999 135.296 -15.158L132.304 -6.116Q132.282 -6.072 132.315 -6.039Q132.34799999999998 -6.005999999999999 132.392 -6.005999999999999H135.472Q135.56 -6.005999999999999 135.56 -6.093999999999999V-9.107999999999999Q135.56 -9.328 135.78 -9.328H137.452Q137.672 -9.328 137.672 -9.107999999999999V-6.093999999999999Q137.672 -6.005999999999999 137.76 -6.005999999999999H138.464Q138.684 -6.005999999999999 138.684 -5.786Z M147.852 -15.399999999999999H149.612Q149.832 -15.399999999999999 149.832 -15.18V-0.21999999999999997Q149.832 0.0 149.612 0.0H147.94Q147.72 0.0 147.72 -0.21999999999999997V-13.09Q147.72 -13.133999999999999 147.687 -13.166999999999998Q147.654 -13.2 147.632 -13.177999999999999L145.674 -12.671999999999999L145.586 -12.649999999999999Q145.454 -12.649999999999999 145.41 -12.847999999999999L145.322 -14.079999999999998Q145.322 -14.277999999999999 145.476 -14.344L147.588 -15.334Q147.72 -15.399999999999999 147.852 -15.399999999999999Z M157.768 -1.4080000000000013Q157.768 -2.024000000000001 158.164 -2.420000000000001Q158.56 -2.8160000000000007 159.17600000000002 -2.8160000000000007Q159.792 -2.8160000000000007 160.188 -2.420000000000001Q160.584 -2.024000000000001 160.584 -1.4080000000000013Q160.584 -0.7920000000000016 160.188 -0.3960000000000008Q159.792 0.0 159.17600000000002 0.0Q158.56 0.0 158.164 -0.3960000000000008Q157.768 -0.7920000000000016 157.768 -1.4080000000000013Z M175.89 -13.574H170.962Q170.874 -13.574 170.874 -13.485999999999999V-8.712Q170.874 -8.623999999999999 170.962 -8.623999999999999H173.976Q174.196 -8.623999999999999 174.196 -8.404V-7.018Q174.196 -6.798 173.976 -6.798H170.962Q170.874 -6.798 170.874 -6.71V-0.21999999999999997Q170.874 0.0 170.654 0.0H168.982Q168.762 0.0 168.762 -0.21999999999999997V-15.18Q168.762 -15.399999999999999 168.982 -15.399999999999999H175.89Q176.10999999999999 -15.399999999999999 176.10999999999999 -15.18V-13.793999999999999Q176.10999999999999 -13.574 175.89 -13.574Z M189.63400000000001 -0.176 187.61 -6.731999999999999Q187.588 -6.798 187.52200000000002 -6.798H185.982Q185.894 -6.798 185.894 -6.71V-0.21999999999999997Q185.894 0.0 185.674 0.0H184.002Q183.782 0.0 183.782 -0.21999999999999997V-15.18Q183.782 -15.399999999999999 184.002 -15.399999999999999H187.94Q189.062 -15.399999999999999 189.92000000000002 -14.849999999999998Q190.77800000000002 -14.299999999999999 191.25100000000003 -13.299Q191.72400000000002 -12.298 191.72400000000002 -11.022Q191.72400000000002 -9.636 191.15200000000002 -8.613Q190.58 -7.59 189.59 -7.127999999999999Q189.524 -7.061999999999999 189.546 -6.9959999999999996L191.79000000000002 -0.242L191.812 -0.154Q191.812 0.0 191.614 0.0H189.898Q189.70000000000002 0.0 189.63400000000001 -0.176ZM185.894 -13.485999999999999V-8.558Q185.894 -8.469999999999999 185.982 -8.469999999999999H187.61Q188.512 -8.469999999999999 189.062 -9.163Q189.612 -9.856 189.612 -11.0Q189.612 -12.187999999999999 189.062 -12.881Q188.512 -13.574 187.61 -13.574H185.982Q185.894 -13.574 185.894 -13.485999999999999Z" fill="#C8C2B8"/>
  </g>

</svg>
