<?xml version="1.0" encoding="UTF-8"?>
<svg xmlns="http://www.w3.org/2000/svg" viewBox="0 0 1080 1920" width="1080" height="1920" preserveAspectRatio="xMidYMid meet">
  <title>GAMEDOOR.41 Instagram Story</title>
  <defs>
    <linearGradient id="storyBg" x1="0%" y1="0%" x2="0%" y2="100%">
      <stop offset="0%" stop-color="#1a0d08"/>
      <stop offset="50%" stop-color="#0C0800"/>
      <stop offset="100%" stop-color="#0C0800"/>
    </linearGradient>
  </defs>
  <rect width="1080" height="1920" fill="url(#storyBg)"/>
  <rect x="0" y="0" width="1080" height="8" fill="#E07020"/>
  <rect x="0" y="1912" width="1080" height="8" fill="#E07020"/>

  <g transform="translate(-17.90, 2000.00)" opacity="0.04">
    <path d="M678.6 -418.6V-236.6Q678.6 -227.5 673.4000000000001 -222.3Q668.2 -217.1 659.1 -217.1H620.1Q612.3000000000001 -217.1 612.3000000000001 -209.3V-19.5Q612.3000000000001 -10.4 607.1 -5.2Q601.9 0.0 592.8000000000001 0.0H387.40000000000003Q378.3 0.0 373.1 -5.2Q367.90000000000003 -10.4 367.90000000000003 -19.5V-209.3Q367.90000000000003 -217.1 360.1 -217.1H29.900000000000002Q20.8 -217.1 15.600000000000001 -222.3Q10.4 -227.5 10.4 -236.6V-380.90000000000003Q10.4 -392.6 14.3 -404.3L171.6 -894.4Q176.8 -910.0 193.70000000000002 -910.0H413.40000000000003Q423.8 -910.0 428.35 -904.1500000000001Q432.90000000000003 -898.3000000000001 430.3 -887.9L296.40000000000003 -447.2Q295.1 -438.1 302.90000000000003 -438.1H360.1Q367.90000000000003 -438.1 367.90000000000003 -445.90000000000003V-534.3000000000001Q367.90000000000003 -543.4 373.1 -548.6Q378.3 -553.8000000000001 387.40000000000003 -553.8000000000001H592.8000000000001Q601.9 -553.8000000000001 607.1 -548.6Q612.3000000000001 -543.4 612.3000000000001 -534.3000000000001V-445.90000000000003Q612.3000000000001 -438.1 620.1 -438.1H659.1Q668.2 -438.1 673.4000000000001 -432.9Q678.6 -427.7 678.6 -418.6Z M789.2 -910.0H1002.4000000000001Q1011.5 -910.0 1016.7 -904.8Q1021.9000000000001 -899.6 1021.9000000000001 -890.5V-19.5Q1021.9000000000001 -10.4 1016.7 -5.2Q1011.5 0.0 1002.4000000000001 0.0H797.0Q787.9 0.0 782.7 -5.2Q777.5 -10.4 777.5 -19.5V-679.9Q777.5 -687.7 769.7 -687.7H683.9Q674.8 -687.7 669.5999999999999 -692.9000000000001Q664.4 -698.1 664.4 -707.2V-858.0Q664.4 -874.9 680.0 -880.1L765.8 -906.1Q777.5 -910.0 789.2 -910.0Z" fill="#E07020"/>
  </g>

  <g transform="translate(288.06, 260.00)">
    <path d="M1.536 -5.344V-17.056Q1.536 -19.584 3.12 -21.119999999999997Q4.704 -22.656 7.296 -22.656Q9.888 -22.656 11.488 -21.119999999999997Q13.088000000000001 -19.584 13.088000000000001 -17.024V-15.68Q13.088000000000001 -15.36 12.768 -15.36H10.336Q10.016 -15.36 10.016 -15.68V-17.088Q10.016 -18.400000000000002 9.264 -19.200000000000003Q8.512 -20.0 7.296 -20.0Q6.08 -20.0 5.328 -19.200000000000003Q4.5760000000000005 -18.400000000000002 4.5760000000000005 -17.088V-5.312Q4.5760000000000005 -4.0 5.328 -3.2Q6.08 -2.4 7.296 -2.4Q8.512 -2.4 9.264 -3.2Q10.016 -4.0 10.016 -5.312V-8.832Q10.016 -8.96 9.888 -8.96H7.456Q7.136 -8.96 7.136 -9.28V-11.264Q7.136 -11.584 7.456 -11.584H12.768Q13.088000000000001 -11.584 13.088000000000001 -11.264V-5.344Q13.088000000000001 -2.816 11.488 -1.2799999999999998Q9.888 0.256 7.296 0.256Q4.704 0.256 3.12 -1.2799999999999998Q1.536 -2.816 1.536 -5.344Z M39.024 -0.28800000000000003 38.32 -3.968Q38.32 -4.032 38.272000000000006 -4.064Q38.224000000000004 -4.096 38.160000000000004 -4.096H32.944Q32.88 -4.096 32.83200000000001 -4.064Q32.784000000000006 -4.032 32.784000000000006 -3.968L32.112 -0.28800000000000003Q32.080000000000005 0.0 31.76 0.0H29.328000000000003Q29.168000000000003 0.0 29.088 -0.096Q29.008000000000003 -0.192 29.040000000000003 -0.352L33.808 -22.112000000000002Q33.872 -22.400000000000002 34.160000000000004 -22.400000000000002H37.008Q37.328 -22.400000000000002 37.36 -22.112000000000002L42.160000000000004 -0.352V-0.28800000000000003Q42.160000000000004 0.0 41.872 0.0H39.376000000000005Q39.088 0.0 39.024 -0.28800000000000003ZM33.424 -6.5280000000000005H37.68000000000001Q37.776 -6.5280000000000005 37.776 -6.656000000000001L35.6 -18.016000000000002Q35.568000000000005 -18.080000000000002 35.536 -18.080000000000002Q35.504000000000005 -18.080000000000002 35.472 -18.016000000000002L33.328 -6.656000000000001Q33.328 -6.5280000000000005 33.424 -6.5280000000000005Z M68.896 -22.400000000000002H71.328Q71.648 -22.400000000000002 71.648 -22.080000000000002V-0.32Q71.648 0.0 71.328 0.0H68.896Q68.576 0.0 68.576 -0.32V-16.192Q68.576 -16.288 68.52799999999999 -16.288Q68.48 -16.288 68.416 -16.224L65.344 -10.496Q65.248 -10.272 65.056 -10.272Q64.864 -10.272 64.768 -10.496L61.728 -16.192Q61.664 -16.256 61.616 -16.256Q61.568 -16.256 61.568 -16.16V-0.32Q61.568 0.0 61.248 0.0H58.816Q58.496 0.0 58.496 -0.32V-22.080000000000002Q58.496 -22.400000000000002 58.816 -22.400000000000002H61.248Q61.472 -22.400000000000002 61.632 -22.176000000000002L64.992 -16.16Q65.024 -16.128 65.088 -16.128Q65.152 -16.128 65.184 -16.16L68.512 -22.176000000000002Q68.64 -22.400000000000002 68.896 -22.400000000000002Z M99.92 -19.744H92.72Q92.592 -19.744 92.592 -19.616V-12.672Q92.592 -12.544 92.72 -12.544H97.136Q97.456 -12.544 97.456 -12.224V-10.208Q97.456 -9.888 97.136 -9.888H92.72Q92.592 -9.888 92.592 -9.76V-2.7840000000000003Q92.592 -2.656 92.72 -2.656H99.92Q100.24000000000001 -2.656 100.24000000000001 -2.336V-0.32Q100.24000000000001 0.0 99.92 0.0H89.84Q89.52 0.0 89.52 -0.32V-22.080000000000002Q89.52 -22.400000000000002 89.84 -22.400000000000002H99.92Q100.24000000000001 -22.400000000000002 100.24000000000001 -22.080000000000002V-20.064Q100.24000000000001 -19.744 99.92 -19.744Z M117.344 -0.32V-22.080000000000002Q117.344 -22.400000000000002 117.664 -22.400000000000002H122.912Q125.568 -22.400000000000002 127.136 -20.768Q128.704 -19.136 128.704 -16.352V-6.048Q128.704 -3.2640000000000002 127.136 -1.6320000000000001Q125.568 0.0 122.912 0.0H117.664Q117.344 0.0 117.344 -0.32ZM120.544 -2.656 122.88 -2.688Q124.096 -2.688 124.832 -3.6320000000000006Q125.568 -4.5760000000000005 125.6 -6.208V-16.192Q125.6 -17.824 124.864 -18.784Q124.128 -19.744 122.88 -19.744H120.544Q120.416 -19.744 120.416 -19.616V-2.7840000000000003Q120.416 -2.656 120.544 -2.656Z M145.904 -5.6000000000000005V-16.768Q145.904 -19.424 147.504 -21.04Q149.10399999999998 -22.656 151.728 -22.656Q154.384 -22.656 156.0 -21.04Q157.61599999999999 -19.424 157.61599999999999 -16.768V-5.6000000000000005Q157.61599999999999 -2.944 156.0 -1.3439999999999999Q154.384 0.256 151.728 0.256Q149.10399999999998 0.256 147.504 -1.3439999999999999Q145.904 -2.944 145.904 -5.6000000000000005ZM154.54399999999998 -5.472V-16.928Q154.54399999999998 -18.304000000000002 153.77599999999998 -19.152Q153.00799999999998 -20.0 151.728 -20.0Q150.48 -20.0 149.728 -19.152Q148.976 -18.304000000000002 148.976 -16.928V-5.472Q148.976 -4.096 149.728 -3.248Q150.48 -2.4 151.728 -2.4Q153.00799999999998 -2.4 153.77599999999998 -3.248Q154.54399999999998 -4.096 154.54399999999998 -5.472Z M174.688 -5.6000000000000005V-16.768Q174.688 -19.424 176.28799999999998 -21.04Q177.88799999999998 -22.656 180.512 -22.656Q183.16799999999998 -22.656 184.784 -21.04Q186.39999999999998 -19.424 186.39999999999998 -16.768V-5.6000000000000005Q186.39999999999998 -2.944 184.784 -1.3439999999999999Q183.16799999999998 0.256 180.512 0.256Q177.88799999999998 0.256 176.28799999999998 -1.3439999999999999Q174.688 -2.944 174.688 -5.6000000000000005ZM183.32799999999997 -5.472V-16.928Q183.32799999999997 -18.304000000000002 182.55999999999997 -19.152Q181.79199999999997 -20.0 180.512 -20.0Q179.26399999999998 -20.0 178.512 -19.152Q177.76 -18.304000000000002 177.76 -16.928V-5.472Q177.76 -4.096 178.512 -3.248Q179.26399999999998 -2.4 180.512 -2.4Q181.79199999999997 -2.4 182.55999999999997 -3.248Q183.32799999999997 -4.096 183.32799999999997 -5.472Z M212.432 -0.256 209.48799999999997 -9.792Q209.456 -9.888 209.35999999999999 -9.888H207.11999999999998Q206.992 -9.888 206.992 -9.76V-0.32Q206.992 0.0 206.67199999999997 0.0H204.23999999999998Q203.92 0.0 203.92 -0.32V-22.080000000000002Q203.92 -22.400000000000002 204.23999999999998 -22.400000000000002H209.968Q211.59999999999997 -22.400000000000002 212.84799999999996 -21.6Q214.09599999999998 -20.8 214.784 -19.344Q215.47199999999998 -17.888 215.47199999999998 -16.032Q215.47199999999998 -14.016 214.64 -12.528Q213.808 -11.040000000000001 212.36799999999997 -10.368Q212.272 -10.272 212.30399999999997 -10.176L215.56799999999998 -0.352L215.59999999999997 -0.224Q215.59999999999997 0.0 215.31199999999998 0.0H212.81599999999997Q212.528 0.0 212.432 -0.256ZM206.992 -19.616V-12.448Q206.992 -12.32 207.11999999999998 -12.32H209.48799999999997Q210.79999999999998 -12.32 211.59999999999997 -13.328Q212.39999999999998 -14.336 212.39999999999998 -16.0Q212.39999999999998 -17.728 211.59999999999997 -18.736Q210.79999999999998 -19.744 209.48799999999997 -19.744H207.11999999999998Q206.992 -19.744 206.992 -19.616Z M264.304 -8.416V-6.272Q264.304 -5.952 263.984 -5.952H262.96Q262.832 -5.952 262.832 -5.824V-0.32Q262.832 0.0 262.512 0.0H260.08Q259.76 0.0 259.76 -0.32V-5.824Q259.76 -5.952 259.632 -5.952H251.76Q251.44 -5.952 251.44 -6.272V-8.064Q251.44 -8.192 251.504 -8.448L256.11199999999997 -22.144000000000002Q256.20799999999997 -22.400000000000002 256.496 -22.400000000000002H259.12Q259.472 -22.400000000000002 259.376 -22.048000000000002L255.024 -8.896Q254.992 -8.832 255.04 -8.784Q255.088 -8.736 255.152 -8.736H259.632Q259.76 -8.736 259.76 -8.864V-13.248000000000001Q259.76 -13.568 260.08 -13.568H262.512Q262.832 -13.568 262.832 -13.248000000000001V-8.864Q262.832 -8.736 262.96 -8.736H263.984Q264.304 -8.736 264.304 -8.416Z M282.912 -22.400000000000002H285.472Q285.792 -22.400000000000002 285.792 -22.080000000000002V-0.32Q285.792 0.0 285.472 0.0H283.03999999999996Q282.71999999999997 0.0 282.71999999999997 -0.32V-19.04Q282.71999999999997 -19.104 282.67199999999997 -19.152Q282.62399999999997 -19.2 282.592 -19.168L279.74399999999997 -18.432000000000002L279.616 -18.400000000000002Q279.424 -18.400000000000002 279.35999999999996 -18.688L279.23199999999997 -20.48Q279.23199999999997 -20.768 279.45599999999996 -20.864L282.52799999999996 -22.304000000000002Q282.71999999999997 -22.400000000000002 282.912 -22.400000000000002Z M343.4719999999999 -9.056000000000001Q343.4719999999999 -9.952000000000002 344.0479999999999 -10.528Q344.6239999999999 -11.104 345.5199999999999 -11.104Q346.41599999999994 -11.104 346.99199999999996 -10.528Q347.5679999999999 -9.952000000000002 347.5679999999999 -9.056000000000001Q347.5679999999999 -8.16 346.99199999999996 -7.584Q346.41599999999994 -7.007999999999999 345.5199999999999 -7.007999999999999Q344.6239999999999 -7.007999999999999 344.0479999999999 -7.584Q343.4719999999999 -8.16 343.4719999999999 -9.056000000000001Z M405.1519999999999 -5.5360000000000005V-16.896Q405.1519999999999 -19.52 406.7359999999999 -21.088Q408.3199999999999 -22.656 410.91199999999986 -22.656Q413.5359999999999 -22.656 415.1199999999999 -21.088Q416.7039999999999 -19.52 416.7039999999999 -16.896V-16.384Q416.7039999999999 -16.064 416.3839999999999 -16.064L413.9519999999999 -15.936Q413.6319999999999 -15.936 413.6319999999999 -16.256V-17.088Q413.6319999999999 -18.400000000000002 412.8799999999999 -19.200000000000003Q412.1279999999999 -20.0 410.91199999999986 -20.0Q409.69599999999986 -20.0 408.95999999999987 -19.200000000000003Q408.2239999999999 -18.400000000000002 408.2239999999999 -17.088V-5.312Q408.2239999999999 -4.0 408.95999999999987 -3.2Q409.69599999999986 -2.4 410.91199999999986 -2.4Q412.1279999999999 -2.4 412.8799999999999 -3.2Q413.6319999999999 -4.0 413.6319999999999 -5.312V-6.144Q413.6319999999999 -6.464 413.9519999999999 -6.464L416.3839999999999 -6.336Q416.7039999999999 -6.336 416.7039999999999 -6.016V-5.5360000000000005Q416.7039999999999 -2.912 415.1199999999999 -1.3279999999999998Q413.5359999999999 0.256 410.91199999999986 0.256Q408.3199999999999 0.256 406.7359999999999 -1.3279999999999998Q405.1519999999999 -2.912 405.1519999999999 -5.5360000000000005Z M442.47999999999985 -0.28800000000000003 441.7759999999999 -3.968Q441.7759999999999 -4.032 441.7279999999999 -4.064Q441.6799999999999 -4.096 441.6159999999999 -4.096H436.39999999999986Q436.3359999999999 -4.096 436.2879999999999 -4.064Q436.2399999999999 -4.032 436.2399999999999 -3.968L435.56799999999987 -0.28800000000000003Q435.5359999999999 0.0 435.2159999999999 0.0H432.7839999999999Q432.62399999999985 0.0 432.54399999999987 -0.096Q432.4639999999999 -0.192 432.49599999999987 -0.352L437.2639999999999 -22.112000000000002Q437.32799999999986 -22.400000000000002 437.6159999999999 -22.400000000000002H440.4639999999999Q440.7839999999999 -22.400000000000002 440.81599999999986 -22.112000000000002L445.6159999999999 -0.352V-0.28800000000000003Q445.6159999999999 0.0 445.32799999999986 0.0H442.8319999999999Q442.54399999999987 0.0 442.47999999999985 -0.28800000000000003ZM436.8799999999999 -6.5280000000000005H441.13599999999985Q441.23199999999986 -6.5280000000000005 441.23199999999986 -6.656000000000001L439.05599999999987 -18.016000000000002Q439.0239999999999 -18.080000000000002 438.99199999999985 -18.080000000000002Q438.95999999999987 -18.080000000000002 438.9279999999999 -18.016000000000002L436.7839999999999 -6.656000000000001Q436.7839999999999 -6.5280000000000005 436.8799999999999 -6.5280000000000005Z M472.4159999999999 -19.744H465.2159999999999Q465.08799999999985 -19.744 465.08799999999985 -19.616V-12.672Q465.08799999999985 -12.544 465.2159999999999 -12.544H469.6319999999999Q469.9519999999999 -12.544 469.9519999999999 -12.224V-10.208Q469.9519999999999 -9.888 469.6319999999999 -9.888H465.2159999999999Q465.08799999999985 -9.888 465.08799999999985 -9.76V-2.7840000000000003Q465.08799999999985 -2.656 465.2159999999999 -2.656H472.4159999999999Q472.7359999999999 -2.656 472.7359999999999 -2.336V-0.32Q472.7359999999999 0.0 472.4159999999999 0.0H462.33599999999984Q462.01599999999985 0.0 462.01599999999985 -0.32V-22.080000000000002Q462.01599999999985 -22.400000000000002 462.33599999999984 -22.400000000000002H472.4159999999999Q472.7359999999999 -22.400000000000002 472.7359999999999 -22.080000000000002V-20.064Q472.7359999999999 -19.744 472.4159999999999 -19.744Z M499.18399999999986 -22.400000000000002H501.5839999999999Q501.9039999999999 -22.400000000000002 501.9039999999999 -22.080000000000002V-0.32Q501.9039999999999 0.0 501.5839999999999 0.0H498.8319999999999Q498.5759999999999 0.0 498.4799999999999 -0.256L493.0399999999999 -14.88Q493.00799999999987 -14.944 492.94399999999985 -14.928Q492.8799999999999 -14.912 492.8799999999999 -14.848L492.91199999999986 -0.32Q492.91199999999986 0.0 492.59199999999987 0.0H490.15999999999985Q489.83999999999986 0.0 489.83999999999986 -0.32V-22.080000000000002Q489.83999999999986 -22.400000000000002 490.15999999999985 -22.400000000000002H492.8799999999999Q493.13599999999985 -22.400000000000002 493.23199999999986 -22.144000000000002L498.7039999999999 -7.5200000000000005Q498.7359999999999 -7.424 498.79999999999984 -7.44Q498.86399999999986 -7.456 498.86399999999986 -7.5520000000000005V-22.080000000000002Q498.86399999999986 -22.400000000000002 499.18399999999986 -22.400000000000002Z" fill="#E07020"/>
  </g>

  <g transform="translate(100.43, 780.00)">
    <path d="M3.5999999999999996 -35.28V-90.89999999999999Q3.5999999999999996 -107.64 14.399999999999999 -117.53999999999999Q25.2 -127.44 43.019999999999996 -127.44Q54.72 -127.44 63.629999999999995 -122.94Q72.53999999999999 -118.44 77.49 -110.07Q82.44 -101.7 82.44 -90.53999999999999V-84.6Q82.44 -83.34 81.72 -82.62Q81.0 -81.89999999999999 79.74 -81.89999999999999H51.3Q50.04 -81.89999999999999 49.32 -82.62Q48.6 -83.34 48.6 -84.6V-90.89999999999999Q48.6 -94.32 47.07 -96.38999999999999Q45.54 -98.46 43.019999999999996 -98.46Q40.5 -98.46 38.97 -96.38999999999999Q37.44 -94.32 37.44 -90.89999999999999V-35.1Q37.44 -31.68 38.97 -29.61Q40.5 -27.54 43.019999999999996 -27.54Q45.54 -27.54 47.07 -29.61Q48.6 -31.68 48.6 -35.1V-43.92Q48.6 -45.0 47.519999999999996 -45.0H46.08Q44.82 -45.0 44.099999999999994 -45.72Q43.379999999999995 -46.44 43.379999999999995 -47.699999999999996V-68.39999999999999Q43.379999999999995 -69.66 44.099999999999994 -70.38Q44.82 -71.1 46.08 -71.1H79.74Q81.0 -71.1 81.72 -70.38Q82.44 -69.66 82.44 -68.39999999999999V-35.28Q82.44 -24.3 77.49 -15.93Q72.53999999999999 -7.56 63.629999999999995 -3.0599999999999996Q54.72 1.44 43.019999999999996 1.44Q25.2 1.44 14.399999999999999 -8.549999999999999Q3.5999999999999996 -18.54 3.5999999999999996 -35.28Z M142.54 -2.52 140.56 -16.02Q140.56 -16.38 140.2 -16.74Q139.83999999999997 -17.099999999999998 139.29999999999998 -17.099999999999998H123.46Q122.91999999999999 -17.099999999999998 122.55999999999999 -16.74Q122.19999999999999 -16.38 122.19999999999999 -16.02L120.39999999999999 -2.52Q120.22 0.0 117.51999999999998 0.0H89.25999999999999Q86.38 0.0 86.91999999999999 -2.88L112.47999999999999 -123.66Q113.02 -126.0 115.53999999999999 -126.0H148.29999999999998Q150.82 -126.0 151.35999999999999 -123.66L176.92 -2.88V-2.16Q176.92 0.0 174.39999999999998 0.0H145.42Q142.72 0.0 142.54 -2.52ZM127.05999999999999 -43.019999999999996H135.51999999999998Q136.77999999999997 -43.019999999999996 136.42 -44.1L131.56 -76.5Q131.38 -77.22 131.01999999999998 -77.22Q130.66 -77.22 130.48 -76.5L126.16 -44.1Q126.16 -43.019999999999996 127.05999999999999 -43.019999999999996Z M244.94 -126.0H273.02Q274.28 -126.0 275.0 -125.28Q275.72 -124.56 275.72 -123.3V-2.6999999999999997Q275.72 -1.44 275.0 -0.72Q274.28 0.0 273.02 0.0H244.57999999999998Q243.32 0.0 242.6 -0.72Q241.88 -1.44 241.88 -2.6999999999999997V-75.96Q241.88 -76.67999999999999 241.43 -76.85999999999999Q240.98000000000002 -77.03999999999999 240.62 -76.32L230.36 -59.04L228.56 -55.8H228.38L216.5 -76.32Q216.14 -77.03999999999999 215.69 -76.94999999999999Q215.24 -76.86 215.24 -75.96V-2.6999999999999997Q215.24 -1.44 214.52 -0.72Q213.8 0.0 212.54000000000002 0.0H184.1Q182.84 0.0 182.12 -0.72Q181.4 -1.44 181.4 -2.6999999999999997V-123.3Q181.4 -124.56 182.12 -125.28Q182.84 -126.0 184.1 -126.0H212.18Q214.52 -126.0 215.42000000000002 -124.02L228.02 -100.97999999999999Q228.38 -100.44 228.82999999999998 -100.35Q229.28 -100.25999999999999 229.46 -100.97999999999999L241.7 -124.02Q242.78 -126.0 244.94 -126.0Z M351.48 -97.02H317.1Q316.02 -97.02 316.02 -95.94V-78.66Q316.02 -77.58 317.1 -77.58H334.92Q336.18 -77.58 336.9 -76.86Q337.62 -76.14 337.62 -74.88V-51.3Q337.62 -50.04 336.9 -49.32Q336.18 -48.6 334.92 -48.6H317.1Q316.02 -48.6 316.02 -47.519999999999996V-30.06Q316.02 -28.98 317.1 -28.98H351.48Q352.74 -28.98 353.46000000000004 -28.259999999999998Q354.18 -27.54 354.18 -26.279999999999998V-2.6999999999999997Q354.18 -1.44 353.46000000000004 -0.72Q352.74 0.0 351.48 0.0H284.88Q283.62 0.0 282.9 -0.72Q282.18 -1.44 282.18 -2.6999999999999997V-123.3Q282.18 -124.56 282.9 -125.28Q283.62 -126.0 284.88 -126.0H351.48Q352.74 -126.0 353.46000000000004 -125.28Q354.18 -124.56 354.18 -123.3V-99.72Q354.18 -98.46 353.46000000000004 -97.74Q352.74 -97.02 351.48 -97.02Z" fill="#F0EBE2"/>
    <path d="M369.64 -1.7999999999999998V-124.19999999999999Q369.64 -126.0 371.44 -126.0H397.90000000000003Q411.22 -126.0 418.96000000000004 -117.09Q426.70000000000005 -108.17999999999999 426.70000000000005 -92.88V-33.12Q426.70000000000005 -17.82 418.96000000000004 -8.91Q411.22 0.0 397.90000000000003 0.0H371.44Q369.64 0.0 369.64 -1.7999999999999998ZM379.90000000000003 -8.459999999999999H397.90000000000003Q406.72 -8.64 411.85 -15.209999999999999Q416.98 -21.779999999999998 416.98 -33.3V-92.52Q416.98 -104.22 411.85 -110.88Q406.72 -117.53999999999999 397.72 -117.53999999999999H379.90000000000003Q379.18 -117.53999999999999 379.18 -116.82V-9.18Q379.18 -8.459999999999999 379.90000000000003 -8.459999999999999Z M447.74 -28.799999999999997V-97.02Q447.74 -110.7 455.84000000000003 -119.07Q463.94 -127.44 477.26 -127.44Q490.58 -127.44 498.86 -119.07Q507.14 -110.7 507.14 -97.02V-28.799999999999997Q507.14 -15.299999999999999 498.86 -6.93Q490.58 1.44 477.26 1.44Q464.12 1.44 455.93 -6.93Q447.74 -15.299999999999999 447.74 -28.799999999999997ZM497.59999999999997 -28.439999999999998V-97.38Q497.59999999999997 -106.92 491.92999999999995 -112.94999999999999Q486.26 -118.97999999999999 477.26 -118.97999999999999Q468.44 -118.97999999999999 462.86 -112.94999999999999Q457.28 -106.92 457.28 -97.38V-28.439999999999998Q457.28 -18.9 462.86 -12.959999999999999Q468.44 -7.02 477.26 -7.02Q486.26 -7.02 491.92999999999995 -12.959999999999999Q497.59999999999997 -18.9 497.59999999999997 -28.439999999999998Z M526.92 -28.799999999999997V-97.02Q526.92 -110.7 535.02 -119.07Q543.1199999999999 -127.44 556.4399999999999 -127.44Q569.76 -127.44 578.04 -119.07Q586.3199999999999 -110.7 586.3199999999999 -97.02V-28.799999999999997Q586.3199999999999 -15.299999999999999 578.04 -6.93Q569.76 1.44 556.4399999999999 1.44Q543.3 1.44 535.1099999999999 -6.93Q526.92 -15.299999999999999 526.92 -28.799999999999997ZM576.78 -28.439999999999998V-97.38Q576.78 -106.92 571.1099999999999 -112.94999999999999Q565.4399999999999 -118.97999999999999 556.4399999999999 -118.97999999999999Q547.6199999999999 -118.97999999999999 542.04 -112.94999999999999Q536.4599999999999 -106.92 536.4599999999999 -97.38V-28.439999999999998Q536.4599999999999 -18.9 542.04 -12.959999999999999Q547.6199999999999 -7.02 556.4399999999999 -7.02Q565.4399999999999 -7.02 571.1099999999999 -12.959999999999999Q576.78 -18.9 576.78 -28.439999999999998Z M657.9399999999999 -1.44 638.1399999999999 -58.5Q637.9599999999999 -59.04 637.4199999999998 -59.04H619.5999999999999Q618.8799999999999 -59.04 618.8799999999999 -58.32V-1.7999999999999998Q618.8799999999999 0.0 617.0799999999999 0.0H611.1399999999999Q609.3399999999999 0.0 609.3399999999999 -1.7999999999999998V-124.19999999999999Q609.3399999999999 -126.0 611.1399999999999 -126.0H639.0399999999998Q651.6399999999999 -126.0 659.3799999999999 -116.64Q667.1199999999999 -107.28 667.1199999999999 -92.16Q667.1199999999999 -80.1 661.8999999999999 -71.64Q656.6799999999998 -63.18 647.6799999999998 -60.12Q646.9599999999999 -59.94 647.1399999999999 -59.22L667.4799999999999 -1.98L667.6599999999999 -1.26Q667.6599999999999 0.0 666.0399999999998 0.0H660.0999999999999Q658.4799999999999 0.0 657.9399999999999 -1.44ZM618.8799999999999 -116.82V-67.67999999999999Q618.8799999999999 -66.96 619.5999999999999 -66.96H637.9599999999999Q646.7799999999999 -66.96 652.1799999999998 -73.88999999999999Q657.5799999999999 -80.82 657.5799999999999 -92.16Q657.5799999999999 -103.67999999999999 652.1799999999998 -110.60999999999999Q646.7799999999999 -117.53999999999999 637.9599999999999 -117.53999999999999H619.5999999999999Q618.8799999999999 -117.53999999999999 618.8799999999999 -116.82Z" fill="#F0EBE2"/>
  </g>
  <circle cx="802.83" cy="726.00" r="14.40" fill="#E07020"/>
  <g transform="translate(831.63, 780.00)">
    <path d="M93.96 -57.96V-32.76Q93.96 -31.5 93.24 -30.78Q92.52 -30.06 91.25999999999999 -30.06H85.86Q84.78 -30.06 84.78 -28.98V-2.6999999999999997Q84.78 -1.44 84.06 -0.72Q83.34 0.0 82.08 0.0H53.64Q52.379999999999995 0.0 51.66 -0.72Q50.94 -1.44 50.94 -2.6999999999999997V-28.98Q50.94 -30.06 49.86 -30.06H4.14Q2.88 -30.06 2.16 -30.78Q1.44 -31.5 1.44 -32.76V-52.739999999999995Q1.44 -54.36 1.98 -55.98L23.759999999999998 -123.83999999999999Q24.48 -126.0 26.82 -126.0H57.239999999999995Q58.68 -126.0 59.31 -125.19Q59.94 -124.38 59.58 -122.94L41.04 -61.919999999999995Q40.86 -60.66 41.94 -60.66H49.86Q50.94 -60.66 50.94 -61.739999999999995V-73.98Q50.94 -75.24 51.66 -75.96Q52.379999999999995 -76.67999999999999 53.64 -76.67999999999999H82.08Q83.34 -76.67999999999999 84.06 -75.96Q84.78 -75.24 84.78 -73.98V-61.739999999999995Q84.78 -60.66 85.86 -60.66H91.25999999999999Q92.52 -60.66 93.24 -59.94Q93.96 -59.22 93.96 -57.96Z M112.11999999999999 -126.0H141.64Q142.89999999999998 -126.0 143.61999999999998 -125.28Q144.33999999999997 -124.56 144.33999999999997 -123.3V-2.6999999999999997Q144.33999999999997 -1.44 143.61999999999998 -0.72Q142.89999999999998 0.0 141.64 0.0H113.19999999999999Q111.94 0.0 111.22 -0.72Q110.49999999999999 -1.44 110.49999999999999 -2.6999999999999997V-94.14Q110.49999999999999 -95.22 109.41999999999999 -95.22H97.53999999999999Q96.27999999999999 -95.22 95.55999999999999 -95.94Q94.83999999999999 -96.66 94.83999999999999 -97.92V-118.8Q94.83999999999999 -121.14 96.99999999999999 -121.86L108.88 -125.46Q110.49999999999999 -126.0 112.11999999999999 -126.0Z" fill="#E07020"/>
  </g>

  <line x1="380" y1="850" x2="700" y2="850" stroke="#E07020" stroke-width="3"/>

  <g transform="translate(262.96, 970.00)">
    <path d="M32.88 -43.12H17.6Q17.12 -43.12 17.12 -42.64V-34.96Q17.12 -34.480000000000004 17.6 -34.480000000000004H25.52Q26.080000000000002 -34.480000000000004 26.4 -34.160000000000004Q26.72 -33.84 26.72 -33.28V-22.8Q26.72 -22.240000000000002 26.4 -21.92Q26.080000000000002 -21.6 25.52 -21.6H17.6Q17.12 -21.6 17.12 -21.12V-13.36Q17.12 -12.88 17.6 -12.88H32.88Q33.44 -12.88 33.76 -12.56Q34.08 -12.24 34.08 -11.68V-1.2Q34.08 -0.64 33.76 -0.32Q33.44 0.0 32.88 0.0H3.2800000000000002Q2.72 0.0 2.4000000000000004 -0.32Q2.08 -0.64 2.08 -1.2V-54.800000000000004Q2.08 -55.36 2.4000000000000004 -55.68Q2.72 -56.0 3.2800000000000002 -56.0H32.88Q33.44 -56.0 33.76 -55.68Q34.08 -55.36 34.08 -54.800000000000004V-44.32Q34.08 -43.76 33.76 -43.44Q33.44 -43.12 32.88 -43.12Z M66.0 -56.0H78.48Q79.04 -56.0 79.36000000000001 -55.68Q79.68 -55.36 79.68 -54.800000000000004V-1.2Q79.68 -0.64 79.36000000000001 -0.32Q79.04 0.0 78.48 0.0H64.24000000000001Q63.2 0.0 62.96000000000001 -1.04L56.88 -25.28Q56.800000000000004 -25.52 56.56 -25.52Q56.32000000000001 -25.52 56.32000000000001 -25.2L56.480000000000004 -1.2Q56.480000000000004 -0.64 56.160000000000004 -0.32Q55.84 0.0 55.28 0.0H42.800000000000004Q42.24 0.0 41.92 -0.32Q41.6 -0.64 41.6 -1.2V-54.800000000000004Q41.6 -55.36 41.92 -55.68Q42.24 -56.0 42.800000000000004 -56.0H56.88Q57.92 -56.0 58.160000000000004 -54.96L64.32000000000001 -30.64Q64.4 -30.32 64.64 -30.32Q64.88 -30.32 64.88 -30.64L64.80000000000001 -54.800000000000004Q64.80000000000001 -55.36 65.12 -55.68Q65.44 -56.0 66.0 -56.0Z M124.24000000000001 -54.800000000000004V-44.32Q124.24000000000001 -43.76 123.92000000000002 -43.44Q123.60000000000001 -43.12 123.04 -43.12H113.60000000000001Q113.12 -43.12 113.12 -42.64V-1.2Q113.12 -0.64 112.80000000000001 -0.32Q112.48 0.0 111.92 0.0H99.28Q98.72 0.0 98.4 -0.32Q98.08000000000001 -0.64 98.08000000000001 -1.2V-42.64Q98.08000000000001 -43.12 97.60000000000001 -43.12H88.4Q87.84 -43.12 87.52000000000001 -43.44Q87.2 -43.76 87.2 -44.32V-54.800000000000004Q87.2 -55.36 87.52000000000001 -55.68Q87.84 -56.0 88.4 -56.0H123.04Q123.60000000000001 -56.0 123.92000000000002 -55.68Q124.24000000000001 -55.36 124.24000000000001 -54.800000000000004Z M152.32 -1.04 147.44 -21.12Q147.28 -21.52 147.12 -21.52Q146.8 -21.52 146.8 -21.04V-1.2Q146.8 -0.64 146.48000000000002 -0.32Q146.16 0.0 145.6 0.0H132.96Q132.4 0.0 132.08 -0.32Q131.76000000000002 -0.64 131.76000000000002 -1.2V-54.800000000000004Q131.76000000000002 -55.36 132.08 -55.68Q132.4 -56.0 132.96 -56.0H150.96Q155.76000000000002 -56.0 159.48000000000002 -53.72Q163.20000000000002 -51.44 165.28000000000003 -47.4Q167.36 -43.36 167.36 -38.160000000000004Q167.36 -33.76 165.84 -30.28Q164.32 -26.8 161.44 -24.64Q161.12 -24.400000000000002 161.20000000000002 -24.0L167.68 -1.36Q167.76 -1.2 167.76 -0.96Q167.76 0.0 166.64000000000001 0.0H153.60000000000002Q152.56 0.0 152.32 -1.04ZM147.28 -43.12Q146.8 -43.12 146.8 -42.64V-33.44Q146.8 -32.96 147.28 -32.96H148.32Q150.08 -32.96 151.2 -34.28Q152.32 -35.6 152.32 -38.0Q152.32 -40.480000000000004 151.24 -41.8Q150.16 -43.12 148.32 -43.12Z M205.76 -43.12H190.48Q190.0 -43.12 190.0 -42.64V-34.96Q190.0 -34.480000000000004 190.48 -34.480000000000004H198.4Q198.96 -34.480000000000004 199.28 -34.160000000000004Q199.6 -33.84 199.6 -33.28V-22.8Q199.6 -22.240000000000002 199.28 -21.92Q198.96 -21.6 198.4 -21.6H190.48Q190.0 -21.6 190.0 -21.12V-13.36Q190.0 -12.88 190.48 -12.88H205.76Q206.32 -12.88 206.64 -12.56Q206.95999999999998 -12.24 206.95999999999998 -11.68V-1.2Q206.95999999999998 -0.64 206.64 -0.32Q206.32 0.0 205.76 0.0H176.16Q175.6 0.0 175.28 -0.32Q174.96 -0.64 174.96 -1.2V-54.800000000000004Q174.96 -55.36 175.28 -55.68Q175.6 -56.0 176.16 -56.0H205.76Q206.32 -56.0 206.64 -55.68Q206.95999999999998 -55.36 206.95999999999998 -54.800000000000004V-44.32Q206.95999999999998 -43.76 206.64 -43.44Q206.32 -43.12 205.76 -43.12Z M213.36 -1.2V-12.08Q213.36 -12.8 213.76000000000002 -13.6L229.04000000000002 -42.56Q229.28 -43.12 228.72 -43.12H214.56Q214.0 -43.12 213.68 -43.44Q213.36 -43.76 213.36 -44.32V-54.800000000000004Q213.36 -55.36 213.68 -55.68Q214.0 -56.0 214.56 -56.0H244.0Q244.56 -56.0 244.88 -55.68Q245.2 -55.36 245.2 -54.800000000000004V-43.92Q245.2 -43.2 244.8 -42.4L229.36 -13.44Q229.12 -12.88 229.68 -12.88H244.0Q244.56 -12.88 244.88 -12.56Q245.2 -12.24 245.2 -11.68V-1.2Q245.2 -0.64 244.88 -0.32Q244.56 0.0 244.0 0.0H214.56Q214.0 0.0 213.68 -0.32Q213.36 -0.64 213.36 -1.2Z M292.56 -23.840000000000003Q292.56 -27.200000000000003 294.68 -29.28Q296.8 -31.36 300.08000000000004 -31.36Q303.36 -31.36 305.48 -29.28Q307.6 -27.200000000000003 307.6 -23.840000000000003Q307.6 -20.64 305.44000000000005 -18.48Q303.28000000000003 -16.32 300.08000000000004 -16.32Q296.8 -16.32 294.68 -18.44Q292.56 -20.560000000000002 292.56 -23.840000000000003Z M354.47999999999996 -15.36V-20.0Q354.47999999999996 -20.56 354.79999999999995 -20.88Q355.11999999999995 -21.2 355.67999999999995 -21.2H368.32Q368.88 -21.2 369.2 -20.88Q369.52 -20.56 369.52 -20.0V-15.200000000000001Q369.52 -13.92 370.15999999999997 -13.08Q370.79999999999995 -12.24 371.84 -12.24Q372.96 -12.24 373.64 -13.08Q374.32 -13.92 374.32 -15.200000000000001V-54.800000000000004Q374.32 -55.36 374.64 -55.68Q374.96 -56.0 375.52 -56.0H388.15999999999997Q388.71999999999997 -56.0 389.03999999999996 -55.68Q389.35999999999996 -55.36 389.35999999999996 -54.800000000000004V-15.36Q389.35999999999996 -10.64 387.15999999999997 -7.0Q384.96 -3.36 381.0 -1.3599999999999999Q377.03999999999996 0.64 371.84 0.64Q366.71999999999997 0.64 362.76 -1.3599999999999999Q358.79999999999995 -3.36 356.64 -7.0Q354.47999999999996 -10.64 354.47999999999996 -15.36Z M397.04 -16.48V-39.52Q397.04 -47.36 401.88 -52.0Q406.71999999999997 -56.64 414.8 -56.64Q422.88 -56.64 427.72 -52.0Q432.56 -47.36 432.56 -39.52V-16.48Q432.56 -8.64 427.72 -4.0Q422.88 0.64 414.8 0.64Q406.71999999999997 0.64 401.88 -4.0Q397.04 -8.64 397.04 -16.48ZM417.52 -15.84V-40.160000000000004Q417.52 -41.84 416.79999999999995 -42.8Q416.08 -43.76 414.8 -43.76Q413.52 -43.76 412.79999999999995 -42.8Q412.08 -41.84 412.08 -40.160000000000004V-15.84Q412.08 -14.16 412.79999999999995 -13.2Q413.52 -12.24 414.8 -12.24Q416.08 -12.24 416.79999999999995 -13.2Q417.52 -14.16 417.52 -15.84Z M440.08 -16.64V-54.800000000000004Q440.08 -55.36 440.4 -55.68Q440.71999999999997 -56.0 441.28 -56.0H453.91999999999996Q454.47999999999996 -56.0 454.79999999999995 -55.68Q455.11999999999995 -55.36 455.11999999999995 -54.800000000000004V-15.200000000000001Q455.11999999999995 -13.84 455.76 -13.04Q456.4 -12.24 457.43999999999994 -12.24Q458.47999999999996 -12.24 459.0799999999999 -13.04Q459.67999999999995 -13.84 459.67999999999995 -15.200000000000001V-54.800000000000004Q459.67999999999995 -55.36 460.0 -55.68Q460.32 -56.0 460.88 -56.0H473.52Q474.08 -56.0 474.4 -55.68Q474.71999999999997 -55.36 474.71999999999997 -54.800000000000004V-16.64Q474.71999999999997 -11.52 472.55999999999995 -7.6Q470.4 -3.68 466.47999999999996 -1.52Q462.55999999999995 0.64 457.43999999999994 0.64Q452.23999999999995 0.64 448.31999999999994 -1.52Q444.4 -3.68 442.24 -7.6Q440.08 -11.52 440.08 -16.64Z M513.52 -43.12H498.24Q497.76 -43.12 497.76 -42.64V-34.96Q497.76 -34.480000000000004 498.24 -34.480000000000004H506.15999999999997Q506.71999999999997 -34.480000000000004 507.03999999999996 -34.160000000000004Q507.36 -33.84 507.36 -33.28V-22.8Q507.36 -22.240000000000002 507.03999999999996 -21.92Q506.71999999999997 -21.6 506.15999999999997 -21.6H498.24Q497.76 -21.6 497.76 -21.12V-13.36Q497.76 -12.88 498.24 -12.88H513.52Q514.0799999999999 -12.88 514.4 -12.56Q514.72 -12.24 514.72 -11.68V-1.2Q514.72 -0.64 514.4 -0.32Q514.0799999999999 0.0 513.52 0.0H483.91999999999996Q483.36 0.0 483.03999999999996 -0.32Q482.71999999999997 -0.64 482.71999999999997 -1.2V-54.800000000000004Q482.71999999999997 -55.36 483.03999999999996 -55.68Q483.36 -56.0 483.91999999999996 -56.0H513.52Q514.0799999999999 -56.0 514.4 -55.68Q514.72 -55.36 514.72 -54.800000000000004V-44.32Q514.72 -43.76 514.4 -43.44Q514.0799999999999 -43.12 513.52 -43.12Z M521.12 -1.2V-12.08Q521.12 -12.8 521.52 -13.6L536.8 -42.56Q537.04 -43.12 536.48 -43.12H522.3199999999999Q521.76 -43.12 521.44 -43.44Q521.12 -43.76 521.12 -44.32V-54.800000000000004Q521.12 -55.36 521.44 -55.68Q521.76 -56.0 522.3199999999999 -56.0H551.76Q552.3199999999999 -56.0 552.6399999999999 -55.68Q552.9599999999999 -55.36 552.9599999999999 -54.800000000000004V-43.92Q552.9599999999999 -43.2 552.56 -42.4L537.12 -13.44Q536.88 -12.88 537.4399999999999 -12.88H551.76Q552.3199999999999 -12.88 552.6399999999999 -12.56Q552.9599999999999 -12.24 552.9599999999999 -11.68V-1.2Q552.9599999999999 -0.64 552.6399999999999 -0.32Q552.3199999999999 0.0 551.76 0.0H522.3199999999999Q521.76 0.0 521.44 -0.32Q521.12 -0.64 521.12 -1.2Z" fill="#F0EBE2"/>
  </g>
  <g transform="translate(399.00, 1100.00)">
    <path d="M18.599999999999998 -1.56 1.7999999999999998 -82.08V-82.56Q1.7999999999999998 -84.0 3.48 -84.0H24.119999999999997Q25.919999999999998 -84.0 26.04 -82.32L31.439999999999998 -39.839999999999996Q31.439999999999998 -39.48 31.799999999999997 -39.48Q32.16 -39.48 32.16 -39.839999999999996L37.08 -82.32Q37.199999999999996 -84.0 39.0 -84.0H59.04Q61.08 -84.0 60.72 -82.08L43.68 -1.56Q43.32 0.0 41.64 0.0H20.64Q18.96 0.0 18.599999999999998 -1.56Z M71.64 -1.7999999999999998V-82.2Q71.64 -83.03999999999999 72.12 -83.52Q72.6 -84.0 73.44 -84.0H92.39999999999999Q93.24 -84.0 93.72 -83.52Q94.19999999999999 -83.03999999999999 94.19999999999999 -82.2V-1.7999999999999998Q94.19999999999999 -0.96 93.72 -0.48Q93.24 0.0 92.39999999999999 0.0H73.44Q72.6 0.0 72.12 -0.48Q71.64 -0.96 71.64 -1.7999999999999998Z M121.91999999999999 -1.56 105.11999999999999 -82.08V-82.56Q105.11999999999999 -84.0 106.8 -84.0H127.44Q129.23999999999998 -84.0 129.35999999999999 -82.32L134.76 -39.839999999999996Q134.76 -39.48 135.12 -39.48Q135.48 -39.48 135.48 -39.839999999999996L140.39999999999998 -82.32Q140.51999999999998 -84.0 142.32 -84.0H162.35999999999999Q164.39999999999998 -84.0 164.04 -82.08L147.0 -1.56Q146.64 0.0 144.95999999999998 0.0H123.96Q122.28 0.0 121.91999999999999 -1.56Z M221.15999999999997 -64.67999999999999H198.23999999999998Q197.51999999999998 -64.67999999999999 197.51999999999998 -63.96V-52.44Q197.51999999999998 -51.72 198.23999999999998 -51.72H210.11999999999998Q210.95999999999998 -51.72 211.43999999999997 -51.239999999999995Q211.91999999999996 -50.76 211.91999999999996 -49.92V-34.199999999999996Q211.91999999999996 -33.36 211.43999999999997 -32.879999999999995Q210.95999999999998 -32.4 210.11999999999998 -32.4H198.23999999999998Q197.51999999999998 -32.4 197.51999999999998 -31.68V-20.04Q197.51999999999998 -19.32 198.23999999999998 -19.32H221.15999999999997Q221.99999999999997 -19.32 222.47999999999996 -18.84Q222.95999999999998 -18.36 222.95999999999998 -17.52V-1.7999999999999998Q222.95999999999998 -0.96 222.47999999999996 -0.48Q221.99999999999997 0.0 221.15999999999997 0.0H176.75999999999996Q175.92 0.0 175.44 -0.48Q174.95999999999998 -0.96 174.95999999999998 -1.7999999999999998V-82.2Q174.95999999999998 -83.03999999999999 175.44 -83.52Q175.92 -84.0 176.75999999999996 -84.0H221.15999999999997Q221.99999999999997 -84.0 222.47999999999996 -83.52Q222.95999999999998 -83.03999999999999 222.95999999999998 -82.2V-66.48Q222.95999999999998 -65.64 222.47999999999996 -65.16Q221.99999999999997 -64.67999999999999 221.15999999999997 -64.67999999999999Z M232.55999999999997 -1.7999999999999998V-18.12Q232.55999999999997 -19.2 233.15999999999997 -20.4L256.08 -63.839999999999996Q256.44 -64.67999999999999 255.59999999999997 -64.67999999999999H234.35999999999999Q233.51999999999998 -64.67999999999999 233.03999999999996 -65.16Q232.55999999999997 -65.64 232.55999999999997 -66.48V-82.2Q232.55999999999997 -83.03999999999999 233.03999999999996 -83.52Q233.51999999999998 -84.0 234.35999999999999 -84.0H278.52Q279.35999999999996 -84.0 279.84 -83.52Q280.32 -83.03999999999999 280.32 -82.2V-65.88Q280.32 -64.8 279.71999999999997 -63.599999999999994L256.55999999999995 -20.16Q256.2 -19.32 257.03999999999996 -19.32H278.52Q279.35999999999996 -19.32 279.84 -18.84Q280.32 -18.36 280.32 -17.52V-1.7999999999999998Q280.32 -0.96 279.84 -0.48Q279.35999999999996 0.0 278.52 0.0H234.35999999999999Q233.51999999999998 0.0 233.03999999999996 -0.48Q232.55999999999997 -0.96 232.55999999999997 -1.7999999999999998Z" fill="#E07020"/>
  </g>

  <g transform="translate(425.06, 1280.00)">
    <path d="M12.384 -19.744H5.184Q5.056 -19.744 5.056 -19.616V-12.672Q5.056 -12.544 5.184 -12.544H9.6Q9.92 -12.544 9.92 -12.224V-10.208Q9.92 -9.888 9.6 -9.888H5.184Q5.056 -9.888 5.056 -9.76V-2.7840000000000003Q5.056 -2.656 5.184 -2.656H12.384Q12.704 -2.656 12.704 -2.336V-0.32Q12.704 0.0 12.384 0.0H2.3040000000000003Q1.984 0.0 1.984 -0.32V-22.080000000000002Q1.984 -22.400000000000002 2.3040000000000003 -22.400000000000002H12.384Q12.704 -22.400000000000002 12.704 -22.080000000000002V-20.064Q12.704 -19.744 12.384 -19.744Z M23.04 -5.472V-6.304Q23.04 -6.6240000000000006 23.36 -6.6240000000000006H25.727999999999998Q26.048 -6.6240000000000006 26.048 -6.304V-5.632Q26.048 -4.16 26.784 -3.2800000000000002Q27.519999999999996 -2.4 28.671999999999997 -2.4Q29.823999999999998 -2.4 30.575999999999997 -3.248Q31.327999999999996 -4.096 31.327999999999996 -5.472Q31.327999999999996 -6.4 30.927999999999997 -7.104Q30.528 -7.808 29.872 -8.368Q29.215999999999998 -8.928 27.744 -10.016Q26.112 -11.232000000000001 25.183999999999997 -12.096Q24.255999999999997 -12.96 23.616 -14.176Q22.976 -15.392 22.976 -17.024Q22.976 -19.616 24.512 -21.136Q26.048 -22.656 28.511999999999997 -22.656Q31.071999999999996 -22.656 32.623999999999995 -21.024Q34.176 -19.392 34.176 -16.736V-15.936Q34.176 -15.616 33.855999999999995 -15.616H31.488Q31.168 -15.616 31.168 -15.936V-16.8Q31.168 -18.240000000000002 30.432 -19.12Q29.695999999999998 -20.0 28.511999999999997 -20.0Q27.392 -20.0 26.688 -19.216Q25.983999999999998 -18.432000000000002 25.983999999999998 -17.024Q25.983999999999998 -15.744 26.688 -14.864Q27.392 -13.984 29.407999999999998 -12.512Q31.327999999999996 -11.072000000000001 32.304 -10.176Q33.28 -9.28 33.808 -8.208Q34.336 -7.136 34.336 -5.664Q34.336 -2.976 32.768 -1.3599999999999999Q31.199999999999996 0.256 28.671999999999997 0.256Q26.144 0.256 24.592 -1.3279999999999998Q23.04 -2.912 23.04 -5.472Z M44.992 -5.5360000000000005V-16.896Q44.992 -19.52 46.57599999999999 -21.088Q48.16 -22.656 50.751999999999995 -22.656Q53.376 -22.656 54.959999999999994 -21.088Q56.544 -19.52 56.544 -16.896V-16.384Q56.544 -16.064 56.224 -16.064L53.791999999999994 -15.936Q53.471999999999994 -15.936 53.471999999999994 -16.256V-17.088Q53.471999999999994 -18.400000000000002 52.72 -19.200000000000003Q51.967999999999996 -20.0 50.751999999999995 -20.0Q49.535999999999994 -20.0 48.8 -19.200000000000003Q48.06399999999999 -18.400000000000002 48.06399999999999 -17.088V-5.312Q48.06399999999999 -4.0 48.8 -3.2Q49.535999999999994 -2.4 50.751999999999995 -2.4Q51.967999999999996 -2.4 52.72 -3.2Q53.471999999999994 -4.0 53.471999999999994 -5.312V-6.144Q53.471999999999994 -6.464 53.791999999999994 -6.464L56.224 -6.336Q56.544 -6.336 56.544 -6.016V-5.5360000000000005Q56.544 -2.912 54.959999999999994 -1.3279999999999998Q53.376 0.256 50.751999999999995 0.256Q48.16 0.256 46.57599999999999 -1.3279999999999998Q44.992 -2.912 44.992 -5.5360000000000005Z M76.32 -0.28800000000000003 75.61599999999999 -3.968Q75.61599999999999 -4.032 75.56799999999998 -4.064Q75.51999999999998 -4.096 75.45599999999999 -4.096H70.23999999999998Q70.17599999999999 -4.096 70.12799999999999 -4.064Q70.07999999999998 -4.032 70.07999999999998 -3.968L69.40799999999999 -0.28800000000000003Q69.37599999999999 0.0 69.05599999999998 0.0H66.62399999999998Q66.46399999999998 0.0 66.38399999999999 -0.096Q66.30399999999999 -0.192 66.33599999999998 -0.352L71.10399999999998 -22.112000000000002Q71.16799999999999 -22.400000000000002 71.45599999999999 -22.400000000000002H74.30399999999999Q74.624 -22.400000000000002 74.65599999999999 -22.112000000000002L79.45599999999999 -0.352V-0.28800000000000003Q79.45599999999999 0.0 79.16799999999999 0.0H76.67199999999998Q76.38399999999999 0.0 76.32 -0.28800000000000003ZM70.71999999999998 -6.5280000000000005H74.97599999999998Q75.07199999999999 -6.5280000000000005 75.07199999999999 -6.656000000000001L72.89599999999999 -18.016000000000002Q72.86399999999999 -18.080000000000002 72.832 -18.080000000000002Q72.79999999999998 -18.080000000000002 72.76799999999999 -18.016000000000002L70.62399999999998 -6.656000000000001Q70.62399999999998 -6.5280000000000005 70.71999999999998 -6.5280000000000005Z M101.37599999999999 -16.0Q101.37599999999999 -13.184000000000001 99.904 -11.456Q98.43199999999999 -9.728 96.03199999999998 -9.728H93.02399999999999Q92.89599999999999 -9.728 92.89599999999999 -9.6V-0.32Q92.89599999999999 0.0 92.57599999999998 0.0H90.14399999999999Q89.82399999999998 0.0 89.82399999999998 -0.32V-22.112000000000002Q89.82399999999998 -22.432000000000002 90.14399999999999 -22.432000000000002H95.87199999999999Q98.33599999999998 -22.432000000000002 99.856 -20.656Q101.37599999999999 -18.88 101.37599999999999 -16.0ZM98.30399999999999 -15.936Q98.30399999999999 -17.696 97.50399999999999 -18.736Q96.70399999999998 -19.776 95.39199999999998 -19.776H93.02399999999999Q92.89599999999999 -19.776 92.89599999999999 -19.648V-12.32Q92.89599999999999 -12.192 93.02399999999999 -12.192H95.39199999999998Q96.70399999999998 -12.192 97.50399999999999 -13.2Q98.30399999999999 -14.208 98.30399999999999 -15.936Z M122.68799999999999 -19.744H115.48799999999999Q115.35999999999999 -19.744 115.35999999999999 -19.616V-12.672Q115.35999999999999 -12.544 115.48799999999999 -12.544H119.90399999999998Q120.22399999999999 -12.544 120.22399999999999 -12.224V-10.208Q120.22399999999999 -9.888 119.90399999999998 -9.888H115.48799999999999Q115.35999999999999 -9.888 115.35999999999999 -9.76V-2.7840000000000003Q115.35999999999999 -2.656 115.48799999999999 -2.656H122.68799999999999Q123.00799999999998 -2.656 123.00799999999998 -2.336V-0.32Q123.00799999999998 0.0 122.68799999999999 0.0H112.60799999999999Q112.28799999999998 0.0 112.28799999999998 -0.32V-22.080000000000002Q112.28799999999998 -22.400000000000002 112.60799999999999 -22.400000000000002H122.68799999999999Q123.00799999999998 -22.400000000000002 123.00799999999998 -22.080000000000002V-20.064Q123.00799999999998 -19.744 122.68799999999999 -19.744Z M148.064 -5.344V-17.056Q148.064 -19.584 149.648 -21.119999999999997Q151.232 -22.656 153.82399999999998 -22.656Q156.416 -22.656 158.016 -21.119999999999997Q159.61599999999999 -19.584 159.61599999999999 -17.024V-15.68Q159.61599999999999 -15.36 159.296 -15.36H156.864Q156.54399999999998 -15.36 156.54399999999998 -15.68V-17.088Q156.54399999999998 -18.400000000000002 155.79199999999997 -19.200000000000003Q155.04 -20.0 153.82399999999998 -20.0Q152.608 -20.0 151.856 -19.200000000000003Q151.10399999999998 -18.400000000000002 151.10399999999998 -17.088V-5.312Q151.10399999999998 -4.0 151.856 -3.2Q152.608 -2.4 153.82399999999998 -2.4Q155.04 -2.4 155.79199999999997 -3.2Q156.54399999999998 -4.0 156.54399999999998 -5.312V-8.832Q156.54399999999998 -8.96 156.416 -8.96H153.98399999999998Q153.664 -8.96 153.664 -9.28V-11.264Q153.664 -11.584 153.98399999999998 -11.584H159.296Q159.61599999999999 -11.584 159.61599999999999 -11.264V-5.344Q159.61599999999999 -2.816 158.016 -1.2799999999999998Q156.416 0.256 153.82399999999998 0.256Q151.232 0.256 149.648 -1.2799999999999998Q148.064 -2.816 148.064 -5.344Z M179.552 -0.28800000000000003 178.84799999999998 -3.968Q178.84799999999998 -4.032 178.79999999999998 -4.064Q178.75199999999998 -4.096 178.688 -4.096H173.47199999999998Q173.408 -4.096 173.35999999999999 -4.064Q173.31199999999998 -4.032 173.31199999999998 -3.968L172.64 -0.28800000000000003Q172.60799999999998 0.0 172.28799999999998 0.0H169.856Q169.696 0.0 169.61599999999999 -0.096Q169.53599999999997 -0.192 169.56799999999998 -0.352L174.33599999999998 -22.112000000000002Q174.39999999999998 -22.400000000000002 174.688 -22.400000000000002H177.536Q177.856 -22.400000000000002 177.88799999999998 -22.112000000000002L182.688 -0.352V-0.28800000000000003Q182.688 0.0 182.39999999999998 0.0H179.904Q179.61599999999999 0.0 179.552 -0.28800000000000003ZM173.952 -6.5280000000000005H178.208Q178.30399999999997 -6.5280000000000005 178.30399999999997 -6.656000000000001L176.128 -18.016000000000002Q176.09599999999998 -18.080000000000002 176.06399999999996 -18.080000000000002Q176.03199999999998 -18.080000000000002 176.0 -18.016000000000002L173.856 -6.656000000000001Q173.856 -6.5280000000000005 173.952 -6.5280000000000005Z M203.42399999999998 -22.400000000000002H205.856Q206.176 -22.400000000000002 206.176 -22.080000000000002V-0.32Q206.176 0.0 205.856 0.0H203.42399999999998Q203.10399999999998 0.0 203.10399999999998 -0.32V-16.192Q203.10399999999998 -16.288 203.05599999999998 -16.288Q203.00799999999998 -16.288 202.944 -16.224L199.87199999999999 -10.496Q199.77599999999998 -10.272 199.58399999999997 -10.272Q199.392 -10.272 199.296 -10.496L196.25599999999997 -16.192Q196.19199999999998 -16.256 196.14399999999998 -16.256Q196.09599999999998 -16.256 196.09599999999998 -16.16V-0.32Q196.09599999999998 0.0 195.77599999999998 0.0H193.344Q193.02399999999997 0.0 193.02399999999997 -0.32V-22.080000000000002Q193.02399999999997 -22.400000000000002 193.344 -22.400000000000002H195.77599999999998Q195.99999999999997 -22.400000000000002 196.16 -22.176000000000002L199.51999999999998 -16.16Q199.552 -16.128 199.61599999999999 -16.128Q199.67999999999998 -16.128 199.712 -16.16L203.04 -22.176000000000002Q203.16799999999998 -22.400000000000002 203.42399999999998 -22.400000000000002Z M228.44799999999998 -19.744H221.248Q221.12 -19.744 221.12 -19.616V-12.672Q221.12 -12.544 221.248 -12.544H225.664Q225.98399999999998 -12.544 225.98399999999998 -12.224V-10.208Q225.98399999999998 -9.888 225.664 -9.888H221.248Q221.12 -9.888 221.12 -9.76V-2.7840000000000003Q221.12 -2.656 221.248 -2.656H228.44799999999998Q228.768 -2.656 228.768 -2.336V-0.32Q228.768 0.0 228.44799999999998 0.0H218.368Q218.048 0.0 218.048 -0.32V-22.080000000000002Q218.048 -22.400000000000002 218.368 -22.400000000000002H228.44799999999998Q228.768 -22.400000000000002 228.768 -22.080000000000002V-20.064Q228.768 -19.744 228.44799999999998 -19.744Z" fill="#8A8078"/>
  </g>
  <g transform="translate(450.35, 1330.00)">
    <path d="M12.864 -16.64V-5.76Q12.864 -3.552 11.776 -2.0Q10.688 -0.448 8.832 0.032Q8.736 0.096 8.736 0.192V3.168Q8.736 3.488 8.416 3.488H5.952Q5.632 3.488 5.632 3.168V0.192Q5.632 0.096 5.5360000000000005 0.032Q3.68 -0.48 2.608 -2.016Q1.536 -3.552 1.536 -5.76V-16.64Q1.536 -19.328 3.104 -20.991999999999997Q4.672 -22.656 7.2 -22.656Q9.728 -22.656 11.296 -20.991999999999997Q12.864 -19.328 12.864 -16.64ZM9.792 -16.96Q9.792 -18.304000000000002 9.072 -19.152Q8.352 -20.0 7.2 -20.0Q6.048 -20.0 5.328 -19.152Q4.6080000000000005 -18.304000000000002 4.6080000000000005 -16.96V-5.44Q4.6080000000000005 -4.096 5.328 -3.248Q6.048 -2.4 7.2 -2.4Q8.352 -2.4 9.072 -3.248Q9.792 -4.096 9.792 -5.44Z M24.224 -6.08V-22.080000000000002Q24.224 -22.400000000000002 24.543999999999997 -22.400000000000002H26.976Q27.296 -22.400000000000002 27.296 -22.080000000000002V-5.76Q27.296 -4.256 28.048 -3.3280000000000003Q28.799999999999997 -2.4 30.016 -2.4Q31.264 -2.4 32.016 -3.3280000000000003Q32.768 -4.256 32.768 -5.76V-22.080000000000002Q32.768 -22.400000000000002 33.088 -22.400000000000002H35.519999999999996Q35.839999999999996 -22.400000000000002 35.839999999999996 -22.080000000000002V-6.08Q35.839999999999996 -3.232 34.239999999999995 -1.488Q32.64 0.256 30.016 0.256Q27.392 0.256 25.808 -1.488Q24.224 -3.232 24.224 -6.08Z M47.648 -0.32V-22.080000000000002Q47.648 -22.400000000000002 47.968 -22.400000000000002H50.4Q50.72 -22.400000000000002 50.72 -22.080000000000002V-0.32Q50.72 0.0 50.4 0.0H47.968Q47.648 0.0 47.648 -0.32Z M61.632 -0.32V-2.464Q61.632 -2.624 61.728 -2.848L69.152 -19.584Q69.184 -19.648 69.152 -19.695999999999998Q69.12 -19.744 69.056 -19.744H61.952Q61.632 -19.744 61.632 -20.064V-22.080000000000002Q61.632 -22.400000000000002 61.952 -22.400000000000002H72.16Q72.48 -22.400000000000002 72.48 -22.080000000000002V-19.936Q72.48 -19.808 72.384 -19.552L64.928 -2.816Q64.896 -2.7520000000000002 64.928 -2.704Q64.96000000000001 -2.656 65.024 -2.656H72.16Q72.48 -2.656 72.48 -2.336V-0.32Q72.48 0.0 72.16 0.0H61.952Q61.632 0.0 61.632 -0.32Z M97.47200000000001 -5.344V-17.056Q97.47200000000001 -19.584 99.05600000000001 -21.119999999999997Q100.64 -22.656 103.23200000000001 -22.656Q105.82400000000001 -22.656 107.424 -21.119999999999997Q109.024 -19.584 109.024 -17.024V-15.68Q109.024 -15.36 108.70400000000001 -15.36H106.272Q105.95200000000001 -15.36 105.95200000000001 -15.68V-17.088Q105.95200000000001 -18.400000000000002 105.20000000000002 -19.200000000000003Q104.44800000000001 -20.0 103.23200000000001 -20.0Q102.016 -20.0 101.26400000000001 -19.200000000000003Q100.512 -18.400000000000002 100.512 -17.088V-5.312Q100.512 -4.0 101.26400000000001 -3.2Q102.016 -2.4 103.23200000000001 -2.4Q104.44800000000001 -2.4 105.20000000000002 -3.2Q105.95200000000001 -4.0 105.95200000000001 -5.312V-8.832Q105.95200000000001 -8.96 105.82400000000001 -8.96H103.39200000000001Q103.072 -8.96 103.072 -9.28V-11.264Q103.072 -11.584 103.39200000000001 -11.584H108.70400000000001Q109.024 -11.584 109.024 -11.264V-5.344Q109.024 -2.816 107.424 -1.2799999999999998Q105.82400000000001 0.256 103.23200000000001 0.256Q100.64 0.256 99.05600000000001 -1.2799999999999998Q97.47200000000001 -2.816 97.47200000000001 -5.344Z M128.96 -0.28800000000000003 128.256 -3.968Q128.256 -4.032 128.208 -4.064Q128.16 -4.096 128.096 -4.096H122.88Q122.816 -4.096 122.768 -4.064Q122.72 -4.032 122.72 -3.968L122.048 -0.28800000000000003Q122.016 0.0 121.696 0.0H119.264Q119.104 0.0 119.024 -0.096Q118.944 -0.192 118.976 -0.352L123.744 -22.112000000000002Q123.808 -22.400000000000002 124.096 -22.400000000000002H126.944Q127.26400000000001 -22.400000000000002 127.296 -22.112000000000002L132.096 -0.352V-0.28800000000000003Q132.096 0.0 131.808 0.0H129.312Q129.024 0.0 128.96 -0.28800000000000003ZM123.36 -6.5280000000000005H127.616Q127.712 -6.5280000000000005 127.712 -6.656000000000001L125.536 -18.016000000000002Q125.504 -18.080000000000002 125.47200000000001 -18.080000000000002Q125.44 -18.080000000000002 125.408 -18.016000000000002L123.264 -6.656000000000001Q123.264 -6.5280000000000005 123.36 -6.5280000000000005Z M152.832 -22.400000000000002H155.264Q155.584 -22.400000000000002 155.584 -22.080000000000002V-0.32Q155.584 0.0 155.264 0.0H152.832Q152.512 0.0 152.512 -0.32V-16.192Q152.512 -16.288 152.464 -16.288Q152.416 -16.288 152.352 -16.224L149.28 -10.496Q149.184 -10.272 148.992 -10.272Q148.8 -10.272 148.704 -10.496L145.664 -16.192Q145.6 -16.256 145.552 -16.256Q145.504 -16.256 145.504 -16.16V-0.32Q145.504 0.0 145.184 0.0H142.752Q142.432 0.0 142.432 -0.32V-22.080000000000002Q142.432 -22.400000000000002 142.752 -22.400000000000002H145.184Q145.408 -22.400000000000002 145.568 -22.176000000000002L148.928 -16.16Q148.96 -16.128 149.024 -16.128Q149.088 -16.128 149.12 -16.16L152.448 -22.176000000000002Q152.576 -22.400000000000002 152.832 -22.400000000000002Z M177.856 -19.744H170.656Q170.52800000000002 -19.744 170.52800000000002 -19.616V-12.672Q170.52800000000002 -12.544 170.656 -12.544H175.072Q175.392 -12.544 175.392 -12.224V-10.208Q175.392 -9.888 175.072 -9.888H170.656Q170.52800000000002 -9.888 170.52800000000002 -9.76V-2.7840000000000003Q170.52800000000002 -2.656 170.656 -2.656H177.856Q178.17600000000002 -2.656 178.17600000000002 -2.336V-0.32Q178.17600000000002 0.0 177.856 0.0H167.776Q167.45600000000002 0.0 167.45600000000002 -0.32V-22.080000000000002Q167.45600000000002 -22.400000000000002 167.776 -22.400000000000002H177.856Q178.17600000000002 -22.400000000000002 178.17600000000002 -22.080000000000002V-20.064Q178.17600000000002 -19.744 177.856 -19.744Z" fill="#8A8078"/>
  </g>
  <g transform="translate(426.96, 1380.00)">
    <path d="M10.4 -0.28800000000000003 9.696 -3.968Q9.696 -4.032 9.648 -4.064Q9.6 -4.096 9.536 -4.096H4.32Q4.256 -4.096 4.208 -4.064Q4.16 -4.032 4.16 -3.968L3.488 -0.28800000000000003Q3.456 0.0 3.136 0.0H0.704Q0.544 0.0 0.464 -0.096Q0.384 -0.192 0.41600000000000004 -0.352L5.184 -22.112000000000002Q5.248 -22.400000000000002 5.5360000000000005 -22.400000000000002H8.384Q8.704 -22.400000000000002 8.736 -22.112000000000002L13.536 -0.352V-0.28800000000000003Q13.536 0.0 13.248000000000001 0.0H10.752Q10.464 0.0 10.4 -0.28800000000000003ZM4.8 -6.5280000000000005H9.056000000000001Q9.152000000000001 -6.5280000000000005 9.152000000000001 -6.656000000000001L6.976 -18.016000000000002Q6.944 -18.080000000000002 6.912 -18.080000000000002Q6.88 -18.080000000000002 6.848 -18.016000000000002L4.704 -6.656000000000001Q4.704 -6.5280000000000005 4.8 -6.5280000000000005Z M23.488 -5.5360000000000005V-16.896Q23.488 -19.52 25.072 -21.088Q26.656 -22.656 29.247999999999998 -22.656Q31.872 -22.656 33.456 -21.088Q35.04 -19.52 35.04 -16.896V-16.384Q35.04 -16.064 34.72 -16.064L32.288 -15.936Q31.967999999999996 -15.936 31.967999999999996 -16.256V-17.088Q31.967999999999996 -18.400000000000002 31.215999999999998 -19.200000000000003Q30.464 -20.0 29.247999999999998 -20.0Q28.031999999999996 -20.0 27.296 -19.200000000000003Q26.56 -18.400000000000002 26.56 -17.088V-5.312Q26.56 -4.0 27.296 -3.2Q28.031999999999996 -2.4 29.247999999999998 -2.4Q30.464 -2.4 31.215999999999998 -3.2Q31.967999999999996 -4.0 31.967999999999996 -5.312V-6.144Q31.967999999999996 -6.464 32.288 -6.464L34.72 -6.336Q35.04 -6.336 35.04 -6.016V-5.5360000000000005Q35.04 -2.912 33.456 -1.3279999999999998Q31.872 0.256 29.247999999999998 0.256Q26.656 0.256 25.072 -1.3279999999999998Q23.488 -2.912 23.488 -5.5360000000000005Z M57.504 -22.080000000000002V-20.064Q57.504 -19.744 57.184 -19.744H52.992Q52.864 -19.744 52.864 -19.616V-0.32Q52.864 0.0 52.544 0.0H50.111999999999995Q49.791999999999994 0.0 49.791999999999994 -0.32V-19.616Q49.791999999999994 -19.744 49.663999999999994 -19.744H45.696Q45.376 -19.744 45.376 -20.064V-22.080000000000002Q45.376 -22.400000000000002 45.696 -22.400000000000002H57.184Q57.504 -22.400000000000002 57.504 -22.080000000000002Z M68.448 -0.32V-22.080000000000002Q68.448 -22.400000000000002 68.768 -22.400000000000002H71.2Q71.52 -22.400000000000002 71.52 -22.080000000000002V-0.32Q71.52 0.0 71.2 0.0H68.768Q68.448 0.0 68.448 -0.32Z M83.03999999999999 -5.6000000000000005V-16.768Q83.03999999999999 -19.424 84.63999999999999 -21.04Q86.24 -22.656 88.86399999999999 -22.656Q91.52 -22.656 93.136 -21.04Q94.752 -19.424 94.752 -16.768V-5.6000000000000005Q94.752 -2.944 93.136 -1.3439999999999999Q91.52 0.256 88.86399999999999 0.256Q86.24 0.256 84.63999999999999 -1.3439999999999999Q83.03999999999999 -2.944 83.03999999999999 -5.6000000000000005ZM91.67999999999999 -5.472V-16.928Q91.67999999999999 -18.304000000000002 90.91199999999999 -19.152Q90.14399999999999 -20.0 88.86399999999999 -20.0Q87.61599999999999 -20.0 86.86399999999999 -19.152Q86.112 -18.304000000000002 86.112 -16.928V-5.472Q86.112 -4.096 86.86399999999999 -3.248Q87.61599999999999 -2.4 88.86399999999999 -2.4Q90.14399999999999 -2.4 90.91199999999999 -3.248Q91.67999999999999 -4.096 91.67999999999999 -5.472Z M115.61599999999999 -22.400000000000002H118.01599999999998Q118.33599999999998 -22.400000000000002 118.33599999999998 -22.080000000000002V-0.32Q118.33599999999998 0.0 118.01599999999998 0.0H115.26399999999998Q115.00799999999998 0.0 114.91199999999998 -0.256L109.47199999999998 -14.88Q109.43999999999998 -14.944 109.37599999999998 -14.928Q109.31199999999998 -14.912 109.31199999999998 -14.848L109.34399999999998 -0.32Q109.34399999999998 0.0 109.02399999999999 0.0H106.59199999999998Q106.27199999999998 0.0 106.27199999999998 -0.32V-22.080000000000002Q106.27199999999998 -22.400000000000002 106.59199999999998 -22.400000000000002H109.31199999999998Q109.56799999999998 -22.400000000000002 109.66399999999999 -22.144000000000002L115.13599999999998 -7.5200000000000005Q115.16799999999998 -7.424 115.23199999999997 -7.44Q115.29599999999998 -7.456 115.29599999999998 -7.5520000000000005V-22.080000000000002Q115.29599999999998 -22.400000000000002 115.61599999999999 -22.400000000000002Z M144.256 -5.344V-17.056Q144.256 -19.584 145.84 -21.119999999999997Q147.424 -22.656 150.016 -22.656Q152.608 -22.656 154.208 -21.119999999999997Q155.808 -19.584 155.808 -17.024V-15.68Q155.808 -15.36 155.488 -15.36H153.056Q152.736 -15.36 152.736 -15.68V-17.088Q152.736 -18.400000000000002 151.98399999999998 -19.200000000000003Q151.232 -20.0 150.016 -20.0Q148.8 -20.0 148.048 -19.200000000000003Q147.296 -18.400000000000002 147.296 -17.088V-5.312Q147.296 -4.0 148.048 -3.2Q148.8 -2.4 150.016 -2.4Q151.232 -2.4 151.98399999999998 -3.2Q152.736 -4.0 152.736 -5.312V-8.832Q152.736 -8.96 152.608 -8.96H150.176Q149.856 -8.96 149.856 -9.28V-11.264Q149.856 -11.584 150.176 -11.584H155.488Q155.808 -11.584 155.808 -11.264V-5.344Q155.808 -2.816 154.208 -1.2799999999999998Q152.608 0.256 150.016 0.256Q147.424 0.256 145.84 -1.2799999999999998Q144.256 -2.816 144.256 -5.344Z M175.744 -0.28800000000000003 175.04 -3.968Q175.04 -4.032 174.992 -4.064Q174.944 -4.096 174.88 -4.096H169.664Q169.6 -4.096 169.552 -4.064Q169.504 -4.032 169.504 -3.968L168.832 -0.28800000000000003Q168.79999999999998 0.0 168.48 0.0H166.048Q165.888 0.0 165.808 -0.096Q165.72799999999998 -0.192 165.76 -0.352L170.528 -22.112000000000002Q170.59199999999998 -22.400000000000002 170.88 -22.400000000000002H173.728Q174.048 -22.400000000000002 174.07999999999998 -22.112000000000002L178.88 -0.352V-0.28800000000000003Q178.88 0.0 178.59199999999998 0.0H176.096Q175.808 0.0 175.744 -0.28800000000000003ZM170.144 -6.5280000000000005H174.4Q174.49599999999998 -6.5280000000000005 174.49599999999998 -6.656000000000001L172.32 -18.016000000000002Q172.28799999999998 -18.080000000000002 172.25599999999997 -18.080000000000002Q172.224 -18.080000000000002 172.192 -18.016000000000002L170.048 -6.656000000000001Q170.048 -6.5280000000000005 170.144 -6.5280000000000005Z M199.61599999999999 -22.400000000000002H202.048Q202.368 -22.400000000000002 202.368 -22.080000000000002V-0.32Q202.368 0.0 202.048 0.0H199.61599999999999Q199.296 0.0 199.296 -0.32V-16.192Q199.296 -16.288 199.248 -16.288Q199.2 -16.288 199.136 -16.224L196.064 -10.496Q195.968 -10.272 195.77599999999998 -10.272Q195.584 -10.272 195.488 -10.496L192.44799999999998 -16.192Q192.384 -16.256 192.33599999999998 -16.256Q192.28799999999998 -16.256 192.28799999999998 -16.16V-0.32Q192.28799999999998 0.0 191.968 0.0H189.536Q189.21599999999998 0.0 189.21599999999998 -0.32V-22.080000000000002Q189.21599999999998 -22.400000000000002 189.536 -22.400000000000002H191.968Q192.19199999999998 -22.400000000000002 192.352 -22.176000000000002L195.712 -16.16Q195.744 -16.128 195.808 -16.128Q195.87199999999999 -16.128 195.904 -16.16L199.232 -22.176000000000002Q199.35999999999999 -22.400000000000002 199.61599999999999 -22.400000000000002Z M224.64 -19.744H217.44Q217.312 -19.744 217.312 -19.616V-12.672Q217.312 -12.544 217.44 -12.544H221.856Q222.176 -12.544 222.176 -12.224V-10.208Q222.176 -9.888 221.856 -9.888H217.44Q217.312 -9.888 217.312 -9.76V-2.7840000000000003Q217.312 -2.656 217.44 -2.656H224.64Q224.96 -2.656 224.96 -2.336V-0.32Q224.96 0.0 224.64 0.0H214.56Q214.24 0.0 214.24 -0.32V-22.080000000000002Q214.24 -22.400000000000002 214.56 -22.400000000000002H224.64Q224.96 -22.400000000000002 224.96 -22.080000000000002V-20.064Q224.96 -19.744 224.64 -19.744Z" fill="#8A8078"/>
  </g>

  <!-- CTA -->
  <rect x="290" y="1500" width="500" height="110" rx="10" fill="#E07020"/>
  <g transform="translate(444.60, 1570.00)">
    <path d="M11.32 -0.52 8.88 -10.56Q8.8 -10.76 8.72 -10.76Q8.56 -10.76 8.56 -10.52V-0.6Q8.56 -0.32 8.4 -0.16Q8.24 0.0 7.96 0.0H1.6400000000000001Q1.36 0.0 1.2000000000000002 -0.16Q1.04 -0.32 1.04 -0.6V-27.400000000000002Q1.04 -27.68 1.2000000000000002 -27.84Q1.36 -28.0 1.6400000000000001 -28.0H10.64Q13.040000000000001 -28.0 14.900000000000002 -26.86Q16.76 -25.72 17.8 -23.7Q18.84 -21.68 18.84 -19.080000000000002Q18.84 -16.88 18.08 -15.14Q17.32 -13.4 15.88 -12.32Q15.72 -12.200000000000001 15.76 -12.0L19.0 -0.68Q19.04 -0.6 19.04 -0.48Q19.04 0.0 18.48 0.0H11.96Q11.44 0.0 11.32 -0.52ZM8.8 -21.56Q8.56 -21.56 8.56 -21.32V-16.72Q8.56 -16.48 8.8 -16.48H9.32Q10.200000000000001 -16.48 10.760000000000002 -17.14Q11.32 -17.8 11.32 -19.0Q11.32 -20.240000000000002 10.780000000000001 -20.9Q10.24 -21.56 9.32 -21.56Z M42.040000000000006 -21.56H34.400000000000006Q34.160000000000004 -21.56 34.160000000000004 -21.32V-17.48Q34.160000000000004 -17.240000000000002 34.400000000000006 -17.240000000000002H38.36Q38.64 -17.240000000000002 38.8 -17.080000000000002Q38.96 -16.92 38.96 -16.64V-11.4Q38.96 -11.120000000000001 38.8 -10.96Q38.64 -10.8 38.36 -10.8H34.400000000000006Q34.160000000000004 -10.8 34.160000000000004 -10.56V-6.68Q34.160000000000004 -6.44 34.400000000000006 -6.44H42.040000000000006Q42.32 -6.44 42.480000000000004 -6.28Q42.64 -6.12 42.64 -5.84V-0.6Q42.64 -0.32 42.480000000000004 -0.16Q42.32 0.0 42.040000000000006 0.0H27.240000000000002Q26.96 0.0 26.8 -0.16Q26.64 -0.32 26.64 -0.6V-27.400000000000002Q26.64 -27.68 26.8 -27.84Q26.96 -28.0 27.240000000000002 -28.0H42.040000000000006Q42.32 -28.0 42.480000000000004 -27.84Q42.64 -27.68 42.64 -27.400000000000002V-22.16Q42.64 -21.88 42.480000000000004 -21.72Q42.32 -21.56 42.040000000000006 -21.56Z M50.24 -7.2V-8.44Q50.24 -8.72 50.400000000000006 -8.88Q50.56 -9.040000000000001 50.839999999999996 -9.040000000000001H57.08Q57.36 -9.040000000000001 57.519999999999996 -8.88Q57.68 -8.72 57.68 -8.44V-7.5600000000000005Q57.68 -6.92 58.0 -6.52Q58.32 -6.12 58.8 -6.12Q59.28 -6.12 59.6 -6.48Q59.92 -6.84 59.92 -7.4Q59.92 -8.08 59.28 -8.74Q58.64 -9.4 56.6 -10.84Q54.6 -12.24 53.3 -13.4Q52.0 -14.56 51.04 -16.32Q50.08 -18.080000000000002 50.08 -20.36Q50.08 -22.72 51.14 -24.52Q52.2 -26.32 54.14 -27.32Q56.08 -28.32 58.6 -28.32Q61.16 -28.32 63.099999999999994 -27.32Q65.03999999999999 -26.32 66.1 -24.52Q67.16 -22.72 67.16 -20.36V-19.48Q67.16 -19.2 67.0 -19.04Q66.84 -18.88 66.56 -18.88H60.36Q60.08 -18.88 59.92 -19.04Q59.76 -19.2 59.76 -19.48V-20.52Q59.76 -21.12 59.44 -21.5Q59.12 -21.88 58.6 -21.88Q58.08 -21.88 57.78 -21.48Q57.480000000000004 -21.080000000000002 57.480000000000004 -20.400000000000002Q57.480000000000004 -19.6 58.120000000000005 -18.86Q58.76 -18.12 60.68 -16.72Q63.24 -14.84 64.54 -13.68Q65.84 -12.52 66.58 -11.059999999999999Q67.32 -9.6 67.32 -7.640000000000001Q67.32 -4.0 64.96 -1.84Q62.6 0.32 58.76 0.32Q56.2 0.32 54.28 -0.64Q52.36 -1.6 51.3 -3.3Q50.24 -5.0 50.24 -7.2Z M90.32 -21.56H82.67999999999999Q82.44 -21.56 82.44 -21.32V-17.48Q82.44 -17.240000000000002 82.67999999999999 -17.240000000000002H86.64Q86.92 -17.240000000000002 87.08 -17.080000000000002Q87.24 -16.92 87.24 -16.64V-11.4Q87.24 -11.120000000000001 87.08 -10.96Q86.92 -10.8 86.64 -10.8H82.67999999999999Q82.44 -10.8 82.44 -10.56V-6.68Q82.44 -6.44 82.67999999999999 -6.44H90.32Q90.6 -6.44 90.75999999999999 -6.28Q90.91999999999999 -6.12 90.91999999999999 -5.84V-0.6Q90.91999999999999 -0.32 90.75999999999999 -0.16Q90.6 0.0 90.32 0.0H75.52Q75.24 0.0 75.08 -0.16Q74.92 -0.32 74.92 -0.6V-27.400000000000002Q74.92 -27.68 75.08 -27.84Q75.24 -28.0 75.52 -28.0H90.32Q90.6 -28.0 90.75999999999999 -27.84Q90.91999999999999 -27.68 90.91999999999999 -27.400000000000002V-22.16Q90.91999999999999 -21.88 90.75999999999999 -21.72Q90.6 -21.56 90.32 -21.56Z M108.96000000000001 -0.52 106.52 -10.56Q106.44 -10.76 106.36 -10.76Q106.2 -10.76 106.2 -10.52V-0.6Q106.2 -0.32 106.03999999999999 -0.16Q105.88 0.0 105.6 0.0H99.28Q99.0 0.0 98.84 -0.16Q98.68 -0.32 98.68 -0.6V-27.400000000000002Q98.68 -27.68 98.84 -27.84Q99.0 -28.0 99.28 -28.0H108.28Q110.68 -28.0 112.54 -26.86Q114.4 -25.72 115.44 -23.7Q116.48 -21.68 116.48 -19.080000000000002Q116.48 -16.88 115.72 -15.14Q114.96000000000001 -13.4 113.52 -12.32Q113.36 -12.200000000000001 113.4 -12.0L116.64 -0.68Q116.68 -0.6 116.68 -0.48Q116.68 0.0 116.12 0.0H109.6Q109.08 0.0 108.96000000000001 -0.52ZM106.44 -21.56Q106.2 -21.56 106.2 -21.32V-16.72Q106.2 -16.48 106.44 -16.48H106.96000000000001Q107.84 -16.48 108.4 -17.14Q108.96000000000001 -17.8 108.96000000000001 -19.0Q108.96000000000001 -20.240000000000002 108.42 -20.9Q107.88 -21.56 106.96000000000001 -21.56Z M129.44 -0.52 123.84 -27.36V-27.52Q123.84 -28.0 124.4 -28.0H131.28Q131.88 -28.0 131.92000000000002 -27.44L133.72 -13.280000000000001Q133.72 -13.16 133.84 -13.16Q133.96 -13.16 133.96 -13.280000000000001L135.60000000000002 -27.44Q135.64000000000001 -28.0 136.24 -28.0H142.92000000000002Q143.60000000000002 -28.0 143.48000000000002 -27.36L137.8 -0.52Q137.68 0.0 137.12 0.0H130.12Q129.56 0.0 129.44 -0.52Z M166.52 -21.56H158.88000000000002Q158.64000000000001 -21.56 158.64000000000001 -21.32V-17.48Q158.64000000000001 -17.240000000000002 158.88000000000002 -17.240000000000002H162.84Q163.12 -17.240000000000002 163.28 -17.080000000000002Q163.44 -16.92 163.44 -16.64V-11.4Q163.44 -11.120000000000001 163.28 -10.96Q163.12 -10.8 162.84 -10.8H158.88000000000002Q158.64000000000001 -10.8 158.64000000000001 -10.56V-6.68Q158.64000000000001 -6.44 158.88000000000002 -6.44H166.52Q166.8 -6.44 166.96 -6.28Q167.12 -6.12 167.12 -5.84V-0.6Q167.12 -0.32 166.96 -0.16Q166.8 0.0 166.52 0.0H151.72Q151.44000000000003 0.0 151.28000000000003 -0.16Q151.12 -0.32 151.12 -0.6V-27.400000000000002Q151.12 -27.68 151.28000000000003 -27.84Q151.44000000000003 -28.0 151.72 -28.0H166.52Q166.8 -28.0 166.96 -27.84Q167.12 -27.68 167.12 -27.400000000000002V-22.16Q167.12 -21.88 166.96 -21.72Q166.8 -21.56 166.52 -21.56Z M174.32 -0.6V-6.04Q174.32 -6.4 174.52 -6.8L182.16 -21.28Q182.28 -21.56 182.0 -21.56H174.92000000000002Q174.64000000000001 -21.56 174.48000000000002 -21.72Q174.32 -21.88 174.32 -22.16V-27.400000000000002Q174.32 -27.68 174.48000000000002 -27.84Q174.64000000000001 -28.0 174.92000000000002 -28.0H189.64000000000001Q189.92000000000002 -28.0 190.08 -27.84Q190.24 -27.68 190.24 -27.400000000000002V-21.96Q190.24 -21.6 190.04 -21.2L182.32 -6.72Q182.2 -6.44 182.48000000000002 -6.44H189.64000000000001Q189.92000000000002 -6.44 190.08 -6.28Q190.24 -6.12 190.24 -5.84V-0.6Q190.24 -0.32 190.08 -0.16Q189.92000000000002 0.0 189.64000000000001 0.0H174.92000000000002Q174.64000000000001 0.0 174.48000000000002 -0.16Q174.32 -0.32 174.32 -0.6Z" fill="#0E0B08"/>
  </g>

  <g transform="translate(427.39, 1720.00)">
    <path d="M1.344 -4.676V-14.924Q1.344 -17.136 2.73 -18.48Q4.116 -19.824 6.384 -19.824Q8.652000000000001 -19.824 10.052 -18.48Q11.452 -17.136 11.452 -14.896V-13.72Q11.452 -13.44 11.172 -13.44H9.044Q8.764 -13.44 8.764 -13.72V-14.952Q8.764 -16.1 8.106 -16.8Q7.448 -17.5 6.384 -17.5Q5.32 -17.5 4.662000000000001 -16.8Q4.0040000000000004 -16.1 4.0040000000000004 -14.952V-4.648Q4.0040000000000004 -3.5 4.662000000000001 -2.8Q5.32 -2.1 6.384 -2.1Q7.448 -2.1 8.106 -2.8Q8.764 -3.5 8.764 -4.648V-7.728Q8.764 -7.84 8.652000000000001 -7.84H6.524Q6.244 -7.84 6.244 -8.120000000000001V-9.856Q6.244 -10.136000000000001 6.524 -10.136000000000001H11.172Q11.452 -10.136000000000001 11.452 -9.856V-4.676Q11.452 -2.464 10.052 -1.1199999999999999Q8.652000000000001 0.224 6.384 0.224Q4.116 0.224 2.73 -1.1199999999999999Q1.344 -2.464 1.344 -4.676Z M27.896 -0.252 27.28 -3.472Q27.28 -3.528 27.238 -3.556Q27.195999999999998 -3.584 27.14 -3.584H22.576Q22.52 -3.584 22.478 -3.556Q22.436 -3.528 22.436 -3.472L21.848 -0.252Q21.82 0.0 21.54 0.0H19.412Q19.272 0.0 19.201999999999998 -0.084Q19.131999999999998 -0.168 19.16 -0.308L23.332 -19.348Q23.387999999999998 -19.6 23.64 -19.6H26.131999999999998Q26.412 -19.6 26.439999999999998 -19.348L30.64 -0.308V-0.252Q30.64 0.0 30.387999999999998 0.0H28.204Q27.951999999999998 0.0 27.896 -0.252ZM22.996 -5.712H26.72Q26.804000000000002 -5.712 26.804000000000002 -5.824L24.9 -15.764000000000001Q24.872 -15.82 24.844 -15.82Q24.816 -15.82 24.788 -15.764000000000001L22.912 -5.824Q22.912 -5.712 22.996 -5.712Z M47.784 -19.6H49.912Q50.192 -19.6 50.192 -19.32V-0.28Q50.192 0.0 49.912 0.0H47.784Q47.504 0.0 47.504 -0.28V-14.168000000000001Q47.504 -14.252 47.462 -14.252Q47.42 -14.252 47.364 -14.196L44.676 -9.184000000000001Q44.592 -8.988 44.424 -8.988Q44.256 -8.988 44.172 -9.184000000000001L41.512 -14.168000000000001Q41.455999999999996 -14.224 41.414 -14.224Q41.372 -14.224 41.372 -14.14V-0.28Q41.372 0.0 41.092 0.0H38.964Q38.684 0.0 38.684 -0.28V-19.32Q38.684 -19.6 38.964 -19.6H41.092Q41.288 -19.6 41.428 -19.404L44.367999999999995 -14.14Q44.396 -14.112 44.452 -14.112Q44.507999999999996 -14.112 44.536 -14.14L47.448 -19.404Q47.56 -19.6 47.784 -19.6Z M68.67999999999999 -17.276H62.379999999999995Q62.267999999999994 -17.276 62.267999999999994 -17.164V-11.088000000000001Q62.267999999999994 -10.976 62.379999999999995 -10.976H66.244Q66.524 -10.976 66.524 -10.696V-8.932Q66.524 -8.652000000000001 66.244 -8.652000000000001H62.379999999999995Q62.267999999999994 -8.652000000000001 62.267999999999994 -8.540000000000001V-2.436Q62.267999999999994 -2.324 62.379999999999995 -2.324H68.67999999999999Q68.96 -2.324 68.96 -2.044V-0.28Q68.96 0.0 68.67999999999999 0.0H59.85999999999999Q59.57999999999999 0.0 59.57999999999999 -0.28V-19.32Q59.57999999999999 -19.6 59.85999999999999 -19.6H68.67999999999999Q68.96 -19.6 68.96 -19.32V-17.556Q68.96 -17.276 68.67999999999999 -17.276Z M77.676 -0.28V-19.32Q77.676 -19.6 77.956 -19.6H82.548Q84.872 -19.6 86.244 -18.172Q87.616 -16.744 87.616 -14.308V-5.292Q87.616 -2.856 86.244 -1.428Q84.872 0.0 82.548 0.0H77.956Q77.676 0.0 77.676 -0.28ZM80.476 -2.324 82.52 -2.352Q83.584 -2.352 84.22800000000001 -3.178Q84.872 -4.0040000000000004 84.9 -5.432V-14.168000000000001Q84.9 -15.596 84.256 -16.436Q83.612 -17.276 82.52 -17.276H80.476Q80.364 -17.276 80.364 -17.164V-2.436Q80.364 -2.324 80.476 -2.324Z M96.416 -4.9V-14.672Q96.416 -16.996 97.816 -18.41Q99.21600000000001 -19.824 101.512 -19.824Q103.836 -19.824 105.25 -18.41Q106.664 -16.996 106.664 -14.672V-4.9Q106.664 -2.576 105.25 -1.176Q103.836 0.224 101.512 0.224Q99.21600000000001 0.224 97.816 -1.176Q96.416 -2.576 96.416 -4.9ZM103.976 -4.788V-14.812000000000001Q103.976 -16.016000000000002 103.304 -16.758000000000003Q102.632 -17.5 101.512 -17.5Q100.42 -17.5 99.762 -16.758000000000003Q99.104 -16.016000000000002 99.104 -14.812000000000001V-4.788Q99.104 -3.584 99.762 -2.842Q100.42 -2.1 101.512 -2.1Q102.632 -2.1 103.304 -2.842Q103.976 -3.584 103.976 -4.788Z M115.352 -4.9V-14.672Q115.352 -16.996 116.75200000000001 -18.41Q118.15200000000002 -19.824 120.44800000000001 -19.824Q122.772 -19.824 124.186 -18.41Q125.60000000000001 -16.996 125.60000000000001 -14.672V-4.9Q125.60000000000001 -2.576 124.186 -1.176Q122.772 0.224 120.44800000000001 0.224Q118.15200000000002 0.224 116.75200000000001 -1.176Q115.352 -2.576 115.352 -4.9ZM122.912 -4.788V-14.812000000000001Q122.912 -16.016000000000002 122.24000000000001 -16.758000000000003Q121.56800000000001 -17.5 120.44800000000001 -17.5Q119.35600000000001 -17.5 118.69800000000001 -16.758000000000003Q118.04 -16.016000000000002 118.04 -14.812000000000001V-4.788Q118.04 -3.584 118.69800000000001 -2.842Q119.35600000000001 -2.1 120.44800000000001 -2.1Q121.56800000000001 -2.1 122.24000000000001 -2.842Q122.912 -3.584 122.912 -4.788Z M142.12800000000001 -0.224 139.55200000000002 -8.568Q139.52400000000003 -8.652000000000001 139.44000000000003 -8.652000000000001H137.48000000000002Q137.36800000000002 -8.652000000000001 137.36800000000002 -8.540000000000001V-0.28Q137.36800000000002 0.0 137.08800000000002 0.0H134.96Q134.68 0.0 134.68 -0.28V-19.32Q134.68 -19.6 134.96 -19.6H139.972Q141.4 -19.6 142.49200000000002 -18.9Q143.584 -18.2 144.186 -16.926000000000002Q144.788 -15.652000000000001 144.788 -14.028Q144.788 -12.264000000000001 144.06 -10.962Q143.33200000000002 -9.66 142.072 -9.072000000000001Q141.98800000000003 -8.988 142.01600000000002 -8.904L144.872 -0.308L144.9 -0.196Q144.9 0.0 144.64800000000002 0.0H142.46400000000003Q142.21200000000002 0.0 142.12800000000001 -0.224ZM137.36800000000002 -17.164V-10.892Q137.36800000000002 -10.78 137.48000000000002 -10.78H139.55200000000002Q140.70000000000002 -10.78 141.40000000000003 -11.661999999999999Q142.10000000000002 -12.544 142.10000000000002 -14.0Q142.10000000000002 -15.512 141.40000000000003 -16.394Q140.70000000000002 -17.276 139.55200000000002 -17.276H137.48000000000002Q137.36800000000002 -17.276 137.36800000000002 -17.164Z M163.41600000000003 -7.364V-5.488Q163.41600000000003 -5.208 163.13600000000002 -5.208H162.24Q162.12800000000001 -5.208 162.12800000000001 -5.096V-0.28Q162.12800000000001 0.0 161.848 0.0H159.72000000000003Q159.44000000000003 0.0 159.44000000000003 -0.28V-5.096Q159.44000000000003 -5.208 159.328 -5.208H152.44000000000003Q152.16000000000003 -5.208 152.16000000000003 -5.488V-7.056Q152.16000000000003 -7.168 152.216 -7.392L156.24800000000002 -19.376Q156.33200000000002 -19.6 156.584 -19.6H158.88000000000002Q159.18800000000002 -19.6 159.104 -19.292L155.29600000000002 -7.784Q155.268 -7.728 155.31 -7.686Q155.352 -7.644 155.40800000000002 -7.644H159.328Q159.44000000000003 -7.644 159.44000000000003 -7.756V-11.592Q159.44000000000003 -11.872 159.72000000000003 -11.872H161.848Q162.12800000000001 -11.872 162.12800000000001 -11.592V-7.756Q162.12800000000001 -7.644 162.24 -7.644H163.13600000000002Q163.41600000000003 -7.644 163.41600000000003 -7.364Z M173.448 -19.6H175.68800000000002Q175.96800000000002 -19.6 175.96800000000002 -19.32V-0.28Q175.96800000000002 0.0 175.68800000000002 0.0H173.56Q173.28 0.0 173.28 -0.28V-16.66Q173.28 -16.716 173.238 -16.758000000000003Q173.196 -16.8 173.168 -16.772000000000002L170.67600000000002 -16.128L170.56400000000002 -16.1Q170.39600000000002 -16.1 170.34 -16.352L170.228 -17.92Q170.228 -18.172 170.424 -18.256L173.112 -19.516000000000002Q173.28 -19.6 173.448 -19.6Z M184.43200000000002 -1.791999999999998Q184.43200000000002 -2.5760000000000005 184.93600000000004 -3.08Q185.44000000000003 -3.5839999999999996 186.22400000000002 -3.5839999999999996Q187.00800000000004 -3.5839999999999996 187.51200000000003 -3.08Q188.01600000000002 -2.5760000000000005 188.01600000000002 -1.791999999999998Q188.01600000000002 -1.0079999999999991 187.51200000000003 -0.5039999999999996Q187.00800000000004 0.0 186.22400000000002 0.0Q185.44000000000003 0.0 184.93600000000004 -0.5039999999999996Q184.43200000000002 -1.0079999999999991 184.43200000000002 -1.791999999999998Z M205.86 -17.276H199.58800000000002Q199.47600000000003 -17.276 199.47600000000003 -17.164V-11.088000000000001Q199.47600000000003 -10.976 199.58800000000002 -10.976H203.42400000000004Q203.704 -10.976 203.704 -10.696V-8.932Q203.704 -8.652000000000001 203.42400000000004 -8.652000000000001H199.58800000000002Q199.47600000000003 -8.652000000000001 199.47600000000003 -8.540000000000001V-0.28Q199.47600000000003 0.0 199.19600000000003 0.0H197.068Q196.788 0.0 196.788 -0.28V-19.32Q196.788 -19.6 197.068 -19.6H205.86Q206.14000000000001 -19.6 206.14000000000001 -19.32V-17.556Q206.14000000000001 -17.276 205.86 -17.276Z M221.716 -0.224 219.14000000000001 -8.568Q219.11200000000002 -8.652000000000001 219.02800000000002 -8.652000000000001H217.068Q216.95600000000002 -8.652000000000001 216.95600000000002 -8.540000000000001V-0.28Q216.95600000000002 0.0 216.67600000000002 0.0H214.548Q214.268 0.0 214.268 -0.28V-19.32Q214.268 -19.6 214.548 -19.6H219.56Q220.988 -19.6 222.08 -18.9Q223.17200000000003 -18.2 223.774 -16.926000000000002Q224.376 -15.652000000000001 224.376 -14.028Q224.376 -12.264000000000001 223.64800000000002 -10.962Q222.92000000000002 -9.66 221.66000000000003 -9.072000000000001Q221.57600000000002 -8.988 221.604 -8.904L224.46 -0.308L224.488 -0.196Q224.488 0.0 224.23600000000002 0.0H222.05200000000002Q221.8 0.0 221.716 -0.224ZM216.95600000000002 -17.164V-10.892Q216.95600000000002 -10.78 217.068 -10.78H219.14000000000001Q220.288 -10.78 220.988 -11.661999999999999Q221.68800000000002 -12.544 221.68800000000002 -14.0Q221.68800000000002 -15.512 220.988 -16.394Q220.288 -17.276 219.14000000000001 -17.276H217.068Q216.95600000000002 -17.276 216.95600000000002 -17.164Z" fill="#C8C2B8"/>
  </g>

</svg>
