<?xml version="1.0" encoding="UTF-8"?>
<svg xmlns="http://www.w3.org/2000/svg" viewBox="0 0 1584 396" width="1584" height="396" preserveAspectRatio="xMidYMid meet">
  <title>GAMEDOOR.41 LinkedIn Banner</title>
  <defs>
    <linearGradient id="liBg" x1="0%" y1="0%" x2="100%" y2="100%">
      <stop offset="0%" stop-color="#0C0800"/>
      <stop offset="100%" stop-color="#1a0d08"/>
    </linearGradient>
  </defs>
  <rect width="1584" height="396" fill="url(#liBg)"/>

  <g transform="translate(1161.15, 446.00)" opacity="0.04">
    <path d="M234.9 -144.9V-81.9Q234.9 -78.75 233.10000000000002 -76.95Q231.3 -75.15 228.15 -75.15H214.65Q211.95000000000002 -75.15 211.95000000000002 -72.45V-6.75Q211.95000000000002 -3.6 210.15 -1.8Q208.35 0.0 205.20000000000002 0.0H134.1Q130.95000000000002 0.0 129.15 -1.8Q127.35000000000001 -3.6 127.35000000000001 -6.75V-72.45Q127.35000000000001 -75.15 124.65 -75.15H10.35Q7.2 -75.15 5.4 -76.95Q3.6 -78.75 3.6 -81.9V-131.85Q3.6 -135.9 4.95 -139.95000000000002L59.4 -309.6Q61.2 -315.0 67.05 -315.0H143.1Q146.70000000000002 -315.0 148.275 -312.975Q149.85 -310.95 148.95000000000002 -307.35L102.60000000000001 -154.8Q102.15 -151.65 104.85000000000001 -151.65H124.65Q127.35000000000001 -151.65 127.35000000000001 -154.35V-184.95000000000002Q127.35000000000001 -188.1 129.15 -189.9Q130.95000000000002 -191.70000000000002 134.1 -191.70000000000002H205.20000000000002Q208.35 -191.70000000000002 210.15 -189.9Q211.95000000000002 -188.1 211.95000000000002 -184.95000000000002V-154.35Q211.95000000000002 -151.65 214.65 -151.65H228.15Q231.3 -151.65 233.10000000000002 -149.85000000000002Q234.9 -148.05 234.9 -144.9Z M273.3 -315.0H347.1Q350.25 -315.0 352.05 -313.20000000000005Q353.85 -311.40000000000003 353.85 -308.25V-6.75Q353.85 -3.6 352.05 -1.8Q350.25 0.0 347.1 0.0H276.0Q272.85 0.0 271.05 -1.8Q269.25 -3.6 269.25 -6.75V-235.35Q269.25 -238.05 266.55 -238.05H236.85Q233.7 -238.05 231.89999999999998 -239.85000000000002Q230.1 -241.65 230.1 -244.8V-297.0Q230.1 -302.85 235.5 -304.65000000000003L265.2 -313.65000000000003Q269.25 -315.0 273.3 -315.0Z" fill="#E07020"/>
  </g>

  <g transform="translate(80.00, 120.00)">
    <path d="M8.514 -13.574H3.5639999999999996Q3.476 -13.574 3.476 -13.485999999999999V-8.712Q3.476 -8.623999999999999 3.5639999999999996 -8.623999999999999H6.6Q6.819999999999999 -8.623999999999999 6.819999999999999 -8.404V-7.018Q6.819999999999999 -6.798 6.6 -6.798H3.5639999999999996Q3.476 -6.798 3.476 -6.71V-1.914Q3.476 -1.8259999999999998 3.5639999999999996 -1.8259999999999998H8.514Q8.734 -1.8259999999999998 8.734 -1.6059999999999999V-0.21999999999999997Q8.734 0.0 8.514 0.0H1.5839999999999999Q1.3639999999999999 0.0 1.3639999999999999 -0.21999999999999997V-15.18Q1.3639999999999999 -15.399999999999999 1.5839999999999999 -15.399999999999999H8.514Q8.734 -15.399999999999999 8.734 -15.18V-13.793999999999999Q8.734 -13.574 8.514 -13.574Z M20.339999999999996 -3.7619999999999996V-4.334Q20.339999999999996 -4.553999999999999 20.56 -4.553999999999999H22.188Q22.407999999999998 -4.553999999999999 22.407999999999998 -4.334V-3.872Q22.407999999999998 -2.86 22.913999999999998 -2.255Q23.419999999999998 -1.65 24.211999999999996 -1.65Q25.003999999999998 -1.65 25.520999999999997 -2.2329999999999997Q26.037999999999997 -2.816 26.037999999999997 -3.7619999999999996Q26.037999999999997 -4.3999999999999995 25.762999999999998 -4.8839999999999995Q25.488 -5.367999999999999 25.037 -5.753Q24.586 -6.138 23.573999999999998 -6.885999999999999Q22.451999999999998 -7.7219999999999995 21.814 -8.315999999999999Q21.176 -8.91 20.735999999999997 -9.745999999999999Q20.296 -10.581999999999999 20.296 -11.703999999999999Q20.296 -13.485999999999999 21.351999999999997 -14.530999999999999Q22.407999999999998 -15.575999999999999 24.101999999999997 -15.575999999999999Q25.862 -15.575999999999999 26.928999999999995 -14.453999999999999Q27.995999999999995 -13.331999999999999 27.995999999999995 -11.505999999999998V-10.956Q27.995999999999995 -10.735999999999999 27.775999999999996 -10.735999999999999H26.147999999999996Q25.927999999999997 -10.735999999999999 25.927999999999997 -10.956V-11.549999999999999Q25.927999999999997 -12.54 25.421999999999997 -13.145Q24.915999999999997 -13.75 24.101999999999997 -13.75Q23.331999999999997 -13.75 22.848 -13.210999999999999Q22.363999999999997 -12.671999999999999 22.363999999999997 -11.703999999999999Q22.363999999999997 -10.824 22.848 -10.219Q23.331999999999997 -9.613999999999999 24.717999999999996 -8.602Q26.037999999999997 -7.611999999999999 26.708999999999996 -6.9959999999999996Q27.379999999999995 -6.38 27.742999999999995 -5.643Q28.105999999999998 -4.906 28.105999999999998 -3.8939999999999997Q28.105999999999998 -2.046 27.028 -0.9349999999999999Q25.949999999999996 0.176 24.211999999999996 0.176Q22.473999999999997 0.176 21.406999999999996 -0.9129999999999999Q20.339999999999996 -2.002 20.339999999999996 -3.7619999999999996Z M39.931999999999995 -3.8059999999999996V-11.616Q39.931999999999995 -13.42 41.021 -14.498Q42.11 -15.575999999999999 43.891999999999996 -15.575999999999999Q45.696 -15.575999999999999 46.785 -14.498Q47.873999999999995 -13.42 47.873999999999995 -11.616V-11.264Q47.873999999999995 -11.043999999999999 47.653999999999996 -11.043999999999999L45.982 -10.956Q45.762 -10.956 45.762 -11.176V-11.748Q45.762 -12.649999999999999 45.245 -13.2Q44.727999999999994 -13.75 43.891999999999996 -13.75Q43.056 -13.75 42.55 -13.2Q42.044 -12.649999999999999 42.044 -11.748V-3.6519999999999997Q42.044 -2.75 42.55 -2.2Q43.056 -1.65 43.891999999999996 -1.65Q44.727999999999994 -1.65 45.245 -2.2Q45.762 -2.75 45.762 -3.6519999999999997V-4.224Q45.762 -4.444 45.982 -4.444L47.653999999999996 -4.356Q47.873999999999995 -4.356 47.873999999999995 -4.136V-3.8059999999999996Q47.873999999999995 -2.002 46.785 -0.9129999999999999Q45.696 0.176 43.891999999999996 0.176Q42.11 0.176 41.021 -0.9129999999999999Q39.931999999999995 -2.002 39.931999999999995 -3.8059999999999996Z M65.97 -0.19799999999999998 65.48599999999999 -2.7279999999999998Q65.48599999999999 -2.772 65.45299999999999 -2.7939999999999996Q65.41999999999999 -2.816 65.37599999999999 -2.816H61.78999999999999Q61.745999999999995 -2.816 61.712999999999994 -2.7939999999999996Q61.67999999999999 -2.772 61.67999999999999 -2.7279999999999998L61.21799999999999 -0.19799999999999998Q61.19599999999999 0.0 60.97599999999999 0.0H59.303999999999995Q59.193999999999996 0.0 59.138999999999996 -0.066Q59.083999999999996 -0.132 59.105999999999995 -0.242L62.38399999999999 -15.202Q62.42799999999999 -15.399999999999999 62.62599999999999 -15.399999999999999H64.58399999999999Q64.80399999999999 -15.399999999999999 64.826 -15.202L68.12599999999999 -0.242V-0.19799999999999998Q68.12599999999999 0.0 67.928 0.0H66.21199999999999Q66.014 0.0 65.97 -0.19799999999999998ZM62.11999999999999 -4.4879999999999995H65.04599999999999Q65.112 -4.4879999999999995 65.112 -4.576L63.61599999999999 -12.386Q63.593999999999994 -12.43 63.57199999999999 -12.43Q63.54999999999999 -12.43 63.52799999999999 -12.386L62.053999999999995 -4.576Q62.053999999999995 -4.4879999999999995 62.11999999999999 -4.4879999999999995Z M87.696 -11.0Q87.696 -9.064 86.684 -7.8759999999999994Q85.672 -6.688 84.02199999999999 -6.688H81.954Q81.86599999999999 -6.688 81.86599999999999 -6.6V-0.21999999999999997Q81.86599999999999 0.0 81.64599999999999 0.0H79.97399999999999Q79.75399999999999 0.0 79.75399999999999 -0.21999999999999997V-15.202Q79.75399999999999 -15.421999999999999 79.97399999999999 -15.421999999999999H83.91199999999999Q85.606 -15.421999999999999 86.651 -14.200999999999999Q87.696 -12.979999999999999 87.696 -11.0ZM85.58399999999999 -10.956Q85.58399999999999 -12.165999999999999 85.03399999999999 -12.881Q84.484 -13.596 83.582 -13.596H81.954Q81.86599999999999 -13.596 81.86599999999999 -13.508V-8.469999999999999Q81.86599999999999 -8.382 81.954 -8.382H83.582Q84.484 -8.382 85.03399999999999 -9.075Q85.58399999999999 -9.767999999999999 85.58399999999999 -10.956Z M106.84799999999998 -13.574H101.89799999999998Q101.80999999999999 -13.574 101.80999999999999 -13.485999999999999V-8.712Q101.80999999999999 -8.623999999999999 101.89799999999998 -8.623999999999999H104.93399999999998Q105.15399999999998 -8.623999999999999 105.15399999999998 -8.404V-7.018Q105.15399999999998 -6.798 104.93399999999998 -6.798H101.89799999999998Q101.80999999999999 -6.798 101.80999999999999 -6.71V-1.914Q101.80999999999999 -1.8259999999999998 101.89799999999998 -1.8259999999999998H106.84799999999998Q107.06799999999998 -1.8259999999999998 107.06799999999998 -1.6059999999999999V-0.21999999999999997Q107.06799999999998 0.0 106.84799999999998 0.0H99.91799999999999Q99.698 0.0 99.698 -0.21999999999999997V-15.18Q99.698 -15.399999999999999 99.91799999999999 -15.399999999999999H106.84799999999998Q107.06799999999998 -15.399999999999999 107.06799999999998 -15.18V-13.793999999999999Q107.06799999999998 -13.574 106.84799999999998 -13.574Z M147.496 -6.226000000000001Q147.496 -6.8420000000000005 147.892 -7.238Q148.288 -7.634 148.90400000000002 -7.634Q149.52 -7.634 149.916 -7.238Q150.312 -6.8420000000000005 150.312 -6.226000000000001Q150.312 -5.610000000000001 149.916 -5.214Q149.52 -4.818 148.90400000000002 -4.818Q148.288 -4.818 147.892 -5.214Q147.496 -5.610000000000001 147.496 -6.226000000000001Z M198.81400000000002 -11.44V-3.96Q198.81400000000002 -2.4419999999999997 198.06600000000003 -1.3749999999999998Q197.31800000000004 -0.308 196.04200000000003 0.022Q195.97600000000003 0.066 195.97600000000003 0.132V2.178Q195.97600000000003 2.3979999999999997 195.75600000000003 2.3979999999999997H194.06200000000004Q193.84200000000004 2.3979999999999997 193.84200000000004 2.178V0.132Q193.84200000000004 0.066 193.77600000000004 0.022Q192.50000000000003 -0.32999999999999996 191.76300000000003 -1.386Q191.02600000000004 -2.4419999999999997 191.02600000000004 -3.96V-11.44Q191.02600000000004 -13.287999999999998 192.10400000000004 -14.431999999999999Q193.18200000000002 -15.575999999999999 194.92000000000002 -15.575999999999999Q196.65800000000002 -15.575999999999999 197.73600000000002 -14.431999999999999Q198.81400000000002 -13.287999999999998 198.81400000000002 -11.44ZM196.70200000000003 -11.66Q196.70200000000003 -12.584 196.20700000000002 -13.167Q195.71200000000002 -13.75 194.92000000000002 -13.75Q194.12800000000001 -13.75 193.63300000000004 -13.167Q193.13800000000003 -12.584 193.13800000000003 -11.66V-3.7399999999999998Q193.13800000000003 -2.816 193.63300000000004 -2.2329999999999997Q194.12800000000001 -1.65 194.92000000000002 -1.65Q195.71200000000002 -1.65 196.20700000000002 -2.2329999999999997Q196.70200000000003 -2.816 196.70200000000003 -3.7399999999999998Z M211.12400000000002 -4.18V-15.18Q211.12400000000002 -15.399999999999999 211.34400000000002 -15.399999999999999H213.01600000000002Q213.23600000000005 -15.399999999999999 213.23600000000005 -15.18V-3.96Q213.23600000000005 -2.9259999999999997 213.75300000000004 -2.288Q214.27000000000004 -1.65 215.10600000000002 -1.65Q215.96400000000003 -1.65 216.48100000000002 -2.288Q216.99800000000002 -2.9259999999999997 216.99800000000002 -3.96V-15.18Q216.99800000000002 -15.399999999999999 217.21800000000005 -15.399999999999999H218.89000000000004Q219.11000000000004 -15.399999999999999 219.11000000000004 -15.18V-4.18Q219.11000000000004 -2.222 218.01000000000005 -1.023Q216.91000000000003 0.176 215.10600000000002 0.176Q213.30200000000002 0.176 212.21300000000002 -1.023Q211.12400000000002 -2.222 211.12400000000002 -4.18Z M231.72800000000004 -0.21999999999999997V-15.18Q231.72800000000004 -15.399999999999999 231.94800000000004 -15.399999999999999H233.62000000000003Q233.84000000000003 -15.399999999999999 233.84000000000003 -15.18V-0.21999999999999997Q233.84000000000003 0.0 233.62000000000003 0.0H231.94800000000004Q231.72800000000004 0.0 231.72800000000004 -0.21999999999999997Z M245.84200000000004 -0.21999999999999997V-1.694Q245.84200000000004 -1.8039999999999998 245.90800000000004 -1.958L251.01200000000003 -13.463999999999999Q251.03400000000005 -13.508 251.01200000000006 -13.541Q250.99000000000004 -13.574 250.94600000000003 -13.574H246.06200000000004Q245.84200000000004 -13.574 245.84200000000004 -13.793999999999999V-15.18Q245.84200000000004 -15.399999999999999 246.06200000000004 -15.399999999999999H253.08000000000004Q253.30000000000004 -15.399999999999999 253.30000000000004 -15.18V-13.706Q253.30000000000004 -13.617999999999999 253.23400000000004 -13.441999999999998L248.10800000000003 -1.936Q248.08600000000004 -1.892 248.10800000000003 -1.859Q248.13000000000002 -1.8259999999999998 248.17400000000004 -1.8259999999999998H253.08000000000004Q253.30000000000004 -1.8259999999999998 253.30000000000004 -1.6059999999999999V-0.21999999999999997Q253.30000000000004 0.0 253.08000000000004 0.0H246.06200000000004Q245.84200000000004 0.0 245.84200000000004 -0.21999999999999997Z M293.68399999999997 -6.226000000000001Q293.68399999999997 -6.8420000000000005 294.0799999999999 -7.238Q294.47599999999994 -7.634 295.0919999999999 -7.634Q295.70799999999997 -7.634 296.1039999999999 -7.238Q296.49999999999994 -6.8420000000000005 296.49999999999994 -6.226000000000001Q296.49999999999994 -5.610000000000001 296.1039999999999 -5.214Q295.70799999999997 -4.818 295.0919999999999 -4.818Q294.47599999999994 -4.818 294.0799999999999 -5.214Q293.68399999999997 -5.610000000000001 293.68399999999997 -6.226000000000001Z M343.3079999999999 -0.19799999999999998 342.8239999999999 -2.7279999999999998Q342.8239999999999 -2.772 342.79099999999994 -2.7939999999999996Q342.7579999999999 -2.816 342.7139999999999 -2.816H339.12799999999993Q339.0839999999999 -2.816 339.05099999999993 -2.7939999999999996Q339.0179999999999 -2.772 339.0179999999999 -2.7279999999999998L338.5559999999999 -0.19799999999999998Q338.5339999999999 0.0 338.3139999999999 0.0H336.6419999999999Q336.5319999999999 0.0 336.4769999999999 -0.066Q336.4219999999999 -0.132 336.4439999999999 -0.242L339.7219999999999 -15.202Q339.7659999999999 -15.399999999999999 339.9639999999999 -15.399999999999999H341.9219999999999Q342.1419999999999 -15.399999999999999 342.1639999999999 -15.202L345.4639999999999 -0.242V-0.19799999999999998Q345.4639999999999 0.0 345.2659999999999 0.0H343.5499999999999Q343.3519999999999 0.0 343.3079999999999 -0.19799999999999998ZM339.4579999999999 -4.4879999999999995H342.3839999999999Q342.4499999999999 -4.4879999999999995 342.4499999999999 -4.576L340.9539999999999 -12.386Q340.9319999999999 -12.43 340.9099999999999 -12.43Q340.8879999999999 -12.43 340.86599999999993 -12.386L339.3919999999999 -4.576Q339.3919999999999 -4.4879999999999995 339.4579999999999 -4.4879999999999995Z M356.80599999999987 -3.8059999999999996V-11.616Q356.80599999999987 -13.42 357.89499999999987 -14.498Q358.98399999999987 -15.575999999999999 360.7659999999999 -15.575999999999999Q362.5699999999999 -15.575999999999999 363.6589999999999 -14.498Q364.7479999999999 -13.42 364.7479999999999 -11.616V-11.264Q364.7479999999999 -11.043999999999999 364.5279999999999 -11.043999999999999L362.8559999999999 -10.956Q362.6359999999999 -10.956 362.6359999999999 -11.176V-11.748Q362.6359999999999 -12.649999999999999 362.1189999999999 -13.2Q361.60199999999986 -13.75 360.7659999999999 -13.75Q359.9299999999999 -13.75 359.42399999999986 -13.2Q358.9179999999999 -12.649999999999999 358.9179999999999 -11.748V-3.6519999999999997Q358.9179999999999 -2.75 359.42399999999986 -2.2Q359.9299999999999 -1.65 360.7659999999999 -1.65Q361.60199999999986 -1.65 362.1189999999999 -2.2Q362.6359999999999 -2.75 362.6359999999999 -3.6519999999999997V-4.224Q362.6359999999999 -4.444 362.8559999999999 -4.444L364.5279999999999 -4.356Q364.7479999999999 -4.356 364.7479999999999 -4.136V-3.8059999999999996Q364.7479999999999 -2.002 363.6589999999999 -0.9129999999999999Q362.5699999999999 0.176 360.7659999999999 0.176Q358.98399999999987 0.176 357.89499999999987 -0.9129999999999999Q356.80599999999987 -2.002 356.80599999999987 -3.8059999999999996Z M384.6919999999999 -15.18V-13.793999999999999Q384.6919999999999 -13.574 384.4719999999999 -13.574H381.5899999999999Q381.5019999999999 -13.574 381.5019999999999 -13.485999999999999V-0.21999999999999997Q381.5019999999999 0.0 381.2819999999999 0.0H379.6099999999999Q379.38999999999993 0.0 379.38999999999993 -0.21999999999999997V-13.485999999999999Q379.38999999999993 -13.574 379.3019999999999 -13.574H376.5739999999999Q376.3539999999999 -13.574 376.3539999999999 -13.793999999999999V-15.18Q376.3539999999999 -15.399999999999999 376.5739999999999 -15.399999999999999H384.4719999999999Q384.6919999999999 -15.399999999999999 384.6919999999999 -15.18Z M396.7159999999999 -0.21999999999999997V-15.18Q396.7159999999999 -15.399999999999999 396.9359999999999 -15.399999999999999H398.6079999999999Q398.8279999999999 -15.399999999999999 398.8279999999999 -15.18V-0.21999999999999997Q398.8279999999999 0.0 398.6079999999999 0.0H396.9359999999999Q396.7159999999999 0.0 396.7159999999999 -0.21999999999999997Z M411.2479999999999 -3.8499999999999996V-11.527999999999999Q411.2479999999999 -13.354 412.34799999999984 -14.465Q413.44799999999987 -15.575999999999999 415.2519999999999 -15.575999999999999Q417.0779999999999 -15.575999999999999 418.1889999999999 -14.465Q419.2999999999999 -13.354 419.2999999999999 -11.527999999999999V-3.8499999999999996Q419.2999999999999 -2.024 418.1889999999999 -0.924Q417.0779999999999 0.176 415.2519999999999 0.176Q413.44799999999987 0.176 412.34799999999984 -0.924Q411.2479999999999 -2.024 411.2479999999999 -3.8499999999999996ZM417.1879999999999 -3.7619999999999996V-11.638Q417.1879999999999 -12.584 416.65999999999985 -13.167Q416.1319999999999 -13.75 415.2519999999999 -13.75Q414.3939999999999 -13.75 413.8769999999999 -13.167Q413.3599999999999 -12.584 413.3599999999999 -11.638V-3.7619999999999996Q413.3599999999999 -2.816 413.8769999999999 -2.2329999999999997Q414.3939999999999 -1.65 415.2519999999999 -1.65Q416.1319999999999 -1.65 416.65999999999985 -2.2329999999999997Q417.1879999999999 -2.816 417.1879999999999 -3.7619999999999996Z M438.1439999999999 -15.399999999999999H439.79399999999987Q440.0139999999999 -15.399999999999999 440.0139999999999 -15.18V-0.21999999999999997Q440.0139999999999 0.0 439.79399999999987 0.0H437.9019999999999Q437.7259999999999 0.0 437.65999999999985 -0.176L433.9199999999999 -10.229999999999999Q433.89799999999985 -10.274 433.85399999999987 -10.262999999999998Q433.8099999999999 -10.251999999999999 433.8099999999999 -10.208L433.8319999999999 -0.21999999999999997Q433.8319999999999 0.0 433.61199999999985 0.0H431.9399999999999Q431.71999999999986 0.0 431.71999999999986 -0.21999999999999997V-15.18Q431.71999999999986 -15.399999999999999 431.9399999999999 -15.399999999999999H433.8099999999999Q433.9859999999999 -15.399999999999999 434.0519999999999 -15.223999999999998L437.8139999999999 -5.17Q437.8359999999999 -5.104 437.8799999999999 -5.115Q437.92399999999986 -5.1259999999999994 437.92399999999986 -5.191999999999999V-15.18Q437.92399999999986 -15.399999999999999 438.1439999999999 -15.399999999999999Z M481.03599999999983 -6.226000000000001Q481.03599999999983 -6.8420000000000005 481.4319999999998 -7.238Q481.8279999999998 -7.634 482.4439999999998 -7.634Q483.05999999999983 -7.634 483.4559999999998 -7.238Q483.8519999999998 -6.8420000000000005 483.8519999999998 -6.226000000000001Q483.8519999999998 -5.610000000000001 483.4559999999998 -5.214Q483.05999999999983 -4.818 482.4439999999998 -4.818Q481.8279999999998 -4.818 481.4319999999998 -5.214Q481.03599999999983 -5.610000000000001 481.03599999999983 -6.226000000000001Z M524.5659999999998 -3.8059999999999996V-11.616Q524.5659999999998 -13.42 525.6549999999997 -14.498Q526.7439999999998 -15.575999999999999 528.5259999999997 -15.575999999999999Q530.3299999999998 -15.575999999999999 531.4189999999999 -14.498Q532.5079999999998 -13.42 532.5079999999998 -11.616V-11.264Q532.5079999999998 -11.043999999999999 532.2879999999998 -11.043999999999999L530.6159999999998 -10.956Q530.3959999999997 -10.956 530.3959999999997 -11.176V-11.748Q530.3959999999997 -12.649999999999999 529.8789999999997 -13.2Q529.3619999999997 -13.75 528.5259999999997 -13.75Q527.6899999999997 -13.75 527.1839999999997 -13.2Q526.6779999999998 -12.649999999999999 526.6779999999998 -11.748V-3.6519999999999997Q526.6779999999998 -2.75 527.1839999999997 -2.2Q527.6899999999997 -1.65 528.5259999999997 -1.65Q529.3619999999997 -1.65 529.8789999999997 -2.2Q530.3959999999997 -2.75 530.3959999999997 -3.6519999999999997V-4.224Q530.3959999999997 -4.444 530.6159999999998 -4.444L532.2879999999998 -4.356Q532.5079999999998 -4.356 532.5079999999998 -4.136V-3.8059999999999996Q532.5079999999998 -2.002 531.4189999999999 -0.9129999999999999Q530.3299999999998 0.176 528.5259999999997 0.176Q526.7439999999998 0.176 525.6549999999997 -0.9129999999999999Q524.5659999999998 -2.002 524.5659999999998 -3.8059999999999996Z M550.6039999999997 -0.19799999999999998 550.1199999999998 -2.7279999999999998Q550.1199999999998 -2.772 550.0869999999998 -2.7939999999999996Q550.0539999999997 -2.816 550.0099999999998 -2.816H546.4239999999998Q546.3799999999998 -2.816 546.3469999999998 -2.7939999999999996Q546.3139999999997 -2.772 546.3139999999997 -2.7279999999999998L545.8519999999997 -0.19799999999999998Q545.8299999999997 0.0 545.6099999999997 0.0H543.9379999999998Q543.8279999999997 0.0 543.7729999999997 -0.066Q543.7179999999997 -0.132 543.7399999999997 -0.242L547.0179999999997 -15.202Q547.0619999999997 -15.399999999999999 547.2599999999998 -15.399999999999999H549.2179999999997Q549.4379999999998 -15.399999999999999 549.4599999999997 -15.202L552.7599999999998 -0.242V-0.19799999999999998Q552.7599999999998 0.0 552.5619999999997 0.0H550.8459999999998Q550.6479999999997 0.0 550.6039999999997 -0.19799999999999998ZM546.7539999999997 -4.4879999999999995H549.6799999999997Q549.7459999999998 -4.4879999999999995 549.7459999999998 -4.576L548.2499999999998 -12.386Q548.2279999999997 -12.43 548.2059999999997 -12.43Q548.1839999999997 -12.43 548.1619999999997 -12.386L546.6879999999998 -4.576Q546.6879999999998 -4.4879999999999995 546.7539999999997 -4.4879999999999995Z M571.5599999999997 -13.574H566.6099999999997Q566.5219999999997 -13.574 566.5219999999997 -13.485999999999999V-8.712Q566.5219999999997 -8.623999999999999 566.6099999999997 -8.623999999999999H569.6459999999997Q569.8659999999998 -8.623999999999999 569.8659999999998 -8.404V-7.018Q569.8659999999998 -6.798 569.6459999999997 -6.798H566.6099999999997Q566.5219999999997 -6.798 566.5219999999997 -6.71V-1.914Q566.5219999999997 -1.8259999999999998 566.6099999999997 -1.8259999999999998H571.5599999999997Q571.7799999999997 -1.8259999999999998 571.7799999999997 -1.6059999999999999V-0.21999999999999997Q571.7799999999997 0.0 571.5599999999997 0.0H564.6299999999997Q564.4099999999997 0.0 564.4099999999997 -0.21999999999999997V-15.18Q564.4099999999997 -15.399999999999999 564.6299999999997 -15.399999999999999H571.5599999999997Q571.7799999999997 -15.399999999999999 571.7799999999997 -15.18V-13.793999999999999Q571.7799999999997 -13.574 571.5599999999997 -13.574Z M590.3379999999997 -15.399999999999999H591.9879999999997Q592.2079999999997 -15.399999999999999 592.2079999999997 -15.18V-0.21999999999999997Q592.2079999999997 0.0 591.9879999999997 0.0H590.0959999999998Q589.9199999999997 0.0 589.8539999999997 -0.176L586.1139999999997 -10.229999999999999Q586.0919999999998 -10.274 586.0479999999998 -10.262999999999998Q586.0039999999997 -10.251999999999999 586.0039999999997 -10.208L586.0259999999997 -0.21999999999999997Q586.0259999999997 0.0 585.8059999999997 0.0H584.1339999999997Q583.9139999999998 0.0 583.9139999999998 -0.21999999999999997V-15.18Q583.9139999999998 -15.399999999999999 584.1339999999997 -15.399999999999999H586.0039999999997Q586.1799999999997 -15.399999999999999 586.2459999999998 -15.223999999999998L590.0079999999997 -5.17Q590.0299999999997 -5.104 590.0739999999997 -5.115Q590.1179999999997 -5.1259999999999994 590.1179999999997 -5.191999999999999V-15.18Q590.1179999999997 -15.399999999999999 590.3379999999997 -15.399999999999999Z" fill="#E07020"/>
  </g>

  <g transform="translate(80.00, 240.00)">
    <path d="M2.16 -21.168V-54.54Q2.16 -64.584 8.64 -70.524Q15.12 -76.464 25.812 -76.464Q32.832 -76.464 38.178 -73.764Q43.524 -71.064 46.494 -66.042Q49.464 -61.019999999999996 49.464 -54.324V-50.76Q49.464 -50.004 49.032 -49.572Q48.6 -49.14 47.844 -49.14H30.78Q30.024 -49.14 29.592 -49.572Q29.16 -50.004 29.16 -50.76V-54.54Q29.16 -56.592 28.241999999999997 -57.834Q27.323999999999998 -59.076 25.812 -59.076Q24.3 -59.076 23.381999999999998 -57.834Q22.464 -56.592 22.464 -54.54V-21.06Q22.464 -19.008 23.381999999999998 -17.766Q24.3 -16.524 25.812 -16.524Q27.323999999999998 -16.524 28.241999999999997 -17.766Q29.16 -19.008 29.16 -21.06V-26.352Q29.16 -27.0 28.512 -27.0H27.648Q26.892 -27.0 26.46 -27.432000000000002Q26.028 -27.864 26.028 -28.62V-41.04Q26.028 -41.796 26.46 -42.227999999999994Q26.892 -42.66 27.648 -42.66H47.844Q48.6 -42.66 49.032 -42.227999999999994Q49.464 -41.796 49.464 -41.04V-21.168Q49.464 -14.58 46.494 -9.558Q43.524 -4.536 38.178 -1.8359999999999999Q32.832 0.864 25.812 0.864Q15.12 0.864 8.64 -5.13Q2.16 -11.124 2.16 -21.168Z M84.724 -1.512 83.536 -9.612Q83.536 -9.828 83.32 -10.044Q83.104 -10.26 82.78 -10.26H73.27600000000001Q72.952 -10.26 72.736 -10.044Q72.52000000000001 -9.828 72.52000000000001 -9.612L71.44 -1.512Q71.332 0.0 69.712 0.0H52.756Q51.028000000000006 0.0 51.352000000000004 -1.728L66.688 -74.196Q67.012 -75.6 68.524 -75.6H88.18Q89.69200000000001 -75.6 90.016 -74.196L105.352 -1.728V-1.296Q105.352 0.0 103.84 0.0H86.452Q84.832 0.0 84.724 -1.512ZM75.436 -25.812H80.512Q81.268 -25.812 81.052 -26.46L78.136 -45.9Q78.028 -46.332 77.81200000000001 -46.332Q77.596 -46.332 77.488 -45.9L74.896 -26.46Q74.896 -25.812 75.436 -25.812Z M145.364 -75.6H162.21200000000002Q162.96800000000002 -75.6 163.4 -75.168Q163.832 -74.736 163.832 -73.98V-1.6199999999999999Q163.832 -0.864 163.4 -0.432Q162.96800000000002 0.0 162.21200000000002 0.0H145.14800000000002Q144.392 0.0 143.96 -0.432Q143.52800000000002 -0.864 143.52800000000002 -1.6199999999999999V-45.576Q143.52800000000002 -46.008 143.258 -46.116Q142.988 -46.224 142.772 -45.792L136.616 -35.424L135.536 -33.48H135.428L128.3 -45.792Q128.084 -46.224 127.81400000000001 -46.17Q127.54400000000001 -46.116 127.54400000000001 -45.576V-1.6199999999999999Q127.54400000000001 -0.864 127.11200000000001 -0.432Q126.68 0.0 125.924 0.0H108.86000000000001Q108.10400000000001 0.0 107.67200000000001 -0.432Q107.24000000000001 -0.864 107.24000000000001 -1.6199999999999999V-73.98Q107.24000000000001 -74.736 107.67200000000001 -75.168Q108.10400000000001 -75.6 108.86000000000001 -75.6H125.70800000000001Q127.11200000000001 -75.6 127.65200000000002 -74.412L135.21200000000002 -60.588Q135.428 -60.263999999999996 135.698 -60.209999999999994Q135.96800000000002 -60.156 136.07600000000002 -60.588L143.42000000000002 -74.412Q144.068 -75.6 145.364 -75.6Z M208.48800000000003 -58.211999999999996H187.86Q187.21200000000002 -58.211999999999996 187.21200000000002 -57.564V-47.196Q187.21200000000002 -46.548 187.86 -46.548H198.55200000000002Q199.30800000000002 -46.548 199.74 -46.116Q200.17200000000003 -45.684 200.17200000000003 -44.928V-30.78Q200.17200000000003 -30.024 199.74 -29.592Q199.30800000000002 -29.16 198.55200000000002 -29.16H187.86Q187.21200000000002 -29.16 187.21200000000002 -28.512V-18.036Q187.21200000000002 -17.387999999999998 187.86 -17.387999999999998H208.48800000000003Q209.24400000000003 -17.387999999999998 209.67600000000004 -16.956Q210.10800000000003 -16.524 210.10800000000003 -15.768V-1.6199999999999999Q210.10800000000003 -0.864 209.67600000000004 -0.432Q209.24400000000003 0.0 208.48800000000003 0.0H168.52800000000002Q167.77200000000002 0.0 167.34000000000003 -0.432Q166.90800000000002 -0.864 166.90800000000002 -1.6199999999999999V-73.98Q166.90800000000002 -74.736 167.34000000000003 -75.168Q167.77200000000002 -75.6 168.52800000000002 -75.6H208.48800000000003Q209.24400000000003 -75.6 209.67600000000004 -75.168Q210.10800000000003 -74.736 210.10800000000003 -73.98V-59.832Q210.10800000000003 -59.076 209.67600000000004 -58.644Q209.24400000000003 -58.211999999999996 208.48800000000003 -58.211999999999996Z" fill="#F0EBE2"/>
    <path d="M218.58400000000003 -1.08V-74.52Q218.58400000000003 -75.6 219.66400000000002 -75.6H235.54000000000002Q243.532 -75.6 248.17600000000002 -70.25399999999999Q252.82000000000002 -64.908 252.82000000000002 -55.728V-19.872Q252.82000000000002 -10.692 248.17600000000002 -5.346Q243.532 0.0 235.54000000000002 0.0H219.66400000000002Q218.58400000000003 0.0 218.58400000000003 -1.08ZM224.74 -5.076H235.54000000000002Q240.83200000000002 -5.184 243.91000000000003 -9.126Q246.98800000000003 -13.068 246.98800000000003 -19.98V-55.512Q246.98800000000003 -62.532 243.91000000000003 -66.52799999999999Q240.83200000000002 -70.524 235.43200000000002 -70.524H224.74Q224.30800000000002 -70.524 224.30800000000002 -70.092V-5.508Q224.30800000000002 -5.076 224.74 -5.076Z M264.64400000000006 -17.28V-58.211999999999996Q264.64400000000006 -66.42 269.504 -71.44200000000001Q274.36400000000003 -76.464 282.35600000000005 -76.464Q290.34800000000007 -76.464 295.31600000000003 -71.44200000000001Q300.28400000000005 -66.42 300.28400000000005 -58.211999999999996V-17.28Q300.28400000000005 -9.18 295.31600000000003 -4.1579999999999995Q290.34800000000007 0.864 282.35600000000005 0.864Q274.47200000000004 0.864 269.55800000000005 -4.1579999999999995Q264.64400000000006 -9.18 264.64400000000006 -17.28ZM294.56000000000006 -17.064V-58.428Q294.56000000000006 -64.152 291.158 -67.77000000000001Q287.75600000000003 -71.388 282.35600000000005 -71.388Q277.064 -71.388 273.716 -67.77000000000001Q270.36800000000005 -64.152 270.36800000000005 -58.428V-17.064Q270.36800000000005 -11.34 273.716 -7.776Q277.064 -4.212 282.35600000000005 -4.212Q287.75600000000003 -4.212 291.158 -7.776Q294.56000000000006 -11.34 294.56000000000006 -17.064Z M311.35200000000003 -17.28V-58.211999999999996Q311.35200000000003 -66.42 316.212 -71.44200000000001Q321.072 -76.464 329.064 -76.464Q337.05600000000004 -76.464 342.024 -71.44200000000001Q346.992 -66.42 346.992 -58.211999999999996V-17.28Q346.992 -9.18 342.024 -4.1579999999999995Q337.05600000000004 0.864 329.064 0.864Q321.18 0.864 316.266 -4.1579999999999995Q311.35200000000003 -9.18 311.35200000000003 -17.28ZM341.26800000000003 -17.064V-58.428Q341.26800000000003 -64.152 337.866 -67.77000000000001Q334.464 -71.388 329.064 -71.388Q323.772 -71.388 320.424 -67.77000000000001Q317.076 -64.152 317.076 -58.428V-17.064Q317.076 -11.34 320.424 -7.776Q323.772 -4.212 329.064 -4.212Q334.464 -4.212 337.866 -7.776Q341.26800000000003 -11.34 341.26800000000003 -17.064Z M389.164 -0.864 377.284 -35.1Q377.176 -35.424 376.852 -35.424H366.15999999999997Q365.72799999999995 -35.424 365.72799999999995 -34.992V-1.08Q365.72799999999995 0.0 364.64799999999997 0.0H361.084Q360.00399999999996 0.0 360.00399999999996 -1.08V-74.52Q360.00399999999996 -75.6 361.084 -75.6H377.82399999999996Q385.38399999999996 -75.6 390.02799999999996 -69.984Q394.67199999999997 -64.368 394.67199999999997 -55.296Q394.67199999999997 -48.06 391.53999999999996 -42.984Q388.40799999999996 -37.908 383.008 -36.072Q382.57599999999996 -35.964 382.68399999999997 -35.532L394.888 -1.188L394.996 -0.756Q394.996 0.0 394.024 0.0H390.46Q389.488 0.0 389.164 -0.864ZM365.72799999999995 -70.092V-40.608Q365.72799999999995 -40.176 366.15999999999997 -40.176H377.176Q382.46799999999996 -40.176 385.70799999999997 -44.334Q388.948 -48.492 388.948 -55.296Q388.948 -62.208 385.70799999999997 -66.366Q382.46799999999996 -70.524 377.176 -70.524H366.15999999999997Q365.72799999999995 -70.524 365.72799999999995 -70.092Z" fill="#F0EBE2"/>
  </g>
  <circle cx="495.84" cy="207.60" r="8.64" fill="#E07020"/>
  <g transform="translate(513.12, 240.00)">
    <path d="M56.376 -34.775999999999996V-19.656Q56.376 -18.9 55.944 -18.468Q55.512 -18.036 54.756 -18.036H51.516Q50.868 -18.036 50.868 -17.387999999999998V-1.6199999999999999Q50.868 -0.864 50.436 -0.432Q50.004 0.0 49.248 0.0H32.184Q31.428 0.0 30.996000000000002 -0.432Q30.564 -0.864 30.564 -1.6199999999999999V-17.387999999999998Q30.564 -18.036 29.916 -18.036H2.484Q1.728 -18.036 1.296 -18.468Q0.864 -18.9 0.864 -19.656V-31.644Q0.864 -32.616 1.188 -33.588L14.256 -74.304Q14.688 -75.6 16.092 -75.6H34.344Q35.208 -75.6 35.586 -75.114Q35.964 -74.628 35.748 -73.764L24.624 -37.152Q24.516 -36.396 25.164 -36.396H29.916Q30.564 -36.396 30.564 -37.044V-44.388Q30.564 -45.144 30.996000000000002 -45.576Q31.428 -46.008 32.184 -46.008H49.248Q50.004 -46.008 50.436 -45.576Q50.868 -45.144 50.868 -44.388V-37.044Q50.868 -36.396 51.516 -36.396H54.756Q55.512 -36.396 55.944 -35.964Q56.376 -35.532 56.376 -34.775999999999996Z M66.47200000000001 -75.6H84.184Q84.94 -75.6 85.372 -75.168Q85.804 -74.736 85.804 -73.98V-1.6199999999999999Q85.804 -0.864 85.372 -0.432Q84.94 0.0 84.184 0.0H67.12Q66.364 0.0 65.932 -0.432Q65.5 -0.864 65.5 -1.6199999999999999V-56.484Q65.5 -57.132 64.852 -57.132H57.724000000000004Q56.968 -57.132 56.536 -57.564Q56.104 -57.996 56.104 -58.752V-71.28Q56.104 -72.684 57.400000000000006 -73.116L64.528 -75.276Q65.5 -75.6 66.47200000000001 -75.6Z" fill="#E07020"/>
  </g>

  <g transform="translate(80.00, 290.00)">
    <path d="M11.508000000000001 -15.092H6.16Q5.992 -15.092 5.992 -14.924V-12.236Q5.992 -12.068 6.16 -12.068H8.932Q9.128 -12.068 9.24 -11.956Q9.352 -11.844 9.352 -11.648V-7.98Q9.352 -7.784 9.24 -7.672000000000001Q9.128 -7.5600000000000005 8.932 -7.5600000000000005H6.16Q5.992 -7.5600000000000005 5.992 -7.392V-4.676Q5.992 -4.508 6.16 -4.508H11.508000000000001Q11.704 -4.508 11.816 -4.396Q11.928 -4.284 11.928 -4.088V-0.42Q11.928 -0.224 11.816 -0.112Q11.704 0.0 11.508000000000001 0.0H1.1480000000000001Q0.9520000000000001 0.0 0.8400000000000001 -0.112Q0.728 -0.224 0.728 -0.42V-19.18Q0.728 -19.376 0.8400000000000001 -19.488Q0.9520000000000001 -19.6 1.1480000000000001 -19.6H11.508000000000001Q11.704 -19.6 11.816 -19.488Q11.928 -19.376 11.928 -19.18V-15.512Q11.928 -15.316 11.816 -15.204Q11.704 -15.092 11.508000000000001 -15.092Z M29.700000000000003 -19.6H34.068000000000005Q34.264 -19.6 34.376000000000005 -19.488Q34.488 -19.376 34.488 -19.18V-0.42Q34.488 -0.224 34.376000000000005 -0.112Q34.264 0.0 34.068000000000005 0.0H29.084000000000003Q28.720000000000002 0.0 28.636000000000003 -0.364L26.508000000000003 -8.848Q26.480000000000004 -8.932 26.396 -8.932Q26.312 -8.932 26.312 -8.82L26.368000000000002 -0.42Q26.368000000000002 -0.224 26.256 -0.112Q26.144000000000002 0.0 25.948 0.0H21.580000000000002Q21.384000000000004 0.0 21.272000000000006 -0.112Q21.160000000000004 -0.224 21.160000000000004 -0.42V-19.18Q21.160000000000004 -19.376 21.272000000000006 -19.488Q21.384000000000004 -19.6 21.580000000000002 -19.6H26.508000000000003Q26.872000000000003 -19.6 26.956000000000003 -19.236L29.112000000000002 -10.724Q29.14 -10.612 29.224 -10.612Q29.308 -10.612 29.308 -10.724L29.28 -19.18Q29.28 -19.376 29.392000000000003 -19.488Q29.504000000000005 -19.6 29.700000000000003 -19.6Z M56.684 -19.18V-15.512Q56.684 -15.316 56.572 -15.204Q56.46 -15.092 56.264 -15.092H52.96Q52.792 -15.092 52.792 -14.924V-0.42Q52.792 -0.224 52.68 -0.112Q52.568 0.0 52.372 0.0H47.948Q47.752 0.0 47.64 -0.112Q47.528 -0.224 47.528 -0.42V-14.924Q47.528 -15.092 47.36 -15.092H44.14Q43.944 -15.092 43.832 -15.204Q43.72 -15.316 43.72 -15.512V-19.18Q43.72 -19.376 43.832 -19.488Q43.944 -19.6 44.14 -19.6H56.264Q56.46 -19.6 56.572 -19.488Q56.684 -19.376 56.684 -19.18Z M73.11200000000001 -0.364 71.404 -7.392Q71.348 -7.532 71.292 -7.532Q71.18 -7.532 71.18 -7.364V-0.42Q71.18 -0.224 71.06800000000001 -0.112Q70.956 0.0 70.76 0.0H66.336Q66.14 0.0 66.02799999999999 -0.112Q65.916 -0.224 65.916 -0.42V-19.18Q65.916 -19.376 66.02799999999999 -19.488Q66.14 -19.6 66.336 -19.6H72.636Q74.316 -19.6 75.618 -18.802Q76.92 -18.004 77.648 -16.59Q78.376 -15.176 78.376 -13.356Q78.376 -11.816 77.844 -10.598Q77.312 -9.38 76.304 -8.624Q76.19200000000001 -8.540000000000001 76.22 -8.4L78.488 -0.47600000000000003Q78.516 -0.42 78.516 -0.336Q78.516 0.0 78.124 0.0H73.56Q73.196 0.0 73.11200000000001 -0.364ZM71.348 -15.092Q71.18 -15.092 71.18 -14.924V-11.704Q71.18 -11.536 71.348 -11.536H71.712Q72.328 -11.536 72.72 -11.998000000000001Q73.11200000000001 -12.46 73.11200000000001 -13.3Q73.11200000000001 -14.168000000000001 72.73400000000001 -14.63Q72.35600000000001 -15.092 71.712 -15.092Z M98.416 -15.092H93.068Q92.9 -15.092 92.9 -14.924V-12.236Q92.9 -12.068 93.068 -12.068H95.84Q96.036 -12.068 96.148 -11.956Q96.26 -11.844 96.26 -11.648V-7.98Q96.26 -7.784 96.148 -7.672000000000001Q96.036 -7.5600000000000005 95.84 -7.5600000000000005H93.068Q92.9 -7.5600000000000005 92.9 -7.392V-4.676Q92.9 -4.508 93.068 -4.508H98.416Q98.612 -4.508 98.72399999999999 -4.396Q98.836 -4.284 98.836 -4.088V-0.42Q98.836 -0.224 98.72399999999999 -0.112Q98.612 0.0 98.416 0.0H88.056Q87.86 0.0 87.74799999999999 -0.112Q87.636 -0.224 87.636 -0.42V-19.18Q87.636 -19.376 87.74799999999999 -19.488Q87.86 -19.6 88.056 -19.6H98.416Q98.612 -19.6 98.72399999999999 -19.488Q98.836 -19.376 98.836 -19.18V-15.512Q98.836 -15.316 98.72399999999999 -15.204Q98.612 -15.092 98.416 -15.092Z M107.676 -0.42V-4.228Q107.676 -4.48 107.816 -4.76L113.164 -14.896Q113.248 -15.092 113.052 -15.092H108.096Q107.9 -15.092 107.78800000000001 -15.204Q107.676 -15.316 107.676 -15.512V-19.18Q107.676 -19.376 107.78800000000001 -19.488Q107.9 -19.6 108.096 -19.6H118.4Q118.596 -19.6 118.708 -19.488Q118.82000000000001 -19.376 118.82000000000001 -19.18V-15.372Q118.82000000000001 -15.120000000000001 118.68 -14.84L113.27600000000001 -4.704Q113.19200000000001 -4.508 113.388 -4.508H118.4Q118.596 -4.508 118.708 -4.396Q118.82000000000001 -4.284 118.82000000000001 -4.088V-0.42Q118.82000000000001 -0.224 118.708 -0.112Q118.596 0.0 118.4 0.0H108.096Q107.9 0.0 107.78800000000001 -0.112Q107.676 -0.224 107.676 -0.42Z M155.19600000000003 -8.344Q155.19600000000003 -9.519999999999998 155.93800000000005 -10.248Q156.68000000000004 -10.976 157.82800000000003 -10.976Q158.97600000000003 -10.976 159.71800000000002 -10.248Q160.46000000000004 -9.519999999999998 160.46000000000004 -8.344Q160.46000000000004 -7.223999999999998 159.70400000000004 -6.467999999999999Q158.94800000000004 -5.712 157.82800000000003 -5.712Q156.68000000000004 -5.712 155.93800000000005 -6.454Q155.19600000000003 -7.196 155.19600000000003 -8.344Z M196.66799999999998 -5.376V-7.0Q196.66799999999998 -7.196 196.77999999999997 -7.308Q196.892 -7.42 197.088 -7.42H201.512Q201.708 -7.42 201.82 -7.308Q201.932 -7.196 201.932 -7.0V-5.32Q201.932 -4.872 202.156 -4.577999999999999Q202.38 -4.284 202.744 -4.284Q203.136 -4.284 203.374 -4.577999999999999Q203.612 -4.872 203.612 -5.32V-19.18Q203.612 -19.376 203.724 -19.488Q203.83599999999998 -19.6 204.03199999999998 -19.6H208.456Q208.652 -19.6 208.76399999999998 -19.488Q208.87599999999998 -19.376 208.87599999999998 -19.18V-5.376Q208.87599999999998 -3.724 208.106 -2.45Q207.33599999999998 -1.176 205.95 -0.476Q204.564 0.224 202.744 0.224Q200.952 0.224 199.56599999999997 -0.476Q198.17999999999998 -1.176 197.42399999999998 -2.45Q196.66799999999998 -3.724 196.66799999999998 -5.376Z M218.164 -5.768V-13.832Q218.164 -16.576 219.858 -18.200000000000003Q221.552 -19.824 224.38 -19.824Q227.208 -19.824 228.902 -18.200000000000003Q230.59599999999998 -16.576 230.59599999999998 -13.832V-5.768Q230.59599999999998 -3.024 228.902 -1.4Q227.208 0.224 224.38 0.224Q221.552 0.224 219.858 -1.4Q218.164 -3.024 218.164 -5.768ZM225.332 -5.5440000000000005V-14.056000000000001Q225.332 -14.644 225.07999999999998 -14.98Q224.82799999999997 -15.316 224.38 -15.316Q223.932 -15.316 223.68 -14.98Q223.428 -14.644 223.428 -14.056000000000001V-5.5440000000000005Q223.428 -4.956 223.68 -4.62Q223.932 -4.284 224.38 -4.284Q224.82799999999997 -4.284 225.07999999999998 -4.62Q225.332 -4.956 225.332 -5.5440000000000005Z M239.82799999999997 -5.824V-19.18Q239.82799999999997 -19.376 239.93999999999997 -19.488Q240.05199999999996 -19.6 240.248 -19.6H244.67199999999997Q244.86799999999997 -19.6 244.97999999999996 -19.488Q245.09199999999998 -19.376 245.09199999999998 -19.18V-5.32Q245.09199999999998 -4.844 245.31599999999997 -4.564Q245.53999999999996 -4.284 245.90399999999997 -4.284Q246.26799999999997 -4.284 246.47799999999998 -4.564Q246.688 -4.844 246.688 -5.32V-19.18Q246.688 -19.376 246.79999999999998 -19.488Q246.91199999999998 -19.6 247.10799999999998 -19.6H251.53199999999998Q251.72799999999998 -19.6 251.83999999999997 -19.488Q251.95199999999997 -19.376 251.95199999999997 -19.18V-5.824Q251.95199999999997 -4.032 251.19599999999997 -2.66Q250.43999999999997 -1.288 249.06799999999998 -0.532Q247.69599999999997 0.224 245.90399999999997 0.224Q244.08399999999997 0.224 242.712 -0.532Q241.33999999999997 -1.288 240.58399999999997 -2.66Q239.82799999999997 -4.032 239.82799999999997 -5.824Z M272.13199999999995 -15.092H266.784Q266.616 -15.092 266.616 -14.924V-12.236Q266.616 -12.068 266.784 -12.068H269.556Q269.75199999999995 -12.068 269.8639999999999 -11.956Q269.97599999999994 -11.844 269.97599999999994 -11.648V-7.98Q269.97599999999994 -7.784 269.8639999999999 -7.672000000000001Q269.75199999999995 -7.5600000000000005 269.556 -7.5600000000000005H266.784Q266.616 -7.5600000000000005 266.616 -7.392V-4.676Q266.616 -4.508 266.784 -4.508H272.13199999999995Q272.328 -4.508 272.43999999999994 -4.396Q272.55199999999996 -4.284 272.55199999999996 -4.088V-0.42Q272.55199999999996 -0.224 272.43999999999994 -0.112Q272.328 0.0 272.13199999999995 0.0H261.772Q261.57599999999996 0.0 261.46399999999994 -0.112Q261.352 -0.224 261.352 -0.42V-19.18Q261.352 -19.376 261.46399999999994 -19.488Q261.57599999999996 -19.6 261.772 -19.6H272.13199999999995Q272.328 -19.6 272.43999999999994 -19.488Q272.55199999999996 -19.376 272.55199999999996 -19.18V-15.512Q272.55199999999996 -15.316 272.43999999999994 -15.204Q272.328 -15.092 272.13199999999995 -15.092Z M281.392 -0.42V-4.228Q281.392 -4.48 281.532 -4.76L286.88 -14.896Q286.964 -15.092 286.768 -15.092H281.81199999999995Q281.616 -15.092 281.504 -15.204Q281.392 -15.316 281.392 -15.512V-19.18Q281.392 -19.376 281.504 -19.488Q281.616 -19.6 281.81199999999995 -19.6H292.116Q292.312 -19.6 292.424 -19.488Q292.536 -19.376 292.536 -19.18V-15.372Q292.536 -15.120000000000001 292.39599999999996 -14.84L286.99199999999996 -4.704Q286.90799999999996 -4.508 287.104 -4.508H292.116Q292.312 -4.508 292.424 -4.396Q292.536 -4.284 292.536 -4.088V-0.42Q292.536 -0.224 292.424 -0.112Q292.312 0.0 292.116 0.0H281.81199999999995Q281.616 0.0 281.504 -0.112Q281.392 -0.224 281.392 -0.42Z M328.91200000000003 -8.344Q328.91200000000003 -9.519999999999998 329.654 -10.248Q330.396 -10.976 331.54400000000004 -10.976Q332.69200000000006 -10.976 333.4340000000001 -10.248Q334.17600000000004 -9.519999999999998 334.17600000000004 -8.344Q334.17600000000004 -7.223999999999998 333.4200000000001 -6.467999999999999Q332.66400000000004 -5.712 331.54400000000004 -5.712Q330.396 -5.712 329.654 -6.454Q328.91200000000003 -7.196 328.91200000000003 -8.344Z M374.50000000000006 -0.364 370.5800000000001 -19.152V-19.264Q370.5800000000001 -19.6 370.9720000000001 -19.6H375.78800000000007Q376.2080000000001 -19.6 376.2360000000001 -19.208000000000002L377.4960000000001 -9.296Q377.4960000000001 -9.212 377.5800000000001 -9.212Q377.6640000000001 -9.212 377.6640000000001 -9.296L378.81200000000007 -19.208000000000002Q378.8400000000001 -19.6 379.2600000000001 -19.6H383.9360000000001Q384.4120000000001 -19.6 384.3280000000001 -19.152L380.3520000000001 -0.364Q380.2680000000001 0.0 379.8760000000001 0.0H374.97600000000006Q374.58400000000006 0.0 374.50000000000006 -0.364Z M393.4760000000001 -0.42V-19.18Q393.4760000000001 -19.376 393.5880000000001 -19.488Q393.7000000000001 -19.6 393.89600000000013 -19.6H398.3200000000001Q398.5160000000001 -19.6 398.6280000000001 -19.488Q398.7400000000001 -19.376 398.7400000000001 -19.18V-0.42Q398.7400000000001 -0.224 398.6280000000001 -0.112Q398.5160000000001 0.0 398.3200000000001 0.0H393.89600000000013Q393.7000000000001 0.0 393.5880000000001 -0.112Q393.4760000000001 -0.224 393.4760000000001 -0.42Z M411.80800000000005 -0.364 407.8880000000001 -19.152V-19.264Q407.8880000000001 -19.6 408.2800000000001 -19.6H413.09600000000006Q413.5160000000001 -19.6 413.5440000000001 -19.208000000000002L414.8040000000001 -9.296Q414.8040000000001 -9.212 414.8880000000001 -9.212Q414.9720000000001 -9.212 414.9720000000001 -9.296L416.12000000000006 -19.208000000000002Q416.1480000000001 -19.6 416.5680000000001 -19.6H421.2440000000001Q421.7200000000001 -19.6 421.6360000000001 -19.152L417.6600000000001 -0.364Q417.5760000000001 0.0 417.1840000000001 0.0H412.28400000000005Q411.89200000000005 0.0 411.80800000000005 -0.364Z M441.5640000000001 -15.092H436.2160000000001Q436.0480000000001 -15.092 436.0480000000001 -14.924V-12.236Q436.0480000000001 -12.068 436.2160000000001 -12.068H438.9880000000001Q439.1840000000001 -12.068 439.29600000000005 -11.956Q439.4080000000001 -11.844 439.4080000000001 -11.648V-7.98Q439.4080000000001 -7.784 439.29600000000005 -7.672000000000001Q439.1840000000001 -7.5600000000000005 438.9880000000001 -7.5600000000000005H436.2160000000001Q436.0480000000001 -7.5600000000000005 436.0480000000001 -7.392V-4.676Q436.0480000000001 -4.508 436.2160000000001 -4.508H441.5640000000001Q441.7600000000001 -4.508 441.87200000000007 -4.396Q441.9840000000001 -4.284 441.9840000000001 -4.088V-0.42Q441.9840000000001 -0.224 441.87200000000007 -0.112Q441.7600000000001 0.0 441.5640000000001 0.0H431.2040000000001Q431.0080000000001 0.0 430.8960000000001 -0.112Q430.7840000000001 -0.224 430.7840000000001 -0.42V-19.18Q430.7840000000001 -19.376 430.8960000000001 -19.488Q431.0080000000001 -19.6 431.2040000000001 -19.6H441.5640000000001Q441.7600000000001 -19.6 441.87200000000007 -19.488Q441.9840000000001 -19.376 441.9840000000001 -19.18V-15.512Q441.9840000000001 -15.316 441.87200000000007 -15.204Q441.7600000000001 -15.092 441.5640000000001 -15.092Z M450.8240000000001 -0.42V-4.228Q450.8240000000001 -4.48 450.9640000000001 -4.76L456.3120000000001 -14.896Q456.39600000000013 -15.092 456.2000000000001 -15.092H451.2440000000001Q451.0480000000001 -15.092 450.93600000000015 -15.204Q450.8240000000001 -15.316 450.8240000000001 -15.512V-19.18Q450.8240000000001 -19.376 450.93600000000015 -19.488Q451.0480000000001 -19.6 451.2440000000001 -19.6H461.5480000000001Q461.74400000000014 -19.6 461.8560000000001 -19.488Q461.96800000000013 -19.376 461.96800000000013 -19.18V-15.372Q461.96800000000013 -15.120000000000001 461.8280000000001 -14.84L456.4240000000001 -4.704Q456.3400000000001 -4.508 456.5360000000001 -4.508H461.5480000000001Q461.74400000000014 -4.508 461.8560000000001 -4.396Q461.96800000000013 -4.284 461.96800000000013 -4.088V-0.42Q461.96800000000013 -0.224 461.8560000000001 -0.112Q461.74400000000014 0.0 461.5480000000001 0.0H451.2440000000001Q451.0480000000001 0.0 450.93600000000015 -0.112Q450.8240000000001 -0.224 450.8240000000001 -0.42Z" fill="#E07020"/>
  </g>

  <line x1="80" y1="325" x2="500" y2="325" stroke="#2E2820" stroke-width="1"/>

  <g transform="translate(80.00, 360.00)">
    <path d="M7.577999999999999 -4.734V-3.5279999999999996Q7.577999999999999 -3.348 7.398 -3.348H6.821999999999999Q6.749999999999999 -3.348 6.749999999999999 -3.276V-0.18Q6.749999999999999 0.0 6.569999999999999 0.0H5.202Q5.021999999999999 0.0 5.021999999999999 -0.18V-3.276Q5.021999999999999 -3.348 4.949999999999999 -3.348H0.5219999999999999Q0.34199999999999997 -3.348 0.34199999999999997 -3.5279999999999996V-4.536Q0.34199999999999997 -4.608 0.37799999999999995 -4.752L2.9699999999999998 -12.456Q3.0239999999999996 -12.6 3.186 -12.6H4.662Q4.859999999999999 -12.6 4.806 -12.402L2.3579999999999997 -5.004Q2.34 -4.968 2.367 -4.941Q2.3939999999999997 -4.914 2.4299999999999997 -4.914H4.949999999999999Q5.021999999999999 -4.914 5.021999999999999 -4.986V-7.451999999999999Q5.021999999999999 -7.632 5.202 -7.632H6.569999999999999Q6.749999999999999 -7.632 6.749999999999999 -7.451999999999999V-4.986Q6.749999999999999 -4.914 6.821999999999999 -4.914H7.398Q7.577999999999999 -4.914 7.577999999999999 -4.734Z M13.169999999999998 -12.6H14.609999999999998Q14.789999999999997 -12.6 14.789999999999997 -12.42V-0.18Q14.789999999999997 0.0 14.609999999999998 0.0H13.241999999999997Q13.061999999999998 0.0 13.061999999999998 -0.18V-10.709999999999999Q13.061999999999998 -10.745999999999999 13.034999999999997 -10.773Q13.007999999999997 -10.799999999999999 12.989999999999998 -10.782L11.387999999999998 -10.367999999999999L11.315999999999999 -10.35Q11.207999999999998 -10.35 11.171999999999999 -10.511999999999999L11.099999999999998 -11.52Q11.099999999999998 -11.681999999999999 11.225999999999997 -11.735999999999999L12.953999999999997 -12.546Q13.061999999999998 -12.6 13.169999999999998 -12.6Z M29.61 0.0H26.604Q26.424 0.0 26.424 -0.18V-12.42Q26.424 -12.6 26.604 -12.6H29.358Q30.996 -12.6 31.923000000000002 -11.745Q32.85 -10.889999999999999 32.85 -9.251999999999999Q32.85 -7.308 31.464 -6.569999999999999Q31.374 -6.515999999999999 31.445999999999998 -6.4799999999999995Q32.166 -6.047999999999999 32.571 -5.273999999999999Q32.976 -4.5 32.976 -3.4379999999999997Q32.976 -1.7999999999999998 32.049 -0.8999999999999999Q31.122 0.0 29.61 0.0ZM28.152 -11.033999999999999V-7.217999999999999Q28.152 -7.145999999999999 28.224 -7.145999999999999H29.375999999999998Q30.222 -7.145999999999999 30.69 -7.658999999999999Q31.158 -8.171999999999999 31.158 -9.09Q31.158 -10.043999999999999 30.69 -10.575Q30.222 -11.106 29.375999999999998 -11.106H28.224Q28.152 -11.106 28.152 -11.033999999999999ZM31.247999999999998 -3.654Q31.247999999999998 -4.6979999999999995 30.779999999999998 -5.2829999999999995Q30.311999999999998 -5.867999999999999 29.483999999999998 -5.867999999999999H28.224Q28.152 -5.867999999999999 28.152 -5.795999999999999V-1.5839999999999999Q28.152 -1.5119999999999998 28.224 -1.5119999999999998H29.466Q30.294 -1.5119999999999998 30.771 -2.07Q31.247999999999998 -2.6279999999999997 31.247999999999998 -3.654Z M37.632 -0.18V-12.42Q37.632 -12.6 37.812 -12.6H39.18Q39.36 -12.6 39.36 -12.42V-0.18Q39.36 0.0 39.18 0.0H37.812Q37.632 0.0 37.632 -0.18Z M44.16 -3.078V-3.546Q44.16 -3.7259999999999995 44.339999999999996 -3.7259999999999995H45.672Q45.852 -3.7259999999999995 45.852 -3.546V-3.1679999999999997Q45.852 -2.34 46.266 -1.8449999999999998Q46.68 -1.3499999999999999 47.327999999999996 -1.3499999999999999Q47.976 -1.3499999999999999 48.399 -1.827Q48.821999999999996 -2.304 48.821999999999996 -3.078Q48.821999999999996 -3.5999999999999996 48.596999999999994 -3.9959999999999996Q48.372 -4.3919999999999995 48.003 -4.706999999999999Q47.634 -5.021999999999999 46.806 -5.6339999999999995Q45.888 -6.318 45.366 -6.803999999999999Q44.844 -7.289999999999999 44.484 -7.973999999999999Q44.124 -8.658 44.124 -9.575999999999999Q44.124 -11.033999999999999 44.988 -11.889Q45.852 -12.744 47.238 -12.744Q48.678 -12.744 49.551 -11.826Q50.424 -10.908 50.424 -9.414V-8.963999999999999Q50.424 -8.783999999999999 50.244 -8.783999999999999H48.912Q48.732 -8.783999999999999 48.732 -8.963999999999999V-9.45Q48.732 -10.26 48.318 -10.754999999999999Q47.903999999999996 -11.25 47.238 -11.25Q46.608 -11.25 46.212 -10.809Q45.816 -10.367999999999999 45.816 -9.575999999999999Q45.816 -8.856 46.212 -8.361Q46.608 -7.866 47.742 -7.037999999999999Q48.821999999999996 -6.228 49.370999999999995 -5.724Q49.92 -5.22 50.217 -4.616999999999999Q50.513999999999996 -4.013999999999999 50.513999999999996 -3.186Q50.513999999999996 -1.674 49.632 -0.765Q48.75 0.144 47.327999999999996 0.144Q45.906 0.144 45.033 -0.747Q44.16 -1.638 44.16 -3.078Z M66.648 -0.144 64.992 -5.508Q64.974 -5.561999999999999 64.92 -5.561999999999999H63.66Q63.588 -5.561999999999999 63.588 -5.489999999999999V-0.18Q63.588 0.0 63.408 0.0H62.04Q61.86 0.0 61.86 -0.18V-12.42Q61.86 -12.6 62.04 -12.6H65.262Q66.18 -12.6 66.882 -12.149999999999999Q67.584 -11.7 67.971 -10.881Q68.358 -10.062 68.358 -9.017999999999999Q68.358 -7.8839999999999995 67.89 -7.047Q67.422 -6.21 66.612 -5.832Q66.55799999999999 -5.778 66.576 -5.723999999999999L68.412 -0.19799999999999998L68.42999999999999 -0.126Q68.42999999999999 0.0 68.268 0.0H66.864Q66.702 0.0 66.648 -0.144ZM63.588 -11.033999999999999V-7.002Q63.588 -6.93 63.66 -6.93H64.992Q65.73 -6.93 66.18 -7.497Q66.63 -8.064 66.63 -9.0Q66.63 -9.972 66.18 -10.539Q65.73 -11.106 64.992 -11.106H63.66Q63.588 -11.106 63.588 -11.033999999999999Z M72.92399999999999 -3.42V-12.42Q72.92399999999999 -12.6 73.104 -12.6H74.472Q74.652 -12.6 74.652 -12.42V-3.2399999999999998Q74.652 -2.3939999999999997 75.07499999999999 -1.8719999999999999Q75.49799999999999 -1.3499999999999999 76.182 -1.3499999999999999Q76.884 -1.3499999999999999 77.30699999999999 -1.8719999999999999Q77.72999999999999 -2.3939999999999997 77.72999999999999 -3.2399999999999998V-12.42Q77.72999999999999 -12.6 77.91 -12.6H79.27799999999999Q79.458 -12.6 79.458 -12.42V-3.42Q79.458 -1.8179999999999998 78.55799999999999 -0.837Q77.658 0.144 76.182 0.144Q74.70599999999999 0.144 73.815 -0.837Q72.92399999999999 -1.8179999999999998 72.92399999999999 -3.42Z M90.44999999999999 -11.106H86.39999999999999Q86.32799999999999 -11.106 86.32799999999999 -11.033999999999999V-7.127999999999999Q86.32799999999999 -7.055999999999999 86.39999999999999 -7.055999999999999H88.884Q89.064 -7.055999999999999 89.064 -6.8759999999999994V-5.742Q89.064 -5.561999999999999 88.884 -5.561999999999999H86.39999999999999Q86.32799999999999 -5.561999999999999 86.32799999999999 -5.489999999999999V-1.5659999999999998Q86.32799999999999 -1.494 86.39999999999999 -1.494H90.44999999999999Q90.63 -1.494 90.63 -1.3139999999999998V-0.18Q90.63 0.0 90.44999999999999 0.0H84.78Q84.6 0.0 84.6 -0.18V-12.42Q84.6 -12.6 84.78 -12.6H90.44999999999999Q90.63 -12.6 90.63 -12.42V-11.286Q90.63 -11.106 90.44999999999999 -11.106Z M108.45599999999999 -9.0Q108.45599999999999 -7.4159999999999995 107.62799999999999 -6.443999999999999Q106.79999999999998 -5.4719999999999995 105.44999999999999 -5.4719999999999995H103.75799999999998Q103.68599999999998 -5.4719999999999995 103.68599999999998 -5.3999999999999995V-0.18Q103.68599999999998 0.0 103.50599999999999 0.0H102.13799999999999Q101.95799999999998 0.0 101.95799999999998 -0.18V-12.437999999999999Q101.95799999999998 -12.617999999999999 102.13799999999999 -12.617999999999999H105.35999999999999Q106.74599999999998 -12.617999999999999 107.60099999999998 -11.619Q108.45599999999999 -10.62 108.45599999999999 -9.0ZM106.72799999999998 -8.963999999999999Q106.72799999999998 -9.953999999999999 106.27799999999999 -10.538999999999998Q105.82799999999999 -11.123999999999999 105.08999999999999 -11.123999999999999H103.75799999999998Q103.68599999999998 -11.123999999999999 103.68599999999998 -11.052V-6.93Q103.68599999999998 -6.858 103.75799999999998 -6.858H105.08999999999999Q105.82799999999999 -6.858 106.27799999999999 -7.424999999999999Q106.72799999999998 -7.991999999999999 106.72799999999998 -8.963999999999999Z M117.82799999999997 -0.16199999999999998 117.43199999999997 -2.2319999999999998Q117.43199999999997 -2.268 117.40499999999997 -2.2859999999999996Q117.37799999999999 -2.304 117.34199999999998 -2.304H114.40799999999999Q114.37199999999999 -2.304 114.34499999999998 -2.2859999999999996Q114.31799999999998 -2.268 114.31799999999998 -2.2319999999999998L113.93999999999998 -0.16199999999999998Q113.92199999999998 0.0 113.74199999999998 0.0H112.37399999999998Q112.28399999999998 0.0 112.23899999999998 -0.05399999999999999Q112.19399999999997 -0.10799999999999998 112.21199999999997 -0.19799999999999998L114.89399999999998 -12.437999999999999Q114.92999999999998 -12.6 115.09199999999998 -12.6H116.69399999999997Q116.87399999999998 -12.6 116.89199999999998 -12.437999999999999L119.59199999999998 -0.19799999999999998V-0.16199999999999998Q119.59199999999998 0.0 119.42999999999998 0.0H118.02599999999998Q117.86399999999998 0.0 117.82799999999997 -0.16199999999999998ZM114.67799999999998 -3.6719999999999997H117.07199999999997Q117.12599999999998 -3.6719999999999997 117.12599999999998 -3.7439999999999998L115.90199999999999 -10.133999999999999Q115.88399999999999 -10.17 115.86599999999999 -10.17Q115.84799999999998 -10.17 115.82999999999998 -10.133999999999999L114.62399999999998 -3.7439999999999998Q114.62399999999998 -3.6719999999999997 114.67799999999998 -3.6719999999999997Z M123.50999999999998 -3.078V-3.546Q123.50999999999998 -3.7259999999999995 123.68999999999998 -3.7259999999999995H125.02199999999998Q125.20199999999998 -3.7259999999999995 125.20199999999998 -3.546V-3.1679999999999997Q125.20199999999998 -2.34 125.61599999999999 -1.8449999999999998Q126.02999999999997 -1.3499999999999999 126.67799999999998 -1.3499999999999999Q127.32599999999998 -1.3499999999999999 127.74899999999997 -1.827Q128.17199999999997 -2.304 128.17199999999997 -3.078Q128.17199999999997 -3.5999999999999996 127.94699999999997 -3.9959999999999996Q127.72199999999998 -4.3919999999999995 127.35299999999998 -4.706999999999999Q126.98399999999998 -5.021999999999999 126.15599999999998 -5.6339999999999995Q125.23799999999999 -6.318 124.71599999999998 -6.803999999999999Q124.19399999999997 -7.289999999999999 123.83399999999997 -7.973999999999999Q123.47399999999998 -8.658 123.47399999999998 -9.575999999999999Q123.47399999999998 -11.033999999999999 124.33799999999998 -11.889Q125.20199999999998 -12.744 126.58799999999998 -12.744Q128.028 -12.744 128.90099999999998 -11.826Q129.77399999999997 -10.908 129.77399999999997 -9.414V-8.963999999999999Q129.77399999999997 -8.783999999999999 129.59399999999997 -8.783999999999999H128.26199999999997Q128.08199999999997 -8.783999999999999 128.08199999999997 -8.963999999999999V-9.45Q128.08199999999997 -10.26 127.66799999999998 -10.754999999999999Q127.25399999999998 -11.25 126.58799999999998 -11.25Q125.95799999999998 -11.25 125.56199999999998 -10.809Q125.16599999999998 -10.367999999999999 125.16599999999998 -9.575999999999999Q125.16599999999998 -8.856 125.56199999999998 -8.361Q125.95799999999998 -7.866 127.09199999999998 -7.037999999999999Q128.17199999999997 -6.228 128.72099999999998 -5.724Q129.26999999999998 -5.22 129.56699999999998 -4.616999999999999Q129.86399999999998 -4.013999999999999 129.86399999999998 -3.186Q129.86399999999998 -1.674 128.98199999999997 -0.765Q128.09999999999997 0.144 126.67799999999998 0.144Q125.25599999999997 0.144 124.38299999999998 -0.747Q123.50999999999998 -1.638 123.50999999999998 -3.078Z M140.85599999999997 -12.42V-11.286Q140.85599999999997 -11.106 140.67599999999996 -11.106H138.31799999999998Q138.24599999999998 -11.106 138.24599999999998 -11.033999999999999V-0.18Q138.24599999999998 0.0 138.06599999999997 0.0H136.69799999999998Q136.51799999999997 0.0 136.51799999999997 -0.18V-11.033999999999999Q136.51799999999997 -11.106 136.44599999999997 -11.106H134.21399999999997Q134.03399999999996 -11.106 134.03399999999996 -11.286V-12.42Q134.03399999999996 -12.6 134.21399999999997 -12.6H140.67599999999996Q140.85599999999997 -12.6 140.85599999999997 -12.42Z M151.36199999999997 -11.106H147.31199999999995Q147.23999999999995 -11.106 147.23999999999995 -11.033999999999999V-7.127999999999999Q147.23999999999995 -7.055999999999999 147.31199999999995 -7.055999999999999H149.79599999999996Q149.97599999999997 -7.055999999999999 149.97599999999997 -6.8759999999999994V-5.742Q149.97599999999997 -5.561999999999999 149.79599999999996 -5.561999999999999H147.31199999999995Q147.23999999999995 -5.561999999999999 147.23999999999995 -5.489999999999999V-1.5659999999999998Q147.23999999999995 -1.494 147.31199999999995 -1.494H151.36199999999997Q151.54199999999994 -1.494 151.54199999999994 -1.3139999999999998V-0.18Q151.54199999999994 0.0 151.36199999999997 0.0H145.69199999999995Q145.51199999999997 0.0 145.51199999999997 -0.18V-12.42Q145.51199999999997 -12.6 145.69199999999995 -12.6H151.36199999999997Q151.54199999999994 -12.6 151.54199999999994 -12.42V-11.286Q151.54199999999994 -11.106 151.36199999999997 -11.106Z M156.19799999999998 -3.42V-12.42Q156.19799999999998 -12.6 156.37799999999996 -12.6H157.74599999999998Q157.92599999999996 -12.6 157.92599999999996 -12.42V-3.2399999999999998Q157.92599999999996 -2.3939999999999997 158.34899999999996 -1.8719999999999999Q158.77199999999996 -1.3499999999999999 159.45599999999996 -1.3499999999999999Q160.15799999999996 -1.3499999999999999 160.58099999999996 -1.8719999999999999Q161.00399999999996 -2.3939999999999997 161.00399999999996 -3.2399999999999998V-12.42Q161.00399999999996 -12.6 161.18399999999997 -12.6H162.55199999999996Q162.73199999999997 -12.6 162.73199999999997 -12.42V-3.42Q162.73199999999997 -1.8179999999999998 161.83199999999997 -0.837Q160.93199999999996 0.144 159.45599999999996 0.144Q157.97999999999996 0.144 157.08899999999997 -0.837Q156.19799999999998 -1.8179999999999998 156.19799999999998 -3.42Z M172.66199999999998 -0.144 171.00599999999997 -5.508Q170.98799999999997 -5.561999999999999 170.93399999999997 -5.561999999999999H169.67399999999998Q169.60199999999998 -5.561999999999999 169.60199999999998 -5.489999999999999V-0.18Q169.60199999999998 0.0 169.42199999999997 0.0H168.05399999999997Q167.874 0.0 167.874 -0.18V-12.42Q167.874 -12.6 168.05399999999997 -12.6H171.27599999999998Q172.194 -12.6 172.896 -12.149999999999999Q173.59799999999998 -11.7 173.98499999999999 -10.881Q174.37199999999999 -10.062 174.37199999999999 -9.017999999999999Q174.37199999999999 -7.8839999999999995 173.904 -7.047Q173.43599999999998 -6.21 172.62599999999998 -5.832Q172.57199999999997 -5.778 172.58999999999997 -5.723999999999999L174.426 -0.19799999999999998L174.444 -0.126Q174.444 0.0 174.28199999999998 0.0H172.878Q172.71599999999998 0.0 172.66199999999998 -0.144ZM169.60199999999998 -11.033999999999999V-7.002Q169.60199999999998 -6.93 169.67399999999998 -6.93H171.00599999999997Q171.74399999999997 -6.93 172.19399999999996 -7.497Q172.64399999999998 -8.064 172.64399999999998 -9.0Q172.64399999999998 -9.972 172.19399999999996 -10.539Q171.74399999999997 -11.106 171.00599999999997 -11.106H169.67399999999998Q169.60199999999998 -11.106 169.60199999999998 -11.033999999999999Z M191.81399999999996 -5.094000000000001Q191.81399999999996 -5.598000000000001 192.13799999999998 -5.922000000000001Q192.46199999999996 -6.246 192.96599999999998 -6.246Q193.46999999999997 -6.246 193.79399999999998 -5.922000000000001Q194.11799999999997 -5.598000000000001 194.11799999999997 -5.094000000000001Q194.11799999999997 -4.590000000000002 193.79399999999998 -4.266000000000001Q193.46999999999997 -3.942 192.96599999999998 -3.942Q192.46199999999996 -3.942 192.13799999999998 -4.266000000000001Q191.81399999999996 -4.590000000000002 191.81399999999996 -5.094000000000001Z M213.26999999999995 -12.6H214.70999999999995Q214.88999999999996 -12.6 214.88999999999996 -12.42V-0.18Q214.88999999999996 0.0 214.70999999999995 0.0H213.34199999999996Q213.16199999999995 0.0 213.16199999999995 -0.18V-10.709999999999999Q213.16199999999995 -10.745999999999999 213.13499999999993 -10.773Q213.10799999999995 -10.799999999999999 213.08999999999995 -10.782L211.48799999999994 -10.367999999999999L211.41599999999994 -10.35Q211.30799999999996 -10.35 211.27199999999996 -10.511999999999999L211.19999999999996 -11.52Q211.19999999999996 -11.681999999999999 211.32599999999996 -11.735999999999999L213.05399999999995 -12.546Q213.16199999999995 -12.6 213.26999999999995 -12.6Z M226.38599999999997 -4.734V-3.5279999999999996Q226.38599999999997 -3.348 226.20599999999996 -3.348H225.62999999999997Q225.55799999999996 -3.348 225.55799999999996 -3.276V-0.18Q225.55799999999996 0.0 225.37799999999996 0.0H224.00999999999996Q223.82999999999996 0.0 223.82999999999996 -0.18V-3.276Q223.82999999999996 -3.348 223.75799999999995 -3.348H219.32999999999996Q219.14999999999998 -3.348 219.14999999999998 -3.5279999999999996V-4.536Q219.14999999999998 -4.608 219.18599999999995 -4.752L221.77799999999996 -12.456Q221.83199999999997 -12.6 221.99399999999997 -12.6H223.46999999999997Q223.66799999999995 -12.6 223.61399999999998 -12.402L221.16599999999997 -5.004Q221.14799999999997 -4.968 221.17499999999995 -4.941Q221.20199999999997 -4.914 221.23799999999997 -4.914H223.75799999999995Q223.82999999999996 -4.914 223.82999999999996 -4.986V-7.451999999999999Q223.82999999999996 -7.632 224.00999999999996 -7.632H225.37799999999996Q225.55799999999996 -7.632 225.55799999999996 -7.451999999999999V-4.986Q225.55799999999996 -4.914 225.62999999999997 -4.914H226.20599999999996Q226.38599999999997 -4.914 226.38599999999997 -4.734Z M231.97799999999995 -12.6H233.41799999999995Q233.59799999999996 -12.6 233.59799999999996 -12.42V-0.18Q233.59799999999996 0.0 233.41799999999995 0.0H232.04999999999995Q231.86999999999995 0.0 231.86999999999995 -0.18V-10.709999999999999Q231.86999999999995 -10.745999999999999 231.84299999999996 -10.773Q231.81599999999995 -10.799999999999999 231.79799999999994 -10.782L230.19599999999994 -10.367999999999999L230.12399999999994 -10.35Q230.01599999999996 -10.35 229.97999999999996 -10.511999999999999L229.90799999999996 -11.52Q229.90799999999996 -11.681999999999999 230.03399999999996 -11.735999999999999L231.76199999999994 -12.546Q231.86999999999995 -12.6 231.97799999999995 -12.6Z M240.25199999999995 -1.494H244.37399999999997Q244.55399999999997 -1.494 244.55399999999997 -1.3139999999999998V-0.18Q244.55399999999997 0.0 244.37399999999997 0.0H238.32599999999996Q238.14599999999996 0.0 238.14599999999996 -0.18V-1.3679999999999999Q238.14599999999996 -1.5119999999999998 238.21799999999996 -1.6019999999999999L238.77599999999995 -2.4299999999999997Q240.48599999999996 -4.896 241.42199999999997 -6.425999999999999Q242.50199999999995 -8.261999999999999 242.50199999999995 -9.485999999999999Q242.50199999999995 -10.296 242.13299999999995 -10.773Q241.76399999999995 -11.25 241.16999999999996 -11.25Q240.57599999999996 -11.25 240.21599999999995 -10.782Q239.85599999999997 -10.314 239.87399999999997 -9.54V-8.819999999999999Q239.87399999999997 -8.639999999999999 239.69399999999996 -8.639999999999999H238.28999999999996Q238.10999999999996 -8.639999999999999 238.10999999999996 -8.819999999999999V-9.594Q238.16399999999996 -11.016 239.02799999999996 -11.879999999999999Q239.89199999999997 -12.744 241.24199999999996 -12.744Q242.59199999999996 -12.744 243.41999999999996 -11.844Q244.24799999999996 -10.943999999999999 244.24799999999996 -9.468Q244.24799999999996 -8.585999999999999 243.93299999999996 -7.677Q243.61799999999997 -6.768 242.96999999999997 -5.723999999999999Q242.51999999999995 -5.004 241.07999999999996 -2.8619999999999997L240.19799999999995 -1.5839999999999999Q240.17999999999995 -1.5479999999999998 240.19799999999995 -1.521Q240.21599999999995 -1.494 240.25199999999995 -1.494Z M248.77799999999996 -3.186V-9.414Q248.77799999999996 -10.943999999999999 249.65999999999997 -11.861999999999998Q250.54199999999997 -12.78 251.99999999999997 -12.78Q253.45799999999997 -12.78 254.34899999999996 -11.861999999999998Q255.23999999999995 -10.943999999999999 255.23999999999995 -9.414V-3.186Q255.23999999999995 -1.656 254.34899999999996 -0.738Q253.45799999999997 0.18 251.99999999999997 0.18Q250.54199999999997 0.18 249.65999999999997 -0.738Q248.77799999999996 -1.656 248.77799999999996 -3.186ZM253.51199999999997 -3.078V-9.521999999999998Q253.51199999999997 -10.314 253.09799999999996 -10.8Q252.68399999999997 -11.286 251.99999999999997 -11.286Q251.33399999999997 -11.286 250.91999999999996 -10.8Q250.50599999999997 -10.314 250.50599999999997 -9.521999999999998V-3.078Q250.50599999999997 -2.286 250.91999999999996 -1.7999999999999998Q251.33399999999997 -1.3139999999999998 251.99999999999997 -1.3139999999999998Q252.68399999999997 -1.3139999999999998 253.09799999999996 -1.7999999999999998Q253.51199999999997 -2.286 253.51199999999997 -3.078Z M272.562 -12.6H273.93Q274.11 -12.6 274.11 -12.42V-0.18Q274.11 0.0 273.93 0.0H272.562Q272.382 0.0 272.382 -0.18V-9.107999999999999Q272.382 -9.161999999999999 272.355 -9.161999999999999Q272.32800000000003 -9.161999999999999 272.29200000000003 -9.126L270.564 -5.904Q270.51 -5.778 270.402 -5.778Q270.294 -5.778 270.24 -5.904L268.53000000000003 -9.107999999999999Q268.494 -9.144 268.467 -9.144Q268.44 -9.144 268.44 -9.09V-0.18Q268.44 0.0 268.26 0.0H266.892Q266.712 0.0 266.712 -0.18V-12.42Q266.712 -12.6 266.892 -12.6H268.26Q268.386 -12.6 268.476 -12.473999999999998L270.366 -9.09Q270.384 -9.072 270.42 -9.072Q270.456 -9.072 270.474 -9.09L272.346 -12.473999999999998Q272.418 -12.6 272.562 -12.6Z M279.036 -3.15V-9.431999999999999Q279.036 -10.925999999999998 279.93600000000004 -11.834999999999999Q280.836 -12.744 282.312 -12.744Q283.80600000000004 -12.744 284.71500000000003 -11.834999999999999Q285.624 -10.925999999999998 285.624 -9.431999999999999V-3.15Q285.624 -1.656 284.71500000000003 -0.756Q283.80600000000004 0.144 282.312 0.144Q280.836 0.144 279.93600000000004 -0.756Q279.036 -1.656 279.036 -3.15ZM283.896 -3.078V-9.521999999999998Q283.896 -10.296 283.46400000000006 -10.773Q283.03200000000004 -11.25 282.312 -11.25Q281.61 -11.25 281.187 -10.773Q280.764 -10.296 280.764 -9.521999999999998V-3.078Q280.764 -2.304 281.187 -1.827Q281.61 -1.3499999999999999 282.312 -1.3499999999999999Q283.03200000000004 -1.3499999999999999 283.46400000000006 -1.827Q283.896 -2.304 283.896 -3.078Z M295.86 -12.6H297.21Q297.39 -12.6 297.39 -12.42V-0.18Q297.39 0.0 297.21 0.0H295.662Q295.518 0.0 295.464 -0.144L292.404 -8.37Q292.386 -8.405999999999999 292.35 -8.396999999999998Q292.314 -8.388 292.314 -8.351999999999999L292.332 -0.18Q292.332 0.0 292.152 0.0H290.784Q290.604 0.0 290.604 -0.18V-12.42Q290.604 -12.6 290.784 -12.6H292.314Q292.458 -12.6 292.512 -12.456L295.59 -4.2299999999999995Q295.608 -4.175999999999999 295.644 -4.185Q295.68 -4.194 295.68 -4.247999999999999V-12.42Q295.68 -12.6 295.86 -12.6Z M302.62199999999996 -0.18V-12.42Q302.62199999999996 -12.6 302.80199999999996 -12.6H305.75399999999996Q307.248 -12.6 308.13 -11.681999999999999Q309.01199999999994 -10.764 309.01199999999994 -9.197999999999999V-3.4019999999999997Q309.01199999999994 -1.8359999999999999 308.13 -0.9179999999999999Q307.248 0.0 305.75399999999996 0.0H302.80199999999996Q302.62199999999996 0.0 302.62199999999996 -0.18ZM304.42199999999997 -1.494 305.736 -1.5119999999999998Q306.41999999999996 -1.5119999999999998 306.83399999999995 -2.0429999999999997Q307.248 -2.574 307.26599999999996 -3.4919999999999995V-9.107999999999999Q307.26599999999996 -10.026 306.852 -10.565999999999999Q306.438 -11.106 305.736 -11.106H304.42199999999997Q304.34999999999997 -11.106 304.34999999999997 -11.033999999999999V-1.5659999999999998Q304.34999999999997 -1.494 304.42199999999997 -1.494Z M319.914 -11.106H315.864Q315.792 -11.106 315.792 -11.033999999999999V-7.127999999999999Q315.792 -7.055999999999999 315.864 -7.055999999999999H318.34799999999996Q318.52799999999996 -7.055999999999999 318.52799999999996 -6.8759999999999994V-5.742Q318.52799999999996 -5.561999999999999 318.34799999999996 -5.561999999999999H315.864Q315.792 -5.561999999999999 315.792 -5.489999999999999V-1.5659999999999998Q315.792 -1.494 315.864 -1.494H319.914Q320.094 -1.494 320.094 -1.3139999999999998V-0.18Q320.094 0.0 319.914 0.0H314.24399999999997Q314.06399999999996 0.0 314.06399999999996 -0.18V-12.42Q314.06399999999996 -12.6 314.24399999999997 -12.6H319.914Q320.094 -12.6 320.094 -12.42V-11.286Q320.094 -11.106 319.914 -11.106Z M326.87399999999997 -0.16199999999999998 324.282 -12.402V-12.437999999999999Q324.282 -12.6 324.444 -12.6H325.938Q326.118 -12.6 326.13599999999997 -12.437999999999999L327.846 -3.0959999999999996Q327.864 -3.0599999999999996 327.88199999999995 -3.0599999999999996Q327.9 -3.0599999999999996 327.918 -3.0959999999999996L329.592 -12.437999999999999Q329.628 -12.6 329.78999999999996 -12.6H331.22999999999996Q331.428 -12.6 331.392 -12.402L328.8 -0.16199999999999998Q328.782 0.0 328.602 0.0H327.072Q326.90999999999997 0.0 326.87399999999997 -0.16199999999999998Z M336.066 -0.18V-12.42Q336.066 -12.6 336.246 -12.6H337.614Q337.794 -12.6 337.794 -12.42V-0.18Q337.794 0.0 337.614 0.0H336.246Q336.066 0.0 336.066 -0.18Z M343.02599999999995 -0.18V-12.42Q343.02599999999995 -12.6 343.20599999999996 -12.6H344.57399999999996Q344.75399999999996 -12.6 344.75399999999996 -12.42V-1.5659999999999998Q344.75399999999996 -1.494 344.82599999999996 -1.494H348.85799999999995Q349.03799999999995 -1.494 349.03799999999995 -1.3139999999999998V-0.18Q349.03799999999995 0.0 348.85799999999995 0.0H343.20599999999996Q343.02599999999995 0.0 343.02599999999995 -0.18Z M353.352 -0.18V-12.42Q353.352 -12.6 353.532 -12.6H354.9Q355.08 -12.6 355.08 -12.42V-1.5659999999999998Q355.08 -1.494 355.152 -1.494H359.18399999999997Q359.364 -1.494 359.364 -1.3139999999999998V-0.18Q359.364 0.0 359.18399999999997 0.0H353.532Q353.352 0.0 353.352 -0.18Z M369.528 -11.106H365.478Q365.406 -11.106 365.406 -11.033999999999999V-7.127999999999999Q365.406 -7.055999999999999 365.478 -7.055999999999999H367.962Q368.142 -7.055999999999999 368.142 -6.8759999999999994V-5.742Q368.142 -5.561999999999999 367.962 -5.561999999999999H365.478Q365.406 -5.561999999999999 365.406 -5.489999999999999V-1.5659999999999998Q365.406 -1.494 365.478 -1.494H369.528Q369.708 -1.494 369.708 -1.3139999999999998V-0.18Q369.708 0.0 369.528 0.0H363.858Q363.678 0.0 363.678 -0.18V-12.42Q363.678 -12.6 363.858 -12.6H369.528Q369.708 -12.6 369.708 -12.42V-11.286Q369.708 -11.106 369.528 -11.106Z M387.24000000000007 -5.094000000000001Q387.24000000000007 -5.598000000000001 387.5640000000001 -5.922000000000001Q387.88800000000003 -6.246 388.39200000000005 -6.246Q388.8960000000001 -6.246 389.22 -5.922000000000001Q389.54400000000004 -5.598000000000001 389.54400000000004 -5.094000000000001Q389.54400000000004 -4.590000000000002 389.22 -4.266000000000001Q388.8960000000001 -3.942 388.39200000000005 -3.942Q387.88800000000003 -3.942 387.5640000000001 -4.266000000000001Q387.24000000000007 -4.590000000000002 387.24000000000007 -5.094000000000001Z M407.2380000000001 -3.186V-9.414Q407.2380000000001 -10.943999999999999 408.1200000000001 -11.861999999999998Q409.0020000000001 -12.78 410.46000000000015 -12.78Q411.9180000000001 -12.78 412.80900000000014 -11.861999999999998Q413.70000000000016 -10.943999999999999 413.70000000000016 -9.414V-3.186Q413.70000000000016 -1.656 412.80900000000014 -0.738Q411.9180000000001 0.18 410.46000000000015 0.18Q409.0020000000001 0.18 408.1200000000001 -0.738Q407.2380000000001 -1.656 407.2380000000001 -3.186ZM411.97200000000015 -3.078V-9.521999999999998Q411.97200000000015 -10.314 411.5580000000001 -10.8Q411.1440000000001 -11.286 410.46000000000015 -11.286Q409.79400000000015 -11.286 409.3800000000001 -10.8Q408.9660000000001 -10.314 408.9660000000001 -9.521999999999998V-3.078Q408.9660000000001 -2.286 409.3800000000001 -1.7999999999999998Q409.79400000000015 -1.3139999999999998 410.46000000000015 -1.3139999999999998Q411.1440000000001 -1.3139999999999998 411.5580000000001 -1.7999999999999998Q411.97200000000015 -2.286 411.97200000000015 -3.078Z M420.2280000000001 -1.494H424.35000000000014Q424.53000000000014 -1.494 424.53000000000014 -1.3139999999999998V-0.18Q424.53000000000014 0.0 424.35000000000014 0.0H418.30200000000013Q418.1220000000001 0.0 418.1220000000001 -0.18V-1.3679999999999999Q418.1220000000001 -1.5119999999999998 418.19400000000013 -1.6019999999999999L418.7520000000001 -2.4299999999999997Q420.46200000000016 -4.896 421.39800000000014 -6.425999999999999Q422.4780000000001 -8.261999999999999 422.4780000000001 -9.485999999999999Q422.4780000000001 -10.296 422.10900000000015 -10.773Q421.7400000000001 -11.25 421.14600000000013 -11.25Q420.55200000000013 -11.25 420.1920000000001 -10.782Q419.8320000000001 -10.314 419.85000000000014 -9.54V-8.819999999999999Q419.85000000000014 -8.639999999999999 419.67000000000013 -8.639999999999999H418.26600000000013Q418.0860000000001 -8.639999999999999 418.0860000000001 -8.819999999999999V-9.594Q418.14000000000016 -11.016 419.00400000000013 -11.879999999999999Q419.8680000000001 -12.744 421.21800000000013 -12.744Q422.56800000000015 -12.744 423.3960000000002 -11.844Q424.22400000000016 -10.943999999999999 424.22400000000016 -9.468Q424.22400000000016 -8.585999999999999 423.9090000000001 -7.677Q423.5940000000001 -6.768 422.94600000000014 -5.723999999999999Q422.49600000000015 -5.004 421.05600000000015 -2.8619999999999997L420.17400000000015 -1.5839999999999999Q420.1560000000001 -1.5479999999999998 420.1740000000001 -1.521Q420.1920000000001 -1.494 420.2280000000001 -1.494Z M441.5460000000001 -3.8699999999999997Q441.5460000000001 -3.186 441.45600000000013 -2.502Q441.3300000000001 -1.224 440.5380000000001 -0.54Q439.74600000000015 0.144 438.4500000000001 0.144Q437.1900000000001 0.144 436.4160000000001 -0.522Q435.6420000000001 -1.188 435.44400000000013 -2.502L435.3900000000001 -3.042Q435.3900000000001 -3.222 435.5700000000001 -3.222H436.9380000000001Q437.1180000000001 -3.222 437.1180000000001 -3.042L437.17200000000014 -2.646Q437.4060000000001 -1.3499999999999999 438.4500000000001 -1.3499999999999999Q438.9540000000001 -1.3499999999999999 439.27800000000013 -1.674Q439.60200000000015 -1.9979999999999998 439.71000000000015 -2.61Q439.8180000000001 -3.15 439.8180000000001 -3.8699999999999997Q439.8180000000001 -4.6259999999999994 439.67400000000015 -5.202Q439.5480000000001 -5.742 439.2330000000001 -6.029999999999999Q438.9180000000001 -6.318 438.4500000000001 -6.318Q437.38800000000015 -6.318 437.13600000000014 -5.292Q437.0820000000001 -5.13 436.9380000000001 -5.13H435.55200000000013Q435.3720000000001 -5.13 435.3720000000001 -5.31V-12.42Q435.3720000000001 -12.6 435.55200000000013 -12.6H441.11400000000015Q441.2940000000001 -12.6 441.2940000000001 -12.42V-11.286Q441.2940000000001 -11.106 441.11400000000015 -11.106H437.17200000000014Q437.10000000000014 -11.106 437.10000000000014 -11.033999999999999V-7.074Q437.10000000000014 -7.037999999999999 437.1270000000001 -7.029Q437.1540000000001 -7.02 437.1900000000001 -7.055999999999999Q437.4780000000001 -7.4159999999999995 437.9280000000001 -7.622999999999999Q438.3780000000001 -7.829999999999999 438.93600000000015 -7.829999999999999Q439.9620000000001 -7.829999999999999 440.6010000000001 -7.190999999999999Q441.2400000000001 -6.552 441.4020000000001 -5.382Q441.5460000000001 -4.6979999999999995 441.5460000000001 -3.8699999999999997Z M452.1060000000001 -3.8699999999999997Q452.1060000000001 -3.186 452.01600000000013 -2.502Q451.8900000000001 -1.224 451.0980000000001 -0.54Q450.30600000000015 0.144 449.0100000000001 0.144Q447.7500000000001 0.144 446.9760000000001 -0.522Q446.2020000000001 -1.188 446.00400000000013 -2.502L445.9500000000001 -3.042Q445.9500000000001 -3.222 446.1300000000001 -3.222H447.4980000000001Q447.6780000000001 -3.222 447.6780000000001 -3.042L447.73200000000014 -2.646Q447.9660000000001 -1.3499999999999999 449.0100000000001 -1.3499999999999999Q449.5140000000001 -1.3499999999999999 449.83800000000014 -1.674Q450.16200000000015 -1.9979999999999998 450.27000000000015 -2.61Q450.3780000000001 -3.15 450.3780000000001 -3.8699999999999997Q450.3780000000001 -4.6259999999999994 450.23400000000015 -5.202Q450.1080000000001 -5.742 449.7930000000001 -6.029999999999999Q449.4780000000001 -6.318 449.0100000000001 -6.318Q447.94800000000015 -6.318 447.69600000000014 -5.292Q447.6420000000001 -5.13 447.4980000000001 -5.13H446.11200000000014Q445.93200000000013 -5.13 445.93200000000013 -5.31V-12.42Q445.93200000000013 -12.6 446.11200000000014 -12.6H451.67400000000015Q451.85400000000016 -12.6 451.85400000000016 -12.42V-11.286Q451.85400000000016 -11.106 451.67400000000015 -11.106H447.73200000000014Q447.66000000000014 -11.106 447.66000000000014 -11.033999999999999V-7.074Q447.66000000000014 -7.037999999999999 447.6870000000001 -7.029Q447.7140000000001 -7.02 447.7500000000001 -7.055999999999999Q448.0380000000001 -7.4159999999999995 448.4880000000001 -7.622999999999999Q448.9380000000001 -7.829999999999999 449.49600000000015 -7.829999999999999Q450.5220000000001 -7.829999999999999 451.1610000000001 -7.190999999999999Q451.8000000000001 -6.552 451.9620000000001 -5.382Q452.1060000000001 -4.6979999999999995 452.1060000000001 -3.8699999999999997Z M468.92400000000015 -2.988Q468.92400000000015 -1.5659999999999998 468.07800000000015 -0.711Q467.23200000000014 0.144 465.8460000000002 0.144Q464.56800000000015 0.144 463.74900000000014 -0.711Q462.9300000000002 -1.5659999999999998 462.9300000000002 -2.988V-3.384Q462.9300000000002 -3.5639999999999996 463.1100000000001 -3.5639999999999996H464.4780000000002Q464.65800000000013 -3.5639999999999996 464.65800000000013 -3.384V-3.0599999999999996Q464.65800000000013 -2.34 465.0000000000001 -1.8719999999999999Q465.34200000000016 -1.404 465.8460000000002 -1.404Q466.44000000000017 -1.404 466.8090000000002 -1.8629999999999998Q467.17800000000017 -2.3219999999999996 467.17800000000017 -3.0599999999999996V-5.04Q467.17800000000017 -5.13 467.08800000000014 -5.076Q466.56600000000014 -4.553999999999999 465.77400000000017 -4.553999999999999Q464.56800000000015 -4.553999999999999 463.7850000000002 -5.318999999999999Q463.0020000000002 -6.084 462.8580000000002 -7.326Q462.75000000000017 -7.919999999999999 462.75000000000017 -8.729999999999999Q462.75000000000017 -9.414 462.80400000000014 -9.972Q462.91200000000015 -11.303999999999998 463.7040000000002 -12.024Q464.49600000000015 -12.744 465.82800000000015 -12.744Q467.07000000000016 -12.744 467.84400000000016 -12.078Q468.61800000000017 -11.411999999999999 468.7980000000002 -10.116Q468.9060000000002 -9.575999999999999 468.9060000000002 -8.856ZM467.17800000000017 -8.622Q467.17800000000017 -9.324 467.10600000000017 -9.918Q466.85400000000016 -11.25 465.8460000000002 -11.25Q465.3240000000001 -11.25 464.9910000000001 -10.89Q464.65800000000013 -10.53 464.5500000000001 -9.828Q464.49600000000015 -9.18 464.49600000000015 -8.622Q464.49600000000015 -7.9559999999999995 464.60400000000016 -7.217999999999999Q464.85600000000017 -6.047999999999999 465.8460000000002 -6.047999999999999Q466.8360000000001 -6.047999999999999 467.08800000000014 -7.271999999999999Q467.17800000000017 -7.866 467.17800000000017 -8.622Z M479.37600000000015 -2.988Q479.37600000000015 -1.5659999999999998 478.53000000000014 -0.711Q477.68400000000014 0.144 476.2980000000002 0.144Q475.02000000000015 0.144 474.20100000000014 -0.711Q473.3820000000002 -1.5659999999999998 473.3820000000002 -2.988V-3.384Q473.3820000000002 -3.5639999999999996 473.5620000000001 -3.5639999999999996H474.9300000000002Q475.1100000000001 -3.5639999999999996 475.1100000000001 -3.384V-3.0599999999999996Q475.1100000000001 -2.34 475.4520000000001 -1.8719999999999999Q475.79400000000015 -1.404 476.2980000000002 -1.404Q476.89200000000017 -1.404 477.2610000000002 -1.8629999999999998Q477.63000000000017 -2.3219999999999996 477.63000000000017 -3.0599999999999996V-5.04Q477.63000000000017 -5.13 477.54000000000013 -5.076Q477.01800000000014 -4.553999999999999 476.22600000000017 -4.553999999999999Q475.02000000000015 -4.553999999999999 474.2370000000002 -5.318999999999999Q473.4540000000002 -6.084 473.3100000000002 -7.326Q473.20200000000017 -7.919999999999999 473.20200000000017 -8.729999999999999Q473.20200000000017 -9.414 473.25600000000014 -9.972Q473.36400000000015 -11.303999999999998 474.1560000000002 -12.024Q474.94800000000015 -12.744 476.28000000000014 -12.744Q477.52200000000016 -12.744 478.29600000000016 -12.078Q479.07000000000016 -11.411999999999999 479.25000000000017 -10.116Q479.3580000000002 -9.575999999999999 479.3580000000002 -8.856ZM477.63000000000017 -8.622Q477.63000000000017 -9.324 477.55800000000016 -9.918Q477.30600000000015 -11.25 476.2980000000002 -11.25Q475.7760000000001 -11.25 475.4430000000001 -10.89Q475.1100000000001 -10.53 475.0020000000001 -9.828Q474.94800000000015 -9.18 474.94800000000015 -8.622Q474.94800000000015 -7.9559999999999995 475.05600000000015 -7.217999999999999Q475.30800000000016 -6.047999999999999 476.2980000000002 -6.047999999999999Q477.2880000000001 -6.047999999999999 477.54000000000013 -7.271999999999999Q477.63000000000017 -7.866 477.63000000000017 -8.622Z M492.0360000000002 -12.6H493.47600000000017Q493.6560000000002 -12.6 493.6560000000002 -12.42V-0.18Q493.6560000000002 0.0 493.47600000000017 0.0H492.1080000000002Q491.92800000000017 0.0 491.92800000000017 -0.18V-10.709999999999999Q491.92800000000017 -10.745999999999999 491.9010000000002 -10.773Q491.8740000000002 -10.799999999999999 491.85600000000017 -10.782L490.2540000000002 -10.367999999999999L490.1820000000002 -10.35Q490.0740000000002 -10.35 490.0380000000002 -10.511999999999999L489.9660000000002 -11.52Q489.9660000000002 -11.681999999999999 490.09200000000016 -11.735999999999999L491.82000000000016 -12.546Q491.92800000000017 -12.6 492.0360000000002 -12.6Z M504.2160000000002 -2.988Q504.2160000000002 -1.5659999999999998 503.3700000000002 -0.711Q502.52400000000017 0.144 501.1380000000002 0.144Q499.8600000000002 0.144 499.04100000000017 -0.711Q498.2220000000002 -1.5659999999999998 498.2220000000002 -2.988V-3.384Q498.2220000000002 -3.5639999999999996 498.40200000000016 -3.5639999999999996H499.7700000000002Q499.95000000000016 -3.5639999999999996 499.95000000000016 -3.384V-3.0599999999999996Q499.95000000000016 -2.34 500.29200000000014 -1.8719999999999999Q500.6340000000002 -1.404 501.1380000000002 -1.404Q501.7320000000002 -1.404 502.1010000000002 -1.8629999999999998Q502.4700000000002 -2.3219999999999996 502.4700000000002 -3.0599999999999996V-5.04Q502.4700000000002 -5.13 502.38000000000017 -5.076Q501.8580000000002 -4.553999999999999 501.0660000000002 -4.553999999999999Q499.8600000000002 -4.553999999999999 499.0770000000002 -5.318999999999999Q498.2940000000002 -6.084 498.1500000000002 -7.326Q498.0420000000002 -7.919999999999999 498.0420000000002 -8.729999999999999Q498.0420000000002 -9.414 498.0960000000002 -9.972Q498.2040000000002 -11.303999999999998 498.9960000000002 -12.024Q499.7880000000002 -12.744 501.1200000000002 -12.744Q502.3620000000002 -12.744 503.1360000000002 -12.078Q503.9100000000002 -11.411999999999999 504.0900000000002 -10.116Q504.1980000000002 -9.575999999999999 504.1980000000002 -8.856ZM502.4700000000002 -8.622Q502.4700000000002 -9.324 502.3980000000002 -9.918Q502.1460000000002 -11.25 501.1380000000002 -11.25Q500.61600000000016 -11.25 500.28300000000013 -10.89Q499.95000000000016 -10.53 499.84200000000016 -9.828Q499.7880000000002 -9.18 499.7880000000002 -8.622Q499.7880000000002 -7.9559999999999995 499.8960000000002 -7.217999999999999Q500.1480000000002 -6.047999999999999 501.1380000000002 -6.047999999999999Q502.12800000000016 -6.047999999999999 502.38000000000017 -7.271999999999999Q502.4700000000002 -7.866 502.4700000000002 -8.622Z M521.3400000000003 -3.8699999999999997Q521.3400000000003 -2.9699999999999998 521.1780000000002 -2.2319999999999998Q520.9260000000002 -1.0799999999999998 520.2240000000002 -0.4679999999999999Q519.5220000000002 0.144 518.2980000000002 0.144Q517.0380000000002 0.144 516.2370000000002 -0.54Q515.4360000000001 -1.224 515.2920000000003 -2.412Q515.2020000000002 -3.078 515.2020000000002 -3.6899999999999995Q515.2020000000002 -3.8699999999999997 515.3820000000002 -3.8699999999999997H516.7500000000002Q516.9300000000002 -3.8699999999999997 516.9300000000002 -3.6899999999999995Q516.9660000000002 -2.952 517.0200000000002 -2.646Q517.1280000000002 -2.034 517.4610000000002 -1.7009999999999998Q517.7940000000002 -1.3679999999999999 518.2980000000002 -1.3679999999999999Q519.3060000000002 -1.3679999999999999 519.5760000000002 -2.538Q519.6840000000002 -3.222 519.6840000000002 -4.05Q519.6840000000002 -5.021999999999999 519.5220000000002 -5.742Q519.3780000000002 -6.2459999999999996 519.0630000000001 -6.5249999999999995Q518.7480000000002 -6.803999999999999 518.2980000000002 -6.803999999999999Q518.0640000000002 -6.803999999999999 517.8120000000002 -6.6419999999999995Q517.7580000000002 -6.587999999999999 517.6860000000001 -6.587999999999999Q517.6140000000003 -6.587999999999999 517.5600000000002 -6.659999999999999L516.8760000000002 -7.361999999999999Q516.7860000000002 -7.4879999999999995 516.8580000000002 -7.613999999999999L519.1980000000002 -11.016Q519.2160000000002 -11.033999999999999 519.1980000000002 -11.07Q519.1800000000002 -11.106 519.1440000000002 -11.106H515.5080000000002Q515.3280000000002 -11.106 515.3280000000002 -11.286V-12.42Q515.3280000000002 -12.6 515.5080000000002 -12.6H521.1240000000003Q521.3040000000002 -12.6 521.3040000000002 -12.42V-11.232Q521.3040000000002 -11.088 521.2320000000002 -10.998L519.1260000000002 -7.901999999999999Q519.0720000000002 -7.847999999999999 519.1620000000001 -7.811999999999999Q519.8820000000002 -7.704 520.3950000000002 -7.137Q520.9080000000002 -6.569999999999999 521.1420000000002 -5.688Q521.3400000000003 -4.806 521.3400000000003 -3.8699999999999997Z M526.8600000000002 -0.19799999999999998 529.9020000000002 -11.033999999999999Q529.9200000000002 -11.052 529.8930000000003 -11.079Q529.8660000000002 -11.106 529.8300000000002 -11.106H526.9860000000002Q526.9140000000002 -11.106 526.9140000000002 -11.033999999999999V-10.314Q526.9140000000002 -10.133999999999999 526.7340000000002 -10.133999999999999H525.6720000000003Q525.4920000000002 -10.133999999999999 525.4920000000002 -10.314L525.5100000000002 -12.42Q525.5100000000002 -12.6 525.6900000000002 -12.6H531.5580000000002Q531.7380000000002 -12.6 531.7380000000002 -12.42V-11.213999999999999Q531.7380000000002 -11.177999999999999 531.7020000000002 -10.998L528.6600000000002 -0.144Q528.6240000000003 0.0 528.4620000000002 0.0H527.0220000000002Q526.9320000000002 0.0 526.8870000000002 -0.05399999999999999Q526.8420000000002 -0.10799999999999998 526.8600000000002 -0.19799999999999998Z" fill="#8A8078"/>
  </g>

</svg>
