<?xml version="1.0" encoding="UTF-8"?>
<svg xmlns="http://www.w3.org/2000/svg" viewBox="0 0 1000 180" width="1000" height="180" preserveAspectRatio="xMidYMid meet">
  <title>GAMEDOOR.41 Fond creme</title>
  <rect width="1000" height="180" fill="#F0EBE2"/>
  <g transform="translate(237.78, 126.00)">
    <path d="M2.2 -21.56V-55.55Q2.2 -65.78 8.8 -71.83Q15.4 -77.88 26.29 -77.88Q33.44 -77.88 38.885 -75.13Q44.33 -72.38 47.355000000000004 -67.265Q50.38 -62.15 50.38 -55.33V-51.7Q50.38 -50.93 49.94 -50.489999999999995Q49.5 -50.05 48.73 -50.05H31.35Q30.580000000000002 -50.05 30.14 -50.489999999999995Q29.7 -50.93 29.7 -51.7V-55.55Q29.7 -57.64 28.765 -58.905Q27.830000000000002 -60.17 26.29 -60.17Q24.75 -60.17 23.814999999999998 -58.905Q22.88 -57.64 22.88 -55.55V-21.45Q22.88 -19.36 23.814999999999998 -18.095Q24.75 -16.830000000000002 26.29 -16.830000000000002Q27.830000000000002 -16.830000000000002 28.765 -18.095Q29.7 -19.36 29.7 -21.45V-26.84Q29.7 -27.5 29.04 -27.5H28.16Q27.39 -27.5 26.950000000000003 -27.939999999999998Q26.51 -28.38 26.51 -29.15V-41.8Q26.51 -42.57 26.950000000000003 -43.010000000000005Q27.39 -43.45 28.16 -43.45H48.73Q49.5 -43.45 49.94 -43.010000000000005Q50.38 -42.57 50.38 -41.8V-21.56Q50.38 -14.85 47.355000000000004 -9.735Q44.33 -4.62 38.885 -1.87Q33.44 0.88 26.29 0.88Q15.4 0.88 8.8 -5.225Q2.2 -11.33 2.2 -21.56Z M86.33 -1.54 85.12 -9.790000000000001Q85.12 -10.01 84.9 -10.23Q84.68 -10.45 84.35 -10.45H74.67Q74.34 -10.45 74.12 -10.23Q73.9 -10.01 73.9 -9.790000000000001L72.8 -1.54Q72.69 0.0 71.03999999999999 0.0H53.769999999999996Q52.01 0.0 52.339999999999996 -1.76L67.96 -75.57000000000001Q68.28999999999999 -77.0 69.83 -77.0H89.85Q91.39 -77.0 91.72 -75.57000000000001L107.34 -1.76V-1.32Q107.34 0.0 105.8 0.0H88.09Q86.44 0.0 86.33 -1.54ZM76.87 -26.29H82.03999999999999Q82.81 -26.29 82.59 -26.95L79.62 -46.75Q79.50999999999999 -47.19 79.28999999999999 -47.19Q79.07 -47.19 78.96 -46.75L76.32 -26.95Q76.32 -26.29 76.87 -26.29Z M148.13 -77.0H165.29000000000002Q166.06 -77.0 166.5 -76.56Q166.94 -76.12 166.94 -75.35V-1.65Q166.94 -0.88 166.5 -0.44Q166.06 0.0 165.29000000000002 0.0H147.91000000000003Q147.14000000000001 0.0 146.70000000000002 -0.44Q146.26000000000002 -0.88 146.26000000000002 -1.65V-46.42Q146.26000000000002 -46.86 145.985 -46.97Q145.71 -47.08 145.49 -46.64L139.22 -36.08L138.12 -34.1H138.01000000000002L130.75 -46.64Q130.53 -47.08 130.255 -47.025Q129.98000000000002 -46.97 129.98000000000002 -46.42V-1.65Q129.98000000000002 -0.88 129.54000000000002 -0.44Q129.10000000000002 0.0 128.33 0.0H110.95Q110.18 0.0 109.74000000000001 -0.44Q109.30000000000001 -0.88 109.30000000000001 -1.65V-75.35Q109.30000000000001 -76.12 109.74000000000001 -76.56Q110.18 -77.0 110.95 -77.0H128.11Q129.54000000000002 -77.0 130.09 -75.79L137.79000000000002 -61.71Q138.01000000000002 -61.38 138.28500000000003 -61.325Q138.56 -61.27 138.67000000000002 -61.71L146.15 -75.79Q146.81 -77.0 148.13 -77.0Z M212.46 -59.29H191.45Q190.79 -59.29 190.79 -58.63V-48.07Q190.79 -47.410000000000004 191.45 -47.410000000000004H202.34Q203.11 -47.410000000000004 203.55 -46.97Q203.99 -46.53 203.99 -45.76V-31.35Q203.99 -30.580000000000002 203.55 -30.14Q203.11 -29.7 202.34 -29.7H191.45Q190.79 -29.7 190.79 -29.04V-18.37Q190.79 -17.71 191.45 -17.71H212.46Q213.23 -17.71 213.67000000000002 -17.270000000000003Q214.11 -16.830000000000002 214.11 -16.06V-1.65Q214.11 -0.88 213.67000000000002 -0.44Q213.23 0.0 212.46 0.0H171.76Q170.99 0.0 170.55 -0.44Q170.11 -0.88 170.11 -1.65V-75.35Q170.11 -76.12 170.55 -76.56Q170.99 -77.0 171.76 -77.0H212.46Q213.23 -77.0 213.67000000000002 -76.56Q214.11 -76.12 214.11 -75.35V-60.94Q214.11 -60.17 213.67000000000002 -59.730000000000004Q213.23 -59.29 212.46 -59.29Z M222.78 -1.1V-75.9Q222.78 -77.0 223.88 -77.0H240.05Q248.19 -77.0 252.92 -71.555Q257.65 -66.11 257.65 -56.76V-20.24Q257.65 -10.89 252.92 -5.445Q248.19 0.0 240.05 0.0H223.88Q222.78 0.0 222.78 -1.1ZM229.05 -5.17H240.05Q245.44 -5.28 248.575 -9.295Q251.71 -13.31 251.71 -20.35V-56.54Q251.71 -63.69 248.575 -67.75999999999999Q245.44 -71.83 239.94 -71.83H229.05Q228.61 -71.83 228.61 -71.39V-5.61Q228.61 -5.17 229.05 -5.17Z M269.72999999999996 -17.6V-59.29Q269.72999999999996 -67.65 274.67999999999995 -72.765Q279.63 -77.88 287.77 -77.88Q295.90999999999997 -77.88 300.96999999999997 -72.765Q306.03 -67.65 306.03 -59.29V-17.6Q306.03 -9.35 300.96999999999997 -4.234999999999999Q295.90999999999997 0.88 287.77 0.88Q279.74 0.88 274.735 -4.234999999999999Q269.72999999999996 -9.35 269.72999999999996 -17.6ZM300.2 -17.38V-59.51Q300.2 -65.34 296.735 -69.025Q293.27 -72.71 287.77 -72.71Q282.38 -72.71 278.97 -69.025Q275.56 -65.34 275.56 -59.51V-17.38Q275.56 -11.55 278.97 -7.92Q282.38 -4.29 287.77 -4.29Q293.27 -4.29 296.735 -7.92Q300.2 -11.55 300.2 -17.38Z M317.34 -17.6V-59.29Q317.34 -67.65 322.28999999999996 -72.765Q327.24 -77.88 335.38 -77.88Q343.52 -77.88 348.58 -72.765Q353.64 -67.65 353.64 -59.29V-17.6Q353.64 -9.35 348.58 -4.234999999999999Q343.52 0.88 335.38 0.88Q327.35 0.88 322.345 -4.234999999999999Q317.34 -9.35 317.34 -17.6ZM347.81 -17.38V-59.51Q347.81 -65.34 344.345 -69.025Q340.88 -72.71 335.38 -72.71Q329.99 -72.71 326.58000000000004 -69.025Q323.17 -65.34 323.17 -59.51V-17.38Q323.17 -11.55 326.58000000000004 -7.92Q329.99 -4.29 335.38 -4.29Q340.88 -4.29 344.345 -7.92Q347.81 -11.55 347.81 -17.38Z M396.63 -0.88 384.53000000000003 -35.75Q384.42 -36.08 384.09000000000003 -36.08H373.2Q372.76 -36.08 372.76 -35.64V-1.1Q372.76 0.0 371.66 0.0H368.03000000000003Q366.93 0.0 366.93 -1.1V-75.9Q366.93 -77.0 368.03000000000003 -77.0H385.08Q392.78000000000003 -77.0 397.51 -71.28Q402.24 -65.56 402.24 -56.32Q402.24 -48.95 399.05 -43.78Q395.86 -38.61 390.36 -36.74Q389.92 -36.63 390.03000000000003 -36.19L402.46000000000004 -1.21L402.57 -0.77Q402.57 0.0 401.58000000000004 0.0H397.95Q396.96000000000004 0.0 396.63 -0.88ZM372.76 -71.39V-41.36Q372.76 -40.92 373.2 -40.92H384.42Q389.81 -40.92 393.11 -45.155Q396.41 -49.39 396.41 -56.32Q396.41 -63.36 393.11 -67.595Q389.81 -71.83 384.42 -71.83H373.2Q372.76 -71.83 372.76 -71.39Z" fill="#0E0B08"/>
    <circle cx="415.00" cy="-33.00" r="11.00" fill="#E07020"/>
    <path d="M492.22 -35.42V-20.02Q492.22 -19.25 491.78000000000003 -18.810000000000002Q491.34000000000003 -18.37 490.57 -18.37H487.27Q486.61 -18.37 486.61 -17.71V-1.65Q486.61 -0.88 486.17 -0.44Q485.73 0.0 484.96000000000004 0.0H467.58000000000004Q466.81 0.0 466.37 -0.44Q465.93 -0.88 465.93 -1.65V-17.71Q465.93 -18.37 465.27 -18.37H437.33Q436.56 -18.37 436.12 -18.810000000000002Q435.68 -19.25 435.68 -20.02V-32.23Q435.68 -33.22 436.01 -34.21L449.32 -75.68Q449.76 -77.0 451.19 -77.0H469.78000000000003Q470.66 -77.0 471.045 -76.505Q471.43 -76.01 471.21000000000004 -75.13L459.88 -37.84Q459.77 -37.07 460.43 -37.07H465.27Q465.93 -37.07 465.93 -37.73V-45.21Q465.93 -45.98 466.37 -46.42Q466.81 -46.86 467.58000000000004 -46.86H484.96000000000004Q485.73 -46.86 486.17 -46.42Q486.61 -45.98 486.61 -45.21V-37.73Q486.61 -37.07 487.27 -37.07H490.57Q491.34000000000003 -37.07 491.78000000000003 -36.629999999999995Q492.22 -36.19 492.22 -35.42Z M502.54 -77.0H520.58Q521.35 -77.0 521.79 -76.56Q522.23 -76.12 522.23 -75.35V-1.65Q522.23 -0.88 521.79 -0.44Q521.35 0.0 520.58 0.0H503.20000000000005Q502.43 0.0 501.99 -0.44Q501.55 -0.88 501.55 -1.65V-57.53Q501.55 -58.19 500.89000000000004 -58.19H493.63Q492.86 -58.19 492.42 -58.629999999999995Q491.98 -59.07 491.98 -59.84V-72.6Q491.98 -74.03 493.3 -74.47L500.56 -76.67Q501.55 -77.0 502.54 -77.0Z" fill="#E07020"/>
  </g>
</svg>
