<?xml version="1.0" encoding="UTF-8"?>
<svg xmlns="http://www.w3.org/2000/svg" viewBox="0 0 1000 240" width="1000" height="240" preserveAspectRatio="xMidYMid meet">
  <title>GAMEDOOR.41 BUZZ YOUR BRAIN</title>
  <defs>
    <linearGradient id="bg" x1="0%" y1="0%" x2="100%" y2="100%">
      <stop offset="0%" stop-color="#0C0800"/>
      <stop offset="100%" stop-color="#081218"/>
    </linearGradient>
  </defs>
  <rect width="1000" height="240" fill="url(#bg)"/>
  <g transform="translate(262.35, 110.00)">
    <path d="M2.0 -19.6V-50.5Q2.0 -59.800000000000004 8.0 -65.3Q14.0 -70.8 23.900000000000002 -70.8Q30.400000000000002 -70.8 35.35 -68.3Q40.300000000000004 -65.8 43.050000000000004 -61.15Q45.800000000000004 -56.5 45.800000000000004 -50.300000000000004V-47.0Q45.800000000000004 -46.300000000000004 45.400000000000006 -45.900000000000006Q45.0 -45.5 44.300000000000004 -45.5H28.5Q27.8 -45.5 27.4 -45.900000000000006Q27.0 -46.300000000000004 27.0 -47.0V-50.5Q27.0 -52.400000000000006 26.15 -53.550000000000004Q25.3 -54.7 23.900000000000002 -54.7Q22.5 -54.7 21.65 -53.550000000000004Q20.8 -52.400000000000006 20.8 -50.5V-19.5Q20.8 -17.6 21.65 -16.450000000000003Q22.5 -15.3 23.900000000000002 -15.3Q25.3 -15.3 26.15 -16.450000000000003Q27.0 -17.6 27.0 -19.5V-24.400000000000002Q27.0 -25.0 26.400000000000002 -25.0H25.6Q24.900000000000002 -25.0 24.5 -25.4Q24.1 -25.8 24.1 -26.5V-38.0Q24.1 -38.7 24.5 -39.1Q24.900000000000002 -39.5 25.6 -39.5H44.300000000000004Q45.0 -39.5 45.400000000000006 -39.1Q45.800000000000004 -38.7 45.800000000000004 -38.0V-19.6Q45.800000000000004 -13.5 43.050000000000004 -8.85Q40.300000000000004 -4.2 35.35 -1.7000000000000002Q30.400000000000002 0.8 23.900000000000002 0.8Q14.0 0.8 8.0 -4.75Q2.0 -10.3 2.0 -19.6Z M78.30000000000001 -1.4000000000000001 77.2 -8.9Q77.2 -9.1 77.0 -9.3Q76.80000000000001 -9.5 76.5 -9.5H67.7Q67.4 -9.5 67.2 -9.3Q67.0 -9.1 67.0 -8.9L66.0 -1.4000000000000001Q65.9 0.0 64.4 0.0H48.7Q47.1 0.0 47.400000000000006 -1.6L61.60000000000001 -68.7Q61.900000000000006 -70.0 63.300000000000004 -70.0H81.5Q82.9 -70.0 83.2 -68.7L97.4 -1.6V-1.2000000000000002Q97.4 0.0 96.0 0.0H79.9Q78.4 0.0 78.30000000000001 -1.4000000000000001ZM69.7 -23.900000000000002H74.4Q75.10000000000001 -23.900000000000002 74.9 -24.5L72.2 -42.5Q72.10000000000001 -42.900000000000006 71.9 -42.900000000000006Q71.7 -42.900000000000006 71.60000000000001 -42.5L69.2 -24.5Q69.2 -23.900000000000002 69.7 -23.900000000000002Z M134.3 -70.0H149.9Q150.60000000000002 -70.0 151.0 -69.6Q151.4 -69.2 151.4 -68.5V-1.5Q151.4 -0.8 151.0 -0.4Q150.60000000000002 0.0 149.9 0.0H134.10000000000002Q133.4 0.0 133.0 -0.4Q132.60000000000002 -0.8 132.60000000000002 -1.5V-42.2Q132.60000000000002 -42.6 132.35000000000002 -42.7Q132.10000000000002 -42.800000000000004 131.9 -42.400000000000006L126.2 -32.800000000000004L125.2 -31.0H125.10000000000001L118.5 -42.400000000000006Q118.30000000000001 -42.800000000000004 118.05000000000001 -42.75Q117.80000000000001 -42.7 117.80000000000001 -42.2V-1.5Q117.80000000000001 -0.8 117.4 -0.4Q117.0 0.0 116.30000000000001 0.0H100.5Q99.80000000000001 0.0 99.4 -0.4Q99.0 -0.8 99.0 -1.5V-68.5Q99.0 -69.2 99.4 -69.6Q99.80000000000001 -70.0 100.5 -70.0H116.10000000000001Q117.4 -70.0 117.9 -68.9L124.9 -56.1Q125.10000000000001 -55.800000000000004 125.35000000000001 -55.75Q125.60000000000001 -55.7 125.7 -56.1L132.5 -68.9Q133.10000000000002 -70.0 134.3 -70.0Z M192.6 -53.900000000000006H173.5Q172.9 -53.900000000000006 172.9 -53.300000000000004V-43.7Q172.9 -43.1 173.5 -43.1H183.4Q184.1 -43.1 184.5 -42.7Q184.9 -42.300000000000004 184.9 -41.6V-28.5Q184.9 -27.8 184.5 -27.4Q184.1 -27.0 183.4 -27.0H173.5Q172.9 -27.0 172.9 -26.400000000000002V-16.7Q172.9 -16.1 173.5 -16.1H192.6Q193.3 -16.1 193.7 -15.700000000000001Q194.1 -15.3 194.1 -14.600000000000001V-1.5Q194.1 -0.8 193.7 -0.4Q193.3 0.0 192.6 0.0H155.6Q154.9 0.0 154.5 -0.4Q154.1 -0.8 154.1 -1.5V-68.5Q154.1 -69.2 154.5 -69.6Q154.9 -70.0 155.6 -70.0H192.6Q193.3 -70.0 193.7 -69.6Q194.1 -69.2 194.1 -68.5V-55.400000000000006Q194.1 -54.7 193.7 -54.300000000000004Q193.3 -53.900000000000006 192.6 -53.900000000000006Z M201.8 -1.0V-69.0Q201.8 -70.0 202.8 -70.0H217.5Q224.9 -70.0 229.2 -65.05Q233.5 -60.1 233.5 -51.6V-18.400000000000002Q233.5 -9.9 229.2 -4.95Q224.9 0.0 217.5 0.0H202.8Q201.8 0.0 201.8 -1.0ZM207.5 -4.7H217.5Q222.4 -4.800000000000001 225.25 -8.450000000000001Q228.10000000000002 -12.100000000000001 228.10000000000002 -18.5V-51.400000000000006Q228.10000000000002 -57.900000000000006 225.25 -61.6Q222.4 -65.3 217.4 -65.3H207.5Q207.1 -65.3 207.1 -64.9V-5.1000000000000005Q207.1 -4.7 207.5 -4.7Z M244.3 -16.0V-53.900000000000006Q244.3 -61.5 248.8 -66.15Q253.3 -70.8 260.70000000000005 -70.8Q268.1 -70.8 272.70000000000005 -66.15Q277.3 -61.5 277.3 -53.900000000000006V-16.0Q277.3 -8.5 272.70000000000005 -3.85Q268.1 0.8 260.70000000000005 0.8Q253.4 0.8 248.85000000000002 -3.85Q244.3 -8.5 244.3 -16.0ZM272.0 -15.8V-54.1Q272.0 -59.400000000000006 268.85 -62.75000000000001Q265.70000000000005 -66.10000000000001 260.70000000000005 -66.10000000000001Q255.8 -66.10000000000001 252.70000000000002 -62.75000000000001Q249.60000000000002 -59.400000000000006 249.60000000000002 -54.1V-15.8Q249.60000000000002 -10.5 252.70000000000002 -7.2Q255.8 -3.9000000000000004 260.70000000000005 -3.9000000000000004Q265.70000000000005 -3.9000000000000004 268.85 -7.2Q272.0 -10.5 272.0 -15.8Z M287.40000000000003 -16.0V-53.900000000000006Q287.40000000000003 -61.5 291.90000000000003 -66.15Q296.40000000000003 -70.8 303.8 -70.8Q311.2 -70.8 315.8 -66.15Q320.40000000000003 -61.5 320.40000000000003 -53.900000000000006V-16.0Q320.40000000000003 -8.5 315.8 -3.85Q311.2 0.8 303.8 0.8Q296.5 0.8 291.95000000000005 -3.85Q287.40000000000003 -8.5 287.40000000000003 -16.0ZM315.1 -15.8V-54.1Q315.1 -59.400000000000006 311.95000000000005 -62.75000000000001Q308.8 -66.10000000000001 303.8 -66.10000000000001Q298.90000000000003 -66.10000000000001 295.8 -62.75000000000001Q292.7 -59.400000000000006 292.7 -54.1V-15.8Q292.7 -10.5 295.8 -7.2Q298.90000000000003 -3.9000000000000004 303.8 -3.9000000000000004Q308.8 -3.9000000000000004 311.95000000000005 -7.2Q315.1 -10.5 315.1 -15.8Z M359.3 -0.8 348.3 -32.5Q348.20000000000005 -32.800000000000004 347.90000000000003 -32.800000000000004H338.00000000000006Q337.6 -32.800000000000004 337.6 -32.4V-1.0Q337.6 0.0 336.6 0.0H333.3Q332.3 0.0 332.3 -1.0V-69.0Q332.3 -70.0 333.3 -70.0H348.8Q355.8 -70.0 360.1 -64.8Q364.40000000000003 -59.6 364.40000000000003 -51.2Q364.40000000000003 -44.5 361.5 -39.8Q358.6 -35.1 353.6 -33.4Q353.20000000000005 -33.300000000000004 353.3 -32.9L364.6 -1.1L364.70000000000005 -0.7000000000000001Q364.70000000000005 0.0 363.80000000000007 0.0H360.50000000000006Q359.6 0.0 359.3 -0.8ZM337.6 -64.9V-37.6Q337.6 -37.2 338.00000000000006 -37.2H348.20000000000005Q353.1 -37.2 356.1 -41.050000000000004Q359.1 -44.900000000000006 359.1 -51.2Q359.1 -57.6 356.1 -61.45Q353.1 -65.3 348.20000000000005 -65.3H338.00000000000006Q337.6 -65.3 337.6 -64.9Z" fill="#F0EBE2"/>
    <circle cx="376.00" cy="-30.00" r="10.00" fill="#00e5ff"/>
    <path d="M446.20000000000005 -32.2V-18.2Q446.20000000000005 -17.5 445.80000000000007 -17.1Q445.4000000000001 -16.7 444.70000000000005 -16.7H441.70000000000005Q441.1000000000001 -16.7 441.1000000000001 -16.1V-1.5Q441.1000000000001 -0.8 440.70000000000005 -0.4Q440.30000000000007 0.0 439.6000000000001 0.0H423.80000000000007Q423.1000000000001 0.0 422.70000000000005 -0.4Q422.30000000000007 -0.8 422.30000000000007 -1.5V-16.1Q422.30000000000007 -16.7 421.70000000000005 -16.7H396.30000000000007Q395.6000000000001 -16.7 395.20000000000005 -17.1Q394.80000000000007 -17.5 394.80000000000007 -18.2V-29.3Q394.80000000000007 -30.200000000000003 395.1000000000001 -31.1L407.20000000000005 -68.8Q407.6000000000001 -70.0 408.90000000000003 -70.0H425.80000000000007Q426.6000000000001 -70.0 426.95000000000005 -69.55000000000001Q427.30000000000007 -69.10000000000001 427.1000000000001 -68.3L416.80000000000007 -34.4Q416.70000000000005 -33.7 417.30000000000007 -33.7H421.70000000000005Q422.30000000000007 -33.7 422.30000000000007 -34.300000000000004V-41.1Q422.30000000000007 -41.800000000000004 422.70000000000005 -42.2Q423.1000000000001 -42.6 423.80000000000007 -42.6H439.6000000000001Q440.30000000000007 -42.6 440.70000000000005 -42.2Q441.1000000000001 -41.800000000000004 441.1000000000001 -41.1V-34.300000000000004Q441.1000000000001 -33.7 441.70000000000005 -33.7H444.70000000000005Q445.4000000000001 -33.7 445.80000000000007 -33.3Q446.20000000000005 -32.9 446.20000000000005 -32.2Z M455.40000000000003 -70.0H471.80000000000007Q472.50000000000006 -70.0 472.9000000000001 -69.6Q473.30000000000007 -69.2 473.30000000000007 -68.5V-1.5Q473.30000000000007 -0.8 472.9000000000001 -0.4Q472.50000000000006 0.0 471.80000000000007 0.0H456.00000000000006Q455.30000000000007 0.0 454.9000000000001 -0.4Q454.50000000000006 -0.8 454.50000000000006 -1.5V-52.300000000000004Q454.50000000000006 -52.900000000000006 453.90000000000003 -52.900000000000006H447.30000000000007Q446.6000000000001 -52.900000000000006 446.20000000000005 -53.300000000000004Q445.80000000000007 -53.7 445.80000000000007 -54.400000000000006V-66.0Q445.80000000000007 -67.3 447.00000000000006 -67.7L453.6000000000001 -69.7Q454.50000000000006 -70.0 455.40000000000003 -70.0Z" fill="#00e5ff"/>
  </g>
  <line x1="300" y1="155" x2="700" y2="155" stroke="#00e5ff" stroke-width="1" opacity="0.4"/>
  <g transform="translate(385.58, 195.00)">
    <path d="M5.736 0.0H1.728Q1.488 0.0 1.488 -0.24V-16.56Q1.488 -16.8 1.728 -16.8H5.4Q7.5840000000000005 -16.8 8.82 -15.66Q10.056000000000001 -14.52 10.056000000000001 -12.336Q10.056000000000001 -9.744 8.208 -8.76Q8.088000000000001 -8.688 8.184000000000001 -8.64Q9.144 -8.064 9.684000000000001 -7.032Q10.224 -6.0 10.224 -4.5840000000000005Q10.224 -2.4 8.988 -1.2Q7.752 0.0 5.736 0.0ZM3.7920000000000003 -14.712V-9.624Q3.7920000000000003 -9.528 3.888 -9.528H5.424Q6.5520000000000005 -9.528 7.176 -10.212Q7.8 -10.896 7.8 -12.120000000000001Q7.8 -13.392 7.176 -14.1Q6.5520000000000005 -14.808 5.424 -14.808H3.888Q3.7920000000000003 -14.808 3.7920000000000003 -14.712ZM7.92 -4.872Q7.92 -6.264 7.295999999999999 -7.0440000000000005Q6.672 -7.824 5.5680000000000005 -7.824H3.888Q3.7920000000000003 -7.824 3.7920000000000003 -7.728V-2.112Q3.7920000000000003 -2.016 3.888 -2.016H5.5440000000000005Q6.648000000000001 -2.016 7.284000000000001 -2.76Q7.92 -3.504 7.92 -4.872Z M18.312 -4.5600000000000005V-16.56Q18.312 -16.8 18.552000000000003 -16.8H20.376Q20.616000000000003 -16.8 20.616000000000003 -16.56V-4.32Q20.616000000000003 -3.192 21.180000000000003 -2.496Q21.744000000000003 -1.8 22.656000000000002 -1.8Q23.592000000000002 -1.8 24.156000000000002 -2.496Q24.720000000000002 -3.192 24.720000000000002 -4.32V-16.56Q24.720000000000002 -16.8 24.96 -16.8H26.784000000000002Q27.024 -16.8 27.024 -16.56V-4.5600000000000005Q27.024 -2.424 25.824 -1.1159999999999999Q24.624000000000002 0.192 22.656000000000002 0.192Q20.688000000000002 0.192 19.5 -1.1159999999999999Q18.312 -2.424 18.312 -4.5600000000000005Z M35.088 -0.24V-1.848Q35.088 -1.968 35.160000000000004 -2.136L40.728 -14.688Q40.752 -14.736 40.728 -14.772Q40.704 -14.808 40.656000000000006 -14.808H35.328Q35.088 -14.808 35.088 -15.048V-16.56Q35.088 -16.8 35.328 -16.8H42.984Q43.224000000000004 -16.8 43.224000000000004 -16.56V-14.952Q43.224000000000004 -14.856 43.152 -14.664L37.56 -2.112Q37.536 -2.064 37.56 -2.028Q37.584 -1.992 37.632000000000005 -1.992H42.984Q43.224000000000004 -1.992 43.224000000000004 -1.752V-0.24Q43.224000000000004 0.0 42.984 0.0H35.328Q35.088 0.0 35.088 -0.24Z M50.712 -0.24V-1.848Q50.712 -1.968 50.784000000000006 -2.136L56.352000000000004 -14.688Q56.376000000000005 -14.736 56.352000000000004 -14.772Q56.328 -14.808 56.28000000000001 -14.808H50.952000000000005Q50.712 -14.808 50.712 -15.048V-16.56Q50.712 -16.8 50.952000000000005 -16.8H58.608000000000004Q58.848000000000006 -16.8 58.848000000000006 -16.56V-14.952Q58.848000000000006 -14.856 58.776 -14.664L53.184000000000005 -2.112Q53.160000000000004 -2.064 53.184000000000005 -2.028Q53.208000000000006 -1.992 53.25600000000001 -1.992H58.608000000000004Q58.848000000000006 -1.992 58.848000000000006 -1.752V-0.24Q58.848000000000006 0.0 58.608000000000004 0.0H50.952000000000005Q50.712 0.0 50.712 -0.24Z M80.592 -0.264V-7.128L80.568 -7.248L77.232 -16.536L77.208 -16.632Q77.208 -16.8 77.42399999999999 -16.8H79.344Q79.56 -16.8 79.632 -16.608L81.672 -9.984Q81.696 -9.936 81.744 -9.936Q81.792 -9.936 81.816 -9.984L83.856 -16.608Q83.928 -16.8 84.14399999999999 -16.8H86.064Q86.328 -16.8 86.256 -16.536L82.92 -7.248L82.896 -7.128V-0.264Q82.896 -0.024 82.65599999999999 -0.024H80.832Q80.592 -0.024 80.592 -0.264Z M94.2 -4.2V-12.576Q94.2 -14.568 95.4 -15.780000000000001Q96.60000000000001 -16.992 98.568 -16.992Q100.56 -16.992 101.772 -15.780000000000001Q102.98400000000001 -14.568 102.98400000000001 -12.576V-4.2Q102.98400000000001 -2.208 101.772 -1.008Q100.56 0.192 98.568 0.192Q96.60000000000001 0.192 95.4 -1.008Q94.2 -2.208 94.2 -4.2ZM100.68 -4.104V-12.696Q100.68 -13.728 100.10400000000001 -14.364Q99.528 -15.0 98.568 -15.0Q97.632 -15.0 97.06800000000001 -14.364Q96.504 -13.728 96.504 -12.696V-4.104Q96.504 -3.072 97.06800000000001 -2.436Q97.632 -1.8 98.568 -1.8Q99.528 -1.8 100.10400000000001 -2.436Q100.68 -3.072 100.68 -4.104Z M111.50399999999999 -4.5600000000000005V-16.56Q111.50399999999999 -16.8 111.744 -16.8H113.568Q113.80799999999999 -16.8 113.80799999999999 -16.56V-4.32Q113.80799999999999 -3.192 114.37199999999999 -2.496Q114.93599999999999 -1.8 115.848 -1.8Q116.78399999999999 -1.8 117.34799999999998 -2.496Q117.91199999999999 -3.192 117.91199999999999 -4.32V-16.56Q117.91199999999999 -16.8 118.152 -16.8H119.976Q120.216 -16.8 120.216 -16.56V-4.5600000000000005Q120.216 -2.424 119.01599999999999 -1.1159999999999999Q117.816 0.192 115.848 0.192Q113.88 0.192 112.692 -1.1159999999999999Q111.50399999999999 -2.424 111.50399999999999 -4.5600000000000005Z M135.45600000000002 -0.192 133.248 -7.344Q133.224 -7.416 133.15200000000002 -7.416H131.472Q131.376 -7.416 131.376 -7.32V-0.24Q131.376 0.0 131.136 0.0H129.312Q129.072 0.0 129.072 -0.24V-16.56Q129.072 -16.8 129.312 -16.8H133.608Q134.832 -16.8 135.768 -16.2Q136.704 -15.6 137.22 -14.508Q137.736 -13.416 137.736 -12.024000000000001Q137.736 -10.512 137.112 -9.396Q136.488 -8.28 135.40800000000002 -7.776Q135.336 -7.704 135.36 -7.632000000000001L137.808 -0.264L137.832 -0.168Q137.832 0.0 137.616 0.0H135.744Q135.528 0.0 135.45600000000002 -0.192ZM131.376 -14.712V-9.336Q131.376 -9.24 131.472 -9.24H133.248Q134.232 -9.24 134.832 -9.996Q135.43200000000002 -10.752 135.43200000000002 -12.0Q135.43200000000002 -13.296000000000001 134.832 -14.052Q134.232 -14.808 133.248 -14.808H131.472Q131.376 -14.808 131.376 -14.712Z M160.99200000000002 0.0H156.98400000000004Q156.74400000000003 0.0 156.74400000000003 -0.24V-16.56Q156.74400000000003 -16.8 156.98400000000004 -16.8H160.65600000000003Q162.84000000000003 -16.8 164.07600000000002 -15.66Q165.31200000000004 -14.52 165.31200000000004 -12.336Q165.31200000000004 -9.744 163.46400000000003 -8.76Q163.34400000000002 -8.688 163.44000000000003 -8.64Q164.40000000000003 -8.064 164.94000000000003 -7.032Q165.48000000000002 -6.0 165.48000000000002 -4.5840000000000005Q165.48000000000002 -2.4 164.24400000000003 -1.2Q163.00800000000004 0.0 160.99200000000002 0.0ZM159.04800000000003 -14.712V-9.624Q159.04800000000003 -9.528 159.14400000000003 -9.528H160.68000000000004Q161.80800000000002 -9.528 162.43200000000002 -10.212Q163.05600000000004 -10.896 163.05600000000004 -12.120000000000001Q163.05600000000004 -13.392 162.43200000000002 -14.1Q161.80800000000002 -14.808 160.68000000000004 -14.808H159.14400000000003Q159.04800000000003 -14.808 159.04800000000003 -14.712ZM163.17600000000002 -4.872Q163.17600000000002 -6.264 162.55200000000002 -7.0440000000000005Q161.92800000000003 -7.824 160.82400000000004 -7.824H159.14400000000003Q159.04800000000003 -7.824 159.04800000000003 -7.728V-2.112Q159.04800000000003 -2.016 159.14400000000003 -2.016H160.80000000000004Q161.90400000000002 -2.016 162.54000000000002 -2.76Q163.17600000000002 -3.504 163.17600000000002 -4.872Z M180.07200000000006 -0.192 177.86400000000003 -7.344Q177.84000000000003 -7.416 177.76800000000006 -7.416H176.08800000000005Q175.99200000000005 -7.416 175.99200000000005 -7.32V-0.24Q175.99200000000005 0.0 175.75200000000004 0.0H173.92800000000005Q173.68800000000005 0.0 173.68800000000005 -0.24V-16.56Q173.68800000000005 -16.8 173.92800000000005 -16.8H178.22400000000005Q179.44800000000004 -16.8 180.38400000000004 -16.2Q181.32000000000005 -15.6 181.83600000000004 -14.508Q182.35200000000003 -13.416 182.35200000000003 -12.024000000000001Q182.35200000000003 -10.512 181.72800000000004 -9.396Q181.10400000000004 -8.28 180.02400000000006 -7.776Q179.95200000000006 -7.704 179.97600000000006 -7.632000000000001L182.42400000000004 -0.264L182.44800000000004 -0.168Q182.44800000000004 0.0 182.23200000000006 0.0H180.36000000000004Q180.14400000000003 0.0 180.07200000000006 -0.192ZM175.99200000000005 -14.712V-9.336Q175.99200000000005 -9.24 176.08800000000005 -9.24H177.86400000000003Q178.84800000000004 -9.24 179.44800000000004 -9.996Q180.04800000000006 -10.752 180.04800000000006 -12.0Q180.04800000000006 -13.296000000000001 179.44800000000004 -14.052Q178.84800000000004 -14.808 177.86400000000003 -14.808H176.08800000000005Q175.99200000000005 -14.808 175.99200000000005 -14.712Z M196.87200000000007 -0.216 196.34400000000005 -2.976Q196.34400000000005 -3.024 196.30800000000005 -3.048Q196.27200000000005 -3.072 196.22400000000005 -3.072H192.31200000000007Q192.26400000000007 -3.072 192.22800000000007 -3.048Q192.19200000000006 -3.024 192.19200000000006 -2.976L191.68800000000007 -0.216Q191.66400000000007 0.0 191.42400000000006 0.0H189.60000000000005Q189.48000000000005 0.0 189.42000000000007 -0.07200000000000001Q189.36000000000007 -0.14400000000000002 189.38400000000007 -0.264L192.96000000000006 -16.584Q193.00800000000007 -16.8 193.22400000000005 -16.8H195.36000000000007Q195.60000000000005 -16.8 195.62400000000005 -16.584L199.22400000000005 -0.264V-0.216Q199.22400000000005 0.0 199.00800000000007 0.0H197.13600000000005Q196.92000000000007 0.0 196.87200000000007 -0.216ZM192.67200000000005 -4.896H195.86400000000006Q195.93600000000006 -4.896 195.93600000000006 -4.992L194.30400000000006 -13.512Q194.28000000000006 -13.56 194.25600000000006 -13.56Q194.23200000000006 -13.56 194.20800000000006 -13.512L192.60000000000005 -4.992Q192.60000000000005 -4.896 192.67200000000005 -4.896Z M207.02400000000006 -0.24V-16.56Q207.02400000000006 -16.8 207.26400000000007 -16.8H209.08800000000005Q209.32800000000006 -16.8 209.32800000000006 -16.56V-0.24Q209.32800000000006 0.0 209.08800000000005 0.0H207.26400000000007Q207.02400000000006 0.0 207.02400000000006 -0.24Z M225.31200000000007 -16.8H227.11200000000005Q227.35200000000006 -16.8 227.35200000000006 -16.56V-0.24Q227.35200000000006 0.0 227.11200000000005 0.0H225.04800000000006Q224.85600000000005 0.0 224.78400000000005 -0.192L220.70400000000006 -11.16Q220.68000000000006 -11.208 220.63200000000006 -11.196000000000002Q220.58400000000006 -11.184000000000001 220.58400000000006 -11.136000000000001L220.60800000000006 -0.24Q220.60800000000006 0.0 220.36800000000005 0.0H218.54400000000007Q218.30400000000006 0.0 218.30400000000006 -0.24V-16.56Q218.30400000000006 -16.8 218.54400000000007 -16.8H220.58400000000006Q220.77600000000007 -16.8 220.84800000000007 -16.608L224.95200000000006 -5.64Q224.97600000000006 -5.5680000000000005 225.02400000000006 -5.58Q225.07200000000006 -5.5920000000000005 225.07200000000006 -5.664V-16.56Q225.07200000000006 -16.8 225.31200000000007 -16.8Z" fill="#00e5ff"/>
  </g>
</svg>
