<?xml version="1.0" encoding="UTF-8"?>
<svg xmlns="http://www.w3.org/2000/svg" viewBox="0 0 1000 240" width="1000" height="240" preserveAspectRatio="xMidYMid meet">
  <title>GAMEDOOR.41 BRAIN ESCAPE GAME</title>
  <defs>
    <linearGradient id="bg" x1="0%" y1="0%" x2="100%" y2="100%">
      <stop offset="0%" stop-color="#0C0800"/>
      <stop offset="100%" stop-color="#1A0808"/>
    </linearGradient>
  </defs>
  <rect width="1000" height="240" fill="url(#bg)"/>
  <g transform="translate(262.35, 110.00)">
    <path d="M2.0 -19.6V-50.5Q2.0 -59.800000000000004 8.0 -65.3Q14.0 -70.8 23.900000000000002 -70.8Q30.400000000000002 -70.8 35.35 -68.3Q40.300000000000004 -65.8 43.050000000000004 -61.15Q45.800000000000004 -56.5 45.800000000000004 -50.300000000000004V-47.0Q45.800000000000004 -46.300000000000004 45.400000000000006 -45.900000000000006Q45.0 -45.5 44.300000000000004 -45.5H28.5Q27.8 -45.5 27.4 -45.900000000000006Q27.0 -46.300000000000004 27.0 -47.0V-50.5Q27.0 -52.400000000000006 26.15 -53.550000000000004Q25.3 -54.7 23.900000000000002 -54.7Q22.5 -54.7 21.65 -53.550000000000004Q20.8 -52.400000000000006 20.8 -50.5V-19.5Q20.8 -17.6 21.65 -16.450000000000003Q22.5 -15.3 23.900000000000002 -15.3Q25.3 -15.3 26.15 -16.450000000000003Q27.0 -17.6 27.0 -19.5V-24.400000000000002Q27.0 -25.0 26.400000000000002 -25.0H25.6Q24.900000000000002 -25.0 24.5 -25.4Q24.1 -25.8 24.1 -26.5V-38.0Q24.1 -38.7 24.5 -39.1Q24.900000000000002 -39.5 25.6 -39.5H44.300000000000004Q45.0 -39.5 45.400000000000006 -39.1Q45.800000000000004 -38.7 45.800000000000004 -38.0V-19.6Q45.800000000000004 -13.5 43.050000000000004 -8.85Q40.300000000000004 -4.2 35.35 -1.7000000000000002Q30.400000000000002 0.8 23.900000000000002 0.8Q14.0 0.8 8.0 -4.75Q2.0 -10.3 2.0 -19.6Z M78.30000000000001 -1.4000000000000001 77.2 -8.9Q77.2 -9.1 77.0 -9.3Q76.80000000000001 -9.5 76.5 -9.5H67.7Q67.4 -9.5 67.2 -9.3Q67.0 -9.1 67.0 -8.9L66.0 -1.4000000000000001Q65.9 0.0 64.4 0.0H48.7Q47.1 0.0 47.400000000000006 -1.6L61.60000000000001 -68.7Q61.900000000000006 -70.0 63.300000000000004 -70.0H81.5Q82.9 -70.0 83.2 -68.7L97.4 -1.6V-1.2000000000000002Q97.4 0.0 96.0 0.0H79.9Q78.4 0.0 78.30000000000001 -1.4000000000000001ZM69.7 -23.900000000000002H74.4Q75.10000000000001 -23.900000000000002 74.9 -24.5L72.2 -42.5Q72.10000000000001 -42.900000000000006 71.9 -42.900000000000006Q71.7 -42.900000000000006 71.60000000000001 -42.5L69.2 -24.5Q69.2 -23.900000000000002 69.7 -23.900000000000002Z M134.3 -70.0H149.9Q150.60000000000002 -70.0 151.0 -69.6Q151.4 -69.2 151.4 -68.5V-1.5Q151.4 -0.8 151.0 -0.4Q150.60000000000002 0.0 149.9 0.0H134.10000000000002Q133.4 0.0 133.0 -0.4Q132.60000000000002 -0.8 132.60000000000002 -1.5V-42.2Q132.60000000000002 -42.6 132.35000000000002 -42.7Q132.10000000000002 -42.800000000000004 131.9 -42.400000000000006L126.2 -32.800000000000004L125.2 -31.0H125.10000000000001L118.5 -42.400000000000006Q118.30000000000001 -42.800000000000004 118.05000000000001 -42.75Q117.80000000000001 -42.7 117.80000000000001 -42.2V-1.5Q117.80000000000001 -0.8 117.4 -0.4Q117.0 0.0 116.30000000000001 0.0H100.5Q99.80000000000001 0.0 99.4 -0.4Q99.0 -0.8 99.0 -1.5V-68.5Q99.0 -69.2 99.4 -69.6Q99.80000000000001 -70.0 100.5 -70.0H116.10000000000001Q117.4 -70.0 117.9 -68.9L124.9 -56.1Q125.10000000000001 -55.800000000000004 125.35000000000001 -55.75Q125.60000000000001 -55.7 125.7 -56.1L132.5 -68.9Q133.10000000000002 -70.0 134.3 -70.0Z M192.6 -53.900000000000006H173.5Q172.9 -53.900000000000006 172.9 -53.300000000000004V-43.7Q172.9 -43.1 173.5 -43.1H183.4Q184.1 -43.1 184.5 -42.7Q184.9 -42.300000000000004 184.9 -41.6V-28.5Q184.9 -27.8 184.5 -27.4Q184.1 -27.0 183.4 -27.0H173.5Q172.9 -27.0 172.9 -26.400000000000002V-16.7Q172.9 -16.1 173.5 -16.1H192.6Q193.3 -16.1 193.7 -15.700000000000001Q194.1 -15.3 194.1 -14.600000000000001V-1.5Q194.1 -0.8 193.7 -0.4Q193.3 0.0 192.6 0.0H155.6Q154.9 0.0 154.5 -0.4Q154.1 -0.8 154.1 -1.5V-68.5Q154.1 -69.2 154.5 -69.6Q154.9 -70.0 155.6 -70.0H192.6Q193.3 -70.0 193.7 -69.6Q194.1 -69.2 194.1 -68.5V-55.400000000000006Q194.1 -54.7 193.7 -54.300000000000004Q193.3 -53.900000000000006 192.6 -53.900000000000006Z M201.8 -1.0V-69.0Q201.8 -70.0 202.8 -70.0H217.5Q224.9 -70.0 229.2 -65.05Q233.5 -60.1 233.5 -51.6V-18.400000000000002Q233.5 -9.9 229.2 -4.95Q224.9 0.0 217.5 0.0H202.8Q201.8 0.0 201.8 -1.0ZM207.5 -4.7H217.5Q222.4 -4.800000000000001 225.25 -8.450000000000001Q228.10000000000002 -12.100000000000001 228.10000000000002 -18.5V-51.400000000000006Q228.10000000000002 -57.900000000000006 225.25 -61.6Q222.4 -65.3 217.4 -65.3H207.5Q207.1 -65.3 207.1 -64.9V-5.1000000000000005Q207.1 -4.7 207.5 -4.7Z M244.3 -16.0V-53.900000000000006Q244.3 -61.5 248.8 -66.15Q253.3 -70.8 260.70000000000005 -70.8Q268.1 -70.8 272.70000000000005 -66.15Q277.3 -61.5 277.3 -53.900000000000006V-16.0Q277.3 -8.5 272.70000000000005 -3.85Q268.1 0.8 260.70000000000005 0.8Q253.4 0.8 248.85000000000002 -3.85Q244.3 -8.5 244.3 -16.0ZM272.0 -15.8V-54.1Q272.0 -59.400000000000006 268.85 -62.75000000000001Q265.70000000000005 -66.10000000000001 260.70000000000005 -66.10000000000001Q255.8 -66.10000000000001 252.70000000000002 -62.75000000000001Q249.60000000000002 -59.400000000000006 249.60000000000002 -54.1V-15.8Q249.60000000000002 -10.5 252.70000000000002 -7.2Q255.8 -3.9000000000000004 260.70000000000005 -3.9000000000000004Q265.70000000000005 -3.9000000000000004 268.85 -7.2Q272.0 -10.5 272.0 -15.8Z M287.40000000000003 -16.0V-53.900000000000006Q287.40000000000003 -61.5 291.90000000000003 -66.15Q296.40000000000003 -70.8 303.8 -70.8Q311.2 -70.8 315.8 -66.15Q320.40000000000003 -61.5 320.40000000000003 -53.900000000000006V-16.0Q320.40000000000003 -8.5 315.8 -3.85Q311.2 0.8 303.8 0.8Q296.5 0.8 291.95000000000005 -3.85Q287.40000000000003 -8.5 287.40000000000003 -16.0ZM315.1 -15.8V-54.1Q315.1 -59.400000000000006 311.95000000000005 -62.75000000000001Q308.8 -66.10000000000001 303.8 -66.10000000000001Q298.90000000000003 -66.10000000000001 295.8 -62.75000000000001Q292.7 -59.400000000000006 292.7 -54.1V-15.8Q292.7 -10.5 295.8 -7.2Q298.90000000000003 -3.9000000000000004 303.8 -3.9000000000000004Q308.8 -3.9000000000000004 311.95000000000005 -7.2Q315.1 -10.5 315.1 -15.8Z M359.3 -0.8 348.3 -32.5Q348.20000000000005 -32.800000000000004 347.90000000000003 -32.800000000000004H338.00000000000006Q337.6 -32.800000000000004 337.6 -32.4V-1.0Q337.6 0.0 336.6 0.0H333.3Q332.3 0.0 332.3 -1.0V-69.0Q332.3 -70.0 333.3 -70.0H348.8Q355.8 -70.0 360.1 -64.8Q364.40000000000003 -59.6 364.40000000000003 -51.2Q364.40000000000003 -44.5 361.5 -39.8Q358.6 -35.1 353.6 -33.4Q353.20000000000005 -33.300000000000004 353.3 -32.9L364.6 -1.1L364.70000000000005 -0.7000000000000001Q364.70000000000005 0.0 363.80000000000007 0.0H360.50000000000006Q359.6 0.0 359.3 -0.8ZM337.6 -64.9V-37.6Q337.6 -37.2 338.00000000000006 -37.2H348.20000000000005Q353.1 -37.2 356.1 -41.050000000000004Q359.1 -44.900000000000006 359.1 -51.2Q359.1 -57.6 356.1 -61.45Q353.1 -65.3 348.20000000000005 -65.3H338.00000000000006Q337.6 -65.3 337.6 -64.9Z" fill="#F0EBE2"/>
    <circle cx="376.00" cy="-30.00" r="10.00" fill="#c62828"/>
    <path d="M446.20000000000005 -32.2V-18.2Q446.20000000000005 -17.5 445.80000000000007 -17.1Q445.4000000000001 -16.7 444.70000000000005 -16.7H441.70000000000005Q441.1000000000001 -16.7 441.1000000000001 -16.1V-1.5Q441.1000000000001 -0.8 440.70000000000005 -0.4Q440.30000000000007 0.0 439.6000000000001 0.0H423.80000000000007Q423.1000000000001 0.0 422.70000000000005 -0.4Q422.30000000000007 -0.8 422.30000000000007 -1.5V-16.1Q422.30000000000007 -16.7 421.70000000000005 -16.7H396.30000000000007Q395.6000000000001 -16.7 395.20000000000005 -17.1Q394.80000000000007 -17.5 394.80000000000007 -18.2V-29.3Q394.80000000000007 -30.200000000000003 395.1000000000001 -31.1L407.20000000000005 -68.8Q407.6000000000001 -70.0 408.90000000000003 -70.0H425.80000000000007Q426.6000000000001 -70.0 426.95000000000005 -69.55000000000001Q427.30000000000007 -69.10000000000001 427.1000000000001 -68.3L416.80000000000007 -34.4Q416.70000000000005 -33.7 417.30000000000007 -33.7H421.70000000000005Q422.30000000000007 -33.7 422.30000000000007 -34.300000000000004V-41.1Q422.30000000000007 -41.800000000000004 422.70000000000005 -42.2Q423.1000000000001 -42.6 423.80000000000007 -42.6H439.6000000000001Q440.30000000000007 -42.6 440.70000000000005 -42.2Q441.1000000000001 -41.800000000000004 441.1000000000001 -41.1V-34.300000000000004Q441.1000000000001 -33.7 441.70000000000005 -33.7H444.70000000000005Q445.4000000000001 -33.7 445.80000000000007 -33.3Q446.20000000000005 -32.9 446.20000000000005 -32.2Z M455.40000000000003 -70.0H471.80000000000007Q472.50000000000006 -70.0 472.9000000000001 -69.6Q473.30000000000007 -69.2 473.30000000000007 -68.5V-1.5Q473.30000000000007 -0.8 472.9000000000001 -0.4Q472.50000000000006 0.0 471.80000000000007 0.0H456.00000000000006Q455.30000000000007 0.0 454.9000000000001 -0.4Q454.50000000000006 -0.8 454.50000000000006 -1.5V-52.300000000000004Q454.50000000000006 -52.900000000000006 453.90000000000003 -52.900000000000006H447.30000000000007Q446.6000000000001 -52.900000000000006 446.20000000000005 -53.300000000000004Q445.80000000000007 -53.7 445.80000000000007 -54.400000000000006V-66.0Q445.80000000000007 -67.3 447.00000000000006 -67.7L453.6000000000001 -69.7Q454.50000000000006 -70.0 455.40000000000003 -70.0Z" fill="#c62828"/>
  </g>
  <line x1="300" y1="155" x2="700" y2="155" stroke="#c62828" stroke-width="1" opacity="0.4"/>
  <g transform="translate(368.60, 195.00)">
    <path d="M5.736 0.0H1.728Q1.488 0.0 1.488 -0.24V-16.56Q1.488 -16.8 1.728 -16.8H5.4Q7.5840000000000005 -16.8 8.82 -15.66Q10.056000000000001 -14.52 10.056000000000001 -12.336Q10.056000000000001 -9.744 8.208 -8.76Q8.088000000000001 -8.688 8.184000000000001 -8.64Q9.144 -8.064 9.684000000000001 -7.032Q10.224 -6.0 10.224 -4.5840000000000005Q10.224 -2.4 8.988 -1.2Q7.752 0.0 5.736 0.0ZM3.7920000000000003 -14.712V-9.624Q3.7920000000000003 -9.528 3.888 -9.528H5.424Q6.5520000000000005 -9.528 7.176 -10.212Q7.8 -10.896 7.8 -12.120000000000001Q7.8 -13.392 7.176 -14.1Q6.5520000000000005 -14.808 5.424 -14.808H3.888Q3.7920000000000003 -14.808 3.7920000000000003 -14.712ZM7.92 -4.872Q7.92 -6.264 7.295999999999999 -7.0440000000000005Q6.672 -7.824 5.5680000000000005 -7.824H3.888Q3.7920000000000003 -7.824 3.7920000000000003 -7.728V-2.112Q3.7920000000000003 -2.016 3.888 -2.016H5.5440000000000005Q6.648000000000001 -2.016 7.284000000000001 -2.76Q7.92 -3.504 7.92 -4.872Z M24.816000000000003 -0.192 22.608000000000004 -7.344Q22.584000000000003 -7.416 22.512000000000004 -7.416H20.832Q20.736000000000004 -7.416 20.736000000000004 -7.32V-0.24Q20.736000000000004 0.0 20.496000000000002 0.0H18.672000000000004Q18.432000000000002 0.0 18.432000000000002 -0.24V-16.56Q18.432000000000002 -16.8 18.672000000000004 -16.8H22.968000000000004Q24.192000000000004 -16.8 25.128000000000004 -16.2Q26.064000000000004 -15.6 26.580000000000005 -14.508Q27.096000000000004 -13.416 27.096000000000004 -12.024000000000001Q27.096000000000004 -10.512 26.472 -9.396Q25.848000000000003 -8.28 24.768 -7.776Q24.696 -7.704 24.720000000000002 -7.632000000000001L27.168000000000003 -0.264L27.192 -0.168Q27.192 0.0 26.976000000000003 0.0H25.104000000000003Q24.888 0.0 24.816000000000003 -0.192ZM20.736000000000004 -14.712V-9.336Q20.736000000000004 -9.24 20.832 -9.24H22.608000000000004Q23.592000000000002 -9.24 24.192 -9.996Q24.792 -10.752 24.792 -12.0Q24.792 -13.296000000000001 24.192 -14.052Q23.592000000000002 -14.808 22.608000000000004 -14.808H20.832Q20.736000000000004 -14.808 20.736000000000004 -14.712Z M41.616 -0.216 41.088 -2.976Q41.088 -3.024 41.05200000000001 -3.048Q41.016000000000005 -3.072 40.968 -3.072H37.056000000000004Q37.008 -3.072 36.972 -3.048Q36.936 -3.024 36.936 -2.976L36.432 -0.216Q36.408 0.0 36.168 0.0H34.344Q34.224000000000004 0.0 34.164 -0.07200000000000001Q34.104 -0.14400000000000002 34.128 -0.264L37.704 -16.584Q37.752 -16.8 37.968 -16.8H40.104Q40.344 -16.8 40.368 -16.584L43.968 -0.264V-0.216Q43.968 0.0 43.752 0.0H41.88Q41.664 0.0 41.616 -0.216ZM37.416000000000004 -4.896H40.608000000000004Q40.68 -4.896 40.68 -4.992L39.048 -13.512Q39.024 -13.56 39.0 -13.56Q38.976 -13.56 38.952000000000005 -13.512L37.344 -4.992Q37.344 -4.896 37.416000000000004 -4.896Z M51.768 -0.24V-16.56Q51.768 -16.8 52.008 -16.8H53.832Q54.072 -16.8 54.072 -16.56V-0.24Q54.072 0.0 53.832 0.0H52.008Q51.768 0.0 51.768 -0.24Z M70.056 -16.8H71.856Q72.096 -16.8 72.096 -16.56V-0.24Q72.096 0.0 71.856 0.0H69.792Q69.60000000000001 0.0 69.528 -0.192L65.44800000000001 -11.16Q65.424 -11.208 65.376 -11.196000000000002Q65.328 -11.184000000000001 65.328 -11.136000000000001L65.352 -0.24Q65.352 0.0 65.11200000000001 0.0H63.288000000000004Q63.048 0.0 63.048 -0.24V-16.56Q63.048 -16.8 63.288000000000004 -16.8H65.328Q65.52 -16.8 65.592 -16.608L69.696 -5.64Q69.72 -5.5680000000000005 69.768 -5.58Q69.816 -5.5920000000000005 69.816 -5.664V-16.56Q69.816 -16.8 70.056 -16.8Z M99.672 -14.808H94.272Q94.176 -14.808 94.176 -14.712V-9.504Q94.176 -9.408 94.272 -9.408H97.584Q97.824 -9.408 97.824 -9.168000000000001V-7.656000000000001Q97.824 -7.416 97.584 -7.416H94.272Q94.176 -7.416 94.176 -7.32V-2.088Q94.176 -1.992 94.272 -1.992H99.672Q99.912 -1.992 99.912 -1.752V-0.24Q99.912 0.0 99.672 0.0H92.112Q91.872 0.0 91.872 -0.24V-16.56Q91.872 -16.8 92.112 -16.8H99.672Q99.912 -16.8 99.912 -16.56V-15.048Q99.912 -14.808 99.672 -14.808Z M107.66400000000002 -4.104V-4.728Q107.66400000000002 -4.968 107.90400000000001 -4.968H109.68Q109.92000000000002 -4.968 109.92000000000002 -4.728V-4.224Q109.92000000000002 -3.12 110.47200000000001 -2.46Q111.02400000000002 -1.8 111.888 -1.8Q112.75200000000001 -1.8 113.316 -2.436Q113.88000000000001 -3.072 113.88000000000001 -4.104Q113.88000000000001 -4.8 113.58000000000001 -5.327999999999999Q113.28000000000002 -5.856 112.78800000000001 -6.276Q112.296 -6.696 111.19200000000001 -7.5120000000000005Q109.968 -8.424 109.272 -9.072Q108.57600000000001 -9.72 108.096 -10.632000000000001Q107.61600000000001 -11.544 107.61600000000001 -12.768Q107.61600000000001 -14.712 108.76800000000001 -15.852Q109.92000000000002 -16.992 111.76800000000001 -16.992Q113.68800000000002 -16.992 114.852 -15.768Q116.016 -14.544 116.016 -12.552V-11.952Q116.016 -11.712 115.77600000000001 -11.712H114.00000000000001Q113.76 -11.712 113.76 -11.952V-12.6Q113.76 -13.68 113.208 -14.34Q112.656 -15.0 111.76800000000001 -15.0Q110.92800000000001 -15.0 110.4 -14.411999999999999Q109.87200000000001 -13.824 109.87200000000001 -12.768Q109.87200000000001 -11.808 110.4 -11.148Q110.92800000000001 -10.488 112.44000000000001 -9.384Q113.88000000000001 -8.304 114.61200000000001 -7.632Q115.34400000000001 -6.96 115.74000000000001 -6.156000000000001Q116.13600000000001 -5.352 116.13600000000001 -4.248Q116.13600000000001 -2.232 114.96000000000001 -1.02Q113.784 0.192 111.888 0.192Q109.992 0.192 108.828 -0.9960000000000001Q107.66400000000002 -2.184 107.66400000000002 -4.104Z M124.12800000000001 -4.152V-12.672Q124.12800000000001 -14.64 125.31600000000002 -15.816Q126.50400000000002 -16.992 128.448 -16.992Q130.41600000000003 -16.992 131.604 -15.816Q132.792 -14.64 132.792 -12.672V-12.288Q132.792 -12.048 132.55200000000002 -12.048L130.728 -11.952Q130.488 -11.952 130.488 -12.192V-12.816Q130.488 -13.8 129.924 -14.4Q129.36 -15.0 128.448 -15.0Q127.53600000000002 -15.0 126.98400000000001 -14.4Q126.43200000000002 -13.8 126.43200000000002 -12.816V-3.984Q126.43200000000002 -3.0 126.98400000000001 -2.4Q127.53600000000002 -1.8 128.448 -1.8Q129.36 -1.8 129.924 -2.4Q130.488 -3.0 130.488 -3.984V-4.6080000000000005Q130.488 -4.848 130.728 -4.848L132.55200000000002 -4.752Q132.792 -4.752 132.792 -4.5120000000000005V-4.152Q132.792 -2.184 131.604 -0.9960000000000001Q130.41600000000003 0.192 128.448 0.192Q126.50400000000002 0.192 125.31600000000002 -0.9960000000000001Q124.12800000000001 -2.184 124.12800000000001 -4.152Z M147.62400000000002 -0.216 147.096 -2.976Q147.096 -3.024 147.06 -3.048Q147.024 -3.072 146.976 -3.072H143.06400000000002Q143.01600000000002 -3.072 142.98000000000002 -3.048Q142.94400000000002 -3.024 142.94400000000002 -2.976L142.44000000000003 -0.216Q142.41600000000003 0.0 142.17600000000002 0.0H140.352Q140.232 0.0 140.17200000000003 -0.07200000000000001Q140.11200000000002 -0.14400000000000002 140.13600000000002 -0.264L143.71200000000002 -16.584Q143.76000000000002 -16.8 143.976 -16.8H146.11200000000002Q146.352 -16.8 146.376 -16.584L149.976 -0.264V-0.216Q149.976 0.0 149.76000000000002 0.0H147.888Q147.67200000000003 0.0 147.62400000000002 -0.216ZM143.424 -4.896H146.616Q146.68800000000002 -4.896 146.68800000000002 -4.992L145.056 -13.512Q145.032 -13.56 145.008 -13.56Q144.984 -13.56 144.96 -13.512L143.352 -4.992Q143.352 -4.896 143.424 -4.896Z M166.416 -12.0Q166.416 -9.888 165.312 -8.592Q164.208 -7.296 162.40800000000002 -7.296H160.15200000000002Q160.056 -7.296 160.056 -7.2V-0.24Q160.056 0.0 159.816 0.0H157.99200000000002Q157.752 0.0 157.752 -0.24V-16.584Q157.752 -16.824 157.99200000000002 -16.824H162.288Q164.13600000000002 -16.824 165.276 -15.492Q166.416 -14.16 166.416 -12.0ZM164.11200000000002 -11.952Q164.11200000000002 -13.272 163.512 -14.052Q162.912 -14.832 161.928 -14.832H160.15200000000002Q160.056 -14.832 160.056 -14.736V-9.24Q160.056 -9.144 160.15200000000002 -9.144H161.928Q162.912 -9.144 163.512 -9.9Q164.11200000000002 -10.656 164.11200000000002 -11.952Z M182.40000000000003 -14.808H177.00000000000003Q176.90400000000002 -14.808 176.90400000000002 -14.712V-9.504Q176.90400000000002 -9.408 177.00000000000003 -9.408H180.312Q180.55200000000002 -9.408 180.55200000000002 -9.168000000000001V-7.656000000000001Q180.55200000000002 -7.416 180.312 -7.416H177.00000000000003Q176.90400000000002 -7.416 176.90400000000002 -7.32V-2.088Q176.90400000000002 -1.992 177.00000000000003 -1.992H182.40000000000003Q182.64000000000001 -1.992 182.64000000000001 -1.752V-0.24Q182.64000000000001 0.0 182.40000000000003 0.0H174.84000000000003Q174.60000000000002 0.0 174.60000000000002 -0.24V-16.56Q174.60000000000002 -16.8 174.84000000000003 -16.8H182.40000000000003Q182.64000000000001 -16.8 182.64000000000001 -16.56V-15.048Q182.64000000000001 -14.808 182.40000000000003 -14.808Z M201.43200000000002 -4.008V-12.792Q201.43200000000002 -14.688 202.62 -15.84Q203.80800000000002 -16.992 205.75200000000004 -16.992Q207.69600000000003 -16.992 208.89600000000002 -15.84Q210.09600000000003 -14.688 210.09600000000003 -12.768V-11.76Q210.09600000000003 -11.52 209.85600000000002 -11.52H208.03200000000004Q207.79200000000003 -11.52 207.79200000000003 -11.76V-12.816Q207.79200000000003 -13.8 207.22800000000004 -14.4Q206.66400000000004 -15.0 205.75200000000004 -15.0Q204.84000000000003 -15.0 204.276 -14.4Q203.71200000000002 -13.8 203.71200000000002 -12.816V-3.984Q203.71200000000002 -3.0 204.276 -2.4Q204.84000000000003 -1.8 205.75200000000004 -1.8Q206.66400000000004 -1.8 207.22800000000004 -2.4Q207.79200000000003 -3.0 207.79200000000003 -3.984V-6.6240000000000006Q207.79200000000003 -6.72 207.69600000000003 -6.72H205.87200000000004Q205.63200000000003 -6.72 205.63200000000003 -6.96V-8.448Q205.63200000000003 -8.688 205.87200000000004 -8.688H209.85600000000002Q210.09600000000003 -8.688 210.09600000000003 -8.448V-4.008Q210.09600000000003 -2.112 208.89600000000002 -0.9600000000000001Q207.69600000000003 0.192 205.75200000000004 0.192Q203.80800000000002 0.192 202.62 -0.9600000000000001Q201.43200000000002 -2.112 201.43200000000002 -4.008Z M225.04800000000003 -0.216 224.52 -2.976Q224.52 -3.024 224.484 -3.048Q224.448 -3.072 224.4 -3.072H220.48800000000003Q220.44000000000003 -3.072 220.40400000000002 -3.048Q220.36800000000002 -3.024 220.36800000000002 -2.976L219.86400000000003 -0.216Q219.84000000000003 0.0 219.60000000000002 0.0H217.776Q217.656 0.0 217.596 -0.07200000000000001Q217.53600000000003 -0.14400000000000002 217.56000000000003 -0.264L221.13600000000002 -16.584Q221.18400000000003 -16.8 221.4 -16.8H223.53600000000003Q223.776 -16.8 223.8 -16.584L227.40000000000003 -0.264V-0.216Q227.40000000000003 0.0 227.18400000000003 0.0H225.312Q225.09600000000003 0.0 225.04800000000003 -0.216ZM220.848 -4.896H224.04000000000002Q224.11200000000002 -4.896 224.11200000000002 -4.992L222.48000000000002 -13.512Q222.45600000000002 -13.56 222.43200000000002 -13.56Q222.40800000000002 -13.56 222.38400000000001 -13.512L220.776 -4.992Q220.776 -4.896 220.848 -4.896Z M242.95200000000003 -16.8H244.776Q245.01600000000002 -16.8 245.01600000000002 -16.56V-0.24Q245.01600000000002 0.0 244.776 0.0H242.95200000000003Q242.71200000000002 0.0 242.71200000000002 -0.24V-12.144Q242.71200000000002 -12.216000000000001 242.67600000000002 -12.216000000000001Q242.64000000000001 -12.216000000000001 242.592 -12.168000000000001L240.288 -7.872Q240.216 -7.704 240.07200000000003 -7.704Q239.92800000000003 -7.704 239.85600000000002 -7.872L237.57600000000002 -12.144Q237.52800000000002 -12.192 237.49200000000002 -12.192Q237.45600000000002 -12.192 237.45600000000002 -12.120000000000001V-0.24Q237.45600000000002 0.0 237.216 0.0H235.39200000000002Q235.15200000000002 0.0 235.15200000000002 -0.24V-16.56Q235.15200000000002 -16.8 235.39200000000002 -16.8H237.216Q237.38400000000001 -16.8 237.50400000000002 -16.632L240.02400000000003 -12.120000000000001Q240.04800000000003 -12.096 240.096 -12.096Q240.144 -12.096 240.168 -12.120000000000001L242.66400000000002 -16.632Q242.76000000000002 -16.8 242.95200000000003 -16.8Z M261.72 -14.808H256.32Q256.224 -14.808 256.224 -14.712V-9.504Q256.224 -9.408 256.32 -9.408H259.632Q259.872 -9.408 259.872 -9.168000000000001V-7.656000000000001Q259.872 -7.416 259.632 -7.416H256.32Q256.224 -7.416 256.224 -7.32V-2.088Q256.224 -1.992 256.32 -1.992H261.72Q261.96000000000004 -1.992 261.96000000000004 -1.752V-0.24Q261.96000000000004 0.0 261.72 0.0H254.16000000000003Q253.92000000000002 0.0 253.92000000000002 -0.24V-16.56Q253.92000000000002 -16.8 254.16000000000003 -16.8H261.72Q261.96000000000004 -16.8 261.96000000000004 -16.56V-15.048Q261.96000000000004 -14.808 261.72 -14.808Z" fill="#c62828"/>
  </g>
</svg>
