<?xml version="1.0" encoding="UTF-8"?>
<svg xmlns="http://www.w3.org/2000/svg" viewBox="0 0 512 512" width="512" height="512" preserveAspectRatio="xMidYMid meet">
  <title>GAMEDOOR.41 Icone G</title>
  <rect width="512" height="512" rx="80" fill="#0C0800"/>
  <g transform="translate(123.74, 370)">
    <path d="M6.800000000000001 -66.64V-171.70000000000002Q6.800000000000001 -203.32000000000002 27.200000000000003 -222.02000000000004Q47.6 -240.72000000000003 81.26 -240.72000000000003Q103.36000000000001 -240.72000000000003 120.19000000000001 -232.22000000000003Q137.02 -223.72000000000003 146.37 -207.91000000000003Q155.72 -192.10000000000002 155.72 -171.02V-159.8Q155.72 -157.42000000000002 154.36 -156.06Q153.0 -154.70000000000002 150.62 -154.70000000000002H96.9Q94.52000000000001 -154.70000000000002 93.16000000000001 -156.06Q91.80000000000001 -157.42000000000002 91.80000000000001 -159.8V-171.70000000000002Q91.80000000000001 -178.16000000000003 88.91000000000001 -182.07000000000002Q86.02000000000001 -185.98000000000002 81.26 -185.98000000000002Q76.5 -185.98000000000002 73.61 -182.07000000000002Q70.72 -178.16000000000003 70.72 -171.70000000000002V-66.30000000000001Q70.72 -59.84 73.61 -55.93000000000001Q76.5 -52.02 81.26 -52.02Q86.02000000000001 -52.02 88.91000000000001 -55.93000000000001Q91.80000000000001 -59.84 91.80000000000001 -66.30000000000001V-82.96000000000001Q91.80000000000001 -85.0 89.76 -85.0H87.04Q84.66000000000001 -85.0 83.30000000000001 -86.36000000000001Q81.94000000000001 -87.72000000000001 81.94000000000001 -90.10000000000001V-129.20000000000002Q81.94000000000001 -131.58 83.30000000000001 -132.94Q84.66000000000001 -134.3 87.04 -134.3H150.62Q153.0 -134.3 154.36 -132.94Q155.72 -131.58 155.72 -129.20000000000002V-66.64Q155.72 -45.900000000000006 146.37 -30.090000000000003Q137.02 -14.280000000000001 120.19000000000001 -5.78Q103.36000000000001 2.72 81.26 2.72Q47.6 2.72 27.200000000000003 -16.150000000000002Q6.800000000000001 -35.02 6.800000000000001 -66.64Z" fill="#F0EBE2"/>
  </g>
  <circle cx="352.26" cy="330" r="36" fill="#E07020"/>
</svg>
