<?xml version="1.0" encoding="UTF-8"?>
<svg xmlns="http://www.w3.org/2000/svg" viewBox="0 0 500 320" width="500" height="320" preserveAspectRatio="xMidYMid meet">
  <title>GAMEDOOR.41 Empile avec tagline</title>
  <rect width="500" height="320" fill="#0C0800"/>
  <g transform="translate(103.20, 125)">
    <path d="M1.6 -15.68V-40.4Q1.6 -47.84 6.4 -52.24Q11.200000000000001 -56.64 19.12 -56.64Q24.32 -56.64 28.28 -54.64Q32.24 -52.64 34.44 -48.92Q36.64 -45.2 36.64 -40.24V-37.6Q36.64 -37.04 36.32 -36.72Q36.0 -36.4 35.44 -36.4H22.8Q22.240000000000002 -36.4 21.92 -36.72Q21.6 -37.04 21.6 -37.6V-40.4Q21.6 -41.92 20.92 -42.84Q20.240000000000002 -43.76 19.12 -43.76Q18.0 -43.76 17.32 -42.84Q16.64 -41.92 16.64 -40.4V-15.6Q16.64 -14.08 17.32 -13.16Q18.0 -12.24 19.12 -12.24Q20.240000000000002 -12.24 20.92 -13.16Q21.6 -14.08 21.6 -15.6V-19.52Q21.6 -20.0 21.12 -20.0H20.48Q19.92 -20.0 19.6 -20.32Q19.28 -20.64 19.28 -21.2V-30.400000000000002Q19.28 -30.96 19.6 -31.28Q19.92 -31.6 20.48 -31.6H35.44Q36.0 -31.6 36.32 -31.28Q36.64 -30.96 36.64 -30.400000000000002V-15.68Q36.64 -10.8 34.44 -7.08Q32.24 -3.36 28.28 -1.3599999999999999Q24.32 0.64 19.12 0.64Q11.200000000000001 0.64 6.4 -3.8000000000000003Q1.6 -8.24 1.6 -15.68Z M62.24 -1.12 61.36 -7.12Q61.36 -7.28 61.2 -7.44Q61.040000000000006 -7.6000000000000005 60.800000000000004 -7.6000000000000005H53.760000000000005Q53.52 -7.6000000000000005 53.36 -7.44Q53.2 -7.28 53.2 -7.12L52.400000000000006 -1.12Q52.32000000000001 0.0 51.120000000000005 0.0H38.56Q37.28 0.0 37.52 -1.28L48.88 -54.96Q49.120000000000005 -56.0 50.24 -56.0H64.80000000000001Q65.92 -56.0 66.16 -54.96L77.52000000000001 -1.28V-0.96Q77.52000000000001 0.0 76.4 0.0H63.52Q62.32000000000001 0.0 62.24 -1.12ZM55.36 -19.12H59.120000000000005Q59.68000000000001 -19.12 59.52 -19.6L57.36 -34.0Q57.28 -34.32 57.120000000000005 -34.32Q56.96 -34.32 56.88 -34.0L54.96 -19.6Q54.96 -19.12 55.36 -19.12Z M106.64 -56.0H119.12Q119.68 -56.0 120.0 -55.68Q120.32 -55.36 120.32 -54.800000000000004V-1.2Q120.32 -0.64 120.0 -0.32Q119.68 0.0 119.12 0.0H106.48Q105.92 0.0 105.6 -0.32Q105.28 -0.64 105.28 -1.2V-33.76Q105.28 -34.08 105.08 -34.16Q104.88 -34.24 104.72 -33.92L100.16 -26.240000000000002L99.36 -24.8H99.28L94.0 -33.92Q93.84 -34.24 93.64 -34.2Q93.44 -34.160000000000004 93.44 -33.76V-1.2Q93.44 -0.64 93.12 -0.32Q92.8 0.0 92.24 0.0H79.6Q79.03999999999999 0.0 78.72 -0.32Q78.4 -0.64 78.4 -1.2V-54.800000000000004Q78.4 -55.36 78.72 -55.68Q79.03999999999999 -56.0 79.6 -56.0H92.08Q93.12 -56.0 93.52 -55.120000000000005L99.12 -44.88Q99.28 -44.64 99.48 -44.6Q99.68 -44.56 99.75999999999999 -44.88L105.2 -55.120000000000005Q105.68 -56.0 106.64 -56.0Z M152.88 -43.12H137.6Q137.12 -43.12 137.12 -42.64V-34.96Q137.12 -34.480000000000004 137.6 -34.480000000000004H145.52Q146.08 -34.480000000000004 146.4 -34.160000000000004Q146.72 -33.84 146.72 -33.28V-22.8Q146.72 -22.240000000000002 146.4 -21.92Q146.08 -21.6 145.52 -21.6H137.6Q137.12 -21.6 137.12 -21.12V-13.36Q137.12 -12.88 137.6 -12.88H152.88Q153.44 -12.88 153.76 -12.56Q154.07999999999998 -12.24 154.07999999999998 -11.68V-1.2Q154.07999999999998 -0.64 153.76 -0.32Q153.44 0.0 152.88 0.0H123.28Q122.72 0.0 122.4 -0.32Q122.08 -0.64 122.08 -1.2V-54.800000000000004Q122.08 -55.36 122.4 -55.68Q122.72 -56.0 123.28 -56.0H152.88Q153.44 -56.0 153.76 -55.68Q154.07999999999998 -55.36 154.07999999999998 -54.800000000000004V-44.32Q154.07999999999998 -43.76 153.76 -43.44Q153.44 -43.12 152.88 -43.12Z" fill="#F0EBE2"/>
    <path d="M159.84 -0.8V-55.2Q159.84 -56.0 160.64000000000001 -56.0H172.4Q178.32000000000002 -56.0 181.76000000000002 -52.04Q185.20000000000002 -48.08 185.20000000000002 -41.28V-14.72Q185.20000000000002 -7.92 181.76000000000002 -3.96Q178.32000000000002 0.0 172.4 0.0H160.64000000000001Q159.84 0.0 159.84 -0.8ZM164.4 -3.7600000000000002H172.4Q176.32000000000002 -3.84 178.60000000000002 -6.76Q180.88 -9.68 180.88 -14.8V-41.12Q180.88 -46.32 178.60000000000002 -49.28Q176.32000000000002 -52.24 172.32000000000002 -52.24H164.4Q164.08 -52.24 164.08 -51.92V-4.08Q164.08 -3.7600000000000002 164.4 -3.7600000000000002Z M193.44 -12.8V-43.12Q193.44 -49.2 197.04000000000002 -52.92Q200.64000000000001 -56.64 206.56 -56.64Q212.48000000000002 -56.64 216.16000000000003 -52.92Q219.84 -49.2 219.84 -43.12V-12.8Q219.84 -6.8 216.16000000000003 -3.08Q212.48000000000002 0.64 206.56 0.64Q200.72 0.64 197.07999999999998 -3.08Q193.44 -6.8 193.44 -12.8ZM215.6 -12.64V-43.28Q215.6 -47.52 213.07999999999998 -50.2Q210.56 -52.88 206.56 -52.88Q202.64000000000001 -52.88 200.16000000000003 -50.2Q197.68 -47.52 197.68 -43.28V-12.64Q197.68 -8.4 200.16000000000003 -5.76Q202.64000000000001 -3.12 206.56 -3.12Q210.56 -3.12 213.07999999999998 -5.76Q215.6 -8.4 215.6 -12.64Z M227.51999999999998 -12.8V-43.12Q227.51999999999998 -49.2 231.12 -52.92Q234.72 -56.64 240.64 -56.64Q246.56 -56.64 250.24 -52.92Q253.92 -49.2 253.92 -43.12V-12.8Q253.92 -6.8 250.24 -3.08Q246.56 0.64 240.64 0.64Q234.79999999999998 0.64 231.15999999999997 -3.08Q227.51999999999998 -6.8 227.51999999999998 -12.8ZM249.67999999999998 -12.64V-43.28Q249.67999999999998 -47.52 247.15999999999997 -50.2Q244.64 -52.88 240.64 -52.88Q236.72 -52.88 234.24 -50.2Q231.76 -47.52 231.76 -43.28V-12.64Q231.76 -8.4 234.24 -5.76Q236.72 -3.12 240.64 -3.12Q244.64 -3.12 247.15999999999997 -5.76Q249.67999999999998 -8.4 249.67999999999998 -12.64Z M284.64 -0.64 275.84 -26.0Q275.76 -26.240000000000002 275.52 -26.240000000000002H267.59999999999997Q267.28 -26.240000000000002 267.28 -25.92V-0.8Q267.28 0.0 266.47999999999996 0.0H263.84Q263.03999999999996 0.0 263.03999999999996 -0.8V-55.2Q263.03999999999996 -56.0 263.84 -56.0H276.23999999999995Q281.84 -56.0 285.28 -51.84Q288.71999999999997 -47.68 288.71999999999997 -40.96Q288.71999999999997 -35.6 286.4 -31.840000000000003Q284.08 -28.080000000000002 280.08 -26.72Q279.76 -26.64 279.84 -26.32L288.88 -0.88L288.96 -0.56Q288.96 0.0 288.23999999999995 0.0H285.59999999999997Q284.88 0.0 284.64 -0.64ZM267.28 -51.92V-30.080000000000002Q267.28 -29.76 267.59999999999997 -29.76H275.76Q279.67999999999995 -29.76 282.0799999999999 -32.84Q284.47999999999996 -35.92 284.47999999999996 -40.96Q284.47999999999996 -46.08 282.0799999999999 -49.16Q279.67999999999995 -52.24 275.76 -52.24H267.59999999999997Q267.28 -52.24 267.28 -51.92Z" fill="#F0EBE2"/>
  </g>
  <circle cx="208.84" cy="185" r="9" fill="#E07020"/>
  <g transform="translate(217.84, 215)">
    <path d="M36.540000000000006 -22.540000000000003V-12.740000000000002Q36.540000000000006 -12.250000000000002 36.260000000000005 -11.970000000000002Q35.980000000000004 -11.690000000000001 35.49 -11.690000000000001H33.39Q32.970000000000006 -11.690000000000001 32.970000000000006 -11.270000000000001V-1.05Q32.970000000000006 -0.56 32.690000000000005 -0.28Q32.410000000000004 0.0 31.92 0.0H20.860000000000003Q20.37 0.0 20.090000000000003 -0.28Q19.810000000000002 -0.56 19.810000000000002 -1.05V-11.270000000000001Q19.810000000000002 -11.690000000000001 19.39 -11.690000000000001H1.61Q1.12 -11.690000000000001 0.8400000000000001 -11.970000000000002Q0.56 -12.250000000000002 0.56 -12.740000000000002V-20.51Q0.56 -21.14 0.77 -21.770000000000003L9.24 -48.160000000000004Q9.520000000000001 -49.00000000000001 10.430000000000001 -49.00000000000001H22.26Q22.820000000000004 -49.00000000000001 23.065000000000005 -48.685Q23.310000000000002 -48.370000000000005 23.17 -47.81L15.96 -24.080000000000002Q15.890000000000002 -23.590000000000003 16.310000000000002 -23.590000000000003H19.39Q19.810000000000002 -23.590000000000003 19.810000000000002 -24.01V-28.770000000000003Q19.810000000000002 -29.26 20.090000000000003 -29.540000000000003Q20.37 -29.820000000000004 20.860000000000003 -29.820000000000004H31.92Q32.410000000000004 -29.820000000000004 32.690000000000005 -29.540000000000003Q32.970000000000006 -29.26 32.970000000000006 -28.770000000000003V-24.01Q32.970000000000006 -23.590000000000003 33.39 -23.590000000000003H35.49Q35.980000000000004 -23.590000000000003 36.260000000000005 -23.310000000000002Q36.540000000000006 -23.03 36.540000000000006 -22.540000000000003Z M48.38 -49.00000000000001H59.86Q60.35000000000001 -49.00000000000001 60.63000000000001 -48.720000000000006Q60.910000000000004 -48.440000000000005 60.910000000000004 -47.95V-1.05Q60.910000000000004 -0.56 60.63000000000001 -0.28Q60.35000000000001 0.0 59.86 0.0H48.800000000000004Q48.31 0.0 48.03 -0.28Q47.75 -0.56 47.75 -1.05V-36.61000000000001Q47.75 -37.03 47.33 -37.03H42.71Q42.22 -37.03 41.94 -37.31Q41.660000000000004 -37.59 41.660000000000004 -38.080000000000005V-46.2Q41.660000000000004 -47.11000000000001 42.5 -47.39000000000001L47.120000000000005 -48.790000000000006Q47.75 -49.00000000000001 48.38 -49.00000000000001Z" fill="#E07020"/>
  </g>
  <line x1="150" y1="245" x2="350" y2="245" stroke="#2E2820" stroke-width="1"/>
  <g transform="translate(95.02, 285)">
    <path d="M6.965999999999999 -11.106H2.916Q2.844 -11.106 2.844 -11.033999999999999V-7.127999999999999Q2.844 -7.055999999999999 2.916 -7.055999999999999H5.3999999999999995Q5.579999999999999 -7.055999999999999 5.579999999999999 -6.8759999999999994V-5.742Q5.579999999999999 -5.561999999999999 5.3999999999999995 -5.561999999999999H2.916Q2.844 -5.561999999999999 2.844 -5.489999999999999V-1.5659999999999998Q2.844 -1.494 2.916 -1.494H6.965999999999999Q7.145999999999999 -1.494 7.145999999999999 -1.3139999999999998V-0.18Q7.145999999999999 0.0 6.965999999999999 0.0H1.2959999999999998Q1.1159999999999999 0.0 1.1159999999999999 -0.18V-12.42Q1.1159999999999999 -12.6 1.2959999999999998 -12.6H6.965999999999999Q7.145999999999999 -12.6 7.145999999999999 -12.42V-11.286Q7.145999999999999 -11.106 6.965999999999999 -11.106Z M16.46 -3.078V-3.546Q16.46 -3.7259999999999995 16.64 -3.7259999999999995H17.972Q18.152 -3.7259999999999995 18.152 -3.546V-3.1679999999999997Q18.152 -2.34 18.566000000000003 -1.8449999999999998Q18.98 -1.3499999999999999 19.628 -1.3499999999999999Q20.276 -1.3499999999999999 20.698999999999998 -1.827Q21.122 -2.304 21.122 -3.078Q21.122 -3.5999999999999996 20.897 -3.9959999999999996Q20.672 -4.3919999999999995 20.302999999999997 -4.706999999999999Q19.933999999999997 -5.021999999999999 19.105999999999998 -5.6339999999999995Q18.188 -6.318 17.665999999999997 -6.803999999999999Q17.144 -7.289999999999999 16.784 -7.973999999999999Q16.424 -8.658 16.424 -9.575999999999999Q16.424 -11.033999999999999 17.288 -11.889Q18.152 -12.744 19.538 -12.744Q20.978 -12.744 21.851 -11.826Q22.724 -10.908 22.724 -9.414V-8.963999999999999Q22.724 -8.783999999999999 22.544 -8.783999999999999H21.212Q21.032 -8.783999999999999 21.032 -8.963999999999999V-9.45Q21.032 -10.26 20.618000000000002 -10.754999999999999Q20.204 -11.25 19.538 -11.25Q18.908 -11.25 18.512 -10.809Q18.116 -10.367999999999999 18.116 -9.575999999999999Q18.116 -8.856 18.512 -8.361Q18.908 -7.866 20.042 -7.037999999999999Q21.122 -6.228 21.671 -5.724Q22.22 -5.22 22.517 -4.616999999999999Q22.814 -4.013999999999999 22.814 -3.186Q22.814 -1.674 21.932000000000002 -0.765Q21.05 0.144 19.628 0.144Q18.206 0.144 17.333 -0.747Q16.46 -1.638 16.46 -3.078Z M32.308 -3.114V-9.504Q32.308 -10.979999999999999 33.199 -11.861999999999998Q34.089999999999996 -12.744 35.548 -12.744Q37.024 -12.744 37.915 -11.861999999999998Q38.806 -10.979999999999999 38.806 -9.504V-9.216Q38.806 -9.036 38.626 -9.036L37.257999999999996 -8.963999999999999Q37.077999999999996 -8.963999999999999 37.077999999999996 -9.144V-9.612Q37.077999999999996 -10.35 36.655 -10.8Q36.232 -11.25 35.548 -11.25Q34.864 -11.25 34.45 -10.8Q34.036 -10.35 34.036 -9.612V-2.988Q34.036 -2.25 34.45 -1.7999999999999998Q34.864 -1.3499999999999999 35.548 -1.3499999999999999Q36.232 -1.3499999999999999 36.655 -1.7999999999999998Q37.077999999999996 -2.25 37.077999999999996 -2.988V-3.4559999999999995Q37.077999999999996 -3.6359999999999997 37.257999999999996 -3.6359999999999997L38.626 -3.5639999999999996Q38.806 -3.5639999999999996 38.806 -3.384V-3.114Q38.806 -1.638 37.915 -0.747Q37.024 0.144 35.548 0.144Q34.089999999999996 0.144 33.199 -0.747Q32.308 -1.638 32.308 -3.114Z M53.43 -0.16199999999999998 53.034 -2.2319999999999998Q53.034 -2.268 53.007 -2.2859999999999996Q52.98 -2.304 52.943999999999996 -2.304H50.01Q49.974 -2.304 49.947 -2.2859999999999996Q49.92 -2.268 49.92 -2.2319999999999998L49.542 -0.16199999999999998Q49.524 0.0 49.344 0.0H47.976Q47.885999999999996 0.0 47.840999999999994 -0.05399999999999999Q47.796 -0.10799999999999998 47.814 -0.19799999999999998L50.495999999999995 -12.437999999999999Q50.532 -12.6 50.693999999999996 -12.6H52.296Q52.476 -12.6 52.494 -12.437999999999999L55.193999999999996 -0.19799999999999998V-0.16199999999999998Q55.193999999999996 0.0 55.032 0.0H53.628Q53.465999999999994 0.0 53.43 -0.16199999999999998ZM50.28 -3.6719999999999997H52.674Q52.727999999999994 -3.6719999999999997 52.727999999999994 -3.7439999999999998L51.504 -10.133999999999999Q51.486 -10.17 51.467999999999996 -10.17Q51.449999999999996 -10.17 51.431999999999995 -10.133999999999999L50.226 -3.7439999999999998Q50.226 -3.6719999999999997 50.28 -3.6719999999999997Z M71.024 -9.0Q71.024 -7.4159999999999995 70.196 -6.443999999999999Q69.368 -5.4719999999999995 68.018 -5.4719999999999995H66.326Q66.25399999999999 -5.4719999999999995 66.25399999999999 -5.3999999999999995V-0.18Q66.25399999999999 0.0 66.074 0.0H64.706Q64.526 0.0 64.526 -0.18V-12.437999999999999Q64.526 -12.617999999999999 64.706 -12.617999999999999H67.928Q69.314 -12.617999999999999 70.169 -11.619Q71.024 -10.62 71.024 -9.0ZM69.29599999999999 -8.963999999999999Q69.29599999999999 -9.953999999999999 68.846 -10.538999999999998Q68.396 -11.123999999999999 67.658 -11.123999999999999H66.326Q66.25399999999999 -11.123999999999999 66.25399999999999 -11.052V-6.93Q66.25399999999999 -6.858 66.326 -6.858H67.658Q68.396 -6.858 68.846 -7.424999999999999Q69.29599999999999 -7.991999999999999 69.29599999999999 -8.963999999999999Z M86.51199999999999 -11.106H82.46199999999999Q82.38999999999999 -11.106 82.38999999999999 -11.033999999999999V-7.127999999999999Q82.38999999999999 -7.055999999999999 82.46199999999999 -7.055999999999999H84.946Q85.12599999999999 -7.055999999999999 85.12599999999999 -6.8759999999999994V-5.742Q85.12599999999999 -5.561999999999999 84.946 -5.561999999999999H82.46199999999999Q82.38999999999999 -5.561999999999999 82.38999999999999 -5.489999999999999V-1.5659999999999998Q82.38999999999999 -1.494 82.46199999999999 -1.494H86.51199999999999Q86.692 -1.494 86.692 -1.3139999999999998V-0.18Q86.692 0.0 86.51199999999999 0.0H80.842Q80.66199999999999 0.0 80.66199999999999 -0.18V-12.42Q80.66199999999999 -12.6 80.842 -12.6H86.51199999999999Q86.692 -12.6 86.692 -12.42V-11.286Q86.692 -11.106 86.51199999999999 -11.106Z M137.35799999999998 -9.36V-3.2399999999999998Q137.35799999999998 -1.9979999999999998 136.74599999999998 -1.125Q136.134 -0.252 135.08999999999997 0.018Q135.03599999999997 0.05399999999999999 135.03599999999997 0.10799999999999998V1.7819999999999998Q135.03599999999997 1.9619999999999997 134.856 1.9619999999999997H133.47Q133.29 1.9619999999999997 133.29 1.7819999999999998V0.10799999999999998Q133.29 0.05399999999999999 133.236 0.018Q132.19199999999998 -0.26999999999999996 131.589 -1.134Q130.986 -1.9979999999999998 130.986 -3.2399999999999998V-9.36Q130.986 -10.872 131.868 -11.808Q132.74999999999997 -12.744 134.172 -12.744Q135.594 -12.744 136.476 -11.808Q137.35799999999998 -10.872 137.35799999999998 -9.36ZM135.63 -9.54Q135.63 -10.296 135.225 -10.773Q134.82 -11.25 134.172 -11.25Q133.52399999999997 -11.25 133.11899999999997 -10.773Q132.714 -10.296 132.714 -9.54V-3.0599999999999996Q132.714 -2.304 133.11899999999997 -1.827Q133.52399999999997 -1.3499999999999999 134.172 -1.3499999999999999Q134.82 -1.3499999999999999 135.225 -1.827Q135.63 -2.304 135.63 -3.0599999999999996Z M147.248 -3.42V-12.42Q147.248 -12.6 147.42799999999997 -12.6H148.796Q148.97599999999997 -12.6 148.97599999999997 -12.42V-3.2399999999999998Q148.97599999999997 -2.3939999999999997 149.39899999999997 -1.8719999999999999Q149.82199999999997 -1.3499999999999999 150.50599999999997 -1.3499999999999999Q151.20799999999997 -1.3499999999999999 151.63099999999997 -1.8719999999999999Q152.05399999999997 -2.3939999999999997 152.05399999999997 -3.2399999999999998V-12.42Q152.05399999999997 -12.6 152.23399999999998 -12.6H153.60199999999998Q153.78199999999998 -12.6 153.78199999999998 -12.42V-3.42Q153.78199999999998 -1.8179999999999998 152.88199999999998 -0.837Q151.98199999999997 0.144 150.50599999999997 0.144Q149.02999999999997 0.144 148.13899999999998 -0.837Q147.248 -1.8179999999999998 147.248 -3.42Z M163.924 -0.18V-12.42Q163.924 -12.6 164.10399999999998 -12.6H165.47199999999998Q165.652 -12.6 165.652 -12.42V-0.18Q165.652 0.0 165.47199999999998 0.0H164.10399999999998Q163.924 0.0 163.924 -0.18Z M175.29 -0.18V-1.386Q175.29 -1.476 175.344 -1.6019999999999999L179.52 -11.016Q179.538 -11.052 179.52 -11.079Q179.502 -11.106 179.466 -11.106H175.47Q175.29 -11.106 175.29 -11.286V-12.42Q175.29 -12.6 175.47 -12.6H181.212Q181.392 -12.6 181.392 -12.42V-11.213999999999999Q181.392 -11.142 181.338 -10.998L177.144 -1.5839999999999999Q177.126 -1.5479999999999998 177.144 -1.521Q177.162 -1.494 177.198 -1.494H181.212Q181.392 -1.494 181.392 -1.3139999999999998V-0.18Q181.392 0.0 181.212 0.0H175.47Q175.29 0.0 175.29 -0.18Z M230.63599999999997 -0.16199999999999998 230.23999999999998 -2.2319999999999998Q230.23999999999998 -2.268 230.21299999999997 -2.2859999999999996Q230.18599999999998 -2.304 230.14999999999998 -2.304H227.21599999999998Q227.17999999999998 -2.304 227.15299999999996 -2.2859999999999996Q227.12599999999998 -2.268 227.12599999999998 -2.2319999999999998L226.74799999999996 -0.16199999999999998Q226.72999999999996 0.0 226.54999999999998 0.0H225.18199999999996Q225.09199999999998 0.0 225.04699999999997 -0.05399999999999999Q225.00199999999998 -0.10799999999999998 225.01999999999998 -0.19799999999999998L227.70199999999997 -12.437999999999999Q227.73799999999997 -12.6 227.89999999999998 -12.6H229.50199999999998Q229.68199999999996 -12.6 229.69999999999996 -12.437999999999999L232.39999999999998 -0.19799999999999998V-0.16199999999999998Q232.39999999999998 0.0 232.23799999999997 0.0H230.83399999999997Q230.67199999999997 0.0 230.63599999999997 -0.16199999999999998ZM227.48599999999996 -3.6719999999999997H229.87999999999997Q229.93399999999997 -3.6719999999999997 229.93399999999997 -3.7439999999999998L228.70999999999998 -10.133999999999999Q228.69199999999998 -10.17 228.67399999999998 -10.17Q228.65599999999998 -10.17 228.63799999999998 -10.133999999999999L227.43199999999996 -3.7439999999999998Q227.43199999999996 -3.6719999999999997 227.48599999999996 -3.6719999999999997Z M241.49799999999996 -3.114V-9.504Q241.49799999999996 -10.979999999999999 242.38899999999995 -11.861999999999998Q243.27999999999994 -12.744 244.73799999999997 -12.744Q246.21399999999997 -12.744 247.10499999999996 -11.861999999999998Q247.99599999999995 -10.979999999999999 247.99599999999995 -9.504V-9.216Q247.99599999999995 -9.036 247.81599999999995 -9.036L246.44799999999995 -8.963999999999999Q246.26799999999994 -8.963999999999999 246.26799999999994 -9.144V-9.612Q246.26799999999994 -10.35 245.84499999999997 -10.8Q245.42199999999997 -11.25 244.73799999999997 -11.25Q244.05399999999995 -11.25 243.63999999999996 -10.8Q243.22599999999997 -10.35 243.22599999999997 -9.612V-2.988Q243.22599999999997 -2.25 243.63999999999996 -1.7999999999999998Q244.05399999999995 -1.3499999999999999 244.73799999999997 -1.3499999999999999Q245.42199999999997 -1.3499999999999999 245.84499999999997 -1.7999999999999998Q246.26799999999994 -2.25 246.26799999999994 -2.988V-3.4559999999999995Q246.26799999999994 -3.6359999999999997 246.44799999999995 -3.6359999999999997L247.81599999999995 -3.5639999999999996Q247.99599999999995 -3.5639999999999996 247.99599999999995 -3.384V-3.114Q247.99599999999995 -1.638 247.10499999999996 -0.747Q246.21399999999997 0.144 244.73799999999997 0.144Q243.27999999999994 0.144 242.38899999999995 -0.747Q241.49799999999996 -1.638 241.49799999999996 -3.114Z M264.132 -12.42V-11.286Q264.132 -11.106 263.952 -11.106H261.594Q261.522 -11.106 261.522 -11.033999999999999V-0.18Q261.522 0.0 261.342 0.0H259.974Q259.794 0.0 259.794 -0.18V-11.033999999999999Q259.794 -11.106 259.722 -11.106H257.49Q257.31 -11.106 257.31 -11.286V-12.42Q257.31 -12.6 257.49 -12.6H263.952Q264.132 -12.6 264.132 -12.42Z M273.78799999999995 -0.18V-12.42Q273.78799999999995 -12.6 273.96799999999996 -12.6H275.33599999999996Q275.51599999999996 -12.6 275.51599999999996 -12.42V-0.18Q275.51599999999996 0.0 275.33599999999996 0.0H273.96799999999996Q273.78799999999995 0.0 273.78799999999995 -0.18Z M285.4959999999999 -3.15V-9.431999999999999Q285.4959999999999 -10.925999999999998 286.39599999999996 -11.834999999999999Q287.29599999999994 -12.744 288.77199999999993 -12.744Q290.26599999999996 -12.744 291.17499999999995 -11.834999999999999Q292.08399999999995 -10.925999999999998 292.08399999999995 -9.431999999999999V-3.15Q292.08399999999995 -1.656 291.17499999999995 -0.756Q290.26599999999996 0.144 288.77199999999993 0.144Q287.29599999999994 0.144 286.39599999999996 -0.756Q285.4959999999999 -1.656 285.4959999999999 -3.15ZM290.35599999999994 -3.078V-9.521999999999998Q290.35599999999994 -10.296 289.924 -10.773Q289.49199999999996 -11.25 288.77199999999993 -11.25Q288.06999999999994 -11.25 287.64699999999993 -10.773Q287.22399999999993 -10.296 287.22399999999993 -9.521999999999998V-3.078Q287.22399999999993 -2.304 287.64699999999993 -1.827Q288.06999999999994 -1.3499999999999999 288.77199999999993 -1.3499999999999999Q289.49199999999996 -1.3499999999999999 289.924 -1.827Q290.35599999999994 -2.304 290.35599999999994 -3.078Z M307.31999999999994 -12.6H308.6699999999999Q308.8499999999999 -12.6 308.8499999999999 -12.42V-0.18Q308.8499999999999 0.0 308.6699999999999 0.0H307.1219999999999Q306.9779999999999 0.0 306.9239999999999 -0.144L303.8639999999999 -8.37Q303.84599999999995 -8.405999999999999 303.80999999999995 -8.396999999999998Q303.77399999999994 -8.388 303.77399999999994 -8.351999999999999L303.7919999999999 -0.18Q303.7919999999999 0.0 303.6119999999999 0.0H302.2439999999999Q302.0639999999999 0.0 302.0639999999999 -0.18V-12.42Q302.0639999999999 -12.6 302.2439999999999 -12.6H303.77399999999994Q303.91799999999995 -12.6 303.9719999999999 -12.456L307.0499999999999 -4.2299999999999995Q307.0679999999999 -4.175999999999999 307.1039999999999 -4.185Q307.13999999999993 -4.194 307.13999999999993 -4.247999999999999V-12.42Q307.13999999999993 -12.6 307.31999999999994 -12.6Z" fill="#8A8078"/>
  </g>
</svg>
