<?xml version="1.0" encoding="UTF-8"?>
<svg xmlns="http://www.w3.org/2000/svg" viewBox="0 0 512 512" width="512" height="512" preserveAspectRatio="xMidYMid meet">
  <title>GAMEDOOR.41 Icone .41</title>
  <rect width="512" height="512" rx="80" fill="#0C0800"/>
  <circle cx="132.21" cy="280" r="26" fill="#E07020"/>
  <g transform="translate(183.21, 360)">
    <path d="M135.72 -83.72V-47.32Q135.72 -45.5 134.68 -44.46Q133.64000000000001 -43.42 131.82 -43.42H124.02000000000001Q122.46000000000001 -43.42 122.46000000000001 -41.86V-3.9000000000000004Q122.46000000000001 -2.08 121.42000000000002 -1.04Q120.38000000000001 0.0 118.56 0.0H77.48Q75.66 0.0 74.62 -1.04Q73.58 -2.08 73.58 -3.9000000000000004V-41.86Q73.58 -43.42 72.02 -43.42H5.98Q4.16 -43.42 3.12 -44.46Q2.08 -45.5 2.08 -47.32V-76.18Q2.08 -78.52 2.8600000000000003 -80.86L34.32 -178.88Q35.36 -182.0 38.74 -182.0H82.68Q84.76 -182.0 85.67 -180.82999999999998Q86.58 -179.66 86.06 -177.58L59.28 -89.44Q59.02 -87.62 60.580000000000005 -87.62H72.02Q73.58 -87.62 73.58 -89.18V-106.86Q73.58 -108.68 74.62 -109.72Q75.66 -110.76 77.48 -110.76H118.56Q120.38000000000001 -110.76 121.42000000000002 -109.72Q122.46000000000001 -108.68 122.46000000000001 -106.86V-89.18Q122.46000000000001 -87.62 124.02000000000001 -87.62H131.82Q133.64000000000001 -87.62 134.68 -86.58000000000001Q135.72 -85.54 135.72 -83.72Z M170.84 -182.0H213.48000000000002Q215.3 -182.0 216.34 -180.96Q217.38 -179.92000000000002 217.38 -178.1V-3.9000000000000004Q217.38 -2.08 216.34 -1.04Q215.3 0.0 213.48000000000002 0.0H172.4Q170.58 0.0 169.54000000000002 -1.04Q168.5 -2.08 168.5 -3.9000000000000004V-135.98000000000002Q168.5 -137.54 166.94 -137.54H149.78Q147.96 -137.54 146.92000000000002 -138.57999999999998Q145.88000000000002 -139.62 145.88000000000002 -141.44V-171.6Q145.88000000000002 -174.98000000000002 149.0 -176.02L166.16000000000003 -181.22Q168.5 -182.0 170.84 -182.0Z" fill="#E07020"/>
  </g>
</svg>
