<?xml version="1.0" encoding="UTF-8"?>
<svg xmlns="http://www.w3.org/2000/svg" viewBox="0 0 500 320" width="500" height="320" preserveAspectRatio="xMidYMid meet">
  <title>GAMEDOOR.41 Empile avec tagline</title>
  <rect width="500" height="320" fill="#0C0800"/>
  <g transform="translate(103.20, 125)">
    <path d="M1.6 -15.68V-40.4Q1.6 -47.84 6.4 -52.24Q11.200000000000001 -56.64 19.12 -56.64Q24.32 -56.64 28.28 -54.64Q32.24 -52.64 34.44 -48.92Q36.64 -45.2 36.64 -40.24V-37.6Q36.64 -37.04 36.32 -36.72Q36.0 -36.4 35.44 -36.4H22.8Q22.240000000000002 -36.4 21.92 -36.72Q21.6 -37.04 21.6 -37.6V-40.4Q21.6 -41.92 20.92 -42.84Q20.240000000000002 -43.76 19.12 -43.76Q18.0 -43.76 17.32 -42.84Q16.64 -41.92 16.64 -40.4V-15.6Q16.64 -14.08 17.32 -13.16Q18.0 -12.24 19.12 -12.24Q20.240000000000002 -12.24 20.92 -13.16Q21.6 -14.08 21.6 -15.6V-19.52Q21.6 -20.0 21.12 -20.0H20.48Q19.92 -20.0 19.6 -20.32Q19.28 -20.64 19.28 -21.2V-30.400000000000002Q19.28 -30.96 19.6 -31.28Q19.92 -31.6 20.48 -31.6H35.44Q36.0 -31.6 36.32 -31.28Q36.64 -30.96 36.64 -30.400000000000002V-15.68Q36.64 -10.8 34.44 -7.08Q32.24 -3.36 28.28 -1.3599999999999999Q24.32 0.64 19.12 0.64Q11.200000000000001 0.64 6.4 -3.8000000000000003Q1.6 -8.24 1.6 -15.68Z M62.24 -1.12 61.36 -7.12Q61.36 -7.28 61.2 -7.44Q61.040000000000006 -7.6000000000000005 60.800000000000004 -7.6000000000000005H53.760000000000005Q53.52 -7.6000000000000005 53.36 -7.44Q53.2 -7.28 53.2 -7.12L52.400000000000006 -1.12Q52.32000000000001 0.0 51.120000000000005 0.0H38.56Q37.28 0.0 37.52 -1.28L48.88 -54.96Q49.120000000000005 -56.0 50.24 -56.0H64.80000000000001Q65.92 -56.0 66.16 -54.96L77.52000000000001 -1.28V-0.96Q77.52000000000001 0.0 76.4 0.0H63.52Q62.32000000000001 0.0 62.24 -1.12ZM55.36 -19.12H59.120000000000005Q59.68000000000001 -19.12 59.52 -19.6L57.36 -34.0Q57.28 -34.32 57.120000000000005 -34.32Q56.96 -34.32 56.88 -34.0L54.96 -19.6Q54.96 -19.12 55.36 -19.12Z M106.64 -56.0H119.12Q119.68 -56.0 120.0 -55.68Q120.32 -55.36 120.32 -54.800000000000004V-1.2Q120.32 -0.64 120.0 -0.32Q119.68 0.0 119.12 0.0H106.48Q105.92 0.0 105.6 -0.32Q105.28 -0.64 105.28 -1.2V-33.76Q105.28 -34.08 105.08 -34.16Q104.88 -34.24 104.72 -33.92L100.16 -26.240000000000002L99.36 -24.8H99.28L94.0 -33.92Q93.84 -34.24 93.64 -34.2Q93.44 -34.160000000000004 93.44 -33.76V-1.2Q93.44 -0.64 93.12 -0.32Q92.8 0.0 92.24 0.0H79.6Q79.03999999999999 0.0 78.72 -0.32Q78.4 -0.64 78.4 -1.2V-54.800000000000004Q78.4 -55.36 78.72 -55.68Q79.03999999999999 -56.0 79.6 -56.0H92.08Q93.12 -56.0 93.52 -55.120000000000005L99.12 -44.88Q99.28 -44.64 99.48 -44.6Q99.68 -44.56 99.75999999999999 -44.88L105.2 -55.120000000000005Q105.68 -56.0 106.64 -56.0Z M152.88 -43.12H137.6Q137.12 -43.12 137.12 -42.64V-34.96Q137.12 -34.480000000000004 137.6 -34.480000000000004H145.52Q146.08 -34.480000000000004 146.4 -34.160000000000004Q146.72 -33.84 146.72 -33.28V-22.8Q146.72 -22.240000000000002 146.4 -21.92Q146.08 -21.6 145.52 -21.6H137.6Q137.12 -21.6 137.12 -21.12V-13.36Q137.12 -12.88 137.6 -12.88H152.88Q153.44 -12.88 153.76 -12.56Q154.07999999999998 -12.24 154.07999999999998 -11.68V-1.2Q154.07999999999998 -0.64 153.76 -0.32Q153.44 0.0 152.88 0.0H123.28Q122.72 0.0 122.4 -0.32Q122.08 -0.64 122.08 -1.2V-54.800000000000004Q122.08 -55.36 122.4 -55.68Q122.72 -56.0 123.28 -56.0H152.88Q153.44 -56.0 153.76 -55.68Q154.07999999999998 -55.36 154.07999999999998 -54.800000000000004V-44.32Q154.07999999999998 -43.76 153.76 -43.44Q153.44 -43.12 152.88 -43.12Z" fill="#F0EBE2"/>
    <path d="M159.84 -0.8V-55.2Q159.84 -56.0 160.64000000000001 -56.0H172.4Q178.32000000000002 -56.0 181.76000000000002 -52.04Q185.20000000000002 -48.08 185.20000000000002 -41.28V-14.72Q185.20000000000002 -7.92 181.76000000000002 -3.96Q178.32000000000002 0.0 172.4 0.0H160.64000000000001Q159.84 0.0 159.84 -0.8ZM164.4 -3.7600000000000002H172.4Q176.32000000000002 -3.84 178.60000000000002 -6.76Q180.88 -9.68 180.88 -14.8V-41.12Q180.88 -46.32 178.60000000000002 -49.28Q176.32000000000002 -52.24 172.32000000000002 -52.24H164.4Q164.08 -52.24 164.08 -51.92V-4.08Q164.08 -3.7600000000000002 164.4 -3.7600000000000002Z M193.44 -12.8V-43.12Q193.44 -49.2 197.04000000000002 -52.92Q200.64000000000001 -56.64 206.56 -56.64Q212.48000000000002 -56.64 216.16000000000003 -52.92Q219.84 -49.2 219.84 -43.12V-12.8Q219.84 -6.8 216.16000000000003 -3.08Q212.48000000000002 0.64 206.56 0.64Q200.72 0.64 197.07999999999998 -3.08Q193.44 -6.8 193.44 -12.8ZM215.6 -12.64V-43.28Q215.6 -47.52 213.07999999999998 -50.2Q210.56 -52.88 206.56 -52.88Q202.64000000000001 -52.88 200.16000000000003 -50.2Q197.68 -47.52 197.68 -43.28V-12.64Q197.68 -8.4 200.16000000000003 -5.76Q202.64000000000001 -3.12 206.56 -3.12Q210.56 -3.12 213.07999999999998 -5.76Q215.6 -8.4 215.6 -12.64Z M227.51999999999998 -12.8V-43.12Q227.51999999999998 -49.2 231.12 -52.92Q234.72 -56.64 240.64 -56.64Q246.56 -56.64 250.24 -52.92Q253.92 -49.2 253.92 -43.12V-12.8Q253.92 -6.8 250.24 -3.08Q246.56 0.64 240.64 0.64Q234.79999999999998 0.64 231.15999999999997 -3.08Q227.51999999999998 -6.8 227.51999999999998 -12.8ZM249.67999999999998 -12.64V-43.28Q249.67999999999998 -47.52 247.15999999999997 -50.2Q244.64 -52.88 240.64 -52.88Q236.72 -52.88 234.24 -50.2Q231.76 -47.52 231.76 -43.28V-12.64Q231.76 -8.4 234.24 -5.76Q236.72 -3.12 240.64 -3.12Q244.64 -3.12 247.15999999999997 -5.76Q249.67999999999998 -8.4 249.67999999999998 -12.64Z M284.64 -0.64 275.84 -26.0Q275.76 -26.240000000000002 275.52 -26.240000000000002H267.59999999999997Q267.28 -26.240000000000002 267.28 -25.92V-0.8Q267.28 0.0 266.47999999999996 0.0H263.84Q263.03999999999996 0.0 263.03999999999996 -0.8V-55.2Q263.03999999999996 -56.0 263.84 -56.0H276.23999999999995Q281.84 -56.0 285.28 -51.84Q288.71999999999997 -47.68 288.71999999999997 -40.96Q288.71999999999997 -35.6 286.4 -31.840000000000003Q284.08 -28.080000000000002 280.08 -26.72Q279.76 -26.64 279.84 -26.32L288.88 -0.88L288.96 -0.56Q288.96 0.0 288.23999999999995 0.0H285.59999999999997Q284.88 0.0 284.64 -0.64ZM267.28 -51.92V-30.080000000000002Q267.28 -29.76 267.59999999999997 -29.76H275.76Q279.67999999999995 -29.76 282.0799999999999 -32.84Q284.47999999999996 -35.92 284.47999999999996 -40.96Q284.47999999999996 -46.08 282.0799999999999 -49.16Q279.67999999999995 -52.24 275.76 -52.24H267.59999999999997Q267.28 -52.24 267.28 -51.92Z" fill="#F0EBE2"/>
  </g>
  <circle cx="208.84" cy="185" r="9" fill="#E07020"/>
  <g transform="translate(217.84, 215)">
    <path d="M36.540000000000006 -22.540000000000003V-12.740000000000002Q36.540000000000006 -12.250000000000002 36.260000000000005 -11.970000000000002Q35.980000000000004 -11.690000000000001 35.49 -11.690000000000001H33.39Q32.970000000000006 -11.690000000000001 32.970000000000006 -11.270000000000001V-1.05Q32.970000000000006 -0.56 32.690000000000005 -0.28Q32.410000000000004 0.0 31.92 0.0H20.860000000000003Q20.37 0.0 20.090000000000003 -0.28Q19.810000000000002 -0.56 19.810000000000002 -1.05V-11.270000000000001Q19.810000000000002 -11.690000000000001 19.39 -11.690000000000001H1.61Q1.12 -11.690000000000001 0.8400000000000001 -11.970000000000002Q0.56 -12.250000000000002 0.56 -12.740000000000002V-20.51Q0.56 -21.14 0.77 -21.770000000000003L9.24 -48.160000000000004Q9.520000000000001 -49.00000000000001 10.430000000000001 -49.00000000000001H22.26Q22.820000000000004 -49.00000000000001 23.065000000000005 -48.685Q23.310000000000002 -48.370000000000005 23.17 -47.81L15.96 -24.080000000000002Q15.890000000000002 -23.590000000000003 16.310000000000002 -23.590000000000003H19.39Q19.810000000000002 -23.590000000000003 19.810000000000002 -24.01V-28.770000000000003Q19.810000000000002 -29.26 20.090000000000003 -29.540000000000003Q20.37 -29.820000000000004 20.860000000000003 -29.820000000000004H31.92Q32.410000000000004 -29.820000000000004 32.690000000000005 -29.540000000000003Q32.970000000000006 -29.26 32.970000000000006 -28.770000000000003V-24.01Q32.970000000000006 -23.590000000000003 33.39 -23.590000000000003H35.49Q35.980000000000004 -23.590000000000003 36.260000000000005 -23.310000000000002Q36.540000000000006 -23.03 36.540000000000006 -22.540000000000003Z M48.38 -49.00000000000001H59.86Q60.35000000000001 -49.00000000000001 60.63000000000001 -48.720000000000006Q60.910000000000004 -48.440000000000005 60.910000000000004 -47.95V-1.05Q60.910000000000004 -0.56 60.63000000000001 -0.28Q60.35000000000001 0.0 59.86 0.0H48.800000000000004Q48.31 0.0 48.03 -0.28Q47.75 -0.56 47.75 -1.05V-36.61000000000001Q47.75 -37.03 47.33 -37.03H42.71Q42.22 -37.03 41.94 -37.31Q41.660000000000004 -37.59 41.660000000000004 -38.080000000000005V-46.2Q41.660000000000004 -47.11000000000001 42.5 -47.39000000000001L47.120000000000005 -48.790000000000006Q47.75 -49.00000000000001 48.38 -49.00000000000001Z" fill="#E07020"/>
  </g>
  <line x1="150" y1="245" x2="350" y2="245" stroke="#2E2820" stroke-width="1"/>
  <g transform="translate(91.74, 285)">
    <path d="M7.1819999999999995 -10.421999999999999H3.42Q3.3299999999999996 -10.421999999999999 3.3299999999999996 -10.331999999999999V-7.4879999999999995Q3.3299999999999996 -7.398 3.42 -7.398H5.579999999999999Q5.67 -7.398 5.733 -7.334999999999999Q5.795999999999999 -7.271999999999999 5.795999999999999 -7.1819999999999995V-5.436Q5.795999999999999 -5.345999999999999 5.733 -5.2829999999999995Q5.67 -5.22 5.579999999999999 -5.22H3.42Q3.3299999999999996 -5.22 3.3299999999999996 -5.13V-2.268Q3.3299999999999996 -2.178 3.42 -2.178H7.1819999999999995Q7.271999999999999 -2.178 7.334999999999999 -2.115Q7.398 -2.052 7.398 -1.9619999999999997V-0.21599999999999997Q7.398 -0.126 7.334999999999999 -0.063Q7.271999999999999 0.0 7.1819999999999995 0.0H1.008Q0.9179999999999999 0.0 0.855 -0.063Q0.7919999999999999 -0.126 0.7919999999999999 -0.21599999999999997V-12.383999999999999Q0.7919999999999999 -12.473999999999998 0.855 -12.536999999999999Q0.9179999999999999 -12.6 1.008 -12.6H7.1819999999999995Q7.271999999999999 -12.6 7.334999999999999 -12.536999999999999Q7.398 -12.473999999999998 7.398 -12.383999999999999V-10.638Q7.398 -10.548 7.334999999999999 -10.485Q7.271999999999999 -10.421999999999999 7.1819999999999995 -10.421999999999999Z M22.04 -12.6H24.128Q24.218 -12.6 24.281 -12.536999999999999Q24.344 -12.473999999999998 24.344 -12.383999999999999V-0.21599999999999997Q24.344 -0.126 24.281 -0.063Q24.218 0.0 24.128 0.0H21.752Q21.572 0.0 21.518 -0.18L19.286 -7.145999999999999Q19.268 -7.199999999999999 19.223 -7.190999999999999Q19.178 -7.1819999999999995 19.178 -7.127999999999999L19.196 -0.21599999999999997Q19.196 -0.126 19.133000000000003 -0.063Q19.07 0.0 18.98 0.0H16.892Q16.802 0.0 16.739 -0.063Q16.676000000000002 -0.126 16.676000000000002 -0.21599999999999997V-12.383999999999999Q16.676000000000002 -12.473999999999998 16.739 -12.536999999999999Q16.802 -12.6 16.892 -12.6H19.25Q19.43 -12.6 19.484 -12.42L21.734 -5.454Q21.752 -5.3999999999999995 21.796999999999997 -5.408999999999999Q21.842 -5.417999999999999 21.842 -5.4719999999999995L21.823999999999998 -12.383999999999999Q21.823999999999998 -12.473999999999998 21.887 -12.536999999999999Q21.95 -12.6 22.04 -12.6Z M41.12799999999999 -12.383999999999999V-10.638Q41.12799999999999 -10.548 41.065 -10.485Q41.001999999999995 -10.421999999999999 40.91199999999999 -10.421999999999999H38.66199999999999Q38.571999999999996 -10.421999999999999 38.571999999999996 -10.331999999999999V-0.21599999999999997Q38.571999999999996 -0.126 38.509 -0.063Q38.446 0.0 38.355999999999995 0.0H36.24999999999999Q36.16 0.0 36.096999999999994 -0.063Q36.03399999999999 -0.126 36.03399999999999 -0.21599999999999997V-10.331999999999999Q36.03399999999999 -10.421999999999999 35.943999999999996 -10.421999999999999H33.784Q33.693999999999996 -10.421999999999999 33.631 -10.485Q33.568 -10.548 33.568 -10.638V-12.383999999999999Q33.568 -12.473999999999998 33.631 -12.536999999999999Q33.693999999999996 -12.6 33.784 -12.6H40.91199999999999Q41.001999999999995 -12.6 41.065 -12.536999999999999Q41.12799999999999 -12.473999999999998 41.12799999999999 -12.383999999999999Z M55.068 -0.18 53.681999999999995 -5.148Q53.645999999999994 -5.22 53.592 -5.22H52.98Q52.88999999999999 -5.22 52.88999999999999 -5.13V-0.21599999999999997Q52.88999999999999 -0.126 52.827 -0.063Q52.763999999999996 0.0 52.67399999999999 0.0H50.568Q50.477999999999994 0.0 50.41499999999999 -0.063Q50.352 -0.126 50.352 -0.21599999999999997V-12.383999999999999Q50.352 -12.473999999999998 50.41499999999999 -12.536999999999999Q50.477999999999994 -12.6 50.568 -12.6H54.20399999999999Q55.193999999999996 -12.6 55.967999999999996 -12.123Q56.742 -11.645999999999999 57.16499999999999 -10.782Q57.587999999999994 -9.918 57.587999999999994 -8.802Q57.587999999999994 -7.739999999999999 57.18299999999999 -6.93Q56.77799999999999 -6.119999999999999 56.05799999999999 -5.67Q56.02199999999999 -5.651999999999999 56.00399999999999 -5.625Q55.986 -5.598 56.004 -5.561999999999999L57.66 -0.252L57.678 -0.18Q57.678 0.0 57.48 0.0H55.31999999999999Q55.12199999999999 0.0 55.068 -0.18ZM52.88999999999999 -10.331999999999999V-7.254Q52.88999999999999 -7.164 52.98 -7.164H53.78999999999999Q54.34799999999999 -7.164 54.699 -7.6049999999999995Q55.05 -8.046 55.05 -8.783999999999999Q55.05 -9.54 54.699 -9.980999999999998Q54.34799999999999 -10.421999999999999 53.78999999999999 -10.421999999999999H52.98Q52.88999999999999 -10.421999999999999 52.88999999999999 -10.331999999999999Z M73.22 -10.421999999999999H69.458Q69.368 -10.421999999999999 69.368 -10.331999999999999V-7.4879999999999995Q69.368 -7.398 69.458 -7.398H71.618Q71.708 -7.398 71.771 -7.334999999999999Q71.834 -7.271999999999999 71.834 -7.1819999999999995V-5.436Q71.834 -5.345999999999999 71.771 -5.2829999999999995Q71.708 -5.22 71.618 -5.22H69.458Q69.368 -5.22 69.368 -5.13V-2.268Q69.368 -2.178 69.458 -2.178H73.22Q73.31 -2.178 73.37299999999999 -2.115Q73.43599999999999 -2.052 73.43599999999999 -1.9619999999999997V-0.21599999999999997Q73.43599999999999 -0.126 73.37299999999999 -0.063Q73.31 0.0 73.22 0.0H67.04599999999999Q66.956 0.0 66.893 -0.063Q66.83 -0.126 66.83 -0.21599999999999997V-12.383999999999999Q66.83 -12.473999999999998 66.893 -12.536999999999999Q66.956 -12.6 67.04599999999999 -12.6H73.22Q73.31 -12.6 73.37299999999999 -12.536999999999999Q73.43599999999999 -12.473999999999998 73.43599999999999 -12.383999999999999V-10.638Q73.43599999999999 -10.548 73.37299999999999 -10.485Q73.31 -10.421999999999999 73.22 -10.421999999999999Z M82.282 -0.21599999999999997V-2.034Q82.282 -2.178 82.336 -2.304L86.188 -10.314Q86.206 -10.367999999999999 86.188 -10.395Q86.17 -10.421999999999999 86.116 -10.421999999999999H82.49799999999999Q82.408 -10.421999999999999 82.345 -10.485Q82.282 -10.548 82.282 -10.638V-12.383999999999999Q82.282 -12.473999999999998 82.345 -12.536999999999999Q82.408 -12.6 82.49799999999999 -12.6H88.69Q88.78 -12.6 88.84299999999999 -12.536999999999999Q88.90599999999999 -12.473999999999998 88.90599999999999 -12.383999999999999V-10.565999999999999Q88.90599999999999 -10.44 88.852 -10.296L85.0 -2.286Q84.982 -2.2319999999999998 85.0 -2.205Q85.018 -2.178 85.072 -2.178H88.69Q88.78 -2.178 88.84299999999999 -2.115Q88.90599999999999 -2.052 88.90599999999999 -1.9619999999999997V-0.21599999999999997Q88.90599999999999 -0.126 88.84299999999999 -0.063Q88.78 0.0 88.69 0.0H82.49799999999999Q82.408 0.0 82.345 -0.063Q82.282 -0.126 82.282 -0.21599999999999997Z M132.39 -3.2399999999999998V-4.481999999999999Q132.39 -4.572 132.45299999999997 -4.635Q132.51599999999996 -4.6979999999999995 132.60599999999997 -4.6979999999999995H134.712Q134.80199999999996 -4.6979999999999995 134.86499999999995 -4.635Q134.92799999999997 -4.572 134.92799999999997 -4.481999999999999V-3.2039999999999997Q134.92799999999997 -2.682 135.19799999999998 -2.3579999999999997Q135.468 -2.034 135.91799999999998 -2.034Q136.38599999999997 -2.034 136.66499999999996 -2.3579999999999997Q136.944 -2.682 136.944 -3.2039999999999997V-12.383999999999999Q136.944 -12.473999999999998 137.00699999999998 -12.536999999999999Q137.06999999999996 -12.6 137.15999999999997 -12.6H139.26599999999996Q139.35599999999997 -12.6 139.41899999999998 -12.536999999999999Q139.48199999999997 -12.473999999999998 139.48199999999997 -12.383999999999999V-3.2399999999999998Q139.48199999999997 -1.71 138.50099999999998 -0.783Q137.51999999999998 0.144 135.91799999999998 0.144Q134.33399999999997 0.144 133.36199999999997 -0.783Q132.39 -1.71 132.39 -3.2399999999999998Z M148.88599999999997 -3.42V-9.18Q148.88599999999997 -10.799999999999999 149.87599999999998 -11.771999999999998Q150.86599999999999 -12.744 152.52199999999996 -12.744Q154.17799999999997 -12.744 155.17699999999996 -11.771999999999998Q156.17599999999996 -10.799999999999999 156.17599999999996 -9.18V-3.42Q156.17599999999996 -1.7999999999999998 155.17699999999996 -0.828Q154.17799999999997 0.144 152.52199999999996 0.144Q150.86599999999999 0.144 149.87599999999998 -0.828Q148.88599999999997 -1.7999999999999998 148.88599999999997 -3.42ZM153.63799999999998 -3.312V-9.287999999999998Q153.63799999999998 -9.863999999999999 153.332 -10.215Q153.02599999999998 -10.565999999999999 152.52199999999996 -10.565999999999999Q152.01799999999997 -10.565999999999999 151.72099999999998 -10.215Q151.42399999999998 -9.863999999999999 151.42399999999998 -9.287999999999998V-3.312Q151.42399999999998 -2.7359999999999998 151.72099999999998 -2.385Q152.01799999999997 -2.034 152.52199999999996 -2.034Q153.02599999999998 -2.034 153.332 -2.385Q153.63799999999998 -2.7359999999999998 153.63799999999998 -3.312Z M165.52599999999998 -3.582V-12.383999999999999Q165.52599999999998 -12.473999999999998 165.589 -12.536999999999999Q165.652 -12.6 165.742 -12.6H167.84799999999998Q167.938 -12.6 168.00099999999998 -12.536999999999999Q168.064 -12.473999999999998 168.064 -12.383999999999999V-3.3299999999999996Q168.064 -2.754 168.35199999999998 -2.394Q168.64 -2.034 169.10799999999998 -2.034Q169.576 -2.034 169.855 -2.394Q170.134 -2.754 170.134 -3.3299999999999996V-12.383999999999999Q170.134 -12.473999999999998 170.197 -12.536999999999999Q170.26 -12.6 170.35 -12.6H172.456Q172.546 -12.6 172.60899999999998 -12.536999999999999Q172.67199999999997 -12.473999999999998 172.67199999999997 -12.383999999999999V-3.582Q172.67199999999997 -1.89 171.69099999999997 -0.873Q170.70999999999998 0.144 169.10799999999998 0.144Q167.48799999999997 0.144 166.50699999999998 -0.873Q165.52599999999998 -1.89 165.52599999999998 -3.582Z M188.59199999999996 -10.421999999999999H184.82999999999996Q184.73999999999998 -10.421999999999999 184.73999999999998 -10.331999999999999V-7.4879999999999995Q184.73999999999998 -7.398 184.82999999999996 -7.398H186.98999999999998Q187.07999999999996 -7.398 187.14299999999997 -7.334999999999999Q187.20599999999996 -7.271999999999999 187.20599999999996 -7.1819999999999995V-5.436Q187.20599999999996 -5.345999999999999 187.14299999999997 -5.2829999999999995Q187.07999999999996 -5.22 186.98999999999998 -5.22H184.82999999999996Q184.73999999999998 -5.22 184.73999999999998 -5.13V-2.268Q184.73999999999998 -2.178 184.82999999999996 -2.178H188.59199999999996Q188.68199999999996 -2.178 188.74499999999995 -2.115Q188.80799999999996 -2.052 188.80799999999996 -1.9619999999999997V-0.21599999999999997Q188.80799999999996 -0.126 188.74499999999995 -0.063Q188.68199999999996 0.0 188.59199999999996 0.0H182.41799999999998Q182.32799999999997 0.0 182.265 -0.063Q182.20199999999997 -0.126 182.20199999999997 -0.21599999999999997V-12.383999999999999Q182.20199999999997 -12.473999999999998 182.265 -12.536999999999999Q182.32799999999997 -12.6 182.41799999999998 -12.6H188.59199999999996Q188.68199999999996 -12.6 188.74499999999995 -12.536999999999999Q188.80799999999996 -12.473999999999998 188.80799999999996 -12.383999999999999V-10.638Q188.80799999999996 -10.548 188.74499999999995 -10.485Q188.68199999999996 -10.421999999999999 188.59199999999996 -10.421999999999999Z M197.654 -0.21599999999999997V-2.034Q197.654 -2.178 197.70799999999997 -2.304L201.55999999999997 -10.314Q201.57799999999997 -10.367999999999999 201.55999999999997 -10.395Q201.54199999999997 -10.421999999999999 201.48799999999997 -10.421999999999999H197.86999999999998Q197.77999999999997 -10.421999999999999 197.71699999999998 -10.485Q197.654 -10.548 197.654 -10.638V-12.383999999999999Q197.654 -12.473999999999998 197.71699999999998 -12.536999999999999Q197.77999999999997 -12.6 197.86999999999998 -12.6H204.06199999999998Q204.152 -12.6 204.21499999999997 -12.536999999999999Q204.278 -12.473999999999998 204.278 -12.383999999999999V-10.565999999999999Q204.278 -10.44 204.224 -10.296L200.37199999999999 -2.286Q200.35399999999998 -2.2319999999999998 200.37199999999999 -2.205Q200.39 -2.178 200.444 -2.178H204.06199999999998Q204.152 -2.178 204.21499999999997 -2.115Q204.278 -2.052 204.278 -1.9619999999999997V-0.21599999999999997Q204.278 -0.126 204.21499999999997 -0.063Q204.152 0.0 204.06199999999998 0.0H197.86999999999998Q197.77999999999997 0.0 197.71699999999998 -0.063Q197.654 -0.126 197.654 -0.21599999999999997Z M250.49799999999996 -0.19799999999999998 247.92399999999995 -12.366 247.90599999999995 -12.437999999999999Q247.90599999999995 -12.6 248.10399999999996 -12.6H250.42599999999996Q250.64199999999997 -12.6 250.65999999999997 -12.402L251.90199999999996 -4.481999999999999Q251.91999999999996 -4.409999999999999 251.95599999999996 -4.409999999999999Q251.99199999999996 -4.409999999999999 252.00999999999996 -4.481999999999999L253.21599999999995 -12.402Q253.23399999999995 -12.6 253.44999999999996 -12.6H255.69999999999996Q255.93399999999997 -12.6 255.87999999999997 -12.366L253.28799999999995 -0.19799999999999998Q253.25199999999995 0.0 253.05399999999997 0.0H250.73199999999997Q250.53399999999996 0.0 250.49799999999996 -0.19799999999999998Z M265.08599999999996 -0.21599999999999997V-12.383999999999999Q265.08599999999996 -12.473999999999998 265.149 -12.536999999999999Q265.212 -12.6 265.30199999999996 -12.6H267.40799999999996Q267.498 -12.6 267.561 -12.536999999999999Q267.62399999999997 -12.473999999999998 267.62399999999997 -12.383999999999999V-0.21599999999999997Q267.62399999999997 -0.126 267.561 -0.063Q267.498 0.0 267.40799999999996 0.0H265.30199999999996Q265.212 0.0 265.149 -0.063Q265.08599999999996 -0.126 265.08599999999996 -0.21599999999999997Z M279.42199999999997 -0.19799999999999998 276.84799999999996 -12.366 276.83 -12.437999999999999Q276.83 -12.6 277.02799999999996 -12.6H279.34999999999997Q279.566 -12.6 279.58399999999995 -12.402L280.82599999999996 -4.481999999999999Q280.844 -4.409999999999999 280.88 -4.409999999999999Q280.91599999999994 -4.409999999999999 280.93399999999997 -4.481999999999999L282.14 -12.402Q282.15799999999996 -12.6 282.37399999999997 -12.6H284.62399999999997Q284.85799999999995 -12.6 284.804 -12.366L282.212 -0.19799999999999998Q282.176 0.0 281.97799999999995 0.0H279.65599999999995Q279.45799999999997 0.0 279.42199999999997 -0.19799999999999998Z M300.4 -10.421999999999999H296.638Q296.54799999999994 -10.421999999999999 296.54799999999994 -10.331999999999999V-7.4879999999999995Q296.54799999999994 -7.398 296.638 -7.398H298.79799999999994Q298.888 -7.398 298.95099999999996 -7.334999999999999Q299.01399999999995 -7.271999999999999 299.01399999999995 -7.1819999999999995V-5.436Q299.01399999999995 -5.345999999999999 298.95099999999996 -5.2829999999999995Q298.888 -5.22 298.79799999999994 -5.22H296.638Q296.54799999999994 -5.22 296.54799999999994 -5.13V-2.268Q296.54799999999994 -2.178 296.638 -2.178H300.4Q300.48999999999995 -2.178 300.553 -2.115Q300.616 -2.052 300.616 -1.9619999999999997V-0.21599999999999997Q300.616 -0.126 300.553 -0.063Q300.48999999999995 0.0 300.4 0.0H294.22599999999994Q294.13599999999997 0.0 294.073 -0.063Q294.00999999999993 -0.126 294.00999999999993 -0.21599999999999997V-12.383999999999999Q294.00999999999993 -12.473999999999998 294.073 -12.536999999999999Q294.13599999999997 -12.6 294.22599999999994 -12.6H300.4Q300.48999999999995 -12.6 300.553 -12.536999999999999Q300.616 -12.473999999999998 300.616 -12.383999999999999V-10.638Q300.616 -10.548 300.553 -10.485Q300.48999999999995 -10.421999999999999 300.4 -10.421999999999999Z M309.462 -0.21599999999999997V-2.034Q309.462 -2.178 309.51599999999996 -2.304L313.368 -10.314Q313.38599999999997 -10.367999999999999 313.36799999999994 -10.395Q313.34999999999997 -10.421999999999999 313.296 -10.421999999999999H309.678Q309.58799999999997 -10.421999999999999 309.525 -10.485Q309.462 -10.548 309.462 -10.638V-12.383999999999999Q309.462 -12.473999999999998 309.525 -12.536999999999999Q309.58799999999997 -12.6 309.678 -12.6H315.86999999999995Q315.96 -12.6 316.02299999999997 -12.536999999999999Q316.08599999999996 -12.473999999999998 316.08599999999996 -12.383999999999999V-10.565999999999999Q316.08599999999996 -10.44 316.032 -10.296L312.17999999999995 -2.286Q312.162 -2.2319999999999998 312.17999999999995 -2.205Q312.198 -2.178 312.25199999999995 -2.178H315.86999999999995Q315.96 -2.178 316.02299999999997 -2.115Q316.08599999999996 -2.052 316.08599999999996 -1.9619999999999997V-0.21599999999999997Q316.08599999999996 -0.126 316.02299999999997 -0.063Q315.96 0.0 315.86999999999995 0.0H309.678Q309.58799999999997 0.0 309.525 -0.063Q309.462 -0.126 309.462 -0.21599999999999997Z" fill="#8A8078"/>
  </g>
</svg>
