<?xml version="1.0" encoding="UTF-8"?>
<svg xmlns="http://www.w3.org/2000/svg" viewBox="0 0 512 512" width="512" height="512" preserveAspectRatio="xMidYMid meet">
  <title>GAMEDOOR.41 Avatar carre</title>
  <rect width="512" height="512" rx="64" fill="#0C0800"/>
  <g transform="translate(112.20, 230)">
    <path d="M1.6 -15.68V-40.4Q1.6 -47.84 6.4 -52.24Q11.200000000000001 -56.64 19.12 -56.64Q24.32 -56.64 28.28 -54.64Q32.24 -52.64 34.44 -48.92Q36.64 -45.2 36.64 -40.24V-37.6Q36.64 -37.04 36.32 -36.72Q36.0 -36.4 35.44 -36.4H22.8Q22.240000000000002 -36.4 21.92 -36.72Q21.6 -37.04 21.6 -37.6V-40.4Q21.6 -41.92 20.92 -42.84Q20.240000000000002 -43.76 19.12 -43.76Q18.0 -43.76 17.32 -42.84Q16.64 -41.92 16.64 -40.4V-15.6Q16.64 -14.08 17.32 -13.16Q18.0 -12.24 19.12 -12.24Q20.240000000000002 -12.24 20.92 -13.16Q21.6 -14.08 21.6 -15.6V-19.52Q21.6 -20.0 21.12 -20.0H20.48Q19.92 -20.0 19.6 -20.32Q19.28 -20.64 19.28 -21.2V-30.400000000000002Q19.28 -30.96 19.6 -31.28Q19.92 -31.6 20.48 -31.6H35.44Q36.0 -31.6 36.32 -31.28Q36.64 -30.96 36.64 -30.400000000000002V-15.68Q36.64 -10.8 34.44 -7.08Q32.24 -3.36 28.28 -1.3599999999999999Q24.32 0.64 19.12 0.64Q11.200000000000001 0.64 6.4 -3.8000000000000003Q1.6 -8.24 1.6 -15.68Z M61.24 -1.12 60.36 -7.12Q60.36 -7.28 60.2 -7.44Q60.040000000000006 -7.6000000000000005 59.800000000000004 -7.6000000000000005H52.760000000000005Q52.52 -7.6000000000000005 52.36 -7.44Q52.2 -7.28 52.2 -7.12L51.400000000000006 -1.12Q51.32000000000001 0.0 50.120000000000005 0.0H37.56Q36.28 0.0 36.52 -1.28L47.88 -54.96Q48.120000000000005 -56.0 49.24 -56.0H63.800000000000004Q64.92 -56.0 65.16 -54.96L76.52000000000001 -1.28V-0.96Q76.52000000000001 0.0 75.4 0.0H62.52Q61.32000000000001 0.0 61.24 -1.12ZM54.36 -19.12H58.120000000000005Q58.68000000000001 -19.12 58.52 -19.6L56.36 -34.0Q56.28 -34.32 56.120000000000005 -34.32Q55.96 -34.32 55.88 -34.0L53.96 -19.6Q53.96 -19.12 54.36 -19.12Z M104.64 -56.0H117.12Q117.68 -56.0 118.0 -55.68Q118.32 -55.36 118.32 -54.800000000000004V-1.2Q118.32 -0.64 118.0 -0.32Q117.68 0.0 117.12 0.0H104.48Q103.92 0.0 103.6 -0.32Q103.28 -0.64 103.28 -1.2V-33.76Q103.28 -34.08 103.08 -34.16Q102.88 -34.24 102.72 -33.92L98.16 -26.240000000000002L97.36 -24.8H97.28L92.0 -33.92Q91.84 -34.24 91.64 -34.2Q91.44 -34.160000000000004 91.44 -33.76V-1.2Q91.44 -0.64 91.12 -0.32Q90.8 0.0 90.24 0.0H77.6Q77.03999999999999 0.0 76.72 -0.32Q76.4 -0.64 76.4 -1.2V-54.800000000000004Q76.4 -55.36 76.72 -55.68Q77.03999999999999 -56.0 77.6 -56.0H90.08Q91.12 -56.0 91.52 -55.120000000000005L97.12 -44.88Q97.28 -44.64 97.48 -44.6Q97.68 -44.56 97.75999999999999 -44.88L103.2 -55.120000000000005Q103.68 -56.0 104.64 -56.0Z M149.88 -43.12H134.6Q134.12 -43.12 134.12 -42.64V-34.96Q134.12 -34.480000000000004 134.6 -34.480000000000004H142.52Q143.08 -34.480000000000004 143.4 -34.160000000000004Q143.72 -33.84 143.72 -33.28V-22.8Q143.72 -22.240000000000002 143.4 -21.92Q143.08 -21.6 142.52 -21.6H134.6Q134.12 -21.6 134.12 -21.12V-13.36Q134.12 -12.88 134.6 -12.88H149.88Q150.44 -12.88 150.76 -12.56Q151.07999999999998 -12.24 151.07999999999998 -11.68V-1.2Q151.07999999999998 -0.64 150.76 -0.32Q150.44 0.0 149.88 0.0H120.28Q119.72 0.0 119.4 -0.32Q119.08 -0.64 119.08 -1.2V-54.800000000000004Q119.08 -55.36 119.4 -55.68Q119.72 -56.0 120.28 -56.0H149.88Q150.44 -56.0 150.76 -55.68Q151.07999999999998 -55.36 151.07999999999998 -54.800000000000004V-44.32Q151.07999999999998 -43.76 150.76 -43.44Q150.44 -43.12 149.88 -43.12Z" fill="#F0EBE2"/>
    <path d="M155.84 -0.8V-55.2Q155.84 -56.0 156.64000000000001 -56.0H168.4Q174.32000000000002 -56.0 177.76000000000002 -52.04Q181.20000000000002 -48.08 181.20000000000002 -41.28V-14.72Q181.20000000000002 -7.92 177.76000000000002 -3.96Q174.32000000000002 0.0 168.4 0.0H156.64000000000001Q155.84 0.0 155.84 -0.8ZM160.4 -3.7600000000000002H168.4Q172.32000000000002 -3.84 174.60000000000002 -6.76Q176.88 -9.68 176.88 -14.8V-41.12Q176.88 -46.32 174.60000000000002 -49.28Q172.32000000000002 -52.24 168.32000000000002 -52.24H160.4Q160.08 -52.24 160.08 -51.92V-4.08Q160.08 -3.7600000000000002 160.4 -3.7600000000000002Z M188.44 -12.8V-43.12Q188.44 -49.2 192.04000000000002 -52.92Q195.64000000000001 -56.64 201.56 -56.64Q207.48000000000002 -56.64 211.16000000000003 -52.92Q214.84 -49.2 214.84 -43.12V-12.8Q214.84 -6.8 211.16000000000003 -3.08Q207.48000000000002 0.64 201.56 0.64Q195.72 0.64 192.07999999999998 -3.08Q188.44 -6.8 188.44 -12.8ZM210.6 -12.64V-43.28Q210.6 -47.52 208.07999999999998 -50.2Q205.56 -52.88 201.56 -52.88Q197.64000000000001 -52.88 195.16000000000003 -50.2Q192.68 -47.52 192.68 -43.28V-12.64Q192.68 -8.4 195.16000000000003 -5.76Q197.64000000000001 -3.12 201.56 -3.12Q205.56 -3.12 208.07999999999998 -5.76Q210.6 -8.4 210.6 -12.64Z M221.51999999999998 -12.8V-43.12Q221.51999999999998 -49.2 225.12 -52.92Q228.72 -56.64 234.64 -56.64Q240.56 -56.64 244.24 -52.92Q247.92 -49.2 247.92 -43.12V-12.8Q247.92 -6.8 244.24 -3.08Q240.56 0.64 234.64 0.64Q228.79999999999998 0.64 225.15999999999997 -3.08Q221.51999999999998 -6.8 221.51999999999998 -12.8ZM243.67999999999998 -12.64V-43.28Q243.67999999999998 -47.52 241.15999999999997 -50.2Q238.64 -52.88 234.64 -52.88Q230.72 -52.88 228.24 -50.2Q225.76 -47.52 225.76 -43.28V-12.64Q225.76 -8.4 228.24 -5.76Q230.72 -3.12 234.64 -3.12Q238.64 -3.12 241.15999999999997 -5.76Q243.67999999999998 -8.4 243.67999999999998 -12.64Z M277.64 -0.64 268.84 -26.0Q268.76 -26.240000000000002 268.52 -26.240000000000002H260.59999999999997Q260.28 -26.240000000000002 260.28 -25.92V-0.8Q260.28 0.0 259.47999999999996 0.0H256.84Q256.03999999999996 0.0 256.03999999999996 -0.8V-55.2Q256.03999999999996 -56.0 256.84 -56.0H269.23999999999995Q274.84 -56.0 278.28 -51.84Q281.71999999999997 -47.68 281.71999999999997 -40.96Q281.71999999999997 -35.6 279.4 -31.840000000000003Q277.08 -28.080000000000002 273.08 -26.72Q272.76 -26.64 272.84 -26.32L281.88 -0.88L281.96 -0.56Q281.96 0.0 281.23999999999995 0.0H278.59999999999997Q277.88 0.0 277.64 -0.64ZM260.28 -51.92V-30.080000000000002Q260.28 -29.76 260.59999999999997 -29.76H268.76Q272.67999999999995 -29.76 275.0799999999999 -32.84Q277.47999999999996 -35.92 277.47999999999996 -40.96Q277.47999999999996 -46.08 275.0799999999999 -49.16Q272.67999999999995 -52.24 268.76 -52.24H260.59999999999997Q260.28 -52.24 260.28 -51.92Z" fill="#F0EBE2"/>
  </g>
  <circle cx="198.19" cy="305" r="14" fill="#E07020"/>
  <g transform="translate(212.19, 360)">
    <path d="M57.42 -35.42V-20.02Q57.42 -19.25 56.980000000000004 -18.810000000000002Q56.54 -18.37 55.77 -18.37H52.47Q51.81 -18.37 51.81 -17.71V-1.65Q51.81 -0.88 51.370000000000005 -0.44Q50.93 0.0 50.160000000000004 0.0H32.78Q32.01 0.0 31.57 -0.44Q31.13 -0.88 31.13 -1.65V-17.71Q31.13 -18.37 30.47 -18.37H2.53Q1.76 -18.37 1.32 -18.810000000000002Q0.88 -19.25 0.88 -20.02V-32.23Q0.88 -33.22 1.21 -34.21L14.52 -75.68Q14.96 -77.0 16.39 -77.0H34.98Q35.86 -77.0 36.245000000000005 -76.505Q36.63 -76.01 36.410000000000004 -75.13L25.080000000000002 -37.84Q24.97 -37.07 25.63 -37.07H30.47Q31.13 -37.07 31.13 -37.73V-45.21Q31.13 -45.98 31.57 -46.42Q32.01 -46.86 32.78 -46.86H50.160000000000004Q50.93 -46.86 51.370000000000005 -46.42Q51.81 -45.98 51.81 -45.21V-37.73Q51.81 -37.07 52.47 -37.07H55.77Q56.54 -37.07 56.980000000000004 -36.629999999999995Q57.42 -36.19 57.42 -35.42Z M73.74 -77.0H91.78Q92.55 -77.0 92.99 -76.56Q93.42999999999999 -76.12 93.42999999999999 -75.35V-1.65Q93.42999999999999 -0.88 92.99 -0.44Q92.55 0.0 91.78 0.0H74.39999999999999Q73.63 0.0 73.19 -0.44Q72.75 -0.88 72.75 -1.65V-57.53Q72.75 -58.19 72.09 -58.19H64.83Q64.06 -58.19 63.620000000000005 -58.629999999999995Q63.18 -59.07 63.18 -59.84V-72.6Q63.18 -74.03 64.5 -74.47L71.75999999999999 -76.67Q72.75 -77.0 73.74 -77.0Z" fill="#E07020"/>
  </g>
</svg>
