<?xml version="1.0" encoding="UTF-8"?>
<svg xmlns="http://www.w3.org/2000/svg" viewBox="0 0 500 280" width="500" height="280" preserveAspectRatio="xMidYMid meet">
  <title>GAMEDOOR.41 Empile</title>
  <rect width="500" height="280" fill="#0C0800"/>
  <g transform="translate(103.20, 135)">
    <path d="M1.6 -15.68V-40.4Q1.6 -47.84 6.4 -52.24Q11.200000000000001 -56.64 19.12 -56.64Q24.32 -56.64 28.28 -54.64Q32.24 -52.64 34.44 -48.92Q36.64 -45.2 36.64 -40.24V-37.6Q36.64 -37.04 36.32 -36.72Q36.0 -36.4 35.44 -36.4H22.8Q22.240000000000002 -36.4 21.92 -36.72Q21.6 -37.04 21.6 -37.6V-40.4Q21.6 -41.92 20.92 -42.84Q20.240000000000002 -43.76 19.12 -43.76Q18.0 -43.76 17.32 -42.84Q16.64 -41.92 16.64 -40.4V-15.6Q16.64 -14.08 17.32 -13.16Q18.0 -12.24 19.12 -12.24Q20.240000000000002 -12.24 20.92 -13.16Q21.6 -14.08 21.6 -15.6V-19.52Q21.6 -20.0 21.12 -20.0H20.48Q19.92 -20.0 19.6 -20.32Q19.28 -20.64 19.28 -21.2V-30.400000000000002Q19.28 -30.96 19.6 -31.28Q19.92 -31.6 20.48 -31.6H35.44Q36.0 -31.6 36.32 -31.28Q36.64 -30.96 36.64 -30.400000000000002V-15.68Q36.64 -10.8 34.44 -7.08Q32.24 -3.36 28.28 -1.3599999999999999Q24.32 0.64 19.12 0.64Q11.200000000000001 0.64 6.4 -3.8000000000000003Q1.6 -8.24 1.6 -15.68Z M62.24 -1.12 61.36 -7.12Q61.36 -7.28 61.2 -7.44Q61.040000000000006 -7.6000000000000005 60.800000000000004 -7.6000000000000005H53.760000000000005Q53.52 -7.6000000000000005 53.36 -7.44Q53.2 -7.28 53.2 -7.12L52.400000000000006 -1.12Q52.32000000000001 0.0 51.120000000000005 0.0H38.56Q37.28 0.0 37.52 -1.28L48.88 -54.96Q49.120000000000005 -56.0 50.24 -56.0H64.80000000000001Q65.92 -56.0 66.16 -54.96L77.52000000000001 -1.28V-0.96Q77.52000000000001 0.0 76.4 0.0H63.52Q62.32000000000001 0.0 62.24 -1.12ZM55.36 -19.12H59.120000000000005Q59.68000000000001 -19.12 59.52 -19.6L57.36 -34.0Q57.28 -34.32 57.120000000000005 -34.32Q56.96 -34.32 56.88 -34.0L54.96 -19.6Q54.96 -19.12 55.36 -19.12Z M106.64 -56.0H119.12Q119.68 -56.0 120.0 -55.68Q120.32 -55.36 120.32 -54.800000000000004V-1.2Q120.32 -0.64 120.0 -0.32Q119.68 0.0 119.12 0.0H106.48Q105.92 0.0 105.6 -0.32Q105.28 -0.64 105.28 -1.2V-33.76Q105.28 -34.08 105.08 -34.16Q104.88 -34.24 104.72 -33.92L100.16 -26.240000000000002L99.36 -24.8H99.28L94.0 -33.92Q93.84 -34.24 93.64 -34.2Q93.44 -34.160000000000004 93.44 -33.76V-1.2Q93.44 -0.64 93.12 -0.32Q92.8 0.0 92.24 0.0H79.6Q79.03999999999999 0.0 78.72 -0.32Q78.4 -0.64 78.4 -1.2V-54.800000000000004Q78.4 -55.36 78.72 -55.68Q79.03999999999999 -56.0 79.6 -56.0H92.08Q93.12 -56.0 93.52 -55.120000000000005L99.12 -44.88Q99.28 -44.64 99.48 -44.6Q99.68 -44.56 99.75999999999999 -44.88L105.2 -55.120000000000005Q105.68 -56.0 106.64 -56.0Z M152.88 -43.12H137.6Q137.12 -43.12 137.12 -42.64V-34.96Q137.12 -34.480000000000004 137.6 -34.480000000000004H145.52Q146.08 -34.480000000000004 146.4 -34.160000000000004Q146.72 -33.84 146.72 -33.28V-22.8Q146.72 -22.240000000000002 146.4 -21.92Q146.08 -21.6 145.52 -21.6H137.6Q137.12 -21.6 137.12 -21.12V-13.36Q137.12 -12.88 137.6 -12.88H152.88Q153.44 -12.88 153.76 -12.56Q154.07999999999998 -12.24 154.07999999999998 -11.68V-1.2Q154.07999999999998 -0.64 153.76 -0.32Q153.44 0.0 152.88 0.0H123.28Q122.72 0.0 122.4 -0.32Q122.08 -0.64 122.08 -1.2V-54.800000000000004Q122.08 -55.36 122.4 -55.68Q122.72 -56.0 123.28 -56.0H152.88Q153.44 -56.0 153.76 -55.68Q154.07999999999998 -55.36 154.07999999999998 -54.800000000000004V-44.32Q154.07999999999998 -43.76 153.76 -43.44Q153.44 -43.12 152.88 -43.12Z" fill="#F0EBE2"/>
    <path d="M159.84 -0.8V-55.2Q159.84 -56.0 160.64000000000001 -56.0H172.4Q178.32000000000002 -56.0 181.76000000000002 -52.04Q185.20000000000002 -48.08 185.20000000000002 -41.28V-14.72Q185.20000000000002 -7.92 181.76000000000002 -3.96Q178.32000000000002 0.0 172.4 0.0H160.64000000000001Q159.84 0.0 159.84 -0.8ZM164.4 -3.7600000000000002H172.4Q176.32000000000002 -3.84 178.60000000000002 -6.76Q180.88 -9.68 180.88 -14.8V-41.12Q180.88 -46.32 178.60000000000002 -49.28Q176.32000000000002 -52.24 172.32000000000002 -52.24H164.4Q164.08 -52.24 164.08 -51.92V-4.08Q164.08 -3.7600000000000002 164.4 -3.7600000000000002Z M193.44 -12.8V-43.12Q193.44 -49.2 197.04000000000002 -52.92Q200.64000000000001 -56.64 206.56 -56.64Q212.48000000000002 -56.64 216.16000000000003 -52.92Q219.84 -49.2 219.84 -43.12V-12.8Q219.84 -6.8 216.16000000000003 -3.08Q212.48000000000002 0.64 206.56 0.64Q200.72 0.64 197.07999999999998 -3.08Q193.44 -6.8 193.44 -12.8ZM215.6 -12.64V-43.28Q215.6 -47.52 213.07999999999998 -50.2Q210.56 -52.88 206.56 -52.88Q202.64000000000001 -52.88 200.16000000000003 -50.2Q197.68 -47.52 197.68 -43.28V-12.64Q197.68 -8.4 200.16000000000003 -5.76Q202.64000000000001 -3.12 206.56 -3.12Q210.56 -3.12 213.07999999999998 -5.76Q215.6 -8.4 215.6 -12.64Z M227.51999999999998 -12.8V-43.12Q227.51999999999998 -49.2 231.12 -52.92Q234.72 -56.64 240.64 -56.64Q246.56 -56.64 250.24 -52.92Q253.92 -49.2 253.92 -43.12V-12.8Q253.92 -6.8 250.24 -3.08Q246.56 0.64 240.64 0.64Q234.79999999999998 0.64 231.15999999999997 -3.08Q227.51999999999998 -6.8 227.51999999999998 -12.8ZM249.67999999999998 -12.64V-43.28Q249.67999999999998 -47.52 247.15999999999997 -50.2Q244.64 -52.88 240.64 -52.88Q236.72 -52.88 234.24 -50.2Q231.76 -47.52 231.76 -43.28V-12.64Q231.76 -8.4 234.24 -5.76Q236.72 -3.12 240.64 -3.12Q244.64 -3.12 247.15999999999997 -5.76Q249.67999999999998 -8.4 249.67999999999998 -12.64Z M284.64 -0.64 275.84 -26.0Q275.76 -26.240000000000002 275.52 -26.240000000000002H267.59999999999997Q267.28 -26.240000000000002 267.28 -25.92V-0.8Q267.28 0.0 266.47999999999996 0.0H263.84Q263.03999999999996 0.0 263.03999999999996 -0.8V-55.2Q263.03999999999996 -56.0 263.84 -56.0H276.23999999999995Q281.84 -56.0 285.28 -51.84Q288.71999999999997 -47.68 288.71999999999997 -40.96Q288.71999999999997 -35.6 286.4 -31.840000000000003Q284.08 -28.080000000000002 280.08 -26.72Q279.76 -26.64 279.84 -26.32L288.88 -0.88L288.96 -0.56Q288.96 0.0 288.23999999999995 0.0H285.59999999999997Q284.88 0.0 284.64 -0.64ZM267.28 -51.92V-30.080000000000002Q267.28 -29.76 267.59999999999997 -29.76H275.76Q279.67999999999995 -29.76 282.0799999999999 -32.84Q284.47999999999996 -35.92 284.47999999999996 -40.96Q284.47999999999996 -46.08 282.0799999999999 -49.16Q279.67999999999995 -52.24 275.76 -52.24H267.59999999999997Q267.28 -52.24 267.28 -51.92Z" fill="#F0EBE2"/>
  </g>
  <circle cx="208.84" cy="195" r="9" fill="#E07020"/>
  <g transform="translate(217.84, 225)">
    <path d="M36.540000000000006 -22.540000000000003V-12.740000000000002Q36.540000000000006 -12.250000000000002 36.260000000000005 -11.970000000000002Q35.980000000000004 -11.690000000000001 35.49 -11.690000000000001H33.39Q32.970000000000006 -11.690000000000001 32.970000000000006 -11.270000000000001V-1.05Q32.970000000000006 -0.56 32.690000000000005 -0.28Q32.410000000000004 0.0 31.92 0.0H20.860000000000003Q20.37 0.0 20.090000000000003 -0.28Q19.810000000000002 -0.56 19.810000000000002 -1.05V-11.270000000000001Q19.810000000000002 -11.690000000000001 19.39 -11.690000000000001H1.61Q1.12 -11.690000000000001 0.8400000000000001 -11.970000000000002Q0.56 -12.250000000000002 0.56 -12.740000000000002V-20.51Q0.56 -21.14 0.77 -21.770000000000003L9.24 -48.160000000000004Q9.520000000000001 -49.00000000000001 10.430000000000001 -49.00000000000001H22.26Q22.820000000000004 -49.00000000000001 23.065000000000005 -48.685Q23.310000000000002 -48.370000000000005 23.17 -47.81L15.96 -24.080000000000002Q15.890000000000002 -23.590000000000003 16.310000000000002 -23.590000000000003H19.39Q19.810000000000002 -23.590000000000003 19.810000000000002 -24.01V-28.770000000000003Q19.810000000000002 -29.26 20.090000000000003 -29.540000000000003Q20.37 -29.820000000000004 20.860000000000003 -29.820000000000004H31.92Q32.410000000000004 -29.820000000000004 32.690000000000005 -29.540000000000003Q32.970000000000006 -29.26 32.970000000000006 -28.770000000000003V-24.01Q32.970000000000006 -23.590000000000003 33.39 -23.590000000000003H35.49Q35.980000000000004 -23.590000000000003 36.260000000000005 -23.310000000000002Q36.540000000000006 -23.03 36.540000000000006 -22.540000000000003Z M48.38 -49.00000000000001H59.86Q60.35000000000001 -49.00000000000001 60.63000000000001 -48.720000000000006Q60.910000000000004 -48.440000000000005 60.910000000000004 -47.95V-1.05Q60.910000000000004 -0.56 60.63000000000001 -0.28Q60.35000000000001 0.0 59.86 0.0H48.800000000000004Q48.31 0.0 48.03 -0.28Q47.75 -0.56 47.75 -1.05V-36.61000000000001Q47.75 -37.03 47.33 -37.03H42.71Q42.22 -37.03 41.94 -37.31Q41.660000000000004 -37.59 41.660000000000004 -38.080000000000005V-46.2Q41.660000000000004 -47.11000000000001 42.5 -47.39000000000001L47.120000000000005 -48.790000000000006Q47.75 -49.00000000000001 48.38 -49.00000000000001Z" fill="#E07020"/>
  </g>
</svg>
