<?xml version="1.0" encoding="UTF-8"?>
<svg xmlns="http://www.w3.org/2000/svg" viewBox="0 0 1000 240" width="1000" height="240" preserveAspectRatio="xMidYMid meet">
  <title>GAMEDOOR.41 ACTION GAME</title>
  <defs>
    <linearGradient id="bg" x1="0%" y1="0%" x2="100%" y2="100%">
      <stop offset="0%" stop-color="#0C0800"/>
      <stop offset="100%" stop-color="#0A1008"/>
    </linearGradient>
  </defs>
  <rect width="1000" height="240" fill="url(#bg)"/>
  <g transform="translate(262.35, 110.00)">
    <path d="M2.0 -19.6V-50.5Q2.0 -59.800000000000004 8.0 -65.3Q14.0 -70.8 23.900000000000002 -70.8Q30.400000000000002 -70.8 35.35 -68.3Q40.300000000000004 -65.8 43.050000000000004 -61.15Q45.800000000000004 -56.5 45.800000000000004 -50.300000000000004V-47.0Q45.800000000000004 -46.300000000000004 45.400000000000006 -45.900000000000006Q45.0 -45.5 44.300000000000004 -45.5H28.5Q27.8 -45.5 27.4 -45.900000000000006Q27.0 -46.300000000000004 27.0 -47.0V-50.5Q27.0 -52.400000000000006 26.15 -53.550000000000004Q25.3 -54.7 23.900000000000002 -54.7Q22.5 -54.7 21.65 -53.550000000000004Q20.8 -52.400000000000006 20.8 -50.5V-19.5Q20.8 -17.6 21.65 -16.450000000000003Q22.5 -15.3 23.900000000000002 -15.3Q25.3 -15.3 26.15 -16.450000000000003Q27.0 -17.6 27.0 -19.5V-24.400000000000002Q27.0 -25.0 26.400000000000002 -25.0H25.6Q24.900000000000002 -25.0 24.5 -25.4Q24.1 -25.8 24.1 -26.5V-38.0Q24.1 -38.7 24.5 -39.1Q24.900000000000002 -39.5 25.6 -39.5H44.300000000000004Q45.0 -39.5 45.400000000000006 -39.1Q45.800000000000004 -38.7 45.800000000000004 -38.0V-19.6Q45.800000000000004 -13.5 43.050000000000004 -8.85Q40.300000000000004 -4.2 35.35 -1.7000000000000002Q30.400000000000002 0.8 23.900000000000002 0.8Q14.0 0.8 8.0 -4.75Q2.0 -10.3 2.0 -19.6Z M78.30000000000001 -1.4000000000000001 77.2 -8.9Q77.2 -9.1 77.0 -9.3Q76.80000000000001 -9.5 76.5 -9.5H67.7Q67.4 -9.5 67.2 -9.3Q67.0 -9.1 67.0 -8.9L66.0 -1.4000000000000001Q65.9 0.0 64.4 0.0H48.7Q47.1 0.0 47.400000000000006 -1.6L61.60000000000001 -68.7Q61.900000000000006 -70.0 63.300000000000004 -70.0H81.5Q82.9 -70.0 83.2 -68.7L97.4 -1.6V-1.2000000000000002Q97.4 0.0 96.0 0.0H79.9Q78.4 0.0 78.30000000000001 -1.4000000000000001ZM69.7 -23.900000000000002H74.4Q75.10000000000001 -23.900000000000002 74.9 -24.5L72.2 -42.5Q72.10000000000001 -42.900000000000006 71.9 -42.900000000000006Q71.7 -42.900000000000006 71.60000000000001 -42.5L69.2 -24.5Q69.2 -23.900000000000002 69.7 -23.900000000000002Z M134.3 -70.0H149.9Q150.60000000000002 -70.0 151.0 -69.6Q151.4 -69.2 151.4 -68.5V-1.5Q151.4 -0.8 151.0 -0.4Q150.60000000000002 0.0 149.9 0.0H134.10000000000002Q133.4 0.0 133.0 -0.4Q132.60000000000002 -0.8 132.60000000000002 -1.5V-42.2Q132.60000000000002 -42.6 132.35000000000002 -42.7Q132.10000000000002 -42.800000000000004 131.9 -42.400000000000006L126.2 -32.800000000000004L125.2 -31.0H125.10000000000001L118.5 -42.400000000000006Q118.30000000000001 -42.800000000000004 118.05000000000001 -42.75Q117.80000000000001 -42.7 117.80000000000001 -42.2V-1.5Q117.80000000000001 -0.8 117.4 -0.4Q117.0 0.0 116.30000000000001 0.0H100.5Q99.80000000000001 0.0 99.4 -0.4Q99.0 -0.8 99.0 -1.5V-68.5Q99.0 -69.2 99.4 -69.6Q99.80000000000001 -70.0 100.5 -70.0H116.10000000000001Q117.4 -70.0 117.9 -68.9L124.9 -56.1Q125.10000000000001 -55.800000000000004 125.35000000000001 -55.75Q125.60000000000001 -55.7 125.7 -56.1L132.5 -68.9Q133.10000000000002 -70.0 134.3 -70.0Z M192.6 -53.900000000000006H173.5Q172.9 -53.900000000000006 172.9 -53.300000000000004V-43.7Q172.9 -43.1 173.5 -43.1H183.4Q184.1 -43.1 184.5 -42.7Q184.9 -42.300000000000004 184.9 -41.6V-28.5Q184.9 -27.8 184.5 -27.4Q184.1 -27.0 183.4 -27.0H173.5Q172.9 -27.0 172.9 -26.400000000000002V-16.7Q172.9 -16.1 173.5 -16.1H192.6Q193.3 -16.1 193.7 -15.700000000000001Q194.1 -15.3 194.1 -14.600000000000001V-1.5Q194.1 -0.8 193.7 -0.4Q193.3 0.0 192.6 0.0H155.6Q154.9 0.0 154.5 -0.4Q154.1 -0.8 154.1 -1.5V-68.5Q154.1 -69.2 154.5 -69.6Q154.9 -70.0 155.6 -70.0H192.6Q193.3 -70.0 193.7 -69.6Q194.1 -69.2 194.1 -68.5V-55.400000000000006Q194.1 -54.7 193.7 -54.300000000000004Q193.3 -53.900000000000006 192.6 -53.900000000000006Z M201.8 -1.0V-69.0Q201.8 -70.0 202.8 -70.0H217.5Q224.9 -70.0 229.2 -65.05Q233.5 -60.1 233.5 -51.6V-18.400000000000002Q233.5 -9.9 229.2 -4.95Q224.9 0.0 217.5 0.0H202.8Q201.8 0.0 201.8 -1.0ZM207.5 -4.7H217.5Q222.4 -4.800000000000001 225.25 -8.450000000000001Q228.10000000000002 -12.100000000000001 228.10000000000002 -18.5V-51.400000000000006Q228.10000000000002 -57.900000000000006 225.25 -61.6Q222.4 -65.3 217.4 -65.3H207.5Q207.1 -65.3 207.1 -64.9V-5.1000000000000005Q207.1 -4.7 207.5 -4.7Z M244.3 -16.0V-53.900000000000006Q244.3 -61.5 248.8 -66.15Q253.3 -70.8 260.70000000000005 -70.8Q268.1 -70.8 272.70000000000005 -66.15Q277.3 -61.5 277.3 -53.900000000000006V-16.0Q277.3 -8.5 272.70000000000005 -3.85Q268.1 0.8 260.70000000000005 0.8Q253.4 0.8 248.85000000000002 -3.85Q244.3 -8.5 244.3 -16.0ZM272.0 -15.8V-54.1Q272.0 -59.400000000000006 268.85 -62.75000000000001Q265.70000000000005 -66.10000000000001 260.70000000000005 -66.10000000000001Q255.8 -66.10000000000001 252.70000000000002 -62.75000000000001Q249.60000000000002 -59.400000000000006 249.60000000000002 -54.1V-15.8Q249.60000000000002 -10.5 252.70000000000002 -7.2Q255.8 -3.9000000000000004 260.70000000000005 -3.9000000000000004Q265.70000000000005 -3.9000000000000004 268.85 -7.2Q272.0 -10.5 272.0 -15.8Z M287.40000000000003 -16.0V-53.900000000000006Q287.40000000000003 -61.5 291.90000000000003 -66.15Q296.40000000000003 -70.8 303.8 -70.8Q311.2 -70.8 315.8 -66.15Q320.40000000000003 -61.5 320.40000000000003 -53.900000000000006V-16.0Q320.40000000000003 -8.5 315.8 -3.85Q311.2 0.8 303.8 0.8Q296.5 0.8 291.95000000000005 -3.85Q287.40000000000003 -8.5 287.40000000000003 -16.0ZM315.1 -15.8V-54.1Q315.1 -59.400000000000006 311.95000000000005 -62.75000000000001Q308.8 -66.10000000000001 303.8 -66.10000000000001Q298.90000000000003 -66.10000000000001 295.8 -62.75000000000001Q292.7 -59.400000000000006 292.7 -54.1V-15.8Q292.7 -10.5 295.8 -7.2Q298.90000000000003 -3.9000000000000004 303.8 -3.9000000000000004Q308.8 -3.9000000000000004 311.95000000000005 -7.2Q315.1 -10.5 315.1 -15.8Z M359.3 -0.8 348.3 -32.5Q348.20000000000005 -32.800000000000004 347.90000000000003 -32.800000000000004H338.00000000000006Q337.6 -32.800000000000004 337.6 -32.4V-1.0Q337.6 0.0 336.6 0.0H333.3Q332.3 0.0 332.3 -1.0V-69.0Q332.3 -70.0 333.3 -70.0H348.8Q355.8 -70.0 360.1 -64.8Q364.40000000000003 -59.6 364.40000000000003 -51.2Q364.40000000000003 -44.5 361.5 -39.8Q358.6 -35.1 353.6 -33.4Q353.20000000000005 -33.300000000000004 353.3 -32.9L364.6 -1.1L364.70000000000005 -0.7000000000000001Q364.70000000000005 0.0 363.80000000000007 0.0H360.50000000000006Q359.6 0.0 359.3 -0.8ZM337.6 -64.9V-37.6Q337.6 -37.2 338.00000000000006 -37.2H348.20000000000005Q353.1 -37.2 356.1 -41.050000000000004Q359.1 -44.900000000000006 359.1 -51.2Q359.1 -57.6 356.1 -61.45Q353.1 -65.3 348.20000000000005 -65.3H338.00000000000006Q337.6 -65.3 337.6 -64.9Z" fill="#F0EBE2"/>
    <circle cx="376.00" cy="-30.00" r="10.00" fill="#76ff03"/>
    <path d="M446.20000000000005 -32.2V-18.2Q446.20000000000005 -17.5 445.80000000000007 -17.1Q445.4000000000001 -16.7 444.70000000000005 -16.7H441.70000000000005Q441.1000000000001 -16.7 441.1000000000001 -16.1V-1.5Q441.1000000000001 -0.8 440.70000000000005 -0.4Q440.30000000000007 0.0 439.6000000000001 0.0H423.80000000000007Q423.1000000000001 0.0 422.70000000000005 -0.4Q422.30000000000007 -0.8 422.30000000000007 -1.5V-16.1Q422.30000000000007 -16.7 421.70000000000005 -16.7H396.30000000000007Q395.6000000000001 -16.7 395.20000000000005 -17.1Q394.80000000000007 -17.5 394.80000000000007 -18.2V-29.3Q394.80000000000007 -30.200000000000003 395.1000000000001 -31.1L407.20000000000005 -68.8Q407.6000000000001 -70.0 408.90000000000003 -70.0H425.80000000000007Q426.6000000000001 -70.0 426.95000000000005 -69.55000000000001Q427.30000000000007 -69.10000000000001 427.1000000000001 -68.3L416.80000000000007 -34.4Q416.70000000000005 -33.7 417.30000000000007 -33.7H421.70000000000005Q422.30000000000007 -33.7 422.30000000000007 -34.300000000000004V-41.1Q422.30000000000007 -41.800000000000004 422.70000000000005 -42.2Q423.1000000000001 -42.6 423.80000000000007 -42.6H439.6000000000001Q440.30000000000007 -42.6 440.70000000000005 -42.2Q441.1000000000001 -41.800000000000004 441.1000000000001 -41.1V-34.300000000000004Q441.1000000000001 -33.7 441.70000000000005 -33.7H444.70000000000005Q445.4000000000001 -33.7 445.80000000000007 -33.3Q446.20000000000005 -32.9 446.20000000000005 -32.2Z M455.40000000000003 -70.0H471.80000000000007Q472.50000000000006 -70.0 472.9000000000001 -69.6Q473.30000000000007 -69.2 473.30000000000007 -68.5V-1.5Q473.30000000000007 -0.8 472.9000000000001 -0.4Q472.50000000000006 0.0 471.80000000000007 0.0H456.00000000000006Q455.30000000000007 0.0 454.9000000000001 -0.4Q454.50000000000006 -0.8 454.50000000000006 -1.5V-52.300000000000004Q454.50000000000006 -52.900000000000006 453.90000000000003 -52.900000000000006H447.30000000000007Q446.6000000000001 -52.900000000000006 446.20000000000005 -53.300000000000004Q445.80000000000007 -53.7 445.80000000000007 -54.400000000000006V-66.0Q445.80000000000007 -67.3 447.00000000000006 -67.7L453.6000000000001 -69.7Q454.50000000000006 -70.0 455.40000000000003 -70.0Z" fill="#76ff03"/>
  </g>
  <line x1="300" y1="155" x2="700" y2="155" stroke="#76ff03" stroke-width="1" opacity="0.4"/>
  <g transform="translate(415.22, 195.00)">
    <path d="M7.8 -0.216 7.272 -2.976Q7.272 -3.024 7.236000000000001 -3.048Q7.2 -3.072 7.152 -3.072H3.24Q3.192 -3.072 3.156 -3.048Q3.12 -3.024 3.12 -2.976L2.616 -0.216Q2.592 0.0 2.352 0.0H0.528Q0.40800000000000003 0.0 0.34800000000000003 -0.07200000000000001Q0.28800000000000003 -0.14400000000000002 0.312 -0.264L3.888 -16.584Q3.936 -16.8 4.152 -16.8H6.288Q6.5280000000000005 -16.8 6.5520000000000005 -16.584L10.152000000000001 -0.264V-0.216Q10.152000000000001 0.0 9.936 0.0H8.064Q7.848 0.0 7.8 -0.216ZM3.6 -4.896H6.792Q6.864 -4.896 6.864 -4.992L5.232 -13.512Q5.208 -13.56 5.184 -13.56Q5.16 -13.56 5.136 -13.512L3.528 -4.992Q3.528 -4.896 3.6 -4.896Z M17.616 -4.152V-12.672Q17.616 -14.64 18.804 -15.816Q19.991999999999997 -16.992 21.936 -16.992Q23.904 -16.992 25.092 -15.816Q26.28 -14.64 26.28 -12.672V-12.288Q26.28 -12.048 26.04 -12.048L24.215999999999998 -11.952Q23.976 -11.952 23.976 -12.192V-12.816Q23.976 -13.8 23.412 -14.4Q22.848 -15.0 21.936 -15.0Q21.024 -15.0 20.472 -14.4Q19.919999999999998 -13.8 19.919999999999998 -12.816V-3.984Q19.919999999999998 -3.0 20.472 -2.4Q21.024 -1.8 21.936 -1.8Q22.848 -1.8 23.412 -2.4Q23.976 -3.0 23.976 -3.984V-4.6080000000000005Q23.976 -4.848 24.215999999999998 -4.848L26.04 -4.752Q26.28 -4.752 26.28 -4.5120000000000005V-4.152Q26.28 -2.184 25.092 -0.9960000000000001Q23.904 0.192 21.936 0.192Q19.991999999999997 0.192 18.804 -0.9960000000000001Q17.616 -2.184 17.616 -4.152Z M43.128 -16.56V-15.048Q43.128 -14.808 42.888 -14.808H39.744Q39.647999999999996 -14.808 39.647999999999996 -14.712V-0.24Q39.647999999999996 0.0 39.408 0.0H37.583999999999996Q37.343999999999994 0.0 37.343999999999994 -0.24V-14.712Q37.343999999999994 -14.808 37.248 -14.808H34.272Q34.032 -14.808 34.032 -15.048V-16.56Q34.032 -16.8 34.272 -16.8H42.888Q43.128 -16.8 43.128 -16.56Z M51.336 -0.24V-16.56Q51.336 -16.8 51.576 -16.8H53.4Q53.64 -16.8 53.64 -16.56V-0.24Q53.64 0.0 53.4 0.0H51.576Q51.336 0.0 51.336 -0.24Z M62.28 -4.2V-12.576Q62.28 -14.568 63.480000000000004 -15.780000000000001Q64.68 -16.992 66.648 -16.992Q68.64 -16.992 69.852 -15.780000000000001Q71.064 -14.568 71.064 -12.576V-4.2Q71.064 -2.208 69.852 -1.008Q68.64 0.192 66.648 0.192Q64.68 0.192 63.480000000000004 -1.008Q62.28 -2.208 62.28 -4.2ZM68.76 -4.104V-12.696Q68.76 -13.728 68.184 -14.364Q67.608 -15.0 66.648 -15.0Q65.712 -15.0 65.148 -14.364Q64.584 -13.728 64.584 -12.696V-4.104Q64.584 -3.072 65.148 -2.436Q65.712 -1.8 66.648 -1.8Q67.608 -1.8 68.184 -2.436Q68.76 -3.072 68.76 -4.104Z M86.712 -16.8H88.512Q88.75200000000001 -16.8 88.75200000000001 -16.56V-0.24Q88.75200000000001 0.0 88.512 0.0H86.44800000000001Q86.25600000000001 0.0 86.18400000000001 -0.192L82.10400000000001 -11.16Q82.08000000000001 -11.208 82.03200000000001 -11.196000000000002Q81.98400000000001 -11.184000000000001 81.98400000000001 -11.136000000000001L82.00800000000001 -0.24Q82.00800000000001 0.0 81.76800000000001 0.0H79.944Q79.70400000000001 0.0 79.70400000000001 -0.24V-16.56Q79.70400000000001 -16.8 79.944 -16.8H81.98400000000001Q82.176 -16.8 82.248 -16.608L86.352 -5.64Q86.376 -5.5680000000000005 86.424 -5.58Q86.47200000000001 -5.5920000000000005 86.47200000000001 -5.664V-16.56Q86.47200000000001 -16.8 86.712 -16.8Z M108.19200000000001 -4.008V-12.792Q108.19200000000001 -14.688 109.38000000000001 -15.84Q110.56800000000001 -16.992 112.512 -16.992Q114.456 -16.992 115.656 -15.84Q116.85600000000001 -14.688 116.85600000000001 -12.768V-11.76Q116.85600000000001 -11.52 116.61600000000001 -11.52H114.792Q114.552 -11.52 114.552 -11.76V-12.816Q114.552 -13.8 113.988 -14.4Q113.424 -15.0 112.512 -15.0Q111.60000000000001 -15.0 111.036 -14.4Q110.47200000000001 -13.8 110.47200000000001 -12.816V-3.984Q110.47200000000001 -3.0 111.036 -2.4Q111.60000000000001 -1.8 112.512 -1.8Q113.424 -1.8 113.988 -2.4Q114.552 -3.0 114.552 -3.984V-6.6240000000000006Q114.552 -6.72 114.456 -6.72H112.632Q112.39200000000001 -6.72 112.39200000000001 -6.96V-8.448Q112.39200000000001 -8.688 112.632 -8.688H116.61600000000001Q116.85600000000001 -8.688 116.85600000000001 -8.448V-4.008Q116.85600000000001 -2.112 115.656 -0.9600000000000001Q114.456 0.192 112.512 0.192Q110.56800000000001 0.192 109.38000000000001 -0.9600000000000001Q108.19200000000001 -2.112 108.19200000000001 -4.008Z M131.80800000000002 -0.216 131.28 -2.976Q131.28 -3.024 131.244 -3.048Q131.208 -3.072 131.16 -3.072H127.248Q127.20000000000002 -3.072 127.16400000000002 -3.048Q127.12800000000001 -3.024 127.12800000000001 -2.976L126.62400000000001 -0.216Q126.60000000000001 0.0 126.36000000000001 0.0H124.53600000000002Q124.41600000000001 0.0 124.35600000000001 -0.07200000000000001Q124.296 -0.14400000000000002 124.32000000000001 -0.264L127.89600000000002 -16.584Q127.94400000000002 -16.8 128.16 -16.8H130.29600000000002Q130.536 -16.8 130.56 -16.584L134.16000000000003 -0.264V-0.216Q134.16000000000003 0.0 133.94400000000002 0.0H132.072Q131.85600000000002 0.0 131.80800000000002 -0.216ZM127.608 -4.896H130.8Q130.872 -4.896 130.872 -4.992L129.24 -13.512Q129.216 -13.56 129.192 -13.56Q129.168 -13.56 129.144 -13.512L127.53600000000002 -4.992Q127.53600000000002 -4.896 127.608 -4.896Z M149.71200000000002 -16.8H151.536Q151.776 -16.8 151.776 -16.56V-0.24Q151.776 0.0 151.536 0.0H149.71200000000002Q149.472 0.0 149.472 -0.24V-12.144Q149.472 -12.216000000000001 149.436 -12.216000000000001Q149.4 -12.216000000000001 149.352 -12.168000000000001L147.048 -7.872Q146.976 -7.704 146.83200000000002 -7.704Q146.68800000000002 -7.704 146.616 -7.872L144.336 -12.144Q144.288 -12.192 144.252 -12.192Q144.216 -12.192 144.216 -12.120000000000001V-0.24Q144.216 0.0 143.976 0.0H142.15200000000002Q141.912 0.0 141.912 -0.24V-16.56Q141.912 -16.8 142.15200000000002 -16.8H143.976Q144.144 -16.8 144.264 -16.632L146.78400000000002 -12.120000000000001Q146.80800000000002 -12.096 146.856 -12.096Q146.904 -12.096 146.928 -12.120000000000001L149.424 -16.632Q149.52 -16.8 149.71200000000002 -16.8Z M168.48000000000002 -14.808H163.08Q162.984 -14.808 162.984 -14.712V-9.504Q162.984 -9.408 163.08 -9.408H166.392Q166.632 -9.408 166.632 -9.168000000000001V-7.656000000000001Q166.632 -7.416 166.392 -7.416H163.08Q162.984 -7.416 162.984 -7.32V-2.088Q162.984 -1.992 163.08 -1.992H168.48000000000002Q168.72 -1.992 168.72 -1.752V-0.24Q168.72 0.0 168.48000000000002 0.0H160.92000000000002Q160.68 0.0 160.68 -0.24V-16.56Q160.68 -16.8 160.92000000000002 -16.8H168.48000000000002Q168.72 -16.8 168.72 -16.56V-15.048Q168.72 -14.808 168.48000000000002 -14.808Z" fill="#76ff03"/>
  </g>
</svg>
