<?xml version="1.0" encoding="UTF-8"?>
<svg xmlns="http://www.w3.org/2000/svg" viewBox="0 0 1000 240" width="1000" height="240" preserveAspectRatio="xMidYMid meet">
  <title>GAMEDOOR.41 EVENTS & RECEPTIONS</title>
  <defs>
    <linearGradient id="bg" x1="0%" y1="0%" x2="100%" y2="100%">
      <stop offset="0%" stop-color="#0C0800"/>
      <stop offset="100%" stop-color="#141008"/>
    </linearGradient>
  </defs>
  <rect width="1000" height="240" fill="url(#bg)"/>
  <g transform="translate(262.35, 110.00)">
    <path d="M2.0 -19.6V-50.5Q2.0 -59.800000000000004 8.0 -65.3Q14.0 -70.8 23.900000000000002 -70.8Q30.400000000000002 -70.8 35.35 -68.3Q40.300000000000004 -65.8 43.050000000000004 -61.15Q45.800000000000004 -56.5 45.800000000000004 -50.300000000000004V-47.0Q45.800000000000004 -46.300000000000004 45.400000000000006 -45.900000000000006Q45.0 -45.5 44.300000000000004 -45.5H28.5Q27.8 -45.5 27.4 -45.900000000000006Q27.0 -46.300000000000004 27.0 -47.0V-50.5Q27.0 -52.400000000000006 26.15 -53.550000000000004Q25.3 -54.7 23.900000000000002 -54.7Q22.5 -54.7 21.65 -53.550000000000004Q20.8 -52.400000000000006 20.8 -50.5V-19.5Q20.8 -17.6 21.65 -16.450000000000003Q22.5 -15.3 23.900000000000002 -15.3Q25.3 -15.3 26.15 -16.450000000000003Q27.0 -17.6 27.0 -19.5V-24.400000000000002Q27.0 -25.0 26.400000000000002 -25.0H25.6Q24.900000000000002 -25.0 24.5 -25.4Q24.1 -25.8 24.1 -26.5V-38.0Q24.1 -38.7 24.5 -39.1Q24.900000000000002 -39.5 25.6 -39.5H44.300000000000004Q45.0 -39.5 45.400000000000006 -39.1Q45.800000000000004 -38.7 45.800000000000004 -38.0V-19.6Q45.800000000000004 -13.5 43.050000000000004 -8.85Q40.300000000000004 -4.2 35.35 -1.7000000000000002Q30.400000000000002 0.8 23.900000000000002 0.8Q14.0 0.8 8.0 -4.75Q2.0 -10.3 2.0 -19.6Z M78.30000000000001 -1.4000000000000001 77.2 -8.9Q77.2 -9.1 77.0 -9.3Q76.80000000000001 -9.5 76.5 -9.5H67.7Q67.4 -9.5 67.2 -9.3Q67.0 -9.1 67.0 -8.9L66.0 -1.4000000000000001Q65.9 0.0 64.4 0.0H48.7Q47.1 0.0 47.400000000000006 -1.6L61.60000000000001 -68.7Q61.900000000000006 -70.0 63.300000000000004 -70.0H81.5Q82.9 -70.0 83.2 -68.7L97.4 -1.6V-1.2000000000000002Q97.4 0.0 96.0 0.0H79.9Q78.4 0.0 78.30000000000001 -1.4000000000000001ZM69.7 -23.900000000000002H74.4Q75.10000000000001 -23.900000000000002 74.9 -24.5L72.2 -42.5Q72.10000000000001 -42.900000000000006 71.9 -42.900000000000006Q71.7 -42.900000000000006 71.60000000000001 -42.5L69.2 -24.5Q69.2 -23.900000000000002 69.7 -23.900000000000002Z M134.3 -70.0H149.9Q150.60000000000002 -70.0 151.0 -69.6Q151.4 -69.2 151.4 -68.5V-1.5Q151.4 -0.8 151.0 -0.4Q150.60000000000002 0.0 149.9 0.0H134.10000000000002Q133.4 0.0 133.0 -0.4Q132.60000000000002 -0.8 132.60000000000002 -1.5V-42.2Q132.60000000000002 -42.6 132.35000000000002 -42.7Q132.10000000000002 -42.800000000000004 131.9 -42.400000000000006L126.2 -32.800000000000004L125.2 -31.0H125.10000000000001L118.5 -42.400000000000006Q118.30000000000001 -42.800000000000004 118.05000000000001 -42.75Q117.80000000000001 -42.7 117.80000000000001 -42.2V-1.5Q117.80000000000001 -0.8 117.4 -0.4Q117.0 0.0 116.30000000000001 0.0H100.5Q99.80000000000001 0.0 99.4 -0.4Q99.0 -0.8 99.0 -1.5V-68.5Q99.0 -69.2 99.4 -69.6Q99.80000000000001 -70.0 100.5 -70.0H116.10000000000001Q117.4 -70.0 117.9 -68.9L124.9 -56.1Q125.10000000000001 -55.800000000000004 125.35000000000001 -55.75Q125.60000000000001 -55.7 125.7 -56.1L132.5 -68.9Q133.10000000000002 -70.0 134.3 -70.0Z M192.6 -53.900000000000006H173.5Q172.9 -53.900000000000006 172.9 -53.300000000000004V-43.7Q172.9 -43.1 173.5 -43.1H183.4Q184.1 -43.1 184.5 -42.7Q184.9 -42.300000000000004 184.9 -41.6V-28.5Q184.9 -27.8 184.5 -27.4Q184.1 -27.0 183.4 -27.0H173.5Q172.9 -27.0 172.9 -26.400000000000002V-16.7Q172.9 -16.1 173.5 -16.1H192.6Q193.3 -16.1 193.7 -15.700000000000001Q194.1 -15.3 194.1 -14.600000000000001V-1.5Q194.1 -0.8 193.7 -0.4Q193.3 0.0 192.6 0.0H155.6Q154.9 0.0 154.5 -0.4Q154.1 -0.8 154.1 -1.5V-68.5Q154.1 -69.2 154.5 -69.6Q154.9 -70.0 155.6 -70.0H192.6Q193.3 -70.0 193.7 -69.6Q194.1 -69.2 194.1 -68.5V-55.400000000000006Q194.1 -54.7 193.7 -54.300000000000004Q193.3 -53.900000000000006 192.6 -53.900000000000006Z M201.8 -1.0V-69.0Q201.8 -70.0 202.8 -70.0H217.5Q224.9 -70.0 229.2 -65.05Q233.5 -60.1 233.5 -51.6V-18.400000000000002Q233.5 -9.9 229.2 -4.95Q224.9 0.0 217.5 0.0H202.8Q201.8 0.0 201.8 -1.0ZM207.5 -4.7H217.5Q222.4 -4.800000000000001 225.25 -8.450000000000001Q228.10000000000002 -12.100000000000001 228.10000000000002 -18.5V-51.400000000000006Q228.10000000000002 -57.900000000000006 225.25 -61.6Q222.4 -65.3 217.4 -65.3H207.5Q207.1 -65.3 207.1 -64.9V-5.1000000000000005Q207.1 -4.7 207.5 -4.7Z M244.3 -16.0V-53.900000000000006Q244.3 -61.5 248.8 -66.15Q253.3 -70.8 260.70000000000005 -70.8Q268.1 -70.8 272.70000000000005 -66.15Q277.3 -61.5 277.3 -53.900000000000006V-16.0Q277.3 -8.5 272.70000000000005 -3.85Q268.1 0.8 260.70000000000005 0.8Q253.4 0.8 248.85000000000002 -3.85Q244.3 -8.5 244.3 -16.0ZM272.0 -15.8V-54.1Q272.0 -59.400000000000006 268.85 -62.75000000000001Q265.70000000000005 -66.10000000000001 260.70000000000005 -66.10000000000001Q255.8 -66.10000000000001 252.70000000000002 -62.75000000000001Q249.60000000000002 -59.400000000000006 249.60000000000002 -54.1V-15.8Q249.60000000000002 -10.5 252.70000000000002 -7.2Q255.8 -3.9000000000000004 260.70000000000005 -3.9000000000000004Q265.70000000000005 -3.9000000000000004 268.85 -7.2Q272.0 -10.5 272.0 -15.8Z M287.40000000000003 -16.0V-53.900000000000006Q287.40000000000003 -61.5 291.90000000000003 -66.15Q296.40000000000003 -70.8 303.8 -70.8Q311.2 -70.8 315.8 -66.15Q320.40000000000003 -61.5 320.40000000000003 -53.900000000000006V-16.0Q320.40000000000003 -8.5 315.8 -3.85Q311.2 0.8 303.8 0.8Q296.5 0.8 291.95000000000005 -3.85Q287.40000000000003 -8.5 287.40000000000003 -16.0ZM315.1 -15.8V-54.1Q315.1 -59.400000000000006 311.95000000000005 -62.75000000000001Q308.8 -66.10000000000001 303.8 -66.10000000000001Q298.90000000000003 -66.10000000000001 295.8 -62.75000000000001Q292.7 -59.400000000000006 292.7 -54.1V-15.8Q292.7 -10.5 295.8 -7.2Q298.90000000000003 -3.9000000000000004 303.8 -3.9000000000000004Q308.8 -3.9000000000000004 311.95000000000005 -7.2Q315.1 -10.5 315.1 -15.8Z M359.3 -0.8 348.3 -32.5Q348.20000000000005 -32.800000000000004 347.90000000000003 -32.800000000000004H338.00000000000006Q337.6 -32.800000000000004 337.6 -32.4V-1.0Q337.6 0.0 336.6 0.0H333.3Q332.3 0.0 332.3 -1.0V-69.0Q332.3 -70.0 333.3 -70.0H348.8Q355.8 -70.0 360.1 -64.8Q364.40000000000003 -59.6 364.40000000000003 -51.2Q364.40000000000003 -44.5 361.5 -39.8Q358.6 -35.1 353.6 -33.4Q353.20000000000005 -33.300000000000004 353.3 -32.9L364.6 -1.1L364.70000000000005 -0.7000000000000001Q364.70000000000005 0.0 363.80000000000007 0.0H360.50000000000006Q359.6 0.0 359.3 -0.8ZM337.6 -64.9V-37.6Q337.6 -37.2 338.00000000000006 -37.2H348.20000000000005Q353.1 -37.2 356.1 -41.050000000000004Q359.1 -44.900000000000006 359.1 -51.2Q359.1 -57.6 356.1 -61.45Q353.1 -65.3 348.20000000000005 -65.3H338.00000000000006Q337.6 -65.3 337.6 -64.9Z" fill="#F0EBE2"/>
    <circle cx="376.00" cy="-30.00" r="10.00" fill="#FFD740"/>
    <path d="M446.20000000000005 -32.2V-18.2Q446.20000000000005 -17.5 445.80000000000007 -17.1Q445.4000000000001 -16.7 444.70000000000005 -16.7H441.70000000000005Q441.1000000000001 -16.7 441.1000000000001 -16.1V-1.5Q441.1000000000001 -0.8 440.70000000000005 -0.4Q440.30000000000007 0.0 439.6000000000001 0.0H423.80000000000007Q423.1000000000001 0.0 422.70000000000005 -0.4Q422.30000000000007 -0.8 422.30000000000007 -1.5V-16.1Q422.30000000000007 -16.7 421.70000000000005 -16.7H396.30000000000007Q395.6000000000001 -16.7 395.20000000000005 -17.1Q394.80000000000007 -17.5 394.80000000000007 -18.2V-29.3Q394.80000000000007 -30.200000000000003 395.1000000000001 -31.1L407.20000000000005 -68.8Q407.6000000000001 -70.0 408.90000000000003 -70.0H425.80000000000007Q426.6000000000001 -70.0 426.95000000000005 -69.55000000000001Q427.30000000000007 -69.10000000000001 427.1000000000001 -68.3L416.80000000000007 -34.4Q416.70000000000005 -33.7 417.30000000000007 -33.7H421.70000000000005Q422.30000000000007 -33.7 422.30000000000007 -34.300000000000004V-41.1Q422.30000000000007 -41.800000000000004 422.70000000000005 -42.2Q423.1000000000001 -42.6 423.80000000000007 -42.6H439.6000000000001Q440.30000000000007 -42.6 440.70000000000005 -42.2Q441.1000000000001 -41.800000000000004 441.1000000000001 -41.1V-34.300000000000004Q441.1000000000001 -33.7 441.70000000000005 -33.7H444.70000000000005Q445.4000000000001 -33.7 445.80000000000007 -33.3Q446.20000000000005 -32.9 446.20000000000005 -32.2Z M455.40000000000003 -70.0H471.80000000000007Q472.50000000000006 -70.0 472.9000000000001 -69.6Q473.30000000000007 -69.2 473.30000000000007 -68.5V-1.5Q473.30000000000007 -0.8 472.9000000000001 -0.4Q472.50000000000006 0.0 471.80000000000007 0.0H456.00000000000006Q455.30000000000007 0.0 454.9000000000001 -0.4Q454.50000000000006 -0.8 454.50000000000006 -1.5V-52.300000000000004Q454.50000000000006 -52.900000000000006 453.90000000000003 -52.900000000000006H447.30000000000007Q446.6000000000001 -52.900000000000006 446.20000000000005 -53.300000000000004Q445.80000000000007 -53.7 445.80000000000007 -54.400000000000006V-66.0Q445.80000000000007 -67.3 447.00000000000006 -67.7L453.6000000000001 -69.7Q454.50000000000006 -70.0 455.40000000000003 -70.0Z" fill="#FFD740"/>
  </g>
  <line x1="300" y1="155" x2="700" y2="155" stroke="#FFD740" stroke-width="1" opacity="0.4"/>
  <g transform="translate(350.97, 195.00)">
    <path d="M9.288 -14.808H3.888Q3.7920000000000003 -14.808 3.7920000000000003 -14.712V-9.504Q3.7920000000000003 -9.408 3.888 -9.408H7.2Q7.44 -9.408 7.44 -9.168000000000001V-7.656000000000001Q7.44 -7.416 7.2 -7.416H3.888Q3.7920000000000003 -7.416 3.7920000000000003 -7.32V-2.088Q3.7920000000000003 -1.992 3.888 -1.992H9.288Q9.528 -1.992 9.528 -1.752V-0.24Q9.528 0.0 9.288 0.0H1.728Q1.488 0.0 1.488 -0.24V-16.56Q1.488 -16.8 1.728 -16.8H9.288Q9.528 -16.8 9.528 -16.56V-15.048Q9.528 -14.808 9.288 -14.808Z M20.568 -0.216 17.112000000000002 -16.536V-16.584Q17.112000000000002 -16.8 17.328000000000003 -16.8H19.32Q19.560000000000002 -16.8 19.584000000000003 -16.584L21.864000000000004 -4.128Q21.888 -4.08 21.912000000000003 -4.08Q21.936000000000003 -4.08 21.96 -4.128L24.192 -16.584Q24.240000000000002 -16.8 24.456000000000003 -16.8H26.376000000000005Q26.64 -16.8 26.592000000000002 -16.536L23.136000000000003 -0.216Q23.112000000000002 0.0 22.872000000000003 0.0H20.832Q20.616000000000003 0.0 20.568 -0.216Z M42.623999999999995 -14.808H37.224Q37.128 -14.808 37.128 -14.712V-9.504Q37.128 -9.408 37.224 -9.408H40.536Q40.775999999999996 -9.408 40.775999999999996 -9.168000000000001V-7.656000000000001Q40.775999999999996 -7.416 40.536 -7.416H37.224Q37.128 -7.416 37.128 -7.32V-2.088Q37.128 -1.992 37.224 -1.992H42.623999999999995Q42.864 -1.992 42.864 -1.752V-0.24Q42.864 0.0 42.623999999999995 0.0H35.064Q34.824 0.0 34.824 -0.24V-16.56Q34.824 -16.8 35.064 -16.8H42.623999999999995Q42.864 -16.8 42.864 -16.56V-15.048Q42.864 -14.808 42.623999999999995 -14.808Z M58.2 -16.8H60.0Q60.24 -16.8 60.24 -16.56V-0.24Q60.24 0.0 60.0 0.0H57.936Q57.744 0.0 57.672 -0.192L53.592 -11.16Q53.568 -11.208 53.519999999999996 -11.196000000000002Q53.472 -11.184000000000001 53.472 -11.136000000000001L53.496 -0.24Q53.496 0.0 53.256 0.0H51.432Q51.192 0.0 51.192 -0.24V-16.56Q51.192 -16.8 51.432 -16.8H53.472Q53.664 -16.8 53.736000000000004 -16.608L57.84 -5.64Q57.864000000000004 -5.5680000000000005 57.912000000000006 -5.58Q57.96 -5.5920000000000005 57.96 -5.664V-16.56Q57.96 -16.8 58.2 -16.8Z M77.54400000000001 -16.56V-15.048Q77.54400000000001 -14.808 77.304 -14.808H74.16000000000001Q74.06400000000001 -14.808 74.06400000000001 -14.712V-0.24Q74.06400000000001 0.0 73.82400000000001 0.0H72.00000000000001Q71.76 0.0 71.76 -0.24V-14.712Q71.76 -14.808 71.66400000000002 -14.808H68.688Q68.44800000000001 -14.808 68.44800000000001 -15.048V-16.56Q68.44800000000001 -16.8 68.688 -16.8H77.304Q77.54400000000001 -16.8 77.54400000000001 -16.56Z M85.17600000000002 -4.104V-4.728Q85.17600000000002 -4.968 85.41600000000001 -4.968H87.19200000000001Q87.43200000000002 -4.968 87.43200000000002 -4.728V-4.224Q87.43200000000002 -3.12 87.98400000000001 -2.46Q88.53600000000002 -1.8 89.4 -1.8Q90.26400000000001 -1.8 90.828 -2.436Q91.39200000000001 -3.072 91.39200000000001 -4.104Q91.39200000000001 -4.8 91.09200000000001 -5.327999999999999Q90.79200000000002 -5.856 90.30000000000001 -6.276Q89.808 -6.696 88.70400000000001 -7.5120000000000005Q87.48 -8.424 86.784 -9.072Q86.08800000000001 -9.72 85.608 -10.632000000000001Q85.12800000000001 -11.544 85.12800000000001 -12.768Q85.12800000000001 -14.712 86.28000000000002 -15.852Q87.43200000000002 -16.992 89.28000000000002 -16.992Q91.20000000000002 -16.992 92.364 -15.768Q93.528 -14.544 93.528 -12.552V-11.952Q93.528 -11.712 93.28800000000001 -11.712H91.51200000000001Q91.272 -11.712 91.272 -11.952V-12.6Q91.272 -13.68 90.72 -14.34Q90.168 -15.0 89.28000000000002 -15.0Q88.44000000000001 -15.0 87.912 -14.411999999999999Q87.38400000000001 -13.824 87.38400000000001 -12.768Q87.38400000000001 -11.808 87.912 -11.148Q88.44000000000001 -10.488 89.95200000000001 -9.384Q91.39200000000001 -8.304 92.12400000000001 -7.632Q92.85600000000001 -6.96 93.25200000000001 -6.156000000000001Q93.64800000000001 -5.352 93.64800000000001 -4.248Q93.64800000000001 -2.232 92.47200000000001 -1.02Q91.296 0.192 89.4 0.192Q87.504 0.192 86.34 -0.9960000000000001Q85.17600000000002 -2.184 85.17600000000002 -4.104Z M123.81600000000002 -0.14400000000000002Q123.81600000000002 -0.096 123.76800000000001 -0.048Q123.72000000000001 0.0 123.62400000000001 0.0H121.656Q121.48800000000001 0.0 121.34400000000001 -0.14400000000000002L120.528 -1.32Q120.45600000000002 -1.3920000000000001 120.38400000000001 -1.32Q119.49600000000001 -0.528 118.524 -0.15600000000000003Q117.552 0.216 116.4 0.216Q114.43200000000002 0.216 113.29200000000002 -0.8280000000000001Q112.15200000000002 -1.872 112.15200000000002 -3.84Q112.15200000000002 -5.472 112.89600000000002 -6.612Q113.64000000000001 -7.752 114.936 -8.784Q115.00800000000001 -8.808 114.96000000000001 -8.904Q114.12 -10.104000000000001 113.72400000000002 -10.788Q113.32800000000002 -11.472 113.19600000000001 -11.963999999999999Q113.06400000000001 -12.456 113.06400000000001 -13.08Q113.06400000000001 -14.856 114.12 -15.924Q115.17600000000002 -16.992 116.88000000000001 -16.992Q118.608 -16.992 119.71200000000002 -15.912Q120.81600000000002 -14.832 120.81600000000002 -13.056000000000001Q120.81600000000002 -11.592 120.06000000000002 -10.524000000000001Q119.30400000000002 -9.456 117.96000000000001 -8.4Q117.888 -8.376 117.936 -8.28L119.08800000000001 -6.648000000000001L120.48000000000002 -4.752Q120.528 -4.656 120.62400000000001 -4.752Q120.69600000000001 -4.896 120.888 -5.184Q121.46400000000001 -6.144 121.75200000000001 -6.672Q121.80000000000001 -6.768 121.89600000000002 -6.792Q121.99200000000002 -6.816 122.08800000000001 -6.768L123.43200000000002 -6.0Q123.62400000000001 -5.88 123.528 -5.664Q122.808 -4.32 121.87200000000001 -3.0Q121.84800000000001 -2.928 121.87200000000001 -2.856L123.76800000000001 -0.28800000000000003Q123.81600000000002 -0.24 123.81600000000002 -0.14400000000000002ZM115.36800000000001 -13.008000000000001Q115.36800000000001 -12.408 115.584 -11.892Q115.80000000000001 -11.376 116.56800000000001 -10.200000000000001Q116.64000000000001 -10.104000000000001 116.71200000000002 -10.176Q117.60000000000001 -10.92 118.05600000000001 -11.58Q118.51200000000001 -12.24 118.51200000000001 -13.056000000000001Q118.51200000000001 -13.872 118.08000000000001 -14.388Q117.64800000000001 -14.904 116.95200000000001 -14.904Q116.25600000000001 -14.904 115.81200000000001 -14.388Q115.36800000000001 -13.872 115.36800000000001 -13.008000000000001ZM119.16000000000001 -3.0Q119.23200000000001 -3.072 119.18400000000001 -3.144L116.32800000000002 -7.008Q116.28000000000002 -7.08 116.20800000000001 -7.008Q115.36800000000001 -6.264 114.912 -5.556Q114.45600000000002 -4.848 114.45600000000002 -3.984Q114.45600000000002 -3.0 115.02000000000001 -2.388Q115.58400000000002 -1.776 116.64000000000001 -1.776Q117.888 -1.776 119.16000000000001 -3.0Z M149.49600000000004 -0.192 147.288 -7.344Q147.264 -7.416 147.19200000000004 -7.416H145.51200000000003Q145.41600000000003 -7.416 145.41600000000003 -7.32V-0.24Q145.41600000000003 0.0 145.17600000000002 0.0H143.35200000000003Q143.11200000000002 0.0 143.11200000000002 -0.24V-16.56Q143.11200000000002 -16.8 143.35200000000003 -16.8H147.64800000000002Q148.872 -16.8 149.80800000000002 -16.2Q150.74400000000003 -15.6 151.26000000000002 -14.508Q151.776 -13.416 151.776 -12.024000000000001Q151.776 -10.512 151.15200000000002 -9.396Q150.52800000000002 -8.28 149.44800000000004 -7.776Q149.37600000000003 -7.704 149.40000000000003 -7.632000000000001L151.848 -0.264L151.872 -0.168Q151.872 0.0 151.65600000000003 0.0H149.78400000000002Q149.568 0.0 149.49600000000004 -0.192ZM145.41600000000003 -14.712V-9.336Q145.41600000000003 -9.24 145.51200000000003 -9.24H147.288Q148.27200000000002 -9.24 148.872 -9.996Q149.47200000000004 -10.752 149.47200000000004 -12.0Q149.47200000000004 -13.296000000000001 148.872 -14.052Q148.27200000000002 -14.808 147.288 -14.808H145.51200000000003Q145.41600000000003 -14.808 145.41600000000003 -14.712Z M167.78400000000005 -14.808H162.38400000000004Q162.28800000000004 -14.808 162.28800000000004 -14.712V-9.504Q162.28800000000004 -9.408 162.38400000000004 -9.408H165.69600000000003Q165.93600000000004 -9.408 165.93600000000004 -9.168000000000001V-7.656000000000001Q165.93600000000004 -7.416 165.69600000000003 -7.416H162.38400000000004Q162.28800000000004 -7.416 162.28800000000004 -7.32V-2.088Q162.28800000000004 -1.992 162.38400000000004 -1.992H167.78400000000005Q168.02400000000003 -1.992 168.02400000000003 -1.752V-0.24Q168.02400000000003 0.0 167.78400000000005 0.0H160.22400000000005Q159.98400000000004 0.0 159.98400000000004 -0.24V-16.56Q159.98400000000004 -16.8 160.22400000000005 -16.8H167.78400000000005Q168.02400000000003 -16.8 168.02400000000003 -16.56V-15.048Q168.02400000000003 -14.808 167.78400000000005 -14.808Z M176.01600000000002 -4.152V-12.672Q176.01600000000002 -14.64 177.204 -15.816Q178.39200000000002 -16.992 180.33600000000004 -16.992Q182.30400000000003 -16.992 183.49200000000002 -15.816Q184.68000000000004 -14.64 184.68000000000004 -12.672V-12.288Q184.68000000000004 -12.048 184.44000000000003 -12.048L182.61600000000004 -11.952Q182.37600000000003 -11.952 182.37600000000003 -12.192V-12.816Q182.37600000000003 -13.8 181.81200000000004 -14.4Q181.24800000000005 -15.0 180.33600000000004 -15.0Q179.42400000000004 -15.0 178.872 -14.4Q178.32000000000002 -13.8 178.32000000000002 -12.816V-3.984Q178.32000000000002 -3.0 178.872 -2.4Q179.42400000000004 -1.8 180.33600000000004 -1.8Q181.24800000000005 -1.8 181.81200000000004 -2.4Q182.37600000000003 -3.0 182.37600000000003 -3.984V-4.6080000000000005Q182.37600000000003 -4.848 182.61600000000004 -4.848L184.44000000000003 -4.752Q184.68000000000004 -4.752 184.68000000000004 -4.5120000000000005V-4.152Q184.68000000000004 -2.184 183.49200000000002 -0.9960000000000001Q182.30400000000003 0.192 180.33600000000004 0.192Q178.39200000000002 0.192 177.204 -0.9960000000000001Q176.01600000000002 -2.184 176.01600000000002 -4.152Z M201.00000000000006 -14.808H195.60000000000005Q195.50400000000005 -14.808 195.50400000000005 -14.712V-9.504Q195.50400000000005 -9.408 195.60000000000005 -9.408H198.91200000000003Q199.15200000000004 -9.408 199.15200000000004 -9.168000000000001V-7.656000000000001Q199.15200000000004 -7.416 198.91200000000003 -7.416H195.60000000000005Q195.50400000000005 -7.416 195.50400000000005 -7.32V-2.088Q195.50400000000005 -1.992 195.60000000000005 -1.992H201.00000000000006Q201.24000000000004 -1.992 201.24000000000004 -1.752V-0.24Q201.24000000000004 0.0 201.00000000000006 0.0H193.44000000000005Q193.20000000000005 0.0 193.20000000000005 -0.24V-16.56Q193.20000000000005 -16.8 193.44000000000005 -16.8H201.00000000000006Q201.24000000000004 -16.8 201.24000000000004 -16.56V-15.048Q201.24000000000004 -14.808 201.00000000000006 -14.808Z M218.20800000000003 -12.0Q218.20800000000003 -9.888 217.10400000000004 -8.592Q216.00000000000003 -7.296 214.20000000000005 -7.296H211.94400000000005Q211.84800000000004 -7.296 211.84800000000004 -7.2V-0.24Q211.84800000000004 0.0 211.60800000000003 0.0H209.78400000000005Q209.54400000000004 0.0 209.54400000000004 -0.24V-16.584Q209.54400000000004 -16.824 209.78400000000005 -16.824H214.08000000000004Q215.92800000000005 -16.824 217.06800000000004 -15.492Q218.20800000000003 -14.16 218.20800000000003 -12.0ZM215.90400000000005 -11.952Q215.90400000000005 -13.272 215.30400000000003 -14.052Q214.70400000000004 -14.832 213.72000000000003 -14.832H211.94400000000005Q211.84800000000004 -14.832 211.84800000000004 -14.736V-9.24Q211.84800000000004 -9.144 211.94400000000005 -9.144H213.72000000000003Q214.70400000000004 -9.144 215.30400000000003 -9.9Q215.90400000000005 -10.656 215.90400000000005 -11.952Z M234.72000000000006 -16.56V-15.048Q234.72000000000006 -14.808 234.48000000000005 -14.808H231.33600000000004Q231.24000000000007 -14.808 231.24000000000007 -14.712V-0.24Q231.24000000000007 0.0 231.00000000000006 0.0H229.17600000000004Q228.93600000000006 0.0 228.93600000000006 -0.24V-14.712Q228.93600000000006 -14.808 228.84000000000006 -14.808H225.86400000000006Q225.62400000000005 -14.808 225.62400000000005 -15.048V-16.56Q225.62400000000005 -16.8 225.86400000000006 -16.8H234.48000000000005Q234.72000000000006 -16.8 234.72000000000006 -16.56Z M242.92800000000005 -0.24V-16.56Q242.92800000000005 -16.8 243.16800000000006 -16.8H244.99200000000005Q245.23200000000006 -16.8 245.23200000000006 -16.56V-0.24Q245.23200000000006 0.0 244.99200000000005 0.0H243.16800000000006Q242.92800000000005 0.0 242.92800000000005 -0.24Z M253.87200000000004 -4.2V-12.576Q253.87200000000004 -14.568 255.07200000000006 -15.780000000000001Q256.27200000000005 -16.992 258.24000000000007 -16.992Q260.2320000000001 -16.992 261.4440000000001 -15.780000000000001Q262.65600000000006 -14.568 262.65600000000006 -12.576V-4.2Q262.65600000000006 -2.208 261.4440000000001 -1.008Q260.2320000000001 0.192 258.24000000000007 0.192Q256.27200000000005 0.192 255.07200000000006 -1.008Q253.87200000000004 -2.208 253.87200000000004 -4.2ZM260.35200000000003 -4.104V-12.696Q260.35200000000003 -13.728 259.77600000000007 -14.364Q259.20000000000005 -15.0 258.24000000000007 -15.0Q257.30400000000003 -15.0 256.74 -14.364Q256.17600000000004 -13.728 256.17600000000004 -12.696V-4.104Q256.17600000000004 -3.072 256.74 -2.436Q257.30400000000003 -1.8 258.24000000000007 -1.8Q259.20000000000005 -1.8 259.77600000000007 -2.436Q260.35200000000003 -3.072 260.35200000000003 -4.104Z M278.30400000000003 -16.8H280.10400000000004Q280.34400000000005 -16.8 280.34400000000005 -16.56V-0.24Q280.34400000000005 0.0 280.10400000000004 0.0H278.0400000000001Q277.84800000000007 0.0 277.77600000000007 -0.192L273.696 -11.16Q273.672 -11.208 273.624 -11.196000000000002Q273.576 -11.184000000000001 273.576 -11.136000000000001L273.6 -0.24Q273.6 0.0 273.36000000000007 0.0H271.53600000000006Q271.29600000000005 0.0 271.29600000000005 -0.24V-16.56Q271.29600000000005 -16.8 271.53600000000006 -16.8H273.576Q273.76800000000003 -16.8 273.84000000000003 -16.608L277.9440000000001 -5.64Q277.9680000000001 -5.5680000000000005 278.0160000000001 -5.58Q278.0640000000001 -5.5920000000000005 278.0640000000001 -5.664V-16.56Q278.0640000000001 -16.8 278.30400000000003 -16.8Z M288.744 -4.104V-4.728Q288.744 -4.968 288.98400000000004 -4.968H290.76000000000005Q291.00000000000006 -4.968 291.00000000000006 -4.728V-4.224Q291.00000000000006 -3.12 291.552 -2.46Q292.10400000000004 -1.8 292.9680000000001 -1.8Q293.83200000000005 -1.8 294.3960000000001 -2.436Q294.96000000000004 -3.072 294.96000000000004 -4.104Q294.96000000000004 -4.8 294.6600000000001 -5.327999999999999Q294.36000000000007 -5.856 293.86800000000005 -6.276Q293.37600000000003 -6.696 292.27200000000005 -7.5120000000000005Q291.04800000000006 -8.424 290.3520000000001 -9.072Q289.65600000000006 -9.72 289.17600000000004 -10.632000000000001Q288.696 -11.544 288.696 -12.768Q288.696 -14.712 289.84800000000007 -15.852Q291.00000000000006 -16.992 292.84800000000007 -16.992Q294.76800000000003 -16.992 295.932 -15.768Q297.09600000000006 -14.544 297.09600000000006 -12.552V-11.952Q297.09600000000006 -11.712 296.85600000000005 -11.712H295.08000000000004Q294.84000000000003 -11.712 294.84000000000003 -11.952V-12.6Q294.84000000000003 -13.68 294.288 -14.34Q293.73600000000005 -15.0 292.84800000000007 -15.0Q292.00800000000004 -15.0 291.48 -14.411999999999999Q290.95200000000006 -13.824 290.95200000000006 -12.768Q290.95200000000006 -11.808 291.48 -11.148Q292.00800000000004 -10.488 293.52000000000004 -9.384Q294.96000000000004 -8.304 295.692 -7.632Q296.42400000000004 -6.96 296.82000000000005 -6.156000000000001Q297.21600000000007 -5.352 297.21600000000007 -4.248Q297.21600000000007 -2.232 296.0400000000001 -1.02Q294.86400000000003 0.192 292.9680000000001 0.192Q291.07200000000006 0.192 289.908 -0.9960000000000001Q288.744 -2.184 288.744 -4.104Z" fill="#FFD740"/>
  </g>
</svg>
