<?xml version="1.0" encoding="UTF-8"?>
<svg xmlns="http://www.w3.org/2000/svg" viewBox="0 0 800 60" width="800" height="60" preserveAspectRatio="xMidYMid meet">
  <title>Transition tiny header 800x60</title>
  <rect width="800" height="60" fill="#0C0800"/>
  <rect x="0" y="0" width="800" height="1" fill="#E07020"/>
  <rect x="0" y="59" width="800" height="1" fill="#E07020"/>

  <g transform="translate(259.84, 36)">
    <path d="M5.39 0.0H1.232Q1.1219999999999999 0.0 1.045 -0.077Q0.968 -0.154 0.968 -0.264V-15.136Q0.968 -15.245999999999999 1.045 -15.322999999999999Q1.1219999999999999 -15.399999999999999 1.232 -15.399999999999999H4.906Q7.106 -15.399999999999999 8.349 -14.343999999999998Q9.591999999999999 -13.287999999999998 9.591999999999999 -11.197999999999999Q9.591999999999999 -9.02 8.096 -8.03Q8.008 -7.9639999999999995 8.074 -7.898Q9.812 -6.6659999999999995 9.812 -4.2459999999999996Q9.812 -2.1999999999999997 8.58 -1.0999999999999999Q7.348 0.0 5.39 0.0ZM4.069999999999999 -12.628V-9.174Q4.069999999999999 -9.064 4.18 -9.064H4.9719999999999995Q5.72 -9.064 6.138 -9.536999999999999Q6.556 -10.01 6.556 -10.867999999999999Q6.556 -11.77 6.149 -12.254Q5.742 -12.738 4.9719999999999995 -12.738H4.18Q4.069999999999999 -12.738 4.069999999999999 -12.628ZM6.71 -4.707999999999999Q6.71 -5.675999999999999 6.292 -6.247999999999999Q5.874 -6.819999999999999 5.17 -6.819999999999999H4.18Q4.069999999999999 -6.819999999999999 4.069999999999999 -6.71V-2.794Q4.069999999999999 -2.6839999999999997 4.18 -2.6839999999999997H5.148Q5.874 -2.6839999999999997 6.292 -3.2119999999999997Q6.71 -3.7399999999999998 6.71 -4.707999999999999Z M18.072 -0.21999999999999997 16.378 -6.292Q16.334 -6.38 16.268 -6.38H15.52Q15.41 -6.38 15.41 -6.27V-0.264Q15.41 -0.154 15.333 -0.077Q15.256 0.0 15.145999999999999 0.0H12.572Q12.462 0.0 12.385 -0.077Q12.308 -0.154 12.308 -0.264V-15.136Q12.308 -15.245999999999999 12.385 -15.322999999999999Q12.462 -15.399999999999999 12.572 -15.399999999999999H17.016Q18.226 -15.399999999999999 19.171999999999997 -14.817Q20.118 -14.234 20.634999999999998 -13.178Q21.152 -12.122 21.152 -10.758Q21.152 -9.459999999999999 20.657 -8.469999999999999Q20.162 -7.4799999999999995 19.282 -6.93Q19.238 -6.9079999999999995 19.216 -6.875Q19.194 -6.842 19.216 -6.798L21.24 -0.308L21.262 -0.21999999999999997Q21.262 0.0 21.02 0.0H18.38Q18.137999999999998 0.0 18.072 -0.21999999999999997ZM15.41 -12.628V-8.866Q15.41 -8.756 15.52 -8.756H16.509999999999998Q17.192 -8.756 17.621000000000002 -9.295Q18.05 -9.834 18.05 -10.735999999999999Q18.05 -11.66 17.621000000000002 -12.199Q17.192 -12.738 16.509999999999998 -12.738H15.52Q15.41 -12.738 15.41 -12.628Z M29.851999999999997 -0.242 29.5 -2.3539999999999996Q29.5 -2.464 29.368 -2.464H26.573999999999998Q26.441999999999997 -2.464 26.441999999999997 -2.3539999999999996L26.089999999999996 -0.242Q26.067999999999998 0.0 25.804 0.0H23.229999999999997Q22.944 0.0 23.009999999999998 -0.286L26.244 -15.158Q26.287999999999997 -15.399999999999999 26.529999999999998 -15.399999999999999H29.5Q29.741999999999997 -15.399999999999999 29.785999999999998 -15.158L32.998 -0.286L33.019999999999996 -0.19799999999999998Q33.019999999999996 0.0 32.778 0.0H30.137999999999998Q29.874 0.0 29.851999999999997 -0.242ZM26.97 -4.862H28.949999999999996Q29.06 -4.862 29.037999999999997 -4.9719999999999995L28.003999999999998 -10.978Q27.982 -11.043999999999999 27.938 -11.043999999999999Q27.894 -11.043999999999999 27.872 -10.978L26.881999999999998 -4.9719999999999995Q26.881999999999998 -4.862 26.97 -4.862Z M35.274 -0.264V-15.136Q35.274 -15.245999999999999 35.351 -15.322999999999999Q35.428 -15.399999999999999 35.538 -15.399999999999999H38.111999999999995Q38.221999999999994 -15.399999999999999 38.29899999999999 -15.322999999999999Q38.376 -15.245999999999999 38.376 -15.136V-0.264Q38.376 -0.154 38.29899999999999 -0.077Q38.221999999999994 0.0 38.111999999999995 0.0H35.538Q35.428 0.0 35.351 -0.077Q35.274 -0.154 35.274 -0.264Z M47.89 -15.399999999999999H50.442Q50.552 -15.399999999999999 50.629000000000005 -15.322999999999999Q50.706 -15.245999999999999 50.706 -15.136V-0.264Q50.706 -0.154 50.629000000000005 -0.077Q50.552 0.0 50.442 0.0H47.538Q47.318 0.0 47.251999999999995 -0.21999999999999997L44.524 -8.734Q44.502 -8.799999999999999 44.447 -8.788999999999998Q44.391999999999996 -8.777999999999999 44.391999999999996 -8.712L44.414 -0.264Q44.414 -0.154 44.337 -0.077Q44.26 0.0 44.15 0.0H41.598Q41.488 0.0 41.411 -0.077Q41.334 -0.154 41.334 -0.264V-15.136Q41.334 -15.245999999999999 41.411 -15.322999999999999Q41.488 -15.399999999999999 41.598 -15.399999999999999H44.48Q44.7 -15.399999999999999 44.766 -15.18L47.516 -6.6659999999999995Q47.538 -6.6 47.592999999999996 -6.611Q47.647999999999996 -6.622 47.647999999999996 -6.688L47.626 -15.136Q47.626 -15.245999999999999 47.703 -15.322999999999999Q47.78 -15.399999999999999 47.89 -15.399999999999999Z" fill="#F0EBE2"/>
  </g>
  <g transform="translate(325.51, 36)">
    <path d="M9.129999999999999 -7.744V-5.9399999999999995Q9.129999999999999 -5.83 9.052999999999999 -5.753Q8.975999999999999 -5.675999999999999 8.866 -5.675999999999999H6.093999999999999Q5.984 -5.675999999999999 5.984 -5.566V-2.816Q5.984 -2.706 5.907 -2.629Q5.83 -2.552 5.72 -2.552H3.916Q3.8059999999999996 -2.552 3.7289999999999996 -2.629Q3.6519999999999997 -2.706 3.6519999999999997 -2.816V-5.566Q3.6519999999999997 -5.675999999999999 3.542 -5.675999999999999H0.7919999999999999Q0.6819999999999999 -5.675999999999999 0.605 -5.753Q0.528 -5.83 0.528 -5.9399999999999995V-7.744Q0.528 -7.853999999999999 0.605 -7.930999999999999Q0.6819999999999999 -8.008 0.7919999999999999 -8.008H3.542Q3.6519999999999997 -8.008 3.6519999999999997 -8.118V-10.889999999999999Q3.6519999999999997 -11.0 3.7289999999999996 -11.077Q3.8059999999999996 -11.154 3.916 -11.154H5.72Q5.83 -11.154 5.907 -11.077Q5.984 -11.0 5.984 -10.889999999999999V-8.118Q5.984 -8.008 6.093999999999999 -8.008H8.866Q8.975999999999999 -8.008 9.052999999999999 -7.930999999999999Q9.129999999999999 -7.853999999999999 9.129999999999999 -7.744Z" fill="#E07020"/>
  </g>
  <g transform="translate(349.15, 36)">
    <path d="M5.39 0.0H1.232Q1.1219999999999999 0.0 1.045 -0.077Q0.968 -0.154 0.968 -0.264V-15.136Q0.968 -15.245999999999999 1.045 -15.322999999999999Q1.1219999999999999 -15.399999999999999 1.232 -15.399999999999999H4.906Q7.106 -15.399999999999999 8.349 -14.343999999999998Q9.591999999999999 -13.287999999999998 9.591999999999999 -11.197999999999999Q9.591999999999999 -9.02 8.096 -8.03Q8.008 -7.9639999999999995 8.074 -7.898Q9.812 -6.6659999999999995 9.812 -4.2459999999999996Q9.812 -2.1999999999999997 8.58 -1.0999999999999999Q7.348 0.0 5.39 0.0ZM4.069999999999999 -12.628V-9.174Q4.069999999999999 -9.064 4.18 -9.064H4.9719999999999995Q5.72 -9.064 6.138 -9.536999999999999Q6.556 -10.01 6.556 -10.867999999999999Q6.556 -11.77 6.149 -12.254Q5.742 -12.738 4.9719999999999995 -12.738H4.18Q4.069999999999999 -12.738 4.069999999999999 -12.628ZM6.71 -4.707999999999999Q6.71 -5.675999999999999 6.292 -6.247999999999999Q5.874 -6.819999999999999 5.17 -6.819999999999999H4.18Q4.069999999999999 -6.819999999999999 4.069999999999999 -6.71V-2.794Q4.069999999999999 -2.6839999999999997 4.18 -2.6839999999999997H5.148Q5.874 -2.6839999999999997 6.292 -3.2119999999999997Q6.71 -3.7399999999999998 6.71 -4.707999999999999Z M12.241999999999999 -4.378V-15.136Q12.241999999999999 -15.245999999999999 12.318999999999999 -15.322999999999999Q12.396 -15.399999999999999 12.506 -15.399999999999999H15.08Q15.19 -15.399999999999999 15.267 -15.322999999999999Q15.344 -15.245999999999999 15.344 -15.136V-4.069999999999999Q15.344 -3.3659999999999997 15.695999999999998 -2.9259999999999997Q16.048 -2.4859999999999998 16.619999999999997 -2.4859999999999998Q17.192 -2.4859999999999998 17.533 -2.9259999999999997Q17.874 -3.3659999999999997 17.874 -4.069999999999999V-15.136Q17.874 -15.245999999999999 17.951 -15.322999999999999Q18.028 -15.399999999999999 18.137999999999998 -15.399999999999999H20.712Q20.822 -15.399999999999999 20.899 -15.322999999999999Q20.976 -15.245999999999999 20.976 -15.136V-4.378Q20.976 -2.31 19.777 -1.067Q18.578 0.176 16.619999999999997 0.176Q14.64 0.176 13.440999999999999 -1.067Q12.241999999999999 -2.31 12.241999999999999 -4.378Z M23.318 -0.264V-2.4859999999999998Q23.318 -2.662 23.384 -2.816L28.092 -12.606Q28.114 -12.671999999999999 28.092 -12.704999999999998Q28.07 -12.738 28.003999999999998 -12.738H23.582Q23.472 -12.738 23.395000000000003 -12.815Q23.318 -12.892 23.318 -13.001999999999999V-15.136Q23.318 -15.245999999999999 23.395000000000003 -15.322999999999999Q23.472 -15.399999999999999 23.582 -15.399999999999999H31.15Q31.259999999999998 -15.399999999999999 31.337 -15.322999999999999Q31.414 -15.245999999999999 31.414 -15.136V-12.914Q31.414 -12.76 31.348 -12.584L26.64 -2.794Q26.618 -2.7279999999999998 26.64 -2.695Q26.662 -2.662 26.728 -2.662H31.15Q31.259999999999998 -2.662 31.337 -2.585Q31.414 -2.508 31.414 -2.3979999999999997V-0.264Q31.414 -0.154 31.337 -0.077Q31.259999999999998 0.0 31.15 0.0H23.582Q23.472 0.0 23.395000000000003 -0.077Q23.318 -0.154 23.318 -0.264Z M33.382 -0.264V-2.4859999999999998Q33.382 -2.662 33.448 -2.816L38.156 -12.606Q38.178 -12.671999999999999 38.156 -12.704999999999998Q38.134 -12.738 38.068 -12.738H33.646Q33.536 -12.738 33.459 -12.815Q33.382 -12.892 33.382 -13.001999999999999V-15.136Q33.382 -15.245999999999999 33.459 -15.322999999999999Q33.536 -15.399999999999999 33.646 -15.399999999999999H41.214Q41.324 -15.399999999999999 41.400999999999996 -15.322999999999999Q41.478 -15.245999999999999 41.478 -15.136V-12.914Q41.478 -12.76 41.412 -12.584L36.704 -2.794Q36.682 -2.7279999999999998 36.704 -2.695Q36.726 -2.662 36.792 -2.662H41.214Q41.324 -2.662 41.400999999999996 -2.585Q41.478 -2.508 41.478 -2.3979999999999997V-0.264Q41.478 -0.154 41.400999999999996 -0.077Q41.324 0.0 41.214 0.0H33.646Q33.536 0.0 33.459 -0.077Q33.382 -0.154 33.382 -0.264Z" fill="#F0EBE2"/>
  </g>
  <g transform="translate(405.16, 36)">
    <path d="M0.528 -8.052V-9.855999999999998Q0.528 -9.966 0.605 -10.043Q0.6819999999999999 -10.12 0.7919999999999999 -10.12H8.866Q8.975999999999999 -10.12 9.052999999999999 -10.043Q9.129999999999999 -9.966 9.129999999999999 -9.855999999999998V-8.052Q9.129999999999999 -7.941999999999999 9.052999999999999 -7.864999999999999Q8.975999999999999 -7.787999999999999 8.866 -7.787999999999999H0.7919999999999999Q0.6819999999999999 -7.787999999999999 0.605 -7.864999999999999Q0.528 -7.941999999999999 0.528 -8.052ZM0.528 -4.004V-5.808Q0.528 -5.917999999999999 0.605 -5.994999999999999Q0.6819999999999999 -6.071999999999999 0.7919999999999999 -6.071999999999999H8.866Q8.975999999999999 -6.071999999999999 9.052999999999999 -5.994999999999999Q9.129999999999999 -5.917999999999999 9.129999999999999 -5.808V-4.004Q9.129999999999999 -3.8939999999999997 9.052999999999999 -3.8169999999999997Q8.975999999999999 -3.7399999999999998 8.866 -3.7399999999999998H0.7919999999999999Q0.6819999999999999 -3.7399999999999998 0.605 -3.8169999999999997Q0.528 -3.8939999999999997 0.528 -4.004Z" fill="#E07020"/>
  </g>
  <g transform="translate(428.79, 36)">
    <path d="M0.43999999999999995 -4.311999999999999V-11.11Q0.43999999999999995 -13.155999999999999 1.7599999999999998 -14.366Q3.0799999999999996 -15.575999999999999 5.258 -15.575999999999999Q6.688 -15.575999999999999 7.776999999999999 -15.026Q8.866 -14.475999999999999 9.471 -13.453Q10.075999999999999 -12.43 10.075999999999999 -11.065999999999999V-10.34Q10.075999999999999 -10.186 9.988 -10.097999999999999Q9.899999999999999 -10.01 9.745999999999999 -10.01H6.27Q6.116 -10.01 6.028 -10.097999999999999Q5.9399999999999995 -10.186 5.9399999999999995 -10.34V-11.11Q5.9399999999999995 -11.527999999999999 5.753 -11.780999999999999Q5.566 -12.033999999999999 5.258 -12.033999999999999Q4.949999999999999 -12.033999999999999 4.763 -11.780999999999999Q4.576 -11.527999999999999 4.576 -11.11V-4.29Q4.576 -3.872 4.763 -3.6189999999999998Q4.949999999999999 -3.3659999999999997 5.258 -3.3659999999999997Q5.566 -3.3659999999999997 5.753 -3.6189999999999998Q5.9399999999999995 -3.872 5.9399999999999995 -4.29V-5.367999999999999Q5.9399999999999995 -5.5 5.808 -5.5H5.632Q5.478 -5.5 5.39 -5.587999999999999Q5.302 -5.675999999999999 5.302 -5.83V-8.36Q5.302 -8.514 5.39 -8.602Q5.478 -8.69 5.632 -8.69H9.745999999999999Q9.899999999999999 -8.69 9.988 -8.602Q10.075999999999999 -8.514 10.075999999999999 -8.36V-4.311999999999999Q10.075999999999999 -2.9699999999999998 9.471 -1.9469999999999998Q8.866 -0.9239999999999999 7.776999999999999 -0.374Q6.688 0.176 5.258 0.176Q3.0799999999999996 0.176 1.7599999999999998 -1.045Q0.43999999999999995 -2.266 0.43999999999999995 -4.311999999999999Z M16.666 -0.308 16.424 -1.958Q16.424 -2.002 16.38 -2.046Q16.336 -2.09 16.27 -2.09H14.334Q14.268 -2.09 14.224 -2.046Q14.18 -2.002 14.18 -1.958L13.96 -0.308Q13.937999999999999 0.0 13.608 0.0H10.154Q9.802 0.0 9.868 -0.352L12.992 -15.113999999999999Q13.058 -15.399999999999999 13.366 -15.399999999999999H17.369999999999997Q17.677999999999997 -15.399999999999999 17.744 -15.113999999999999L20.868 -0.352V-0.264Q20.868 0.0 20.56 0.0H17.018Q16.688 0.0 16.666 -0.308ZM14.774000000000001 -5.258H15.808Q15.962 -5.258 15.918 -5.39L15.324 -9.35Q15.302 -9.437999999999999 15.258 -9.437999999999999Q15.213999999999999 -9.437999999999999 15.192 -9.35L14.664 -5.39Q14.664 -5.258 14.774000000000001 -5.258Z M28.426000000000002 -15.399999999999999H31.858Q32.012 -15.399999999999999 32.1 -15.311999999999998Q32.188 -15.223999999999998 32.188 -15.069999999999999V-0.32999999999999996Q32.188 -0.176 32.1 -0.088Q32.012 0.0 31.858 0.0H28.381999999999998Q28.228 0.0 28.14 -0.088Q28.052 -0.176 28.052 -0.32999999999999996V-9.283999999999999Q28.052 -9.372 27.997 -9.393999999999998Q27.942 -9.415999999999999 27.898 -9.328L26.644 -7.215999999999999L26.424 -6.819999999999999H26.402L24.95 -9.328Q24.906 -9.415999999999999 24.851 -9.405Q24.796 -9.394 24.796 -9.283999999999999V-0.32999999999999996Q24.796 -0.176 24.708 -0.088Q24.62 0.0 24.466 0.0H20.990000000000002Q20.836000000000002 0.0 20.748 -0.088Q20.66 -0.176 20.66 -0.32999999999999996V-15.069999999999999Q20.66 -15.223999999999998 20.748 -15.311999999999998Q20.836000000000002 -15.399999999999999 20.990000000000002 -15.399999999999999H24.422Q24.708 -15.399999999999999 24.818 -15.158L26.358 -12.341999999999999Q26.402 -12.276 26.457 -12.265Q26.512 -12.254 26.534 -12.341999999999999L28.03 -15.158Q28.162 -15.399999999999999 28.426000000000002 -15.399999999999999Z M40.692 -11.857999999999999H36.489999999999995Q36.358 -11.857999999999999 36.358 -11.725999999999999V-9.613999999999999Q36.358 -9.482 36.489999999999995 -9.482H38.668Q38.821999999999996 -9.482 38.91 -9.393999999999998Q38.998 -9.306 38.998 -9.152V-6.27Q38.998 -6.116 38.91 -6.028Q38.821999999999996 -5.9399999999999995 38.668 -5.9399999999999995H36.489999999999995Q36.358 -5.9399999999999995 36.358 -5.808V-3.674Q36.358 -3.542 36.489999999999995 -3.542H40.692Q40.846 -3.542 40.934 -3.4539999999999997Q41.022 -3.3659999999999997 41.022 -3.2119999999999997V-0.32999999999999996Q41.022 -0.176 40.934 -0.088Q40.846 0.0 40.692 0.0H32.552Q32.397999999999996 0.0 32.31 -0.088Q32.222 -0.176 32.222 -0.32999999999999996V-15.069999999999999Q32.222 -15.223999999999998 32.31 -15.311999999999998Q32.397999999999996 -15.399999999999999 32.552 -15.399999999999999H40.692Q40.846 -15.399999999999999 40.934 -15.311999999999998Q41.022 -15.223999999999998 41.022 -15.069999999999999V-12.187999999999999Q41.022 -12.033999999999999 40.934 -11.945999999999998Q40.846 -11.857999999999999 40.692 -11.857999999999999Z" fill="#F0EBE2"/>
    <path d="M1.738 -0.21999999999999997V-15.18Q1.738 -15.399999999999999 1.958 -15.399999999999999H5.191999999999999Q6.819999999999999 -15.399999999999999 7.766 -14.311Q8.712 -13.222 8.712 -11.351999999999999V-4.048Q8.712 -2.178 7.766 -1.089Q6.819999999999999 0.0 5.191999999999999 0.0H1.958Q1.738 0.0 1.738 -0.21999999999999997ZM2.992 -1.034H5.191999999999999Q6.27 -1.056 6.896999999999999 -1.859Q7.523999999999999 -2.662 7.523999999999999 -4.069999999999999V-11.308Q7.523999999999999 -12.738 6.896999999999999 -13.552Q6.27 -14.366 5.17 -14.366H2.992Q2.904 -14.366 2.904 -14.277999999999999V-1.1219999999999999Q2.904 -1.034 2.992 -1.034Z M10.528 -3.5199999999999996V-11.857999999999999Q10.528 -13.53 11.518 -14.552999999999999Q12.508 -15.575999999999999 14.136 -15.575999999999999Q15.764 -15.575999999999999 16.776 -14.552999999999999Q17.788 -13.53 17.788 -11.857999999999999V-3.5199999999999996Q17.788 -1.8699999999999999 16.776 -0.847Q15.764 0.176 14.136 0.176Q12.53 0.176 11.529 -0.847Q10.528 -1.8699999999999999 10.528 -3.5199999999999996ZM16.622 -3.476V-11.902Q16.622 -13.068 15.929 -13.805Q15.236 -14.542 14.136 -14.542Q13.058 -14.542 12.376 -13.805Q11.693999999999999 -13.068 11.693999999999999 -11.902V-3.476Q11.693999999999999 -2.31 12.376 -1.584Q13.058 -0.858 14.136 -0.858Q15.236 -0.858 15.929 -1.584Q16.622 -2.31 16.622 -3.476Z M19.449999999999996 -3.5199999999999996V-11.857999999999999Q19.449999999999996 -13.53 20.439999999999998 -14.552999999999999Q21.429999999999996 -15.575999999999999 23.057999999999996 -15.575999999999999Q24.685999999999996 -15.575999999999999 25.697999999999997 -14.552999999999999Q26.709999999999997 -13.53 26.709999999999997 -11.857999999999999V-3.5199999999999996Q26.709999999999997 -1.8699999999999999 25.697999999999997 -0.847Q24.685999999999996 0.176 23.057999999999996 0.176Q21.451999999999998 0.176 20.450999999999997 -0.847Q19.449999999999996 -1.8699999999999999 19.449999999999996 -3.5199999999999996ZM25.543999999999997 -3.476V-11.902Q25.543999999999997 -13.068 24.851 -13.805Q24.157999999999998 -14.542 23.057999999999996 -14.542Q21.979999999999997 -14.542 21.297999999999995 -13.805Q20.615999999999996 -13.068 20.615999999999996 -11.902V-3.476Q20.615999999999996 -2.31 21.297999999999995 -1.584Q21.979999999999997 -0.858 23.057999999999996 -0.858Q24.157999999999998 -0.858 24.851 -1.584Q25.543999999999997 -2.31 25.543999999999997 -3.476Z M34.70799999999999 -0.176 32.288 -7.1499999999999995Q32.26599999999999 -7.215999999999999 32.199999999999996 -7.215999999999999H30.021999999999995Q29.933999999999994 -7.215999999999999 29.933999999999994 -7.127999999999999V-0.21999999999999997Q29.933999999999994 0.0 29.713999999999995 0.0H28.987999999999992Q28.767999999999994 0.0 28.767999999999994 -0.21999999999999997V-15.18Q28.767999999999994 -15.399999999999999 28.987999999999992 -15.399999999999999H32.397999999999996Q33.937999999999995 -15.399999999999999 34.88399999999999 -14.256Q35.82999999999999 -13.112 35.82999999999999 -11.264Q35.82999999999999 -9.79 35.19199999999999 -8.756Q34.553999999999995 -7.7219999999999995 33.45399999999999 -7.348Q33.36599999999999 -7.326 33.38799999999999 -7.2379999999999995L35.873999999999995 -0.242L35.895999999999994 -0.154Q35.895999999999994 0.0 35.69799999999999 0.0H34.971999999999994Q34.773999999999994 0.0 34.70799999999999 -0.176ZM29.933999999999994 -14.277999999999999V-8.272Q29.933999999999994 -8.184 30.021999999999995 -8.184H32.26599999999999Q33.343999999999994 -8.184 34.00399999999999 -9.030999999999999Q34.663999999999994 -9.878 34.663999999999994 -11.264Q34.663999999999994 -12.671999999999999 34.00399999999999 -13.518999999999998Q33.343999999999994 -14.366 32.26599999999999 -14.366H30.021999999999995Q29.933999999999994 -14.366 29.933999999999994 -14.277999999999999Z" fill="#F0EBE2"/>
  </g>
  <circle cx="512.83" cy="29" r="3" fill="#E07020"/>
  <g transform="translate(518.83, 36)">
    <path d="M11.484 -7.084V-4.004Q11.484 -3.8499999999999996 11.396 -3.7619999999999996Q11.308 -3.674 11.154 -3.674H10.494Q10.362 -3.674 10.362 -3.542V-0.32999999999999996Q10.362 -0.176 10.274000000000001 -0.088Q10.186 0.0 10.032 0.0H6.556Q6.401999999999999 0.0 6.314 -0.088Q6.226 -0.176 6.226 -0.32999999999999996V-3.542Q6.226 -3.674 6.093999999999999 -3.674H0.506Q0.352 -3.674 0.264 -3.7619999999999996Q0.176 -3.8499999999999996 0.176 -4.004V-6.446Q0.176 -6.643999999999999 0.242 -6.842L2.904 -15.136Q2.992 -15.399999999999999 3.278 -15.399999999999999H6.9959999999999996Q7.172 -15.399999999999999 7.249 -15.300999999999998Q7.326 -15.202 7.281999999999999 -15.026L5.016 -7.568Q4.994 -7.414 5.1259999999999994 -7.414H6.093999999999999Q6.226 -7.414 6.226 -7.545999999999999V-9.042Q6.226 -9.196 6.314 -9.283999999999999Q6.401999999999999 -9.372 6.556 -9.372H10.032Q10.186 -9.372 10.274000000000001 -9.283999999999999Q10.362 -9.196 10.362 -9.042V-7.545999999999999Q10.362 -7.414 10.494 -7.414H11.154Q11.308 -7.414 11.396 -7.326Q11.484 -7.2379999999999995 11.484 -7.084Z M12.948 -15.399999999999999H16.556Q16.71 -15.399999999999999 16.798000000000002 -15.311999999999998Q16.886 -15.223999999999998 16.886 -15.069999999999999V-0.32999999999999996Q16.886 -0.176 16.798000000000002 -0.088Q16.71 0.0 16.556 0.0H13.08Q12.926 0.0 12.838000000000001 -0.088Q12.75 -0.176 12.75 -0.32999999999999996V-11.505999999999998Q12.75 -11.638 12.618 -11.638H11.166Q11.012 -11.638 10.924 -11.725999999999999Q10.836 -11.814 10.836 -11.968V-14.52Q10.836 -14.806 11.1 -14.893999999999998L12.552 -15.334Q12.75 -15.399999999999999 12.948 -15.399999999999999Z" fill="#E07020"/>
  </g>

</svg>
