<?xml version="1.0" encoding="UTF-8"?>
<svg xmlns="http://www.w3.org/2000/svg" viewBox="0 0 1200 120" width="1200" height="120" preserveAspectRatio="xMidYMid meet">
  <title>Transition strip horizontal</title>
  <rect width="1200" height="120" fill="#0C0800"/>
  <rect x="0" y="0" width="1200" height="2" fill="#E07020"/>
  <rect x="0" y="118" width="1200" height="2" fill="#E07020"/>

  <!-- OLD names on left -->
  <g transform="translate(40, 50)">
    <path d="M4.409999999999999 0.0H1.008Q0.9179999999999999 0.0 0.855 -0.063Q0.7919999999999999 -0.126 0.7919999999999999 -0.21599999999999997V-12.383999999999999Q0.7919999999999999 -12.473999999999998 0.855 -12.536999999999999Q0.9179999999999999 -12.6 1.008 -12.6H4.013999999999999Q5.813999999999999 -12.6 6.8309999999999995 -11.736Q7.847999999999999 -10.872 7.847999999999999 -9.161999999999999Q7.847999999999999 -7.379999999999999 6.624 -6.569999999999999Q6.552 -6.515999999999999 6.606 -6.462Q8.027999999999999 -5.454 8.027999999999999 -3.4739999999999998Q8.027999999999999 -1.7999999999999998 7.02 -0.8999999999999999Q6.012 0.0 4.409999999999999 0.0ZM3.3299999999999996 -10.331999999999999V-7.505999999999999Q3.3299999999999996 -7.4159999999999995 3.42 -7.4159999999999995H4.068Q4.68 -7.4159999999999995 5.022 -7.802999999999999Q5.364 -8.19 5.364 -8.892Q5.364 -9.629999999999999 5.031 -10.026Q4.6979999999999995 -10.421999999999999 4.068 -10.421999999999999H3.42Q3.3299999999999996 -10.421999999999999 3.3299999999999996 -10.331999999999999ZM5.489999999999999 -3.852Q5.489999999999999 -4.643999999999999 5.148 -5.111999999999999Q4.806 -5.579999999999999 4.2299999999999995 -5.579999999999999H3.42Q3.3299999999999996 -5.579999999999999 3.3299999999999996 -5.489999999999999V-2.286Q3.3299999999999996 -2.1959999999999997 3.42 -2.1959999999999997H4.212Q4.806 -2.1959999999999997 5.148 -2.6279999999999997Q5.489999999999999 -3.0599999999999996 5.489999999999999 -3.852Z M16.968 -0.18 15.581999999999999 -5.148Q15.546 -5.22 15.491999999999999 -5.22H14.879999999999999Q14.79 -5.22 14.79 -5.13V-0.21599999999999997Q14.79 -0.126 14.726999999999999 -0.063Q14.663999999999998 0.0 14.573999999999998 0.0H12.468Q12.377999999999998 0.0 12.314999999999998 -0.063Q12.251999999999999 -0.126 12.251999999999999 -0.21599999999999997V-12.383999999999999Q12.251999999999999 -12.473999999999998 12.314999999999998 -12.536999999999999Q12.377999999999998 -12.6 12.468 -12.6H16.104Q17.093999999999998 -12.6 17.868 -12.123Q18.642 -11.645999999999999 19.064999999999998 -10.782Q19.488 -9.918 19.488 -8.802Q19.488 -7.739999999999999 19.083 -6.93Q18.677999999999997 -6.119999999999999 17.958 -5.67Q17.921999999999997 -5.651999999999999 17.903999999999996 -5.625Q17.886 -5.598 17.904 -5.561999999999999L19.56 -0.252L19.577999999999996 -0.18Q19.577999999999996 0.0 19.38 0.0H17.22Q17.022 0.0 16.968 -0.18ZM14.79 -10.331999999999999V-7.254Q14.79 -7.164 14.879999999999999 -7.164H15.689999999999998Q16.247999999999998 -7.164 16.598999999999997 -7.6049999999999995Q16.95 -8.046 16.95 -8.783999999999999Q16.95 -9.54 16.598999999999997 -9.980999999999998Q16.247999999999998 -10.421999999999999 15.689999999999998 -10.421999999999999H14.879999999999999Q14.79 -10.421999999999999 14.79 -10.331999999999999Z M28.787999999999997 -0.19799999999999998 28.5 -1.926Q28.5 -2.016 28.392 -2.016H26.105999999999998Q25.997999999999998 -2.016 25.997999999999998 -1.926L25.709999999999997 -0.19799999999999998Q25.692 0.0 25.476 0.0H23.369999999999997Q23.136 0.0 23.189999999999998 -0.23399999999999999L25.836 -12.402Q25.872 -12.6 26.07 -12.6H28.5Q28.698 -12.6 28.733999999999998 -12.402L31.362 -0.23399999999999999L31.38 -0.16199999999999998Q31.38 0.0 31.182 0.0H29.022Q28.805999999999997 0.0 28.787999999999997 -0.19799999999999998ZM26.43 -3.9779999999999998H28.049999999999997Q28.14 -3.9779999999999998 28.122 -4.068L27.276 -8.982Q27.258 -9.036 27.222 -9.036Q27.186 -9.036 27.168 -8.982L26.357999999999997 -4.068Q26.357999999999997 -3.9779999999999998 26.43 -3.9779999999999998Z M35.406 -0.21599999999999997V-12.383999999999999Q35.406 -12.473999999999998 35.468999999999994 -12.536999999999999Q35.532 -12.6 35.622 -12.6H37.727999999999994Q37.818 -12.6 37.881 -12.536999999999999Q37.943999999999996 -12.473999999999998 37.943999999999996 -12.383999999999999V-0.21599999999999997Q37.943999999999996 -0.126 37.881 -0.063Q37.818 0.0 37.727999999999994 0.0H35.622Q35.532 0.0 35.468999999999994 -0.063Q35.406 -0.126 35.406 -0.21599999999999997Z M47.91 -12.6H49.998Q50.087999999999994 -12.6 50.150999999999996 -12.536999999999999Q50.214 -12.473999999999998 50.214 -12.383999999999999V-0.21599999999999997Q50.214 -0.126 50.150999999999996 -0.063Q50.087999999999994 0.0 49.998 0.0H47.622Q47.442 0.0 47.388 -0.18L45.156 -7.145999999999999Q45.138 -7.199999999999999 45.092999999999996 -7.190999999999999Q45.047999999999995 -7.1819999999999995 45.047999999999995 -7.127999999999999L45.065999999999995 -0.21599999999999997Q45.065999999999995 -0.126 45.003 -0.063Q44.94 0.0 44.849999999999994 0.0H42.762Q42.672 0.0 42.608999999999995 -0.063Q42.546 -0.126 42.546 -0.21599999999999997V-12.383999999999999Q42.546 -12.473999999999998 42.608999999999995 -12.536999999999999Q42.672 -12.6 42.762 -12.6H45.12Q45.3 -12.6 45.354 -12.42L47.604 -5.454Q47.622 -5.3999999999999995 47.667 -5.408999999999999Q47.711999999999996 -5.417999999999999 47.711999999999996 -5.4719999999999995L47.693999999999996 -12.383999999999999Q47.693999999999996 -12.473999999999998 47.757 -12.536999999999999Q47.82 -12.6 47.91 -12.6Z M67.788 -10.421999999999999H64.026Q63.936 -10.421999999999999 63.936 -10.331999999999999V-7.4879999999999995Q63.936 -7.398 64.026 -7.398H66.186Q66.276 -7.398 66.339 -7.334999999999999Q66.402 -7.271999999999999 66.402 -7.1819999999999995V-5.436Q66.402 -5.345999999999999 66.339 -5.2829999999999995Q66.276 -5.22 66.186 -5.22H64.026Q63.936 -5.22 63.936 -5.13V-2.268Q63.936 -2.178 64.026 -2.178H67.788Q67.878 -2.178 67.941 -2.115Q68.004 -2.052 68.004 -1.9619999999999997V-0.21599999999999997Q68.004 -0.126 67.941 -0.063Q67.878 0.0 67.788 0.0H61.614000000000004Q61.524 0.0 61.461 -0.063Q61.398 -0.126 61.398 -0.21599999999999997V-12.383999999999999Q61.398 -12.473999999999998 61.461 -12.536999999999999Q61.524 -12.6 61.614000000000004 -12.6H67.788Q67.878 -12.6 67.941 -12.536999999999999Q68.004 -12.473999999999998 68.004 -12.383999999999999V-10.638Q68.004 -10.548 67.941 -10.485Q67.878 -10.421999999999999 67.788 -10.421999999999999Z M72.03000000000002 -3.15V-3.6719999999999997Q72.03000000000002 -3.7619999999999996 72.09300000000002 -3.8249999999999997Q72.156 -3.888 72.24600000000001 -3.888H74.316Q74.406 -3.888 74.46900000000001 -3.8249999999999997Q74.53200000000001 -3.7619999999999996 74.53200000000001 -3.6719999999999997V-3.276Q74.53200000000001 -2.718 74.82000000000001 -2.376Q75.108 -2.034 75.54 -2.034Q75.97200000000001 -2.034 76.26 -2.3579999999999997Q76.548 -2.682 76.548 -3.2039999999999997Q76.548 -3.7439999999999998 76.188 -4.131Q75.828 -4.518 74.784 -5.274Q73.88400000000001 -5.922 73.32600000000002 -6.426Q72.76800000000001 -6.93 72.37200000000001 -7.667999999999999Q71.97600000000001 -8.405999999999999 71.97600000000001 -9.378Q71.97600000000001 -10.908 72.93 -11.826Q73.88400000000001 -12.744 75.45 -12.744Q77.034 -12.744 77.99700000000001 -11.79Q78.96000000000001 -10.835999999999999 78.96000000000001 -9.287999999999998V-8.856Q78.96000000000001 -8.766 78.897 -8.703Q78.834 -8.639999999999999 78.74400000000001 -8.639999999999999H76.674Q76.584 -8.639999999999999 76.52100000000002 -8.703Q76.45800000000001 -8.766 76.45800000000001 -8.856V-9.341999999999999Q76.45800000000001 -9.899999999999999 76.179 -10.232999999999999Q75.9 -10.565999999999999 75.45 -10.565999999999999Q75.01800000000001 -10.565999999999999 74.74800000000002 -10.251Q74.47800000000001 -9.936 74.47800000000001 -9.378Q74.47800000000001 -8.838 74.82000000000001 -8.424Q75.162 -8.01 76.17000000000002 -7.271999999999999Q77.286 -6.444 77.85300000000001 -5.930999999999999Q78.42000000000002 -5.417999999999999 78.73500000000001 -4.796999999999999Q79.05000000000001 -4.175999999999999 79.05000000000001 -3.312Q79.05000000000001 -1.7279999999999998 78.078 -0.7919999999999999Q77.10600000000001 0.144 75.522 0.144Q74.47800000000001 0.144 73.686 -0.26999999999999996Q72.894 -0.6839999999999999 72.46200000000002 -1.431Q72.03000000000002 -2.178 72.03000000000002 -3.15Z M83.09400000000001 -3.4019999999999997V-9.234Q83.09400000000001 -10.835999999999999 84.07500000000002 -11.79Q85.05600000000001 -12.744 86.67600000000002 -12.744Q88.31400000000001 -12.744 89.29500000000002 -11.79Q90.27600000000001 -10.835999999999999 90.27600000000001 -9.234V-9.036Q90.27600000000001 -8.946 90.21300000000001 -8.883Q90.15 -8.819999999999999 90.06000000000002 -8.819999999999999L87.95400000000001 -8.729999999999999Q87.73800000000001 -8.729999999999999 87.73800000000001 -8.927999999999999V-9.395999999999999Q87.73800000000001 -9.918 87.45000000000002 -10.241999999999999Q87.162 -10.565999999999999 86.67600000000002 -10.565999999999999Q86.20800000000001 -10.565999999999999 85.92000000000002 -10.241999999999999Q85.63200000000002 -9.918 85.63200000000002 -9.395999999999999V-3.186Q85.63200000000002 -2.6639999999999997 85.92000000000002 -2.3489999999999998Q86.20800000000001 -2.034 86.67600000000002 -2.034Q87.162 -2.034 87.45000000000002 -2.3489999999999998Q87.73800000000001 -2.6639999999999997 87.73800000000001 -3.186V-3.6719999999999997Q87.73800000000001 -3.7619999999999996 87.80100000000002 -3.8249999999999997Q87.86400000000002 -3.888 87.95400000000001 -3.888L90.06000000000002 -3.7979999999999996Q90.15 -3.7979999999999996 90.21300000000001 -3.7349999999999994Q90.27600000000001 -3.6719999999999997 90.27600000000001 -3.582V-3.4019999999999997Q90.27600000000001 -1.7819999999999998 89.286 -0.819Q88.296 0.144 86.67600000000002 0.144Q85.05600000000001 0.144 84.07500000000002 -0.819Q83.09400000000001 -1.7819999999999998 83.09400000000001 -3.4019999999999997Z M99.68400000000001 -0.19799999999999998 99.39600000000002 -1.926Q99.39600000000002 -2.016 99.28800000000001 -2.016H97.00200000000002Q96.89400000000002 -2.016 96.89400000000002 -1.926L96.60600000000002 -0.19799999999999998Q96.58800000000002 0.0 96.37200000000001 0.0H94.26600000000002Q94.03200000000001 0.0 94.08600000000001 -0.23399999999999999L96.73200000000001 -12.402Q96.76800000000001 -12.6 96.96600000000002 -12.6H99.39600000000002Q99.59400000000002 -12.6 99.63000000000002 -12.402L102.25800000000001 -0.23399999999999999L102.27600000000001 -0.16199999999999998Q102.27600000000001 0.0 102.07800000000002 0.0H99.91800000000002Q99.70200000000001 0.0 99.68400000000001 -0.19799999999999998ZM97.32600000000002 -3.9779999999999998H98.94600000000001Q99.03600000000002 -3.9779999999999998 99.01800000000001 -4.068L98.17200000000001 -8.982Q98.15400000000001 -9.036 98.11800000000002 -9.036Q98.08200000000002 -9.036 98.06400000000002 -8.982L97.25400000000002 -4.068Q97.25400000000002 -3.9779999999999998 97.32600000000002 -3.9779999999999998Z M113.52000000000002 -8.783999999999999Q113.52000000000002 -7.109999999999999 112.62000000000002 -6.101999999999999Q111.72000000000001 -5.093999999999999 110.26200000000001 -5.093999999999999H108.91200000000002Q108.82200000000002 -5.093999999999999 108.82200000000002 -5.004V-0.21599999999999997Q108.82200000000002 -0.126 108.75900000000001 -0.063Q108.69600000000003 0.0 108.60600000000002 0.0H106.50000000000001Q106.41000000000003 0.0 106.34700000000002 -0.063Q106.28400000000002 -0.126 106.28400000000002 -0.21599999999999997V-12.402Q106.28400000000002 -12.491999999999999 106.34700000000002 -12.555Q106.41000000000003 -12.617999999999999 106.50000000000001 -12.617999999999999H110.13600000000002Q111.12600000000002 -12.617999999999999 111.90000000000002 -12.131999999999998Q112.67400000000002 -11.645999999999999 113.09700000000002 -10.773Q113.52000000000002 -9.899999999999999 113.52000000000002 -8.783999999999999ZM110.98200000000001 -8.729999999999999Q110.98200000000001 -9.521999999999998 110.63100000000001 -9.971999999999998Q110.28000000000002 -10.421999999999999 109.70400000000002 -10.421999999999999H108.91200000000002Q108.82200000000002 -10.421999999999999 108.82200000000002 -10.331999999999999V-7.164Q108.82200000000002 -7.074 108.91200000000002 -7.074H109.70400000000002Q110.28000000000002 -7.074 110.63100000000001 -7.515Q110.98200000000001 -7.9559999999999995 110.98200000000001 -8.729999999999999Z M124.06200000000003 -10.421999999999999H120.30000000000003Q120.21000000000002 -10.421999999999999 120.21000000000002 -10.331999999999999V-7.4879999999999995Q120.21000000000002 -7.398 120.30000000000003 -7.398H122.46000000000002Q122.55000000000003 -7.398 122.61300000000003 -7.334999999999999Q122.67600000000002 -7.271999999999999 122.67600000000002 -7.1819999999999995V-5.436Q122.67600000000002 -5.345999999999999 122.61300000000003 -5.2829999999999995Q122.55000000000003 -5.22 122.46000000000002 -5.22H120.30000000000003Q120.21000000000002 -5.22 120.21000000000002 -5.13V-2.268Q120.21000000000002 -2.178 120.30000000000003 -2.178H124.06200000000003Q124.15200000000003 -2.178 124.21500000000003 -2.115Q124.27800000000002 -2.052 124.27800000000002 -1.9619999999999997V-0.21599999999999997Q124.27800000000002 -0.126 124.21500000000003 -0.063Q124.15200000000003 0.0 124.06200000000003 0.0H117.88800000000002Q117.79800000000003 0.0 117.73500000000003 -0.063Q117.67200000000003 -0.126 117.67200000000003 -0.21599999999999997V-12.383999999999999Q117.67200000000003 -12.473999999999998 117.73500000000003 -12.536999999999999Q117.79800000000003 -12.6 117.88800000000002 -12.6H124.06200000000003Q124.15200000000003 -12.6 124.21500000000003 -12.536999999999999Q124.27800000000002 -12.473999999999998 124.27800000000002 -12.383999999999999V-10.638Q124.27800000000002 -10.548 124.21500000000003 -10.485Q124.15200000000003 -10.421999999999999 124.06200000000003 -10.421999999999999Z M134.97600000000003 -3.2579999999999996V-9.341999999999999Q134.97600000000003 -10.889999999999999 135.95700000000005 -11.817Q136.93800000000005 -12.744 138.55800000000002 -12.744Q140.17800000000003 -12.744 141.16800000000003 -11.808Q142.15800000000004 -10.872 142.15800000000004 -9.324V-8.639999999999999Q142.15800000000004 -8.549999999999999 142.09500000000003 -8.486999999999998Q142.03200000000004 -8.424 141.94200000000004 -8.424H139.83600000000004Q139.74600000000004 -8.424 139.68300000000005 -8.486999999999998Q139.62000000000003 -8.549999999999999 139.62000000000003 -8.639999999999999V-9.36Q139.62000000000003 -9.899999999999999 139.33200000000005 -10.232999999999999Q139.04400000000004 -10.565999999999999 138.55800000000002 -10.565999999999999Q138.09000000000003 -10.565999999999999 137.80200000000002 -10.232999999999999Q137.51400000000004 -9.899999999999999 137.51400000000004 -9.36V-3.2399999999999998Q137.51400000000004 -2.6999999999999997 137.80200000000002 -2.367Q138.09000000000003 -2.034 138.55800000000002 -2.034Q139.04400000000004 -2.034 139.33200000000005 -2.367Q139.62000000000003 -2.6999999999999997 139.62000000000003 -3.2399999999999998V-4.68Q139.62000000000003 -4.77 139.53000000000003 -4.77H138.73800000000003Q138.64800000000002 -4.77 138.58500000000004 -4.833Q138.52200000000002 -4.896 138.52200000000002 -4.986V-6.587999999999999Q138.52200000000002 -6.678 138.58500000000004 -6.741Q138.64800000000002 -6.803999999999999 138.73800000000003 -6.803999999999999H141.94200000000004Q142.03200000000004 -6.803999999999999 142.09500000000003 -6.741Q142.15800000000004 -6.678 142.15800000000004 -6.587999999999999V-3.2579999999999996Q142.15800000000004 -1.71 141.16800000000003 -0.783Q140.17800000000003 0.144 138.55800000000002 0.144Q136.93800000000005 0.144 135.95700000000005 -0.783Q134.97600000000003 -1.71 134.97600000000003 -3.2579999999999996Z M151.62000000000003 -0.19799999999999998 151.33200000000005 -1.926Q151.33200000000005 -2.016 151.22400000000005 -2.016H148.93800000000005Q148.83000000000004 -2.016 148.83000000000004 -1.926L148.54200000000003 -0.19799999999999998Q148.52400000000003 0.0 148.30800000000005 0.0H146.20200000000003Q145.96800000000005 0.0 146.02200000000005 -0.23399999999999999L148.66800000000003 -12.402Q148.70400000000004 -12.6 148.90200000000004 -12.6H151.33200000000005Q151.53000000000003 -12.6 151.56600000000003 -12.402L154.19400000000005 -0.23399999999999999L154.21200000000005 -0.16199999999999998Q154.21200000000005 0.0 154.01400000000004 0.0H151.85400000000004Q151.63800000000003 0.0 151.62000000000003 -0.19799999999999998ZM149.26200000000003 -3.9779999999999998H150.88200000000003Q150.97200000000004 -3.9779999999999998 150.95400000000004 -4.068L150.10800000000003 -8.982Q150.09000000000003 -9.036 150.05400000000003 -9.036Q150.01800000000003 -9.036 150.00000000000003 -8.982L149.19000000000003 -4.068Q149.19000000000003 -3.9779999999999998 149.26200000000003 -3.9779999999999998Z M164.26800000000003 -12.6H166.35600000000002Q166.44600000000003 -12.6 166.50900000000001 -12.536999999999999Q166.57200000000003 -12.473999999999998 166.57200000000003 -12.383999999999999V-0.21599999999999997Q166.57200000000003 -0.126 166.50900000000001 -0.063Q166.44600000000003 0.0 166.35600000000002 0.0H164.25000000000003Q164.16000000000003 0.0 164.09700000000004 -0.063Q164.03400000000002 -0.126 164.03400000000002 -0.21599999999999997V-8.298Q164.03400000000002 -8.37 163.99800000000002 -8.37Q163.96200000000002 -8.37 163.92600000000002 -8.315999999999999L162.52200000000002 -5.832Q162.43200000000002 -5.688 162.37800000000001 -5.688Q162.324 -5.688 162.23400000000004 -5.832L160.83 -8.315999999999999Q160.79400000000004 -8.37 160.75800000000004 -8.37Q160.72200000000004 -8.37 160.72200000000004 -8.298V-0.21599999999999997Q160.72200000000004 -0.126 160.65900000000005 -0.063Q160.59600000000003 0.0 160.50600000000003 0.0H158.40000000000003Q158.31000000000003 0.0 158.247 -0.063Q158.18400000000003 -0.126 158.18400000000003 -0.21599999999999997V-12.383999999999999Q158.18400000000003 -12.473999999999998 158.247 -12.536999999999999Q158.31000000000003 -12.6 158.40000000000003 -12.6H160.47000000000003Q160.65000000000003 -12.6 160.74000000000004 -12.456L162.342 -9.594Q162.39600000000002 -9.521999999999998 162.45000000000002 -9.594L163.99800000000002 -12.456Q164.07000000000002 -12.6 164.26800000000003 -12.6Z M177.49200000000002 -10.421999999999999H173.73000000000002Q173.64000000000004 -10.421999999999999 173.64000000000004 -10.331999999999999V-7.4879999999999995Q173.64000000000004 -7.398 173.73000000000002 -7.398H175.89000000000004Q175.98000000000002 -7.398 176.043 -7.334999999999999Q176.10600000000002 -7.271999999999999 176.10600000000002 -7.1819999999999995V-5.436Q176.10600000000002 -5.345999999999999 176.043 -5.2829999999999995Q175.98000000000002 -5.22 175.89000000000004 -5.22H173.73000000000002Q173.64000000000004 -5.22 173.64000000000004 -5.13V-2.268Q173.64000000000004 -2.178 173.73000000000002 -2.178H177.49200000000002Q177.58200000000002 -2.178 177.64500000000004 -2.115Q177.70800000000003 -2.052 177.70800000000003 -1.9619999999999997V-0.21599999999999997Q177.70800000000003 -0.126 177.64500000000004 -0.063Q177.58200000000002 0.0 177.49200000000002 0.0H171.31800000000004Q171.22800000000004 0.0 171.16500000000002 -0.063Q171.10200000000003 -0.126 171.10200000000003 -0.21599999999999997V-12.383999999999999Q171.10200000000003 -12.473999999999998 171.16500000000002 -12.536999999999999Q171.22800000000004 -12.6 171.31800000000004 -12.6H177.49200000000002Q177.58200000000002 -12.6 177.64500000000004 -12.536999999999999Q177.70800000000003 -12.473999999999998 177.70800000000003 -12.383999999999999V-10.638Q177.70800000000003 -10.548 177.64500000000004 -10.485Q177.58200000000002 -10.421999999999999 177.49200000000002 -10.421999999999999Z M204.654 -0.126Q204.654 0.0 204.47400000000002 0.0H202.18800000000002Q202.026 0.0 201.918 -0.126L201.48600000000002 -0.6839999999999999Q201.43200000000002 -0.738 201.36 -0.702Q200.046 0.16199999999999998 198.39000000000001 0.16199999999999998Q196.752 0.16199999999999998 195.816 -0.648Q194.88 -1.458 194.88 -3.0239999999999996Q194.88 -4.194 195.393 -5.004Q195.906 -5.813999999999999 196.806 -6.497999999999999Q196.87800000000001 -6.552 196.824 -6.624Q195.996 -7.739999999999999 195.75300000000001 -8.289Q195.51000000000002 -8.838 195.51000000000002 -9.504Q195.51000000000002 -10.979999999999999 196.419 -11.861999999999998Q197.328 -12.744 198.822 -12.744Q199.812 -12.744 200.604 -12.329999999999998Q201.39600000000002 -11.915999999999999 201.846 -11.168999999999999Q202.296 -10.421999999999999 202.296 -9.45Q202.296 -8.334 201.738 -7.5329999999999995Q201.18 -6.731999999999999 200.208 -6.047999999999999Q200.118 -5.994 200.19 -5.922L200.67600000000002 -5.292L201.234 -4.553999999999999L201.522 -4.194Q201.594 -4.122 201.648 -4.194Q202.044 -4.715999999999999 202.476 -5.526Q202.566 -5.723999999999999 202.764 -5.616L204.33 -4.734Q204.51 -4.6259999999999994 204.42000000000002 -4.428Q203.772 -3.222 203.088 -2.3219999999999996Q203.034 -2.268 203.088 -2.1959999999999997L204.6 -0.26999999999999996Q204.654 -0.19799999999999998 204.654 -0.126ZM198.048 -9.414Q198.048 -9.09 198.156 -8.811Q198.264 -8.532 198.696 -7.919999999999999Q198.75 -7.866 198.822 -7.901999999999999Q199.758 -8.622 199.758 -9.431999999999999Q199.758 -9.882 199.515 -10.161Q199.272 -10.44 198.894 -10.44Q198.49800000000002 -10.44 198.27300000000002 -10.161Q198.048 -9.882 198.048 -9.414ZM199.95600000000002 -2.4659999999999997Q200.028 -2.538 199.97400000000002 -2.5919999999999996L199.47 -3.2399999999999998L198.354 -4.6259999999999994Q198.3 -4.6979999999999995 198.228 -4.643999999999999Q197.436 -3.9419999999999997 197.436 -3.222Q197.436 -2.6999999999999997 197.751 -2.3489999999999998Q198.066 -1.9979999999999998 198.66 -1.9979999999999998Q199.20000000000002 -1.9979999999999998 199.95600000000002 -2.4659999999999997Z M225.85799999999998 0.0H222.456Q222.36599999999999 0.0 222.303 -0.063Q222.23999999999998 -0.126 222.23999999999998 -0.21599999999999997V-12.383999999999999Q222.23999999999998 -12.473999999999998 222.303 -12.536999999999999Q222.36599999999999 -12.6 222.456 -12.6H225.462Q227.26199999999997 -12.6 228.279 -11.736Q229.296 -10.872 229.296 -9.161999999999999Q229.296 -7.379999999999999 228.07199999999997 -6.569999999999999Q227.99999999999997 -6.515999999999999 228.05399999999997 -6.462Q229.47599999999997 -5.454 229.47599999999997 -3.4739999999999998Q229.47599999999997 -1.7999999999999998 228.46799999999996 -0.8999999999999999Q227.45999999999998 0.0 225.85799999999998 0.0ZM224.778 -10.331999999999999V-7.505999999999999Q224.778 -7.4159999999999995 224.86799999999997 -7.4159999999999995H225.516Q226.128 -7.4159999999999995 226.46999999999997 -7.802999999999999Q226.81199999999998 -8.19 226.81199999999998 -8.892Q226.81199999999998 -9.629999999999999 226.47899999999998 -10.026Q226.146 -10.421999999999999 225.516 -10.421999999999999H224.86799999999997Q224.778 -10.421999999999999 224.778 -10.331999999999999ZM226.938 -3.852Q226.938 -4.643999999999999 226.596 -5.111999999999999Q226.254 -5.579999999999999 225.67799999999997 -5.579999999999999H224.86799999999997Q224.778 -5.579999999999999 224.778 -5.489999999999999V-2.286Q224.778 -2.1959999999999997 224.86799999999997 -2.1959999999999997H225.65999999999997Q226.254 -2.1959999999999997 226.596 -2.6279999999999997Q226.938 -3.0599999999999996 226.938 -3.852Z M233.646 -3.582V-12.383999999999999Q233.646 -12.473999999999998 233.709 -12.536999999999999Q233.772 -12.6 233.862 -12.6H235.968Q236.058 -12.6 236.12099999999998 -12.536999999999999Q236.184 -12.473999999999998 236.184 -12.383999999999999V-3.3299999999999996Q236.184 -2.754 236.47199999999998 -2.394Q236.76 -2.034 237.22799999999998 -2.034Q237.696 -2.034 237.975 -2.394Q238.254 -2.754 238.254 -3.3299999999999996V-12.383999999999999Q238.254 -12.473999999999998 238.317 -12.536999999999999Q238.38 -12.6 238.47 -12.6H240.576Q240.666 -12.6 240.72899999999998 -12.536999999999999Q240.79199999999997 -12.473999999999998 240.79199999999997 -12.383999999999999V-3.582Q240.79199999999997 -1.89 239.81099999999998 -0.873Q238.82999999999998 0.144 237.22799999999998 0.144Q235.60799999999998 0.144 234.62699999999998 -0.873Q233.646 -1.89 233.646 -3.582Z M244.89 -0.21599999999999997V-2.034Q244.89 -2.178 244.94399999999996 -2.304L248.79599999999996 -10.314Q248.81399999999996 -10.367999999999999 248.79599999999996 -10.395Q248.77799999999996 -10.421999999999999 248.72399999999996 -10.421999999999999H245.10599999999997Q245.01599999999996 -10.421999999999999 244.95299999999997 -10.485Q244.89 -10.548 244.89 -10.638V-12.383999999999999Q244.89 -12.473999999999998 244.95299999999997 -12.536999999999999Q245.01599999999996 -12.6 245.10599999999997 -12.6H251.29799999999997Q251.38799999999998 -12.6 251.45099999999996 -12.536999999999999Q251.51399999999998 -12.473999999999998 251.51399999999998 -12.383999999999999V-10.565999999999999Q251.51399999999998 -10.44 251.45999999999998 -10.296L247.60799999999998 -2.286Q247.58999999999997 -2.2319999999999998 247.60799999999998 -2.205Q247.62599999999998 -2.178 247.67999999999998 -2.178H251.29799999999997Q251.38799999999998 -2.178 251.45099999999996 -2.115Q251.51399999999998 -2.052 251.51399999999998 -1.9619999999999997V-0.21599999999999997Q251.51399999999998 -0.126 251.45099999999996 -0.063Q251.38799999999998 0.0 251.29799999999997 0.0H245.10599999999997Q245.01599999999996 0.0 244.95299999999997 -0.063Q244.89 -0.126 244.89 -0.21599999999999997Z M255.30599999999998 -0.21599999999999997V-2.034Q255.30599999999998 -2.178 255.35999999999996 -2.304L259.212 -10.314Q259.22999999999996 -10.367999999999999 259.212 -10.395Q259.19399999999996 -10.421999999999999 259.14 -10.421999999999999H255.52199999999996Q255.43199999999996 -10.421999999999999 255.36899999999997 -10.485Q255.30599999999998 -10.548 255.30599999999998 -10.638V-12.383999999999999Q255.30599999999998 -12.473999999999998 255.36899999999997 -12.536999999999999Q255.43199999999996 -12.6 255.52199999999996 -12.6H261.71399999999994Q261.804 -12.6 261.86699999999996 -12.536999999999999Q261.92999999999995 -12.473999999999998 261.92999999999995 -12.383999999999999V-10.565999999999999Q261.92999999999995 -10.44 261.876 -10.296L258.02399999999994 -2.286Q258.006 -2.2319999999999998 258.024 -2.205Q258.042 -2.178 258.09599999999995 -2.178H261.71399999999994Q261.804 -2.178 261.86699999999996 -2.115Q261.92999999999995 -2.052 261.92999999999995 -1.9619999999999997V-0.21599999999999997Q261.92999999999995 -0.126 261.86699999999996 -0.063Q261.804 0.0 261.71399999999994 0.0H255.52199999999996Q255.43199999999996 0.0 255.36899999999997 -0.063Q255.30599999999998 -0.126 255.30599999999998 -0.21599999999999997Z M274.95 -0.23399999999999999V-4.914L274.932 -5.021999999999999L272.412 -12.347999999999999Q272.394 -12.383999999999999 272.394 -12.437999999999999Q272.394 -12.6 272.592 -12.6H274.806Q275.00399999999996 -12.6 275.058 -12.42L276.174 -8.117999999999999Q276.192 -8.064 276.228 -8.064Q276.264 -8.064 276.282 -8.117999999999999L277.39799999999997 -12.42Q277.452 -12.6 277.65 -12.6H279.864Q279.972 -12.6 280.02599999999995 -12.536999999999999Q280.08 -12.473999999999998 280.044 -12.347999999999999L277.506 -5.021999999999999L277.488 -4.914V-0.23399999999999999Q277.488 -0.144 277.42499999999995 -0.08099999999999999Q277.36199999999997 -0.018 277.272 -0.018H275.166Q275.07599999999996 -0.018 275.013 -0.08099999999999999Q274.95 -0.144 274.95 -0.23399999999999999Z M284.106 -3.42V-9.18Q284.106 -10.799999999999999 285.096 -11.771999999999998Q286.08599999999996 -12.744 287.74199999999996 -12.744Q289.39799999999997 -12.744 290.39699999999993 -11.771999999999998Q291.39599999999996 -10.799999999999999 291.39599999999996 -9.18V-3.42Q291.39599999999996 -1.7999999999999998 290.39699999999993 -0.828Q289.39799999999997 0.144 287.74199999999996 0.144Q286.08599999999996 0.144 285.096 -0.828Q284.106 -1.7999999999999998 284.106 -3.42ZM288.85799999999995 -3.312V-9.287999999999998Q288.85799999999995 -9.863999999999999 288.55199999999996 -10.215Q288.246 -10.565999999999999 287.74199999999996 -10.565999999999999Q287.23799999999994 -10.565999999999999 286.9409999999999 -10.215Q286.64399999999995 -9.863999999999999 286.64399999999995 -9.287999999999998V-3.312Q286.64399999999995 -2.7359999999999998 286.9409999999999 -2.385Q287.23799999999994 -2.034 287.74199999999996 -2.034Q288.246 -2.034 288.55199999999996 -2.385Q288.85799999999995 -2.7359999999999998 288.85799999999995 -3.312Z M295.746 -3.582V-12.383999999999999Q295.746 -12.473999999999998 295.80899999999997 -12.536999999999999Q295.87199999999996 -12.6 295.962 -12.6H298.068Q298.15799999999996 -12.6 298.221 -12.536999999999999Q298.284 -12.473999999999998 298.284 -12.383999999999999V-3.3299999999999996Q298.284 -2.754 298.572 -2.394Q298.85999999999996 -2.034 299.328 -2.034Q299.796 -2.034 300.075 -2.394Q300.354 -2.754 300.354 -3.3299999999999996V-12.383999999999999Q300.354 -12.473999999999998 300.417 -12.536999999999999Q300.47999999999996 -12.6 300.57 -12.6H302.676Q302.76599999999996 -12.6 302.82899999999995 -12.536999999999999Q302.892 -12.473999999999998 302.892 -12.383999999999999V-3.582Q302.892 -1.89 301.911 -0.873Q300.93 0.144 299.328 0.144Q297.70799999999997 0.144 296.727 -0.873Q295.746 -1.89 295.746 -3.582Z M312.138 -0.18 310.752 -5.148Q310.716 -5.22 310.662 -5.22H310.05Q309.96 -5.22 309.96 -5.13V-0.21599999999999997Q309.96 -0.126 309.897 -0.063Q309.834 0.0 309.74399999999997 0.0H307.638Q307.548 0.0 307.485 -0.063Q307.42199999999997 -0.126 307.42199999999997 -0.21599999999999997V-12.383999999999999Q307.42199999999997 -12.473999999999998 307.485 -12.536999999999999Q307.548 -12.6 307.638 -12.6H311.274Q312.264 -12.6 313.038 -12.123Q313.812 -11.645999999999999 314.235 -10.782Q314.658 -9.918 314.658 -8.802Q314.658 -7.739999999999999 314.25300000000004 -6.93Q313.848 -6.119999999999999 313.128 -5.67Q313.092 -5.651999999999999 313.07399999999996 -5.625Q313.056 -5.598 313.074 -5.561999999999999L314.73 -0.252L314.748 -0.18Q314.748 0.0 314.55 0.0H312.39Q312.192 0.0 312.138 -0.18ZM309.96 -10.331999999999999V-7.254Q309.96 -7.164 310.05 -7.164H310.86Q311.418 -7.164 311.769 -7.6049999999999995Q312.12 -8.046 312.12 -8.783999999999999Q312.12 -9.54 311.769 -9.980999999999998Q311.418 -10.421999999999999 310.86 -10.421999999999999H310.05Q309.96 -10.421999999999999 309.96 -10.331999999999999Z M329.11800000000005 0.0H325.716Q325.62600000000003 0.0 325.563 -0.063Q325.5 -0.126 325.5 -0.21599999999999997V-12.383999999999999Q325.5 -12.473999999999998 325.563 -12.536999999999999Q325.62600000000003 -12.6 325.716 -12.6H328.72200000000004Q330.52200000000005 -12.6 331.53900000000004 -11.736Q332.55600000000004 -10.872 332.55600000000004 -9.161999999999999Q332.55600000000004 -7.379999999999999 331.33200000000005 -6.569999999999999Q331.26000000000005 -6.515999999999999 331.314 -6.462Q332.73600000000005 -5.454 332.73600000000005 -3.4739999999999998Q332.73600000000005 -1.7999999999999998 331.72800000000007 -0.8999999999999999Q330.72 0.0 329.11800000000005 0.0ZM328.038 -10.331999999999999V-7.505999999999999Q328.038 -7.4159999999999995 328.12800000000004 -7.4159999999999995H328.776Q329.38800000000003 -7.4159999999999995 329.73 -7.802999999999999Q330.072 -8.19 330.072 -8.892Q330.072 -9.629999999999999 329.73900000000003 -10.026Q329.406 -10.421999999999999 328.776 -10.421999999999999H328.12800000000004Q328.038 -10.421999999999999 328.038 -10.331999999999999ZM330.19800000000004 -3.852Q330.19800000000004 -4.643999999999999 329.856 -5.111999999999999Q329.514 -5.579999999999999 328.93800000000005 -5.579999999999999H328.12800000000004Q328.038 -5.579999999999999 328.038 -5.489999999999999V-2.286Q328.038 -2.1959999999999997 328.12800000000004 -2.1959999999999997H328.92Q329.514 -2.1959999999999997 329.856 -2.6279999999999997Q330.19800000000004 -3.0599999999999996 330.19800000000004 -3.852Z M341.676 -0.18 340.29 -5.148Q340.254 -5.22 340.2 -5.22H339.588Q339.498 -5.22 339.498 -5.13V-0.21599999999999997Q339.498 -0.126 339.435 -0.063Q339.372 0.0 339.282 0.0H337.176Q337.086 0.0 337.023 -0.063Q336.96 -0.126 336.96 -0.21599999999999997V-12.383999999999999Q336.96 -12.473999999999998 337.023 -12.536999999999999Q337.086 -12.6 337.176 -12.6H340.812Q341.802 -12.6 342.576 -12.123Q343.35 -11.645999999999999 343.773 -10.782Q344.196 -9.918 344.196 -8.802Q344.196 -7.739999999999999 343.79100000000005 -6.93Q343.386 -6.119999999999999 342.666 -5.67Q342.63 -5.651999999999999 342.61199999999997 -5.625Q342.594 -5.598 342.612 -5.561999999999999L344.26800000000003 -0.252L344.286 -0.18Q344.286 0.0 344.088 0.0H341.928Q341.73 0.0 341.676 -0.18ZM339.498 -10.331999999999999V-7.254Q339.498 -7.164 339.588 -7.164H340.398Q340.956 -7.164 341.307 -7.6049999999999995Q341.658 -8.046 341.658 -8.783999999999999Q341.658 -9.54 341.307 -9.980999999999998Q340.956 -10.421999999999999 340.398 -10.421999999999999H339.588Q339.498 -10.421999999999999 339.498 -10.331999999999999Z M353.49600000000004 -0.19799999999999998 353.208 -1.926Q353.208 -2.016 353.1 -2.016H350.814Q350.706 -2.016 350.706 -1.926L350.418 -0.19799999999999998Q350.40000000000003 0.0 350.184 0.0H348.07800000000003Q347.844 0.0 347.898 -0.23399999999999999L350.54400000000004 -12.402Q350.58000000000004 -12.6 350.778 -12.6H353.208Q353.406 -12.6 353.442 -12.402L356.07 -0.23399999999999999L356.088 -0.16199999999999998Q356.088 0.0 355.89 0.0H353.73Q353.514 0.0 353.49600000000004 -0.19799999999999998ZM351.13800000000003 -3.9779999999999998H352.75800000000004Q352.848 -3.9779999999999998 352.83000000000004 -4.068L351.98400000000004 -8.982Q351.966 -9.036 351.93 -9.036Q351.894 -9.036 351.87600000000003 -8.982L351.06600000000003 -4.068Q351.06600000000003 -3.9779999999999998 351.13800000000003 -3.9779999999999998Z M360.114 -0.21599999999999997V-12.383999999999999Q360.114 -12.473999999999998 360.177 -12.536999999999999Q360.24 -12.6 360.33 -12.6H362.436Q362.526 -12.6 362.589 -12.536999999999999Q362.652 -12.473999999999998 362.652 -12.383999999999999V-0.21599999999999997Q362.652 -0.126 362.589 -0.063Q362.526 0.0 362.436 0.0H360.33Q360.24 0.0 360.177 -0.063Q360.114 -0.126 360.114 -0.21599999999999997Z M372.618 -12.6H374.706Q374.796 -12.6 374.859 -12.536999999999999Q374.92199999999997 -12.473999999999998 374.92199999999997 -12.383999999999999V-0.21599999999999997Q374.92199999999997 -0.126 374.859 -0.063Q374.796 0.0 374.706 0.0H372.33Q372.15 0.0 372.096 -0.18L369.864 -7.145999999999999Q369.846 -7.199999999999999 369.801 -7.190999999999999Q369.756 -7.1819999999999995 369.756 -7.127999999999999L369.774 -0.21599999999999997Q369.774 -0.126 369.711 -0.063Q369.64799999999997 0.0 369.558 0.0H367.46999999999997Q367.38 0.0 367.317 -0.063Q367.25399999999996 -0.126 367.25399999999996 -0.21599999999999997V-12.383999999999999Q367.25399999999996 -12.473999999999998 367.317 -12.536999999999999Q367.38 -12.6 367.46999999999997 -12.6H369.828Q370.008 -12.6 370.062 -12.42L372.312 -5.454Q372.33 -5.3999999999999995 372.375 -5.408999999999999Q372.42 -5.417999999999999 372.42 -5.4719999999999995L372.402 -12.383999999999999Q372.402 -12.473999999999998 372.465 -12.536999999999999Q372.52799999999996 -12.6 372.618 -12.6Z" fill="#F0EBE2"/>
  </g>
  <g transform="translate(40, 82)">
    <path d="M3.5749999999999997 -0.09899999999999999 3.3329999999999997 -1.3639999999999999Q3.3329999999999997 -1.386 3.3164999999999996 -1.3969999999999998Q3.3 -1.408 3.278 -1.408H1.4849999999999999Q1.4629999999999999 -1.408 1.4465 -1.3969999999999998Q1.43 -1.386 1.43 -1.3639999999999999L1.1989999999999998 -0.09899999999999999Q1.188 0.0 1.0779999999999998 0.0H0.242Q0.187 0.0 0.1595 -0.033Q0.132 -0.066 0.143 -0.121L1.7819999999999998 -7.601Q1.8039999999999998 -7.699999999999999 1.9029999999999998 -7.699999999999999H2.8819999999999997Q2.992 -7.699999999999999 3.0029999999999997 -7.601L4.653 -0.121V-0.09899999999999999Q4.653 0.0 4.553999999999999 0.0H3.6959999999999997Q3.597 0.0 3.5749999999999997 -0.09899999999999999ZM1.65 -2.2439999999999998H3.113Q3.146 -2.2439999999999998 3.146 -2.288L2.3979999999999997 -6.193Q2.387 -6.215 2.376 -6.215Q2.3649999999999998 -6.215 2.3539999999999996 -6.193L1.617 -2.288Q1.617 -2.2439999999999998 1.65 -2.2439999999999998Z M13.69 -7.699999999999999H14.514999999999999Q14.625 -7.699999999999999 14.625 -7.59V-0.10999999999999999Q14.625 0.0 14.514999999999999 0.0H13.568999999999999Q13.480999999999998 0.0 13.447999999999999 -0.088L11.578 -5.114999999999999Q11.567 -5.137 11.545 -5.131499999999999Q11.523 -5.1259999999999994 11.523 -5.104L11.533999999999999 -0.10999999999999999Q11.533999999999999 0.0 11.424 0.0H10.588Q10.478 0.0 10.478 -0.10999999999999999V-7.59Q10.478 -7.699999999999999 10.588 -7.699999999999999H11.523Q11.610999999999999 -7.699999999999999 11.643999999999998 -7.611999999999999L13.524999999999999 -2.585Q13.536 -2.552 13.558 -2.5575Q13.579999999999998 -2.5629999999999997 13.579999999999998 -2.5959999999999996V-7.59Q13.579999999999998 -7.699999999999999 13.69 -7.699999999999999Z M20.834999999999997 -1.9029999999999998V-5.808Q20.834999999999997 -6.71 21.3795 -7.249Q21.924 -7.787999999999999 22.814999999999998 -7.787999999999999Q23.717 -7.787999999999999 24.261499999999998 -7.249Q24.805999999999997 -6.71 24.805999999999997 -5.808V-5.632Q24.805999999999997 -5.521999999999999 24.695999999999998 -5.521999999999999L23.86 -5.478Q23.75 -5.478 23.75 -5.588V-5.874Q23.75 -6.324999999999999 23.4915 -6.6Q23.232999999999997 -6.875 22.814999999999998 -6.875Q22.397 -6.875 22.144 -6.6Q21.891 -6.324999999999999 21.891 -5.874V-1.8259999999999998Q21.891 -1.375 22.144 -1.1Q22.397 -0.825 22.814999999999998 -0.825Q23.232999999999997 -0.825 23.4915 -1.1Q23.75 -1.375 23.75 -1.8259999999999998V-2.112Q23.75 -2.222 23.86 -2.222L24.695999999999998 -2.178Q24.805999999999997 -2.178 24.805999999999997 -2.068V-1.9029999999999998Q24.805999999999997 -1.001 24.261499999999998 -0.45649999999999996Q23.717 0.088 22.814999999999998 0.088Q21.924 0.088 21.3795 -0.45649999999999996Q20.834999999999997 -1.001 20.834999999999997 -1.9029999999999998Z M30.960999999999995 -0.10999999999999999V-7.59Q30.960999999999995 -7.699999999999999 31.070999999999998 -7.699999999999999H31.906999999999996Q32.016999999999996 -7.699999999999999 32.016999999999996 -7.59V-0.10999999999999999Q32.016999999999996 0.0 31.906999999999996 0.0H31.070999999999998Q30.960999999999995 0.0 30.960999999999995 -0.10999999999999999Z M41.955999999999996 -6.787H39.480999999999995Q39.437 -6.787 39.437 -6.742999999999999V-4.356Q39.437 -4.311999999999999 39.480999999999995 -4.311999999999999H40.998999999999995Q41.108999999999995 -4.311999999999999 41.108999999999995 -4.202V-3.509Q41.108999999999995 -3.399 40.998999999999995 -3.399H39.480999999999995Q39.437 -3.399 39.437 -3.355V-0.957Q39.437 -0.9129999999999999 39.480999999999995 -0.9129999999999999H41.955999999999996Q42.065999999999995 -0.9129999999999999 42.065999999999995 -0.8029999999999999V-0.10999999999999999Q42.065999999999995 0.0 41.955999999999996 0.0H38.491Q38.381 0.0 38.381 -0.10999999999999999V-7.59Q38.381 -7.699999999999999 38.491 -7.699999999999999H41.955999999999996Q42.065999999999995 -7.699999999999999 42.065999999999995 -7.59V-6.896999999999999Q42.065999999999995 -6.787 41.955999999999996 -6.787Z M51.34499999999999 -7.699999999999999H52.169999999999995Q52.279999999999994 -7.699999999999999 52.279999999999994 -7.59V-0.10999999999999999Q52.279999999999994 0.0 52.169999999999995 0.0H51.22399999999999Q51.135999999999996 0.0 51.102999999999994 -0.088L49.23299999999999 -5.114999999999999Q49.221999999999994 -5.137 49.19999999999999 -5.131499999999999Q49.17799999999999 -5.1259999999999994 49.17799999999999 -5.104L49.18899999999999 -0.10999999999999999Q49.18899999999999 0.0 49.07899999999999 0.0H48.242999999999995Q48.132999999999996 0.0 48.132999999999996 -0.10999999999999999V-7.59Q48.132999999999996 -7.699999999999999 48.242999999999995 -7.699999999999999H49.17799999999999Q49.26599999999999 -7.699999999999999 49.29899999999999 -7.611999999999999L51.17999999999999 -2.585Q51.190999999999995 -2.552 51.212999999999994 -2.5575Q51.23499999999999 -2.5629999999999997 51.23499999999999 -2.5959999999999996V-7.59Q51.23499999999999 -7.699999999999999 51.34499999999999 -7.699999999999999Z M61.85599999999999 -7.699999999999999H62.68099999999999Q62.79099999999999 -7.699999999999999 62.79099999999999 -7.59V-0.10999999999999999Q62.79099999999999 0.0 62.68099999999999 0.0H61.734999999999985Q61.64699999999999 0.0 61.61399999999999 -0.088L59.743999999999986 -5.114999999999999Q59.73299999999999 -5.137 59.710999999999984 -5.131499999999999Q59.688999999999986 -5.1259999999999994 59.688999999999986 -5.104L59.69999999999999 -0.10999999999999999Q59.69999999999999 0.0 59.58999999999999 0.0H58.75399999999999Q58.64399999999999 0.0 58.64399999999999 -0.10999999999999999V-7.59Q58.64399999999999 -7.699999999999999 58.75399999999999 -7.699999999999999H59.688999999999986Q59.77699999999999 -7.699999999999999 59.80999999999999 -7.611999999999999L61.69099999999999 -2.585Q61.70199999999999 -2.552 61.72399999999999 -2.5575Q61.74599999999999 -2.5629999999999997 61.74599999999999 -2.5959999999999996V-7.59Q61.74599999999999 -7.699999999999999 61.85599999999999 -7.699999999999999Z M72.72999999999999 -6.787H70.25499999999998Q70.21099999999998 -6.787 70.21099999999998 -6.742999999999999V-4.356Q70.21099999999998 -4.311999999999999 70.25499999999998 -4.311999999999999H71.77299999999998Q71.88299999999998 -4.311999999999999 71.88299999999998 -4.202V-3.509Q71.88299999999998 -3.399 71.77299999999998 -3.399H70.25499999999998Q70.21099999999998 -3.399 70.21099999999998 -3.355V-0.957Q70.21099999999998 -0.9129999999999999 70.25499999999998 -0.9129999999999999H72.72999999999999Q72.83999999999999 -0.9129999999999999 72.83999999999999 -0.8029999999999999V-0.10999999999999999Q72.83999999999999 0.0 72.72999999999999 0.0H69.26499999999999Q69.15499999999999 0.0 69.15499999999999 -0.10999999999999999V-7.59Q69.15499999999999 -7.699999999999999 69.26499999999999 -7.699999999999999H72.72999999999999Q72.83999999999999 -7.699999999999999 72.83999999999999 -7.59V-6.896999999999999Q72.83999999999999 -6.787 72.72999999999999 -6.787Z M82.45999999999998 -7.699999999999999H83.29599999999998Q83.40599999999998 -7.699999999999999 83.40599999999998 -7.59V-0.10999999999999999Q83.40599999999998 0.0 83.29599999999998 0.0H82.45999999999998Q82.34999999999998 0.0 82.34999999999998 -0.10999999999999999V-5.566Q82.34999999999998 -5.598999999999999 82.33349999999999 -5.598999999999999Q82.31699999999998 -5.598999999999999 82.29499999999997 -5.577L81.23899999999998 -3.6079999999999997Q81.20599999999997 -3.5309999999999997 81.13999999999999 -3.5309999999999997Q81.07399999999998 -3.5309999999999997 81.04099999999998 -3.6079999999999997L79.99599999999998 -5.566Q79.97399999999998 -5.588 79.95749999999998 -5.588Q79.94099999999997 -5.588 79.94099999999997 -5.555V-0.10999999999999999Q79.94099999999997 0.0 79.83099999999997 0.0H78.99499999999998Q78.88499999999998 0.0 78.88499999999998 -0.10999999999999999V-7.59Q78.88499999999998 -7.699999999999999 78.99499999999998 -7.699999999999999H79.83099999999997Q79.90799999999999 -7.699999999999999 79.96299999999998 -7.622999999999999L81.11799999999998 -5.555Q81.12899999999998 -5.544 81.15099999999998 -5.544Q81.17299999999997 -5.544 81.18399999999998 -5.555L82.32799999999997 -7.622999999999999Q82.37199999999999 -7.699999999999999 82.45999999999998 -7.699999999999999Z M93.31199999999998 -6.787H90.83699999999997Q90.79299999999998 -6.787 90.79299999999998 -6.742999999999999V-4.356Q90.79299999999998 -4.311999999999999 90.83699999999997 -4.311999999999999H92.35499999999998Q92.46499999999997 -4.311999999999999 92.46499999999997 -4.202V-3.509Q92.46499999999997 -3.399 92.35499999999998 -3.399H90.83699999999997Q90.79299999999998 -3.399 90.79299999999998 -3.355V-0.957Q90.79299999999998 -0.9129999999999999 90.83699999999997 -0.9129999999999999H93.31199999999998Q93.42199999999998 -0.9129999999999999 93.42199999999998 -0.8029999999999999V-0.10999999999999999Q93.42199999999998 0.0 93.31199999999998 0.0H89.84699999999998Q89.73699999999998 0.0 89.73699999999998 -0.10999999999999999V-7.59Q89.73699999999998 -7.699999999999999 89.84699999999998 -7.699999999999999H93.31199999999998Q93.42199999999998 -7.699999999999999 93.42199999999998 -7.59V-6.896999999999999Q93.42199999999998 -6.787 93.31199999999998 -6.787Z M102.70099999999998 -7.699999999999999H103.52599999999997Q103.63599999999997 -7.699999999999999 103.63599999999997 -7.59V-0.10999999999999999Q103.63599999999997 0.0 103.52599999999997 0.0H102.57999999999997Q102.49199999999998 0.0 102.45899999999997 -0.088L100.58899999999997 -5.114999999999999Q100.57799999999997 -5.137 100.55599999999998 -5.131499999999999Q100.53399999999998 -5.1259999999999994 100.53399999999998 -5.104L100.54499999999997 -0.10999999999999999Q100.54499999999997 0.0 100.43499999999997 0.0H99.59899999999998Q99.48899999999998 0.0 99.48899999999998 -0.10999999999999999V-7.59Q99.48899999999998 -7.699999999999999 99.59899999999998 -7.699999999999999H100.53399999999998Q100.62199999999997 -7.699999999999999 100.65499999999997 -7.611999999999999L102.53599999999997 -2.585Q102.54699999999997 -2.552 102.56899999999997 -2.5575Q102.59099999999998 -2.5629999999999997 102.59099999999998 -2.5959999999999996V-7.59Q102.59099999999998 -7.699999999999999 102.70099999999998 -7.699999999999999Z M113.81699999999996 -7.59V-6.896999999999999Q113.81699999999996 -6.787 113.70699999999997 -6.787H112.26599999999996Q112.22199999999997 -6.787 112.22199999999997 -6.742999999999999V-0.10999999999999999Q112.22199999999997 0.0 112.11199999999997 0.0H111.27599999999997Q111.16599999999997 0.0 111.16599999999997 -0.10999999999999999V-6.742999999999999Q111.16599999999997 -6.787 111.12199999999997 -6.787H109.75799999999997Q109.64799999999997 -6.787 109.64799999999997 -6.896999999999999V-7.59Q109.64799999999997 -7.699999999999999 109.75799999999997 -7.699999999999999H113.70699999999997Q113.81699999999996 -7.699999999999999 113.81699999999996 -7.59Z M133.97599999999997 -3.1130000000000004Q133.97599999999997 -3.4210000000000003 134.17399999999998 -3.619Q134.37199999999996 -3.817 134.67999999999995 -3.817Q134.98799999999997 -3.817 135.18599999999998 -3.619Q135.38399999999996 -3.4210000000000003 135.38399999999996 -3.1130000000000004Q135.38399999999996 -2.8050000000000006 135.18599999999998 -2.607Q134.98799999999997 -2.409 134.67999999999995 -2.409Q134.37199999999996 -2.409 134.17399999999998 -2.607Q133.97599999999997 -2.8050000000000006 133.97599999999997 -3.1130000000000004Z M159.44799999999992 -7.699999999999999H160.28399999999993Q160.39399999999995 -7.699999999999999 160.39399999999995 -7.59V-0.10999999999999999Q160.39399999999995 0.0 160.28399999999993 0.0H159.44799999999992Q159.33799999999994 0.0 159.33799999999994 -0.10999999999999999V-5.566Q159.33799999999994 -5.598999999999999 159.32149999999996 -5.598999999999999Q159.30499999999995 -5.598999999999999 159.28299999999993 -5.577L158.22699999999995 -3.6079999999999997Q158.19399999999993 -3.5309999999999997 158.12799999999993 -3.5309999999999997Q158.06199999999993 -3.5309999999999997 158.02899999999994 -3.6079999999999997L156.98399999999992 -5.566Q156.96199999999993 -5.588 156.94549999999992 -5.588Q156.92899999999995 -5.588 156.92899999999995 -5.555V-0.10999999999999999Q156.92899999999995 0.0 156.81899999999993 0.0H155.98299999999995Q155.87299999999993 0.0 155.87299999999993 -0.10999999999999999V-7.59Q155.87299999999993 -7.699999999999999 155.98299999999995 -7.699999999999999H156.81899999999993Q156.89599999999993 -7.699999999999999 156.95099999999994 -7.622999999999999L158.10599999999994 -5.555Q158.11699999999993 -5.544 158.13899999999995 -5.544Q158.16099999999994 -5.544 158.17199999999994 -5.555L159.31599999999995 -7.622999999999999Q159.35999999999993 -7.699999999999999 159.44799999999992 -7.699999999999999Z M169.61799999999994 -0.09899999999999999 169.37599999999995 -1.3639999999999999Q169.37599999999995 -1.386 169.35949999999997 -1.3969999999999998Q169.34299999999996 -1.408 169.32099999999994 -1.408H167.52799999999996Q167.50599999999994 -1.408 167.48949999999996 -1.3969999999999998Q167.47299999999996 -1.386 167.47299999999996 -1.3639999999999999L167.24199999999996 -0.09899999999999999Q167.23099999999994 0.0 167.12099999999995 0.0H166.28499999999994Q166.22999999999996 0.0 166.20249999999996 -0.033Q166.17499999999995 -0.066 166.18599999999995 -0.121L167.82499999999996 -7.601Q167.84699999999995 -7.699999999999999 167.94599999999994 -7.699999999999999H168.92499999999995Q169.03499999999994 -7.699999999999999 169.04599999999994 -7.601L170.69599999999994 -0.121V-0.09899999999999999Q170.69599999999994 0.0 170.59699999999995 0.0H169.73899999999995Q169.63999999999996 0.0 169.61799999999994 -0.09899999999999999ZM167.69299999999996 -2.2439999999999998H169.15599999999995Q169.18899999999994 -2.2439999999999998 169.18899999999994 -2.288L168.44099999999995 -6.193Q168.42999999999995 -6.215 168.41899999999995 -6.215Q168.40799999999996 -6.215 168.39699999999996 -6.193L167.65999999999994 -2.288Q167.65999999999994 -2.2439999999999998 167.69299999999996 -2.2439999999999998Z M176.52099999999993 -0.10999999999999999V-7.59Q176.52099999999993 -7.699999999999999 176.63099999999994 -7.699999999999999H177.46699999999993Q177.57699999999994 -7.699999999999999 177.57699999999994 -7.59V-0.10999999999999999Q177.57699999999994 0.0 177.46699999999993 0.0H176.63099999999994Q176.52099999999993 0.0 176.52099999999993 -0.10999999999999999Z M187.15299999999993 -7.699999999999999H187.97799999999992Q188.08799999999994 -7.699999999999999 188.08799999999994 -7.59V-0.10999999999999999Q188.08799999999994 0.0 187.97799999999992 0.0H187.03199999999993Q186.94399999999993 0.0 186.91099999999992 -0.088L185.04099999999994 -5.114999999999999Q185.02999999999992 -5.137 185.00799999999992 -5.131499999999999Q184.98599999999993 -5.1259999999999994 184.98599999999993 -5.104L184.99699999999993 -0.10999999999999999Q184.99699999999993 0.0 184.88699999999992 0.0H184.05099999999993Q183.94099999999992 0.0 183.94099999999992 -0.10999999999999999V-7.59Q183.94099999999992 -7.699999999999999 184.05099999999993 -7.699999999999999H184.98599999999993Q185.07399999999993 -7.699999999999999 185.10699999999994 -7.611999999999999L186.98799999999994 -2.585Q186.99899999999994 -2.552 187.02099999999993 -2.5575Q187.04299999999992 -2.5629999999999997 187.04299999999992 -2.5959999999999996V-7.59Q187.04299999999992 -7.699999999999999 187.15299999999993 -7.699999999999999Z M198.26899999999992 -7.59V-6.896999999999999Q198.26899999999992 -6.787 198.15899999999993 -6.787H196.71799999999993Q196.67399999999992 -6.787 196.67399999999992 -6.742999999999999V-0.10999999999999999Q196.67399999999992 0.0 196.56399999999994 0.0H195.72799999999992Q195.61799999999994 0.0 195.61799999999994 -0.10999999999999999V-6.742999999999999Q195.61799999999994 -6.787 195.57399999999993 -6.787H194.20999999999992Q194.09999999999994 -6.787 194.09999999999994 -6.896999999999999V-7.59Q194.09999999999994 -7.699999999999999 194.20999999999992 -7.699999999999999H198.15899999999993Q198.26899999999992 -7.699999999999999 198.26899999999992 -7.59Z M207.85599999999994 -6.787H205.38099999999994Q205.33699999999993 -6.787 205.33699999999993 -6.742999999999999V-4.356Q205.33699999999993 -4.311999999999999 205.38099999999994 -4.311999999999999H206.89899999999994Q207.00899999999993 -4.311999999999999 207.00899999999993 -4.202V-3.509Q207.00899999999993 -3.399 206.89899999999994 -3.399H205.38099999999994Q205.33699999999993 -3.399 205.33699999999993 -3.355V-0.957Q205.33699999999993 -0.9129999999999999 205.38099999999994 -0.9129999999999999H207.85599999999994Q207.96599999999992 -0.9129999999999999 207.96599999999992 -0.8029999999999999V-0.10999999999999999Q207.96599999999992 0.0 207.85599999999994 0.0H204.39099999999993Q204.28099999999992 0.0 204.28099999999992 -0.10999999999999999V-7.59Q204.28099999999992 -7.699999999999999 204.39099999999993 -7.699999999999999H207.85599999999994Q207.96599999999992 -7.699999999999999 207.96599999999992 -7.59V-6.896999999999999Q207.96599999999992 -6.787 207.85599999999994 -6.787Z M217.24499999999995 -7.699999999999999H218.06999999999994Q218.17999999999995 -7.699999999999999 218.17999999999995 -7.59V-0.10999999999999999Q218.17999999999995 0.0 218.06999999999994 0.0H217.12399999999994Q217.03599999999994 0.0 217.00299999999993 -0.088L215.13299999999995 -5.114999999999999Q215.12199999999993 -5.137 215.09999999999994 -5.131499999999999Q215.07799999999995 -5.1259999999999994 215.07799999999995 -5.104L215.08899999999994 -0.10999999999999999Q215.08899999999994 0.0 214.97899999999993 0.0H214.14299999999994Q214.03299999999993 0.0 214.03299999999993 -0.10999999999999999V-7.59Q214.03299999999993 -7.699999999999999 214.14299999999994 -7.699999999999999H215.07799999999995Q215.16599999999994 -7.699999999999999 215.19899999999996 -7.611999999999999L217.07999999999996 -2.585Q217.09099999999995 -2.552 217.11299999999994 -2.5575Q217.13499999999993 -2.5629999999999997 217.13499999999993 -2.5959999999999996V-7.59Q217.13499999999993 -7.699999999999999 217.24499999999995 -7.699999999999999Z M227.43699999999993 -0.09899999999999999 227.19499999999994 -1.3639999999999999Q227.19499999999994 -1.386 227.17849999999993 -1.3969999999999998Q227.16199999999995 -1.408 227.13999999999993 -1.408H225.34699999999995Q225.32499999999993 -1.408 225.30849999999992 -1.3969999999999998Q225.29199999999994 -1.386 225.29199999999994 -1.3639999999999999L225.06099999999995 -0.09899999999999999Q225.04999999999993 0.0 224.93999999999994 0.0H224.10399999999993Q224.04899999999995 0.0 224.02149999999995 -0.033Q223.99399999999994 -0.066 224.00499999999994 -0.121L225.64399999999995 -7.601Q225.66599999999994 -7.699999999999999 225.76499999999993 -7.699999999999999H226.74399999999994Q226.85399999999993 -7.699999999999999 226.86499999999992 -7.601L228.51499999999993 -0.121V-0.09899999999999999Q228.51499999999993 0.0 228.41599999999994 0.0H227.55799999999994Q227.45899999999995 0.0 227.43699999999993 -0.09899999999999999ZM225.51199999999994 -2.2439999999999998H226.97499999999994Q227.00799999999992 -2.2439999999999998 227.00799999999992 -2.288L226.25999999999993 -6.193Q226.24899999999994 -6.215 226.23799999999994 -6.215Q226.22699999999995 -6.215 226.21599999999995 -6.193L225.47899999999993 -2.288Q225.47899999999993 -2.2439999999999998 225.51199999999994 -2.2439999999999998Z M237.55199999999994 -7.699999999999999H238.37699999999992Q238.48699999999994 -7.699999999999999 238.48699999999994 -7.59V-0.10999999999999999Q238.48699999999994 0.0 238.37699999999992 0.0H237.43099999999993Q237.34299999999993 0.0 237.30999999999992 -0.088L235.43999999999994 -5.114999999999999Q235.42899999999992 -5.137 235.40699999999993 -5.131499999999999Q235.38499999999993 -5.1259999999999994 235.38499999999993 -5.104L235.39599999999993 -0.10999999999999999Q235.39599999999993 0.0 235.28599999999992 0.0H234.44999999999993Q234.33999999999992 0.0 234.33999999999992 -0.10999999999999999V-7.59Q234.33999999999992 -7.699999999999999 234.44999999999993 -7.699999999999999H235.38499999999993Q235.47299999999993 -7.699999999999999 235.50599999999994 -7.611999999999999L237.38699999999994 -2.585Q237.39799999999994 -2.552 237.41999999999993 -2.5575Q237.44199999999992 -2.5629999999999997 237.44199999999992 -2.5959999999999996V-7.59Q237.44199999999992 -7.699999999999999 237.55199999999994 -7.699999999999999Z M248.66799999999992 -7.59V-6.896999999999999Q248.66799999999992 -6.787 248.55799999999994 -6.787H247.11699999999993Q247.07299999999992 -6.787 247.07299999999992 -6.742999999999999V-0.10999999999999999Q247.07299999999992 0.0 246.96299999999994 0.0H246.12699999999992Q246.01699999999994 0.0 246.01699999999994 -0.10999999999999999V-6.742999999999999Q246.01699999999994 -6.787 245.97299999999993 -6.787H244.60899999999992Q244.49899999999994 -6.787 244.49899999999994 -6.896999999999999V-7.59Q244.49899999999994 -7.699999999999999 244.60899999999992 -7.699999999999999H248.55799999999994Q248.66799999999992 -7.699999999999999 248.66799999999992 -7.59Z" fill="#8A8078"/>
  </g>

  <!-- Arrow center -->
  <g transform="translate(680.00, 52)">
    <line x1="0" y1="0" x2="30" y2="0" stroke="#E07020" stroke-width="3"/>
    <polyline points="18,-8 34,0 18,8" fill="none" stroke="#E07020" stroke-width="3" stroke-linecap="round" stroke-linejoin="round"/>
  </g>

  <!-- Logo on right -->
  <g transform="translate(962.57, 60)">
    <path d="M0.8400000000000001 -8.232000000000001V-21.21Q0.8400000000000001 -25.116000000000003 3.3600000000000003 -27.426000000000002Q5.880000000000001 -29.736 10.038 -29.736Q12.768 -29.736 14.847000000000001 -28.686Q16.926000000000002 -27.636000000000003 18.081000000000003 -25.683Q19.236 -23.73 19.236 -21.126V-19.740000000000002Q19.236 -19.446 19.068 -19.278Q18.900000000000002 -19.11 18.606 -19.11H11.97Q11.676 -19.11 11.508 -19.278Q11.34 -19.446 11.34 -19.740000000000002V-21.21Q11.34 -22.008000000000003 10.983 -22.491Q10.626000000000001 -22.974 10.038 -22.974Q9.450000000000001 -22.974 9.093 -22.491Q8.736 -22.008000000000003 8.736 -21.21V-8.190000000000001Q8.736 -7.392 9.093 -6.909000000000001Q9.450000000000001 -6.426 10.038 -6.426Q10.626000000000001 -6.426 10.983 -6.909000000000001Q11.34 -7.392 11.34 -8.190000000000001V-10.248000000000001Q11.34 -10.5 11.088000000000001 -10.5H10.752Q10.458 -10.5 10.29 -10.668Q10.122 -10.836 10.122 -11.13V-15.96Q10.122 -16.254 10.29 -16.422Q10.458 -16.59 10.752 -16.59H18.606Q18.900000000000002 -16.59 19.068 -16.422Q19.236 -16.254 19.236 -15.96V-8.232000000000001Q19.236 -5.67 18.081000000000003 -3.717Q16.926000000000002 -1.764 14.847000000000001 -0.714Q12.768 0.336 10.038 0.336Q5.880000000000001 0.336 3.3600000000000003 -1.9950000000000003Q0.8400000000000001 -4.3260000000000005 0.8400000000000001 -8.232000000000001Z M31.726 -0.5880000000000001 31.264000000000003 -3.7380000000000004Q31.264000000000003 -3.822 31.180000000000003 -3.906Q31.096000000000004 -3.99 30.97 -3.99H27.274Q27.148000000000003 -3.99 27.064 -3.906Q26.98 -3.822 26.98 -3.7380000000000004L26.560000000000002 -0.5880000000000001Q26.518 0.0 25.888 0.0H19.294Q18.622 0.0 18.748 -0.672L24.712 -28.854000000000003Q24.838 -29.400000000000002 25.426000000000002 -29.400000000000002H33.07Q33.658 -29.400000000000002 33.784 -28.854000000000003L39.748000000000005 -0.672V-0.504Q39.748000000000005 0.0 39.16 0.0H32.398Q31.768 0.0 31.726 -0.5880000000000001ZM28.114 -10.038H30.088Q30.382 -10.038 30.298000000000002 -10.290000000000001L29.164 -17.85Q29.122 -18.018 29.038 -18.018Q28.954 -18.018 28.912 -17.85L27.904000000000003 -10.290000000000001Q27.904000000000003 -10.038 28.114 -10.038Z M54.086 -29.400000000000002H60.638000000000005Q60.932 -29.400000000000002 61.1 -29.232Q61.268 -29.064 61.268 -28.770000000000003V-0.63Q61.268 -0.336 61.1 -0.168Q60.932 0.0 60.638000000000005 0.0H54.002Q53.708 0.0 53.54 -0.168Q53.372 -0.336 53.372 -0.63V-17.724Q53.372 -17.892 53.266999999999996 -17.934Q53.162 -17.976000000000003 53.078 -17.808L50.684 -13.776000000000002L50.264 -13.020000000000001H50.222L47.45 -17.808Q47.366 -17.976000000000003 47.260999999999996 -17.955000000000002Q47.156 -17.934 47.156 -17.724V-0.63Q47.156 -0.336 46.988 -0.168Q46.82 0.0 46.525999999999996 0.0H39.89Q39.596000000000004 0.0 39.428 -0.168Q39.26 -0.336 39.26 -0.63V-28.770000000000003Q39.26 -29.064 39.428 -29.232Q39.596000000000004 -29.400000000000002 39.89 -29.400000000000002H46.442Q46.988 -29.400000000000002 47.198 -28.938000000000002L50.138000000000005 -23.562Q50.222 -23.436 50.327 -23.415Q50.432 -23.394000000000002 50.474000000000004 -23.562L53.33 -28.938000000000002Q53.582 -29.400000000000002 54.086 -29.400000000000002Z M77.412 -22.638H69.39Q69.138 -22.638 69.138 -22.386000000000003V-18.354000000000003Q69.138 -18.102 69.39 -18.102H73.548Q73.84200000000001 -18.102 74.01000000000002 -17.934Q74.17800000000001 -17.766000000000002 74.17800000000001 -17.472V-11.97Q74.17800000000001 -11.676 74.01000000000002 -11.508Q73.84200000000001 -11.34 73.548 -11.34H69.39Q69.138 -11.34 69.138 -11.088000000000001V-7.014Q69.138 -6.7620000000000005 69.39 -6.7620000000000005H77.412Q77.706 -6.7620000000000005 77.874 -6.594Q78.042 -6.426 78.042 -6.132000000000001V-0.63Q78.042 -0.336 77.874 -0.168Q77.706 0.0 77.412 0.0H61.87200000000001Q61.578 0.0 61.410000000000004 -0.168Q61.242000000000004 -0.336 61.242000000000004 -0.63V-28.770000000000003Q61.242000000000004 -29.064 61.410000000000004 -29.232Q61.578 -29.400000000000002 61.87200000000001 -29.400000000000002H77.412Q77.706 -29.400000000000002 77.874 -29.232Q78.042 -29.064 78.042 -28.770000000000003V-23.268Q78.042 -22.974 77.874 -22.806Q77.706 -22.638 77.412 -22.638Z" fill="#F0EBE2"/>
    <path d="M80.116 -0.42000000000000004V-28.98Q80.116 -29.400000000000002 80.536 -29.400000000000002H86.71000000000001Q89.818 -29.400000000000002 91.624 -27.321Q93.43 -25.242 93.43 -21.672V-7.728000000000001Q93.43 -4.158 91.624 -2.079Q89.818 0.0 86.71000000000001 0.0H80.536Q80.116 0.0 80.116 -0.42000000000000004ZM82.51 -1.9740000000000002H86.71000000000001Q88.768 -2.016 89.965 -3.5490000000000004Q91.162 -5.082000000000001 91.162 -7.7700000000000005V-21.588Q91.162 -24.318 89.965 -25.872Q88.768 -27.426000000000002 86.668 -27.426000000000002H82.51Q82.342 -27.426000000000002 82.342 -27.258000000000003V-2.1420000000000003Q82.342 -1.9740000000000002 82.51 -1.9740000000000002Z M96.806 -6.720000000000001V-22.638Q96.806 -25.830000000000002 98.696 -27.783Q100.586 -29.736 103.694 -29.736Q106.802 -29.736 108.73400000000001 -27.783Q110.666 -25.830000000000002 110.666 -22.638V-6.720000000000001Q110.666 -3.5700000000000003 108.73400000000001 -1.6170000000000002Q106.802 0.336 103.694 0.336Q100.628 0.336 98.717 -1.6170000000000002Q96.806 -3.5700000000000003 96.806 -6.720000000000001ZM108.44 -6.636V-22.722Q108.44 -24.948 107.11699999999999 -26.355Q105.794 -27.762 103.694 -27.762Q101.636 -27.762 100.334 -26.355Q99.032 -24.948 99.032 -22.722V-6.636Q99.032 -4.41 100.334 -3.024Q101.636 -1.6380000000000001 103.694 -1.6380000000000001Q105.794 -1.6380000000000001 107.11699999999999 -3.024Q108.44 -4.41 108.44 -6.636Z M113.748 -6.720000000000001V-22.638Q113.748 -25.830000000000002 115.638 -27.783Q117.528 -29.736 120.63600000000001 -29.736Q123.74400000000001 -29.736 125.67600000000002 -27.783Q127.608 -25.830000000000002 127.608 -22.638V-6.720000000000001Q127.608 -3.5700000000000003 125.67600000000002 -1.6170000000000002Q123.74400000000001 0.336 120.63600000000001 0.336Q117.57000000000001 0.336 115.659 -1.6170000000000002Q113.748 -3.5700000000000003 113.748 -6.720000000000001ZM125.382 -6.636V-22.722Q125.382 -24.948 124.059 -26.355Q122.736 -27.762 120.63600000000001 -27.762Q118.578 -27.762 117.27600000000001 -26.355Q115.974 -24.948 115.974 -22.722V-6.636Q115.974 -4.41 117.27600000000001 -3.024Q118.578 -1.6380000000000001 120.63600000000001 -1.6380000000000001Q122.736 -1.6380000000000001 124.059 -3.024Q125.382 -4.41 125.382 -6.636Z M142.786 -0.336 138.16600000000003 -13.65Q138.12400000000002 -13.776000000000002 137.99800000000002 -13.776000000000002H133.84Q133.67200000000003 -13.776000000000002 133.67200000000003 -13.608V-0.42000000000000004Q133.67200000000003 0.0 133.252 0.0H131.866Q131.44600000000003 0.0 131.44600000000003 -0.42000000000000004V-28.98Q131.44600000000003 -29.400000000000002 131.866 -29.400000000000002H138.376Q141.316 -29.400000000000002 143.122 -27.216Q144.92800000000003 -25.032 144.92800000000003 -21.504Q144.92800000000003 -18.69 143.71000000000004 -16.716Q142.49200000000002 -14.742 140.39200000000002 -14.028Q140.22400000000002 -13.986 140.26600000000002 -13.818000000000001L145.012 -0.462L145.05400000000003 -0.29400000000000004Q145.05400000000003 0.0 144.67600000000002 0.0H143.29000000000002Q142.912 0.0 142.786 -0.336ZM133.67200000000003 -27.258000000000003V-15.792000000000002Q133.67200000000003 -15.624 133.84 -15.624H138.12400000000002Q140.18200000000002 -15.624 141.442 -17.241Q142.70200000000003 -18.858 142.70200000000003 -21.504Q142.70200000000003 -24.192 141.442 -25.809Q140.18200000000002 -27.426000000000002 138.12400000000002 -27.426000000000002H133.84Q133.67200000000003 -27.426000000000002 133.67200000000003 -27.258000000000003Z" fill="#F0EBE2"/>
  </g>
  <circle cx="1118.01" cy="47.00" r="4" fill="#E07020"/>
  <g transform="translate(1127.01, 60)">
    <path d="M21.924000000000003 -13.524000000000001V-7.644Q21.924000000000003 -7.3500000000000005 21.756 -7.182Q21.588 -7.014 21.294 -7.014H20.034000000000002Q19.782 -7.014 19.782 -6.7620000000000005V-0.63Q19.782 -0.336 19.614 -0.168Q19.446 0.0 19.152 0.0H12.516Q12.222000000000001 0.0 12.054000000000002 -0.168Q11.886000000000001 -0.336 11.886000000000001 -0.63V-6.7620000000000005Q11.886000000000001 -7.014 11.634 -7.014H0.9660000000000001Q0.672 -7.014 0.504 -7.182Q0.336 -7.3500000000000005 0.336 -7.644V-12.306000000000001Q0.336 -12.684000000000001 0.462 -13.062000000000001L5.5440000000000005 -28.896Q5.712000000000001 -29.400000000000002 6.258 -29.400000000000002H13.356000000000002Q13.692 -29.400000000000002 13.839 -29.211000000000002Q13.986 -29.022000000000002 13.902000000000001 -28.686000000000003L9.576 -14.448Q9.534 -14.154000000000002 9.786000000000001 -14.154000000000002H11.634Q11.886000000000001 -14.154000000000002 11.886000000000001 -14.406V-17.262Q11.886000000000001 -17.556 12.054000000000002 -17.724Q12.222000000000001 -17.892 12.516 -17.892H19.152Q19.446 -17.892 19.614 -17.724Q19.782 -17.556 19.782 -17.262V-14.406Q19.782 -14.154000000000002 20.034000000000002 -14.154000000000002H21.294Q21.588 -14.154000000000002 21.756 -13.986Q21.924000000000003 -13.818000000000001 21.924000000000003 -13.524000000000001Z M24.628 -29.400000000000002H31.516000000000002Q31.810000000000002 -29.400000000000002 31.978 -29.232Q32.146 -29.064 32.146 -28.770000000000003V-0.63Q32.146 -0.336 31.978 -0.168Q31.810000000000002 0.0 31.516000000000002 0.0H24.880000000000003Q24.586000000000002 0.0 24.418 -0.168Q24.25 -0.336 24.25 -0.63V-21.966Q24.25 -22.218 23.998 -22.218H21.226000000000003Q20.932000000000002 -22.218 20.764000000000003 -22.386000000000003Q20.596 -22.554000000000002 20.596 -22.848000000000003V-27.720000000000002Q20.596 -28.266000000000002 21.1 -28.434L23.872 -29.274Q24.25 -29.400000000000002 24.628 -29.400000000000002Z" fill="#E07020"/>
  </g>

</svg>
