<?xml version="1.0" encoding="UTF-8"?>
<svg xmlns="http://www.w3.org/2000/svg" viewBox="0 0 1200 300" width="1200" height="300" preserveAspectRatio="xMidYMid meet">
  <title>Transition Brain+Buzz -> GAMEDOOR.41</title>
  <rect width="1200" height="300" fill="#0C0800"/>

  <!-- Watermark 41 -->
  <g transform="translate(954.76, 330.00)" opacity="0.05">
    <path d="M146.16000000000003 -90.16000000000001V-50.96000000000001Q146.16000000000003 -49.00000000000001 145.04000000000002 -47.88000000000001Q143.92000000000002 -46.760000000000005 141.96 -46.760000000000005H133.56Q131.88000000000002 -46.760000000000005 131.88000000000002 -45.080000000000005V-4.2Q131.88000000000002 -2.24 130.76000000000002 -1.12Q129.64000000000001 0.0 127.68 0.0H83.44000000000001Q81.48 0.0 80.36000000000001 -1.12Q79.24000000000001 -2.24 79.24000000000001 -4.2V-45.080000000000005Q79.24000000000001 -46.760000000000005 77.56 -46.760000000000005H6.44Q4.48 -46.760000000000005 3.3600000000000003 -47.88000000000001Q2.24 -49.00000000000001 2.24 -50.96000000000001V-82.04Q2.24 -84.56 3.08 -87.08000000000001L36.96 -192.64000000000001Q38.080000000000005 -196.00000000000003 41.720000000000006 -196.00000000000003H89.04Q91.28000000000002 -196.00000000000003 92.26000000000002 -194.74Q93.24000000000001 -193.48000000000002 92.68 -191.24L63.84 -96.32000000000001Q63.56000000000001 -94.36000000000001 65.24000000000001 -94.36000000000001H77.56Q79.24000000000001 -94.36000000000001 79.24000000000001 -96.04V-115.08000000000001Q79.24000000000001 -117.04 80.36000000000001 -118.16000000000001Q81.48 -119.28000000000002 83.44000000000001 -119.28000000000002H127.68Q129.64000000000001 -119.28000000000002 130.76000000000002 -118.16000000000001Q131.88000000000002 -117.04 131.88000000000002 -115.08000000000001V-96.04Q131.88000000000002 -94.36000000000001 133.56 -94.36000000000001H141.96Q143.92000000000002 -94.36000000000001 145.04000000000002 -93.24000000000001Q146.16000000000003 -92.12 146.16000000000003 -90.16000000000001Z M169.52 -196.00000000000003H215.44Q217.40000000000003 -196.00000000000003 218.52000000000004 -194.88000000000002Q219.64000000000001 -193.76000000000002 219.64000000000001 -191.8V-4.2Q219.64000000000001 -2.24 218.52000000000004 -1.12Q217.40000000000003 0.0 215.44 0.0H171.20000000000002Q169.24 0.0 168.12 -1.12Q167.0 -2.24 167.0 -4.2V-146.44000000000003Q167.0 -148.12 165.32 -148.12H146.84Q144.88 -148.12 143.76 -149.24Q142.64000000000001 -150.36 142.64000000000001 -152.32000000000002V-184.8Q142.64000000000001 -188.44000000000003 146.0 -189.56000000000003L164.48000000000002 -195.16000000000003Q167.0 -196.00000000000003 169.52 -196.00000000000003Z" fill="#E07020"/>
  </g>

  <g transform="translate(370.16, 85.00)">
    <path d="M5.258 0.0H1.5839999999999999Q1.3639999999999999 0.0 1.3639999999999999 -0.21999999999999997V-15.18Q1.3639999999999999 -15.399999999999999 1.5839999999999999 -15.399999999999999H4.949999999999999Q6.952 -15.399999999999999 8.085 -14.354999999999999Q9.218 -13.309999999999999 9.218 -11.308Q9.218 -8.931999999999999 7.523999999999999 -8.03Q7.414 -7.9639999999999995 7.502 -7.92Q8.382 -7.3919999999999995 8.876999999999999 -6.446Q9.372 -5.5 9.372 -4.202Q9.372 -2.1999999999999997 8.239 -1.0999999999999999Q7.106 0.0 5.258 0.0ZM3.476 -13.485999999999999V-8.822Q3.476 -8.734 3.5639999999999996 -8.734H4.9719999999999995Q6.005999999999999 -8.734 6.577999999999999 -9.361Q7.1499999999999995 -9.988 7.1499999999999995 -11.11Q7.1499999999999995 -12.276 6.577999999999999 -12.925Q6.005999999999999 -13.574 4.9719999999999995 -13.574H3.5639999999999996Q3.476 -13.574 3.476 -13.485999999999999ZM7.26 -4.465999999999999Q7.26 -5.742 6.688 -6.457Q6.116 -7.172 5.104 -7.172H3.5639999999999996Q3.476 -7.172 3.476 -7.084V-1.936Q3.476 -1.8479999999999999 3.5639999999999996 -1.8479999999999999H5.082Q6.093999999999999 -1.8479999999999999 6.677 -2.53Q7.26 -3.2119999999999997 7.26 -4.465999999999999Z M21.247999999999998 -0.176 19.224 -6.731999999999999Q19.201999999999998 -6.798 19.136 -6.798H17.596Q17.508 -6.798 17.508 -6.71V-0.21999999999999997Q17.508 0.0 17.288 0.0H15.616Q15.396 0.0 15.396 -0.21999999999999997V-15.18Q15.396 -15.399999999999999 15.616 -15.399999999999999H19.554Q20.676 -15.399999999999999 21.534 -14.849999999999998Q22.392 -14.299999999999999 22.865000000000002 -13.299Q23.338 -12.298 23.338 -11.022Q23.338 -9.636 22.766 -8.613Q22.194 -7.59 21.204 -7.127999999999999Q21.137999999999998 -7.061999999999999 21.16 -6.9959999999999996L23.404 -0.242L23.426000000000002 -0.154Q23.426000000000002 0.0 23.228 0.0H21.512Q21.314 0.0 21.247999999999998 -0.176ZM17.508 -13.485999999999999V-8.558Q17.508 -8.469999999999999 17.596 -8.469999999999999H19.224Q20.125999999999998 -8.469999999999999 20.676 -9.163Q21.226 -9.856 21.226 -11.0Q21.226 -12.187999999999999 20.676 -12.881Q20.125999999999998 -13.574 19.224 -13.574H17.596Q17.508 -13.574 17.508 -13.485999999999999Z M35.147999999999996 -0.19799999999999998 34.663999999999994 -2.7279999999999998Q34.663999999999994 -2.772 34.631 -2.7939999999999996Q34.598 -2.816 34.553999999999995 -2.816H30.967999999999996Q30.923999999999996 -2.816 30.891 -2.7939999999999996Q30.857999999999997 -2.772 30.857999999999997 -2.7279999999999998L30.395999999999997 -0.19799999999999998Q30.374 0.0 30.153999999999996 0.0H28.482Q28.371999999999996 0.0 28.316999999999997 -0.066Q28.261999999999997 -0.132 28.284 -0.242L31.561999999999998 -15.202Q31.605999999999998 -15.399999999999999 31.804 -15.399999999999999H33.762Q33.982 -15.399999999999999 34.004 -15.202L37.303999999999995 -0.242V-0.19799999999999998Q37.303999999999995 0.0 37.105999999999995 0.0H35.39Q35.192 0.0 35.147999999999996 -0.19799999999999998ZM31.298 -4.4879999999999995H34.224Q34.29 -4.4879999999999995 34.29 -4.576L32.794 -12.386Q32.772 -12.43 32.75 -12.43Q32.727999999999994 -12.43 32.705999999999996 -12.386L31.232 -4.576Q31.232 -4.4879999999999995 31.298 -4.4879999999999995Z M42.95399999999999 -0.21999999999999997V-15.18Q42.95399999999999 -15.399999999999999 43.174 -15.399999999999999H44.846Q45.065999999999995 -15.399999999999999 45.065999999999995 -15.18V-0.21999999999999997Q45.065999999999995 0.0 44.846 0.0H43.174Q42.95399999999999 0.0 42.95399999999999 -0.21999999999999997Z M58.21799999999999 -15.399999999999999H59.867999999999995Q60.087999999999994 -15.399999999999999 60.087999999999994 -15.18V-0.21999999999999997Q60.087999999999994 0.0 59.867999999999995 0.0H57.97599999999999Q57.79999999999999 0.0 57.733999999999995 -0.176L53.99399999999999 -10.229999999999999Q53.971999999999994 -10.274 53.928 -10.262999999999998Q53.88399999999999 -10.251999999999999 53.88399999999999 -10.208L53.90599999999999 -0.21999999999999997Q53.90599999999999 0.0 53.68599999999999 0.0H52.013999999999996Q51.79399999999999 0.0 51.79399999999999 -0.21999999999999997V-15.18Q51.79399999999999 -15.399999999999999 52.013999999999996 -15.399999999999999H53.88399999999999Q54.059999999999995 -15.399999999999999 54.12599999999999 -15.223999999999998L57.88799999999999 -5.17Q57.90999999999999 -5.104 57.95399999999999 -5.115Q57.99799999999999 -5.1259999999999994 57.99799999999999 -5.191999999999999V-15.18Q57.99799999999999 -15.399999999999999 58.21799999999999 -15.399999999999999Z M82.366 -13.574H77.416Q77.328 -13.574 77.328 -13.485999999999999V-8.712Q77.328 -8.623999999999999 77.416 -8.623999999999999H80.452Q80.672 -8.623999999999999 80.672 -8.404V-7.018Q80.672 -6.798 80.452 -6.798H77.416Q77.328 -6.798 77.328 -6.71V-1.914Q77.328 -1.8259999999999998 77.416 -1.8259999999999998H82.366Q82.586 -1.8259999999999998 82.586 -1.6059999999999999V-0.21999999999999997Q82.586 0.0 82.366 0.0H75.436Q75.21600000000001 0.0 75.21600000000001 -0.21999999999999997V-15.18Q75.21600000000001 -15.399999999999999 75.436 -15.399999999999999H82.366Q82.586 -15.399999999999999 82.586 -15.18V-13.793999999999999Q82.586 -13.574 82.366 -13.574Z M88.19200000000001 -3.7619999999999996V-4.334Q88.19200000000001 -4.553999999999999 88.412 -4.553999999999999H90.04Q90.26 -4.553999999999999 90.26 -4.334V-3.872Q90.26 -2.86 90.766 -2.255Q91.272 -1.65 92.06400000000001 -1.65Q92.85600000000001 -1.65 93.37300000000002 -2.2329999999999997Q93.89000000000001 -2.816 93.89000000000001 -3.7619999999999996Q93.89000000000001 -4.3999999999999995 93.61500000000001 -4.8839999999999995Q93.34 -5.367999999999999 92.88900000000001 -5.753Q92.438 -6.138 91.426 -6.885999999999999Q90.304 -7.7219999999999995 89.666 -8.315999999999999Q89.028 -8.91 88.58800000000001 -9.745999999999999Q88.14800000000001 -10.581999999999999 88.14800000000001 -11.703999999999999Q88.14800000000001 -13.485999999999999 89.20400000000001 -14.530999999999999Q90.26 -15.575999999999999 91.95400000000001 -15.575999999999999Q93.71400000000001 -15.575999999999999 94.781 -14.453999999999999Q95.84800000000001 -13.331999999999999 95.84800000000001 -11.505999999999998V-10.956Q95.84800000000001 -10.735999999999999 95.62800000000001 -10.735999999999999H94.00000000000001Q93.78 -10.735999999999999 93.78 -10.956V-11.549999999999999Q93.78 -12.54 93.274 -13.145Q92.76800000000001 -13.75 91.95400000000001 -13.75Q91.18400000000001 -13.75 90.70000000000002 -13.210999999999999Q90.21600000000001 -12.671999999999999 90.21600000000001 -11.703999999999999Q90.21600000000001 -10.824 90.70000000000002 -10.219Q91.18400000000001 -9.613999999999999 92.57000000000001 -8.602Q93.89000000000001 -7.611999999999999 94.561 -6.9959999999999996Q95.23200000000001 -6.38 95.59500000000001 -5.643Q95.95800000000001 -4.906 95.95800000000001 -3.8939999999999997Q95.95800000000001 -2.046 94.88000000000001 -0.9349999999999999Q93.802 0.176 92.06400000000001 0.176Q90.32600000000001 0.176 89.25900000000001 -0.9129999999999999Q88.19200000000001 -2.002 88.19200000000001 -3.7619999999999996Z M101.784 -3.8059999999999996V-11.616Q101.784 -13.42 102.873 -14.498Q103.962 -15.575999999999999 105.74400000000001 -15.575999999999999Q107.548 -15.575999999999999 108.637 -14.498Q109.72600000000001 -13.42 109.72600000000001 -11.616V-11.264Q109.72600000000001 -11.043999999999999 109.506 -11.043999999999999L107.834 -10.956Q107.614 -10.956 107.614 -11.176V-11.748Q107.614 -12.649999999999999 107.09700000000001 -13.2Q106.58000000000001 -13.75 105.74400000000001 -13.75Q104.90800000000002 -13.75 104.40200000000002 -13.2Q103.89600000000002 -12.649999999999999 103.89600000000002 -11.748V-3.6519999999999997Q103.89600000000002 -2.75 104.40200000000002 -2.2Q104.90800000000002 -1.65 105.74400000000001 -1.65Q106.58000000000001 -1.65 107.09700000000001 -2.2Q107.614 -2.75 107.614 -3.6519999999999997V-4.224Q107.614 -4.444 107.834 -4.444L109.506 -4.356Q109.72600000000001 -4.356 109.72600000000001 -4.136V-3.8059999999999996Q109.72600000000001 -2.002 108.637 -0.9129999999999999Q107.548 0.176 105.74400000000001 0.176Q103.962 0.176 102.873 -0.9129999999999999Q101.784 -2.002 101.784 -3.8059999999999996Z M121.82200000000002 -0.19799999999999998 121.33800000000001 -2.7279999999999998Q121.33800000000001 -2.772 121.305 -2.7939999999999996Q121.272 -2.816 121.22800000000001 -2.816H117.64200000000001Q117.59800000000001 -2.816 117.56500000000001 -2.7939999999999996Q117.53200000000001 -2.772 117.53200000000001 -2.7279999999999998L117.07000000000001 -0.19799999999999998Q117.04800000000002 0.0 116.82800000000002 0.0H115.156Q115.046 0.0 114.99100000000001 -0.066Q114.936 -0.132 114.95800000000001 -0.242L118.236 -15.202Q118.28000000000002 -15.399999999999999 118.47800000000001 -15.399999999999999H120.436Q120.656 -15.399999999999999 120.67800000000001 -15.202L123.97800000000001 -0.242V-0.19799999999999998Q123.97800000000001 0.0 123.78000000000002 0.0H122.06400000000001Q121.86600000000001 0.0 121.82200000000002 -0.19799999999999998ZM117.97200000000001 -4.4879999999999995H120.89800000000001Q120.96400000000001 -4.4879999999999995 120.96400000000001 -4.576L119.46800000000002 -12.386Q119.44600000000001 -12.43 119.424 -12.43Q119.40200000000002 -12.43 119.38000000000001 -12.386L117.906 -4.576Q117.906 -4.4879999999999995 117.97200000000001 -4.4879999999999995Z M137.548 -11.0Q137.548 -9.064 136.536 -7.8759999999999994Q135.524 -6.688 133.87400000000002 -6.688H131.806Q131.71800000000002 -6.688 131.71800000000002 -6.6V-0.21999999999999997Q131.71800000000002 0.0 131.49800000000002 0.0H129.82600000000002Q129.60600000000002 0.0 129.60600000000002 -0.21999999999999997V-15.202Q129.60600000000002 -15.421999999999999 129.82600000000002 -15.421999999999999H133.764Q135.458 -15.421999999999999 136.503 -14.200999999999999Q137.548 -12.979999999999999 137.548 -11.0ZM135.436 -10.956Q135.436 -12.165999999999999 134.88600000000002 -12.881Q134.336 -13.596 133.434 -13.596H131.806Q131.71800000000002 -13.596 131.71800000000002 -13.508V-8.469999999999999Q131.71800000000002 -8.382 131.806 -8.382H133.434Q134.336 -8.382 134.88600000000002 -9.075Q135.436 -9.767999999999999 135.436 -10.956Z M150.70000000000002 -13.574H145.75Q145.662 -13.574 145.662 -13.485999999999999V-8.712Q145.662 -8.623999999999999 145.75 -8.623999999999999H148.786Q149.006 -8.623999999999999 149.006 -8.404V-7.018Q149.006 -6.798 148.786 -6.798H145.75Q145.662 -6.798 145.662 -6.71V-1.914Q145.662 -1.8259999999999998 145.75 -1.8259999999999998H150.70000000000002Q150.92000000000002 -1.8259999999999998 150.92000000000002 -1.6059999999999999V-0.21999999999999997Q150.92000000000002 0.0 150.70000000000002 0.0H143.77Q143.55 0.0 143.55 -0.21999999999999997V-15.18Q143.55 -15.399999999999999 143.77 -15.399999999999999H150.70000000000002Q150.92000000000002 -15.399999999999999 150.92000000000002 -15.18V-13.793999999999999Q150.92000000000002 -13.574 150.70000000000002 -13.574Z M165.14600000000002 -3.674V-11.725999999999999Q165.14600000000002 -13.463999999999999 166.235 -14.52Q167.324 -15.575999999999999 169.106 -15.575999999999999Q170.888 -15.575999999999999 171.988 -14.52Q173.088 -13.463999999999999 173.088 -11.703999999999999V-10.78Q173.088 -10.559999999999999 172.868 -10.559999999999999H171.196Q170.976 -10.559999999999999 170.976 -10.78V-11.748Q170.976 -12.649999999999999 170.459 -13.2Q169.942 -13.75 169.106 -13.75Q168.27 -13.75 167.753 -13.2Q167.236 -12.649999999999999 167.236 -11.748V-3.6519999999999997Q167.236 -2.75 167.753 -2.2Q168.27 -1.65 169.106 -1.65Q169.942 -1.65 170.459 -2.2Q170.976 -2.75 170.976 -3.6519999999999997V-6.072Q170.976 -6.159999999999999 170.888 -6.159999999999999H169.216Q168.996 -6.159999999999999 168.996 -6.38V-7.744Q168.996 -7.9639999999999995 169.216 -7.9639999999999995H172.868Q173.088 -7.9639999999999995 173.088 -7.744V-3.674Q173.088 -1.936 171.988 -0.88Q170.888 0.176 169.106 0.176Q167.324 0.176 166.235 -0.88Q165.14600000000002 -1.936 165.14600000000002 -3.674Z M185.294 -0.19799999999999998 184.81 -2.7279999999999998Q184.81 -2.772 184.777 -2.7939999999999996Q184.744 -2.816 184.70000000000002 -2.816H181.114Q181.07 -2.816 181.037 -2.7939999999999996Q181.00400000000002 -2.772 181.00400000000002 -2.7279999999999998L180.542 -0.19799999999999998Q180.52 0.0 180.3 0.0H178.62800000000001Q178.518 0.0 178.46300000000002 -0.066Q178.40800000000002 -0.132 178.43 -0.242L181.708 -15.202Q181.752 -15.399999999999999 181.95000000000002 -15.399999999999999H183.90800000000002Q184.12800000000001 -15.399999999999999 184.15 -15.202L187.45000000000002 -0.242V-0.19799999999999998Q187.45000000000002 0.0 187.252 0.0H185.536Q185.338 0.0 185.294 -0.19799999999999998ZM181.44400000000002 -4.4879999999999995H184.37Q184.436 -4.4879999999999995 184.436 -4.576L182.94 -12.386Q182.918 -12.43 182.89600000000002 -12.43Q182.874 -12.43 182.852 -12.386L181.37800000000001 -4.576Q181.37800000000001 -4.4879999999999995 181.44400000000002 -4.4879999999999995Z M200.206 -15.399999999999999H201.878Q202.09799999999998 -15.399999999999999 202.09799999999998 -15.18V-0.21999999999999997Q202.09799999999998 0.0 201.878 0.0H200.206Q199.986 0.0 199.986 -0.21999999999999997V-11.132Q199.986 -11.197999999999999 199.95299999999997 -11.197999999999999Q199.92 -11.197999999999999 199.87599999999998 -11.154L197.76399999999998 -7.215999999999999Q197.69799999999998 -7.061999999999999 197.566 -7.061999999999999Q197.434 -7.061999999999999 197.368 -7.215999999999999L195.278 -11.132Q195.23399999999998 -11.176 195.20099999999996 -11.176Q195.16799999999998 -11.176 195.16799999999998 -11.11V-0.21999999999999997Q195.16799999999998 0.0 194.94799999999998 0.0H193.27599999999998Q193.05599999999998 0.0 193.05599999999998 -0.21999999999999997V-15.18Q193.05599999999998 -15.399999999999999 193.27599999999998 -15.399999999999999H194.94799999999998Q195.10199999999998 -15.399999999999999 195.212 -15.245999999999999L197.522 -11.11Q197.54399999999998 -11.088 197.58799999999997 -11.088Q197.63199999999998 -11.088 197.654 -11.11L199.94199999999998 -15.245999999999999Q200.03 -15.399999999999999 200.206 -15.399999999999999Z M215.91 -13.574H210.95999999999998Q210.87199999999999 -13.574 210.87199999999999 -13.485999999999999V-8.712Q210.87199999999999 -8.623999999999999 210.95999999999998 -8.623999999999999H213.99599999999998Q214.21599999999998 -8.623999999999999 214.21599999999998 -8.404V-7.018Q214.21599999999998 -6.798 213.99599999999998 -6.798H210.95999999999998Q210.87199999999999 -6.798 210.87199999999999 -6.71V-1.914Q210.87199999999999 -1.8259999999999998 210.95999999999998 -1.8259999999999998H215.91Q216.13 -1.8259999999999998 216.13 -1.6059999999999999V-0.21999999999999997Q216.13 0.0 215.91 0.0H208.98Q208.76 0.0 208.76 -0.21999999999999997V-15.18Q208.76 -15.399999999999999 208.98 -15.399999999999999H215.91Q216.13 -15.399999999999999 216.13 -15.18V-13.793999999999999Q216.13 -13.574 215.91 -13.574Z M249.184 -0.132Q249.184 -0.088 249.14 -0.044Q249.09599999999998 0.0 249.00799999999998 0.0H247.20399999999998Q247.04999999999998 0.0 246.91799999999998 -0.132L246.17 -1.21Q246.10399999999998 -1.276 246.03799999999998 -1.21Q245.224 -0.484 244.33299999999997 -0.14300000000000002Q243.44199999999998 0.19799999999999998 242.386 0.19799999999999998Q240.582 0.19799999999999998 239.53699999999998 -0.759Q238.492 -1.716 238.492 -3.5199999999999996Q238.492 -5.016 239.17399999999998 -6.061Q239.856 -7.106 241.04399999999998 -8.052Q241.10999999999999 -8.074 241.06599999999997 -8.161999999999999Q240.296 -9.261999999999999 239.933 -9.889Q239.57 -10.516 239.44899999999998 -10.966999999999999Q239.32799999999997 -11.418 239.32799999999997 -11.989999999999998Q239.32799999999997 -13.617999999999999 240.296 -14.596999999999998Q241.26399999999998 -15.575999999999999 242.826 -15.575999999999999Q244.41 -15.575999999999999 245.422 -14.585999999999999Q246.434 -13.596 246.434 -11.968Q246.434 -10.626 245.74099999999999 -9.646999999999998Q245.048 -8.668 243.81599999999997 -7.699999999999999Q243.75 -7.678 243.79399999999998 -7.59L244.85 -6.093999999999999L246.12599999999998 -4.356Q246.17 -4.268 246.25799999999998 -4.356Q246.32399999999998 -4.4879999999999995 246.5 -4.752Q247.028 -5.632 247.29199999999997 -6.116Q247.33599999999998 -6.204 247.42399999999998 -6.225999999999999Q247.512 -6.247999999999999 247.6 -6.204L248.832 -5.5Q249.00799999999998 -5.39 248.92 -5.191999999999999Q248.26 -3.96 247.402 -2.75Q247.38 -2.6839999999999997 247.402 -2.618L249.14 -0.264Q249.184 -0.21999999999999997 249.184 -0.132ZM241.44 -11.924Q241.44 -11.373999999999999 241.63799999999998 -10.901Q241.83599999999998 -10.427999999999999 242.54 -9.35Q242.606 -9.261999999999999 242.672 -9.328Q243.486 -10.01 243.904 -10.614999999999998Q244.322 -11.219999999999999 244.322 -11.968Q244.322 -12.716 243.926 -13.189Q243.53 -13.661999999999999 242.892 -13.661999999999999Q242.254 -13.661999999999999 241.84699999999998 -13.189Q241.44 -12.716 241.44 -11.924ZM244.916 -2.75Q244.982 -2.816 244.938 -2.8819999999999997L242.32 -6.4239999999999995Q242.27599999999998 -6.489999999999999 242.20999999999998 -6.4239999999999995Q241.44 -5.742 241.022 -5.093Q240.60399999999998 -4.444 240.60399999999998 -3.6519999999999997Q240.60399999999998 -2.75 241.12099999999998 -2.189Q241.63799999999998 -1.628 242.606 -1.628Q243.75 -1.628 244.916 -2.75Z M276.16599999999994 0.0H272.49199999999996Q272.27199999999993 0.0 272.27199999999993 -0.21999999999999997V-15.18Q272.27199999999993 -15.399999999999999 272.49199999999996 -15.399999999999999H275.85799999999995Q277.85999999999996 -15.399999999999999 278.99299999999994 -14.354999999999999Q280.126 -13.309999999999999 280.126 -11.308Q280.126 -8.931999999999999 278.43199999999996 -8.03Q278.32199999999995 -7.9639999999999995 278.40999999999997 -7.92Q279.28999999999996 -7.3919999999999995 279.78499999999997 -6.446Q280.28 -5.5 280.28 -4.202Q280.28 -2.1999999999999997 279.14699999999993 -1.0999999999999999Q278.01399999999995 0.0 276.16599999999994 0.0ZM274.38399999999996 -13.485999999999999V-8.822Q274.38399999999996 -8.734 274.472 -8.734H275.87999999999994Q276.91399999999993 -8.734 277.48599999999993 -9.361Q278.05799999999994 -9.988 278.05799999999994 -11.11Q278.05799999999994 -12.276 277.48599999999993 -12.925Q276.91399999999993 -13.574 275.87999999999994 -13.574H274.472Q274.38399999999996 -13.574 274.38399999999996 -13.485999999999999ZM278.16799999999995 -4.465999999999999Q278.16799999999995 -5.742 277.59599999999995 -6.457Q277.02399999999994 -7.172 276.01199999999994 -7.172H274.472Q274.38399999999996 -7.172 274.38399999999996 -7.084V-1.936Q274.38399999999996 -1.8479999999999999 274.472 -1.8479999999999999H275.98999999999995Q277.00199999999995 -1.8479999999999999 277.5849999999999 -2.53Q278.16799999999995 -3.2119999999999997 278.16799999999995 -4.465999999999999Z M286.19399999999996 -4.18V-15.18Q286.19399999999996 -15.399999999999999 286.41399999999993 -15.399999999999999H288.08599999999996Q288.3059999999999 -15.399999999999999 288.3059999999999 -15.18V-3.96Q288.3059999999999 -2.9259999999999997 288.8229999999999 -2.288Q289.3399999999999 -1.65 290.17599999999993 -1.65Q291.03399999999993 -1.65 291.55099999999993 -2.288Q292.0679999999999 -2.9259999999999997 292.0679999999999 -3.96V-15.18Q292.0679999999999 -15.399999999999999 292.28799999999995 -15.399999999999999H293.9599999999999Q294.17999999999995 -15.399999999999999 294.17999999999995 -15.18V-4.18Q294.17999999999995 -2.222 293.0799999999999 -1.023Q291.97999999999996 0.176 290.17599999999993 0.176Q288.37199999999996 0.176 287.28299999999996 -1.023Q286.19399999999996 -2.222 286.19399999999996 -4.18Z M300.07199999999995 -0.21999999999999997V-1.694Q300.07199999999995 -1.8039999999999998 300.138 -1.958L305.24199999999996 -13.463999999999999Q305.26399999999995 -13.508 305.24199999999996 -13.541Q305.21999999999997 -13.574 305.176 -13.574H300.292Q300.07199999999995 -13.574 300.07199999999995 -13.793999999999999V-15.18Q300.07199999999995 -15.399999999999999 300.292 -15.399999999999999H307.30999999999995Q307.53 -15.399999999999999 307.53 -15.18V-13.706Q307.53 -13.617999999999999 307.46399999999994 -13.441999999999998L302.33799999999997 -1.936Q302.316 -1.892 302.33799999999997 -1.859Q302.35999999999996 -1.8259999999999998 302.404 -1.8259999999999998H307.30999999999995Q307.53 -1.8259999999999998 307.53 -1.6059999999999999V-0.21999999999999997Q307.53 0.0 307.30999999999995 0.0H300.292Q300.07199999999995 0.0 300.07199999999995 -0.21999999999999997Z M312.89399999999995 -0.21999999999999997V-1.694Q312.89399999999995 -1.8039999999999998 312.96 -1.958L318.06399999999996 -13.463999999999999Q318.08599999999996 -13.508 318.06399999999996 -13.541Q318.042 -13.574 317.998 -13.574H313.114Q312.89399999999995 -13.574 312.89399999999995 -13.793999999999999V-15.18Q312.89399999999995 -15.399999999999999 313.114 -15.399999999999999H320.13199999999995Q320.352 -15.399999999999999 320.352 -15.18V-13.706Q320.352 -13.617999999999999 320.28599999999994 -13.441999999999998L315.15999999999997 -1.936Q315.138 -1.892 315.15999999999997 -1.859Q315.18199999999996 -1.8259999999999998 315.226 -1.8259999999999998H320.13199999999995Q320.352 -1.8259999999999998 320.352 -1.6059999999999999V-0.21999999999999997Q320.352 0.0 320.13199999999995 0.0H313.114Q312.89399999999995 0.0 312.89399999999995 -0.21999999999999997Z M337.28399999999993 -0.242V-6.534L337.26199999999994 -6.643999999999999L334.20399999999995 -15.158L334.18199999999996 -15.245999999999999Q334.18199999999996 -15.399999999999999 334.37999999999994 -15.399999999999999H336.13999999999993Q336.33799999999997 -15.399999999999999 336.40399999999994 -15.223999999999998L338.27399999999994 -9.152Q338.29599999999994 -9.107999999999999 338.3399999999999 -9.107999999999999Q338.38399999999996 -9.107999999999999 338.40599999999995 -9.152L340.27599999999995 -15.223999999999998Q340.3419999999999 -15.399999999999999 340.53999999999996 -15.399999999999999H342.29999999999995Q342.542 -15.399999999999999 342.47599999999994 -15.158L339.41799999999995 -6.643999999999999L339.39599999999996 -6.534V-0.242Q339.39599999999996 -0.022 339.17599999999993 -0.022H337.50399999999996Q337.28399999999993 -0.022 337.28399999999993 -0.242Z M348.2579999999999 -3.8499999999999996V-11.527999999999999Q348.2579999999999 -13.354 349.35799999999995 -14.465Q350.4579999999999 -15.575999999999999 352.26199999999994 -15.575999999999999Q354.08799999999997 -15.575999999999999 355.19899999999996 -14.465Q356.30999999999995 -13.354 356.30999999999995 -11.527999999999999V-3.8499999999999996Q356.30999999999995 -2.024 355.19899999999996 -0.924Q354.08799999999997 0.176 352.26199999999994 0.176Q350.4579999999999 0.176 349.35799999999995 -0.924Q348.2579999999999 -2.024 348.2579999999999 -3.8499999999999996ZM354.1979999999999 -3.7619999999999996V-11.638Q354.1979999999999 -12.584 353.66999999999996 -13.167Q353.14199999999994 -13.75 352.26199999999994 -13.75Q351.40399999999994 -13.75 350.88699999999994 -13.167Q350.36999999999995 -12.584 350.36999999999995 -11.638V-3.7619999999999996Q350.36999999999995 -2.816 350.88699999999994 -2.2329999999999997Q351.40399999999994 -1.65 352.26199999999994 -1.65Q353.14199999999994 -1.65 353.66999999999996 -2.2329999999999997Q354.1979999999999 -2.816 354.1979999999999 -3.7619999999999996Z M362.61999999999995 -4.18V-15.18Q362.61999999999995 -15.399999999999999 362.8399999999999 -15.399999999999999H364.51199999999994Q364.7319999999999 -15.399999999999999 364.7319999999999 -15.18V-3.96Q364.7319999999999 -2.9259999999999997 365.2489999999999 -2.288Q365.7659999999999 -1.65 366.6019999999999 -1.65Q367.4599999999999 -1.65 367.9769999999999 -2.288Q368.4939999999999 -2.9259999999999997 368.4939999999999 -3.96V-15.18Q368.4939999999999 -15.399999999999999 368.71399999999994 -15.399999999999999H370.3859999999999Q370.60599999999994 -15.399999999999999 370.60599999999994 -15.18V-4.18Q370.60599999999994 -2.222 369.506 -1.023Q368.40599999999995 0.176 366.6019999999999 0.176Q364.79799999999994 0.176 363.70899999999995 -1.023Q362.61999999999995 -2.222 362.61999999999995 -4.18Z M383.0759999999999 -0.176 381.0519999999999 -6.731999999999999Q381.0299999999999 -6.798 380.9639999999999 -6.798H379.4239999999999Q379.3359999999999 -6.798 379.3359999999999 -6.71V-0.21999999999999997Q379.3359999999999 0.0 379.1159999999999 0.0H377.4439999999999Q377.2239999999999 0.0 377.2239999999999 -0.21999999999999997V-15.18Q377.2239999999999 -15.399999999999999 377.4439999999999 -15.399999999999999H381.3819999999999Q382.5039999999999 -15.399999999999999 383.3619999999999 -14.849999999999998Q384.2199999999999 -14.299999999999999 384.69299999999987 -13.299Q385.1659999999999 -12.298 385.1659999999999 -11.022Q385.1659999999999 -9.636 384.5939999999999 -8.613Q384.0219999999999 -7.59 383.0319999999999 -7.127999999999999Q382.9659999999999 -7.061999999999999 382.9879999999999 -6.9959999999999996L385.2319999999999 -0.242L385.2539999999999 -0.154Q385.2539999999999 0.0 385.0559999999999 0.0H383.3399999999999Q383.1419999999999 0.0 383.0759999999999 -0.176ZM379.3359999999999 -13.485999999999999V-8.558Q379.3359999999999 -8.469999999999999 379.4239999999999 -8.469999999999999H381.0519999999999Q381.9539999999999 -8.469999999999999 382.5039999999999 -9.163Q383.0539999999999 -9.856 383.0539999999999 -11.0Q383.0539999999999 -12.187999999999999 382.5039999999999 -12.881Q381.9539999999999 -13.574 381.0519999999999 -13.574H379.4239999999999Q379.3359999999999 -13.574 379.3359999999999 -13.485999999999999Z M403.48399999999987 0.0H399.8099999999999Q399.58999999999986 0.0 399.58999999999986 -0.21999999999999997V-15.18Q399.58999999999986 -15.399999999999999 399.8099999999999 -15.399999999999999H403.1759999999999Q405.1779999999999 -15.399999999999999 406.3109999999999 -14.354999999999999Q407.4439999999999 -13.309999999999999 407.4439999999999 -11.308Q407.4439999999999 -8.931999999999999 405.7499999999999 -8.03Q405.6399999999999 -7.9639999999999995 405.7279999999999 -7.92Q406.6079999999999 -7.3919999999999995 407.1029999999999 -6.446Q407.5979999999999 -5.5 407.5979999999999 -4.202Q407.5979999999999 -2.1999999999999997 406.4649999999999 -1.0999999999999999Q405.3319999999999 0.0 403.48399999999987 0.0ZM401.7019999999999 -13.485999999999999V-8.822Q401.7019999999999 -8.734 401.7899999999999 -8.734H403.19799999999987Q404.23199999999986 -8.734 404.80399999999986 -9.361Q405.37599999999986 -9.988 405.37599999999986 -11.11Q405.37599999999986 -12.276 404.80399999999986 -12.925Q404.23199999999986 -13.574 403.19799999999987 -13.574H401.7899999999999Q401.7019999999999 -13.574 401.7019999999999 -13.485999999999999ZM405.4859999999999 -4.465999999999999Q405.4859999999999 -5.742 404.9139999999999 -6.457Q404.34199999999987 -7.172 403.32999999999987 -7.172H401.7899999999999Q401.7019999999999 -7.172 401.7019999999999 -7.084V-1.936Q401.7019999999999 -1.8479999999999999 401.7899999999999 -1.8479999999999999H403.3079999999999Q404.3199999999999 -1.8479999999999999 404.9029999999999 -2.53Q405.4859999999999 -3.2119999999999997 405.4859999999999 -4.465999999999999Z M419.4739999999999 -0.176 417.4499999999999 -6.731999999999999Q417.4279999999999 -6.798 417.36199999999985 -6.798H415.8219999999999Q415.73399999999987 -6.798 415.73399999999987 -6.71V-0.21999999999999997Q415.73399999999987 0.0 415.51399999999984 0.0H413.84199999999987Q413.62199999999984 0.0 413.62199999999984 -0.21999999999999997V-15.18Q413.62199999999984 -15.399999999999999 413.84199999999987 -15.399999999999999H417.77999999999986Q418.9019999999999 -15.399999999999999 419.7599999999999 -14.849999999999998Q420.6179999999999 -14.299999999999999 421.0909999999999 -13.299Q421.56399999999985 -12.298 421.56399999999985 -11.022Q421.56399999999985 -9.636 420.99199999999985 -8.613Q420.41999999999985 -7.59 419.4299999999999 -7.127999999999999Q419.36399999999986 -7.061999999999999 419.38599999999985 -6.9959999999999996L421.6299999999999 -0.242L421.6519999999999 -0.154Q421.6519999999999 0.0 421.4539999999999 0.0H419.7379999999999Q419.53999999999985 0.0 419.4739999999999 -0.176ZM415.73399999999987 -13.485999999999999V-8.558Q415.73399999999987 -8.469999999999999 415.8219999999999 -8.469999999999999H417.4499999999999Q418.35199999999986 -8.469999999999999 418.9019999999999 -9.163Q419.4519999999999 -9.856 419.4519999999999 -11.0Q419.4519999999999 -12.187999999999999 418.9019999999999 -12.881Q418.35199999999986 -13.574 417.4499999999999 -13.574H415.8219999999999Q415.73399999999987 -13.574 415.73399999999987 -13.485999999999999Z M433.37399999999985 -0.19799999999999998 432.8899999999999 -2.7279999999999998Q432.8899999999999 -2.772 432.85699999999986 -2.7939999999999996Q432.8239999999999 -2.816 432.77999999999986 -2.816H429.1939999999999Q429.14999999999986 -2.816 429.11699999999985 -2.7939999999999996Q429.0839999999999 -2.772 429.0839999999999 -2.7279999999999998L428.6219999999999 -0.19799999999999998Q428.59999999999985 0.0 428.3799999999999 0.0H426.70799999999986Q426.5979999999999 0.0 426.5429999999999 -0.066Q426.4879999999999 -0.132 426.5099999999999 -0.242L429.7879999999999 -15.202Q429.8319999999999 -15.399999999999999 430.02999999999986 -15.399999999999999H431.9879999999999Q432.20799999999986 -15.399999999999999 432.22999999999985 -15.202L435.52999999999986 -0.242V-0.19799999999999998Q435.52999999999986 0.0 435.3319999999999 0.0H433.6159999999999Q433.4179999999999 0.0 433.37399999999985 -0.19799999999999998ZM429.5239999999999 -4.4879999999999995H432.4499999999999Q432.51599999999985 -4.4879999999999995 432.51599999999985 -4.576L431.01999999999987 -12.386Q430.9979999999999 -12.43 430.9759999999999 -12.43Q430.9539999999999 -12.43 430.9319999999999 -12.386L429.45799999999986 -4.576Q429.45799999999986 -4.4879999999999995 429.5239999999999 -4.4879999999999995Z M441.17999999999984 -0.21999999999999997V-15.18Q441.17999999999984 -15.399999999999999 441.39999999999986 -15.399999999999999H443.07199999999983Q443.29199999999986 -15.399999999999999 443.29199999999986 -15.18V-0.21999999999999997Q443.29199999999986 0.0 443.07199999999983 0.0H441.39999999999986Q441.17999999999984 0.0 441.17999999999984 -0.21999999999999997Z M456.44399999999985 -15.399999999999999H458.0939999999998Q458.31399999999985 -15.399999999999999 458.31399999999985 -15.18V-0.21999999999999997Q458.31399999999985 0.0 458.0939999999998 0.0H456.2019999999998Q456.02599999999984 0.0 455.9599999999998 -0.176L452.21999999999986 -10.229999999999999Q452.1979999999998 -10.274 452.1539999999998 -10.262999999999998Q452.10999999999984 -10.251999999999999 452.10999999999984 -10.208L452.13199999999983 -0.21999999999999997Q452.13199999999983 0.0 451.9119999999998 0.0H450.23999999999984Q450.0199999999998 0.0 450.0199999999998 -0.21999999999999997V-15.18Q450.0199999999998 -15.399999999999999 450.23999999999984 -15.399999999999999H452.10999999999984Q452.28599999999983 -15.399999999999999 452.35199999999986 -15.223999999999998L456.11399999999986 -5.17Q456.13599999999985 -5.104 456.17999999999984 -5.115Q456.2239999999998 -5.1259999999999994 456.2239999999998 -5.191999999999999V-15.18Q456.2239999999998 -15.399999999999999 456.44399999999985 -15.399999999999999Z" fill="#8A8078"/>
  </g>
  <line x1="150" y1="72" x2="1050" y2="72" stroke="#8A8078" stroke-width="2"/>

  <!-- Arrow down -->
  <g transform="translate(600.00, 110)">
    <line x1="0" y1="0" x2="0" y2="28" stroke="#E07020" stroke-width="3"/>
    <polyline points="-12,16 0,32 12,16" fill="none" stroke="#E07020" stroke-width="3" stroke-linecap="round" stroke-linejoin="round"/>
  </g>

  <g transform="translate(428.97, 195.00)">
    <path d="M1.44 -14.111999999999998V-36.36Q1.44 -43.056 5.76 -47.016Q10.08 -50.976 17.208 -50.976Q21.887999999999998 -50.976 25.451999999999998 -49.176Q29.016 -47.376 30.996 -44.028Q32.976 -40.68 32.976 -36.215999999999994V-33.839999999999996Q32.976 -33.336 32.688 -33.048Q32.4 -32.76 31.895999999999997 -32.76H20.52Q20.016 -32.76 19.727999999999998 -33.048Q19.439999999999998 -33.336 19.439999999999998 -33.839999999999996V-36.36Q19.439999999999998 -37.727999999999994 18.827999999999996 -38.556Q18.215999999999998 -39.384 17.208 -39.384Q16.2 -39.384 15.588 -38.556Q14.975999999999999 -37.727999999999994 14.975999999999999 -36.36V-14.04Q14.975999999999999 -12.671999999999999 15.588 -11.844Q16.2 -11.016 17.208 -11.016Q18.215999999999998 -11.016 18.827999999999996 -11.844Q19.439999999999998 -12.671999999999999 19.439999999999998 -14.04V-17.567999999999998Q19.439999999999998 -18.0 19.008 -18.0H18.432Q17.927999999999997 -18.0 17.64 -18.287999999999997Q17.352 -18.575999999999997 17.352 -19.08V-27.36Q17.352 -27.863999999999997 17.64 -28.151999999999997Q17.927999999999997 -28.439999999999998 18.432 -28.439999999999998H31.895999999999997Q32.4 -28.439999999999998 32.688 -28.151999999999997Q32.976 -27.863999999999997 32.976 -27.36V-14.111999999999998Q32.976 -9.719999999999999 30.996 -6.371999999999999Q29.016 -3.0239999999999996 25.451999999999998 -1.2239999999999998Q21.887999999999998 0.576 17.208 0.576Q10.08 0.576 5.76 -3.42Q1.44 -7.4159999999999995 1.44 -14.111999999999998Z M55.815999999999995 -1.008 55.023999999999994 -6.4079999999999995Q55.023999999999994 -6.552 54.879999999999995 -6.696Q54.73599999999999 -6.84 54.519999999999996 -6.84H48.184Q47.967999999999996 -6.84 47.824 -6.696Q47.67999999999999 -6.552 47.67999999999999 -6.4079999999999995L46.959999999999994 -1.008Q46.888 0.0 45.80799999999999 0.0H34.504Q33.352 0.0 33.568 -1.152L43.791999999999994 -49.464Q44.007999999999996 -50.4 45.016 -50.4H58.11999999999999Q59.128 -50.4 59.343999999999994 -49.464L69.56799999999998 -1.152V-0.8639999999999999Q69.56799999999998 0.0 68.56 0.0H56.967999999999996Q55.88799999999999 0.0 55.815999999999995 -1.008ZM49.623999999999995 -17.208H53.007999999999996Q53.512 -17.208 53.367999999999995 -17.639999999999997L51.42399999999999 -30.599999999999998Q51.352 -30.887999999999998 51.208 -30.887999999999998Q51.06399999999999 -30.887999999999998 50.99199999999999 -30.599999999999998L49.263999999999996 -17.639999999999997Q49.263999999999996 -17.208 49.623999999999995 -17.208Z M95.576 -50.4H106.80799999999999Q107.31199999999998 -50.4 107.6 -50.111999999999995Q107.88799999999999 -49.824 107.88799999999999 -49.31999999999999V-1.0799999999999998Q107.88799999999999 -0.576 107.6 -0.288Q107.31199999999998 0.0 106.80799999999999 0.0H95.43199999999999Q94.928 0.0 94.63999999999999 -0.288Q94.35199999999999 -0.576 94.35199999999999 -1.0799999999999998V-30.383999999999997Q94.35199999999999 -30.671999999999997 94.172 -30.744Q93.99199999999999 -30.816 93.848 -30.528L89.744 -23.616L89.024 -22.319999999999997H88.952L84.19999999999999 -30.528Q84.056 -30.816 83.876 -30.779999999999998Q83.696 -30.743999999999996 83.696 -30.383999999999997V-1.0799999999999998Q83.696 -0.576 83.40799999999999 -0.288Q83.11999999999999 0.0 82.616 0.0H71.24Q70.73599999999999 0.0 70.448 -0.288Q70.16 -0.576 70.16 -1.0799999999999998V-49.31999999999999Q70.16 -49.824 70.448 -50.111999999999995Q70.73599999999999 -50.4 71.24 -50.4H82.472Q83.40799999999999 -50.4 83.768 -49.608L88.80799999999999 -40.391999999999996Q88.952 -40.175999999999995 89.132 -40.14Q89.312 -40.104 89.38399999999999 -40.391999999999996L94.28 -49.608Q94.71199999999999 -50.4 95.576 -50.4Z M136.992 -38.808H123.24Q122.80799999999999 -38.808 122.80799999999999 -38.376V-31.464Q122.80799999999999 -31.031999999999996 123.24 -31.031999999999996H130.368Q130.87199999999999 -31.031999999999996 131.15999999999997 -30.743999999999996Q131.44799999999998 -30.455999999999996 131.44799999999998 -29.951999999999998V-20.52Q131.44799999999998 -20.016 131.15999999999997 -19.727999999999998Q130.87199999999999 -19.439999999999998 130.368 -19.439999999999998H123.24Q122.80799999999999 -19.439999999999998 122.80799999999999 -19.008V-12.024Q122.80799999999999 -11.591999999999999 123.24 -11.591999999999999H136.992Q137.49599999999998 -11.591999999999999 137.784 -11.303999999999998Q138.072 -11.016 138.072 -10.511999999999999V-1.0799999999999998Q138.072 -0.576 137.784 -0.288Q137.49599999999998 0.0 136.992 0.0H110.35199999999999Q109.84799999999998 0.0 109.55999999999999 -0.288Q109.27199999999999 -0.576 109.27199999999999 -1.0799999999999998V-49.31999999999999Q109.27199999999999 -49.824 109.55999999999999 -50.111999999999995Q109.84799999999998 -50.4 110.35199999999999 -50.4H136.992Q137.49599999999998 -50.4 137.784 -50.111999999999995Q138.072 -49.824 138.072 -49.31999999999999V-39.888Q138.072 -39.384 137.784 -39.096000000000004Q137.49599999999998 -38.808 136.992 -38.808Z" fill="#F0EBE2"/>
    <path d="M143.05599999999998 -0.72V-49.68Q143.05599999999998 -50.4 143.77599999999998 -50.4H154.35999999999999Q159.688 -50.4 162.784 -46.836Q165.88 -43.272 165.88 -37.151999999999994V-13.248Q165.88 -7.127999999999999 162.784 -3.5639999999999996Q159.688 0.0 154.35999999999999 0.0H143.77599999999998Q143.05599999999998 0.0 143.05599999999998 -0.72ZM147.16 -3.384H154.35999999999999Q157.888 -3.4559999999999995 159.94 -6.084Q161.992 -8.712 161.992 -13.319999999999999V-37.007999999999996Q161.992 -41.687999999999995 159.94 -44.352Q157.888 -47.016 154.28799999999998 -47.016H147.16Q146.87199999999999 -47.016 146.87199999999999 -46.727999999999994V-3.6719999999999997Q146.87199999999999 -3.384 147.16 -3.384Z M173.096 -11.52V-38.808Q173.096 -44.279999999999994 176.336 -47.628Q179.57600000000002 -50.976 184.904 -50.976Q190.232 -50.976 193.54399999999998 -47.628Q196.856 -44.279999999999994 196.856 -38.808V-11.52Q196.856 -6.119999999999999 193.54399999999998 -2.772Q190.232 0.576 184.904 0.576Q179.648 0.576 176.372 -2.772Q173.096 -6.119999999999999 173.096 -11.52ZM193.04000000000002 -11.376V-38.952Q193.04000000000002 -42.767999999999994 190.77200000000002 -45.17999999999999Q188.50400000000002 -47.592 184.904 -47.592Q181.376 -47.592 179.144 -45.17999999999999Q176.912 -42.767999999999994 176.912 -38.952V-11.376Q176.912 -7.56 179.144 -5.183999999999999Q181.376 -2.808 184.904 -2.808Q188.50400000000002 -2.808 190.77200000000002 -5.183999999999999Q193.04000000000002 -7.56 193.04000000000002 -11.376Z M203.56799999999998 -11.52V-38.808Q203.56799999999998 -44.279999999999994 206.808 -47.628Q210.048 -50.976 215.37599999999998 -50.976Q220.70399999999998 -50.976 224.01599999999996 -47.628Q227.32799999999997 -44.279999999999994 227.32799999999997 -38.808V-11.52Q227.32799999999997 -6.119999999999999 224.01599999999996 -2.772Q220.70399999999998 0.576 215.37599999999998 0.576Q210.11999999999998 0.576 206.844 -2.772Q203.56799999999998 -6.119999999999999 203.56799999999998 -11.52ZM223.512 -11.376V-38.952Q223.512 -42.767999999999994 221.244 -45.17999999999999Q218.976 -47.592 215.37599999999998 -47.592Q211.84799999999998 -47.592 209.61599999999999 -45.17999999999999Q207.384 -42.767999999999994 207.384 -38.952V-11.376Q207.384 -7.56 209.61599999999999 -5.183999999999999Q211.84799999999998 -2.808 215.37599999999998 -2.808Q218.976 -2.808 221.244 -5.183999999999999Q223.512 -7.56 223.512 -11.376Z M254.77599999999995 -0.576 246.85599999999997 -23.4Q246.78399999999996 -23.616 246.56799999999996 -23.616H239.43999999999997Q239.15199999999996 -23.616 239.15199999999996 -23.328V-0.72Q239.15199999999996 0.0 238.43199999999996 0.0H236.05599999999995Q235.33599999999996 0.0 235.33599999999996 -0.72V-49.68Q235.33599999999996 -50.4 236.05599999999995 -50.4H247.21599999999995Q252.25599999999997 -50.4 255.35199999999998 -46.656Q258.448 -42.912 258.448 -36.864Q258.448 -32.04 256.35999999999996 -28.656Q254.27199999999996 -25.272 250.67199999999997 -24.048Q250.38399999999996 -23.976 250.45599999999996 -23.688L258.592 -0.7919999999999999L258.664 -0.504Q258.664 0.0 258.01599999999996 0.0H255.63999999999996Q254.99199999999996 0.0 254.77599999999995 -0.576ZM239.15199999999996 -46.727999999999994V-27.072Q239.15199999999996 -26.784 239.43999999999997 -26.784H246.78399999999996Q250.31199999999995 -26.784 252.47199999999998 -29.555999999999997Q254.63199999999998 -32.327999999999996 254.63199999999998 -36.864Q254.63199999999998 -41.471999999999994 252.47199999999998 -44.244Q250.31199999999995 -47.016 246.78399999999996 -47.016H239.43999999999997Q239.15199999999996 -47.016 239.15199999999996 -46.727999999999994Z" fill="#F0EBE2"/>
  </g>
  <circle cx="701.53" cy="173.40" r="5.76" fill="#E07020"/>
  <g transform="translate(713.05, 195.00)">
    <path d="M37.583999999999996 -23.183999999999997V-13.104Q37.583999999999996 -12.6 37.29599999999999 -12.312Q37.007999999999996 -12.024 36.504 -12.024H34.343999999999994Q33.912 -12.024 33.912 -11.591999999999999V-1.0799999999999998Q33.912 -0.576 33.623999999999995 -0.288Q33.336 0.0 32.832 0.0H21.456Q20.951999999999998 0.0 20.663999999999998 -0.288Q20.375999999999998 -0.576 20.375999999999998 -1.0799999999999998V-11.591999999999999Q20.375999999999998 -12.024 19.944 -12.024H1.656Q1.152 -12.024 0.8639999999999999 -12.312Q0.576 -12.6 0.576 -13.104V-21.096Q0.576 -21.744 0.7919999999999999 -22.392L9.504 -49.535999999999994Q9.792 -50.4 10.728 -50.4H22.895999999999997Q23.471999999999998 -50.4 23.723999999999997 -50.07599999999999Q23.976 -49.751999999999995 23.831999999999997 -49.175999999999995L16.416 -24.767999999999997Q16.343999999999998 -24.264 16.776 -24.264H19.944Q20.375999999999998 -24.264 20.375999999999998 -24.695999999999998V-29.592Q20.375999999999998 -30.095999999999997 20.663999999999998 -30.383999999999997Q20.951999999999998 -30.671999999999997 21.456 -30.671999999999997H32.832Q33.336 -30.671999999999997 33.623999999999995 -30.383999999999997Q33.912 -30.095999999999997 33.912 -29.592V-24.695999999999998Q33.912 -24.264 34.343999999999994 -24.264H36.504Q37.007999999999996 -24.264 37.29599999999999 -23.976Q37.583999999999996 -23.688 37.583999999999996 -23.183999999999997Z M43.647999999999996 -50.4H55.455999999999996Q55.959999999999994 -50.4 56.24799999999999 -50.111999999999995Q56.535999999999994 -49.824 56.535999999999994 -49.31999999999999V-1.0799999999999998Q56.535999999999994 -0.576 56.24799999999999 -0.288Q55.959999999999994 0.0 55.455999999999996 0.0H44.08Q43.57599999999999 0.0 43.288 -0.288Q43.0 -0.576 43.0 -1.0799999999999998V-37.656Q43.0 -38.087999999999994 42.568 -38.087999999999994H37.815999999999995Q37.312 -38.087999999999994 37.024 -38.37599999999999Q36.736 -38.663999999999994 36.736 -39.168V-47.519999999999996Q36.736 -48.455999999999996 37.599999999999994 -48.744L42.352 -50.184Q43.0 -50.4 43.647999999999996 -50.4Z" fill="#E07020"/>
  </g>

  <g transform="translate(337.15, 245.00)">
    <path d="M6.16 -11.200000000000001H7.376Q7.5360000000000005 -11.200000000000001 7.5360000000000005 -11.040000000000001V-0.16Q7.5360000000000005 0.0 7.376 0.0H6.16Q6.0 0.0 6.0 -0.16V-8.096Q6.0 -8.144 5.976 -8.144Q5.952 -8.144 5.92 -8.112L4.384 -5.248Q4.336 -5.136 4.24 -5.136Q4.144 -5.136 4.096 -5.248L2.576 -8.096Q2.544 -8.128 2.52 -8.128Q2.496 -8.128 2.496 -8.08V-0.16Q2.496 0.0 2.336 0.0H1.12Q0.96 0.0 0.96 -0.16V-11.040000000000001Q0.96 -11.200000000000001 1.12 -11.200000000000001H2.336Q2.448 -11.200000000000001 2.528 -11.088000000000001L4.208 -8.08Q4.224 -8.064 4.256 -8.064Q4.288 -8.064 4.304 -8.08L5.968 -11.088000000000001Q6.032 -11.200000000000001 6.16 -11.200000000000001Z M20.672 -9.872H17.072Q17.008 -9.872 17.008 -9.808V-6.336Q17.008 -6.272 17.072 -6.272H19.28Q19.44 -6.272 19.44 -6.112V-5.104Q19.44 -4.944 19.28 -4.944H17.072Q17.008 -4.944 17.008 -4.88V-1.3920000000000001Q17.008 -1.328 17.072 -1.328H20.672Q20.832 -1.328 20.832 -1.168V-0.16Q20.832 0.0 20.672 0.0H15.632000000000001Q15.472000000000001 0.0 15.472000000000001 -0.16V-11.040000000000001Q15.472000000000001 -11.200000000000001 15.632000000000001 -11.200000000000001H20.672Q20.832 -11.200000000000001 20.832 -11.040000000000001V-10.032Q20.832 -9.872 20.672 -9.872Z M33.552 -11.200000000000001H34.768Q34.928 -11.200000000000001 34.928 -11.040000000000001V-0.16Q34.928 0.0 34.768 0.0H33.552Q33.391999999999996 0.0 33.391999999999996 -0.16V-8.096Q33.391999999999996 -8.144 33.367999999999995 -8.144Q33.344 -8.144 33.312 -8.112L31.776 -5.248Q31.728 -5.136 31.631999999999998 -5.136Q31.536 -5.136 31.488 -5.248L29.968 -8.096Q29.936 -8.128 29.912 -8.128Q29.887999999999998 -8.128 29.887999999999998 -8.08V-0.16Q29.887999999999998 0.0 29.727999999999998 0.0H28.512Q28.352 0.0 28.352 -0.16V-11.040000000000001Q28.352 -11.200000000000001 28.512 -11.200000000000001H29.727999999999998Q29.84 -11.200000000000001 29.919999999999998 -11.088000000000001L31.6 -8.08Q31.616 -8.064 31.648 -8.064Q31.68 -8.064 31.695999999999998 -8.08L33.36 -11.088000000000001Q33.424 -11.200000000000001 33.552 -11.200000000000001Z M48.064 -9.872H44.464Q44.4 -9.872 44.4 -9.808V-6.336Q44.4 -6.272 44.464 -6.272H46.672Q46.832 -6.272 46.832 -6.112V-5.104Q46.832 -4.944 46.672 -4.944H44.464Q44.4 -4.944 44.4 -4.88V-1.3920000000000001Q44.4 -1.328 44.464 -1.328H48.064Q48.224000000000004 -1.328 48.224000000000004 -1.168V-0.16Q48.224000000000004 0.0 48.064 0.0H43.024Q42.864 0.0 42.864 -0.16V-11.040000000000001Q42.864 -11.200000000000001 43.024 -11.200000000000001H48.064Q48.224000000000004 -11.200000000000001 48.224000000000004 -11.040000000000001V-10.032Q48.224000000000004 -9.872 48.064 -9.872Z M70.17599999999999 -9.872H66.576Q66.512 -9.872 66.512 -9.808V-6.336Q66.512 -6.272 66.576 -6.272H68.78399999999999Q68.94399999999999 -6.272 68.94399999999999 -6.112V-5.104Q68.94399999999999 -4.944 68.78399999999999 -4.944H66.576Q66.512 -4.944 66.512 -4.88V-1.3920000000000001Q66.512 -1.328 66.576 -1.328H70.17599999999999Q70.336 -1.328 70.336 -1.168V-0.16Q70.336 0.0 70.17599999999999 0.0H65.136Q64.976 0.0 64.976 -0.16V-11.040000000000001Q64.976 -11.200000000000001 65.136 -11.200000000000001H70.17599999999999Q70.336 -11.200000000000001 70.336 -11.040000000000001V-10.032Q70.336 -9.872 70.17599999999999 -9.872Z M83.32799999999999 -8.32V-2.88Q83.32799999999999 -1.776 82.78399999999999 -1.0Q82.23999999999998 -0.224 81.31199999999998 0.016Q81.26399999999998 0.048 81.26399999999998 0.096V1.584Q81.26399999999998 1.744 81.10399999999998 1.744H79.87199999999999Q79.71199999999999 1.744 79.71199999999999 1.584V0.096Q79.71199999999999 0.048 79.66399999999999 0.016Q78.73599999999999 -0.24 78.19999999999999 -1.008Q77.66399999999999 -1.776 77.66399999999999 -2.88V-8.32Q77.66399999999999 -9.664 78.44799999999998 -10.495999999999999Q79.23199999999999 -11.328 80.49599999999998 -11.328Q81.75999999999999 -11.328 82.54399999999998 -10.495999999999999Q83.32799999999999 -9.664 83.32799999999999 -8.32ZM81.79199999999999 -8.48Q81.79199999999999 -9.152000000000001 81.43199999999999 -9.576Q81.07199999999999 -10.0 80.49599999999998 -10.0Q79.91999999999999 -10.0 79.55999999999999 -9.576Q79.19999999999999 -9.152000000000001 79.19999999999999 -8.48V-2.72Q79.19999999999999 -2.048 79.55999999999999 -1.624Q79.91999999999999 -1.2 80.49599999999998 -1.2Q81.07199999999999 -1.2 81.43199999999999 -1.624Q81.79199999999999 -2.048 81.79199999999999 -2.72Z M91.008 -3.04V-11.040000000000001Q91.008 -11.200000000000001 91.16799999999999 -11.200000000000001H92.38399999999999Q92.54399999999998 -11.200000000000001 92.54399999999998 -11.040000000000001V-2.88Q92.54399999999998 -2.128 92.91999999999999 -1.6640000000000001Q93.29599999999999 -1.2 93.904 -1.2Q94.52799999999999 -1.2 94.904 -1.6640000000000001Q95.27999999999999 -2.128 95.27999999999999 -2.88V-11.040000000000001Q95.27999999999999 -11.200000000000001 95.43999999999998 -11.200000000000001H96.65599999999999Q96.81599999999999 -11.200000000000001 96.81599999999999 -11.040000000000001V-3.04Q96.81599999999999 -1.616 96.01599999999999 -0.744Q95.216 0.128 93.904 0.128Q92.59199999999998 0.128 91.79999999999998 -0.744Q91.008 -1.616 91.008 -3.04Z M104.72 -0.16V-11.040000000000001Q104.72 -11.200000000000001 104.88 -11.200000000000001H106.09599999999999Q106.256 -11.200000000000001 106.256 -11.040000000000001V-0.16Q106.256 0.0 106.09599999999999 0.0H104.88Q104.72 0.0 104.72 -0.16Z M119.99999999999999 -8.0Q119.99999999999999 -6.5920000000000005 119.26399999999998 -5.728Q118.52799999999999 -4.864 117.32799999999999 -4.864H115.82399999999998Q115.75999999999999 -4.864 115.75999999999999 -4.8V-0.16Q115.75999999999999 0.0 115.6 0.0H114.38399999999999Q114.22399999999999 0.0 114.22399999999999 -0.16V-11.056000000000001Q114.22399999999999 -11.216000000000001 114.38399999999999 -11.216000000000001H117.24799999999999Q118.47999999999999 -11.216000000000001 119.23999999999998 -10.328Q119.99999999999999 -9.44 119.99999999999999 -8.0ZM118.46399999999998 -7.968Q118.46399999999998 -8.848 118.064 -9.368Q117.66399999999999 -9.888 117.008 -9.888H115.82399999999998Q115.75999999999999 -9.888 115.75999999999999 -9.824V-6.16Q115.75999999999999 -6.096 115.82399999999998 -6.096H117.008Q117.66399999999999 -6.096 118.064 -6.6Q118.46399999999998 -7.104 118.46399999999998 -7.968Z M132.656 -9.872H129.056Q128.992 -9.872 128.992 -9.808V-6.336Q128.992 -6.272 129.056 -6.272H131.264Q131.424 -6.272 131.424 -6.112V-5.104Q131.424 -4.944 131.264 -4.944H129.056Q128.992 -4.944 128.992 -4.88V-1.3920000000000001Q128.992 -1.328 129.056 -1.328H132.656Q132.816 -1.328 132.816 -1.168V-0.16Q132.816 0.0 132.656 0.0H127.616Q127.456 0.0 127.456 -0.16V-11.040000000000001Q127.456 -11.200000000000001 127.616 -11.200000000000001H132.656Q132.816 -11.200000000000001 132.816 -11.040000000000001V-10.032Q132.816 -9.872 132.656 -9.872Z M158.39999999999998 -4.5280000000000005Q158.39999999999998 -4.976000000000001 158.688 -5.264Q158.97599999999997 -5.552 159.42399999999998 -5.552Q159.87199999999999 -5.552 160.15999999999997 -5.264Q160.44799999999998 -4.976000000000001 160.44799999999998 -4.5280000000000005Q160.44799999999998 -4.08 160.15999999999997 -3.792Q159.87199999999999 -3.5039999999999996 159.42399999999998 -3.5039999999999996Q158.97599999999997 -3.5039999999999996 158.688 -3.792Q158.39999999999998 -4.08 158.39999999999998 -4.5280000000000005Z M191.63199999999995 -11.200000000000001H192.84799999999996Q193.00799999999995 -11.200000000000001 193.00799999999995 -11.040000000000001V-0.16Q193.00799999999995 0.0 192.84799999999996 0.0H191.63199999999995Q191.47199999999995 0.0 191.47199999999995 -0.16V-8.096Q191.47199999999995 -8.144 191.44799999999995 -8.144Q191.42399999999995 -8.144 191.39199999999994 -8.112L189.85599999999994 -5.248Q189.80799999999996 -5.136 189.71199999999996 -5.136Q189.61599999999996 -5.136 189.56799999999996 -5.248L188.04799999999994 -8.096Q188.01599999999996 -8.128 187.99199999999996 -8.128Q187.96799999999996 -8.128 187.96799999999996 -8.08V-0.16Q187.96799999999996 0.0 187.80799999999996 0.0H186.59199999999996Q186.43199999999996 0.0 186.43199999999996 -0.16V-11.040000000000001Q186.43199999999996 -11.200000000000001 186.59199999999996 -11.200000000000001H187.80799999999996Q187.91999999999996 -11.200000000000001 187.99999999999994 -11.088000000000001L189.67999999999995 -8.08Q189.69599999999994 -8.064 189.72799999999995 -8.064Q189.75999999999996 -8.064 189.77599999999995 -8.08L191.43999999999994 -11.088000000000001Q191.50399999999996 -11.200000000000001 191.63199999999995 -11.200000000000001Z M206.14399999999995 -9.872H202.54399999999995Q202.47999999999993 -9.872 202.47999999999993 -9.808V-6.336Q202.47999999999993 -6.272 202.54399999999995 -6.272H204.75199999999995Q204.91199999999995 -6.272 204.91199999999995 -6.112V-5.104Q204.91199999999995 -4.944 204.75199999999995 -4.944H202.54399999999995Q202.47999999999993 -4.944 202.47999999999993 -4.88V-1.3920000000000001Q202.47999999999993 -1.328 202.54399999999995 -1.328H206.14399999999995Q206.30399999999995 -1.328 206.30399999999995 -1.168V-0.16Q206.30399999999995 0.0 206.14399999999995 0.0H201.10399999999993Q200.94399999999993 0.0 200.94399999999993 -0.16V-11.040000000000001Q200.94399999999993 -11.200000000000001 201.10399999999993 -11.200000000000001H206.14399999999995Q206.30399999999995 -11.200000000000001 206.30399999999995 -11.040000000000001V-10.032Q206.30399999999995 -9.872 206.14399999999995 -9.872Z M219.02399999999994 -11.200000000000001H220.23999999999995Q220.39999999999995 -11.200000000000001 220.39999999999995 -11.040000000000001V-0.16Q220.39999999999995 0.0 220.23999999999995 0.0H219.02399999999994Q218.86399999999995 0.0 218.86399999999995 -0.16V-8.096Q218.86399999999995 -8.144 218.83999999999995 -8.144Q218.81599999999995 -8.144 218.78399999999993 -8.112L217.24799999999993 -5.248Q217.19999999999996 -5.136 217.10399999999996 -5.136Q217.00799999999995 -5.136 216.95999999999995 -5.248L215.43999999999994 -8.096Q215.40799999999996 -8.128 215.38399999999996 -8.128Q215.35999999999996 -8.128 215.35999999999996 -8.08V-0.16Q215.35999999999996 0.0 215.19999999999996 0.0H213.98399999999995Q213.82399999999996 0.0 213.82399999999996 -0.16V-11.040000000000001Q213.82399999999996 -11.200000000000001 213.98399999999995 -11.200000000000001H215.19999999999996Q215.31199999999995 -11.200000000000001 215.39199999999994 -11.088000000000001L217.07199999999995 -8.08Q217.08799999999994 -8.064 217.11999999999995 -8.064Q217.15199999999996 -8.064 217.16799999999995 -8.08L218.83199999999994 -11.088000000000001Q218.89599999999996 -11.200000000000001 219.02399999999994 -11.200000000000001Z M233.53599999999994 -9.872H229.93599999999995Q229.87199999999993 -9.872 229.87199999999993 -9.808V-6.336Q229.87199999999993 -6.272 229.93599999999995 -6.272H232.14399999999995Q232.30399999999995 -6.272 232.30399999999995 -6.112V-5.104Q232.30399999999995 -4.944 232.14399999999995 -4.944H229.93599999999995Q229.87199999999993 -4.944 229.87199999999993 -4.88V-1.3920000000000001Q229.87199999999993 -1.328 229.93599999999995 -1.328H233.53599999999994Q233.69599999999994 -1.328 233.69599999999994 -1.168V-0.16Q233.69599999999994 0.0 233.53599999999994 0.0H228.49599999999992Q228.33599999999993 0.0 228.33599999999993 -0.16V-11.040000000000001Q228.33599999999993 -11.200000000000001 228.49599999999992 -11.200000000000001H233.53599999999994Q233.69599999999994 -11.200000000000001 233.69599999999994 -11.040000000000001V-10.032Q233.69599999999994 -9.872 233.53599999999994 -9.872Z M254.65599999999992 -0.14400000000000002 254.30399999999995 -1.984Q254.30399999999995 -2.016 254.27999999999994 -2.032Q254.25599999999994 -2.048 254.22399999999993 -2.048H251.61599999999993Q251.58399999999995 -2.048 251.55999999999995 -2.032Q251.53599999999994 -2.016 251.53599999999994 -1.984L251.19999999999993 -0.14400000000000002Q251.18399999999994 0.0 251.02399999999994 0.0H249.80799999999994Q249.72799999999992 0.0 249.68799999999993 -0.048Q249.64799999999994 -0.096 249.66399999999993 -0.176L252.04799999999994 -11.056000000000001Q252.07999999999993 -11.200000000000001 252.22399999999993 -11.200000000000001H253.64799999999994Q253.80799999999994 -11.200000000000001 253.82399999999993 -11.056000000000001L256.22399999999993 -0.176V-0.14400000000000002Q256.22399999999993 0.0 256.0799999999999 0.0H254.83199999999994Q254.68799999999993 0.0 254.65599999999992 -0.14400000000000002ZM251.85599999999994 -3.2640000000000002H253.98399999999992Q254.03199999999993 -3.2640000000000002 254.03199999999993 -3.3280000000000003L252.94399999999993 -9.008000000000001Q252.92799999999994 -9.040000000000001 252.91199999999992 -9.040000000000001Q252.89599999999993 -9.040000000000001 252.87999999999994 -9.008000000000001L251.80799999999994 -3.3280000000000003Q251.80799999999994 -3.2640000000000002 251.85599999999994 -3.2640000000000002Z M263.4239999999999 -0.16V-11.040000000000001Q263.4239999999999 -11.200000000000001 263.5839999999999 -11.200000000000001H266.2079999999999Q267.5359999999999 -11.200000000000001 268.31999999999994 -10.384Q269.1039999999999 -9.568 269.1039999999999 -8.176V-3.024Q269.1039999999999 -1.6320000000000001 268.31999999999994 -0.8160000000000001Q267.5359999999999 0.0 266.2079999999999 0.0H263.5839999999999Q263.4239999999999 0.0 263.4239999999999 -0.16ZM265.0239999999999 -1.328 266.1919999999999 -1.344Q266.7999999999999 -1.344 267.1679999999999 -1.8160000000000003Q267.5359999999999 -2.2880000000000003 267.5519999999999 -3.104V-8.096Q267.5519999999999 -8.912 267.1839999999999 -9.392Q266.8159999999999 -9.872 266.1919999999999 -9.872H265.0239999999999Q264.9599999999999 -9.872 264.9599999999999 -9.808V-1.3920000000000001Q264.9599999999999 -1.328 265.0239999999999 -1.328Z M281.1839999999999 -0.128 279.71199999999993 -4.896Q279.6959999999999 -4.944 279.6479999999999 -4.944H278.5279999999999Q278.46399999999994 -4.944 278.46399999999994 -4.88V-0.16Q278.46399999999994 0.0 278.3039999999999 0.0H277.0879999999999Q276.92799999999994 0.0 276.92799999999994 -0.16V-11.040000000000001Q276.92799999999994 -11.200000000000001 277.0879999999999 -11.200000000000001H279.95199999999994Q280.7679999999999 -11.200000000000001 281.39199999999994 -10.8Q282.0159999999999 -10.4 282.3599999999999 -9.672Q282.7039999999999 -8.944 282.7039999999999 -8.016Q282.7039999999999 -7.008 282.2879999999999 -6.264Q281.8719999999999 -5.5200000000000005 281.15199999999993 -5.184Q281.1039999999999 -5.136 281.11999999999995 -5.088L282.7519999999999 -0.176L282.7679999999999 -0.112Q282.7679999999999 0.0 282.6239999999999 0.0H281.3759999999999Q281.2319999999999 0.0 281.1839999999999 -0.128ZM278.46399999999994 -9.808V-6.224Q278.46399999999994 -6.16 278.5279999999999 -6.16H279.71199999999993Q280.36799999999994 -6.16 280.7679999999999 -6.664Q281.16799999999995 -7.168 281.16799999999995 -8.0Q281.16799999999995 -8.864 280.7679999999999 -9.368Q280.36799999999994 -9.872 279.71199999999993 -9.872H278.5279999999999Q278.46399999999994 -9.872 278.46399999999994 -9.808Z M295.3759999999999 -9.872H291.7759999999999Q291.71199999999993 -9.872 291.71199999999993 -9.808V-6.336Q291.71199999999993 -6.272 291.7759999999999 -6.272H293.9839999999999Q294.1439999999999 -6.272 294.1439999999999 -6.112V-5.104Q294.1439999999999 -4.944 293.9839999999999 -4.944H291.7759999999999Q291.71199999999993 -4.944 291.71199999999993 -4.88V-1.3920000000000001Q291.71199999999993 -1.328 291.7759999999999 -1.328H295.3759999999999Q295.5359999999999 -1.328 295.5359999999999 -1.168V-0.16Q295.5359999999999 0.0 295.3759999999999 0.0H290.3359999999999Q290.17599999999993 0.0 290.17599999999993 -0.16V-11.040000000000001Q290.17599999999993 -11.200000000000001 290.3359999999999 -11.200000000000001H295.3759999999999Q295.5359999999999 -11.200000000000001 295.5359999999999 -11.040000000000001V-10.032Q295.5359999999999 -9.872 295.3759999999999 -9.872Z M302.7039999999999 -2.736V-3.152Q302.7039999999999 -3.3120000000000003 302.86399999999986 -3.3120000000000003H304.0479999999999Q304.2079999999999 -3.3120000000000003 304.2079999999999 -3.152V-2.816Q304.2079999999999 -2.08 304.5759999999999 -1.6400000000000001Q304.9439999999999 -1.2 305.51999999999987 -1.2Q306.0959999999999 -1.2 306.47199999999987 -1.624Q306.8479999999999 -2.048 306.8479999999999 -2.736Q306.8479999999999 -3.2 306.6479999999999 -3.552Q306.44799999999987 -3.904 306.1199999999999 -4.184Q305.7919999999999 -4.464 305.05599999999987 -5.008Q304.2399999999999 -5.6160000000000005 303.7759999999999 -6.048Q303.3119999999999 -6.48 302.9919999999999 -7.088Q302.6719999999999 -7.696 302.6719999999999 -8.512Q302.6719999999999 -9.808 303.43999999999994 -10.568Q304.2079999999999 -11.328 305.4399999999999 -11.328Q306.7199999999999 -11.328 307.49599999999987 -10.512Q308.2719999999999 -9.696 308.2719999999999 -8.368V-7.968Q308.2719999999999 -7.808 308.1119999999999 -7.808H306.9279999999999Q306.7679999999999 -7.808 306.7679999999999 -7.968V-8.4Q306.7679999999999 -9.120000000000001 306.39999999999986 -9.56Q306.03199999999987 -10.0 305.4399999999999 -10.0Q304.8799999999999 -10.0 304.5279999999999 -9.608Q304.1759999999999 -9.216000000000001 304.1759999999999 -8.512Q304.1759999999999 -7.872 304.5279999999999 -7.432Q304.8799999999999 -6.992 305.88799999999986 -6.256Q306.8479999999999 -5.5360000000000005 307.3359999999999 -5.088Q307.8239999999999 -4.64 308.08799999999985 -4.104Q308.35199999999986 -3.568 308.35199999999986 -2.832Q308.35199999999986 -1.488 307.56799999999987 -0.6799999999999999Q306.7839999999999 0.128 305.51999999999987 0.128Q304.2559999999999 0.128 303.4799999999999 -0.6639999999999999Q302.7039999999999 -1.456 302.7039999999999 -2.736Z M315.51999999999987 -2.736V-3.152Q315.51999999999987 -3.3120000000000003 315.67999999999984 -3.3120000000000003H316.86399999999986Q317.0239999999999 -3.3120000000000003 317.0239999999999 -3.152V-2.816Q317.0239999999999 -2.08 317.3919999999999 -1.6400000000000001Q317.7599999999999 -1.2 318.33599999999984 -1.2Q318.91199999999986 -1.2 319.2879999999999 -1.624Q319.6639999999999 -2.048 319.6639999999999 -2.736Q319.6639999999999 -3.2 319.4639999999998 -3.552Q319.26399999999984 -3.904 318.93599999999986 -4.184Q318.6079999999999 -4.464 317.87199999999984 -5.008Q317.05599999999987 -5.6160000000000005 316.59199999999987 -6.048Q316.1279999999999 -6.48 315.8079999999999 -7.088Q315.4879999999999 -7.696 315.4879999999999 -8.512Q315.4879999999999 -9.808 316.25599999999986 -10.568Q317.0239999999999 -11.328 318.25599999999986 -11.328Q319.5359999999999 -11.328 320.3119999999999 -10.512Q321.08799999999985 -9.696 321.08799999999985 -8.368V-7.968Q321.08799999999985 -7.808 320.9279999999999 -7.808H319.74399999999986Q319.5839999999999 -7.808 319.5839999999999 -7.968V-8.4Q319.5839999999999 -9.120000000000001 319.2159999999999 -9.56Q318.84799999999984 -10.0 318.25599999999986 -10.0Q317.69599999999986 -10.0 317.3439999999998 -9.608Q316.99199999999985 -9.216000000000001 316.99199999999985 -8.512Q316.99199999999985 -7.872 317.3439999999998 -7.432Q317.69599999999986 -6.992 318.70399999999984 -6.256Q319.6639999999999 -5.5360000000000005 320.1519999999999 -5.088Q320.6399999999999 -4.64 320.9039999999999 -4.104Q321.1679999999999 -3.568 321.1679999999999 -2.832Q321.1679999999999 -1.488 320.3839999999999 -0.6799999999999999Q319.59999999999985 0.128 318.33599999999984 0.128Q317.0719999999999 0.128 316.2959999999999 -0.6639999999999999Q315.51999999999987 -1.456 315.51999999999987 -2.736Z M333.91999999999985 -9.872H330.3199999999998Q330.25599999999986 -9.872 330.25599999999986 -9.808V-6.336Q330.25599999999986 -6.272 330.3199999999998 -6.272H332.52799999999985Q332.6879999999998 -6.272 332.6879999999998 -6.112V-5.104Q332.6879999999998 -4.944 332.52799999999985 -4.944H330.3199999999998Q330.25599999999986 -4.944 330.25599999999986 -4.88V-1.3920000000000001Q330.25599999999986 -1.328 330.3199999999998 -1.328H333.91999999999985Q334.0799999999998 -1.328 334.0799999999998 -1.168V-0.16Q334.0799999999998 0.0 333.91999999999985 0.0H328.8799999999998Q328.71999999999986 0.0 328.71999999999986 -0.16V-11.040000000000001Q328.71999999999986 -11.200000000000001 328.8799999999998 -11.200000000000001H333.91999999999985Q334.0799999999998 -11.200000000000001 334.0799999999998 -11.040000000000001V-10.032Q334.0799999999998 -9.872 333.91999999999985 -9.872Z M359.66399999999976 -4.5280000000000005Q359.66399999999976 -4.976000000000001 359.95199999999977 -5.264Q360.2399999999998 -5.552 360.68799999999976 -5.552Q361.13599999999974 -5.552 361.42399999999975 -5.264Q361.71199999999976 -4.976000000000001 361.71199999999976 -4.5280000000000005Q361.71199999999976 -4.08 361.42399999999975 -3.792Q361.13599999999974 -3.5039999999999996 360.68799999999976 -3.5039999999999996Q360.2399999999998 -3.5039999999999996 359.95199999999977 -3.792Q359.66399999999976 -4.08 359.66399999999976 -4.5280000000000005Z M392.39999999999975 -11.200000000000001H393.59999999999974Q393.75999999999976 -11.200000000000001 393.75999999999976 -11.040000000000001V-0.16Q393.75999999999976 0.0 393.59999999999974 0.0H392.22399999999976Q392.0959999999998 0.0 392.0479999999998 -0.128L389.32799999999975 -7.44Q389.3119999999998 -7.472 389.27999999999975 -7.464Q389.24799999999976 -7.456 389.24799999999976 -7.424L389.2639999999998 -0.16Q389.2639999999998 0.0 389.10399999999976 0.0H387.88799999999975Q387.7279999999998 0.0 387.7279999999998 -0.16V-11.040000000000001Q387.7279999999998 -11.200000000000001 387.88799999999975 -11.200000000000001H389.24799999999976Q389.37599999999975 -11.200000000000001 389.42399999999975 -11.072000000000001L392.15999999999974 -3.7600000000000002Q392.17599999999976 -3.712 392.20799999999974 -3.72Q392.2399999999998 -3.728 392.2399999999998 -3.7760000000000002V-11.040000000000001Q392.2399999999998 -11.200000000000001 392.39999999999975 -11.200000000000001Z M401.51999999999975 -2.8000000000000003V-8.384Q401.51999999999975 -9.712 402.31999999999977 -10.52Q403.1199999999998 -11.328 404.4319999999998 -11.328Q405.75999999999976 -11.328 406.56799999999976 -10.52Q407.3759999999998 -9.712 407.3759999999998 -8.384V-2.8000000000000003Q407.3759999999998 -1.472 406.56799999999976 -0.6719999999999999Q405.75999999999976 0.128 404.4319999999998 0.128Q403.1199999999998 0.128 402.31999999999977 -0.6719999999999999Q401.51999999999975 -1.472 401.51999999999975 -2.8000000000000003ZM405.8399999999998 -2.736V-8.464Q405.8399999999998 -9.152000000000001 405.4559999999998 -9.576Q405.0719999999998 -10.0 404.4319999999998 -10.0Q403.80799999999977 -10.0 403.4319999999998 -9.576Q403.05599999999976 -9.152000000000001 403.05599999999976 -8.464V-2.736Q403.05599999999976 -2.048 403.4319999999998 -1.624Q403.80799999999977 -1.2 404.4319999999998 -1.2Q405.0719999999998 -1.2 405.4559999999998 -1.624Q405.8399999999998 -2.048 405.8399999999998 -2.736Z M415.05599999999976 -3.04V-11.040000000000001Q415.05599999999976 -11.200000000000001 415.2159999999998 -11.200000000000001H416.4319999999998Q416.59199999999976 -11.200000000000001 416.59199999999976 -11.040000000000001V-2.88Q416.59199999999976 -2.128 416.96799999999973 -1.6640000000000001Q417.34399999999977 -1.2 417.95199999999977 -1.2Q418.5759999999998 -1.2 418.95199999999977 -1.6640000000000001Q419.3279999999998 -2.128 419.3279999999998 -2.88V-11.040000000000001Q419.3279999999998 -11.200000000000001 419.4879999999998 -11.200000000000001H420.7039999999998Q420.8639999999998 -11.200000000000001 420.8639999999998 -11.040000000000001V-3.04Q420.8639999999998 -1.616 420.0639999999998 -0.744Q419.2639999999998 0.128 417.95199999999977 0.128Q416.63999999999976 0.128 415.84799999999973 -0.744Q415.05599999999976 -1.616 415.05599999999976 -3.04Z M430.5759999999998 -0.14400000000000002 428.27199999999976 -11.024000000000001V-11.056000000000001Q428.27199999999976 -11.200000000000001 428.41599999999977 -11.200000000000001H429.7439999999998Q429.90399999999977 -11.200000000000001 429.9199999999998 -11.056000000000001L431.43999999999977 -2.7520000000000002Q431.4559999999998 -2.72 431.47199999999975 -2.72Q431.4879999999998 -2.72 431.5039999999998 -2.7520000000000002L432.9919999999998 -11.056000000000001Q433.0239999999998 -11.200000000000001 433.1679999999998 -11.200000000000001H434.4479999999998Q434.6239999999998 -11.200000000000001 434.59199999999976 -11.024000000000001L432.2879999999998 -0.14400000000000002Q432.27199999999976 0.0 432.1119999999998 0.0H430.7519999999998Q430.6079999999998 0.0 430.5759999999998 -0.14400000000000002Z M447.2799999999998 -9.872H443.6799999999998Q443.6159999999998 -9.872 443.6159999999998 -9.808V-6.336Q443.6159999999998 -6.272 443.6799999999998 -6.272H445.8879999999998Q446.0479999999998 -6.272 446.0479999999998 -6.112V-5.104Q446.0479999999998 -4.944 445.8879999999998 -4.944H443.6799999999998Q443.6159999999998 -4.944 443.6159999999998 -4.88V-1.3920000000000001Q443.6159999999998 -1.328 443.6799999999998 -1.328H447.2799999999998Q447.43999999999977 -1.328 447.43999999999977 -1.168V-0.16Q447.43999999999977 0.0 447.2799999999998 0.0H442.2399999999998Q442.0799999999998 0.0 442.0799999999998 -0.16V-11.040000000000001Q442.0799999999998 -11.200000000000001 442.2399999999998 -11.200000000000001H447.2799999999998Q447.43999999999977 -11.200000000000001 447.43999999999977 -11.040000000000001V-10.032Q447.43999999999977 -9.872 447.2799999999998 -9.872Z M459.19999999999976 -0.14400000000000002 458.8479999999998 -1.984Q458.8479999999998 -2.016 458.8239999999998 -2.032Q458.7999999999998 -2.048 458.76799999999974 -2.048H456.1599999999998Q456.12799999999976 -2.048 456.10399999999976 -2.032Q456.07999999999976 -2.016 456.07999999999976 -1.984L455.7439999999998 -0.14400000000000002Q455.7279999999998 0.0 455.56799999999976 0.0H454.35199999999975Q454.27199999999976 0.0 454.23199999999974 -0.048Q454.1919999999998 -0.096 454.2079999999998 -0.176L456.59199999999976 -11.056000000000001Q456.6239999999998 -11.200000000000001 456.76799999999974 -11.200000000000001H458.1919999999998Q458.35199999999975 -11.200000000000001 458.36799999999977 -11.056000000000001L460.76799999999974 -0.176V-0.14400000000000002Q460.76799999999974 0.0 460.6239999999998 0.0H459.37599999999975Q459.2319999999998 0.0 459.19999999999976 -0.14400000000000002ZM456.39999999999975 -3.2640000000000002H458.5279999999998Q458.5759999999998 -3.2640000000000002 458.5759999999998 -3.3280000000000003L457.4879999999998 -9.008000000000001Q457.47199999999975 -9.040000000000001 457.4559999999998 -9.040000000000001Q457.43999999999977 -9.040000000000001 457.42399999999975 -9.008000000000001L456.35199999999975 -3.3280000000000003Q456.35199999999975 -3.2640000000000002 456.39999999999975 -3.2640000000000002Z M467.88799999999975 -3.04V-11.040000000000001Q467.88799999999975 -11.200000000000001 468.0479999999998 -11.200000000000001H469.2639999999998Q469.42399999999975 -11.200000000000001 469.42399999999975 -11.040000000000001V-2.88Q469.42399999999975 -2.128 469.7999999999997 -1.6640000000000001Q470.17599999999976 -1.2 470.78399999999976 -1.2Q471.4079999999998 -1.2 471.78399999999976 -1.6640000000000001Q472.1599999999998 -2.128 472.1599999999998 -2.88V-11.040000000000001Q472.1599999999998 -11.200000000000001 472.31999999999977 -11.200000000000001H473.5359999999998Q473.6959999999998 -11.200000000000001 473.6959999999998 -11.040000000000001V-3.04Q473.6959999999998 -1.616 472.8959999999998 -0.744Q472.0959999999998 0.128 470.78399999999976 0.128Q469.47199999999975 0.128 468.6799999999997 -0.744Q467.88799999999975 -1.616 467.88799999999975 -3.04Z M495.47199999999975 -11.200000000000001H496.67199999999974Q496.83199999999977 -11.200000000000001 496.83199999999977 -11.040000000000001V-0.16Q496.83199999999977 0.0 496.67199999999974 0.0H495.29599999999976Q495.1679999999998 0.0 495.1199999999998 -0.128L492.39999999999975 -7.44Q492.3839999999998 -7.472 492.35199999999975 -7.464Q492.31999999999977 -7.456 492.31999999999977 -7.424L492.3359999999998 -0.16Q492.3359999999998 0.0 492.17599999999976 0.0H490.95999999999975Q490.7999999999998 0.0 490.7999999999998 -0.16V-11.040000000000001Q490.7999999999998 -11.200000000000001 490.95999999999975 -11.200000000000001H492.31999999999977Q492.44799999999975 -11.200000000000001 492.49599999999975 -11.072000000000001L495.23199999999974 -3.7600000000000002Q495.24799999999976 -3.712 495.27999999999975 -3.72Q495.3119999999998 -3.728 495.3119999999998 -3.7760000000000002V-11.040000000000001Q495.3119999999998 -11.200000000000001 495.47199999999975 -11.200000000000001Z M504.59199999999976 -2.8000000000000003V-8.384Q504.59199999999976 -9.712 505.39199999999977 -10.52Q506.1919999999998 -11.328 507.5039999999998 -11.328Q508.83199999999977 -11.328 509.63999999999976 -10.52Q510.4479999999998 -9.712 510.4479999999998 -8.384V-2.8000000000000003Q510.4479999999998 -1.472 509.63999999999976 -0.6719999999999999Q508.83199999999977 0.128 507.5039999999998 0.128Q506.1919999999998 0.128 505.39199999999977 -0.6719999999999999Q504.59199999999976 -1.472 504.59199999999976 -2.8000000000000003ZM508.9119999999998 -2.736V-8.464Q508.9119999999998 -9.152000000000001 508.5279999999998 -9.576Q508.1439999999998 -10.0 507.5039999999998 -10.0Q506.87999999999977 -10.0 506.5039999999998 -9.576Q506.12799999999976 -9.152000000000001 506.12799999999976 -8.464V-2.736Q506.12799999999976 -2.048 506.5039999999998 -1.624Q506.87999999999977 -1.2 507.5039999999998 -1.2Q508.1439999999998 -1.2 508.5279999999998 -1.624Q508.9119999999998 -2.048 508.9119999999998 -2.736Z M523.3759999999997 -11.200000000000001H524.5919999999998Q524.7519999999997 -11.200000000000001 524.7519999999997 -11.040000000000001V-0.16Q524.7519999999997 0.0 524.5919999999998 0.0H523.3759999999997Q523.2159999999998 0.0 523.2159999999998 -0.16V-8.096Q523.2159999999998 -8.144 523.1919999999998 -8.144Q523.1679999999998 -8.144 523.1359999999997 -8.112L521.5999999999998 -5.248Q521.5519999999998 -5.136 521.4559999999998 -5.136Q521.3599999999998 -5.136 521.3119999999998 -5.248L519.7919999999998 -8.096Q519.7599999999998 -8.128 519.7359999999998 -8.128Q519.7119999999998 -8.128 519.7119999999998 -8.08V-0.16Q519.7119999999998 0.0 519.5519999999998 0.0H518.3359999999998Q518.1759999999998 0.0 518.1759999999998 -0.16V-11.040000000000001Q518.1759999999998 -11.200000000000001 518.3359999999998 -11.200000000000001H519.5519999999998Q519.6639999999998 -11.200000000000001 519.7439999999998 -11.088000000000001L521.4239999999998 -8.08Q521.4399999999998 -8.064 521.4719999999998 -8.064Q521.5039999999998 -8.064 521.5199999999998 -8.08L523.1839999999997 -11.088000000000001Q523.2479999999998 -11.200000000000001 523.3759999999997 -11.200000000000001Z" fill="#8A8078"/>
  </g>

</svg>
