<?xml version="1.0" encoding="UTF-8"?>
<svg xmlns="http://www.w3.org/2000/svg" viewBox="0 0 400 400" width="400" height="400" preserveAspectRatio="xMidYMid meet">
  <title>Transition stamp rond</title>
  <circle cx="200.0" cy="200.0" r="200.0" fill="#E07020"/>
  <circle cx="200.0" cy="200.0" r="190.0" fill="none" stroke="#0E0B08" stroke-width="2" opacity="0.3"/>
  <circle cx="200.0" cy="200.0" r="180.0" fill="none" stroke="#0E0B08" stroke-width="1" opacity="0.2"/>

  <g transform="translate(109.02, 130.00)">
    <path d="M5.031 -8.020999999999999H2.106Q2.054 -8.020999999999999 2.054 -7.968999999999999V-5.148Q2.054 -5.096 2.106 -5.096H3.9Q4.03 -5.096 4.03 -4.966V-4.147Q4.03 -4.0169999999999995 3.9 -4.0169999999999995H2.106Q2.054 -4.0169999999999995 2.054 -3.965V-1.131Q2.054 -1.079 2.106 -1.079H5.031Q5.161 -1.079 5.161 -0.949V-0.13Q5.161 0.0 5.031 0.0H0.9359999999999999Q0.8059999999999999 0.0 0.8059999999999999 -0.13V-8.969999999999999Q0.8059999999999999 -9.1 0.9359999999999999 -9.1H5.031Q5.161 -9.1 5.161 -8.969999999999999V-8.151Q5.161 -8.020999999999999 5.031 -8.020999999999999Z M10.058 -0.156 11.865 -4.511Q11.891 -4.55 11.865 -4.5889999999999995L10.058 -8.943999999999999L10.045 -8.996Q10.045 -9.1 10.161999999999999 -9.1H11.176Q11.28 -9.1 11.318999999999999 -8.996L12.501999999999999 -5.8629999999999995Q12.515 -5.824 12.541 -5.824Q12.567 -5.824 12.58 -5.8629999999999995L13.75 -8.996Q13.789 -9.1 13.893 -9.1H14.907Q14.972 -9.1 15.0045 -9.0545Q15.036999999999999 -9.009 15.011 -8.943999999999999L13.203999999999999 -4.576Q13.190999999999999 -4.537 13.203999999999999 -4.498L15.011 -0.156L15.024 -0.104Q15.024 0.0 14.907 0.0H13.905999999999999Q13.802 0.0 13.763 -0.104L12.58 -3.2239999999999998Q12.567 -3.263 12.541 -3.263Q12.515 -3.263 12.501999999999999 -3.2239999999999998L11.318999999999999 -0.104Q11.28 0.0 11.176 0.0H10.161999999999999Q10.097 0.0 10.064499999999999 -0.0455Q10.032 -0.091 10.058 -0.156Z M19.83 -3.562V-4.381Q19.83 -4.511 19.96 -4.511H23.105999999999998Q23.236 -4.511 23.236 -4.381V-3.562Q23.236 -3.432 23.105999999999998 -3.432H19.96Q19.83 -3.432 19.83 -3.562Z M30.72 0.0H28.549Q28.419 0.0 28.419 -0.13V-8.969999999999999Q28.419 -9.1 28.549 -9.1H30.538Q31.721 -9.1 32.3905 -8.4825Q33.06 -7.864999999999999 33.06 -6.6819999999999995Q33.06 -5.278 32.059 -4.745Q31.994 -4.7059999999999995 32.046 -4.68Q32.566 -4.367999999999999 32.8585 -3.8089999999999997Q33.150999999999996 -3.25 33.150999999999996 -2.483Q33.150999999999996 -1.3 32.4815 -0.65Q31.811999999999998 0.0 30.72 0.0ZM29.666999999999998 -7.968999999999999V-5.213Q29.666999999999998 -5.161 29.719 -5.161H30.551Q31.162 -5.161 31.5 -5.531499999999999Q31.838 -5.902 31.838 -6.5649999999999995Q31.838 -7.254 31.5 -7.637499999999999Q31.162 -8.020999999999999 30.551 -8.020999999999999H29.719Q29.666999999999998 -8.020999999999999 29.666999999999998 -7.968999999999999ZM31.903 -2.639Q31.903 -3.393 31.564999999999998 -3.8154999999999997Q31.227 -4.2379999999999995 30.628999999999998 -4.2379999999999995H29.719Q29.666999999999998 -4.2379999999999995 29.666999999999998 -4.186V-1.144Q29.666999999999998 -1.0919999999999999 29.719 -1.0919999999999999H30.616Q31.214 -1.0919999999999999 31.5585 -1.4949999999999999Q31.903 -1.898 31.903 -2.639Z M41.805 -0.104 40.608999999999995 -3.9779999999999998Q40.596 -4.0169999999999995 40.556999999999995 -4.0169999999999995H39.647Q39.595 -4.0169999999999995 39.595 -3.965V-0.13Q39.595 0.0 39.464999999999996 0.0H38.477Q38.346999999999994 0.0 38.346999999999994 -0.13V-8.969999999999999Q38.346999999999994 -9.1 38.477 -9.1H40.803999999999995Q41.467 -9.1 41.974 -8.774999999999999Q42.480999999999995 -8.45 42.76049999999999 -7.858499999999999Q43.04 -7.2669999999999995 43.04 -6.513Q43.04 -5.694 42.702 -5.089499999999999Q42.364 -4.484999999999999 41.778999999999996 -4.212Q41.739999999999995 -4.173 41.753 -4.1339999999999995L43.07899999999999 -0.143L43.092 -0.091Q43.092 0.0 42.974999999999994 0.0H41.961Q41.843999999999994 0.0 41.805 -0.104ZM39.595 -7.968999999999999V-5.0569999999999995Q39.595 -5.005 39.647 -5.005H40.608999999999995Q41.141999999999996 -5.005 41.467 -5.4145Q41.791999999999994 -5.824 41.791999999999994 -6.5Q41.791999999999994 -7.202 41.467 -7.6114999999999995Q41.141999999999996 -8.020999999999999 40.608999999999995 -8.020999999999999H39.647Q39.595 -8.020999999999999 39.595 -7.968999999999999Z M51.654999999999994 -0.11699999999999999 51.36899999999999 -1.6119999999999999Q51.36899999999999 -1.638 51.34949999999999 -1.6509999999999998Q51.32999999999999 -1.664 51.303999999999995 -1.664H49.184999999999995Q49.15899999999999 -1.664 49.13949999999999 -1.6509999999999998Q49.11999999999999 -1.638 49.11999999999999 -1.6119999999999999L48.846999999999994 -0.11699999999999999Q48.83399999999999 0.0 48.70399999999999 0.0H47.715999999999994Q47.65099999999999 0.0 47.61849999999999 -0.039Q47.58599999999999 -0.078 47.59899999999999 -0.143L49.535999999999994 -8.982999999999999Q49.56199999999999 -9.1 49.678999999999995 -9.1H50.83599999999999Q50.965999999999994 -9.1 50.97899999999999 -8.982999999999999L52.928999999999995 -0.143V-0.11699999999999999Q52.928999999999995 0.0 52.81199999999999 0.0H51.797999999999995Q51.68099999999999 0.0 51.654999999999994 -0.11699999999999999ZM49.379999999999995 -2.6519999999999997H51.108999999999995Q51.147999999999996 -2.6519999999999997 51.147999999999996 -2.7039999999999997L50.263999999999996 -7.319Q50.25099999999999 -7.345 50.23799999999999 -7.345Q50.224999999999994 -7.345 50.21199999999999 -7.319L49.340999999999994 -2.7039999999999997Q49.340999999999994 -2.6519999999999997 49.379999999999995 -2.6519999999999997Z M57.90399999999999 -0.13V-8.969999999999999Q57.90399999999999 -9.1 58.03399999999999 -9.1H59.02199999999999Q59.151999999999994 -9.1 59.151999999999994 -8.969999999999999V-0.13Q59.151999999999994 0.0 59.02199999999999 0.0H58.03399999999999Q57.90399999999999 0.0 57.90399999999999 -0.13Z M68.55999999999999 -9.1H69.535Q69.66499999999999 -9.1 69.66499999999999 -8.969999999999999V-0.13Q69.66499999999999 0.0 69.535 0.0H68.41699999999999Q68.31299999999999 0.0 68.27399999999999 -0.104L66.064 -6.045Q66.05099999999999 -6.071 66.02499999999999 -6.0645Q65.999 -6.058 65.999 -6.032L66.01199999999999 -0.13Q66.01199999999999 0.0 65.88199999999999 0.0H64.89399999999999Q64.764 0.0 64.764 -0.13V-8.969999999999999Q64.764 -9.1 64.89399999999999 -9.1H65.999Q66.103 -9.1 66.142 -8.996L68.365 -3.0549999999999997Q68.37799999999999 -3.016 68.404 -3.0225Q68.42999999999999 -3.029 68.42999999999999 -3.068V-8.969999999999999Q68.42999999999999 -9.1 68.55999999999999 -9.1Z M86.10199999999999 -8.020999999999999H83.17699999999998Q83.12499999999999 -8.020999999999999 83.12499999999999 -7.968999999999999V-5.148Q83.12499999999999 -5.096 83.17699999999998 -5.096H84.97099999999999Q85.10099999999998 -5.096 85.10099999999998 -4.966V-4.147Q85.10099999999998 -4.0169999999999995 84.97099999999999 -4.0169999999999995H83.17699999999998Q83.12499999999999 -4.0169999999999995 83.12499999999999 -3.965V-1.131Q83.12499999999999 -1.079 83.17699999999998 -1.079H86.10199999999999Q86.23199999999999 -1.079 86.23199999999999 -0.949V-0.13Q86.23199999999999 0.0 86.10199999999999 0.0H82.00699999999998Q81.87699999999998 0.0 81.87699999999998 -0.13V-8.969999999999999Q81.87699999999998 -9.1 82.00699999999998 -9.1H86.10199999999999Q86.23199999999999 -9.1 86.23199999999999 -8.969999999999999V-8.151Q86.23199999999999 -8.020999999999999 86.10199999999999 -8.020999999999999Z M91.18099999999998 -2.223V-2.561Q91.18099999999998 -2.691 91.31099999999998 -2.691H92.27299999999998Q92.40299999999998 -2.691 92.40299999999998 -2.561V-2.288Q92.40299999999998 -1.69 92.70199999999997 -1.3325Q93.00099999999998 -0.975 93.46899999999998 -0.975Q93.93699999999998 -0.975 94.24249999999998 -1.3195Q94.54799999999999 -1.664 94.54799999999999 -2.223Q94.54799999999999 -2.6 94.38549999999998 -2.886Q94.22299999999998 -3.1719999999999997 93.95649999999998 -3.3994999999999997Q93.68999999999998 -3.627 93.09199999999998 -4.069Q92.42899999999999 -4.563 92.05199999999999 -4.914Q91.67499999999998 -5.265 91.41499999999999 -5.759Q91.15499999999999 -6.253 91.15499999999999 -6.9159999999999995Q91.15499999999999 -7.968999999999999 91.77899999999998 -8.5865Q92.40299999999998 -9.203999999999999 93.40399999999998 -9.203999999999999Q94.44399999999999 -9.203999999999999 95.07449999999999 -8.540999999999999Q95.70499999999998 -7.877999999999999 95.70499999999998 -6.7989999999999995V-6.473999999999999Q95.70499999999998 -6.343999999999999 95.57499999999999 -6.343999999999999H94.61299999999999Q94.48299999999999 -6.343999999999999 94.48299999999999 -6.473999999999999V-6.824999999999999Q94.48299999999999 -7.409999999999999 94.18399999999998 -7.7675Q93.88499999999998 -8.125 93.40399999999998 -8.125Q92.94899999999998 -8.125 92.66299999999998 -7.8065Q92.37699999999998 -7.4879999999999995 92.37699999999998 -6.9159999999999995Q92.37699999999998 -6.396 92.66299999999998 -6.0385Q92.94899999999998 -5.681 93.76799999999999 -5.083Q94.54799999999999 -4.498 94.94449999999998 -4.134Q95.34099999999998 -3.77 95.55549999999998 -3.3345000000000002Q95.76999999999998 -2.899 95.76999999999998 -2.3009999999999997Q95.76999999999998 -1.2089999999999999 95.13299999999998 -0.5524999999999999Q94.49599999999998 0.104 93.46899999999998 0.104Q92.44199999999998 0.104 91.81149999999998 -0.5395Q91.18099999999998 -1.183 91.18099999999998 -2.223Z M100.84899999999998 -2.249V-6.864Q100.84899999999998 -7.93 101.49249999999998 -8.567Q102.13599999999998 -9.203999999999999 103.18899999999998 -9.203999999999999Q104.25499999999998 -9.203999999999999 104.89849999999998 -8.567Q105.54199999999997 -7.93 105.54199999999997 -6.864V-6.656Q105.54199999999997 -6.526 105.41199999999998 -6.526L104.42399999999998 -6.473999999999999Q104.29399999999998 -6.473999999999999 104.29399999999998 -6.604V-6.941999999999999Q104.29399999999998 -7.475 103.98849999999999 -7.8Q103.68299999999998 -8.125 103.18899999999998 -8.125Q102.69499999999998 -8.125 102.39599999999999 -7.8Q102.09699999999998 -7.475 102.09699999999998 -6.941999999999999V-2.158Q102.09699999999998 -1.625 102.39599999999999 -1.3Q102.69499999999998 -0.975 103.18899999999998 -0.975Q103.68299999999998 -0.975 103.98849999999999 -1.3Q104.29399999999998 -1.625 104.29399999999998 -2.158V-2.496Q104.29399999999998 -2.626 104.42399999999998 -2.626L105.41199999999998 -2.574Q105.54199999999997 -2.574 105.54199999999997 -2.444V-2.249Q105.54199999999997 -1.183 104.89849999999998 -0.5395Q104.25499999999998 0.104 103.18899999999998 0.104Q102.13599999999998 0.104 101.49249999999998 -0.5395Q100.84899999999998 -1.183 100.84899999999998 -2.249Z M114.32599999999998 -0.11699999999999999 114.03999999999998 -1.6119999999999999Q114.03999999999998 -1.638 114.02049999999998 -1.6509999999999998Q114.00099999999999 -1.664 113.97499999999998 -1.664H111.85599999999998Q111.82999999999998 -1.664 111.81049999999999 -1.6509999999999998Q111.79099999999998 -1.638 111.79099999999998 -1.6119999999999999L111.51799999999999 -0.11699999999999999Q111.50499999999998 0.0 111.37499999999999 0.0H110.38699999999999Q110.32199999999999 0.0 110.28949999999999 -0.039Q110.25699999999999 -0.078 110.26999999999998 -0.143L112.20699999999998 -8.982999999999999Q112.23299999999999 -9.1 112.34999999999998 -9.1H113.50699999999999Q113.63699999999999 -9.1 113.64999999999999 -8.982999999999999L115.59999999999998 -0.143V-0.11699999999999999Q115.59999999999998 0.0 115.48299999999999 0.0H114.46899999999998Q114.35199999999999 0.0 114.32599999999998 -0.11699999999999999ZM112.05099999999999 -2.6519999999999997H113.77999999999999Q113.81899999999999 -2.6519999999999997 113.81899999999999 -2.7039999999999997L112.93499999999999 -7.319Q112.92199999999998 -7.345 112.90899999999999 -7.345Q112.89599999999999 -7.345 112.88299999999998 -7.319L112.01199999999999 -2.7039999999999997Q112.01199999999999 -2.6519999999999997 112.05099999999999 -2.6519999999999997Z M125.25499999999998 -6.5Q125.25499999999998 -5.356 124.65699999999998 -4.654Q124.05899999999998 -3.952 123.08399999999997 -3.952H121.86199999999998Q121.80999999999997 -3.952 121.80999999999997 -3.9V-0.13Q121.80999999999997 0.0 121.67999999999998 0.0H120.69199999999998Q120.56199999999998 0.0 120.56199999999998 -0.13V-8.982999999999999Q120.56199999999998 -9.113 120.69199999999998 -9.113H123.01899999999998Q124.01999999999998 -9.113 124.63749999999999 -8.3915Q125.25499999999998 -7.67 125.25499999999998 -6.5ZM124.00699999999998 -6.473999999999999Q124.00699999999998 -7.189 123.68199999999997 -7.6114999999999995Q123.35699999999997 -8.033999999999999 122.82399999999998 -8.033999999999999H121.86199999999998Q121.80999999999997 -8.033999999999999 121.80999999999997 -7.981999999999999V-5.005Q121.80999999999997 -4.952999999999999 121.86199999999998 -4.952999999999999H122.82399999999998Q123.35699999999997 -4.952999999999999 123.68199999999997 -5.362499999999999Q124.00699999999998 -5.771999999999999 124.00699999999998 -6.473999999999999Z M134.66299999999998 -8.020999999999999H131.73799999999997Q131.68599999999998 -8.020999999999999 131.68599999999998 -7.968999999999999V-5.148Q131.68599999999998 -5.096 131.73799999999997 -5.096H133.53199999999998Q133.66199999999998 -5.096 133.66199999999998 -4.966V-4.147Q133.66199999999998 -4.0169999999999995 133.53199999999998 -4.0169999999999995H131.73799999999997Q131.68599999999998 -4.0169999999999995 131.68599999999998 -3.965V-1.131Q131.68599999999998 -1.079 131.73799999999997 -1.079H134.66299999999998Q134.79299999999998 -1.079 134.79299999999998 -0.949V-0.13Q134.79299999999998 0.0 134.66299999999998 0.0H130.56799999999998Q130.438 0.0 130.438 -0.13V-8.969999999999999Q130.438 -9.1 130.56799999999998 -9.1H134.66299999999998Q134.79299999999998 -9.1 134.79299999999998 -8.969999999999999V-8.151Q134.79299999999998 -8.020999999999999 134.66299999999998 -8.020999999999999Z M146.47199999999998 -2.171V-6.928999999999999Q146.47199999999998 -7.9559999999999995 147.1155 -8.579999999999998Q147.759 -9.203999999999999 148.81199999999998 -9.203999999999999Q149.86499999999998 -9.203999999999999 150.515 -8.579999999999998Q151.165 -7.9559999999999995 151.165 -6.9159999999999995V-6.37Q151.165 -6.239999999999999 151.035 -6.239999999999999H150.047Q149.91699999999997 -6.239999999999999 149.91699999999997 -6.37V-6.941999999999999Q149.91699999999997 -7.475 149.61149999999998 -7.8Q149.30599999999998 -8.125 148.81199999999998 -8.125Q148.31799999999998 -8.125 148.0125 -7.8Q147.707 -7.475 147.707 -6.941999999999999V-2.158Q147.707 -1.625 148.0125 -1.3Q148.31799999999998 -0.975 148.81199999999998 -0.975Q149.30599999999998 -0.975 149.61149999999998 -1.3Q149.91699999999997 -1.625 149.91699999999997 -2.158V-3.5879999999999996Q149.91699999999997 -3.6399999999999997 149.86499999999998 -3.6399999999999997H148.87699999999998Q148.74699999999999 -3.6399999999999997 148.74699999999999 -3.77V-4.576Q148.74699999999999 -4.7059999999999995 148.87699999999998 -4.7059999999999995H151.035Q151.165 -4.7059999999999995 151.165 -4.576V-2.171Q151.165 -1.144 150.515 -0.5199999999999999Q149.86499999999998 0.104 148.81199999999998 0.104Q147.759 0.104 147.1155 -0.5199999999999999Q146.47199999999998 -1.144 146.47199999999998 -2.171Z M160.01399999999998 -0.11699999999999999 159.72799999999998 -1.6119999999999999Q159.72799999999998 -1.638 159.7085 -1.6509999999999998Q159.689 -1.664 159.66299999999998 -1.664H157.54399999999998Q157.518 -1.664 157.49849999999998 -1.6509999999999998Q157.47899999999998 -1.638 157.47899999999998 -1.6119999999999999L157.206 -0.11699999999999999Q157.19299999999998 0.0 157.063 0.0H156.075Q156.01 0.0 155.9775 -0.039Q155.945 -0.078 155.958 -0.143L157.89499999999998 -8.982999999999999Q157.921 -9.1 158.03799999999998 -9.1H159.195Q159.325 -9.1 159.338 -8.982999999999999L161.28799999999998 -0.143V-0.11699999999999999Q161.28799999999998 0.0 161.171 0.0H160.15699999999998Q160.04 0.0 160.01399999999998 -0.11699999999999999ZM157.73899999999998 -2.6519999999999997H159.468Q159.50699999999998 -2.6519999999999997 159.50699999999998 -2.7039999999999997L158.623 -7.319Q158.60999999999999 -7.345 158.59699999999998 -7.345Q158.58399999999997 -7.345 158.571 -7.319L157.7 -2.7039999999999997Q157.7 -2.6519999999999997 157.73899999999998 -2.6519999999999997Z M170.462 -9.1H171.45Q171.57999999999998 -9.1 171.57999999999998 -8.969999999999999V-0.13Q171.57999999999998 0.0 171.45 0.0H170.462Q170.332 0.0 170.332 -0.13V-6.577999999999999Q170.332 -6.617 170.3125 -6.617Q170.293 -6.617 170.267 -6.590999999999999L169.019 -4.264Q168.98 -4.173 168.902 -4.173Q168.82399999999998 -4.173 168.785 -4.264L167.54999999999998 -6.577999999999999Q167.524 -6.604 167.5045 -6.604Q167.48499999999999 -6.604 167.48499999999999 -6.5649999999999995V-0.13Q167.48499999999999 0.0 167.355 0.0H166.367Q166.237 0.0 166.237 -0.13V-8.969999999999999Q166.237 -9.1 166.367 -9.1H167.355Q167.446 -9.1 167.511 -9.009L168.876 -6.5649999999999995Q168.88899999999998 -6.552 168.915 -6.552Q168.941 -6.552 168.954 -6.5649999999999995L170.30599999999998 -9.009Q170.358 -9.1 170.462 -9.1Z M181.378 -8.020999999999999H178.45299999999997Q178.40099999999998 -8.020999999999999 178.40099999999998 -7.968999999999999V-5.148Q178.40099999999998 -5.096 178.45299999999997 -5.096H180.24699999999999Q180.37699999999998 -5.096 180.37699999999998 -4.966V-4.147Q180.37699999999998 -4.0169999999999995 180.24699999999999 -4.0169999999999995H178.45299999999997Q178.40099999999998 -4.0169999999999995 178.40099999999998 -3.965V-1.131Q178.40099999999998 -1.079 178.45299999999997 -1.079H181.378Q181.50799999999998 -1.079 181.50799999999998 -0.949V-0.13Q181.50799999999998 0.0 181.378 0.0H177.283Q177.153 0.0 177.153 -0.13V-8.969999999999999Q177.153 -9.1 177.283 -9.1H181.378Q181.50799999999998 -9.1 181.50799999999998 -8.969999999999999V-8.151Q181.50799999999998 -8.020999999999999 181.378 -8.020999999999999Z" fill="#0E0B08"/>
  </g>
  <g transform="translate(118.97, 150.00)">
    <path d="M5.031 -8.020999999999999H2.106Q2.054 -8.020999999999999 2.054 -7.968999999999999V-5.148Q2.054 -5.096 2.106 -5.096H3.9Q4.03 -5.096 4.03 -4.966V-4.147Q4.03 -4.0169999999999995 3.9 -4.0169999999999995H2.106Q2.054 -4.0169999999999995 2.054 -3.965V-1.131Q2.054 -1.079 2.106 -1.079H5.031Q5.161 -1.079 5.161 -0.949V-0.13Q5.161 0.0 5.031 0.0H0.9359999999999999Q0.8059999999999999 0.0 0.8059999999999999 -0.13V-8.969999999999999Q0.8059999999999999 -9.1 0.9359999999999999 -9.1H5.031Q5.161 -9.1 5.161 -8.969999999999999V-8.151Q5.161 -8.020999999999999 5.031 -8.020999999999999Z M10.058 -0.156 11.865 -4.511Q11.891 -4.55 11.865 -4.5889999999999995L10.058 -8.943999999999999L10.045 -8.996Q10.045 -9.1 10.161999999999999 -9.1H11.176Q11.28 -9.1 11.318999999999999 -8.996L12.501999999999999 -5.8629999999999995Q12.515 -5.824 12.541 -5.824Q12.567 -5.824 12.58 -5.8629999999999995L13.75 -8.996Q13.789 -9.1 13.893 -9.1H14.907Q14.972 -9.1 15.0045 -9.0545Q15.036999999999999 -9.009 15.011 -8.943999999999999L13.203999999999999 -4.576Q13.190999999999999 -4.537 13.203999999999999 -4.498L15.011 -0.156L15.024 -0.104Q15.024 0.0 14.907 0.0H13.905999999999999Q13.802 0.0 13.763 -0.104L12.58 -3.2239999999999998Q12.567 -3.263 12.541 -3.263Q12.515 -3.263 12.501999999999999 -3.2239999999999998L11.318999999999999 -0.104Q11.28 0.0 11.176 0.0H10.161999999999999Q10.097 0.0 10.064499999999999 -0.0455Q10.032 -0.091 10.058 -0.156Z M19.83 -3.562V-4.381Q19.83 -4.511 19.96 -4.511H23.105999999999998Q23.236 -4.511 23.236 -4.381V-3.562Q23.236 -3.432 23.105999999999998 -3.432H19.96Q19.83 -3.432 19.83 -3.562Z M30.72 0.0H28.549Q28.419 0.0 28.419 -0.13V-8.969999999999999Q28.419 -9.1 28.549 -9.1H30.538Q31.721 -9.1 32.3905 -8.4825Q33.06 -7.864999999999999 33.06 -6.6819999999999995Q33.06 -5.278 32.059 -4.745Q31.994 -4.7059999999999995 32.046 -4.68Q32.566 -4.367999999999999 32.8585 -3.8089999999999997Q33.150999999999996 -3.25 33.150999999999996 -2.483Q33.150999999999996 -1.3 32.4815 -0.65Q31.811999999999998 0.0 30.72 0.0ZM29.666999999999998 -7.968999999999999V-5.213Q29.666999999999998 -5.161 29.719 -5.161H30.551Q31.162 -5.161 31.5 -5.531499999999999Q31.838 -5.902 31.838 -6.5649999999999995Q31.838 -7.254 31.5 -7.637499999999999Q31.162 -8.020999999999999 30.551 -8.020999999999999H29.719Q29.666999999999998 -8.020999999999999 29.666999999999998 -7.968999999999999ZM31.903 -2.639Q31.903 -3.393 31.564999999999998 -3.8154999999999997Q31.227 -4.2379999999999995 30.628999999999998 -4.2379999999999995H29.719Q29.666999999999998 -4.2379999999999995 29.666999999999998 -4.186V-1.144Q29.666999999999998 -1.0919999999999999 29.719 -1.0919999999999999H30.616Q31.214 -1.0919999999999999 31.5585 -1.4949999999999999Q31.903 -1.898 31.903 -2.639Z M38.282 -2.4699999999999998V-8.969999999999999Q38.282 -9.1 38.412 -9.1H39.4Q39.529999999999994 -9.1 39.529999999999994 -8.969999999999999V-2.34Q39.529999999999994 -1.7289999999999999 39.835499999999996 -1.3519999999999999Q40.141 -0.975 40.635 -0.975Q41.141999999999996 -0.975 41.4475 -1.3519999999999999Q41.753 -1.7289999999999999 41.753 -2.34V-8.969999999999999Q41.753 -9.1 41.882999999999996 -9.1H42.870999999999995Q43.001 -9.1 43.001 -8.969999999999999V-2.4699999999999998Q43.001 -1.313 42.351 -0.6044999999999999Q41.70099999999999 0.104 40.635 0.104Q39.568999999999996 0.104 38.9255 -0.6044999999999999Q38.282 -1.313 38.282 -2.4699999999999998Z M48.119 -0.13V-1.001Q48.119 -1.066 48.157999999999994 -1.157L51.174 -7.9559999999999995Q51.187 -7.981999999999999 51.17399999999999 -8.0015Q51.160999999999994 -8.020999999999999 51.135 -8.020999999999999H48.248999999999995Q48.119 -8.020999999999999 48.119 -8.151V-8.969999999999999Q48.119 -9.1 48.248999999999995 -9.1H52.396Q52.525999999999996 -9.1 52.525999999999996 -8.969999999999999V-8.099Q52.525999999999996 -8.046999999999999 52.486999999999995 -7.943L49.458 -1.144Q49.445 -1.1179999999999999 49.458 -1.0985Q49.471 -1.079 49.497 -1.079H52.396Q52.525999999999996 -1.079 52.525999999999996 -0.949V-0.13Q52.525999999999996 0.0 52.396 0.0H48.248999999999995Q48.119 0.0 48.119 -0.13Z M57.332 -0.13V-1.001Q57.332 -1.066 57.370999999999995 -1.157L60.387 -7.9559999999999995Q60.4 -7.981999999999999 60.387 -8.0015Q60.373999999999995 -8.020999999999999 60.348 -8.020999999999999H57.461999999999996Q57.332 -8.020999999999999 57.332 -8.151V-8.969999999999999Q57.332 -9.1 57.461999999999996 -9.1H61.608999999999995Q61.739 -9.1 61.739 -8.969999999999999V-8.099Q61.739 -8.046999999999999 61.699999999999996 -7.943L58.671 -1.144Q58.658 -1.1179999999999999 58.671 -1.0985Q58.684 -1.079 58.71 -1.079H61.608999999999995Q61.739 -1.079 61.739 -0.949V-0.13Q61.739 0.0 61.608999999999995 0.0H57.461999999999996Q57.332 0.0 57.332 -0.13Z M75.017 -0.143V-3.8609999999999998L75.004 -3.9259999999999997L73.197 -8.956999999999999L73.184 -9.009Q73.184 -9.1 73.301 -9.1H74.341Q74.458 -9.1 74.497 -8.996L75.602 -5.4079999999999995Q75.615 -5.382 75.64099999999999 -5.382Q75.667 -5.382 75.68 -5.4079999999999995L76.785 -8.996Q76.824 -9.1 76.941 -9.1H77.981Q78.124 -9.1 78.08500000000001 -8.956999999999999L76.278 -3.9259999999999997L76.265 -3.8609999999999998V-0.143Q76.265 -0.013 76.135 -0.013H75.147Q75.017 -0.013 75.017 -0.143Z M83.13799999999999 -2.275V-6.811999999999999Q83.13799999999999 -7.891 83.788 -8.5475Q84.438 -9.203999999999999 85.50399999999999 -9.203999999999999Q86.583 -9.203999999999999 87.23949999999999 -8.5475Q87.896 -7.891 87.896 -6.811999999999999V-2.275Q87.896 -1.196 87.23949999999999 -0.5459999999999999Q86.583 0.104 85.50399999999999 0.104Q84.438 0.104 83.788 -0.5459999999999999Q83.13799999999999 -1.196 83.13799999999999 -2.275ZM86.648 -2.223V-6.877Q86.648 -7.436 86.336 -7.7805Q86.024 -8.125 85.50399999999999 -8.125Q84.997 -8.125 84.69149999999999 -7.7805Q84.386 -7.436 84.386 -6.877V-2.223Q84.386 -1.664 84.69149999999999 -1.3195Q84.997 -0.975 85.50399999999999 -0.975Q86.024 -0.975 86.336 -1.3195Q86.648 -1.664 86.648 -2.223Z M93.261 -2.4699999999999998V-8.969999999999999Q93.261 -9.1 93.39099999999999 -9.1H94.37899999999999Q94.509 -9.1 94.509 -8.969999999999999V-2.34Q94.509 -1.7289999999999999 94.8145 -1.3519999999999999Q95.11999999999999 -0.975 95.61399999999999 -0.975Q96.121 -0.975 96.4265 -1.3519999999999999Q96.732 -1.7289999999999999 96.732 -2.34V-8.969999999999999Q96.732 -9.1 96.862 -9.1H97.85Q97.97999999999999 -9.1 97.97999999999999 -8.969999999999999V-2.4699999999999998Q97.97999999999999 -1.313 97.32999999999998 -0.6044999999999999Q96.67999999999999 0.104 95.61399999999999 0.104Q94.548 0.104 93.9045 -0.6044999999999999Q93.261 -1.313 93.261 -2.4699999999999998Z M106.985 -0.104 105.789 -3.9779999999999998Q105.77600000000001 -4.0169999999999995 105.73700000000001 -4.0169999999999995H104.827Q104.775 -4.0169999999999995 104.775 -3.965V-0.13Q104.775 0.0 104.64500000000001 0.0H103.65700000000001Q103.527 0.0 103.527 -0.13V-8.969999999999999Q103.527 -9.1 103.65700000000001 -9.1H105.98400000000001Q106.647 -9.1 107.154 -8.774999999999999Q107.661 -8.45 107.9405 -7.858499999999999Q108.22 -7.2669999999999995 108.22 -6.513Q108.22 -5.694 107.882 -5.089499999999999Q107.544 -4.484999999999999 106.959 -4.212Q106.92 -4.173 106.933 -4.1339999999999995L108.259 -0.143L108.272 -0.091Q108.272 0.0 108.155 0.0H107.141Q107.024 0.0 106.985 -0.104ZM104.775 -7.968999999999999V-5.0569999999999995Q104.775 -5.005 104.827 -5.005H105.789Q106.322 -5.005 106.647 -5.4145Q106.97200000000001 -5.824 106.97200000000001 -6.5Q106.97200000000001 -7.202 106.647 -7.6114999999999995Q106.322 -8.020999999999999 105.789 -8.020999999999999H104.827Q104.775 -8.020999999999999 104.775 -7.968999999999999Z M122.317 0.0H120.14599999999999Q120.01599999999999 0.0 120.01599999999999 -0.13V-8.969999999999999Q120.01599999999999 -9.1 120.14599999999999 -9.1H122.13499999999999Q123.318 -9.1 123.9875 -8.4825Q124.657 -7.864999999999999 124.657 -6.6819999999999995Q124.657 -5.278 123.65599999999999 -4.745Q123.591 -4.7059999999999995 123.643 -4.68Q124.163 -4.367999999999999 124.4555 -3.8089999999999997Q124.74799999999999 -3.25 124.74799999999999 -2.483Q124.74799999999999 -1.3 124.07849999999999 -0.65Q123.40899999999999 0.0 122.317 0.0ZM121.264 -7.968999999999999V-5.213Q121.264 -5.161 121.31599999999999 -5.161H122.148Q122.759 -5.161 123.097 -5.531499999999999Q123.43499999999999 -5.902 123.43499999999999 -6.5649999999999995Q123.43499999999999 -7.254 123.097 -7.637499999999999Q122.759 -8.020999999999999 122.148 -8.020999999999999H121.31599999999999Q121.264 -8.020999999999999 121.264 -7.968999999999999ZM123.5 -2.639Q123.5 -3.393 123.162 -3.8154999999999997Q122.824 -4.2379999999999995 122.226 -4.2379999999999995H121.31599999999999Q121.264 -4.2379999999999995 121.264 -4.186V-1.144Q121.264 -1.0919999999999999 121.31599999999999 -1.0919999999999999H122.213Q122.81099999999999 -1.0919999999999999 123.15549999999999 -1.4949999999999999Q123.5 -1.898 123.5 -2.639Z M133.40200000000002 -0.104 132.20600000000002 -3.9779999999999998Q132.193 -4.0169999999999995 132.154 -4.0169999999999995H131.244Q131.192 -4.0169999999999995 131.192 -3.965V-0.13Q131.192 0.0 131.062 0.0H130.074Q129.94400000000002 0.0 129.94400000000002 -0.13V-8.969999999999999Q129.94400000000002 -9.1 130.074 -9.1H132.401Q133.064 -9.1 133.571 -8.774999999999999Q134.078 -8.45 134.35750000000002 -7.858499999999999Q134.637 -7.2669999999999995 134.637 -6.513Q134.637 -5.694 134.299 -5.089499999999999Q133.961 -4.484999999999999 133.376 -4.212Q133.33700000000002 -4.173 133.35 -4.1339999999999995L134.67600000000002 -0.143L134.689 -0.091Q134.689 0.0 134.572 0.0H133.558Q133.441 0.0 133.40200000000002 -0.104ZM131.192 -7.968999999999999V-5.0569999999999995Q131.192 -5.005 131.244 -5.005H132.20600000000002Q132.739 -5.005 133.06400000000002 -5.4145Q133.389 -5.824 133.389 -6.5Q133.389 -7.202 133.06400000000002 -7.6114999999999995Q132.739 -8.020999999999999 132.20600000000002 -8.020999999999999H131.244Q131.192 -8.020999999999999 131.192 -7.968999999999999Z M143.252 -0.11699999999999999 142.966 -1.6119999999999999Q142.966 -1.638 142.94650000000001 -1.6509999999999998Q142.92700000000002 -1.664 142.901 -1.664H140.782Q140.75600000000003 -1.664 140.73650000000004 -1.6509999999999998Q140.717 -1.638 140.717 -1.6119999999999999L140.44400000000002 -0.11699999999999999Q140.431 0.0 140.30100000000002 0.0H139.31300000000002Q139.24800000000002 0.0 139.21550000000002 -0.039Q139.18300000000002 -0.078 139.19600000000003 -0.143L141.133 -8.982999999999999Q141.15900000000002 -9.1 141.276 -9.1H142.43300000000002Q142.56300000000002 -9.1 142.57600000000002 -8.982999999999999L144.526 -0.143V-0.11699999999999999Q144.526 0.0 144.40900000000002 0.0H143.395Q143.27800000000002 0.0 143.252 -0.11699999999999999ZM140.977 -2.6519999999999997H142.70600000000002Q142.745 -2.6519999999999997 142.745 -2.7039999999999997L141.86100000000002 -7.319Q141.848 -7.345 141.835 -7.345Q141.822 -7.345 141.80900000000003 -7.319L140.93800000000002 -2.7039999999999997Q140.93800000000002 -2.6519999999999997 140.977 -2.6519999999999997Z M149.50100000000003 -0.13V-8.969999999999999Q149.50100000000003 -9.1 149.63100000000003 -9.1H150.61900000000003Q150.74900000000002 -9.1 150.74900000000002 -8.969999999999999V-0.13Q150.74900000000002 0.0 150.61900000000003 0.0H149.63100000000003Q149.50100000000003 0.0 149.50100000000003 -0.13Z M160.157 -9.1H161.132Q161.262 -9.1 161.262 -8.969999999999999V-0.13Q161.262 0.0 161.132 0.0H160.014Q159.91 0.0 159.871 -0.104L157.661 -6.045Q157.648 -6.071 157.622 -6.0645Q157.596 -6.058 157.596 -6.032L157.609 -0.13Q157.609 0.0 157.479 0.0H156.491Q156.36100000000002 0.0 156.36100000000002 -0.13V-8.969999999999999Q156.36100000000002 -9.1 156.491 -9.1H157.596Q157.70000000000002 -9.1 157.739 -8.996L159.96200000000002 -3.0549999999999997Q159.975 -3.016 160.001 -3.0225Q160.02700000000002 -3.029 160.02700000000002 -3.068V-8.969999999999999Q160.02700000000002 -9.1 160.157 -9.1Z" fill="#0E0B08"/>
  </g>
  <line x1="100" y1="165" x2="300" y2="165" stroke="#0E0B08" stroke-width="1" opacity="0.3"/>
  <g transform="translate(149.71, 175.00)">
    <path d="M3.79 -7.0H4.95Q5.0 -7.0 5.035 -6.965Q5.07 -6.93 5.07 -6.88V-0.12Q5.07 -0.07 5.035 -0.035Q5.0 0.0 4.95 0.0H3.7800000000000002Q3.73 0.0 3.6950000000000003 -0.035Q3.66 -0.07 3.66 -0.12V-4.61Q3.66 -4.65 3.64 -4.65Q3.62 -4.65 3.6 -4.62L2.82 -3.24Q2.77 -3.16 2.74 -3.16Q2.71 -3.16 2.66 -3.24L1.8800000000000001 -4.62Q1.86 -4.65 1.84 -4.65Q1.82 -4.65 1.82 -4.61V-0.12Q1.82 -0.07 1.7850000000000001 -0.035Q1.75 0.0 1.7 0.0H0.53Q0.48 0.0 0.445 -0.035Q0.41000000000000003 -0.07 0.41000000000000003 -0.12V-6.88Q0.41000000000000003 -6.93 0.445 -6.965Q0.48 -7.0 0.53 -7.0H1.68Q1.78 -7.0 1.83 -6.92L2.72 -5.33Q2.75 -5.29 2.7800000000000002 -5.33L3.64 -6.92Q3.68 -7.0 3.79 -7.0Z M14.73 -0.11 14.57 -1.07Q14.57 -1.12 14.510000000000002 -1.12H13.24Q13.18 -1.12 13.18 -1.07L13.02 -0.11Q13.01 0.0 12.89 0.0H11.72Q11.59 0.0 11.620000000000001 -0.13L13.09 -6.890000000000001Q13.110000000000001 -7.0 13.22 -7.0H14.57Q14.68 -7.0 14.700000000000001 -6.890000000000001L16.16 -0.13L16.17 -0.09Q16.17 0.0 16.060000000000002 0.0H14.86Q14.74 0.0 14.73 -0.11ZM13.42 -2.21H14.32Q14.370000000000001 -2.21 14.36 -2.2600000000000002L13.89 -4.99Q13.88 -5.0200000000000005 13.86 -5.0200000000000005Q13.84 -5.0200000000000005 13.83 -4.99L13.38 -2.2600000000000002Q13.38 -2.21 13.42 -2.21Z M22.740000000000002 -0.12V-6.88Q22.740000000000002 -6.93 22.775000000000002 -6.965Q22.810000000000002 -7.0 22.86 -7.0H24.03Q24.080000000000002 -7.0 24.115000000000002 -6.965Q24.150000000000002 -6.93 24.150000000000002 -6.88V-0.12Q24.150000000000002 -0.07 24.115000000000002 -0.035Q24.080000000000002 0.0 24.03 0.0H22.86Q22.810000000000002 0.0 22.775000000000002 -0.035Q22.740000000000002 -0.07 22.740000000000002 -0.12Z M34.02 -7.0H35.18Q35.230000000000004 -7.0 35.265 -6.965Q35.300000000000004 -6.93 35.300000000000004 -6.88V-0.12Q35.300000000000004 -0.07 35.265 -0.035Q35.230000000000004 0.0 35.18 0.0H33.86Q33.760000000000005 0.0 33.730000000000004 -0.1L32.49 -3.97Q32.480000000000004 -4.0 32.455 -3.995Q32.43 -3.99 32.43 -3.96L32.440000000000005 -0.12Q32.440000000000005 -0.07 32.405 -0.035Q32.370000000000005 0.0 32.32 0.0H31.16Q31.110000000000003 0.0 31.075000000000003 -0.035Q31.040000000000003 -0.07 31.040000000000003 -0.12V-6.88Q31.040000000000003 -6.93 31.075000000000003 -6.965Q31.110000000000003 -7.0 31.16 -7.0H32.47Q32.57 -7.0 32.6 -6.9L33.85 -3.0300000000000002Q33.86 -3.0 33.885000000000005 -3.005Q33.910000000000004 -3.0100000000000002 33.910000000000004 -3.04L33.9 -6.88Q33.9 -6.93 33.935 -6.965Q33.97 -7.0 34.02 -7.0Z M46.18 -6.88V-5.91Q46.18 -5.86 46.144999999999996 -5.825Q46.11 -5.79 46.06 -5.79H44.81Q44.760000000000005 -5.79 44.760000000000005 -5.74V-0.12Q44.760000000000005 -0.07 44.72500000000001 -0.035Q44.690000000000005 0.0 44.64 0.0H43.47Q43.42 0.0 43.385000000000005 -0.035Q43.35 -0.07 43.35 -0.12V-5.74Q43.35 -5.79 43.300000000000004 -5.79H42.1Q42.050000000000004 -5.79 42.015 -5.825Q41.980000000000004 -5.86 41.980000000000004 -5.91V-6.88Q41.980000000000004 -6.93 42.015 -6.965Q42.050000000000004 -7.0 42.1 -7.0H46.06Q46.11 -7.0 46.144999999999996 -6.965Q46.18 -6.93 46.18 -6.88Z M56.410000000000004 -5.79H54.32Q54.27 -5.79 54.27 -5.74V-4.16Q54.27 -4.11 54.32 -4.11H55.52Q55.57 -4.11 55.605000000000004 -4.075Q55.64 -4.04 55.64 -3.99V-3.02Q55.64 -2.97 55.605000000000004 -2.935Q55.57 -2.9 55.52 -2.9H54.32Q54.27 -2.9 54.27 -2.85V-1.26Q54.27 -1.21 54.32 -1.21H56.410000000000004Q56.46 -1.21 56.495000000000005 -1.175Q56.53 -1.1400000000000001 56.53 -1.09V-0.12Q56.53 -0.07 56.495000000000005 -0.035Q56.46 0.0 56.410000000000004 0.0H52.980000000000004Q52.93 0.0 52.894999999999996 -0.035Q52.86 -0.07 52.86 -0.12V-6.88Q52.86 -6.93 52.894999999999996 -6.965Q52.93 -7.0 52.980000000000004 -7.0H56.410000000000004Q56.46 -7.0 56.495000000000005 -6.965Q56.53 -6.93 56.53 -6.88V-5.91Q56.53 -5.86 56.495000000000005 -5.825Q56.46 -5.79 56.410000000000004 -5.79Z M66.22 -7.0H67.38Q67.42999999999999 -7.0 67.465 -6.965Q67.5 -6.93 67.5 -6.88V-0.12Q67.5 -0.07 67.465 -0.035Q67.42999999999999 0.0 67.38 0.0H66.06Q65.96 0.0 65.92999999999999 -0.1L64.69 -3.97Q64.67999999999999 -4.0 64.655 -3.995Q64.63 -3.99 64.63 -3.96L64.64 -0.12Q64.64 -0.07 64.60499999999999 -0.035Q64.57 0.0 64.52 0.0H63.36Q63.309999999999995 0.0 63.27499999999999 -0.035Q63.239999999999995 -0.07 63.239999999999995 -0.12V-6.88Q63.239999999999995 -6.93 63.27499999999999 -6.965Q63.309999999999995 -7.0 63.36 -7.0H64.67Q64.77 -7.0 64.8 -6.9L66.05 -3.0300000000000002Q66.06 -3.0 66.08500000000001 -3.005Q66.11 -3.0100000000000002 66.11 -3.04L66.1 -6.88Q66.1 -6.93 66.13499999999999 -6.965Q66.17 -7.0 66.22 -7.0Z M77.19 -0.11 77.03 -1.07Q77.03 -1.12 76.97 -1.12H75.7Q75.64 -1.12 75.64 -1.07L75.48 -0.11Q75.47 0.0 75.35 0.0H74.17999999999999Q74.05 0.0 74.08 -0.13L75.55 -6.890000000000001Q75.57 -7.0 75.67999999999999 -7.0H77.03Q77.14 -7.0 77.16 -6.890000000000001L78.62 -0.13L78.63 -0.09Q78.63 0.0 78.52 0.0H77.32Q77.2 0.0 77.19 -0.11ZM75.88 -2.21H76.78Q76.83 -2.21 76.82 -2.2600000000000002L76.35 -4.99Q76.34 -5.0200000000000005 76.32 -5.0200000000000005Q76.3 -5.0200000000000005 76.28999999999999 -4.99L75.84 -2.2600000000000002Q75.84 -2.21 75.88 -2.21Z M88.17999999999999 -7.0H89.33999999999999Q89.38999999999999 -7.0 89.42499999999998 -6.965Q89.46 -6.93 89.46 -6.88V-0.12Q89.46 -0.07 89.42499999999998 -0.035Q89.38999999999999 0.0 89.33999999999999 0.0H88.02Q87.91999999999999 0.0 87.88999999999999 -0.1L86.64999999999999 -3.97Q86.63999999999999 -4.0 86.61499999999998 -3.995Q86.58999999999999 -3.99 86.58999999999999 -3.96L86.6 -0.12Q86.6 -0.07 86.565 -0.035Q86.52999999999999 0.0 86.47999999999999 0.0H85.32Q85.27 0.0 85.23499999999999 -0.035Q85.19999999999999 -0.07 85.19999999999999 -0.12V-6.88Q85.19999999999999 -6.93 85.23499999999999 -6.965Q85.27 -7.0 85.32 -7.0H86.63Q86.72999999999999 -7.0 86.75999999999999 -6.9L88.00999999999999 -3.0300000000000002Q88.02 -3.0 88.04499999999999 -3.005Q88.07 -3.0100000000000002 88.07 -3.04L88.05999999999999 -6.88Q88.05999999999999 -6.93 88.095 -6.965Q88.13 -7.0 88.17999999999999 -7.0Z M100.33999999999999 -6.88V-5.91Q100.33999999999999 -5.86 100.30499999999999 -5.825Q100.27 -5.79 100.22 -5.79H98.97Q98.91999999999999 -5.79 98.91999999999999 -5.74V-0.12Q98.91999999999999 -0.07 98.88499999999999 -0.035Q98.85 0.0 98.8 0.0H97.63Q97.58 0.0 97.54499999999999 -0.035Q97.50999999999999 -0.07 97.50999999999999 -0.12V-5.74Q97.50999999999999 -5.79 97.46 -5.79H96.25999999999999Q96.21 -5.79 96.17499999999998 -5.825Q96.13999999999999 -5.86 96.13999999999999 -5.91V-6.88Q96.13999999999999 -6.93 96.17499999999998 -6.965Q96.21 -7.0 96.25999999999999 -7.0H100.22Q100.27 -7.0 100.30499999999999 -6.965Q100.33999999999999 -6.93 100.33999999999999 -6.88Z" fill="#0E0B08"/>
  </g>
  <g transform="translate(118.49, 215.00)">
    <path d="M0.72 -7.055999999999999V-18.18Q0.72 -21.528 2.88 -23.508Q5.04 -25.488 8.604 -25.488Q10.943999999999999 -25.488 12.725999999999999 -24.588Q14.508 -23.688 15.498 -22.014Q16.488 -20.34 16.488 -18.107999999999997V-16.919999999999998Q16.488 -16.668 16.344 -16.524Q16.2 -16.38 15.947999999999999 -16.38H10.26Q10.008 -16.38 9.863999999999999 -16.524Q9.719999999999999 -16.668 9.719999999999999 -16.919999999999998V-18.18Q9.719999999999999 -18.863999999999997 9.413999999999998 -19.278Q9.107999999999999 -19.692 8.604 -19.692Q8.1 -19.692 7.794 -19.278Q7.4879999999999995 -18.863999999999997 7.4879999999999995 -18.18V-7.02Q7.4879999999999995 -6.335999999999999 7.794 -5.922Q8.1 -5.508 8.604 -5.508Q9.107999999999999 -5.508 9.413999999999998 -5.922Q9.719999999999999 -6.335999999999999 9.719999999999999 -7.02V-8.783999999999999Q9.719999999999999 -9.0 9.504 -9.0H9.216Q8.963999999999999 -9.0 8.82 -9.143999999999998Q8.676 -9.287999999999998 8.676 -9.54V-13.68Q8.676 -13.931999999999999 8.82 -14.075999999999999Q8.963999999999999 -14.219999999999999 9.216 -14.219999999999999H15.947999999999999Q16.2 -14.219999999999999 16.344 -14.075999999999999Q16.488 -13.931999999999999 16.488 -13.68V-7.055999999999999Q16.488 -4.859999999999999 15.498 -3.1859999999999995Q14.508 -1.5119999999999998 12.725999999999999 -0.6119999999999999Q10.943999999999999 0.288 8.604 0.288Q5.04 0.288 2.88 -1.71Q0.72 -3.7079999999999997 0.72 -7.055999999999999Z M26.907999999999998 -0.504 26.511999999999997 -3.2039999999999997Q26.511999999999997 -3.276 26.439999999999998 -3.348Q26.367999999999995 -3.42 26.259999999999998 -3.42H23.092Q22.983999999999998 -3.42 22.912 -3.348Q22.839999999999996 -3.276 22.839999999999996 -3.2039999999999997L22.479999999999997 -0.504Q22.444 0.0 21.903999999999996 0.0H16.252Q15.675999999999998 0.0 15.783999999999999 -0.576L20.895999999999997 -24.732Q21.003999999999998 -25.2 21.508 -25.2H28.059999999999995Q28.564 -25.2 28.671999999999997 -24.732L33.78399999999999 -0.576V-0.43199999999999994Q33.78399999999999 0.0 33.28 0.0H27.483999999999998Q26.943999999999996 0.0 26.907999999999998 -0.504ZM23.811999999999998 -8.604H25.503999999999998Q25.756 -8.604 25.683999999999997 -8.819999999999999L24.711999999999996 -15.299999999999999Q24.676 -15.443999999999999 24.604 -15.443999999999999Q24.531999999999996 -15.443999999999999 24.495999999999995 -15.299999999999999L23.631999999999998 -8.819999999999999Q23.631999999999998 -8.604 23.811999999999998 -8.604Z M45.788 -25.2H51.403999999999996Q51.65599999999999 -25.2 51.8 -25.055999999999997Q51.943999999999996 -24.912 51.943999999999996 -24.659999999999997V-0.5399999999999999Q51.943999999999996 -0.288 51.8 -0.144Q51.65599999999999 0.0 51.403999999999996 0.0H45.715999999999994Q45.464 0.0 45.31999999999999 -0.144Q45.175999999999995 -0.288 45.175999999999995 -0.5399999999999999V-15.191999999999998Q45.175999999999995 -15.335999999999999 45.086 -15.372Q44.995999999999995 -15.408 44.924 -15.264L42.872 -11.808L42.512 -11.159999999999998H42.476L40.099999999999994 -15.264Q40.028 -15.408 39.938 -15.389999999999999Q39.848 -15.371999999999998 39.848 -15.191999999999998V-0.5399999999999999Q39.848 -0.288 39.70399999999999 -0.144Q39.559999999999995 0.0 39.308 0.0H33.62Q33.367999999999995 0.0 33.224 -0.144Q33.08 -0.288 33.08 -0.5399999999999999V-24.659999999999997Q33.08 -24.912 33.224 -25.055999999999997Q33.367999999999995 -25.2 33.62 -25.2H39.236Q39.70399999999999 -25.2 39.884 -24.804L42.403999999999996 -20.195999999999998Q42.476 -20.087999999999997 42.566 -20.07Q42.656 -20.052 42.69199999999999 -20.195999999999998L45.14 -24.804Q45.355999999999995 -25.2 45.788 -25.2Z M65.496 -19.404H58.62Q58.403999999999996 -19.404 58.403999999999996 -19.188V-15.732Q58.403999999999996 -15.515999999999998 58.62 -15.515999999999998H62.184Q62.43599999999999 -15.515999999999998 62.58 -15.371999999999998Q62.724 -15.227999999999998 62.724 -14.975999999999999V-10.26Q62.724 -10.008 62.58 -9.863999999999999Q62.43599999999999 -9.719999999999999 62.184 -9.719999999999999H58.62Q58.403999999999996 -9.719999999999999 58.403999999999996 -9.504V-6.012Q58.403999999999996 -5.795999999999999 58.62 -5.795999999999999H65.496Q65.74799999999999 -5.795999999999999 65.892 -5.651999999999999Q66.036 -5.508 66.036 -5.255999999999999V-0.5399999999999999Q66.036 -0.288 65.892 -0.144Q65.74799999999999 0.0 65.496 0.0H52.175999999999995Q51.92399999999999 0.0 51.779999999999994 -0.144Q51.635999999999996 -0.288 51.635999999999996 -0.5399999999999999V-24.659999999999997Q51.635999999999996 -24.912 51.779999999999994 -25.055999999999997Q51.92399999999999 -25.2 52.175999999999995 -25.2H65.496Q65.74799999999999 -25.2 65.892 -25.055999999999997Q66.036 -24.912 66.036 -24.659999999999997V-19.944Q66.036 -19.692 65.892 -19.548000000000002Q65.74799999999999 -19.404 65.496 -19.404Z" fill="#0E0B08"/>
    <path d="M67.52799999999999 -0.36V-24.84Q67.52799999999999 -25.2 67.88799999999999 -25.2H73.17999999999999Q75.844 -25.2 77.392 -23.418Q78.94 -21.636 78.94 -18.575999999999997V-6.624Q78.94 -3.5639999999999996 77.392 -1.7819999999999998Q75.844 0.0 73.17999999999999 0.0H67.88799999999999Q67.52799999999999 0.0 67.52799999999999 -0.36ZM69.58 -1.692H73.17999999999999Q74.944 -1.7279999999999998 75.97 -3.042Q76.996 -4.356 76.996 -6.659999999999999V-18.503999999999998Q76.996 -20.843999999999998 75.97 -22.176Q74.944 -23.508 73.14399999999999 -23.508H69.58Q69.43599999999999 -23.508 69.43599999999999 -23.363999999999997V-1.8359999999999999Q69.43599999999999 -1.692 69.58 -1.692Z M81.548 -5.76V-19.404Q81.548 -22.139999999999997 83.168 -23.814Q84.78800000000001 -25.488 87.452 -25.488Q90.116 -25.488 91.77199999999999 -23.814Q93.428 -22.139999999999997 93.428 -19.404V-5.76Q93.428 -3.0599999999999996 91.77199999999999 -1.386Q90.116 0.288 87.452 0.288Q84.824 0.288 83.186 -1.386Q81.548 -3.0599999999999996 81.548 -5.76ZM91.52000000000001 -5.688V-19.476Q91.52000000000001 -21.383999999999997 90.38600000000001 -22.589999999999996Q89.25200000000001 -23.796 87.452 -23.796Q85.688 -23.796 84.572 -22.589999999999996Q83.456 -21.383999999999997 83.456 -19.476V-5.688Q83.456 -3.78 84.572 -2.5919999999999996Q85.688 -1.404 87.452 -1.404Q89.25200000000001 -1.404 90.38600000000001 -2.5919999999999996Q91.52000000000001 -3.78 91.52000000000001 -5.688Z M95.78399999999999 -5.76V-19.404Q95.78399999999999 -22.139999999999997 97.404 -23.814Q99.024 -25.488 101.68799999999999 -25.488Q104.35199999999999 -25.488 106.00799999999998 -23.814Q107.66399999999999 -22.139999999999997 107.66399999999999 -19.404V-5.76Q107.66399999999999 -3.0599999999999996 106.00799999999998 -1.386Q104.35199999999999 0.288 101.68799999999999 0.288Q99.05999999999999 0.288 97.422 -1.386Q95.78399999999999 -3.0599999999999996 95.78399999999999 -5.76ZM105.756 -5.688V-19.476Q105.756 -21.383999999999997 104.622 -22.589999999999996Q103.488 -23.796 101.68799999999999 -23.796Q99.92399999999999 -23.796 98.80799999999999 -22.589999999999996Q97.692 -21.383999999999997 97.692 -19.476V-5.688Q97.692 -3.78 98.80799999999999 -2.5919999999999996Q99.92399999999999 -1.404 101.68799999999999 -1.404Q103.488 -1.404 104.622 -2.5919999999999996Q105.756 -3.78 105.756 -5.688Z M120.38799999999998 -0.288 116.42799999999998 -11.7Q116.39199999999998 -11.808 116.28399999999998 -11.808H112.71999999999998Q112.57599999999998 -11.808 112.57599999999998 -11.664V-0.36Q112.57599999999998 0.0 112.21599999999998 0.0H111.02799999999998Q110.66799999999998 0.0 110.66799999999998 -0.36V-24.84Q110.66799999999998 -25.2 111.02799999999998 -25.2H116.60799999999998Q119.12799999999999 -25.2 120.67599999999999 -23.328Q122.22399999999999 -21.456 122.22399999999999 -18.432Q122.22399999999999 -16.02 121.17999999999998 -14.328Q120.13599999999998 -12.636 118.33599999999998 -12.024Q118.19199999999998 -11.988 118.22799999999998 -11.844L122.29599999999998 -0.39599999999999996L122.33199999999998 -0.252Q122.33199999999998 0.0 122.00799999999998 0.0H120.81999999999998Q120.49599999999998 0.0 120.38799999999998 -0.288ZM112.57599999999998 -23.363999999999997V-13.536Q112.57599999999998 -13.392 112.71999999999998 -13.392H116.39199999999998Q118.15599999999998 -13.392 119.23599999999999 -14.777999999999999Q120.31599999999999 -16.163999999999998 120.31599999999999 -18.432Q120.31599999999999 -20.735999999999997 119.23599999999999 -22.122Q118.15599999999998 -23.508 116.39199999999998 -23.508H112.71999999999998Q112.57599999999998 -23.508 112.57599999999998 -23.363999999999997Z" fill="#0E0B08"/>
  </g>
  <circle cx="247.77" cy="204.20" r="2.88" fill="#0E0B08"/>
  <g transform="translate(253.53, 215.00)">
    <path d="M18.791999999999998 -11.591999999999999V-6.552Q18.791999999999998 -6.3 18.647999999999996 -6.156Q18.503999999999998 -6.012 18.252 -6.012H17.171999999999997Q16.956 -6.012 16.956 -5.795999999999999V-0.5399999999999999Q16.956 -0.288 16.811999999999998 -0.144Q16.668 0.0 16.416 0.0H10.728Q10.475999999999999 0.0 10.331999999999999 -0.144Q10.187999999999999 -0.288 10.187999999999999 -0.5399999999999999V-5.795999999999999Q10.187999999999999 -6.012 9.972 -6.012H0.828Q0.576 -6.012 0.43199999999999994 -6.156Q0.288 -6.3 0.288 -6.552V-10.548Q0.288 -10.872 0.39599999999999996 -11.196L4.752 -24.767999999999997Q4.896 -25.2 5.364 -25.2H11.447999999999999Q11.735999999999999 -25.2 11.861999999999998 -25.037999999999997Q11.988 -24.875999999999998 11.915999999999999 -24.587999999999997L8.208 -12.383999999999999Q8.171999999999999 -12.132 8.388 -12.132H9.972Q10.187999999999999 -12.132 10.187999999999999 -12.347999999999999V-14.796Q10.187999999999999 -15.047999999999998 10.331999999999999 -15.191999999999998Q10.475999999999999 -15.335999999999999 10.728 -15.335999999999999H16.416Q16.668 -15.335999999999999 16.811999999999998 -15.191999999999998Q16.956 -15.047999999999998 16.956 -14.796V-12.347999999999999Q16.956 -12.132 17.171999999999997 -12.132H18.252Q18.503999999999998 -12.132 18.647999999999996 -11.988Q18.791999999999998 -11.844 18.791999999999998 -11.591999999999999Z M20.823999999999998 -25.2H26.727999999999998Q26.979999999999997 -25.2 27.123999999999995 -25.055999999999997Q27.267999999999997 -24.912 27.267999999999997 -24.659999999999997V-0.5399999999999999Q27.267999999999997 -0.288 27.123999999999995 -0.144Q26.979999999999997 0.0 26.727999999999998 0.0H21.04Q20.787999999999997 0.0 20.644 -0.144Q20.5 -0.288 20.5 -0.5399999999999999V-18.828Q20.5 -19.043999999999997 20.284 -19.043999999999997H17.907999999999998Q17.656 -19.043999999999997 17.512 -19.187999999999995Q17.368 -19.331999999999997 17.368 -19.584V-23.759999999999998Q17.368 -24.227999999999998 17.799999999999997 -24.372L20.176 -25.092Q20.5 -25.2 20.823999999999998 -25.2Z" fill="#0E0B08"/>
  </g>
  <line x1="100" y1="235" x2="300" y2="235" stroke="#0E0B08" stroke-width="1" opacity="0.3"/>
  <g transform="translate(109.98, 260.00)">
    <path d="M3.85 -7.0H4.61Q4.71 -7.0 4.71 -6.9V-0.1Q4.71 0.0 4.61 0.0H3.85Q3.75 0.0 3.75 -0.1V-5.0600000000000005Q3.75 -5.09 3.7350000000000003 -5.09Q3.72 -5.09 3.7 -5.07L2.74 -3.2800000000000002Q2.71 -3.21 2.65 -3.21Q2.59 -3.21 2.56 -3.2800000000000002L1.61 -5.0600000000000005Q1.59 -5.08 1.5750000000000002 -5.08Q1.56 -5.08 1.56 -5.05V-0.1Q1.56 0.0 1.46 0.0H0.7000000000000001Q0.6 0.0 0.6 -0.1V-6.9Q0.6 -7.0 0.7000000000000001 -7.0H1.46Q1.53 -7.0 1.58 -6.93L2.63 -5.05Q2.64 -5.04 2.66 -5.04Q2.68 -5.04 2.69 -5.05L3.73 -6.93Q3.77 -7.0 3.85 -7.0Z M12.170000000000002 -6.17H9.920000000000002Q9.88 -6.17 9.88 -6.13V-3.96Q9.88 -3.92 9.920000000000002 -3.92H11.3Q11.4 -3.92 11.4 -3.8200000000000003V-3.19Q11.4 -3.09 11.3 -3.09H9.920000000000002Q9.88 -3.09 9.88 -3.0500000000000003V-0.87Q9.88 -0.8300000000000001 9.920000000000002 -0.8300000000000001H12.170000000000002Q12.270000000000001 -0.8300000000000001 12.270000000000001 -0.73V-0.1Q12.270000000000001 0.0 12.170000000000002 0.0H9.020000000000001Q8.92 0.0 8.92 -0.1V-6.9Q8.92 -7.0 9.020000000000001 -7.0H12.170000000000002Q12.270000000000001 -7.0 12.270000000000001 -6.9V-6.2700000000000005Q12.270000000000001 -6.17 12.170000000000002 -6.17Z M19.470000000000002 -7.0H20.23Q20.330000000000002 -7.0 20.330000000000002 -6.9V-0.1Q20.330000000000002 0.0 20.23 0.0H19.470000000000002Q19.37 0.0 19.37 -0.1V-5.0600000000000005Q19.37 -5.09 19.355 -5.09Q19.34 -5.09 19.32 -5.07L18.36 -3.2800000000000002Q18.330000000000002 -3.21 18.27 -3.21Q18.21 -3.21 18.18 -3.2800000000000002L17.23 -5.0600000000000005Q17.21 -5.08 17.195 -5.08Q17.18 -5.08 17.18 -5.05V-0.1Q17.18 0.0 17.080000000000002 0.0H16.32Q16.220000000000002 0.0 16.220000000000002 -0.1V-6.9Q16.220000000000002 -7.0 16.32 -7.0H17.080000000000002Q17.150000000000002 -7.0 17.200000000000003 -6.93L18.25 -5.05Q18.26 -5.04 18.28 -5.04Q18.3 -5.04 18.310000000000002 -5.05L19.35 -6.93Q19.39 -7.0 19.470000000000002 -7.0Z M27.790000000000003 -6.17H25.540000000000003Q25.5 -6.17 25.5 -6.13V-3.96Q25.5 -3.92 25.540000000000003 -3.92H26.92Q27.020000000000003 -3.92 27.020000000000003 -3.8200000000000003V-3.19Q27.020000000000003 -3.09 26.92 -3.09H25.540000000000003Q25.5 -3.09 25.5 -3.0500000000000003V-0.87Q25.5 -0.8300000000000001 25.540000000000003 -0.8300000000000001H27.790000000000003Q27.89 -0.8300000000000001 27.89 -0.73V-0.1Q27.89 0.0 27.790000000000003 0.0H24.64Q24.540000000000003 0.0 24.540000000000003 -0.1V-6.9Q24.540000000000003 -7.0 24.64 -7.0H27.790000000000003Q27.89 -7.0 27.89 -6.9V-6.2700000000000005Q27.89 -6.17 27.790000000000003 -6.17Z M39.49 -0.09 39.27 -1.24Q39.27 -1.26 39.255 -1.27Q39.24 -1.28 39.22 -1.28H37.59Q37.57 -1.28 37.555 -1.27Q37.54 -1.26 37.54 -1.24L37.330000000000005 -0.09Q37.32 0.0 37.22 0.0H36.46Q36.410000000000004 0.0 36.385000000000005 -0.03Q36.36 -0.06 36.370000000000005 -0.11L37.86 -6.91Q37.88 -7.0 37.97 -7.0H38.86Q38.96 -7.0 38.97 -6.91L40.47 -0.11V-0.09Q40.47 0.0 40.38 0.0H39.6Q39.510000000000005 0.0 39.49 -0.09ZM37.74 -2.04H39.07Q39.1 -2.04 39.1 -2.08L38.42 -5.63Q38.410000000000004 -5.65 38.400000000000006 -5.65Q38.39 -5.65 38.38 -5.63L37.71 -2.08Q37.71 -2.04 37.74 -2.04Z M44.22 -0.1V-6.9Q44.22 -7.0 44.32 -7.0H45.96Q46.79 -7.0 47.28 -6.49Q47.77 -5.98 47.77 -5.11V-1.8900000000000001Q47.77 -1.02 47.28 -0.51Q46.79 0.0 45.96 0.0H44.32Q44.22 0.0 44.22 -0.1ZM45.22 -0.8300000000000001 45.95 -0.84Q46.33 -0.84 46.56 -1.135Q46.79 -1.43 46.800000000000004 -1.94V-5.0600000000000005Q46.800000000000004 -5.57 46.57000000000001 -5.87Q46.34 -6.17 45.95 -6.17H45.22Q45.18 -6.17 45.18 -6.13V-0.87Q45.18 -0.8300000000000001 45.22 -0.8300000000000001Z M54.57 -0.08 53.65 -3.06Q53.64 -3.09 53.61 -3.09H52.91Q52.87 -3.09 52.87 -3.0500000000000003V-0.1Q52.87 0.0 52.769999999999996 0.0H52.01Q51.91 0.0 51.91 -0.1V-6.9Q51.91 -7.0 52.01 -7.0H53.8Q54.31 -7.0 54.7 -6.75Q55.089999999999996 -6.5 55.30499999999999 -6.045Q55.519999999999996 -5.59 55.519999999999996 -5.01Q55.519999999999996 -4.38 55.26 -3.915Q55.0 -3.45 54.55 -3.24Q54.519999999999996 -3.21 54.53 -3.18L55.55 -0.11L55.56 -0.07Q55.56 0.0 55.47 0.0H54.69Q54.6 0.0 54.57 -0.08ZM52.87 -6.13V-3.89Q52.87 -3.85 52.91 -3.85H53.65Q54.06 -3.85 54.31 -4.165Q54.56 -4.48 54.56 -5.0Q54.56 -5.54 54.31 -5.855Q54.06 -6.17 53.65 -6.17H52.91Q52.87 -6.17 52.87 -6.13Z M62.69 -6.17H60.44Q60.4 -6.17 60.4 -6.13V-3.96Q60.4 -3.92 60.44 -3.92H61.82Q61.92 -3.92 61.92 -3.8200000000000003V-3.19Q61.92 -3.09 61.82 -3.09H60.44Q60.4 -3.09 60.4 -3.0500000000000003V-0.87Q60.4 -0.8300000000000001 60.44 -0.8300000000000001H62.69Q62.79 -0.8300000000000001 62.79 -0.73V-0.1Q62.79 0.0 62.69 0.0H59.54Q59.44 0.0 59.44 -0.1V-6.9Q59.44 -7.0 59.54 -7.0H62.69Q62.79 -7.0 62.79 -6.9V-6.2700000000000005Q62.79 -6.17 62.69 -6.17Z M66.52 -1.71V-1.97Q66.52 -2.07 66.62 -2.07H67.36Q67.46 -2.07 67.46 -1.97V-1.76Q67.46 -1.3 67.69 -1.025Q67.92 -0.75 68.28 -0.75Q68.64 -0.75 68.875 -1.0150000000000001Q69.11 -1.28 69.11 -1.71Q69.11 -2.0 68.985 -2.2199999999999998Q68.86 -2.44 68.655 -2.615Q68.45 -2.79 67.99 -3.13Q67.48 -3.5100000000000002 67.19 -3.7800000000000002Q66.9 -4.05 66.7 -4.43Q66.5 -4.8100000000000005 66.5 -5.32Q66.5 -6.13 66.97999999999999 -6.605Q67.46 -7.08 68.23 -7.08Q69.03 -7.08 69.515 -6.57Q70.0 -6.0600000000000005 70.0 -5.23V-4.98Q70.0 -4.88 69.9 -4.88H69.16Q69.06 -4.88 69.06 -4.98V-5.25Q69.06 -5.7 68.83 -5.975Q68.6 -6.25 68.23 -6.25Q67.88 -6.25 67.66 -6.005Q67.44 -5.76 67.44 -5.32Q67.44 -4.92 67.66 -4.645Q67.88 -4.37 68.51 -3.91Q69.11 -3.46 69.41499999999999 -3.1799999999999997Q69.72 -2.9 69.88499999999999 -2.565Q70.05 -2.23 70.05 -1.77Q70.05 -0.93 69.56 -0.42500000000000004Q69.07000000000001 0.08 68.28 0.08Q67.49 0.08 67.005 -0.41500000000000004Q66.52 -0.91 66.52 -1.71Z M73.78 -1.71V-1.97Q73.78 -2.07 73.88000000000001 -2.07H74.62Q74.72 -2.07 74.72 -1.97V-1.76Q74.72 -1.3 74.95 -1.025Q75.18 -0.75 75.54 -0.75Q75.9 -0.75 76.135 -1.0150000000000001Q76.37 -1.28 76.37 -1.71Q76.37 -2.0 76.245 -2.2199999999999998Q76.12 -2.44 75.915 -2.615Q75.71000000000001 -2.79 75.25 -3.13Q74.74000000000001 -3.5100000000000002 74.45000000000002 -3.7800000000000002Q74.16000000000001 -4.05 73.96000000000001 -4.43Q73.76 -4.8100000000000005 73.76 -5.32Q73.76 -6.13 74.24000000000001 -6.605Q74.72 -7.08 75.49000000000001 -7.08Q76.29 -7.08 76.775 -6.57Q77.26 -6.0600000000000005 77.26 -5.23V-4.98Q77.26 -4.88 77.16000000000001 -4.88H76.42Q76.32000000000001 -4.88 76.32000000000001 -4.98V-5.25Q76.32000000000001 -5.7 76.09 -5.975Q75.86 -6.25 75.49000000000001 -6.25Q75.14 -6.25 74.92 -6.005Q74.7 -5.76 74.7 -5.32Q74.7 -4.92 74.92 -4.645Q75.14 -4.37 75.77000000000001 -3.91Q76.37 -3.46 76.67500000000001 -3.1799999999999997Q76.98 -2.9 77.14500000000001 -2.565Q77.31 -2.23 77.31 -1.77Q77.31 -0.93 76.82000000000001 -0.42500000000000004Q76.33000000000001 0.08 75.54 0.08Q74.75 0.08 74.265 -0.41500000000000004Q73.78 -0.91 73.78 -1.71Z M84.53000000000002 -6.17H82.28000000000002Q82.24000000000001 -6.17 82.24000000000001 -6.13V-3.96Q82.24000000000001 -3.92 82.28000000000002 -3.92H83.66000000000001Q83.76 -3.92 83.76 -3.8200000000000003V-3.19Q83.76 -3.09 83.66000000000001 -3.09H82.28000000000002Q82.24000000000001 -3.09 82.24000000000001 -3.0500000000000003V-0.87Q82.24000000000001 -0.8300000000000001 82.28000000000002 -0.8300000000000001H84.53000000000002Q84.63000000000001 -0.8300000000000001 84.63000000000001 -0.73V-0.1Q84.63000000000001 0.0 84.53000000000002 0.0H81.38000000000001Q81.28000000000002 0.0 81.28000000000002 -0.1V-6.9Q81.28000000000002 -7.0 81.38000000000001 -7.0H84.53000000000002Q84.63000000000001 -7.0 84.63000000000001 -6.9V-6.2700000000000005Q84.63000000000001 -6.17 84.53000000000002 -6.17Z M93.27000000000002 -2.74V-3.37Q93.27000000000002 -3.47 93.37000000000002 -3.47H95.79000000000002Q95.89000000000001 -3.47 95.89000000000001 -3.37V-2.74Q95.89000000000001 -2.64 95.79000000000002 -2.64H93.37000000000002Q93.27000000000002 -2.64 93.27000000000002 -2.74Z M108.03000000000002 -7.0H108.79000000000002Q108.89000000000001 -7.0 108.89000000000001 -6.9V-0.1Q108.89000000000001 0.0 108.79000000000002 0.0H108.03000000000002Q107.93000000000002 0.0 107.93000000000002 -0.1V-5.0600000000000005Q107.93000000000002 -5.09 107.91500000000002 -5.09Q107.90000000000002 -5.09 107.88000000000002 -5.07L106.92000000000002 -3.2800000000000002Q106.89000000000001 -3.21 106.83000000000003 -3.21Q106.77000000000002 -3.21 106.74000000000002 -3.2800000000000002L105.79000000000002 -5.0600000000000005Q105.77000000000002 -5.08 105.75500000000002 -5.08Q105.74000000000002 -5.08 105.74000000000002 -5.05V-0.1Q105.74000000000002 0.0 105.64000000000001 0.0H104.88000000000002Q104.78000000000002 0.0 104.78000000000002 -0.1V-6.9Q104.78000000000002 -7.0 104.88000000000002 -7.0H105.64000000000001Q105.71000000000002 -7.0 105.76000000000002 -6.93L106.81000000000002 -5.05Q106.82000000000002 -5.04 106.84000000000003 -5.04Q106.86000000000003 -5.04 106.87000000000002 -5.05L107.91000000000003 -6.93Q107.95000000000002 -7.0 108.03000000000002 -7.0Z M116.35000000000002 -6.17H114.10000000000002Q114.06000000000002 -6.17 114.06000000000002 -6.13V-3.96Q114.06000000000002 -3.92 114.10000000000002 -3.92H115.48000000000002Q115.58000000000001 -3.92 115.58000000000001 -3.8200000000000003V-3.19Q115.58000000000001 -3.09 115.48000000000002 -3.09H114.10000000000002Q114.06000000000002 -3.09 114.06000000000002 -3.0500000000000003V-0.87Q114.06000000000002 -0.8300000000000001 114.10000000000002 -0.8300000000000001H116.35000000000002Q116.45000000000002 -0.8300000000000001 116.45000000000002 -0.73V-0.1Q116.45000000000002 0.0 116.35000000000002 0.0H113.20000000000002Q113.10000000000002 0.0 113.10000000000002 -0.1V-6.9Q113.10000000000002 -7.0 113.20000000000002 -7.0H116.35000000000002Q116.45000000000002 -7.0 116.45000000000002 -6.9V-6.2700000000000005Q116.45000000000002 -6.17 116.35000000000002 -6.17Z M123.65 -7.0H124.41000000000001Q124.51 -7.0 124.51 -6.9V-0.1Q124.51 0.0 124.41000000000001 0.0H123.65Q123.55000000000001 0.0 123.55000000000001 -0.1V-5.0600000000000005Q123.55000000000001 -5.09 123.53500000000001 -5.09Q123.52000000000001 -5.09 123.50000000000001 -5.07L122.54 -3.2800000000000002Q122.51 -3.21 122.45000000000002 -3.21Q122.39000000000001 -3.21 122.36000000000001 -3.2800000000000002L121.41000000000001 -5.0600000000000005Q121.39000000000001 -5.08 121.37500000000001 -5.08Q121.36000000000001 -5.08 121.36000000000001 -5.05V-0.1Q121.36000000000001 0.0 121.26 0.0H120.50000000000001Q120.4 0.0 120.4 -0.1V-6.9Q120.4 -7.0 120.50000000000001 -7.0H121.26Q121.33000000000001 -7.0 121.38000000000001 -6.93L122.43 -5.05Q122.44000000000001 -5.04 122.46000000000001 -5.04Q122.48000000000002 -5.04 122.49000000000001 -5.05L123.53000000000002 -6.93Q123.57000000000001 -7.0 123.65 -7.0Z M131.97000000000003 -6.17H129.72000000000003Q129.68000000000004 -6.17 129.68000000000004 -6.13V-3.96Q129.68000000000004 -3.92 129.72000000000003 -3.92H131.10000000000002Q131.20000000000002 -3.92 131.20000000000002 -3.8200000000000003V-3.19Q131.20000000000002 -3.09 131.10000000000002 -3.09H129.72000000000003Q129.68000000000004 -3.09 129.68000000000004 -3.0500000000000003V-0.87Q129.68000000000004 -0.8300000000000001 129.72000000000003 -0.8300000000000001H131.97000000000003Q132.07000000000002 -0.8300000000000001 132.07000000000002 -0.73V-0.1Q132.07000000000002 0.0 131.97000000000003 0.0H128.82000000000002Q128.72000000000003 0.0 128.72000000000003 -0.1V-6.9Q128.72000000000003 -7.0 128.82000000000002 -7.0H131.97000000000003Q132.07000000000002 -7.0 132.07000000000002 -6.9V-6.2700000000000005Q132.07000000000002 -6.17 131.97000000000003 -6.17Z M144.29000000000002 -6.17H142.04000000000002Q142.00000000000003 -6.17 142.00000000000003 -6.13V-3.96Q142.00000000000003 -3.92 142.04000000000002 -3.92H143.42000000000002Q143.52 -3.92 143.52 -3.8200000000000003V-3.19Q143.52 -3.09 143.42000000000002 -3.09H142.04000000000002Q142.00000000000003 -3.09 142.00000000000003 -3.0500000000000003V-0.87Q142.00000000000003 -0.8300000000000001 142.04000000000002 -0.8300000000000001H144.29000000000002Q144.39000000000001 -0.8300000000000001 144.39000000000001 -0.73V-0.1Q144.39000000000001 0.0 144.29000000000002 0.0H141.14000000000001Q141.04000000000002 0.0 141.04000000000002 -0.1V-6.9Q141.04000000000002 -7.0 141.14000000000001 -7.0H144.29000000000002Q144.39000000000001 -7.0 144.39000000000001 -6.9V-6.2700000000000005Q144.39000000000001 -6.17 144.29000000000002 -6.17Z M151.76000000000002 -5.2V-1.8Q151.76000000000002 -1.11 151.42000000000002 -0.625Q151.08 -0.14 150.5 0.01Q150.47 0.03 150.47 0.06V0.99Q150.47 1.09 150.37 1.09H149.60000000000002Q149.5 1.09 149.5 0.99V0.06Q149.5 0.03 149.47 0.01Q148.89000000000001 -0.15 148.555 -0.63Q148.22 -1.11 148.22 -1.8V-5.2Q148.22 -6.04 148.71 -6.5600000000000005Q149.20000000000002 -7.08 149.99 -7.08Q150.78 -7.08 151.27 -6.5600000000000005Q151.76000000000002 -6.04 151.76000000000002 -5.2ZM150.8 -5.3Q150.8 -5.72 150.57500000000002 -5.984999999999999Q150.35000000000002 -6.25 149.99 -6.25Q149.63 -6.25 149.405 -5.984999999999999Q149.18 -5.72 149.18 -5.3V-1.7Q149.18 -1.28 149.405 -1.0150000000000001Q149.63 -0.75 149.99 -0.75Q150.35000000000002 -0.75 150.57500000000002 -1.0150000000000001Q150.8 -1.28 150.8 -1.7Z M155.81 -1.9000000000000001V-6.9Q155.81 -7.0 155.91 -7.0H156.67000000000002Q156.77 -7.0 156.77 -6.9V-1.8Q156.77 -1.33 157.005 -1.04Q157.24 -0.75 157.62 -0.75Q158.01000000000002 -0.75 158.245 -1.04Q158.48000000000002 -1.33 158.48000000000002 -1.8V-6.9Q158.48000000000002 -7.0 158.58 -7.0H159.34Q159.44 -7.0 159.44 -6.9V-1.9000000000000001Q159.44 -1.01 158.94 -0.465Q158.44 0.08 157.62 0.08Q156.8 0.08 156.305 -0.465Q155.81 -1.01 155.81 -1.9000000000000001Z M163.63000000000002 -0.1V-6.9Q163.63000000000002 -7.0 163.73000000000002 -7.0H164.49Q164.59000000000003 -7.0 164.59000000000003 -6.9V-0.1Q164.59000000000003 0.0 164.49 0.0H163.73000000000002Q163.63000000000002 0.0 163.63000000000002 -0.1Z M172.43 -5.0Q172.43 -4.12 171.97000000000003 -3.58Q171.51000000000002 -3.04 170.76000000000002 -3.04H169.82000000000002Q169.78 -3.04 169.78 -3.0V-0.1Q169.78 0.0 169.68 0.0H168.92000000000002Q168.82000000000002 0.0 168.82000000000002 -0.1V-6.91Q168.82000000000002 -7.01 168.92000000000002 -7.01H170.71Q171.48000000000002 -7.01 171.955 -6.455Q172.43 -5.9 172.43 -5.0ZM171.47 -4.98Q171.47 -5.53 171.22 -5.855Q170.97 -6.18 170.56 -6.18H169.82000000000002Q169.78 -6.18 169.78 -6.140000000000001V-3.85Q169.78 -3.81 169.82000000000002 -3.81H170.56Q170.97 -3.81 171.22 -4.125Q171.47 -4.44 171.47 -4.98Z M179.59 -6.17H177.34Q177.3 -6.17 177.3 -6.13V-3.96Q177.3 -3.92 177.34 -3.92H178.72Q178.82 -3.92 178.82 -3.8200000000000003V-3.19Q178.82 -3.09 178.72 -3.09H177.34Q177.3 -3.09 177.3 -3.0500000000000003V-0.87Q177.3 -0.8300000000000001 177.34 -0.8300000000000001H179.59Q179.69 -0.8300000000000001 179.69 -0.73V-0.1Q179.69 0.0 179.59 0.0H176.44Q176.34 0.0 176.34 -0.1V-6.9Q176.34 -7.0 176.44 -7.0H179.59Q179.69 -7.0 179.69 -6.9V-6.2700000000000005Q179.69 -6.17 179.59 -6.17Z" fill="#0E0B08"/>
  </g>
  <g transform="translate(172.17, 290.00)">
    <path d="M0.32 -3.2800000000000002V-7.952Q0.32 -9.504 1.272 -10.416Q2.224 -11.328 3.8240000000000003 -11.328Q5.408 -11.328 6.368 -10.416Q7.328 -9.504 7.328 -7.952V-7.872Q7.328 -7.76 7.264 -7.688000000000001Q7.2 -7.6160000000000005 7.088 -7.6160000000000005L4.5600000000000005 -7.5360000000000005Q4.32 -7.5360000000000005 4.32 -7.76V-8.16Q4.32 -8.432 4.184 -8.592Q4.048 -8.752 3.8240000000000003 -8.752Q3.6 -8.752 3.4640000000000004 -8.592Q3.3280000000000003 -8.432 3.3280000000000003 -8.16V-3.024Q3.3280000000000003 -2.7520000000000002 3.4640000000000004 -2.6Q3.6 -2.448 3.8240000000000003 -2.448Q4.048 -2.448 4.184 -2.6Q4.32 -2.7520000000000002 4.32 -3.024V-3.456Q4.32 -3.68 4.5600000000000005 -3.68L7.088 -3.6Q7.2 -3.6 7.264 -3.528Q7.328 -3.456 7.328 -3.344V-3.2800000000000002Q7.328 -2.2560000000000002 6.888 -1.48Q6.448 -0.704 5.656000000000001 -0.288Q4.864 0.128 3.8240000000000003 0.128Q2.24 0.128 1.28 -0.8Q0.32 -1.728 0.32 -3.2800000000000002Z M20.816 -0.224 20.64 -1.424Q20.64 -1.456 20.608 -1.488Q20.576 -1.52 20.528 -1.52H19.12Q19.072 -1.52 19.04 -1.488Q19.008 -1.456 19.008 -1.424L18.848 -0.224Q18.832 0.0 18.592 0.0H16.08Q15.824 0.0 15.872 -0.256L18.144 -10.992Q18.192 -11.200000000000001 18.416 -11.200000000000001H21.328Q21.552 -11.200000000000001 21.6 -10.992L23.872 -0.256V-0.192Q23.872 0.0 23.648 0.0H21.072Q20.832 0.0 20.816 -0.224ZM19.44 -3.8240000000000003H20.192Q20.304 -3.8240000000000003 20.272 -3.92L19.84 -6.8Q19.823999999999998 -6.864 19.791999999999998 -6.864Q19.759999999999998 -6.864 19.744 -6.8L19.36 -3.92Q19.36 -3.8240000000000003 19.44 -3.8240000000000003Z M38.688 -8.624H35.632000000000005Q35.536 -8.624 35.536 -8.528V-6.992Q35.536 -6.896 35.632000000000005 -6.896H37.216Q37.328 -6.896 37.392 -6.832Q37.456 -6.768 37.456 -6.656000000000001V-4.5600000000000005Q37.456 -4.448 37.392 -4.384Q37.328 -4.32 37.216 -4.32H35.632000000000005Q35.536 -4.32 35.536 -4.224V-2.672Q35.536 -2.576 35.632000000000005 -2.576H38.688Q38.800000000000004 -2.576 38.864000000000004 -2.512Q38.928000000000004 -2.448 38.928000000000004 -2.336V-0.24Q38.928000000000004 -0.128 38.864000000000004 -0.064Q38.800000000000004 0.0 38.688 0.0H32.768Q32.656 0.0 32.592 -0.064Q32.528 -0.128 32.528 -0.24V-10.96Q32.528 -11.072000000000001 32.592 -11.136000000000001Q32.656 -11.200000000000001 32.768 -11.200000000000001H38.688Q38.800000000000004 -11.200000000000001 38.864000000000004 -11.136000000000001Q38.928000000000004 -11.072000000000001 38.928000000000004 -10.96V-8.864Q38.928000000000004 -8.752 38.864000000000004 -8.688Q38.800000000000004 -8.624 38.688 -8.624Z M52.512 -11.200000000000001H55.008Q55.120000000000005 -11.200000000000001 55.184000000000005 -11.136000000000001Q55.248000000000005 -11.072000000000001 55.248000000000005 -10.96V-0.24Q55.248000000000005 -0.128 55.184000000000005 -0.064Q55.120000000000005 0.0 55.008 0.0H52.160000000000004Q51.952 0.0 51.904 -0.20800000000000002L50.688 -5.056Q50.672000000000004 -5.104 50.624 -5.104Q50.576 -5.104 50.576 -5.04L50.608000000000004 -0.24Q50.608000000000004 -0.128 50.544000000000004 -0.064Q50.480000000000004 0.0 50.368 0.0H47.872Q47.76 0.0 47.696 -0.064Q47.632 -0.128 47.632 -0.24V-10.96Q47.632 -11.072000000000001 47.696 -11.136000000000001Q47.76 -11.200000000000001 47.872 -11.200000000000001H50.688Q50.896 -11.200000000000001 50.944 -10.992L52.176 -6.128Q52.192 -6.064 52.24 -6.064Q52.288000000000004 -6.064 52.288000000000004 -6.128L52.272 -10.96Q52.272 -11.072000000000001 52.336 -11.136000000000001Q52.4 -11.200000000000001 52.512 -11.200000000000001Z" fill="#0E0B08"/>
  </g>

</svg>
