<?xml version="1.0" encoding="UTF-8"?>
<svg xmlns="http://www.w3.org/2000/svg" viewBox="0 0 1280 720" width="1280" height="720" preserveAspectRatio="xMidYMid meet">
  <title>GAMEDOOR.41 YouTube Thumbnail Escape</title>
  <defs>
    <linearGradient id="thBg" x1="0%" y1="0%" x2="100%" y2="100%">
      <stop offset="0%" stop-color="#1a0d08"/>
      <stop offset="100%" stop-color="#0C0800"/>
    </linearGradient>
  </defs>
  <rect width="1280" height="720" fill="url(#thBg)"/>
  <rect x="0" y="0" width="16" height="720" fill="#c62828"/>

  <g transform="translate(765.20, 760.00)" opacity="0.06">
    <path d="M313.2 -193.2V-109.2Q313.2 -105.0 310.79999999999995 -102.6Q308.4 -100.2 304.2 -100.2H286.2Q282.59999999999997 -100.2 282.59999999999997 -96.6V-9.0Q282.59999999999997 -4.8 280.2 -2.4Q277.8 0.0 273.59999999999997 0.0H178.79999999999998Q174.6 0.0 172.2 -2.4Q169.79999999999998 -4.8 169.79999999999998 -9.0V-96.6Q169.79999999999998 -100.2 166.2 -100.2H13.799999999999999Q9.6 -100.2 7.199999999999999 -102.6Q4.8 -105.0 4.8 -109.2V-175.79999999999998Q4.8 -181.2 6.6 -186.6L79.2 -412.8Q81.6 -420.0 89.39999999999999 -420.0H190.79999999999998Q195.6 -420.0 197.7 -417.29999999999995Q199.79999999999998 -414.59999999999997 198.6 -409.8L136.79999999999998 -206.4Q136.2 -202.2 139.79999999999998 -202.2H166.2Q169.79999999999998 -202.2 169.79999999999998 -205.79999999999998V-246.6Q169.79999999999998 -250.79999999999998 172.2 -253.2Q174.6 -255.6 178.79999999999998 -255.6H273.59999999999997Q277.8 -255.6 280.2 -253.2Q282.59999999999997 -250.79999999999998 282.59999999999997 -246.6V-205.79999999999998Q282.59999999999997 -202.2 286.2 -202.2H304.2Q308.4 -202.2 310.79999999999995 -199.8Q313.2 -197.4 313.2 -193.2Z M365.4 -420.0H463.79999999999995Q468.0 -420.0 470.4 -417.6Q472.79999999999995 -415.2 472.79999999999995 -411.0V-9.0Q472.79999999999995 -4.8 470.4 -2.4Q468.0 0.0 463.79999999999995 0.0H369.0Q364.8 0.0 362.4 -2.4Q360.0 -4.8 360.0 -9.0V-313.8Q360.0 -317.4 356.4 -317.4H316.8Q312.6 -317.4 310.20000000000005 -319.79999999999995Q307.8 -322.2 307.8 -326.4V-396.0Q307.8 -403.8 315.0 -406.2L354.6 -418.2Q360.0 -420.0 365.4 -420.0Z" fill="#c62828"/>
  </g>

  <g transform="translate(80.00, 180.00)">
    <path d="M6.692 0.0H2.016Q1.736 0.0 1.736 -0.28V-19.32Q1.736 -19.6 2.016 -19.6H6.3Q8.848 -19.6 10.290000000000001 -18.270000000000003Q11.732000000000001 -16.94 11.732000000000001 -14.392Q11.732000000000001 -11.368 9.576 -10.22Q9.436 -10.136000000000001 9.548 -10.08Q10.668000000000001 -9.408 11.298000000000002 -8.204Q11.928 -7.0 11.928 -5.348Q11.928 -2.8000000000000003 10.486 -1.4000000000000001Q9.044 0.0 6.692 0.0ZM4.424 -17.164V-11.228Q4.424 -11.116 4.5360000000000005 -11.116H6.328Q7.644 -11.116 8.372 -11.914Q9.1 -12.712 9.1 -14.14Q9.1 -15.624 8.372 -16.45Q7.644 -17.276 6.328 -17.276H4.5360000000000005Q4.424 -17.276 4.424 -17.164ZM9.24 -5.684Q9.24 -7.308 8.512 -8.218Q7.784 -9.128 6.496 -9.128H4.5360000000000005Q4.424 -9.128 4.424 -9.016V-2.464Q4.424 -2.352 4.5360000000000005 -2.352H6.468Q7.756 -2.352 8.498000000000001 -3.2199999999999998Q9.24 -4.088 9.24 -5.684Z M31.952 -0.224 29.376 -8.568Q29.348 -8.652000000000001 29.264000000000003 -8.652000000000001H27.304000000000002Q27.192 -8.652000000000001 27.192 -8.540000000000001V-0.28Q27.192 0.0 26.912 0.0H24.784Q24.504 0.0 24.504 -0.28V-19.32Q24.504 -19.6 24.784 -19.6H29.796Q31.224 -19.6 32.316 -18.9Q33.408 -18.2 34.010000000000005 -16.926000000000002Q34.612 -15.652000000000001 34.612 -14.028Q34.612 -12.264000000000001 33.884 -10.962Q33.156 -9.66 31.896 -9.072000000000001Q31.812 -8.988 31.840000000000003 -8.904L34.696 -0.308L34.724000000000004 -0.196Q34.724000000000004 0.0 34.472 0.0H32.288Q32.036 0.0 31.952 -0.224ZM27.192 -17.164V-10.892Q27.192 -10.78 27.304000000000002 -10.78H29.376Q30.524 -10.78 31.224 -11.661999999999999Q31.924 -12.544 31.924 -14.0Q31.924 -15.512 31.224 -16.394Q30.524 -17.276 29.376 -17.276H27.304000000000002Q27.192 -17.276 27.192 -17.164Z M54.552 -0.252 53.936 -3.472Q53.936 -3.528 53.894 -3.556Q53.852 -3.584 53.796 -3.584H49.232Q49.176 -3.584 49.134 -3.556Q49.092 -3.528 49.092 -3.472L48.504 -0.252Q48.476 0.0 48.196 0.0H46.068Q45.928 0.0 45.858 -0.084Q45.788 -0.168 45.815999999999995 -0.308L49.988 -19.348Q50.044 -19.6 50.296 -19.6H52.788Q53.068 -19.6 53.096 -19.348L57.296 -0.308V-0.252Q57.296 0.0 57.044 0.0H54.86Q54.608 0.0 54.552 -0.252ZM49.652 -5.712H53.376Q53.46 -5.712 53.46 -5.824L51.556 -15.764000000000001Q51.528 -15.82 51.5 -15.82Q51.472 -15.82 51.443999999999996 -15.764000000000001L49.568 -5.824Q49.568 -5.712 49.652 -5.712Z M69.396 -0.28V-19.32Q69.396 -19.6 69.676 -19.6H71.804Q72.084 -19.6 72.084 -19.32V-0.28Q72.084 0.0 71.804 0.0H69.676Q69.396 0.0 69.396 -0.28Z M93.732 -19.6H95.832Q96.112 -19.6 96.112 -19.32V-0.28Q96.112 0.0 95.832 0.0H93.42399999999999Q93.19999999999999 0.0 93.11599999999999 -0.224L88.356 -13.02Q88.32799999999999 -13.076 88.27199999999999 -13.062000000000001Q88.216 -13.048 88.216 -12.992L88.244 -0.28Q88.244 0.0 87.964 0.0H85.836Q85.556 0.0 85.556 -0.28V-19.32Q85.556 -19.6 85.836 -19.6H88.216Q88.44 -19.6 88.52399999999999 -19.376L93.312 -6.58Q93.33999999999999 -6.496 93.39599999999999 -6.51Q93.452 -6.524 93.452 -6.6080000000000005V-19.32Q93.452 -19.6 93.732 -19.6Z M134.284 -17.276H127.98399999999998Q127.87199999999999 -17.276 127.87199999999999 -17.164V-11.088000000000001Q127.87199999999999 -10.976 127.98399999999998 -10.976H131.84799999999998Q132.128 -10.976 132.128 -10.696V-8.932Q132.128 -8.652000000000001 131.84799999999998 -8.652000000000001H127.98399999999998Q127.87199999999999 -8.652000000000001 127.87199999999999 -8.540000000000001V-2.436Q127.87199999999999 -2.324 127.98399999999998 -2.324H134.284Q134.56399999999996 -2.324 134.56399999999996 -2.044V-0.28Q134.56399999999996 0.0 134.284 0.0H125.46399999999998Q125.18399999999998 0.0 125.18399999999998 -0.28V-19.32Q125.18399999999998 -19.6 125.46399999999998 -19.6H134.284Q134.56399999999996 -19.6 134.56399999999996 -19.32V-17.556Q134.56399999999996 -17.276 134.284 -17.276Z M146.60799999999998 -4.788V-5.516Q146.60799999999998 -5.796 146.88799999999998 -5.796H148.95999999999998Q149.23999999999998 -5.796 149.23999999999998 -5.516V-4.928Q149.23999999999998 -3.64 149.884 -2.87Q150.528 -2.1 151.53599999999997 -2.1Q152.54399999999998 -2.1 153.202 -2.842Q153.85999999999999 -3.584 153.85999999999999 -4.788Q153.85999999999999 -5.6000000000000005 153.51 -6.216Q153.16 -6.832 152.58599999999998 -7.322Q152.01199999999997 -7.812 150.724 -8.764Q149.296 -9.828 148.48399999999998 -10.584Q147.67199999999997 -11.34 147.11199999999997 -12.404Q146.552 -13.468 146.552 -14.896Q146.552 -17.164 147.896 -18.494Q149.23999999999998 -19.824 151.396 -19.824Q153.636 -19.824 154.99399999999997 -18.396Q156.35199999999998 -16.968 156.35199999999998 -14.644V-13.944Q156.35199999999998 -13.664 156.07199999999997 -13.664H153.99999999999997Q153.71999999999997 -13.664 153.71999999999997 -13.944V-14.700000000000001Q153.71999999999997 -15.96 153.07599999999996 -16.73Q152.432 -17.5 151.396 -17.5Q150.416 -17.5 149.79999999999998 -16.814Q149.18399999999997 -16.128 149.18399999999997 -14.896Q149.18399999999997 -13.776 149.79999999999998 -13.006Q150.416 -12.236 152.17999999999998 -10.948Q153.85999999999999 -9.688 154.714 -8.904Q155.56799999999998 -8.120000000000001 156.02999999999997 -7.182Q156.492 -6.244 156.492 -4.956Q156.492 -2.604 155.12 -1.19Q153.748 0.224 151.53599999999997 0.224Q149.32399999999998 0.224 147.96599999999998 -1.162Q146.60799999999998 -2.548 146.60799999999998 -4.788Z M168.81599999999997 -4.844V-14.784Q168.81599999999997 -17.080000000000002 170.20199999999997 -18.452Q171.58799999999997 -19.824 173.856 -19.824Q176.152 -19.824 177.53799999999998 -18.452Q178.92399999999998 -17.080000000000002 178.92399999999998 -14.784V-14.336Q178.92399999999998 -14.056000000000001 178.64399999999998 -14.056000000000001L176.516 -13.944Q176.236 -13.944 176.236 -14.224V-14.952Q176.236 -16.1 175.57799999999997 -16.8Q174.92 -17.5 173.856 -17.5Q172.79199999999997 -17.5 172.14799999999997 -16.8Q171.504 -16.1 171.504 -14.952V-4.648Q171.504 -3.5 172.14799999999997 -2.8Q172.79199999999997 -2.1 173.856 -2.1Q174.92 -2.1 175.57799999999997 -2.8Q176.236 -3.5 176.236 -4.648V-5.376Q176.236 -5.656 176.516 -5.656L178.64399999999998 -5.5440000000000005Q178.92399999999998 -5.5440000000000005 178.92399999999998 -5.264V-4.844Q178.92399999999998 -2.548 177.53799999999998 -1.162Q176.152 0.224 173.856 0.224Q171.58799999999997 0.224 170.20199999999997 -1.162Q168.81599999999997 -2.548 168.81599999999997 -4.844Z M199.22799999999998 -0.252 198.612 -3.472Q198.612 -3.528 198.57 -3.556Q198.528 -3.584 198.47199999999998 -3.584H193.908Q193.85199999999998 -3.584 193.80999999999997 -3.556Q193.76799999999997 -3.528 193.76799999999997 -3.472L193.17999999999998 -0.252Q193.152 0.0 192.87199999999999 0.0H190.744Q190.60399999999998 0.0 190.534 -0.084Q190.464 -0.168 190.492 -0.308L194.664 -19.348Q194.72 -19.6 194.97199999999998 -19.6H197.464Q197.744 -19.6 197.772 -19.348L201.97199999999998 -0.308V-0.252Q201.97199999999998 0.0 201.72 0.0H199.53599999999997Q199.284 0.0 199.22799999999998 -0.252ZM194.32799999999997 -5.712H198.052Q198.136 -5.712 198.136 -5.824L196.232 -15.764000000000001Q196.20399999999998 -15.82 196.176 -15.82Q196.148 -15.82 196.11999999999998 -15.764000000000001L194.24399999999997 -5.824Q194.24399999999997 -5.712 194.32799999999997 -5.712Z M224.152 -14.0Q224.152 -11.536 222.86399999999998 -10.024000000000001Q221.576 -8.512 219.476 -8.512H216.844Q216.73199999999997 -8.512 216.73199999999997 -8.4V-0.28Q216.73199999999997 0.0 216.452 0.0H214.32399999999998Q214.04399999999998 0.0 214.04399999999998 -0.28V-19.348Q214.04399999999998 -19.628 214.32399999999998 -19.628H219.33599999999998Q221.492 -19.628 222.822 -18.073999999999998Q224.152 -16.52 224.152 -14.0ZM221.464 -13.944Q221.464 -15.484 220.764 -16.394000000000002Q220.064 -17.304000000000002 218.916 -17.304000000000002H216.844Q216.73199999999997 -17.304000000000002 216.73199999999997 -17.192V-10.78Q216.73199999999997 -10.668000000000001 216.844 -10.668000000000001H218.916Q220.064 -10.668000000000001 220.764 -11.55Q221.464 -12.432 221.464 -13.944Z M245.8 -17.276H239.5Q239.388 -17.276 239.388 -17.164V-11.088000000000001Q239.388 -10.976 239.5 -10.976H243.364Q243.644 -10.976 243.644 -10.696V-8.932Q243.644 -8.652000000000001 243.364 -8.652000000000001H239.5Q239.388 -8.652000000000001 239.388 -8.540000000000001V-2.436Q239.388 -2.324 239.5 -2.324H245.8Q246.07999999999998 -2.324 246.07999999999998 -2.044V-0.28Q246.07999999999998 0.0 245.8 0.0H236.98Q236.7 0.0 236.7 -0.28V-19.32Q236.7 -19.6 236.98 -19.6H245.8Q246.07999999999998 -19.6 246.07999999999998 -19.32V-17.556Q246.07999999999998 -17.276 245.8 -17.276Z M274.004 -4.676V-14.924Q274.004 -17.136 275.39 -18.48Q276.776 -19.824 279.04400000000004 -19.824Q281.312 -19.824 282.712 -18.48Q284.112 -17.136 284.112 -14.896V-13.72Q284.112 -13.44 283.83200000000005 -13.44H281.704Q281.42400000000004 -13.44 281.42400000000004 -13.72V-14.952Q281.42400000000004 -16.1 280.766 -16.8Q280.108 -17.5 279.04400000000004 -17.5Q277.98 -17.5 277.322 -16.8Q276.66400000000004 -16.1 276.66400000000004 -14.952V-4.648Q276.66400000000004 -3.5 277.322 -2.8Q277.98 -2.1 279.04400000000004 -2.1Q280.108 -2.1 280.766 -2.8Q281.42400000000004 -3.5 281.42400000000004 -4.648V-7.728Q281.42400000000004 -7.84 281.312 -7.84H279.184Q278.904 -7.84 278.904 -8.120000000000001V-9.856Q278.904 -10.136000000000001 279.184 -10.136000000000001H283.83200000000005Q284.112 -10.136000000000001 284.112 -9.856V-4.676Q284.112 -2.464 282.712 -1.1199999999999999Q281.312 0.224 279.04400000000004 0.224Q276.776 0.224 275.39 -1.1199999999999999Q274.004 -2.464 274.004 -4.676Z M304.55600000000004 -0.252 303.94 -3.472Q303.94 -3.528 303.898 -3.556Q303.856 -3.584 303.8 -3.584H299.236Q299.18 -3.584 299.13800000000003 -3.556Q299.096 -3.528 299.096 -3.472L298.50800000000004 -0.252Q298.48 0.0 298.20000000000005 0.0H296.072Q295.932 0.0 295.862 -0.084Q295.79200000000003 -0.168 295.82 -0.308L299.992 -19.348Q300.048 -19.6 300.3 -19.6H302.79200000000003Q303.072 -19.6 303.1 -19.348L307.3 -0.308V-0.252Q307.3 0.0 307.048 0.0H304.86400000000003Q304.612 0.0 304.55600000000004 -0.252ZM299.656 -5.712H303.38Q303.464 -5.712 303.464 -5.824L301.56 -15.764000000000001Q301.53200000000004 -15.82 301.504 -15.82Q301.476 -15.82 301.44800000000004 -15.764000000000001L299.572 -5.824Q299.572 -5.712 299.656 -5.712Z M328.44399999999996 -19.6H330.572Q330.852 -19.6 330.852 -19.32V-0.28Q330.852 0.0 330.572 0.0H328.44399999999996Q328.164 0.0 328.164 -0.28V-14.168000000000001Q328.164 -14.252 328.12199999999996 -14.252Q328.08 -14.252 328.024 -14.196L325.336 -9.184000000000001Q325.252 -8.988 325.084 -8.988Q324.916 -8.988 324.832 -9.184000000000001L322.17199999999997 -14.168000000000001Q322.116 -14.224 322.07399999999996 -14.224Q322.032 -14.224 322.032 -14.14V-0.28Q322.032 0.0 321.752 0.0H319.62399999999997Q319.344 0.0 319.344 -0.28V-19.32Q319.344 -19.6 319.62399999999997 -19.6H321.752Q321.948 -19.6 322.08799999999997 -19.404L325.02799999999996 -14.14Q325.056 -14.112 325.11199999999997 -14.112Q325.168 -14.112 325.19599999999997 -14.14L328.108 -19.404Q328.21999999999997 -19.6 328.44399999999996 -19.6Z M353.34 -17.276H347.03999999999996Q346.92799999999994 -17.276 346.92799999999994 -17.164V-11.088000000000001Q346.92799999999994 -10.976 347.03999999999996 -10.976H350.90399999999994Q351.18399999999997 -10.976 351.18399999999997 -10.696V-8.932Q351.18399999999997 -8.652000000000001 350.90399999999994 -8.652000000000001H347.03999999999996Q346.92799999999994 -8.652000000000001 346.92799999999994 -8.540000000000001V-2.436Q346.92799999999994 -2.324 347.03999999999996 -2.324H353.34Q353.61999999999995 -2.324 353.61999999999995 -2.044V-0.28Q353.61999999999995 0.0 353.34 0.0H344.52Q344.23999999999995 0.0 344.23999999999995 -0.28V-19.32Q344.23999999999995 -19.6 344.52 -19.6H353.34Q353.61999999999995 -19.6 353.61999999999995 -19.32V-17.556Q353.61999999999995 -17.276 353.34 -17.276Z M396.892 -7.9239999999999995Q396.892 -8.708000000000002 397.39599999999996 -9.212000000000002Q397.9 -9.716000000000001 398.684 -9.716000000000001Q399.468 -9.716000000000001 399.972 -9.212000000000002Q400.476 -8.708000000000002 400.476 -7.9239999999999995Q400.476 -7.140000000000001 399.972 -6.636000000000001Q399.468 -6.1320000000000014 398.684 -6.1320000000000014Q397.9 -6.1320000000000014 397.39599999999996 -6.636000000000001Q396.892 -7.140000000000001 396.892 -7.9239999999999995Z M444.112 -4.844V-14.784Q444.112 -17.080000000000002 445.49800000000005 -18.452Q446.884 -19.824 449.15200000000004 -19.824Q451.44800000000004 -19.824 452.83400000000006 -18.452Q454.22 -17.080000000000002 454.22 -14.784V-14.336Q454.22 -14.056000000000001 453.94000000000005 -14.056000000000001L451.812 -13.944Q451.53200000000004 -13.944 451.53200000000004 -14.224V-14.952Q451.53200000000004 -16.1 450.874 -16.8Q450.216 -17.5 449.15200000000004 -17.5Q448.088 -17.5 447.444 -16.8Q446.8 -16.1 446.8 -14.952V-4.648Q446.8 -3.5 447.444 -2.8Q448.088 -2.1 449.15200000000004 -2.1Q450.216 -2.1 450.874 -2.8Q451.53200000000004 -3.5 451.53200000000004 -4.648V-5.376Q451.53200000000004 -5.656 451.812 -5.656L453.94000000000005 -5.5440000000000005Q454.22 -5.5440000000000005 454.22 -5.264V-4.844Q454.22 -2.548 452.83400000000006 -1.162Q451.44800000000004 0.224 449.15200000000004 0.224Q446.884 0.224 445.49800000000005 -1.162Q444.112 -2.548 444.112 -4.844Z M474.52400000000006 -0.252 473.908 -3.472Q473.908 -3.528 473.866 -3.556Q473.824 -3.584 473.76800000000003 -3.584H469.204Q469.148 -3.584 469.106 -3.556Q469.064 -3.528 469.064 -3.472L468.47600000000006 -0.252Q468.44800000000004 0.0 468.16800000000006 0.0H466.04Q465.90000000000003 0.0 465.83000000000004 -0.084Q465.76000000000005 -0.168 465.788 -0.308L469.96000000000004 -19.348Q470.016 -19.6 470.26800000000003 -19.6H472.76000000000005Q473.04 -19.6 473.06800000000004 -19.348L477.26800000000003 -0.308V-0.252Q477.26800000000003 0.0 477.016 0.0H474.83200000000005Q474.58000000000004 0.0 474.52400000000006 -0.252ZM469.624 -5.712H473.348Q473.432 -5.712 473.432 -5.824L471.528 -15.764000000000001Q471.50000000000006 -15.82 471.47200000000004 -15.82Q471.444 -15.82 471.41600000000005 -15.764000000000001L469.54 -5.824Q469.54 -5.712 469.624 -5.712Z M498.4680000000001 -17.276H492.16800000000006Q492.05600000000004 -17.276 492.05600000000004 -17.164V-11.088000000000001Q492.05600000000004 -10.976 492.16800000000006 -10.976H496.03200000000004Q496.31200000000007 -10.976 496.31200000000007 -10.696V-8.932Q496.31200000000007 -8.652000000000001 496.03200000000004 -8.652000000000001H492.16800000000006Q492.05600000000004 -8.652000000000001 492.05600000000004 -8.540000000000001V-2.436Q492.05600000000004 -2.324 492.16800000000006 -2.324H498.4680000000001Q498.74800000000005 -2.324 498.74800000000005 -2.044V-0.28Q498.74800000000005 0.0 498.4680000000001 0.0H489.6480000000001Q489.36800000000005 0.0 489.36800000000005 -0.28V-19.32Q489.36800000000005 -19.6 489.6480000000001 -19.6H498.4680000000001Q498.74800000000005 -19.6 498.74800000000005 -19.32V-17.556Q498.74800000000005 -17.276 498.4680000000001 -17.276Z M519.6400000000001 -19.6H521.74Q522.0200000000001 -19.6 522.0200000000001 -19.32V-0.28Q522.0200000000001 0.0 521.74 0.0H519.3320000000001Q519.1080000000001 0.0 519.0240000000001 -0.224L514.264 -13.02Q514.2360000000001 -13.076 514.1800000000001 -13.062000000000001Q514.124 -13.048 514.124 -12.992L514.152 -0.28Q514.152 0.0 513.8720000000001 0.0H511.7440000000001Q511.46400000000006 0.0 511.46400000000006 -0.28V-19.32Q511.46400000000006 -19.6 511.7440000000001 -19.6H514.124Q514.3480000000001 -19.6 514.432 -19.376L519.22 -6.58Q519.248 -6.496 519.3040000000001 -6.51Q519.36 -6.524 519.36 -6.6080000000000005V-19.32Q519.36 -19.6 519.6400000000001 -19.6Z" fill="#c62828"/>
  </g>

  <g transform="translate(80.00, 320.00)">
    <path d="M53.43 -70.07000000000001H28.6Q27.82 -70.07000000000001 27.82 -69.29V-56.81Q27.82 -56.03 28.6 -56.03H41.47Q42.38 -56.03 42.900000000000006 -55.510000000000005Q43.42 -54.99 43.42 -54.08V-37.050000000000004Q43.42 -36.14 42.900000000000006 -35.620000000000005Q42.38 -35.1 41.47 -35.1H28.6Q27.82 -35.1 27.82 -34.32V-21.71Q27.82 -20.93 28.6 -20.93H53.43Q54.34 -20.93 54.86 -20.41Q55.38 -19.89 55.38 -18.98V-1.9500000000000002Q55.38 -1.04 54.86 -0.52Q54.34 0.0 53.43 0.0H5.33Q4.42 0.0 3.9 -0.52Q3.38 -1.04 3.38 -1.9500000000000002V-89.05Q3.38 -89.96000000000001 3.9 -90.48Q4.42 -91.0 5.33 -91.0H53.43Q54.34 -91.0 54.86 -90.48Q55.38 -89.96000000000001 55.38 -89.05V-72.02Q55.38 -71.11 54.86 -70.59Q54.34 -70.07000000000001 53.43 -70.07000000000001Z M57.58 -23.400000000000002V-27.43Q57.58 -28.34 58.099999999999994 -28.86Q58.62 -29.380000000000003 59.53 -29.380000000000003H79.81Q80.72 -29.380000000000003 81.24 -28.86Q81.75999999999999 -28.34 81.75999999999999 -27.43V-24.57Q81.75999999999999 -22.490000000000002 82.8 -21.19Q83.84 -19.89 85.4 -19.89Q86.96000000000001 -19.89 88.0 -21.060000000000002Q89.03999999999999 -22.23 89.03999999999999 -24.05Q89.03999999999999 -26.26 86.96 -28.405Q84.88 -30.55 78.25 -35.230000000000004Q71.75 -39.78 67.525 -43.55Q63.3 -47.32 60.18 -53.040000000000006Q57.06 -58.760000000000005 57.06 -66.17Q57.06 -73.84 60.505 -79.69Q63.95 -85.54 70.255 -88.79Q76.56 -92.04 84.75 -92.04Q93.07 -92.04 99.375 -88.79Q105.68 -85.54 109.125 -79.69Q112.57 -73.84 112.57 -66.17V-63.31Q112.57 -62.400000000000006 112.05 -61.88Q111.53 -61.36 110.62 -61.36H90.47Q89.56 -61.36 89.04 -61.88Q88.52000000000001 -62.400000000000006 88.52000000000001 -63.31V-66.69Q88.52000000000001 -68.64 87.48 -69.875Q86.44 -71.11 84.75 -71.11Q83.06 -71.11 82.08500000000001 -69.81Q81.11 -68.51 81.11 -66.3Q81.11 -63.7 83.19 -61.295Q85.27 -58.89 91.50999999999999 -54.34Q99.83 -48.230000000000004 104.055 -44.46000000000001Q108.28 -40.690000000000005 110.685 -35.94500000000001Q113.09 -31.200000000000003 113.09 -24.830000000000002Q113.09 -13.0 105.42 -5.98Q97.75 1.04 85.27 1.04Q76.95 1.04 70.71000000000001 -2.08Q64.47 -5.2 61.025 -10.725Q57.58 -16.25 57.58 -23.400000000000002Z M114.50999999999999 -26.650000000000002V-64.61Q114.50999999999999 -77.22 122.24499999999999 -84.63Q129.98 -92.04 142.98 -92.04Q155.85 -92.04 163.64999999999998 -84.63Q171.45 -77.22 171.45 -64.61V-63.96Q171.45 -63.050000000000004 170.93 -62.465Q170.41 -61.88 169.5 -61.88L148.96 -61.230000000000004Q147.01 -61.230000000000004 147.01 -63.050000000000004V-66.3Q147.01 -68.51 145.905 -69.81Q144.8 -71.11 142.98 -71.11Q141.16 -71.11 140.055 -69.81Q138.95 -68.51 138.95 -66.3V-24.57Q138.95 -22.36 140.055 -21.125Q141.16 -19.89 142.98 -19.89Q144.8 -19.89 145.905 -21.125Q147.01 -22.36 147.01 -24.57V-28.080000000000002Q147.01 -29.900000000000002 148.96 -29.900000000000002L169.5 -29.25Q170.41 -29.25 170.93 -28.665Q171.45 -28.080000000000002 171.45 -27.17V-26.650000000000002Q171.45 -18.330000000000002 167.875 -12.025000000000002Q164.3 -5.720000000000001 157.865 -2.3400000000000003Q151.43 1.04 142.98 1.04Q130.10999999999999 1.04 122.30999999999999 -6.5Q114.50999999999999 -14.040000000000001 114.50999999999999 -26.650000000000002Z M213.04 -1.82 211.60999999999999 -11.57Q211.60999999999999 -11.83 211.35 -12.09Q211.09 -12.35 210.7 -12.35H199.26Q198.87 -12.35 198.61 -12.09Q198.35 -11.83 198.35 -11.57L197.04999999999998 -1.82Q196.92 0.0 194.97 0.0H174.56Q172.48 0.0 172.87 -2.08L191.32999999999998 -89.31Q191.72 -91.0 193.54 -91.0H217.2Q219.01999999999998 -91.0 219.41 -89.31L237.87 -2.08V-1.56Q237.87 0.0 236.05 0.0H215.12Q213.17 0.0 213.04 -1.82ZM201.85999999999999 -31.07H207.97Q208.88 -31.07 208.62 -31.85L205.10999999999999 -55.25Q204.98 -55.77 204.71999999999997 -55.77Q204.45999999999998 -55.77 204.32999999999998 -55.25L201.20999999999998 -31.85Q201.20999999999998 -31.07 201.85999999999999 -31.07Z M297.78999999999996 -61.75Q297.78999999999996 -53.43 294.605 -47.06Q291.42 -40.690000000000005 285.70000000000005 -37.245000000000005Q279.98 -33.800000000000004 272.44 -33.800000000000004H265.15999999999997Q264.38 -33.800000000000004 264.38 -33.02V-1.9500000000000002Q264.38 -1.04 263.86 -0.52Q263.34 0.0 262.43 0.0H241.89Q240.98 0.0 240.45999999999998 -0.52Q239.94 -1.04 239.94 -1.9500000000000002V-89.05Q239.94 -89.96000000000001 240.45999999999998 -90.48Q240.98 -91.0 241.89 -91.0H271.14Q278.94 -91.0 284.985 -87.295Q291.03 -83.59 294.40999999999997 -76.96000000000001Q297.78999999999996 -70.33 297.78999999999996 -61.75ZM273.35 -61.230000000000004Q273.35 -65.52 271.595 -67.795Q269.84 -70.07000000000001 266.85 -70.07000000000001H265.15999999999997Q264.38 -70.07000000000001 264.38 -69.29V-53.43Q264.38 -52.65 265.15999999999997 -52.65H266.85Q269.84 -52.65 271.595 -54.795Q273.35 -56.940000000000005 273.35 -61.230000000000004Z M349.78000000000003 -70.07000000000001H324.95000000000005Q324.17 -70.07000000000001 324.17 -69.29V-56.81Q324.17 -56.03 324.95000000000005 -56.03H337.82000000000005Q338.73 -56.03 339.25 -55.510000000000005Q339.77000000000004 -54.99 339.77000000000004 -54.08V-37.050000000000004Q339.77000000000004 -36.14 339.25 -35.620000000000005Q338.73 -35.1 337.82000000000005 -35.1H324.95000000000005Q324.17 -35.1 324.17 -34.32V-21.71Q324.17 -20.93 324.95000000000005 -20.93H349.78000000000003Q350.69000000000005 -20.93 351.21000000000004 -20.41Q351.73 -19.89 351.73 -18.98V-1.9500000000000002Q351.73 -1.04 351.21000000000004 -0.52Q350.69000000000005 0.0 349.78000000000003 0.0H301.68Q300.77000000000004 0.0 300.25 -0.52Q299.73 -1.04 299.73 -1.9500000000000002V-89.05Q299.73 -89.96000000000001 300.25 -90.48Q300.77000000000004 -91.0 301.68 -91.0H349.78000000000003Q350.69000000000005 -91.0 351.21000000000004 -90.48Q351.73 -89.96000000000001 351.73 -89.05V-72.02Q351.73 -71.11 351.21000000000004 -70.59Q350.69000000000005 -70.07000000000001 349.78000000000003 -70.07000000000001Z M376.6700000000001 -25.48V-65.65Q376.6700000000001 -77.74000000000001 384.47 -84.89000000000001Q392.27000000000004 -92.04 405.14000000000004 -92.04Q413.59000000000003 -92.04 420.02500000000003 -88.79Q426.46000000000004 -85.54 430.0350000000001 -79.495Q433.61000000000007 -73.45 433.61000000000007 -65.39V-61.1Q433.61000000000007 -60.190000000000005 433.09000000000003 -59.67Q432.57000000000005 -59.15 431.6600000000001 -59.15H411.12000000000006Q410.21000000000004 -59.15 409.69000000000005 -59.67Q409.1700000000001 -60.190000000000005 409.1700000000001 -61.1V-65.65Q409.1700000000001 -68.12 408.06500000000005 -69.61500000000001Q406.96000000000004 -71.11 405.14000000000004 -71.11Q403.32000000000005 -71.11 402.21500000000003 -69.61500000000001Q401.11000000000007 -68.12 401.11000000000007 -65.65V-25.35Q401.11000000000007 -22.880000000000003 402.21500000000003 -21.385Q403.32000000000005 -19.89 405.14000000000004 -19.89Q406.96000000000004 -19.89 408.06500000000005 -21.385Q409.1700000000001 -22.880000000000003 409.1700000000001 -25.35V-31.720000000000002Q409.1700000000001 -32.5 408.39000000000004 -32.5H407.35Q406.44000000000005 -32.5 405.9200000000001 -33.019999999999996Q405.40000000000003 -33.54 405.40000000000003 -34.45V-49.4Q405.40000000000003 -50.31 405.9200000000001 -50.83Q406.44000000000005 -51.35 407.35 -51.35H431.6600000000001Q432.57000000000005 -51.35 433.09000000000003 -50.83Q433.61000000000007 -50.31 433.61000000000007 -49.4V-25.48Q433.61000000000007 -17.55 430.0350000000001 -11.505Q426.46000000000004 -5.46 420.02500000000003 -2.21Q413.59000000000003 1.04 405.14000000000004 1.04Q392.27000000000004 1.04 384.47 -6.175000000000001Q376.6700000000001 -13.39 376.6700000000001 -25.48Z M475.46000000000004 -1.82 474.03000000000003 -11.57Q474.03000000000003 -11.83 473.77000000000004 -12.09Q473.51000000000005 -12.35 473.12000000000006 -12.35H461.68000000000006Q461.29 -12.35 461.03000000000003 -12.09Q460.77000000000004 -11.83 460.77000000000004 -11.57L459.47 -1.82Q459.34000000000003 0.0 457.39000000000004 0.0H436.98Q434.90000000000003 0.0 435.29 -2.08L453.75000000000006 -89.31Q454.14000000000004 -91.0 455.96000000000004 -91.0H479.62000000000006Q481.44000000000005 -91.0 481.83000000000004 -89.31L500.29 -2.08V-1.56Q500.29 0.0 498.47 0.0H477.54Q475.59000000000003 0.0 475.46000000000004 -1.82ZM464.28000000000003 -31.07H470.39000000000004Q471.30000000000007 -31.07 471.04 -31.85L467.53000000000003 -55.25Q467.40000000000003 -55.77 467.14000000000004 -55.77Q466.88000000000005 -55.77 466.75000000000006 -55.25L463.63000000000005 -31.85Q463.63000000000005 -31.07 464.28000000000003 -31.07Z M547.86 -91.0H568.14Q569.05 -91.0 569.5699999999999 -90.48Q570.09 -89.96000000000001 570.09 -89.05V-1.9500000000000002Q570.09 -1.04 569.5699999999999 -0.52Q569.05 0.0 568.14 0.0H547.6Q546.69 0.0 546.1700000000001 -0.52Q545.65 -1.04 545.65 -1.9500000000000002V-54.86Q545.65 -55.38 545.325 -55.510000000000005Q545.0 -55.64 544.74 -55.120000000000005L537.33 -42.64L536.03 -40.300000000000004H535.9L527.32 -55.120000000000005Q527.0600000000001 -55.64 526.735 -55.575Q526.41 -55.510000000000005 526.41 -54.86V-1.9500000000000002Q526.41 -1.04 525.89 -0.52Q525.37 0.0 524.46 0.0H503.92Q503.01 0.0 502.49 -0.52Q501.97 -1.04 501.97 -1.9500000000000002V-89.05Q501.97 -89.96000000000001 502.49 -90.48Q503.01 -91.0 503.92 -91.0H524.2Q525.89 -91.0 526.54 -89.57000000000001L535.64 -72.93Q535.9 -72.54 536.2249999999999 -72.475Q536.55 -72.41 536.6800000000001 -72.93L545.52 -89.57000000000001Q546.3 -91.0 547.86 -91.0Z M623.25 -70.07000000000001H598.4200000000001Q597.6400000000001 -70.07000000000001 597.6400000000001 -69.29V-56.81Q597.6400000000001 -56.03 598.4200000000001 -56.03H611.2900000000001Q612.2 -56.03 612.72 -55.510000000000005Q613.24 -54.99 613.24 -54.08V-37.050000000000004Q613.24 -36.14 612.72 -35.620000000000005Q612.2 -35.1 611.2900000000001 -35.1H598.4200000000001Q597.6400000000001 -35.1 597.6400000000001 -34.32V-21.71Q597.6400000000001 -20.93 598.4200000000001 -20.93H623.25Q624.1600000000001 -20.93 624.6800000000001 -20.41Q625.2 -19.89 625.2 -18.98V-1.9500000000000002Q625.2 -1.04 624.6800000000001 -0.52Q624.1600000000001 0.0 623.25 0.0H575.1500000000001Q574.24 0.0 573.72 -0.52Q573.2 -1.04 573.2 -1.9500000000000002V-89.05Q573.2 -89.96000000000001 573.72 -90.48Q574.24 -91.0 575.1500000000001 -91.0H623.25Q624.1600000000001 -91.0 624.6800000000001 -90.48Q625.2 -89.96000000000001 625.2 -89.05V-72.02Q625.2 -71.11 624.6800000000001 -70.59Q624.1600000000001 -70.07000000000001 623.25 -70.07000000000001Z" fill="#F0EBE2"/>
  </g>
  <g transform="translate(80.00, 460.00)">
    <path d="M42.25 -1.82 40.82 -11.57Q40.82 -11.83 40.56 -12.09Q40.300000000000004 -12.35 39.910000000000004 -12.35H28.470000000000002Q28.080000000000002 -12.35 27.82 -12.09Q27.560000000000002 -11.83 27.560000000000002 -11.57L26.26 -1.82Q26.130000000000003 0.0 24.18 0.0H3.77Q1.69 0.0 2.08 -2.08L20.54 -89.31Q20.93 -91.0 22.75 -91.0H46.410000000000004Q48.230000000000004 -91.0 48.620000000000005 -89.31L67.08 -2.08V-1.56Q67.08 0.0 65.26 0.0H44.33Q42.38 0.0 42.25 -1.82ZM31.07 -31.07H37.18Q38.09 -31.07 37.83 -31.85L34.32 -55.25Q34.19 -55.77 33.93 -55.77Q33.67 -55.77 33.54 -55.25L30.42 -31.85Q30.42 -31.07 31.07 -31.07Z M91.63 -26.650000000000002V-64.61Q91.63 -77.22 99.365 -84.63Q107.1 -92.04 120.1 -92.04Q132.97 -92.04 140.76999999999998 -84.63Q148.57 -77.22 148.57 -64.61V-63.96Q148.57 -63.050000000000004 148.05 -62.465Q147.53 -61.88 146.62 -61.88L126.08000000000001 -61.230000000000004Q124.13 -61.230000000000004 124.13 -63.050000000000004V-66.3Q124.13 -68.51 123.025 -69.81Q121.92 -71.11 120.1 -71.11Q118.28 -71.11 117.175 -69.81Q116.07 -68.51 116.07 -66.3V-24.57Q116.07 -22.36 117.175 -21.125Q118.28 -19.89 120.1 -19.89Q121.92 -19.89 123.025 -21.125Q124.13 -22.36 124.13 -24.57V-28.080000000000002Q124.13 -29.900000000000002 126.08000000000001 -29.900000000000002L146.62 -29.25Q147.53 -29.25 148.05 -28.665Q148.57 -28.080000000000002 148.57 -27.17V-26.650000000000002Q148.57 -18.330000000000002 144.995 -12.025000000000002Q141.42000000000002 -5.720000000000001 134.985 -2.3400000000000003Q128.55 1.04 120.1 1.04Q107.23 1.04 99.43 -6.5Q91.63 -14.040000000000001 91.63 -26.650000000000002Z M190.16 -1.82 188.73 -11.57Q188.73 -11.83 188.47 -12.09Q188.21 -12.35 187.82 -12.35H176.38Q175.99 -12.35 175.73000000000002 -12.09Q175.47 -11.83 175.47 -11.57L174.17 -1.82Q174.04 0.0 172.09 0.0H151.68Q149.6 0.0 149.99 -2.08L168.45 -89.31Q168.84 -91.0 170.66 -91.0H194.32Q196.14 -91.0 196.53 -89.31L214.99 -2.08V-1.56Q214.99 0.0 213.17000000000002 0.0H192.24Q190.29 0.0 190.16 -1.82ZM178.98 -31.07H185.09Q186.0 -31.07 185.74 -31.85L182.23 -55.25Q182.1 -55.77 181.83999999999997 -55.77Q181.57999999999998 -55.77 181.45 -55.25L178.32999999999998 -31.85Q178.32999999999998 -31.07 178.98 -31.07Z M267.37 -70.07000000000001H242.54Q241.76 -70.07000000000001 241.76 -69.29V-56.81Q241.76 -56.03 242.54 -56.03H255.41Q256.32 -56.03 256.84000000000003 -55.510000000000005Q257.36 -54.99 257.36 -54.08V-37.050000000000004Q257.36 -36.14 256.84000000000003 -35.620000000000005Q256.32 -35.1 255.41 -35.1H242.54Q241.76 -35.1 241.76 -34.32V-21.71Q241.76 -20.93 242.54 -20.93H267.37Q268.28 -20.93 268.79999999999995 -20.41Q269.32 -19.89 269.32 -18.98V-1.9500000000000002Q269.32 -1.04 268.79999999999995 -0.52Q268.28 0.0 267.37 0.0H219.27Q218.35999999999999 0.0 217.83999999999997 -0.52Q217.32 -1.04 217.32 -1.9500000000000002V-89.05Q217.32 -89.96000000000001 217.83999999999997 -90.48Q218.35999999999999 -91.0 219.27 -91.0H267.37Q268.28 -91.0 268.79999999999995 -90.48Q269.32 -89.96000000000001 269.32 -89.05V-72.02Q269.32 -71.11 268.79999999999995 -70.59Q268.28 -70.07000000000001 267.37 -70.07000000000001Z M311.68999999999994 -91.0H331.96999999999997Q332.88 -91.0 333.4 -90.48Q333.91999999999996 -89.96000000000001 333.91999999999996 -89.05V-1.9500000000000002Q333.91999999999996 -1.04 333.4 -0.52Q332.88 0.0 331.96999999999997 0.0H308.83Q307.14 0.0 306.75 -1.69L296.86999999999995 -41.08Q296.73999999999995 -41.47 296.34999999999997 -41.47Q295.96 -41.47 295.96 -40.95L296.21999999999997 -1.9500000000000002Q296.21999999999997 -1.04 295.69999999999993 -0.52Q295.17999999999995 0.0 294.27 0.0H273.98999999999995Q273.08 0.0 272.55999999999995 -0.52Q272.03999999999996 -1.04 272.03999999999996 -1.9500000000000002V-89.05Q272.03999999999996 -89.96000000000001 272.55999999999995 -90.48Q273.08 -91.0 273.98999999999995 -91.0H296.86999999999995Q298.55999999999995 -91.0 298.95 -89.31L308.96 -49.79Q309.09 -49.27 309.47999999999996 -49.27Q309.86999999999995 -49.27 309.86999999999995 -49.79L309.73999999999995 -89.05Q309.73999999999995 -89.96000000000001 310.26 -90.48Q310.78 -91.0 311.68999999999994 -91.0Z" fill="#c62828"/>
  </g>

  <!-- Small logo bottom-left -->
  <g transform="translate(80.00, 640.00)">
    <path d="M0.9199999999999999 -9.016V-23.23Q0.9199999999999999 -27.508 3.6799999999999997 -30.037999999999997Q6.4399999999999995 -32.568 10.994 -32.568Q13.984 -32.568 16.261 -31.418Q18.538 -30.268 19.803 -28.128999999999998Q21.068 -25.99 21.068 -23.137999999999998V-21.62Q21.068 -21.298 20.884 -21.113999999999997Q20.7 -20.93 20.378 -20.93H13.11Q12.788 -20.93 12.604 -21.113999999999997Q12.42 -21.298 12.42 -21.62V-23.23Q12.42 -24.104 12.029 -24.633Q11.638 -25.162 10.994 -25.162Q10.35 -25.162 9.959 -24.633Q9.568 -24.104 9.568 -23.23V-8.97Q9.568 -8.096 9.959 -7.567Q10.35 -7.038 10.994 -7.038Q11.638 -7.038 12.029 -7.567Q12.42 -8.096 12.42 -8.97V-11.224Q12.42 -11.5 12.144 -11.5H11.776Q11.454 -11.5 11.27 -11.684000000000001Q11.086 -11.868 11.086 -12.19V-17.48Q11.086 -17.802 11.27 -17.985999999999997Q11.454 -18.169999999999998 11.776 -18.169999999999998H20.378Q20.7 -18.169999999999998 20.884 -17.985999999999997Q21.068 -17.802 21.068 -17.48V-9.016Q21.068 -6.21 19.803 -4.071Q18.538 -1.932 16.261 -0.782Q13.984 0.368 10.994 0.368Q6.4399999999999995 0.368 3.6799999999999997 -2.1849999999999996Q0.9199999999999999 -4.7379999999999995 0.9199999999999999 -9.016Z M35.938 -0.644 35.432 -4.094Q35.432 -4.186 35.34 -4.2780000000000005Q35.248 -4.37 35.11 -4.37H31.061999999999998Q30.924 -4.37 30.832 -4.2780000000000005Q30.740000000000002 -4.186 30.740000000000002 -4.094L30.28 -0.644Q30.234 0.0 29.543999999999997 0.0H22.322Q21.586 0.0 21.724 -0.736L28.256 -31.602Q28.394 -32.2 29.038 -32.2H37.41Q38.054 -32.2 38.192 -31.602L44.724000000000004 -0.736V-0.552Q44.724000000000004 0.0 44.08 0.0H36.674Q35.984 0.0 35.938 -0.644ZM31.982 -10.994H34.144Q34.466 -10.994 34.373999999999995 -11.27L33.132 -19.55Q33.086 -19.733999999999998 32.994 -19.733999999999998Q32.902 -19.733999999999998 32.856 -19.55L31.752 -11.27Q31.752 -10.994 31.982 -10.994Z M61.618 -32.2H68.794Q69.116 -32.2 69.30000000000001 -32.016000000000005Q69.48400000000001 -31.832 69.48400000000001 -31.509999999999998V-0.69Q69.48400000000001 -0.368 69.30000000000001 -0.184Q69.116 0.0 68.794 0.0H61.525999999999996Q61.204 0.0 61.019999999999996 -0.184Q60.836 -0.368 60.836 -0.69V-19.412Q60.836 -19.596 60.721000000000004 -19.642Q60.606 -19.688 60.514 -19.504L57.892 -15.088L57.432 -14.26H57.386L54.35 -19.504Q54.258 -19.688 54.143 -19.665Q54.028 -19.642 54.028 -19.412V-0.69Q54.028 -0.368 53.844 -0.184Q53.660000000000004 0.0 53.338 0.0H46.07Q45.748000000000005 0.0 45.56400000000001 -0.184Q45.38 -0.368 45.38 -0.69V-31.509999999999998Q45.38 -31.832 45.56400000000001 -32.016000000000005Q45.748000000000005 -32.2 46.07 -32.2H53.246Q53.844 -32.2 54.074 -31.694L57.294 -25.806Q57.386 -25.668 57.501000000000005 -25.645Q57.616 -25.622 57.662 -25.806L60.790000000000006 -31.694Q61.066 -32.2 61.618 -32.2Z M88.356 -24.794H79.57000000000001Q79.294 -24.794 79.294 -24.518V-20.102Q79.294 -19.826 79.57000000000001 -19.826H84.124Q84.446 -19.826 84.63 -19.642Q84.81400000000001 -19.458 84.81400000000001 -19.136V-13.11Q84.81400000000001 -12.788 84.63 -12.604Q84.446 -12.42 84.124 -12.42H79.57000000000001Q79.294 -12.42 79.294 -12.144V-7.6819999999999995Q79.294 -7.406 79.57000000000001 -7.406H88.356Q88.678 -7.406 88.862 -7.2219999999999995Q89.046 -7.038 89.046 -6.716V-0.69Q89.046 -0.368 88.862 -0.184Q88.678 0.0 88.356 0.0H71.336Q71.01400000000001 0.0 70.83000000000001 -0.184Q70.646 -0.368 70.646 -0.69V-31.509999999999998Q70.646 -31.832 70.83000000000001 -32.016000000000005Q71.01400000000001 -32.2 71.336 -32.2H88.356Q88.678 -32.2 88.862 -32.016000000000005Q89.046 -31.832 89.046 -31.509999999999998V-25.483999999999998Q89.046 -25.162 88.862 -24.978Q88.678 -24.794 88.356 -24.794Z" fill="#F0EBE2"/>
    <path d="M92.508 -0.45999999999999996V-31.74Q92.508 -32.2 92.96799999999999 -32.2H99.72999999999999Q103.134 -32.2 105.112 -29.923000000000002Q107.09 -27.646 107.09 -23.736V-8.464Q107.09 -4.554 105.112 -2.277Q103.134 0.0 99.72999999999999 0.0H92.96799999999999Q92.508 0.0 92.508 -0.45999999999999996ZM95.13 -2.162H99.72999999999999Q101.984 -2.208 103.29499999999999 -3.887Q104.606 -5.566 104.606 -8.51V-23.644Q104.606 -26.634 103.29499999999999 -28.336Q101.984 -30.038 99.684 -30.038H95.13Q94.946 -30.038 94.946 -29.854V-2.346Q94.946 -2.162 95.13 -2.162Z M111.978 -7.359999999999999V-24.794Q111.978 -28.29 114.048 -30.429Q116.118 -32.568 119.52199999999999 -32.568Q122.926 -32.568 125.042 -30.429Q127.158 -28.29 127.158 -24.794V-7.359999999999999Q127.158 -3.91 125.042 -1.7710000000000001Q122.926 0.368 119.52199999999999 0.368Q116.164 0.368 114.071 -1.7710000000000001Q111.978 -3.91 111.978 -7.359999999999999ZM124.72 -7.268V-24.886Q124.72 -27.323999999999998 123.271 -28.865Q121.822 -30.406 119.52199999999999 -30.406Q117.268 -30.406 115.842 -28.865Q114.416 -27.323999999999998 114.416 -24.886V-7.268Q114.416 -4.83 115.842 -3.3120000000000003Q117.268 -1.794 119.52199999999999 -1.794Q121.822 -1.794 123.271 -3.3120000000000003Q124.72 -4.83 124.72 -7.268Z M131.72400000000002 -7.359999999999999V-24.794Q131.72400000000002 -28.29 133.794 -30.429Q135.864 -32.568 139.268 -32.568Q142.672 -32.568 144.788 -30.429Q146.904 -28.29 146.904 -24.794V-7.359999999999999Q146.904 -3.91 144.788 -1.7710000000000001Q142.672 0.368 139.268 0.368Q135.91 0.368 133.817 -1.7710000000000001Q131.72400000000002 -3.91 131.72400000000002 -7.359999999999999ZM144.466 -7.268V-24.886Q144.466 -27.323999999999998 143.017 -28.865Q141.568 -30.406 139.268 -30.406Q137.014 -30.406 135.58800000000002 -28.865Q134.162 -27.323999999999998 134.162 -24.886V-7.268Q134.162 -4.83 135.58800000000002 -3.3120000000000003Q137.014 -1.794 139.268 -1.794Q141.568 -1.794 143.017 -3.3120000000000003Q144.466 -4.83 144.466 -7.268Z M164.71800000000002 -0.368 159.65800000000002 -14.95Q159.61200000000002 -15.088 159.47400000000002 -15.088H154.92000000000002Q154.73600000000002 -15.088 154.73600000000002 -14.904V-0.45999999999999996Q154.73600000000002 0.0 154.276 0.0H152.758Q152.298 0.0 152.298 -0.45999999999999996V-31.74Q152.298 -32.2 152.758 -32.2H159.888Q163.108 -32.2 165.086 -29.808Q167.06400000000002 -27.416 167.06400000000002 -23.552Q167.06400000000002 -20.47 165.73000000000002 -18.308Q164.39600000000002 -16.146 162.096 -15.363999999999999Q161.912 -15.318 161.95800000000003 -15.134L167.156 -0.506L167.20200000000003 -0.322Q167.20200000000003 0.0 166.788 0.0H165.27Q164.85600000000002 0.0 164.71800000000002 -0.368ZM154.73600000000002 -29.854V-17.296Q154.73600000000002 -17.112 154.92000000000002 -17.112H159.61200000000002Q161.866 -17.112 163.246 -18.883Q164.626 -20.654 164.626 -23.552Q164.626 -26.496 163.246 -28.267Q161.866 -30.038 159.61200000000002 -30.038H154.92000000000002Q154.73600000000002 -30.038 154.73600000000002 -29.854Z" fill="#F0EBE2"/>
  </g>
  <circle cx="256.08" cy="626.20" r="3.68" fill="#c62828"/>
  <g transform="translate(263.44, 640.00)">
    <path d="M24.012 -14.812V-8.372Q24.012 -8.05 23.828 -7.866Q23.644 -7.6819999999999995 23.322 -7.6819999999999995H21.942Q21.666 -7.6819999999999995 21.666 -7.406V-0.69Q21.666 -0.368 21.482 -0.184Q21.298 0.0 20.976 0.0H13.708Q13.386 0.0 13.201999999999998 -0.184Q13.017999999999999 -0.368 13.017999999999999 -0.69V-7.406Q13.017999999999999 -7.6819999999999995 12.741999999999999 -7.6819999999999995H1.058Q0.736 -7.6819999999999995 0.552 -7.866Q0.368 -8.05 0.368 -8.372V-13.478Q0.368 -13.892 0.506 -14.306L6.072 -31.648Q6.256 -32.2 6.854 -32.2H14.628Q14.996 -32.2 15.157 -31.993000000000002Q15.318 -31.785999999999998 15.225999999999999 -31.418L10.488 -15.824Q10.442 -15.501999999999999 10.718 -15.501999999999999H12.741999999999999Q13.017999999999999 -15.501999999999999 13.017999999999999 -15.778V-18.906Q13.017999999999999 -19.227999999999998 13.201999999999998 -19.412Q13.386 -19.596 13.708 -19.596H20.976Q21.298 -19.596 21.482 -19.412Q21.666 -19.227999999999998 21.666 -18.906V-15.778Q21.666 -15.501999999999999 21.942 -15.501999999999999H23.322Q23.644 -15.501999999999999 23.828 -15.318Q24.012 -15.134 24.012 -14.812Z M28.163999999999998 -32.2H35.708Q36.03 -32.2 36.214 -32.016000000000005Q36.397999999999996 -31.832 36.397999999999996 -31.509999999999998V-0.69Q36.397999999999996 -0.368 36.214 -0.184Q36.03 0.0 35.708 0.0H28.439999999999998Q28.118 0.0 27.933999999999997 -0.184Q27.75 -0.368 27.75 -0.69V-24.058Q27.75 -24.334 27.474 -24.334H24.438Q24.116 -24.334 23.932 -24.518Q23.747999999999998 -24.701999999999998 23.747999999999998 -25.024V-30.36Q23.747999999999998 -30.958 24.299999999999997 -31.142L27.336 -32.062Q27.75 -32.2 28.163999999999998 -32.2Z" fill="#c62828"/>
  </g>

</svg>
