<?xml version="1.0" encoding="UTF-8"?>
<svg xmlns="http://www.w3.org/2000/svg" viewBox="0 0 1280 720" width="1280" height="720" preserveAspectRatio="xMidYMid meet">
  <title>GAMEDOOR.41 YouTube Thumbnail generique</title>
  <defs>
    <linearGradient id="thBg" x1="0%" y1="0%" x2="100%" y2="100%">
      <stop offset="0%" stop-color="#1a0d08"/>
      <stop offset="100%" stop-color="#0C0800"/>
    </linearGradient>
  </defs>
  <rect width="1280" height="720" fill="url(#thBg)"/>
  <rect x="0" y="0" width="16" height="720" fill="#E07020"/>

  <g transform="translate(765.20, 760.00)" opacity="0.06">
    <path d="M313.2 -193.2V-109.2Q313.2 -105.0 310.79999999999995 -102.6Q308.4 -100.2 304.2 -100.2H286.2Q282.59999999999997 -100.2 282.59999999999997 -96.6V-9.0Q282.59999999999997 -4.8 280.2 -2.4Q277.8 0.0 273.59999999999997 0.0H178.79999999999998Q174.6 0.0 172.2 -2.4Q169.79999999999998 -4.8 169.79999999999998 -9.0V-96.6Q169.79999999999998 -100.2 166.2 -100.2H13.799999999999999Q9.6 -100.2 7.199999999999999 -102.6Q4.8 -105.0 4.8 -109.2V-175.79999999999998Q4.8 -181.2 6.6 -186.6L79.2 -412.8Q81.6 -420.0 89.39999999999999 -420.0H190.79999999999998Q195.6 -420.0 197.7 -417.29999999999995Q199.79999999999998 -414.59999999999997 198.6 -409.8L136.79999999999998 -206.4Q136.2 -202.2 139.79999999999998 -202.2H166.2Q169.79999999999998 -202.2 169.79999999999998 -205.79999999999998V-246.6Q169.79999999999998 -250.79999999999998 172.2 -253.2Q174.6 -255.6 178.79999999999998 -255.6H273.59999999999997Q277.8 -255.6 280.2 -253.2Q282.59999999999997 -250.79999999999998 282.59999999999997 -246.6V-205.79999999999998Q282.59999999999997 -202.2 286.2 -202.2H304.2Q308.4 -202.2 310.79999999999995 -199.8Q313.2 -197.4 313.2 -193.2Z M365.4 -420.0H463.79999999999995Q468.0 -420.0 470.4 -417.6Q472.79999999999995 -415.2 472.79999999999995 -411.0V-9.0Q472.79999999999995 -4.8 470.4 -2.4Q468.0 0.0 463.79999999999995 0.0H369.0Q364.8 0.0 362.4 -2.4Q360.0 -4.8 360.0 -9.0V-313.8Q360.0 -317.4 356.4 -317.4H316.8Q312.6 -317.4 310.20000000000005 -319.79999999999995Q307.8 -322.2 307.8 -326.4V-396.0Q307.8 -403.8 315.0 -406.2L354.6 -418.2Q360.0 -420.0 365.4 -420.0Z" fill="#E07020"/>
  </g>

  <g transform="translate(80.00, 180.00)">
    <path d="M1.344 -4.676V-14.924Q1.344 -17.136 2.73 -18.48Q4.116 -19.824 6.384 -19.824Q8.652000000000001 -19.824 10.052 -18.48Q11.452 -17.136 11.452 -14.896V-13.72Q11.452 -13.44 11.172 -13.44H9.044Q8.764 -13.44 8.764 -13.72V-14.952Q8.764 -16.1 8.106 -16.8Q7.448 -17.5 6.384 -17.5Q5.32 -17.5 4.662000000000001 -16.8Q4.0040000000000004 -16.1 4.0040000000000004 -14.952V-4.648Q4.0040000000000004 -3.5 4.662000000000001 -2.8Q5.32 -2.1 6.384 -2.1Q7.448 -2.1 8.106 -2.8Q8.764 -3.5 8.764 -4.648V-7.728Q8.764 -7.84 8.652000000000001 -7.84H6.524Q6.244 -7.84 6.244 -8.120000000000001V-9.856Q6.244 -10.136000000000001 6.524 -10.136000000000001H11.172Q11.452 -10.136000000000001 11.452 -9.856V-4.676Q11.452 -2.464 10.052 -1.1199999999999999Q8.652000000000001 0.224 6.384 0.224Q4.116 0.224 2.73 -1.1199999999999999Q1.344 -2.464 1.344 -4.676Z M31.896 -0.252 31.28 -3.472Q31.28 -3.528 31.238 -3.556Q31.195999999999998 -3.584 31.14 -3.584H26.576Q26.52 -3.584 26.478 -3.556Q26.436 -3.528 26.436 -3.472L25.848 -0.252Q25.82 0.0 25.54 0.0H23.412Q23.272 0.0 23.201999999999998 -0.084Q23.131999999999998 -0.168 23.16 -0.308L27.332 -19.348Q27.387999999999998 -19.6 27.64 -19.6H30.131999999999998Q30.412 -19.6 30.439999999999998 -19.348L34.64 -0.308V-0.252Q34.64 0.0 34.388 0.0H32.204Q31.951999999999998 0.0 31.896 -0.252ZM26.996 -5.712H30.72Q30.804000000000002 -5.712 30.804000000000002 -5.824L28.9 -15.764000000000001Q28.872 -15.82 28.844 -15.82Q28.816 -15.82 28.788 -15.764000000000001L26.912 -5.824Q26.912 -5.712 26.996 -5.712Z M55.784 -19.6H57.912Q58.192 -19.6 58.192 -19.32V-0.28Q58.192 0.0 57.912 0.0H55.784Q55.504 0.0 55.504 -0.28V-14.168000000000001Q55.504 -14.252 55.462 -14.252Q55.42 -14.252 55.364 -14.196L52.676 -9.184000000000001Q52.592 -8.988 52.424 -8.988Q52.256 -8.988 52.172 -9.184000000000001L49.512 -14.168000000000001Q49.455999999999996 -14.224 49.414 -14.224Q49.372 -14.224 49.372 -14.14V-0.28Q49.372 0.0 49.092 0.0H46.964Q46.684 0.0 46.684 -0.28V-19.32Q46.684 -19.6 46.964 -19.6H49.092Q49.288 -19.6 49.428 -19.404L52.367999999999995 -14.14Q52.396 -14.112 52.452 -14.112Q52.507999999999996 -14.112 52.536 -14.14L55.448 -19.404Q55.56 -19.6 55.784 -19.6Z M80.67999999999999 -17.276H74.38Q74.268 -17.276 74.268 -17.164V-11.088000000000001Q74.268 -10.976 74.38 -10.976H78.244Q78.524 -10.976 78.524 -10.696V-8.932Q78.524 -8.652000000000001 78.244 -8.652000000000001H74.38Q74.268 -8.652000000000001 74.268 -8.540000000000001V-2.436Q74.268 -2.324 74.38 -2.324H80.67999999999999Q80.96 -2.324 80.96 -2.044V-0.28Q80.96 0.0 80.67999999999999 0.0H71.86Q71.58 0.0 71.58 -0.28V-19.32Q71.58 -19.6 71.86 -19.6H80.67999999999999Q80.96 -19.6 80.96 -19.32V-17.556Q80.96 -17.276 80.67999999999999 -17.276Z M93.676 -0.28V-19.32Q93.676 -19.6 93.956 -19.6H98.548Q100.872 -19.6 102.244 -18.172Q103.616 -16.744 103.616 -14.308V-5.292Q103.616 -2.856 102.244 -1.428Q100.872 0.0 98.548 0.0H93.956Q93.676 0.0 93.676 -0.28ZM96.476 -2.324 98.52 -2.352Q99.584 -2.352 100.22800000000001 -3.178Q100.872 -4.0040000000000004 100.9 -5.432V-14.168000000000001Q100.9 -15.596 100.256 -16.436Q99.612 -17.276 98.52 -17.276H96.476Q96.364 -17.276 96.364 -17.164V-2.436Q96.364 -2.324 96.476 -2.324Z M116.416 -4.9V-14.672Q116.416 -16.996 117.816 -18.41Q119.21600000000001 -19.824 121.512 -19.824Q123.836 -19.824 125.25 -18.41Q126.664 -16.996 126.664 -14.672V-4.9Q126.664 -2.576 125.25 -1.176Q123.836 0.224 121.512 0.224Q119.21600000000001 0.224 117.816 -1.176Q116.416 -2.576 116.416 -4.9ZM123.976 -4.788V-14.812000000000001Q123.976 -16.016000000000002 123.304 -16.758000000000003Q122.632 -17.5 121.512 -17.5Q120.42 -17.5 119.762 -16.758000000000003Q119.104 -16.016000000000002 119.104 -14.812000000000001V-4.788Q119.104 -3.584 119.762 -2.842Q120.42 -2.1 121.512 -2.1Q122.632 -2.1 123.304 -2.842Q123.976 -3.584 123.976 -4.788Z M139.352 -4.9V-14.672Q139.352 -16.996 140.752 -18.41Q142.15200000000002 -19.824 144.448 -19.824Q146.77200000000002 -19.824 148.18600000000004 -18.41Q149.60000000000002 -16.996 149.60000000000002 -14.672V-4.9Q149.60000000000002 -2.576 148.18600000000004 -1.176Q146.77200000000002 0.224 144.448 0.224Q142.15200000000002 0.224 140.752 -1.176Q139.352 -2.576 139.352 -4.9ZM146.912 -4.788V-14.812000000000001Q146.912 -16.016000000000002 146.24 -16.758000000000003Q145.568 -17.5 144.448 -17.5Q143.35600000000002 -17.5 142.69800000000004 -16.758000000000003Q142.04000000000002 -16.016000000000002 142.04000000000002 -14.812000000000001V-4.788Q142.04000000000002 -3.584 142.69800000000004 -2.842Q143.35600000000002 -2.1 144.448 -2.1Q145.568 -2.1 146.24 -2.842Q146.912 -3.584 146.912 -4.788Z M170.12800000000001 -0.224 167.55200000000002 -8.568Q167.52400000000003 -8.652000000000001 167.44000000000003 -8.652000000000001H165.48000000000002Q165.36800000000002 -8.652000000000001 165.36800000000002 -8.540000000000001V-0.28Q165.36800000000002 0.0 165.08800000000002 0.0H162.96Q162.68 0.0 162.68 -0.28V-19.32Q162.68 -19.6 162.96 -19.6H167.972Q169.4 -19.6 170.49200000000002 -18.9Q171.584 -18.2 172.186 -16.926000000000002Q172.788 -15.652000000000001 172.788 -14.028Q172.788 -12.264000000000001 172.06 -10.962Q171.33200000000002 -9.66 170.072 -9.072000000000001Q169.98800000000003 -8.988 170.01600000000002 -8.904L172.872 -0.308L172.9 -0.196Q172.9 0.0 172.64800000000002 0.0H170.46400000000003Q170.21200000000002 0.0 170.12800000000001 -0.224ZM165.36800000000002 -17.164V-10.892Q165.36800000000002 -10.78 165.48000000000002 -10.78H167.55200000000002Q168.70000000000002 -10.78 169.40000000000003 -11.661999999999999Q170.10000000000002 -12.544 170.10000000000002 -14.0Q170.10000000000002 -15.512 169.40000000000003 -16.394Q168.70000000000002 -17.276 167.55200000000002 -17.276H165.48000000000002Q165.36800000000002 -17.276 165.36800000000002 -17.164Z M211.01600000000002 -7.364V-5.488Q211.01600000000002 -5.208 210.73600000000002 -5.208H209.84Q209.728 -5.208 209.728 -5.096V-0.28Q209.728 0.0 209.448 0.0H207.32000000000002Q207.04000000000002 0.0 207.04000000000002 -0.28V-5.096Q207.04000000000002 -5.208 206.928 -5.208H200.04000000000002Q199.76000000000002 -5.208 199.76000000000002 -5.488V-7.056Q199.76000000000002 -7.168 199.816 -7.392L203.848 -19.376Q203.93200000000002 -19.6 204.184 -19.6H206.48000000000002Q206.788 -19.6 206.704 -19.292L202.89600000000002 -7.784Q202.868 -7.728 202.91 -7.686Q202.952 -7.644 203.008 -7.644H206.928Q207.04000000000002 -7.644 207.04000000000002 -7.756V-11.592Q207.04000000000002 -11.872 207.32000000000002 -11.872H209.448Q209.728 -11.872 209.728 -11.592V-7.756Q209.728 -7.644 209.84 -7.644H210.73600000000002Q211.01600000000002 -7.644 211.01600000000002 -7.364Z M225.048 -19.6H227.288Q227.568 -19.6 227.568 -19.32V-0.28Q227.568 0.0 227.288 0.0H225.16Q224.88 0.0 224.88 -0.28V-16.66Q224.88 -16.716 224.838 -16.758000000000003Q224.796 -16.8 224.768 -16.772000000000002L222.276 -16.128L222.16400000000002 -16.1Q221.996 -16.1 221.94 -16.352L221.828 -17.92Q221.828 -18.172 222.024 -18.256L224.712 -19.516000000000002Q224.88 -19.6 225.048 -19.6Z M271.288 -7.9239999999999995Q271.288 -8.708000000000002 271.79200000000003 -9.212000000000002Q272.296 -9.716000000000001 273.08000000000004 -9.716000000000001Q273.86400000000003 -9.716000000000001 274.36800000000005 -9.212000000000002Q274.872 -8.708000000000002 274.872 -7.9239999999999995Q274.872 -7.140000000000001 274.36800000000005 -6.636000000000001Q273.86400000000003 -6.1320000000000014 273.08000000000004 -6.1320000000000014Q272.296 -6.1320000000000014 271.79200000000003 -6.636000000000001Q271.288 -7.140000000000001 271.288 -7.9239999999999995Z M318.5080000000001 -4.844V-14.784Q318.5080000000001 -17.080000000000002 319.8940000000001 -18.452Q321.2800000000001 -19.824 323.5480000000001 -19.824Q325.8440000000001 -19.824 327.23000000000013 -18.452Q328.6160000000001 -17.080000000000002 328.6160000000001 -14.784V-14.336Q328.6160000000001 -14.056000000000001 328.3360000000001 -14.056000000000001L326.2080000000001 -13.944Q325.9280000000001 -13.944 325.9280000000001 -14.224V-14.952Q325.9280000000001 -16.1 325.2700000000001 -16.8Q324.6120000000001 -17.5 323.5480000000001 -17.5Q322.4840000000001 -17.5 321.8400000000001 -16.8Q321.1960000000001 -16.1 321.1960000000001 -14.952V-4.648Q321.1960000000001 -3.5 321.8400000000001 -2.8Q322.4840000000001 -2.1 323.5480000000001 -2.1Q324.6120000000001 -2.1 325.2700000000001 -2.8Q325.9280000000001 -3.5 325.9280000000001 -4.648V-5.376Q325.9280000000001 -5.656 326.2080000000001 -5.656L328.3360000000001 -5.5440000000000005Q328.6160000000001 -5.5440000000000005 328.6160000000001 -5.264V-4.844Q328.6160000000001 -2.548 327.23000000000013 -1.162Q325.8440000000001 0.224 323.5480000000001 0.224Q321.2800000000001 0.224 319.8940000000001 -1.162Q318.5080000000001 -2.548 318.5080000000001 -4.844Z M348.92000000000013 -0.252 348.3040000000001 -3.472Q348.3040000000001 -3.528 348.26200000000006 -3.556Q348.2200000000001 -3.584 348.1640000000001 -3.584H343.6000000000001Q343.5440000000001 -3.584 343.50200000000007 -3.556Q343.4600000000001 -3.528 343.4600000000001 -3.472L342.8720000000001 -0.252Q342.8440000000001 0.0 342.56400000000014 0.0H340.4360000000001Q340.2960000000001 0.0 340.2260000000001 -0.084Q340.1560000000001 -0.168 340.1840000000001 -0.308L344.3560000000001 -19.348Q344.4120000000001 -19.6 344.6640000000001 -19.6H347.1560000000001Q347.4360000000001 -19.6 347.4640000000001 -19.348L351.6640000000001 -0.308V-0.252Q351.6640000000001 0.0 351.4120000000001 0.0H349.2280000000001Q348.9760000000001 0.0 348.92000000000013 -0.252ZM344.0200000000001 -5.712H347.7440000000001Q347.8280000000001 -5.712 347.8280000000001 -5.824L345.9240000000001 -15.764000000000001Q345.89600000000013 -15.82 345.8680000000001 -15.82Q345.8400000000001 -15.82 345.8120000000001 -15.764000000000001L343.9360000000001 -5.824Q343.9360000000001 -5.712 344.0200000000001 -5.712Z M372.86400000000015 -17.276H366.56400000000014Q366.4520000000001 -17.276 366.4520000000001 -17.164V-11.088000000000001Q366.4520000000001 -10.976 366.56400000000014 -10.976H370.4280000000001Q370.70800000000014 -10.976 370.70800000000014 -10.696V-8.932Q370.70800000000014 -8.652000000000001 370.4280000000001 -8.652000000000001H366.56400000000014Q366.4520000000001 -8.652000000000001 366.4520000000001 -8.540000000000001V-2.436Q366.4520000000001 -2.324 366.56400000000014 -2.324H372.86400000000015Q373.1440000000001 -2.324 373.1440000000001 -2.044V-0.28Q373.1440000000001 0.0 372.86400000000015 0.0H364.04400000000015Q363.7640000000001 0.0 363.7640000000001 -0.28V-19.32Q363.7640000000001 -19.6 364.04400000000015 -19.6H372.86400000000015Q373.1440000000001 -19.6 373.1440000000001 -19.32V-17.556Q373.1440000000001 -17.276 372.86400000000015 -17.276Z M394.0360000000001 -19.6H396.13600000000014Q396.4160000000001 -19.6 396.4160000000001 -19.32V-0.28Q396.4160000000001 0.0 396.13600000000014 0.0H393.7280000000001Q393.50400000000013 0.0 393.42000000000013 -0.224L388.66000000000014 -13.02Q388.6320000000001 -13.076 388.57600000000014 -13.062000000000001Q388.52000000000015 -13.048 388.52000000000015 -12.992L388.5480000000001 -0.28Q388.5480000000001 0.0 388.26800000000014 0.0H386.14000000000016Q385.8600000000001 0.0 385.8600000000001 -0.28V-19.32Q385.8600000000001 -19.6 386.14000000000016 -19.6H388.52000000000015Q388.74400000000014 -19.6 388.82800000000015 -19.376L393.61600000000016 -6.58Q393.6440000000001 -6.496 393.70000000000016 -6.51Q393.75600000000014 -6.524 393.75600000000014 -6.6080000000000005V-19.32Q393.75600000000014 -19.6 394.0360000000001 -19.6Z" fill="#E07020"/>
  </g>

  <g transform="translate(80.00, 320.00)">
    <path d="M62.53 -89.05V-72.02Q62.53 -71.11 62.010000000000005 -70.59Q61.49 -70.07000000000001 60.580000000000005 -70.07000000000001H45.24Q44.46 -70.07000000000001 44.46 -69.29V-1.9500000000000002Q44.46 -1.04 43.94 -0.52Q43.42 0.0 42.51 0.0H21.970000000000002Q21.060000000000002 0.0 20.54 -0.52Q20.02 -1.04 20.02 -1.9500000000000002V-69.29Q20.02 -70.07000000000001 19.240000000000002 -70.07000000000001H4.29Q3.38 -70.07000000000001 2.86 -70.59Q2.34 -71.11 2.34 -72.02V-89.05Q2.34 -89.96000000000001 2.86 -90.48Q3.38 -91.0 4.29 -91.0H60.580000000000005Q61.49 -91.0 62.010000000000005 -90.48Q62.53 -89.96000000000001 62.53 -89.05Z M65.25 -1.9500000000000002V-89.05Q65.25 -89.96000000000001 65.77000000000001 -90.48Q66.29 -91.0 67.2 -91.0H87.74000000000001Q88.65 -91.0 89.17 -90.48Q89.69 -89.96000000000001 89.69 -89.05V-1.9500000000000002Q89.69 -1.04 89.17 -0.52Q88.65 0.0 87.74000000000001 0.0H67.2Q66.29 0.0 65.77000000000001 -0.52Q65.25 -1.04 65.25 -1.9500000000000002Z M152.60000000000002 -89.05V-72.02Q152.60000000000002 -71.11 152.08 -70.59Q151.56 -70.07000000000001 150.65 -70.07000000000001H135.31Q134.53 -70.07000000000001 134.53 -69.29V-1.9500000000000002Q134.53 -1.04 134.01 -0.52Q133.49 0.0 132.58 0.0H112.04Q111.13000000000001 0.0 110.61000000000001 -0.52Q110.09 -1.04 110.09 -1.9500000000000002V-69.29Q110.09 -70.07000000000001 109.31 -70.07000000000001H94.36000000000001Q93.45 -70.07000000000001 92.93 -70.59Q92.41000000000001 -71.11 92.41000000000001 -72.02V-89.05Q92.41000000000001 -89.96000000000001 92.93 -90.48Q93.45 -91.0 94.36000000000001 -91.0H150.65Q151.56 -91.0 152.08 -90.48Q152.60000000000002 -89.96000000000001 152.60000000000002 -89.05Z M188.73 -1.69 180.8 -34.32Q180.54 -34.97 180.28 -34.97Q179.76 -34.97 179.76 -34.19V-1.9500000000000002Q179.76 -1.04 179.24 -0.52Q178.72 0.0 177.81 0.0H157.27Q156.35999999999999 0.0 155.83999999999997 -0.52Q155.32 -1.04 155.32 -1.9500000000000002V-89.05Q155.32 -89.96000000000001 155.83999999999997 -90.48Q156.35999999999999 -91.0 157.27 -91.0H186.51999999999998Q194.32 -91.0 200.365 -87.295Q206.41 -83.59 209.79000000000002 -77.025Q213.17000000000002 -70.46000000000001 213.17000000000002 -62.010000000000005Q213.17000000000002 -54.86 210.7 -49.205Q208.23 -43.550000000000004 203.55 -40.04Q203.03 -39.65 203.16 -39.0L213.69 -2.21Q213.82 -1.9500000000000002 213.82 -1.56Q213.82 0.0 212.0 0.0H190.81Q189.12 0.0 188.73 -1.69ZM180.54 -70.07000000000001Q179.76 -70.07000000000001 179.76 -69.29V-54.34Q179.76 -53.56 180.54 -53.56H182.23Q185.09 -53.56 186.91 -55.705Q188.73 -57.85 188.73 -61.75Q188.73 -65.78 186.975 -67.92500000000001Q185.22 -70.07000000000001 182.23 -70.07000000000001Z M266.07 -70.07000000000001H241.23999999999998Q240.45999999999998 -70.07000000000001 240.45999999999998 -69.29V-56.81Q240.45999999999998 -56.03 241.23999999999998 -56.03H254.10999999999999Q255.01999999999998 -56.03 255.54 -55.510000000000005Q256.06 -54.99 256.06 -54.08V-37.050000000000004Q256.06 -36.14 255.54 -35.620000000000005Q255.01999999999998 -35.1 254.10999999999999 -35.1H241.23999999999998Q240.45999999999998 -35.1 240.45999999999998 -34.32V-21.71Q240.45999999999998 -20.93 241.23999999999998 -20.93H266.07Q266.98 -20.93 267.5 -20.41Q268.02 -19.89 268.02 -18.98V-1.9500000000000002Q268.02 -1.04 267.5 -0.52Q266.98 0.0 266.07 0.0H217.97Q217.05999999999997 0.0 216.53999999999996 -0.52Q216.01999999999998 -1.04 216.01999999999998 -1.9500000000000002V-89.05Q216.01999999999998 -89.96000000000001 216.53999999999996 -90.48Q217.05999999999997 -91.0 217.97 -91.0H266.07Q266.98 -91.0 267.5 -90.48Q268.02 -89.96000000000001 268.02 -89.05V-72.02Q268.02 -71.11 267.5 -70.59Q266.98 -70.07000000000001 266.07 -70.07000000000001Z M293.74 -1.9500000000000002V-89.05Q293.74 -89.96000000000001 294.26 -90.48Q294.78000000000003 -91.0 295.69 -91.0H321.3Q329.88 -91.0 336.445 -87.75Q343.01 -84.5 346.65 -78.58500000000001Q350.29 -72.67 350.29 -65.0V-26.0Q350.29 -18.330000000000002 346.65 -12.415000000000001Q343.01 -6.5 336.445 -3.25Q329.88 0.0 321.3 0.0H295.69Q294.78000000000003 0.0 294.26 -0.52Q293.74 -1.04 293.74 -1.9500000000000002ZM318.96000000000004 -20.93 320.78000000000003 -21.060000000000002Q322.86 -21.19 324.29 -23.01Q325.72 -24.830000000000002 325.85 -27.69V-63.440000000000005Q325.85 -66.43 324.42 -68.25Q322.99 -70.07000000000001 320.65000000000003 -70.07000000000001H318.96000000000004Q318.18 -70.07000000000001 318.18 -69.29V-21.71Q318.18 -20.93 318.96000000000004 -20.93Z M403.58000000000004 -70.07000000000001H378.75000000000006Q377.97 -70.07000000000001 377.97 -69.29V-56.81Q377.97 -56.03 378.75000000000006 -56.03H391.62Q392.53000000000003 -56.03 393.05000000000007 -55.510000000000005Q393.57000000000005 -54.99 393.57000000000005 -54.08V-37.050000000000004Q393.57000000000005 -36.14 393.05000000000007 -35.620000000000005Q392.53000000000003 -35.1 391.62 -35.1H378.75000000000006Q377.97 -35.1 377.97 -34.32V-21.71Q377.97 -20.93 378.75000000000006 -20.93H403.58000000000004Q404.49 -20.93 405.01 -20.41Q405.53000000000003 -19.89 405.53000000000003 -18.98V-1.9500000000000002Q405.53000000000003 -1.04 405.01 -0.52Q404.49 0.0 403.58000000000004 0.0H355.48Q354.57000000000005 0.0 354.05000000000007 -0.52Q353.53000000000003 -1.04 353.53000000000003 -1.9500000000000002V-89.05Q353.53000000000003 -89.96000000000001 354.05000000000007 -90.48Q354.57000000000005 -91.0 355.48 -91.0H403.58000000000004Q404.49 -91.0 405.01 -90.48Q405.53000000000003 -89.96000000000001 405.53000000000003 -89.05V-72.02Q405.53000000000003 -71.11 405.01 -70.59Q404.49 -70.07000000000001 403.58000000000004 -70.07000000000001Z M431.25 -1.9500000000000002V-89.05Q431.25 -89.96000000000001 431.77 -90.48Q432.29 -91.0 433.2 -91.0H453.74Q454.65 -91.0 455.16999999999996 -90.48Q455.69 -89.96000000000001 455.69 -89.05V-21.71Q455.69 -20.93 456.47 -20.93H481.82Q482.73 -20.93 483.25 -20.41Q483.77 -19.89 483.77 -18.98V-1.9500000000000002Q483.77 -1.04 483.25 -0.52Q482.73 0.0 481.82 0.0H433.2Q432.29 0.0 431.77 -0.52Q431.25 -1.04 431.25 -1.9500000000000002Z M525.1 -1.82 523.6700000000001 -11.57Q523.6700000000001 -11.83 523.4100000000001 -12.09Q523.15 -12.35 522.76 -12.35H511.32000000000005Q510.93 -12.35 510.67 -12.09Q510.41 -11.83 510.41 -11.57L509.11 -1.82Q508.98 0.0 507.03000000000003 0.0H486.62Q484.54 0.0 484.93 -2.08L503.39000000000004 -89.31Q503.78000000000003 -91.0 505.6 -91.0H529.26Q531.08 -91.0 531.47 -89.31L549.9300000000001 -2.08V-1.56Q549.9300000000001 0.0 548.11 0.0H527.1800000000001Q525.23 0.0 525.1 -1.82ZM513.9200000000001 -31.07H520.03Q520.94 -31.07 520.6800000000001 -31.85L517.1700000000001 -55.25Q517.04 -55.77 516.78 -55.77Q516.52 -55.77 516.39 -55.25L513.27 -31.85Q513.27 -31.07 513.9200000000001 -31.07Z" fill="#F0EBE2"/>
  </g>
  <g transform="translate(80.00, 460.00)">
    <path d="M20.150000000000002 -1.69 1.9500000000000002 -88.92V-89.44Q1.9500000000000002 -91.0 3.77 -91.0H26.130000000000003Q28.080000000000002 -91.0 28.21 -89.18L34.06 -43.160000000000004Q34.06 -42.77 34.45 -42.77Q34.84 -42.77 34.84 -43.160000000000004L40.17 -89.18Q40.300000000000004 -91.0 42.25 -91.0H63.96Q66.17 -91.0 65.78 -88.92L47.32 -1.69Q46.93 0.0 45.11 0.0H22.36Q20.54 0.0 20.150000000000002 -1.69Z M68.11 -1.9500000000000002V-89.05Q68.11 -89.96000000000001 68.63 -90.48Q69.15 -91.0 70.06 -91.0H90.60000000000001Q91.51 -91.0 92.03 -90.48Q92.55000000000001 -89.96000000000001 92.55000000000001 -89.05V-1.9500000000000002Q92.55000000000001 -1.04 92.03 -0.52Q91.51 0.0 90.60000000000001 0.0H70.06Q69.15 0.0 68.63 -0.52Q68.11 -1.04 68.11 -1.9500000000000002Z M96.31 -1.9500000000000002V-89.05Q96.31 -89.96000000000001 96.83000000000001 -90.48Q97.35000000000001 -91.0 98.26 -91.0H123.87Q132.45000000000002 -91.0 139.01500000000001 -87.75Q145.58 -84.5 149.22000000000003 -78.58500000000001Q152.86 -72.67 152.86 -65.0V-26.0Q152.86 -18.330000000000002 149.22000000000003 -12.415000000000001Q145.58 -6.5 139.01500000000001 -3.25Q132.45000000000002 0.0 123.87 0.0H98.26Q97.35000000000001 0.0 96.83000000000001 -0.52Q96.31 -1.04 96.31 -1.9500000000000002ZM121.53 -20.93 123.35000000000001 -21.060000000000002Q125.43 -21.19 126.86000000000001 -23.01Q128.29000000000002 -24.830000000000002 128.42000000000002 -27.69V-63.440000000000005Q128.42000000000002 -66.43 126.99000000000001 -68.25Q125.56 -70.07000000000001 123.22000000000001 -70.07000000000001H121.53Q120.75 -70.07000000000001 120.75 -69.29V-21.71Q120.75 -20.93 121.53 -20.93Z M206.15 -70.07000000000001H181.32Q180.54 -70.07000000000001 180.54 -69.29V-56.81Q180.54 -56.03 181.32 -56.03H194.19Q195.1 -56.03 195.62 -55.510000000000005Q196.14 -54.99 196.14 -54.08V-37.050000000000004Q196.14 -36.14 195.62 -35.620000000000005Q195.1 -35.1 194.19 -35.1H181.32Q180.54 -35.1 180.54 -34.32V-21.71Q180.54 -20.93 181.32 -20.93H206.15Q207.06 -20.93 207.57999999999998 -20.41Q208.1 -19.89 208.1 -18.98V-1.9500000000000002Q208.1 -1.04 207.57999999999998 -0.52Q207.06 0.0 206.15 0.0H158.05Q157.14 0.0 156.62 -0.52Q156.1 -1.04 156.1 -1.9500000000000002V-89.05Q156.1 -89.96000000000001 156.62 -90.48Q157.14 -91.0 158.05 -91.0H206.15Q207.06 -91.0 207.57999999999998 -90.48Q208.1 -89.96000000000001 208.1 -89.05V-72.02Q208.1 -71.11 207.57999999999998 -70.59Q207.06 -70.07000000000001 206.15 -70.07000000000001Z M210.04 -26.78V-64.22Q210.04 -76.96000000000001 217.905 -84.5Q225.77 -92.04 238.9 -92.04Q252.03 -92.04 259.895 -84.5Q267.76 -76.96000000000001 267.76 -64.22V-26.78Q267.76 -14.040000000000001 259.895 -6.5Q252.03 1.04 238.9 1.04Q225.77 1.04 217.905 -6.5Q210.04 -14.040000000000001 210.04 -26.78ZM243.32 -25.740000000000002V-65.26Q243.32 -67.99000000000001 242.14999999999998 -69.55000000000001Q240.98 -71.11 238.9 -71.11Q236.82 -71.11 235.64999999999998 -69.55000000000001Q234.48 -67.99000000000001 234.48 -65.26V-25.740000000000002Q234.48 -23.01 235.64999999999998 -21.450000000000003Q236.82 -19.89 238.9 -19.89Q240.98 -19.89 242.14999999999998 -21.450000000000003Q243.32 -23.01 243.32 -25.740000000000002Z M293.74 -1.9500000000000002V-89.05Q293.74 -89.96000000000001 294.26 -90.48Q294.78000000000003 -91.0 295.69 -91.0H316.23Q317.14 -91.0 317.65999999999997 -90.48Q318.18 -89.96000000000001 318.18 -89.05V-1.9500000000000002Q318.18 -1.04 317.65999999999997 -0.52Q317.14 0.0 316.23 0.0H295.69Q294.78000000000003 0.0 294.26 -0.52Q293.74 -1.04 293.74 -1.9500000000000002Z M321.16 -26.650000000000002V-64.61Q321.16 -77.22 328.895 -84.63Q336.63 -92.04 349.63 -92.04Q362.5 -92.04 370.3 -84.63Q378.1 -77.22 378.1 -64.61V-63.96Q378.1 -63.050000000000004 377.58000000000004 -62.465Q377.06 -61.88 376.15 -61.88L355.61 -61.230000000000004Q353.66 -61.230000000000004 353.66 -63.050000000000004V-66.3Q353.66 -68.51 352.555 -69.81Q351.45 -71.11 349.63 -71.11Q347.81 -71.11 346.70500000000004 -69.81Q345.6 -68.51 345.6 -66.3V-24.57Q345.6 -22.36 346.70500000000004 -21.125Q347.81 -19.89 349.63 -19.89Q351.45 -19.89 352.555 -21.125Q353.66 -22.36 353.66 -24.57V-28.080000000000002Q353.66 -29.900000000000002 355.61 -29.900000000000002L376.15 -29.25Q377.06 -29.25 377.58000000000004 -28.665Q378.1 -28.080000000000002 378.1 -27.17V-26.650000000000002Q378.1 -18.330000000000002 374.525 -12.025000000000002Q370.95 -5.720000000000001 364.515 -2.3400000000000003Q358.08 1.04 349.63 1.04Q336.76 1.04 328.96000000000004 -6.5Q321.16 -14.040000000000001 321.16 -26.650000000000002Z M380.82 -1.9500000000000002V-89.05Q380.82 -89.96000000000001 381.34000000000003 -90.48Q381.86 -91.0 382.77 -91.0H403.31Q404.22 -91.0 404.74 -90.48Q405.26 -89.96000000000001 405.26 -89.05V-1.9500000000000002Q405.26 -1.04 404.74 -0.52Q404.22 0.0 403.31 0.0H382.77Q381.86 0.0 381.34000000000003 -0.52Q380.82 -1.04 380.82 -1.9500000000000002Z" fill="#E07020"/>
  </g>

  <!-- Small logo bottom-left -->
  <g transform="translate(80.00, 640.00)">
    <path d="M0.9199999999999999 -9.016V-23.23Q0.9199999999999999 -27.508 3.6799999999999997 -30.037999999999997Q6.4399999999999995 -32.568 10.994 -32.568Q13.984 -32.568 16.261 -31.418Q18.538 -30.268 19.803 -28.128999999999998Q21.068 -25.99 21.068 -23.137999999999998V-21.62Q21.068 -21.298 20.884 -21.113999999999997Q20.7 -20.93 20.378 -20.93H13.11Q12.788 -20.93 12.604 -21.113999999999997Q12.42 -21.298 12.42 -21.62V-23.23Q12.42 -24.104 12.029 -24.633Q11.638 -25.162 10.994 -25.162Q10.35 -25.162 9.959 -24.633Q9.568 -24.104 9.568 -23.23V-8.97Q9.568 -8.096 9.959 -7.567Q10.35 -7.038 10.994 -7.038Q11.638 -7.038 12.029 -7.567Q12.42 -8.096 12.42 -8.97V-11.224Q12.42 -11.5 12.144 -11.5H11.776Q11.454 -11.5 11.27 -11.684000000000001Q11.086 -11.868 11.086 -12.19V-17.48Q11.086 -17.802 11.27 -17.985999999999997Q11.454 -18.169999999999998 11.776 -18.169999999999998H20.378Q20.7 -18.169999999999998 20.884 -17.985999999999997Q21.068 -17.802 21.068 -17.48V-9.016Q21.068 -6.21 19.803 -4.071Q18.538 -1.932 16.261 -0.782Q13.984 0.368 10.994 0.368Q6.4399999999999995 0.368 3.6799999999999997 -2.1849999999999996Q0.9199999999999999 -4.7379999999999995 0.9199999999999999 -9.016Z M35.938 -0.644 35.432 -4.094Q35.432 -4.186 35.34 -4.2780000000000005Q35.248 -4.37 35.11 -4.37H31.061999999999998Q30.924 -4.37 30.832 -4.2780000000000005Q30.740000000000002 -4.186 30.740000000000002 -4.094L30.28 -0.644Q30.234 0.0 29.543999999999997 0.0H22.322Q21.586 0.0 21.724 -0.736L28.256 -31.602Q28.394 -32.2 29.038 -32.2H37.41Q38.054 -32.2 38.192 -31.602L44.724000000000004 -0.736V-0.552Q44.724000000000004 0.0 44.08 0.0H36.674Q35.984 0.0 35.938 -0.644ZM31.982 -10.994H34.144Q34.466 -10.994 34.373999999999995 -11.27L33.132 -19.55Q33.086 -19.733999999999998 32.994 -19.733999999999998Q32.902 -19.733999999999998 32.856 -19.55L31.752 -11.27Q31.752 -10.994 31.982 -10.994Z M61.618 -32.2H68.794Q69.116 -32.2 69.30000000000001 -32.016000000000005Q69.48400000000001 -31.832 69.48400000000001 -31.509999999999998V-0.69Q69.48400000000001 -0.368 69.30000000000001 -0.184Q69.116 0.0 68.794 0.0H61.525999999999996Q61.204 0.0 61.019999999999996 -0.184Q60.836 -0.368 60.836 -0.69V-19.412Q60.836 -19.596 60.721000000000004 -19.642Q60.606 -19.688 60.514 -19.504L57.892 -15.088L57.432 -14.26H57.386L54.35 -19.504Q54.258 -19.688 54.143 -19.665Q54.028 -19.642 54.028 -19.412V-0.69Q54.028 -0.368 53.844 -0.184Q53.660000000000004 0.0 53.338 0.0H46.07Q45.748000000000005 0.0 45.56400000000001 -0.184Q45.38 -0.368 45.38 -0.69V-31.509999999999998Q45.38 -31.832 45.56400000000001 -32.016000000000005Q45.748000000000005 -32.2 46.07 -32.2H53.246Q53.844 -32.2 54.074 -31.694L57.294 -25.806Q57.386 -25.668 57.501000000000005 -25.645Q57.616 -25.622 57.662 -25.806L60.790000000000006 -31.694Q61.066 -32.2 61.618 -32.2Z M88.356 -24.794H79.57000000000001Q79.294 -24.794 79.294 -24.518V-20.102Q79.294 -19.826 79.57000000000001 -19.826H84.124Q84.446 -19.826 84.63 -19.642Q84.81400000000001 -19.458 84.81400000000001 -19.136V-13.11Q84.81400000000001 -12.788 84.63 -12.604Q84.446 -12.42 84.124 -12.42H79.57000000000001Q79.294 -12.42 79.294 -12.144V-7.6819999999999995Q79.294 -7.406 79.57000000000001 -7.406H88.356Q88.678 -7.406 88.862 -7.2219999999999995Q89.046 -7.038 89.046 -6.716V-0.69Q89.046 -0.368 88.862 -0.184Q88.678 0.0 88.356 0.0H71.336Q71.01400000000001 0.0 70.83000000000001 -0.184Q70.646 -0.368 70.646 -0.69V-31.509999999999998Q70.646 -31.832 70.83000000000001 -32.016000000000005Q71.01400000000001 -32.2 71.336 -32.2H88.356Q88.678 -32.2 88.862 -32.016000000000005Q89.046 -31.832 89.046 -31.509999999999998V-25.483999999999998Q89.046 -25.162 88.862 -24.978Q88.678 -24.794 88.356 -24.794Z" fill="#F0EBE2"/>
    <path d="M92.508 -0.45999999999999996V-31.74Q92.508 -32.2 92.96799999999999 -32.2H99.72999999999999Q103.134 -32.2 105.112 -29.923000000000002Q107.09 -27.646 107.09 -23.736V-8.464Q107.09 -4.554 105.112 -2.277Q103.134 0.0 99.72999999999999 0.0H92.96799999999999Q92.508 0.0 92.508 -0.45999999999999996ZM95.13 -2.162H99.72999999999999Q101.984 -2.208 103.29499999999999 -3.887Q104.606 -5.566 104.606 -8.51V-23.644Q104.606 -26.634 103.29499999999999 -28.336Q101.984 -30.038 99.684 -30.038H95.13Q94.946 -30.038 94.946 -29.854V-2.346Q94.946 -2.162 95.13 -2.162Z M111.978 -7.359999999999999V-24.794Q111.978 -28.29 114.048 -30.429Q116.118 -32.568 119.52199999999999 -32.568Q122.926 -32.568 125.042 -30.429Q127.158 -28.29 127.158 -24.794V-7.359999999999999Q127.158 -3.91 125.042 -1.7710000000000001Q122.926 0.368 119.52199999999999 0.368Q116.164 0.368 114.071 -1.7710000000000001Q111.978 -3.91 111.978 -7.359999999999999ZM124.72 -7.268V-24.886Q124.72 -27.323999999999998 123.271 -28.865Q121.822 -30.406 119.52199999999999 -30.406Q117.268 -30.406 115.842 -28.865Q114.416 -27.323999999999998 114.416 -24.886V-7.268Q114.416 -4.83 115.842 -3.3120000000000003Q117.268 -1.794 119.52199999999999 -1.794Q121.822 -1.794 123.271 -3.3120000000000003Q124.72 -4.83 124.72 -7.268Z M131.72400000000002 -7.359999999999999V-24.794Q131.72400000000002 -28.29 133.794 -30.429Q135.864 -32.568 139.268 -32.568Q142.672 -32.568 144.788 -30.429Q146.904 -28.29 146.904 -24.794V-7.359999999999999Q146.904 -3.91 144.788 -1.7710000000000001Q142.672 0.368 139.268 0.368Q135.91 0.368 133.817 -1.7710000000000001Q131.72400000000002 -3.91 131.72400000000002 -7.359999999999999ZM144.466 -7.268V-24.886Q144.466 -27.323999999999998 143.017 -28.865Q141.568 -30.406 139.268 -30.406Q137.014 -30.406 135.58800000000002 -28.865Q134.162 -27.323999999999998 134.162 -24.886V-7.268Q134.162 -4.83 135.58800000000002 -3.3120000000000003Q137.014 -1.794 139.268 -1.794Q141.568 -1.794 143.017 -3.3120000000000003Q144.466 -4.83 144.466 -7.268Z M164.71800000000002 -0.368 159.65800000000002 -14.95Q159.61200000000002 -15.088 159.47400000000002 -15.088H154.92000000000002Q154.73600000000002 -15.088 154.73600000000002 -14.904V-0.45999999999999996Q154.73600000000002 0.0 154.276 0.0H152.758Q152.298 0.0 152.298 -0.45999999999999996V-31.74Q152.298 -32.2 152.758 -32.2H159.888Q163.108 -32.2 165.086 -29.808Q167.06400000000002 -27.416 167.06400000000002 -23.552Q167.06400000000002 -20.47 165.73000000000002 -18.308Q164.39600000000002 -16.146 162.096 -15.363999999999999Q161.912 -15.318 161.95800000000003 -15.134L167.156 -0.506L167.20200000000003 -0.322Q167.20200000000003 0.0 166.788 0.0H165.27Q164.85600000000002 0.0 164.71800000000002 -0.368ZM154.73600000000002 -29.854V-17.296Q154.73600000000002 -17.112 154.92000000000002 -17.112H159.61200000000002Q161.866 -17.112 163.246 -18.883Q164.626 -20.654 164.626 -23.552Q164.626 -26.496 163.246 -28.267Q161.866 -30.038 159.61200000000002 -30.038H154.92000000000002Q154.73600000000002 -30.038 154.73600000000002 -29.854Z" fill="#F0EBE2"/>
  </g>
  <circle cx="256.08" cy="626.20" r="3.68" fill="#E07020"/>
  <g transform="translate(263.44, 640.00)">
    <path d="M24.012 -14.812V-8.372Q24.012 -8.05 23.828 -7.866Q23.644 -7.6819999999999995 23.322 -7.6819999999999995H21.942Q21.666 -7.6819999999999995 21.666 -7.406V-0.69Q21.666 -0.368 21.482 -0.184Q21.298 0.0 20.976 0.0H13.708Q13.386 0.0 13.201999999999998 -0.184Q13.017999999999999 -0.368 13.017999999999999 -0.69V-7.406Q13.017999999999999 -7.6819999999999995 12.741999999999999 -7.6819999999999995H1.058Q0.736 -7.6819999999999995 0.552 -7.866Q0.368 -8.05 0.368 -8.372V-13.478Q0.368 -13.892 0.506 -14.306L6.072 -31.648Q6.256 -32.2 6.854 -32.2H14.628Q14.996 -32.2 15.157 -31.993000000000002Q15.318 -31.785999999999998 15.225999999999999 -31.418L10.488 -15.824Q10.442 -15.501999999999999 10.718 -15.501999999999999H12.741999999999999Q13.017999999999999 -15.501999999999999 13.017999999999999 -15.778V-18.906Q13.017999999999999 -19.227999999999998 13.201999999999998 -19.412Q13.386 -19.596 13.708 -19.596H20.976Q21.298 -19.596 21.482 -19.412Q21.666 -19.227999999999998 21.666 -18.906V-15.778Q21.666 -15.501999999999999 21.942 -15.501999999999999H23.322Q23.644 -15.501999999999999 23.828 -15.318Q24.012 -15.134 24.012 -14.812Z M28.163999999999998 -32.2H35.708Q36.03 -32.2 36.214 -32.016000000000005Q36.397999999999996 -31.832 36.397999999999996 -31.509999999999998V-0.69Q36.397999999999996 -0.368 36.214 -0.184Q36.03 0.0 35.708 0.0H28.439999999999998Q28.118 0.0 27.933999999999997 -0.184Q27.75 -0.368 27.75 -0.69V-24.058Q27.75 -24.334 27.474 -24.334H24.438Q24.116 -24.334 23.932 -24.518Q23.747999999999998 -24.701999999999998 23.747999999999998 -25.024V-30.36Q23.747999999999998 -30.958 24.299999999999997 -31.142L27.336 -32.062Q27.75 -32.2 28.163999999999998 -32.2Z" fill="#E07020"/>
  </g>

</svg>
