<?xml version="1.0" encoding="UTF-8"?>
<svg xmlns="http://www.w3.org/2000/svg" viewBox="0 0 1280 720" width="1280" height="720" preserveAspectRatio="xMidYMid meet">
  <title>GAMEDOOR.41 YouTube Thumbnail Quiz</title>
  <defs>
    <linearGradient id="thBg" x1="0%" y1="0%" x2="100%" y2="100%">
      <stop offset="0%" stop-color="#1a0d08"/>
      <stop offset="100%" stop-color="#0C0800"/>
    </linearGradient>
  </defs>
  <rect width="1280" height="720" fill="url(#thBg)"/>
  <rect x="0" y="0" width="16" height="720" fill="#00e5ff"/>

  <g transform="translate(765.20, 760.00)" opacity="0.06">
    <path d="M313.2 -193.2V-109.2Q313.2 -105.0 310.79999999999995 -102.6Q308.4 -100.2 304.2 -100.2H286.2Q282.59999999999997 -100.2 282.59999999999997 -96.6V-9.0Q282.59999999999997 -4.8 280.2 -2.4Q277.8 0.0 273.59999999999997 0.0H178.79999999999998Q174.6 0.0 172.2 -2.4Q169.79999999999998 -4.8 169.79999999999998 -9.0V-96.6Q169.79999999999998 -100.2 166.2 -100.2H13.799999999999999Q9.6 -100.2 7.199999999999999 -102.6Q4.8 -105.0 4.8 -109.2V-175.79999999999998Q4.8 -181.2 6.6 -186.6L79.2 -412.8Q81.6 -420.0 89.39999999999999 -420.0H190.79999999999998Q195.6 -420.0 197.7 -417.29999999999995Q199.79999999999998 -414.59999999999997 198.6 -409.8L136.79999999999998 -206.4Q136.2 -202.2 139.79999999999998 -202.2H166.2Q169.79999999999998 -202.2 169.79999999999998 -205.79999999999998V-246.6Q169.79999999999998 -250.79999999999998 172.2 -253.2Q174.6 -255.6 178.79999999999998 -255.6H273.59999999999997Q277.8 -255.6 280.2 -253.2Q282.59999999999997 -250.79999999999998 282.59999999999997 -246.6V-205.79999999999998Q282.59999999999997 -202.2 286.2 -202.2H304.2Q308.4 -202.2 310.79999999999995 -199.8Q313.2 -197.4 313.2 -193.2Z M365.4 -420.0H463.79999999999995Q468.0 -420.0 470.4 -417.6Q472.79999999999995 -415.2 472.79999999999995 -411.0V-9.0Q472.79999999999995 -4.8 470.4 -2.4Q468.0 0.0 463.79999999999995 0.0H369.0Q364.8 0.0 362.4 -2.4Q360.0 -4.8 360.0 -9.0V-313.8Q360.0 -317.4 356.4 -317.4H316.8Q312.6 -317.4 310.20000000000005 -319.79999999999995Q307.8 -322.2 307.8 -326.4V-396.0Q307.8 -403.8 315.0 -406.2L354.6 -418.2Q360.0 -420.0 365.4 -420.0Z" fill="#00e5ff"/>
  </g>

  <g transform="translate(80.00, 180.00)">
    <path d="M6.692 0.0H2.016Q1.736 0.0 1.736 -0.28V-19.32Q1.736 -19.6 2.016 -19.6H6.3Q8.848 -19.6 10.290000000000001 -18.270000000000003Q11.732000000000001 -16.94 11.732000000000001 -14.392Q11.732000000000001 -11.368 9.576 -10.22Q9.436 -10.136000000000001 9.548 -10.08Q10.668000000000001 -9.408 11.298000000000002 -8.204Q11.928 -7.0 11.928 -5.348Q11.928 -2.8000000000000003 10.486 -1.4000000000000001Q9.044 0.0 6.692 0.0ZM4.424 -17.164V-11.228Q4.424 -11.116 4.5360000000000005 -11.116H6.328Q7.644 -11.116 8.372 -11.914Q9.1 -12.712 9.1 -14.14Q9.1 -15.624 8.372 -16.45Q7.644 -17.276 6.328 -17.276H4.5360000000000005Q4.424 -17.276 4.424 -17.164ZM9.24 -5.684Q9.24 -7.308 8.512 -8.218Q7.784 -9.128 6.496 -9.128H4.5360000000000005Q4.424 -9.128 4.424 -9.016V-2.464Q4.424 -2.352 4.5360000000000005 -2.352H6.468Q7.756 -2.352 8.498000000000001 -3.2199999999999998Q9.24 -4.088 9.24 -5.684Z M24.364 -5.32V-19.32Q24.364 -19.6 24.644000000000002 -19.6H26.772000000000002Q27.052 -19.6 27.052 -19.32V-5.04Q27.052 -3.724 27.71 -2.912Q28.368000000000002 -2.1 29.432000000000002 -2.1Q30.524 -2.1 31.182000000000002 -2.912Q31.840000000000003 -3.724 31.840000000000003 -5.04V-19.32Q31.840000000000003 -19.6 32.120000000000005 -19.6H34.248000000000005Q34.528 -19.6 34.528 -19.32V-5.32Q34.528 -2.828 33.128 -1.3019999999999998Q31.728 0.224 29.432000000000002 0.224Q27.136000000000003 0.224 25.75 -1.3019999999999998Q24.364 -2.828 24.364 -5.32Z M46.936 -0.28V-2.156Q46.936 -2.2960000000000003 47.02 -2.492L53.516000000000005 -17.136Q53.544000000000004 -17.192 53.516000000000005 -17.234Q53.488 -17.276 53.432 -17.276H47.216Q46.936 -17.276 46.936 -17.556V-19.32Q46.936 -19.6 47.216 -19.6H56.148Q56.428000000000004 -19.6 56.428000000000004 -19.32V-17.444Q56.428000000000004 -17.332 56.344 -17.108L49.82 -2.464Q49.792 -2.408 49.82 -2.3659999999999997Q49.848 -2.324 49.904 -2.324H56.148Q56.428000000000004 -2.324 56.428000000000004 -2.044V-0.28Q56.428000000000004 0.0 56.148 0.0H47.216Q46.936 0.0 46.936 -0.28Z M68.164 -0.28V-2.156Q68.164 -2.2960000000000003 68.248 -2.492L74.744 -17.136Q74.772 -17.192 74.744 -17.234Q74.71600000000001 -17.276 74.66 -17.276H68.444Q68.164 -17.276 68.164 -17.556V-19.32Q68.164 -19.6 68.444 -19.6H77.376Q77.656 -19.6 77.656 -19.32V-17.444Q77.656 -17.332 77.572 -17.108L71.048 -2.464Q71.02000000000001 -2.408 71.048 -2.3659999999999997Q71.07600000000001 -2.324 71.132 -2.324H77.376Q77.656 -2.324 77.656 -2.044V-0.28Q77.656 0.0 77.376 0.0H68.444Q68.164 0.0 68.164 -0.28Z M109.024 -0.308V-8.316L108.99600000000001 -8.456L105.10400000000001 -19.292L105.07600000000001 -19.404Q105.07600000000001 -19.6 105.328 -19.6H107.56800000000001Q107.82000000000001 -19.6 107.90400000000001 -19.376L110.284 -11.648Q110.31200000000001 -11.592 110.36800000000001 -11.592Q110.424 -11.592 110.45200000000001 -11.648L112.83200000000001 -19.376Q112.91600000000001 -19.6 113.168 -19.6H115.408Q115.71600000000001 -19.6 115.632 -19.292L111.74000000000001 -8.456L111.712 -8.316V-0.308Q111.712 -0.028 111.432 -0.028H109.304Q109.024 -0.028 109.024 -0.308Z M127.9 -4.9V-14.672Q127.9 -16.996 129.3 -18.41Q130.70000000000002 -19.824 132.996 -19.824Q135.32000000000002 -19.824 136.73400000000004 -18.41Q138.14800000000002 -16.996 138.14800000000002 -14.672V-4.9Q138.14800000000002 -2.576 136.73400000000004 -1.176Q135.32000000000002 0.224 132.996 0.224Q130.70000000000002 0.224 129.3 -1.176Q127.9 -2.576 127.9 -4.9ZM135.46 -4.788V-14.812000000000001Q135.46 -16.016000000000002 134.788 -16.758000000000003Q134.116 -17.5 132.996 -17.5Q131.90400000000002 -17.5 131.24600000000004 -16.758000000000003Q130.58800000000002 -16.016000000000002 130.58800000000002 -14.812000000000001V-4.788Q130.58800000000002 -3.584 131.24600000000004 -2.842Q131.90400000000002 -2.1 132.996 -2.1Q134.116 -2.1 134.788 -2.842Q135.46 -3.584 135.46 -4.788Z M151.08800000000002 -5.32V-19.32Q151.08800000000002 -19.6 151.36800000000002 -19.6H153.496Q153.776 -19.6 153.776 -19.32V-5.04Q153.776 -3.724 154.43400000000003 -2.912Q155.092 -2.1 156.156 -2.1Q157.24800000000002 -2.1 157.906 -2.912Q158.56400000000002 -3.724 158.56400000000002 -5.04V-19.32Q158.56400000000002 -19.6 158.84400000000002 -19.6H160.972Q161.252 -19.6 161.252 -19.32V-5.32Q161.252 -2.828 159.85200000000003 -1.3019999999999998Q158.45200000000003 0.224 156.156 0.224Q153.86 0.224 152.47400000000002 -1.3019999999999998Q151.08800000000002 -2.828 151.08800000000002 -5.32Z M182.032 -0.224 179.45600000000002 -8.568Q179.42800000000003 -8.652000000000001 179.34400000000002 -8.652000000000001H177.38400000000001Q177.27200000000002 -8.652000000000001 177.27200000000002 -8.540000000000001V-0.28Q177.27200000000002 0.0 176.99200000000002 0.0H174.864Q174.584 0.0 174.584 -0.28V-19.32Q174.584 -19.6 174.864 -19.6H179.876Q181.304 -19.6 182.39600000000002 -18.9Q183.488 -18.2 184.09 -16.926000000000002Q184.692 -15.652000000000001 184.692 -14.028Q184.692 -12.264000000000001 183.964 -10.962Q183.23600000000002 -9.66 181.976 -9.072000000000001Q181.89200000000002 -8.988 181.92000000000002 -8.904L184.776 -0.308L184.804 -0.196Q184.804 0.0 184.55200000000002 0.0H182.36800000000002Q182.116 0.0 182.032 -0.224ZM177.27200000000002 -17.164V-10.892Q177.27200000000002 -10.78 177.38400000000001 -10.78H179.45600000000002Q180.604 -10.78 181.30400000000003 -11.661999999999999Q182.00400000000002 -12.544 182.00400000000002 -14.0Q182.00400000000002 -15.512 181.30400000000003 -16.394Q180.604 -17.276 179.45600000000002 -17.276H177.38400000000001Q177.27200000000002 -17.276 177.27200000000002 -17.164Z M217.824 0.0H213.148Q212.868 0.0 212.868 -0.28V-19.32Q212.868 -19.6 213.148 -19.6H217.43200000000002Q219.98000000000002 -19.6 221.42200000000003 -18.270000000000003Q222.864 -16.94 222.864 -14.392Q222.864 -11.368 220.708 -10.22Q220.568 -10.136000000000001 220.68 -10.08Q221.8 -9.408 222.43 -8.204Q223.06 -7.0 223.06 -5.348Q223.06 -2.8000000000000003 221.618 -1.4000000000000001Q220.17600000000002 0.0 217.824 0.0ZM215.556 -17.164V-11.228Q215.556 -11.116 215.668 -11.116H217.46Q218.776 -11.116 219.50400000000002 -11.914Q220.232 -12.712 220.232 -14.14Q220.232 -15.624 219.50400000000002 -16.45Q218.776 -17.276 217.46 -17.276H215.668Q215.556 -17.276 215.556 -17.164ZM220.372 -5.684Q220.372 -7.308 219.644 -8.218Q218.916 -9.128 217.62800000000001 -9.128H215.668Q215.556 -9.128 215.556 -9.016V-2.464Q215.556 -2.352 215.668 -2.352H217.6Q218.888 -2.352 219.63 -3.2199999999999998Q220.372 -4.088 220.372 -5.684Z M243.084 -0.224 240.508 -8.568Q240.48000000000002 -8.652000000000001 240.39600000000002 -8.652000000000001H238.436Q238.324 -8.652000000000001 238.324 -8.540000000000001V-0.28Q238.324 0.0 238.044 0.0H235.916Q235.636 0.0 235.636 -0.28V-19.32Q235.636 -19.6 235.916 -19.6H240.928Q242.356 -19.6 243.448 -18.9Q244.54000000000002 -18.2 245.142 -16.926000000000002Q245.744 -15.652000000000001 245.744 -14.028Q245.744 -12.264000000000001 245.01600000000002 -10.962Q244.288 -9.66 243.02800000000002 -9.072000000000001Q242.94400000000002 -8.988 242.972 -8.904L245.828 -0.308L245.856 -0.196Q245.856 0.0 245.604 0.0H243.42000000000002Q243.168 0.0 243.084 -0.224ZM238.324 -17.164V-10.892Q238.324 -10.78 238.436 -10.78H240.508Q241.656 -10.78 242.356 -11.661999999999999Q243.056 -12.544 243.056 -14.0Q243.056 -15.512 242.356 -16.394Q241.656 -17.276 240.508 -17.276H238.436Q238.324 -17.276 238.324 -17.164Z M265.684 -0.252 265.068 -3.472Q265.068 -3.528 265.02599999999995 -3.556Q264.984 -3.584 264.928 -3.584H260.364Q260.308 -3.584 260.26599999999996 -3.556Q260.224 -3.528 260.224 -3.472L259.636 -0.252Q259.608 0.0 259.32800000000003 0.0H257.2Q257.06 0.0 256.99 -0.084Q256.92 -0.168 256.948 -0.308L261.12 -19.348Q261.176 -19.6 261.428 -19.6H263.92Q264.2 -19.6 264.228 -19.348L268.428 -0.308V-0.252Q268.428 0.0 268.176 0.0H265.992Q265.74 0.0 265.684 -0.252ZM260.784 -5.712H264.508Q264.592 -5.712 264.592 -5.824L262.688 -15.764000000000001Q262.66 -15.82 262.632 -15.82Q262.604 -15.82 262.576 -15.764000000000001L260.7 -5.824Q260.7 -5.712 260.784 -5.712Z M280.528 -0.28V-19.32Q280.528 -19.6 280.80800000000005 -19.6H282.93600000000004Q283.216 -19.6 283.216 -19.32V-0.28Q283.216 0.0 282.93600000000004 0.0H280.80800000000005Q280.528 0.0 280.528 -0.28Z M304.86400000000003 -19.6H306.96400000000006Q307.244 -19.6 307.244 -19.32V-0.28Q307.244 0.0 306.96400000000006 0.0H304.55600000000004Q304.33200000000005 0.0 304.24800000000005 -0.224L299.48800000000006 -13.02Q299.46000000000004 -13.076 299.40400000000005 -13.062000000000001Q299.34800000000007 -13.048 299.34800000000007 -12.992L299.37600000000003 -0.28Q299.37600000000003 0.0 299.09600000000006 0.0H296.9680000000001Q296.68800000000005 0.0 296.68800000000005 -0.28V-19.32Q296.68800000000005 -19.6 296.9680000000001 -19.6H299.34800000000007Q299.57200000000006 -19.6 299.65600000000006 -19.376L304.4440000000001 -6.58Q304.47200000000004 -6.496 304.528 -6.51Q304.58400000000006 -6.524 304.58400000000006 -6.6080000000000005V-19.32Q304.58400000000006 -19.6 304.86400000000003 -19.6Z M351.2720000000001 -7.9239999999999995Q351.2720000000001 -8.708000000000002 351.77600000000007 -9.212000000000002Q352.2800000000001 -9.716000000000001 353.06400000000014 -9.716000000000001Q353.8480000000001 -9.716000000000001 354.3520000000001 -9.212000000000002Q354.8560000000001 -8.708000000000002 354.8560000000001 -7.9239999999999995Q354.8560000000001 -7.140000000000001 354.3520000000001 -6.636000000000001Q353.8480000000001 -6.1320000000000014 353.06400000000014 -6.1320000000000014Q352.2800000000001 -6.1320000000000014 351.77600000000007 -6.636000000000001Q351.2720000000001 -7.140000000000001 351.2720000000001 -7.9239999999999995Z M398.49200000000013 -4.844V-14.784Q398.49200000000013 -17.080000000000002 399.87800000000016 -18.452Q401.2640000000001 -19.824 403.53200000000015 -19.824Q405.82800000000015 -19.824 407.21400000000017 -18.452Q408.60000000000014 -17.080000000000002 408.60000000000014 -14.784V-14.336Q408.60000000000014 -14.056000000000001 408.32000000000016 -14.056000000000001L406.1920000000001 -13.944Q405.91200000000015 -13.944 405.91200000000015 -14.224V-14.952Q405.91200000000015 -16.1 405.25400000000013 -16.8Q404.5960000000001 -17.5 403.53200000000015 -17.5Q402.46800000000013 -17.5 401.8240000000001 -16.8Q401.1800000000001 -16.1 401.1800000000001 -14.952V-4.648Q401.1800000000001 -3.5 401.8240000000001 -2.8Q402.46800000000013 -2.1 403.53200000000015 -2.1Q404.5960000000001 -2.1 405.25400000000013 -2.8Q405.91200000000015 -3.5 405.91200000000015 -4.648V-5.376Q405.91200000000015 -5.656 406.1920000000001 -5.656L408.32000000000016 -5.5440000000000005Q408.60000000000014 -5.5440000000000005 408.60000000000014 -5.264V-4.844Q408.60000000000014 -2.548 407.21400000000017 -1.162Q405.82800000000015 0.224 403.53200000000015 0.224Q401.2640000000001 0.224 399.87800000000016 -1.162Q398.49200000000013 -2.548 398.49200000000013 -4.844Z M428.90400000000017 -0.252 428.2880000000001 -3.472Q428.2880000000001 -3.528 428.2460000000001 -3.556Q428.2040000000001 -3.584 428.14800000000014 -3.584H423.5840000000001Q423.52800000000013 -3.584 423.4860000000001 -3.556Q423.44400000000013 -3.528 423.44400000000013 -3.472L422.85600000000017 -0.252Q422.82800000000015 0.0 422.5480000000002 0.0H420.42000000000013Q420.28000000000014 0.0 420.21000000000015 -0.084Q420.14000000000016 -0.168 420.1680000000001 -0.308L424.34000000000015 -19.348Q424.39600000000013 -19.6 424.64800000000014 -19.6H427.14000000000016Q427.42000000000013 -19.6 427.44800000000015 -19.348L431.64800000000014 -0.308V-0.252Q431.64800000000014 0.0 431.39600000000013 0.0H429.21200000000016Q428.96000000000015 0.0 428.90400000000017 -0.252ZM424.00400000000013 -5.712H427.7280000000001Q427.8120000000001 -5.712 427.8120000000001 -5.824L425.90800000000013 -15.764000000000001Q425.88000000000017 -15.82 425.85200000000015 -15.82Q425.8240000000001 -15.82 425.79600000000016 -15.764000000000001L423.92000000000013 -5.824Q423.92000000000013 -5.712 424.00400000000013 -5.712Z M452.8480000000002 -17.276H446.5480000000002Q446.43600000000015 -17.276 446.43600000000015 -17.164V-11.088000000000001Q446.43600000000015 -10.976 446.5480000000002 -10.976H450.41200000000015Q450.6920000000002 -10.976 450.6920000000002 -10.696V-8.932Q450.6920000000002 -8.652000000000001 450.41200000000015 -8.652000000000001H446.5480000000002Q446.43600000000015 -8.652000000000001 446.43600000000015 -8.540000000000001V-2.436Q446.43600000000015 -2.324 446.5480000000002 -2.324H452.8480000000002Q453.12800000000016 -2.324 453.12800000000016 -2.044V-0.28Q453.12800000000016 0.0 452.8480000000002 0.0H444.0280000000002Q443.74800000000016 0.0 443.74800000000016 -0.28V-19.32Q443.74800000000016 -19.6 444.0280000000002 -19.6H452.8480000000002Q453.12800000000016 -19.6 453.12800000000016 -19.32V-17.556Q453.12800000000016 -17.276 452.8480000000002 -17.276Z M474.02000000000015 -19.6H476.1200000000002Q476.40000000000015 -19.6 476.40000000000015 -19.32V-0.28Q476.40000000000015 0.0 476.1200000000002 0.0H473.71200000000016Q473.48800000000017 0.0 473.40400000000017 -0.224L468.6440000000002 -13.02Q468.61600000000016 -13.076 468.5600000000002 -13.062000000000001Q468.5040000000002 -13.048 468.5040000000002 -12.992L468.53200000000015 -0.28Q468.53200000000015 0.0 468.2520000000002 0.0H466.1240000000002Q465.84400000000016 0.0 465.84400000000016 -0.28V-19.32Q465.84400000000016 -19.6 466.1240000000002 -19.6H468.5040000000002Q468.7280000000002 -19.6 468.8120000000002 -19.376L473.6000000000002 -6.58Q473.62800000000016 -6.496 473.6840000000002 -6.51Q473.7400000000002 -6.524 473.7400000000002 -6.6080000000000005V-19.32Q473.7400000000002 -19.6 474.02000000000015 -19.6Z" fill="#00e5ff"/>
  </g>

  <g transform="translate(80.00, 320.00)">
    <path d="M58.89 -63.050000000000004V-27.95Q58.89 -18.59 54.86 -11.7Q50.83 -4.8100000000000005 43.550000000000004 -1.56Q42.9 -1.4300000000000002 42.9 -0.65V9.36Q42.9 10.27 42.379999999999995 10.79Q41.86 11.31 40.95 11.31H20.41Q19.5 11.31 18.98 10.79Q18.46 10.27 18.46 9.36V-0.65Q18.46 -1.4300000000000002 17.810000000000002 -1.56Q10.66 -4.94 6.63 -11.83Q2.6 -18.72 2.6 -27.95V-63.050000000000004Q2.6 -71.63 6.11 -78.195Q9.620000000000001 -84.76 15.99 -88.4Q22.36 -92.04 30.68 -92.04Q39.13 -92.04 45.5 -88.4Q51.870000000000005 -84.76 55.38 -78.195Q58.89 -71.63 58.89 -63.050000000000004ZM27.04 -25.35Q27.04 -22.880000000000003 28.015 -21.385Q28.990000000000002 -19.89 30.68 -19.89Q32.370000000000005 -19.89 33.410000000000004 -21.385Q34.45 -22.880000000000003 34.45 -25.35V-65.65Q34.45 -68.12 33.410000000000004 -69.61500000000001Q32.370000000000005 -71.11 30.68 -71.11Q28.990000000000002 -71.11 28.015 -69.61500000000001Q27.04 -68.12 27.04 -65.65Z M61.61 -27.04V-89.05Q61.61 -89.96000000000001 62.13 -90.48Q62.650000000000006 -91.0 63.56 -91.0H84.1Q85.01 -91.0 85.53 -90.48Q86.05000000000001 -89.96000000000001 86.05000000000001 -89.05V-24.7Q86.05000000000001 -22.490000000000002 87.09 -21.19Q88.13 -19.89 89.82000000000001 -19.89Q91.51 -19.89 92.48500000000001 -21.19Q93.46000000000001 -22.490000000000002 93.46000000000001 -24.7V-89.05Q93.46000000000001 -89.96000000000001 93.98 -90.48Q94.5 -91.0 95.41 -91.0H115.95Q116.86000000000001 -91.0 117.38000000000001 -90.48Q117.9 -89.96000000000001 117.9 -89.05V-27.04Q117.9 -18.72 114.39 -12.35Q110.88 -5.98 104.50999999999999 -2.47Q98.14 1.04 89.82000000000001 1.04Q81.37 1.04 75.0 -2.47Q68.63 -5.98 65.12 -12.35Q61.61 -18.72 61.61 -27.04Z M121.4 -1.9500000000000002V-89.05Q121.4 -89.96000000000001 121.92000000000002 -90.48Q122.44000000000001 -91.0 123.35000000000001 -91.0H143.89000000000001Q144.8 -91.0 145.32 -90.48Q145.84 -89.96000000000001 145.84 -89.05V-1.9500000000000002Q145.84 -1.04 145.32 -0.52Q144.8 0.0 143.89000000000001 0.0H123.35000000000001Q122.44000000000001 0.0 121.92000000000002 -0.52Q121.4 -1.04 121.4 -1.9500000000000002Z M147.78000000000003 -1.9500000000000002V-19.63Q147.78000000000003 -20.8 148.43000000000004 -22.1L173.26000000000002 -69.16Q173.65000000000003 -70.07000000000001 172.74000000000004 -70.07000000000001H149.73000000000002Q148.82000000000002 -70.07000000000001 148.3 -70.59Q147.78000000000003 -71.11 147.78000000000003 -72.02V-89.05Q147.78000000000003 -89.96000000000001 148.3 -90.48Q148.82000000000002 -91.0 149.73000000000002 -91.0H197.57000000000002Q198.48000000000002 -91.0 199.00000000000003 -90.48Q199.52000000000004 -89.96000000000001 199.52000000000004 -89.05V-71.37Q199.52000000000004 -70.2 198.87000000000003 -68.9L173.78000000000003 -21.84Q173.39000000000004 -20.93 174.30000000000004 -20.93H197.57000000000002Q198.48000000000002 -20.93 199.00000000000003 -20.41Q199.52000000000004 -19.89 199.52000000000004 -18.98V-1.9500000000000002Q199.52000000000004 -1.04 199.00000000000003 -0.52Q198.48000000000002 0.0 197.57000000000002 0.0H149.73000000000002Q148.82000000000002 0.0 148.3 -0.52Q147.78000000000003 -1.04 147.78000000000003 -1.9500000000000002Z M223.94000000000003 -25.48V-65.65Q223.94000000000003 -77.74000000000001 231.74 -84.89000000000001Q239.54000000000002 -92.04 252.41000000000003 -92.04Q260.86 -92.04 267.295 -88.79Q273.73 -85.54 277.30500000000006 -79.495Q280.88000000000005 -73.45 280.88000000000005 -65.39V-61.1Q280.88000000000005 -60.190000000000005 280.36 -59.67Q279.84000000000003 -59.15 278.93000000000006 -59.15H258.39000000000004Q257.48 -59.15 256.96000000000004 -59.67Q256.44000000000005 -60.190000000000005 256.44000000000005 -61.1V-65.65Q256.44000000000005 -68.12 255.33500000000004 -69.61500000000001Q254.23000000000002 -71.11 252.41000000000003 -71.11Q250.59000000000003 -71.11 249.485 -69.61500000000001Q248.38000000000002 -68.12 248.38000000000002 -65.65V-25.35Q248.38000000000002 -22.880000000000003 249.485 -21.385Q250.59000000000003 -19.89 252.41000000000003 -19.89Q254.23000000000002 -19.89 255.33500000000004 -21.385Q256.44000000000005 -22.880000000000003 256.44000000000005 -25.35V-31.720000000000002Q256.44000000000005 -32.5 255.66000000000003 -32.5H254.62000000000003Q253.71000000000004 -32.5 253.19000000000005 -33.019999999999996Q252.67000000000004 -33.54 252.67000000000004 -34.45V-49.4Q252.67000000000004 -50.31 253.19000000000005 -50.83Q253.71000000000004 -51.35 254.62000000000003 -51.35H278.93000000000006Q279.84000000000003 -51.35 280.36 -50.83Q280.88000000000005 -50.31 280.88000000000005 -49.4V-25.48Q280.88000000000005 -17.55 277.30500000000006 -11.505Q273.73 -5.46 267.295 -2.21Q260.86 1.04 252.41000000000003 1.04Q239.54000000000002 1.04 231.74 -6.175000000000001Q223.94000000000003 -13.39 223.94000000000003 -25.48Z M322.73 -1.82 321.3 -11.57Q321.3 -11.83 321.04 -12.09Q320.78000000000003 -12.35 320.39000000000004 -12.35H308.95000000000005Q308.56 -12.35 308.3 -12.09Q308.04 -11.83 308.04 -11.57L306.74 -1.82Q306.61 0.0 304.66 0.0H284.25Q282.17 0.0 282.56 -2.08L301.02000000000004 -89.31Q301.41 -91.0 303.23 -91.0H326.89000000000004Q328.71000000000004 -91.0 329.1 -89.31L347.56 -2.08V-1.56Q347.56 0.0 345.74 0.0H324.81Q322.86 0.0 322.73 -1.82ZM311.55 -31.07H317.66Q318.57000000000005 -31.07 318.31 -31.85L314.8 -55.25Q314.67 -55.77 314.41 -55.77Q314.15000000000003 -55.77 314.02000000000004 -55.25L310.90000000000003 -31.85Q310.90000000000003 -31.07 311.55 -31.07Z M395.13 -91.0H415.40999999999997Q416.32 -91.0 416.84000000000003 -90.48Q417.36 -89.96000000000001 417.36 -89.05V-1.9500000000000002Q417.36 -1.04 416.84000000000003 -0.52Q416.32 0.0 415.40999999999997 0.0H394.87Q393.96 0.0 393.44 -0.52Q392.92 -1.04 392.92 -1.9500000000000002V-54.86Q392.92 -55.38 392.595 -55.510000000000005Q392.27 -55.64 392.01 -55.120000000000005L384.6 -42.64L383.3 -40.300000000000004H383.17L374.59 -55.120000000000005Q374.33 -55.64 374.005 -55.575Q373.68 -55.510000000000005 373.68 -54.86V-1.9500000000000002Q373.68 -1.04 373.15999999999997 -0.52Q372.64 0.0 371.73 0.0H351.19Q350.28 0.0 349.76 -0.52Q349.24 -1.04 349.24 -1.9500000000000002V-89.05Q349.24 -89.96000000000001 349.76 -90.48Q350.28 -91.0 351.19 -91.0H371.46999999999997Q373.15999999999997 -91.0 373.81 -89.57000000000001L382.90999999999997 -72.93Q383.17 -72.54 383.495 -72.475Q383.82 -72.41 383.95 -72.93L392.78999999999996 -89.57000000000001Q393.57 -91.0 395.13 -91.0Z M470.52 -70.07000000000001H445.69Q444.90999999999997 -70.07000000000001 444.90999999999997 -69.29V-56.81Q444.90999999999997 -56.03 445.69 -56.03H458.55999999999995Q459.46999999999997 -56.03 459.99 -55.510000000000005Q460.51 -54.99 460.51 -54.08V-37.050000000000004Q460.51 -36.14 459.99 -35.620000000000005Q459.46999999999997 -35.1 458.55999999999995 -35.1H445.69Q444.90999999999997 -35.1 444.90999999999997 -34.32V-21.71Q444.90999999999997 -20.93 445.69 -20.93H470.52Q471.42999999999995 -20.93 471.94999999999993 -20.41Q472.46999999999997 -19.89 472.46999999999997 -18.98V-1.9500000000000002Q472.46999999999997 -1.04 471.94999999999993 -0.52Q471.42999999999995 0.0 470.52 0.0H422.41999999999996Q421.51 0.0 420.99 -0.52Q420.46999999999997 -1.04 420.46999999999997 -1.9500000000000002V-89.05Q420.46999999999997 -89.96000000000001 420.99 -90.48Q421.51 -91.0 422.41999999999996 -91.0H470.52Q471.42999999999995 -91.0 471.94999999999993 -90.48Q472.46999999999997 -89.96000000000001 472.46999999999997 -89.05V-72.02Q472.46999999999997 -71.11 471.94999999999993 -70.59Q471.42999999999995 -70.07000000000001 470.52 -70.07000000000001Z" fill="#F0EBE2"/>
  </g>
  <g transform="translate(80.00, 460.00)">
    <path d="M42.25 -1.82 40.82 -11.57Q40.82 -11.83 40.56 -12.09Q40.300000000000004 -12.35 39.910000000000004 -12.35H28.470000000000002Q28.080000000000002 -12.35 27.82 -12.09Q27.560000000000002 -11.83 27.560000000000002 -11.57L26.26 -1.82Q26.130000000000003 0.0 24.18 0.0H3.77Q1.69 0.0 2.08 -2.08L20.54 -89.31Q20.93 -91.0 22.75 -91.0H46.410000000000004Q48.230000000000004 -91.0 48.620000000000005 -89.31L67.08 -2.08V-1.56Q67.08 0.0 65.26 0.0H44.33Q42.38 0.0 42.25 -1.82ZM31.07 -31.07H37.18Q38.09 -31.07 37.83 -31.85L34.32 -55.25Q34.19 -55.77 33.93 -55.77Q33.67 -55.77 33.54 -55.25L30.42 -31.85Q30.42 -31.07 31.07 -31.07Z M86.18 -1.69 67.98 -88.92V-89.44Q67.98 -91.0 69.8 -91.0H92.16Q94.11 -91.0 94.24000000000001 -89.18L100.09 -43.160000000000004Q100.09 -42.77 100.48 -42.77Q100.87 -42.77 100.87 -43.160000000000004L106.2 -89.18Q106.33000000000001 -91.0 108.28 -91.0H129.99Q132.2 -91.0 131.81 -88.92L113.35 -1.69Q112.96000000000001 0.0 111.14 0.0H88.39Q86.57 0.0 86.18 -1.69Z M184.19 -70.07000000000001H159.35999999999999Q158.57999999999998 -70.07000000000001 158.57999999999998 -69.29V-56.81Q158.57999999999998 -56.03 159.35999999999999 -56.03H172.23Q173.14 -56.03 173.66 -55.510000000000005Q174.18 -54.99 174.18 -54.08V-37.050000000000004Q174.18 -36.14 173.66 -35.620000000000005Q173.14 -35.1 172.23 -35.1H159.35999999999999Q158.57999999999998 -35.1 158.57999999999998 -34.32V-21.71Q158.57999999999998 -20.93 159.35999999999999 -20.93H184.19Q185.1 -20.93 185.62 -20.41Q186.14 -19.89 186.14 -18.98V-1.9500000000000002Q186.14 -1.04 185.62 -0.52Q185.1 0.0 184.19 0.0H136.09Q135.17999999999998 0.0 134.65999999999997 -0.52Q134.14 -1.04 134.14 -1.9500000000000002V-89.05Q134.14 -89.96000000000001 134.65999999999997 -90.48Q135.17999999999998 -91.0 136.09 -91.0H184.19Q185.1 -91.0 185.62 -90.48Q186.14 -89.96000000000001 186.14 -89.05V-72.02Q186.14 -71.11 185.62 -70.59Q185.1 -70.07000000000001 184.19 -70.07000000000001Z M188.07999999999998 -26.650000000000002V-64.61Q188.07999999999998 -77.22 195.815 -84.63Q203.54999999999998 -92.04 216.54999999999998 -92.04Q229.42 -92.04 237.21999999999997 -84.63Q245.01999999999998 -77.22 245.01999999999998 -64.61V-63.96Q245.01999999999998 -63.050000000000004 244.5 -62.465Q243.98 -61.88 243.07 -61.88L222.53 -61.230000000000004Q220.57999999999998 -61.230000000000004 220.57999999999998 -63.050000000000004V-66.3Q220.57999999999998 -68.51 219.475 -69.81Q218.37 -71.11 216.54999999999998 -71.11Q214.73 -71.11 213.625 -69.81Q212.51999999999998 -68.51 212.51999999999998 -66.3V-24.57Q212.51999999999998 -22.36 213.625 -21.125Q214.73 -19.89 216.54999999999998 -19.89Q218.37 -19.89 219.475 -21.125Q220.57999999999998 -22.36 220.57999999999998 -24.57V-28.080000000000002Q220.57999999999998 -29.900000000000002 222.53 -29.900000000000002L243.07 -29.25Q243.98 -29.25 244.5 -28.665Q245.01999999999998 -28.080000000000002 245.01999999999998 -27.17V-26.650000000000002Q245.01999999999998 -18.330000000000002 241.445 -12.025000000000002Q237.87 -5.720000000000001 231.435 -2.3400000000000003Q225.0 1.04 216.54999999999998 1.04Q203.67999999999998 1.04 195.88 -6.5Q188.07999999999998 -14.040000000000001 188.07999999999998 -26.650000000000002Z M300.12 0.0H272.69Q271.78000000000003 0.0 271.26 -0.52Q270.74 -1.04 270.74 -1.9500000000000002V-89.05Q270.74 -89.96000000000001 271.26 -90.48Q271.78000000000003 -91.0 272.69 -91.0H296.22Q310.39 -91.0 318.385 -84.63Q326.38 -78.26 326.38 -65.39Q326.38 -53.43 318.97 -47.58Q318.32 -47.06 318.71000000000004 -46.67Q328.20000000000005 -39.39 328.20000000000005 -25.61Q328.20000000000005 -13.26 320.27000000000004 -6.63Q312.34000000000003 0.0 300.12 0.0ZM295.18 -69.29V-56.29Q295.18 -55.510000000000005 295.96000000000004 -55.510000000000005H296.61Q302.46000000000004 -55.510000000000005 302.46000000000004 -62.79Q302.46000000000004 -70.07000000000001 296.61 -70.07000000000001H295.96000000000004Q295.18 -70.07000000000001 295.18 -69.29ZM303.76 -29.25Q303.76 -33.28 302.265 -35.685Q300.77000000000004 -38.09 298.3 -38.09H295.96000000000004Q295.18 -38.09 295.18 -37.31V-21.71Q295.18 -20.93 295.96000000000004 -20.93H298.17Q300.64 -20.93 302.2 -23.075000000000003Q303.76 -25.220000000000002 303.76 -29.25Z M330.40000000000003 -27.04V-89.05Q330.40000000000003 -89.96000000000001 330.9200000000001 -90.48Q331.44000000000005 -91.0 332.35 -91.0H352.89000000000004Q353.8 -91.0 354.32000000000005 -90.48Q354.84000000000003 -89.96000000000001 354.84000000000003 -89.05V-24.7Q354.84000000000003 -22.490000000000002 355.88 -21.19Q356.92 -19.89 358.61 -19.89Q360.3 -19.89 361.275 -21.19Q362.25 -22.490000000000002 362.25 -24.7V-89.05Q362.25 -89.96000000000001 362.77 -90.48Q363.29 -91.0 364.20000000000005 -91.0H384.74Q385.65000000000003 -91.0 386.1700000000001 -90.48Q386.69000000000005 -89.96000000000001 386.69000000000005 -89.05V-27.04Q386.69000000000005 -18.72 383.18000000000006 -12.35Q379.67 -5.98 373.3 -2.47Q366.93 1.04 358.61 1.04Q350.16 1.04 343.79 -2.47Q337.42 -5.98 333.91 -12.35Q330.40000000000003 -18.72 330.40000000000003 -27.04Z M388.37000000000006 -1.9500000000000002V-19.63Q388.37000000000006 -20.8 389.02000000000004 -22.1L413.8500000000001 -69.16Q414.24000000000007 -70.07000000000001 413.33000000000004 -70.07000000000001H390.32000000000005Q389.4100000000001 -70.07000000000001 388.8900000000001 -70.59Q388.37000000000006 -71.11 388.37000000000006 -72.02V-89.05Q388.37000000000006 -89.96000000000001 388.8900000000001 -90.48Q389.4100000000001 -91.0 390.32000000000005 -91.0H438.1600000000001Q439.07000000000005 -91.0 439.59000000000003 -90.48Q440.11000000000007 -89.96000000000001 440.11000000000007 -89.05V-71.37Q440.11000000000007 -70.2 439.46000000000004 -68.9L414.37000000000006 -21.84Q413.9800000000001 -20.93 414.89000000000004 -20.93H438.1600000000001Q439.07000000000005 -20.93 439.59000000000003 -20.41Q440.11000000000007 -19.89 440.11000000000007 -18.98V-1.9500000000000002Q440.11000000000007 -1.04 439.59000000000003 -0.52Q439.07000000000005 0.0 438.1600000000001 0.0H390.32000000000005Q389.4100000000001 0.0 388.8900000000001 -0.52Q388.37000000000006 -1.04 388.37000000000006 -1.9500000000000002Z M440.49000000000007 -1.9500000000000002V-19.63Q440.49000000000007 -20.8 441.14000000000004 -22.1L465.9700000000001 -69.16Q466.36000000000007 -70.07000000000001 465.45000000000005 -70.07000000000001H442.44000000000005Q441.5300000000001 -70.07000000000001 441.0100000000001 -70.59Q440.49000000000007 -71.11 440.49000000000007 -72.02V-89.05Q440.49000000000007 -89.96000000000001 441.0100000000001 -90.48Q441.5300000000001 -91.0 442.44000000000005 -91.0H490.2800000000001Q491.19000000000005 -91.0 491.71000000000004 -90.48Q492.2300000000001 -89.96000000000001 492.2300000000001 -89.05V-71.37Q492.2300000000001 -70.2 491.58000000000004 -68.9L466.49000000000007 -21.84Q466.1000000000001 -20.93 467.01000000000005 -20.93H490.2800000000001Q491.19000000000005 -20.93 491.71000000000004 -20.41Q492.2300000000001 -19.89 492.2300000000001 -18.98V-1.9500000000000002Q492.2300000000001 -1.04 491.71000000000004 -0.52Q491.19000000000005 0.0 490.2800000000001 0.0H442.44000000000005Q441.5300000000001 0.0 441.0100000000001 -0.52Q440.49000000000007 -1.04 440.49000000000007 -1.9500000000000002Z M544.48 -70.07000000000001H519.6500000000001Q518.8700000000001 -70.07000000000001 518.8700000000001 -69.29V-56.81Q518.8700000000001 -56.03 519.6500000000001 -56.03H532.5200000000001Q533.4300000000001 -56.03 533.95 -55.510000000000005Q534.47 -54.99 534.47 -54.08V-37.050000000000004Q534.47 -36.14 533.95 -35.620000000000005Q533.4300000000001 -35.1 532.5200000000001 -35.1H519.6500000000001Q518.8700000000001 -35.1 518.8700000000001 -34.32V-21.71Q518.8700000000001 -20.93 519.6500000000001 -20.93H544.48Q545.3900000000001 -20.93 545.9100000000001 -20.41Q546.4300000000001 -19.89 546.4300000000001 -18.98V-1.9500000000000002Q546.4300000000001 -1.04 545.9100000000001 -0.52Q545.3900000000001 0.0 544.48 0.0H496.38000000000005Q495.4700000000001 0.0 494.95000000000005 -0.52Q494.43000000000006 -1.04 494.43000000000006 -1.9500000000000002V-89.05Q494.43000000000006 -89.96000000000001 494.95000000000005 -90.48Q495.4700000000001 -91.0 496.38000000000005 -91.0H544.48Q545.3900000000001 -91.0 545.9100000000001 -90.48Q546.4300000000001 -89.96000000000001 546.4300000000001 -89.05V-72.02Q546.4300000000001 -71.11 545.9100000000001 -70.59Q545.3900000000001 -70.07000000000001 544.48 -70.07000000000001Z M582.5600000000001 -1.69 574.6300000000001 -34.32Q574.3700000000001 -34.97 574.1100000000001 -34.97Q573.5900000000001 -34.97 573.5900000000001 -34.19V-1.9500000000000002Q573.5900000000001 -1.04 573.0700000000002 -0.52Q572.5500000000001 0.0 571.6400000000001 0.0H551.1000000000001Q550.19 0.0 549.6700000000001 -0.52Q549.1500000000001 -1.04 549.1500000000001 -1.9500000000000002V-89.05Q549.1500000000001 -89.96000000000001 549.6700000000001 -90.48Q550.19 -91.0 551.1000000000001 -91.0H580.3500000000001Q588.1500000000001 -91.0 594.1950000000002 -87.295Q600.2400000000001 -83.59 603.6200000000001 -77.025Q607.0000000000001 -70.46000000000001 607.0000000000001 -62.010000000000005Q607.0000000000001 -54.86 604.5300000000001 -49.205Q602.0600000000001 -43.550000000000004 597.3800000000001 -40.04Q596.8600000000001 -39.65 596.9900000000001 -39.0L607.5200000000001 -2.21Q607.6500000000001 -1.9500000000000002 607.6500000000001 -1.56Q607.6500000000001 0.0 605.8300000000002 0.0H584.6400000000001Q582.95 0.0 582.5600000000001 -1.69ZM574.3700000000001 -70.07000000000001Q573.5900000000001 -70.07000000000001 573.5900000000001 -69.29V-54.34Q573.5900000000001 -53.56 574.3700000000001 -53.56H576.0600000000001Q578.9200000000001 -53.56 580.74 -55.705Q582.5600000000001 -57.85 582.5600000000001 -61.75Q582.5600000000001 -65.78 580.8050000000001 -67.92500000000001Q579.0500000000001 -70.07000000000001 576.0600000000001 -70.07000000000001Z M609.3300000000002 -23.400000000000002V-27.43Q609.3300000000002 -28.34 609.8500000000001 -28.86Q610.3700000000001 -29.380000000000003 611.2800000000001 -29.380000000000003H631.5600000000002Q632.4700000000001 -29.380000000000003 632.9900000000001 -28.86Q633.5100000000001 -28.34 633.5100000000001 -27.43V-24.57Q633.5100000000001 -22.490000000000002 634.5500000000002 -21.19Q635.5900000000001 -19.89 637.1500000000001 -19.89Q638.7100000000002 -19.89 639.7500000000002 -21.060000000000002Q640.7900000000002 -22.23 640.7900000000002 -24.05Q640.7900000000002 -26.26 638.7100000000002 -28.405Q636.6300000000001 -30.55 630.0000000000001 -35.230000000000004Q623.5000000000001 -39.78 619.2750000000001 -43.55Q615.0500000000002 -47.32 611.9300000000002 -53.040000000000006Q608.8100000000002 -58.760000000000005 608.8100000000002 -66.17Q608.8100000000002 -73.84 612.2550000000001 -79.69Q615.7000000000002 -85.54 622.0050000000001 -88.79Q628.3100000000002 -92.04 636.5000000000001 -92.04Q644.8200000000002 -92.04 651.1250000000002 -88.79Q657.4300000000002 -85.54 660.8750000000002 -79.69Q664.3200000000002 -73.84 664.3200000000002 -66.17V-63.31Q664.3200000000002 -62.400000000000006 663.8000000000002 -61.88Q663.2800000000002 -61.36 662.3700000000001 -61.36H642.2200000000001Q641.3100000000002 -61.36 640.7900000000002 -61.88Q640.2700000000001 -62.400000000000006 640.2700000000001 -63.31V-66.69Q640.2700000000001 -68.64 639.2300000000001 -69.875Q638.1900000000002 -71.11 636.5000000000001 -71.11Q634.8100000000002 -71.11 633.8350000000002 -69.81Q632.8600000000001 -68.51 632.8600000000001 -66.3Q632.8600000000001 -63.7 634.94 -61.295Q637.0200000000001 -58.89 643.2600000000001 -54.34Q651.5800000000002 -48.230000000000004 655.8050000000002 -44.46000000000001Q660.0300000000002 -40.690000000000005 662.4350000000002 -35.94500000000001Q664.8400000000001 -31.200000000000003 664.8400000000001 -24.830000000000002Q664.8400000000001 -13.0 657.1700000000001 -5.98Q649.5000000000001 1.04 637.0200000000001 1.04Q628.7000000000002 1.04 622.4600000000002 -2.08Q616.2200000000001 -5.2 612.7750000000001 -10.725Q609.3300000000002 -16.25 609.3300000000002 -23.400000000000002Z" fill="#00e5ff"/>
  </g>

  <!-- Small logo bottom-left -->
  <g transform="translate(80.00, 640.00)">
    <path d="M0.9199999999999999 -9.016V-23.23Q0.9199999999999999 -27.508 3.6799999999999997 -30.037999999999997Q6.4399999999999995 -32.568 10.994 -32.568Q13.984 -32.568 16.261 -31.418Q18.538 -30.268 19.803 -28.128999999999998Q21.068 -25.99 21.068 -23.137999999999998V-21.62Q21.068 -21.298 20.884 -21.113999999999997Q20.7 -20.93 20.378 -20.93H13.11Q12.788 -20.93 12.604 -21.113999999999997Q12.42 -21.298 12.42 -21.62V-23.23Q12.42 -24.104 12.029 -24.633Q11.638 -25.162 10.994 -25.162Q10.35 -25.162 9.959 -24.633Q9.568 -24.104 9.568 -23.23V-8.97Q9.568 -8.096 9.959 -7.567Q10.35 -7.038 10.994 -7.038Q11.638 -7.038 12.029 -7.567Q12.42 -8.096 12.42 -8.97V-11.224Q12.42 -11.5 12.144 -11.5H11.776Q11.454 -11.5 11.27 -11.684000000000001Q11.086 -11.868 11.086 -12.19V-17.48Q11.086 -17.802 11.27 -17.985999999999997Q11.454 -18.169999999999998 11.776 -18.169999999999998H20.378Q20.7 -18.169999999999998 20.884 -17.985999999999997Q21.068 -17.802 21.068 -17.48V-9.016Q21.068 -6.21 19.803 -4.071Q18.538 -1.932 16.261 -0.782Q13.984 0.368 10.994 0.368Q6.4399999999999995 0.368 3.6799999999999997 -2.1849999999999996Q0.9199999999999999 -4.7379999999999995 0.9199999999999999 -9.016Z M35.938 -0.644 35.432 -4.094Q35.432 -4.186 35.34 -4.2780000000000005Q35.248 -4.37 35.11 -4.37H31.061999999999998Q30.924 -4.37 30.832 -4.2780000000000005Q30.740000000000002 -4.186 30.740000000000002 -4.094L30.28 -0.644Q30.234 0.0 29.543999999999997 0.0H22.322Q21.586 0.0 21.724 -0.736L28.256 -31.602Q28.394 -32.2 29.038 -32.2H37.41Q38.054 -32.2 38.192 -31.602L44.724000000000004 -0.736V-0.552Q44.724000000000004 0.0 44.08 0.0H36.674Q35.984 0.0 35.938 -0.644ZM31.982 -10.994H34.144Q34.466 -10.994 34.373999999999995 -11.27L33.132 -19.55Q33.086 -19.733999999999998 32.994 -19.733999999999998Q32.902 -19.733999999999998 32.856 -19.55L31.752 -11.27Q31.752 -10.994 31.982 -10.994Z M61.618 -32.2H68.794Q69.116 -32.2 69.30000000000001 -32.016000000000005Q69.48400000000001 -31.832 69.48400000000001 -31.509999999999998V-0.69Q69.48400000000001 -0.368 69.30000000000001 -0.184Q69.116 0.0 68.794 0.0H61.525999999999996Q61.204 0.0 61.019999999999996 -0.184Q60.836 -0.368 60.836 -0.69V-19.412Q60.836 -19.596 60.721000000000004 -19.642Q60.606 -19.688 60.514 -19.504L57.892 -15.088L57.432 -14.26H57.386L54.35 -19.504Q54.258 -19.688 54.143 -19.665Q54.028 -19.642 54.028 -19.412V-0.69Q54.028 -0.368 53.844 -0.184Q53.660000000000004 0.0 53.338 0.0H46.07Q45.748000000000005 0.0 45.56400000000001 -0.184Q45.38 -0.368 45.38 -0.69V-31.509999999999998Q45.38 -31.832 45.56400000000001 -32.016000000000005Q45.748000000000005 -32.2 46.07 -32.2H53.246Q53.844 -32.2 54.074 -31.694L57.294 -25.806Q57.386 -25.668 57.501000000000005 -25.645Q57.616 -25.622 57.662 -25.806L60.790000000000006 -31.694Q61.066 -32.2 61.618 -32.2Z M88.356 -24.794H79.57000000000001Q79.294 -24.794 79.294 -24.518V-20.102Q79.294 -19.826 79.57000000000001 -19.826H84.124Q84.446 -19.826 84.63 -19.642Q84.81400000000001 -19.458 84.81400000000001 -19.136V-13.11Q84.81400000000001 -12.788 84.63 -12.604Q84.446 -12.42 84.124 -12.42H79.57000000000001Q79.294 -12.42 79.294 -12.144V-7.6819999999999995Q79.294 -7.406 79.57000000000001 -7.406H88.356Q88.678 -7.406 88.862 -7.2219999999999995Q89.046 -7.038 89.046 -6.716V-0.69Q89.046 -0.368 88.862 -0.184Q88.678 0.0 88.356 0.0H71.336Q71.01400000000001 0.0 70.83000000000001 -0.184Q70.646 -0.368 70.646 -0.69V-31.509999999999998Q70.646 -31.832 70.83000000000001 -32.016000000000005Q71.01400000000001 -32.2 71.336 -32.2H88.356Q88.678 -32.2 88.862 -32.016000000000005Q89.046 -31.832 89.046 -31.509999999999998V-25.483999999999998Q89.046 -25.162 88.862 -24.978Q88.678 -24.794 88.356 -24.794Z" fill="#F0EBE2"/>
    <path d="M92.508 -0.45999999999999996V-31.74Q92.508 -32.2 92.96799999999999 -32.2H99.72999999999999Q103.134 -32.2 105.112 -29.923000000000002Q107.09 -27.646 107.09 -23.736V-8.464Q107.09 -4.554 105.112 -2.277Q103.134 0.0 99.72999999999999 0.0H92.96799999999999Q92.508 0.0 92.508 -0.45999999999999996ZM95.13 -2.162H99.72999999999999Q101.984 -2.208 103.29499999999999 -3.887Q104.606 -5.566 104.606 -8.51V-23.644Q104.606 -26.634 103.29499999999999 -28.336Q101.984 -30.038 99.684 -30.038H95.13Q94.946 -30.038 94.946 -29.854V-2.346Q94.946 -2.162 95.13 -2.162Z M111.978 -7.359999999999999V-24.794Q111.978 -28.29 114.048 -30.429Q116.118 -32.568 119.52199999999999 -32.568Q122.926 -32.568 125.042 -30.429Q127.158 -28.29 127.158 -24.794V-7.359999999999999Q127.158 -3.91 125.042 -1.7710000000000001Q122.926 0.368 119.52199999999999 0.368Q116.164 0.368 114.071 -1.7710000000000001Q111.978 -3.91 111.978 -7.359999999999999ZM124.72 -7.268V-24.886Q124.72 -27.323999999999998 123.271 -28.865Q121.822 -30.406 119.52199999999999 -30.406Q117.268 -30.406 115.842 -28.865Q114.416 -27.323999999999998 114.416 -24.886V-7.268Q114.416 -4.83 115.842 -3.3120000000000003Q117.268 -1.794 119.52199999999999 -1.794Q121.822 -1.794 123.271 -3.3120000000000003Q124.72 -4.83 124.72 -7.268Z M131.72400000000002 -7.359999999999999V-24.794Q131.72400000000002 -28.29 133.794 -30.429Q135.864 -32.568 139.268 -32.568Q142.672 -32.568 144.788 -30.429Q146.904 -28.29 146.904 -24.794V-7.359999999999999Q146.904 -3.91 144.788 -1.7710000000000001Q142.672 0.368 139.268 0.368Q135.91 0.368 133.817 -1.7710000000000001Q131.72400000000002 -3.91 131.72400000000002 -7.359999999999999ZM144.466 -7.268V-24.886Q144.466 -27.323999999999998 143.017 -28.865Q141.568 -30.406 139.268 -30.406Q137.014 -30.406 135.58800000000002 -28.865Q134.162 -27.323999999999998 134.162 -24.886V-7.268Q134.162 -4.83 135.58800000000002 -3.3120000000000003Q137.014 -1.794 139.268 -1.794Q141.568 -1.794 143.017 -3.3120000000000003Q144.466 -4.83 144.466 -7.268Z M164.71800000000002 -0.368 159.65800000000002 -14.95Q159.61200000000002 -15.088 159.47400000000002 -15.088H154.92000000000002Q154.73600000000002 -15.088 154.73600000000002 -14.904V-0.45999999999999996Q154.73600000000002 0.0 154.276 0.0H152.758Q152.298 0.0 152.298 -0.45999999999999996V-31.74Q152.298 -32.2 152.758 -32.2H159.888Q163.108 -32.2 165.086 -29.808Q167.06400000000002 -27.416 167.06400000000002 -23.552Q167.06400000000002 -20.47 165.73000000000002 -18.308Q164.39600000000002 -16.146 162.096 -15.363999999999999Q161.912 -15.318 161.95800000000003 -15.134L167.156 -0.506L167.20200000000003 -0.322Q167.20200000000003 0.0 166.788 0.0H165.27Q164.85600000000002 0.0 164.71800000000002 -0.368ZM154.73600000000002 -29.854V-17.296Q154.73600000000002 -17.112 154.92000000000002 -17.112H159.61200000000002Q161.866 -17.112 163.246 -18.883Q164.626 -20.654 164.626 -23.552Q164.626 -26.496 163.246 -28.267Q161.866 -30.038 159.61200000000002 -30.038H154.92000000000002Q154.73600000000002 -30.038 154.73600000000002 -29.854Z" fill="#F0EBE2"/>
  </g>
  <circle cx="256.08" cy="626.20" r="3.68" fill="#00e5ff"/>
  <g transform="translate(263.44, 640.00)">
    <path d="M24.012 -14.812V-8.372Q24.012 -8.05 23.828 -7.866Q23.644 -7.6819999999999995 23.322 -7.6819999999999995H21.942Q21.666 -7.6819999999999995 21.666 -7.406V-0.69Q21.666 -0.368 21.482 -0.184Q21.298 0.0 20.976 0.0H13.708Q13.386 0.0 13.201999999999998 -0.184Q13.017999999999999 -0.368 13.017999999999999 -0.69V-7.406Q13.017999999999999 -7.6819999999999995 12.741999999999999 -7.6819999999999995H1.058Q0.736 -7.6819999999999995 0.552 -7.866Q0.368 -8.05 0.368 -8.372V-13.478Q0.368 -13.892 0.506 -14.306L6.072 -31.648Q6.256 -32.2 6.854 -32.2H14.628Q14.996 -32.2 15.157 -31.993000000000002Q15.318 -31.785999999999998 15.225999999999999 -31.418L10.488 -15.824Q10.442 -15.501999999999999 10.718 -15.501999999999999H12.741999999999999Q13.017999999999999 -15.501999999999999 13.017999999999999 -15.778V-18.906Q13.017999999999999 -19.227999999999998 13.201999999999998 -19.412Q13.386 -19.596 13.708 -19.596H20.976Q21.298 -19.596 21.482 -19.412Q21.666 -19.227999999999998 21.666 -18.906V-15.778Q21.666 -15.501999999999999 21.942 -15.501999999999999H23.322Q23.644 -15.501999999999999 23.828 -15.318Q24.012 -15.134 24.012 -14.812Z M28.163999999999998 -32.2H35.708Q36.03 -32.2 36.214 -32.016000000000005Q36.397999999999996 -31.832 36.397999999999996 -31.509999999999998V-0.69Q36.397999999999996 -0.368 36.214 -0.184Q36.03 0.0 35.708 0.0H28.439999999999998Q28.118 0.0 27.933999999999997 -0.184Q27.75 -0.368 27.75 -0.69V-24.058Q27.75 -24.334 27.474 -24.334H24.438Q24.116 -24.334 23.932 -24.518Q23.747999999999998 -24.701999999999998 23.747999999999998 -25.024V-30.36Q23.747999999999998 -30.958 24.299999999999997 -31.142L27.336 -32.062Q27.75 -32.2 28.163999999999998 -32.2Z" fill="#00e5ff"/>
  </g>

</svg>
