<?xml version="1.0" encoding="UTF-8"?>
<svg xmlns="http://www.w3.org/2000/svg" viewBox="0 0 2560 1440" width="2560" height="1440" preserveAspectRatio="xMidYMid meet">
  <title>GAMEDOOR.41 YouTube Banner</title>
  <defs>
    <radialGradient id="ytBg" cx="50%" cy="50%" r="70%">
      <stop offset="0%" stop-color="#1a0d08"/>
      <stop offset="100%" stop-color="#0C0800"/>
    </radialGradient>
  </defs>
  <rect width="2560" height="1440" fill="url(#ytBg)"/>

  <!-- Watermark 41 -->
  <g transform="translate(1936.90, 1490.00)" opacity="0.04">
    <path d="M365.4 -225.39999999999998V-127.39999999999999Q365.4 -122.49999999999999 362.59999999999997 -119.69999999999999Q359.79999999999995 -116.89999999999999 354.9 -116.89999999999999H333.9Q329.7 -116.89999999999999 329.7 -112.69999999999999V-10.5Q329.7 -5.6 326.9 -2.8Q324.09999999999997 0.0 319.2 0.0H208.6Q203.7 0.0 200.89999999999998 -2.8Q198.1 -5.6 198.1 -10.5V-112.69999999999999Q198.1 -116.89999999999999 193.89999999999998 -116.89999999999999H16.099999999999998Q11.2 -116.89999999999999 8.399999999999999 -119.69999999999999Q5.6 -122.49999999999999 5.6 -127.39999999999999V-205.1Q5.6 -211.39999999999998 7.699999999999999 -217.7L92.39999999999999 -481.59999999999997Q95.19999999999999 -489.99999999999994 104.3 -489.99999999999994H222.6Q228.2 -489.99999999999994 230.64999999999998 -486.84999999999997Q233.1 -483.7 231.7 -478.09999999999997L159.6 -240.79999999999998Q158.89999999999998 -235.89999999999998 163.1 -235.89999999999998H193.89999999999998Q198.1 -235.89999999999998 198.1 -240.1V-287.7Q198.1 -292.59999999999997 200.89999999999998 -295.4Q203.7 -298.2 208.6 -298.2H319.2Q324.09999999999997 -298.2 326.9 -295.4Q329.7 -292.59999999999997 329.7 -287.7V-240.1Q329.7 -235.89999999999998 333.9 -235.89999999999998H354.9Q359.79999999999995 -235.89999999999998 362.59999999999997 -233.09999999999997Q365.4 -230.29999999999998 365.4 -225.39999999999998Z M423.8 -489.99999999999994H538.6Q543.5 -489.99999999999994 546.3 -487.19999999999993Q549.1 -484.4 549.1 -479.49999999999994V-10.5Q549.1 -5.6 546.3 -2.8Q543.5 0.0 538.6 0.0H428.0Q423.1 0.0 420.3 -2.8Q417.5 -5.6 417.5 -10.5V-366.09999999999997Q417.5 -370.29999999999995 413.3 -370.29999999999995H367.1Q362.2 -370.29999999999995 359.4 -373.09999999999997Q356.6 -375.9 356.6 -380.79999999999995V-461.99999999999994Q356.6 -471.09999999999997 365.0 -473.9L411.2 -487.9Q417.5 -489.99999999999994 423.8 -489.99999999999994Z" fill="#E07020"/>
  </g>

  <!-- Kicker above logo -->
  <g transform="translate(793.46, 600.00)">
    <path d="M13.472 -8.416V-6.272Q13.472 -5.952 13.152000000000001 -5.952H12.128Q12.0 -5.952 12.0 -5.824V-0.32Q12.0 0.0 11.68 0.0H9.248Q8.928 0.0 8.928 -0.32V-5.824Q8.928 -5.952 8.8 -5.952H0.928Q0.608 -5.952 0.608 -6.272V-8.064Q0.608 -8.192 0.672 -8.448L5.28 -22.144000000000002Q5.376 -22.400000000000002 5.664 -22.400000000000002H8.288Q8.64 -22.400000000000002 8.544 -22.048000000000002L4.192 -8.896Q4.16 -8.832 4.208 -8.784Q4.256 -8.736 4.32 -8.736H8.8Q8.928 -8.736 8.928 -8.864V-13.248000000000001Q8.928 -13.568 9.248 -13.568H11.68Q12.0 -13.568 12.0 -13.248000000000001V-8.864Q12.0 -8.736 12.128 -8.736H13.152000000000001Q13.472 -8.736 13.472 -8.416Z M30.08 -22.400000000000002H32.64Q32.96 -22.400000000000002 32.96 -22.080000000000002V-0.32Q32.96 0.0 32.64 0.0H30.208Q29.887999999999998 0.0 29.887999999999998 -0.32V-19.04Q29.887999999999998 -19.104 29.839999999999996 -19.152Q29.791999999999998 -19.2 29.759999999999998 -19.168L26.912 -18.432000000000002L26.784 -18.400000000000002Q26.592 -18.400000000000002 26.528 -18.688L26.4 -20.48Q26.4 -20.768 26.624 -20.864L29.695999999999998 -22.304000000000002Q29.887999999999998 -22.400000000000002 30.08 -22.400000000000002Z M72.63999999999999 0.0H67.29599999999999Q66.97599999999998 0.0 66.97599999999998 -0.32V-22.080000000000002Q66.97599999999998 -22.400000000000002 67.29599999999999 -22.400000000000002H72.192Q75.10399999999998 -22.400000000000002 76.75199999999998 -20.880000000000003Q78.39999999999999 -19.36 78.39999999999999 -16.448Q78.39999999999999 -12.992 75.93599999999999 -11.68Q75.776 -11.584 75.904 -11.52Q77.184 -10.752 77.904 -9.376000000000001Q78.624 -8.0 78.624 -6.112Q78.624 -3.2 76.976 -1.6Q75.32799999999999 0.0 72.63999999999999 0.0ZM70.04799999999999 -19.616V-12.832Q70.04799999999999 -12.704 70.17599999999999 -12.704H72.22399999999999Q73.728 -12.704 74.56 -13.616Q75.392 -14.528 75.392 -16.16Q75.392 -17.856 74.56 -18.8Q73.728 -19.744 72.22399999999999 -19.744H70.17599999999999Q70.04799999999999 -19.744 70.04799999999999 -19.616ZM75.55199999999999 -6.496Q75.55199999999999 -8.352 74.72 -9.392Q73.88799999999999 -10.432 72.416 -10.432H70.17599999999999Q70.04799999999999 -10.432 70.04799999999999 -10.304V-2.816Q70.04799999999999 -2.688 70.17599999999999 -2.688H72.38399999999999Q73.856 -2.688 74.704 -3.6799999999999997Q75.55199999999999 -4.672 75.55199999999999 -6.496Z M93.56799999999998 -0.32V-22.080000000000002Q93.56799999999998 -22.400000000000002 93.88799999999999 -22.400000000000002H96.32Q96.63999999999999 -22.400000000000002 96.63999999999999 -22.080000000000002V-0.32Q96.63999999999999 0.0 96.32 0.0H93.88799999999999Q93.56799999999998 0.0 93.56799999999998 -0.32Z M111.83999999999999 -5.472V-6.304Q111.83999999999999 -6.6240000000000006 112.16 -6.6240000000000006H114.52799999999999Q114.848 -6.6240000000000006 114.848 -6.304V-5.632Q114.848 -4.16 115.584 -3.2800000000000002Q116.32 -2.4 117.472 -2.4Q118.624 -2.4 119.376 -3.248Q120.128 -4.096 120.128 -5.472Q120.128 -6.4 119.72800000000001 -7.104Q119.328 -7.808 118.672 -8.368Q118.01599999999999 -8.928 116.544 -10.016Q114.91199999999999 -11.232000000000001 113.984 -12.096Q113.056 -12.96 112.416 -14.176Q111.776 -15.392 111.776 -17.024Q111.776 -19.616 113.312 -21.136Q114.848 -22.656 117.312 -22.656Q119.872 -22.656 121.424 -21.024Q122.976 -19.392 122.976 -16.736V-15.936Q122.976 -15.616 122.65599999999999 -15.616H120.288Q119.96799999999999 -15.616 119.96799999999999 -15.936V-16.8Q119.96799999999999 -18.240000000000002 119.232 -19.12Q118.496 -20.0 117.312 -20.0Q116.192 -20.0 115.488 -19.216Q114.78399999999999 -18.432000000000002 114.78399999999999 -17.024Q114.78399999999999 -15.744 115.488 -14.864Q116.192 -13.984 118.208 -12.512Q120.128 -11.072000000000001 121.104 -10.176Q122.08 -9.28 122.608 -8.208Q123.136 -7.136 123.136 -5.664Q123.136 -2.976 121.568 -1.3599999999999999Q120.0 0.256 117.472 0.256Q114.94399999999999 0.256 113.392 -1.3279999999999998Q111.83999999999999 -2.912 111.83999999999999 -5.472Z M165.15200000000002 -0.256 162.208 -9.792Q162.17600000000002 -9.888 162.08 -9.888H159.84Q159.71200000000002 -9.888 159.71200000000002 -9.76V-0.32Q159.71200000000002 0.0 159.392 0.0H156.96Q156.64000000000001 0.0 156.64000000000001 -0.32V-22.080000000000002Q156.64000000000001 -22.400000000000002 156.96 -22.400000000000002H162.68800000000002Q164.32 -22.400000000000002 165.56799999999998 -21.6Q166.816 -20.8 167.50400000000002 -19.344Q168.192 -17.888 168.192 -16.032Q168.192 -14.016 167.36 -12.528Q166.52800000000002 -11.040000000000001 165.088 -10.368Q164.99200000000002 -10.272 165.024 -10.176L168.288 -0.352L168.32 -0.224Q168.32 0.0 168.032 0.0H165.536Q165.24800000000002 0.0 165.15200000000002 -0.256ZM159.71200000000002 -19.616V-12.448Q159.71200000000002 -12.32 159.84 -12.32H162.208Q163.52 -12.32 164.32 -13.328Q165.12 -14.336 165.12 -16.0Q165.12 -17.728 164.32 -18.736Q163.52 -19.744 162.208 -19.744H159.84Q159.71200000000002 -19.744 159.71200000000002 -19.616Z M182.97600000000003 -6.08V-22.080000000000002Q182.97600000000003 -22.400000000000002 183.29600000000002 -22.400000000000002H185.728Q186.048 -22.400000000000002 186.048 -22.080000000000002V-5.76Q186.048 -4.256 186.8 -3.3280000000000003Q187.55200000000002 -2.4 188.76800000000003 -2.4Q190.01600000000002 -2.4 190.76800000000003 -3.3280000000000003Q191.52 -4.256 191.52 -5.76V-22.080000000000002Q191.52 -22.400000000000002 191.84 -22.400000000000002H194.27200000000002Q194.592 -22.400000000000002 194.592 -22.080000000000002V-6.08Q194.592 -3.232 192.99200000000002 -1.488Q191.39200000000002 0.256 188.76800000000003 0.256Q186.144 0.256 184.56 -1.488Q182.97600000000003 -3.232 182.97600000000003 -6.08Z M220.8 -19.744H213.60000000000002Q213.47200000000004 -19.744 213.47200000000004 -19.616V-12.672Q213.47200000000004 -12.544 213.60000000000002 -12.544H218.01600000000002Q218.336 -12.544 218.336 -12.224V-10.208Q218.336 -9.888 218.01600000000002 -9.888H213.60000000000002Q213.47200000000004 -9.888 213.47200000000004 -9.76V-2.7840000000000003Q213.47200000000004 -2.656 213.60000000000002 -2.656H220.8Q221.12000000000003 -2.656 221.12000000000003 -2.336V-0.32Q221.12000000000003 0.0 220.8 0.0H210.72000000000003Q210.40000000000003 0.0 210.40000000000003 -0.32V-22.080000000000002Q210.40000000000003 -22.400000000000002 210.72000000000003 -22.400000000000002H220.8Q221.12000000000003 -22.400000000000002 221.12000000000003 -22.080000000000002V-20.064Q221.12000000000003 -19.744 220.8 -19.744Z M266.144 -16.0Q266.144 -13.184000000000001 264.672 -11.456Q263.2 -9.728 260.8 -9.728H257.79200000000003Q257.664 -9.728 257.664 -9.6V-0.32Q257.664 0.0 257.344 0.0H254.912Q254.592 0.0 254.592 -0.32V-22.112000000000002Q254.592 -22.432000000000002 254.912 -22.432000000000002H260.64Q263.10400000000004 -22.432000000000002 264.624 -20.656Q266.144 -18.88 266.144 -16.0ZM263.072 -15.936Q263.072 -17.696 262.27200000000005 -18.736Q261.47200000000004 -19.776 260.16 -19.776H257.79200000000003Q257.664 -19.776 257.664 -19.648V-12.32Q257.664 -12.192 257.79200000000003 -12.192H260.16Q261.47200000000004 -12.192 262.27200000000005 -13.2Q263.072 -14.208 263.072 -15.936Z M289.472 -0.28800000000000003 288.76800000000003 -3.968Q288.76800000000003 -4.032 288.72 -4.064Q288.672 -4.096 288.608 -4.096H283.392Q283.328 -4.096 283.28 -4.064Q283.232 -4.032 283.232 -3.968L282.56 -0.28800000000000003Q282.528 0.0 282.208 0.0H279.776Q279.616 0.0 279.536 -0.096Q279.456 -0.192 279.488 -0.352L284.25600000000003 -22.112000000000002Q284.32 -22.400000000000002 284.608 -22.400000000000002H287.456Q287.776 -22.400000000000002 287.808 -22.112000000000002L292.608 -0.352V-0.28800000000000003Q292.608 0.0 292.32 0.0H289.824Q289.536 0.0 289.472 -0.28800000000000003ZM283.872 -6.5280000000000005H288.128Q288.224 -6.5280000000000005 288.224 -6.656000000000001L286.048 -18.016000000000002Q286.016 -18.080000000000002 285.98400000000004 -18.080000000000002Q285.952 -18.080000000000002 285.92 -18.016000000000002L283.776 -6.656000000000001Q283.776 -6.5280000000000005 283.872 -6.5280000000000005Z M306.24 -5.472V-6.304Q306.24 -6.6240000000000006 306.56 -6.6240000000000006H308.928Q309.248 -6.6240000000000006 309.248 -6.304V-5.632Q309.248 -4.16 309.98400000000004 -3.2800000000000002Q310.72 -2.4 311.872 -2.4Q313.024 -2.4 313.776 -3.248Q314.528 -4.096 314.528 -5.472Q314.528 -6.4 314.12800000000004 -7.104Q313.728 -7.808 313.072 -8.368Q312.416 -8.928 310.944 -10.016Q309.312 -11.232000000000001 308.384 -12.096Q307.456 -12.96 306.81600000000003 -14.176Q306.176 -15.392 306.176 -17.024Q306.176 -19.616 307.712 -21.136Q309.248 -22.656 311.712 -22.656Q314.272 -22.656 315.82399999999996 -21.024Q317.376 -19.392 317.376 -16.736V-15.936Q317.376 -15.616 317.056 -15.616H314.688Q314.368 -15.616 314.368 -15.936V-16.8Q314.368 -18.240000000000002 313.632 -19.12Q312.896 -20.0 311.712 -20.0Q310.592 -20.0 309.88800000000003 -19.216Q309.184 -18.432000000000002 309.184 -17.024Q309.184 -15.744 309.88800000000003 -14.864Q310.592 -13.984 312.608 -12.512Q314.528 -11.072000000000001 315.504 -10.176Q316.48 -9.28 317.00800000000004 -8.208Q317.536 -7.136 317.536 -5.664Q317.536 -2.976 315.96799999999996 -1.3599999999999999Q314.4 0.256 311.872 0.256Q309.344 0.256 307.79200000000003 -1.3279999999999998Q306.24 -2.912 306.24 -5.472Z M343.744 -22.080000000000002V-20.064Q343.744 -19.744 343.424 -19.744H339.232Q339.104 -19.744 339.104 -19.616V-0.32Q339.104 0.0 338.784 0.0H336.35200000000003Q336.032 0.0 336.032 -0.32V-19.616Q336.032 -19.744 335.904 -19.744H331.936Q331.616 -19.744 331.616 -20.064V-22.080000000000002Q331.616 -22.400000000000002 331.936 -22.400000000000002H343.424Q343.744 -22.400000000000002 343.744 -22.080000000000002Z M369.088 -19.744H361.88800000000003Q361.76 -19.744 361.76 -19.616V-12.672Q361.76 -12.544 361.88800000000003 -12.544H366.30400000000003Q366.624 -12.544 366.624 -12.224V-10.208Q366.624 -9.888 366.30400000000003 -9.888H361.88800000000003Q361.76 -9.888 361.76 -9.76V-2.7840000000000003Q361.76 -2.656 361.88800000000003 -2.656H369.088Q369.408 -2.656 369.408 -2.336V-0.32Q369.408 0.0 369.088 0.0H359.008Q358.688 0.0 358.688 -0.32V-22.080000000000002Q358.688 -22.400000000000002 359.008 -22.400000000000002H369.088Q369.408 -22.400000000000002 369.408 -22.080000000000002V-20.064Q369.408 -19.744 369.088 -19.744Z M384.35200000000003 -6.08V-22.080000000000002Q384.35200000000003 -22.400000000000002 384.672 -22.400000000000002H387.10400000000004Q387.42400000000004 -22.400000000000002 387.42400000000004 -22.080000000000002V-5.76Q387.42400000000004 -4.256 388.17600000000004 -3.3280000000000003Q388.928 -2.4 390.144 -2.4Q391.392 -2.4 392.144 -3.3280000000000003Q392.896 -4.256 392.896 -5.76V-22.080000000000002Q392.896 -22.400000000000002 393.216 -22.400000000000002H395.648Q395.968 -22.400000000000002 395.968 -22.080000000000002V-6.08Q395.968 -3.232 394.36800000000005 -1.488Q392.76800000000003 0.256 390.144 0.256Q387.52000000000004 0.256 385.93600000000004 -1.488Q384.35200000000003 -3.232 384.35200000000003 -6.08Z M420.288 -0.256 417.34400000000005 -9.792Q417.312 -9.888 417.216 -9.888H414.97600000000006Q414.848 -9.888 414.848 -9.76V-0.32Q414.848 0.0 414.528 0.0H412.096Q411.776 0.0 411.776 -0.32V-22.080000000000002Q411.776 -22.400000000000002 412.096 -22.400000000000002H417.824Q419.456 -22.400000000000002 420.70400000000006 -21.6Q421.95200000000006 -20.8 422.64000000000004 -19.344Q423.32800000000003 -17.888 423.32800000000003 -16.032Q423.32800000000003 -14.016 422.49600000000004 -12.528Q421.66400000000004 -11.040000000000001 420.22400000000005 -10.368Q420.12800000000004 -10.272 420.16 -10.176L423.42400000000004 -0.352L423.456 -0.224Q423.456 0.0 423.168 0.0H420.672Q420.384 0.0 420.288 -0.256ZM414.848 -19.616V-12.448Q414.848 -12.32 414.97600000000006 -12.32H417.34400000000005Q418.656 -12.32 419.456 -13.328Q420.25600000000003 -14.336 420.25600000000003 -16.0Q420.25600000000003 -17.728 419.456 -18.736Q418.656 -19.744 417.34400000000005 -19.744H414.97600000000006Q414.848 -19.744 414.848 -19.616Z M474.33599999999996 -9.056000000000001Q474.33599999999996 -9.952000000000002 474.9119999999999 -10.528Q475.48799999999994 -11.104 476.38399999999996 -11.104Q477.28 -11.104 477.856 -10.528Q478.43199999999996 -9.952000000000002 478.43199999999996 -9.056000000000001Q478.43199999999996 -8.16 477.856 -7.584Q477.28 -7.007999999999999 476.38399999999996 -7.007999999999999Q475.48799999999994 -7.007999999999999 474.9119999999999 -7.584Q474.33599999999996 -8.16 474.33599999999996 -9.056000000000001Z M540.8 -22.400000000000002H543.2319999999999Q543.5519999999999 -22.400000000000002 543.5519999999999 -22.080000000000002V-0.32Q543.5519999999999 0.0 543.2319999999999 0.0H540.8Q540.4799999999999 0.0 540.4799999999999 -0.32V-16.192Q540.4799999999999 -16.288 540.4319999999999 -16.288Q540.3839999999999 -16.288 540.3199999999999 -16.224L537.2479999999999 -10.496Q537.1519999999999 -10.272 536.9599999999999 -10.272Q536.7679999999999 -10.272 536.6719999999999 -10.496L533.632 -16.192Q533.5679999999999 -16.256 533.5199999999999 -16.256Q533.4719999999999 -16.256 533.4719999999999 -16.16V-0.32Q533.4719999999999 0.0 533.1519999999999 0.0H530.7199999999999Q530.3999999999999 0.0 530.3999999999999 -0.32V-22.080000000000002Q530.3999999999999 -22.400000000000002 530.7199999999999 -22.400000000000002H533.1519999999999Q533.3759999999999 -22.400000000000002 533.536 -22.176000000000002L536.896 -16.16Q536.9279999999999 -16.128 536.992 -16.128Q537.0559999999999 -16.128 537.0879999999999 -16.16L540.4159999999999 -22.176000000000002Q540.5439999999999 -22.400000000000002 540.8 -22.400000000000002Z M558.9759999999999 -5.6000000000000005V-16.768Q558.9759999999999 -19.424 560.5759999999999 -21.04Q562.1759999999999 -22.656 564.8 -22.656Q567.4559999999999 -22.656 569.0719999999999 -21.04Q570.688 -19.424 570.688 -16.768V-5.6000000000000005Q570.688 -2.944 569.0719999999999 -1.3439999999999999Q567.4559999999999 0.256 564.8 0.256Q562.1759999999999 0.256 560.5759999999999 -1.3439999999999999Q558.9759999999999 -2.944 558.9759999999999 -5.6000000000000005ZM567.616 -5.472V-16.928Q567.616 -18.304000000000002 566.848 -19.152Q566.0799999999999 -20.0 564.8 -20.0Q563.5519999999999 -20.0 562.8 -19.152Q562.0479999999999 -18.304000000000002 562.0479999999999 -16.928V-5.472Q562.0479999999999 -4.096 562.8 -3.248Q563.5519999999999 -2.4 564.8 -2.4Q566.0799999999999 -2.4 566.848 -3.248Q567.616 -4.096 567.616 -5.472Z M595.5519999999999 -22.400000000000002H597.9519999999999Q598.2719999999999 -22.400000000000002 598.2719999999999 -22.080000000000002V-0.32Q598.2719999999999 0.0 597.9519999999999 0.0H595.1999999999999Q594.944 0.0 594.848 -0.256L589.4079999999999 -14.88Q589.376 -14.944 589.3119999999999 -14.928Q589.2479999999999 -14.912 589.2479999999999 -14.848L589.28 -0.32Q589.28 0.0 588.9599999999999 0.0H586.5279999999999Q586.208 0.0 586.208 -0.32V-22.080000000000002Q586.208 -22.400000000000002 586.5279999999999 -22.400000000000002H589.2479999999999Q589.5039999999999 -22.400000000000002 589.5999999999999 -22.144000000000002L595.0719999999999 -7.5200000000000005Q595.1039999999999 -7.424 595.1679999999999 -7.44Q595.232 -7.456 595.232 -7.5520000000000005V-22.080000000000002Q595.232 -22.400000000000002 595.5519999999999 -22.400000000000002Z M614.24 -0.32V-22.080000000000002Q614.24 -22.400000000000002 614.56 -22.400000000000002H619.808Q622.4639999999999 -22.400000000000002 624.0319999999999 -20.768Q625.6 -19.136 625.6 -16.352V-6.048Q625.6 -3.2640000000000002 624.0319999999999 -1.6320000000000001Q622.4639999999999 0.0 619.808 0.0H614.56Q614.24 0.0 614.24 -0.32ZM617.4399999999999 -2.656 619.776 -2.688Q620.992 -2.688 621.728 -3.6320000000000006Q622.4639999999999 -4.5760000000000005 622.496 -6.208V-16.192Q622.496 -17.824 621.76 -18.784Q621.024 -19.744 619.776 -19.744H617.4399999999999Q617.312 -19.744 617.312 -19.616V-2.7840000000000003Q617.312 -2.656 617.4399999999999 -2.656Z M651.648 -19.744H644.448Q644.32 -19.744 644.32 -19.616V-12.672Q644.32 -12.544 644.448 -12.544H648.864Q649.184 -12.544 649.184 -12.224V-10.208Q649.184 -9.888 648.864 -9.888H644.448Q644.32 -9.888 644.32 -9.76V-2.7840000000000003Q644.32 -2.656 644.448 -2.656H651.648Q651.968 -2.656 651.968 -2.336V-0.32Q651.968 0.0 651.648 0.0H641.568Q641.248 0.0 641.248 -0.32V-22.080000000000002Q641.248 -22.400000000000002 641.568 -22.400000000000002H651.648Q651.968 -22.400000000000002 651.968 -22.080000000000002V-20.064Q651.968 -19.744 651.648 -19.744Z M670.688 -0.28800000000000003 666.0799999999999 -22.048000000000002V-22.112000000000002Q666.0799999999999 -22.400000000000002 666.3679999999999 -22.400000000000002H669.024Q669.3439999999999 -22.400000000000002 669.376 -22.112000000000002L672.4159999999999 -5.5040000000000004Q672.448 -5.44 672.48 -5.44Q672.512 -5.44 672.544 -5.5040000000000004L675.52 -22.112000000000002Q675.584 -22.400000000000002 675.872 -22.400000000000002H678.432Q678.784 -22.400000000000002 678.7199999999999 -22.048000000000002L674.112 -0.28800000000000003Q674.0799999999999 0.0 673.76 0.0H671.04Q670.752 0.0 670.688 -0.28800000000000003Z M693.696 -0.32V-22.080000000000002Q693.696 -22.400000000000002 694.016 -22.400000000000002H696.448Q696.768 -22.400000000000002 696.768 -22.080000000000002V-0.32Q696.768 0.0 696.448 0.0H694.016Q693.696 0.0 693.696 -0.32Z M712.736 -0.32V-22.080000000000002Q712.736 -22.400000000000002 713.0559999999999 -22.400000000000002H715.4879999999999Q715.808 -22.400000000000002 715.808 -22.080000000000002V-2.7840000000000003Q715.808 -2.656 715.9359999999999 -2.656H723.1039999999999Q723.424 -2.656 723.424 -2.336V-0.32Q723.424 0.0 723.1039999999999 0.0H713.0559999999999Q712.736 0.0 712.736 -0.32Z M737.76 -0.32V-22.080000000000002Q737.76 -22.400000000000002 738.0799999999999 -22.400000000000002H740.512Q740.832 -22.400000000000002 740.832 -22.080000000000002V-2.7840000000000003Q740.832 -2.656 740.9599999999999 -2.656H748.1279999999999Q748.448 -2.656 748.448 -2.336V-0.32Q748.448 0.0 748.1279999999999 0.0H738.0799999999999Q737.76 0.0 737.76 -0.32Z M773.184 -19.744H765.9839999999999Q765.856 -19.744 765.856 -19.616V-12.672Q765.856 -12.544 765.9839999999999 -12.544H770.4Q770.7199999999999 -12.544 770.7199999999999 -12.224V-10.208Q770.7199999999999 -9.888 770.4 -9.888H765.9839999999999Q765.856 -9.888 765.856 -9.76V-2.7840000000000003Q765.856 -2.656 765.9839999999999 -2.656H773.184Q773.5039999999999 -2.656 773.5039999999999 -2.336V-0.32Q773.5039999999999 0.0 773.184 0.0H763.1039999999999Q762.784 0.0 762.784 -0.32V-22.080000000000002Q762.784 -22.400000000000002 763.1039999999999 -22.400000000000002H773.184Q773.5039999999999 -22.400000000000002 773.5039999999999 -22.080000000000002V-20.064Q773.5039999999999 -19.744 773.184 -19.744Z M824.6719999999998 -9.056000000000001Q824.6719999999998 -9.952000000000002 825.2479999999998 -10.528Q825.8239999999998 -11.104 826.7199999999998 -11.104Q827.6159999999998 -11.104 828.1919999999998 -10.528Q828.7679999999998 -9.952000000000002 828.7679999999998 -9.056000000000001Q828.7679999999998 -8.16 828.1919999999998 -7.584Q827.6159999999998 -7.007999999999999 826.7199999999998 -7.007999999999999Q825.8239999999998 -7.007999999999999 825.2479999999998 -7.584Q824.6719999999998 -8.16 824.6719999999998 -9.056000000000001Z M880.3519999999997 -5.5360000000000005V-16.896Q880.3519999999997 -19.52 881.9359999999997 -21.088Q883.5199999999998 -22.656 886.1119999999999 -22.656Q888.7359999999998 -22.656 890.3199999999997 -21.088Q891.9039999999998 -19.52 891.9039999999998 -16.896V-16.384Q891.9039999999998 -16.064 891.5839999999998 -16.064L889.1519999999998 -15.936Q888.8319999999998 -15.936 888.8319999999998 -16.256V-17.088Q888.8319999999998 -18.400000000000002 888.0799999999997 -19.200000000000003Q887.3279999999997 -20.0 886.1119999999999 -20.0Q884.8959999999998 -20.0 884.1599999999999 -19.200000000000003Q883.4239999999998 -18.400000000000002 883.4239999999998 -17.088V-5.312Q883.4239999999998 -4.0 884.1599999999999 -3.2Q884.8959999999998 -2.4 886.1119999999999 -2.4Q887.3279999999997 -2.4 888.0799999999997 -3.2Q888.8319999999998 -4.0 888.8319999999998 -5.312V-6.144Q888.8319999999998 -6.464 889.1519999999998 -6.464L891.5839999999998 -6.336Q891.9039999999998 -6.336 891.9039999999998 -6.016V-5.5360000000000005Q891.9039999999998 -2.912 890.3199999999997 -1.3279999999999998Q888.7359999999998 0.256 886.1119999999999 0.256Q883.5199999999998 0.256 881.9359999999997 -1.3279999999999998Q880.3519999999997 -2.912 880.3519999999997 -5.5360000000000005Z M915.6799999999997 -0.28800000000000003 914.9759999999998 -3.968Q914.9759999999998 -4.032 914.9279999999998 -4.064Q914.8799999999998 -4.096 914.8159999999997 -4.096H909.5999999999998Q909.5359999999997 -4.096 909.4879999999997 -4.064Q909.4399999999997 -4.032 909.4399999999997 -3.968L908.7679999999998 -0.28800000000000003Q908.7359999999998 0.0 908.4159999999997 0.0H905.9839999999997Q905.8239999999997 0.0 905.7439999999997 -0.096Q905.6639999999998 -0.192 905.6959999999998 -0.352L910.4639999999997 -22.112000000000002Q910.5279999999998 -22.400000000000002 910.8159999999997 -22.400000000000002H913.6639999999998Q913.9839999999997 -22.400000000000002 914.0159999999997 -22.112000000000002L918.8159999999997 -0.352V-0.28800000000000003Q918.8159999999997 0.0 918.5279999999998 0.0H916.0319999999997Q915.7439999999998 0.0 915.6799999999997 -0.28800000000000003ZM910.0799999999997 -6.5280000000000005H914.3359999999998Q914.4319999999998 -6.5280000000000005 914.4319999999998 -6.656000000000001L912.2559999999997 -18.016000000000002Q912.2239999999997 -18.080000000000002 912.1919999999998 -18.080000000000002Q912.1599999999997 -18.080000000000002 912.1279999999997 -18.016000000000002L909.9839999999997 -6.656000000000001Q909.9839999999997 -6.5280000000000005 910.0799999999997 -6.5280000000000005Z M943.6159999999998 -19.744H936.4159999999997Q936.2879999999998 -19.744 936.2879999999998 -19.616V-12.672Q936.2879999999998 -12.544 936.4159999999997 -12.544H940.8319999999998Q941.1519999999997 -12.544 941.1519999999997 -12.224V-10.208Q941.1519999999997 -9.888 940.8319999999998 -9.888H936.4159999999997Q936.2879999999998 -9.888 936.2879999999998 -9.76V-2.7840000000000003Q936.2879999999998 -2.656 936.4159999999997 -2.656H943.6159999999998Q943.9359999999997 -2.656 943.9359999999997 -2.336V-0.32Q943.9359999999997 0.0 943.6159999999998 0.0H933.5359999999997Q933.2159999999998 0.0 933.2159999999998 -0.32V-22.080000000000002Q933.2159999999998 -22.400000000000002 933.5359999999997 -22.400000000000002H943.6159999999998Q943.9359999999997 -22.400000000000002 943.9359999999997 -22.080000000000002V-20.064Q943.9359999999997 -19.744 943.6159999999998 -19.744Z M968.3839999999997 -22.400000000000002H970.7839999999997Q971.1039999999997 -22.400000000000002 971.1039999999997 -22.080000000000002V-0.32Q971.1039999999997 0.0 970.7839999999997 0.0H968.0319999999997Q967.7759999999997 0.0 967.6799999999997 -0.256L962.2399999999997 -14.88Q962.2079999999997 -14.944 962.1439999999998 -14.928Q962.0799999999997 -14.912 962.0799999999997 -14.848L962.1119999999997 -0.32Q962.1119999999997 0.0 961.7919999999997 0.0H959.3599999999997Q959.0399999999997 0.0 959.0399999999997 -0.32V-22.080000000000002Q959.0399999999997 -22.400000000000002 959.3599999999997 -22.400000000000002H962.0799999999997Q962.3359999999997 -22.400000000000002 962.4319999999997 -22.144000000000002L967.9039999999997 -7.5200000000000005Q967.9359999999997 -7.424 967.9999999999998 -7.44Q968.0639999999997 -7.456 968.0639999999997 -7.5520000000000005V-22.080000000000002Q968.0639999999997 -22.400000000000002 968.3839999999997 -22.400000000000002Z" fill="#E07020"/>
  </g>

  <!-- Main logo centered -->
  <g transform="translate(740.97, 780.00)">
    <path d="M4.4 -43.12V-111.1Q4.4 -131.56 17.6 -143.66Q30.8 -155.76 52.58 -155.76Q66.88 -155.76 77.77 -150.26Q88.66 -144.76 94.71000000000001 -134.53Q100.76 -124.3 100.76 -110.66V-103.4Q100.76 -101.86 99.88 -100.97999999999999Q99.0 -100.1 97.46 -100.1H62.7Q61.160000000000004 -100.1 60.28 -100.97999999999999Q59.4 -101.86 59.4 -103.4V-111.1Q59.4 -115.28 57.53 -117.81Q55.660000000000004 -120.34 52.58 -120.34Q49.5 -120.34 47.629999999999995 -117.81Q45.76 -115.28 45.76 -111.1V-42.9Q45.76 -38.72 47.629999999999995 -36.19Q49.5 -33.660000000000004 52.58 -33.660000000000004Q55.660000000000004 -33.660000000000004 57.53 -36.19Q59.4 -38.72 59.4 -42.9V-53.68Q59.4 -55.0 58.08 -55.0H56.32Q54.78 -55.0 53.900000000000006 -55.879999999999995Q53.02 -56.76 53.02 -58.3V-83.6Q53.02 -85.14 53.900000000000006 -86.02000000000001Q54.78 -86.9 56.32 -86.9H97.46Q99.0 -86.9 99.88 -86.02000000000001Q100.76 -85.14 100.76 -83.6V-43.12Q100.76 -29.7 94.71000000000001 -19.47Q88.66 -9.24 77.77 -3.74Q66.88 1.76 52.58 1.76Q30.8 1.76 17.6 -10.45Q4.4 -22.66 4.4 -43.12Z M174.66 -3.08 172.24 -19.580000000000002Q172.24 -20.02 171.8 -20.46Q171.36 -20.9 170.7 -20.9H151.34Q150.68 -20.9 150.24 -20.46Q149.8 -20.02 149.8 -19.580000000000002L147.6 -3.08Q147.38 0.0 144.07999999999998 0.0H109.53999999999999Q106.02 0.0 106.67999999999999 -3.52L137.92 -151.14000000000001Q138.57999999999998 -154.0 141.66 -154.0H181.7Q184.78 -154.0 185.44 -151.14000000000001L216.68 -3.52V-2.64Q216.68 0.0 213.6 0.0H178.18Q174.88 0.0 174.66 -3.08ZM155.74 -52.58H166.07999999999998Q167.62 -52.58 167.18 -53.9L161.24 -93.5Q161.01999999999998 -94.38 160.57999999999998 -94.38Q160.14 -94.38 159.92 -93.5L154.64 -53.9Q154.64 -52.58 155.74 -52.58Z M300.26 -154.0H334.58000000000004Q336.12 -154.0 337.0 -153.12Q337.88 -152.24 337.88 -150.7V-3.3Q337.88 -1.76 337.0 -0.88Q336.12 0.0 334.58000000000004 0.0H299.82000000000005Q298.28000000000003 0.0 297.40000000000003 -0.88Q296.52000000000004 -1.76 296.52000000000004 -3.3V-92.84Q296.52000000000004 -93.72 295.97 -93.94Q295.42 -94.16 294.98 -93.28L282.44 -72.16L280.24 -68.2H280.02000000000004L265.5 -93.28Q265.06 -94.16 264.51 -94.05Q263.96000000000004 -93.94 263.96000000000004 -92.84V-3.3Q263.96000000000004 -1.76 263.08000000000004 -0.88Q262.20000000000005 0.0 260.66 0.0H225.9Q224.36 0.0 223.48000000000002 -0.88Q222.60000000000002 -1.76 222.60000000000002 -3.3V-150.7Q222.60000000000002 -152.24 223.48000000000002 -153.12Q224.36 -154.0 225.9 -154.0H260.22Q263.08000000000004 -154.0 264.18 -151.58L279.58000000000004 -123.42Q280.02000000000004 -122.76 280.57000000000005 -122.65Q281.12 -122.54 281.34000000000003 -123.42L296.3 -151.58Q297.62 -154.0 300.26 -154.0Z M430.92 -118.58H388.9Q387.58 -118.58 387.58 -117.26V-96.14Q387.58 -94.82000000000001 388.9 -94.82000000000001H410.68Q412.22 -94.82000000000001 413.1 -93.94Q413.98 -93.06 413.98 -91.52V-62.7Q413.98 -61.160000000000004 413.1 -60.28Q412.22 -59.4 410.68 -59.4H388.9Q387.58 -59.4 387.58 -58.08V-36.74Q387.58 -35.42 388.9 -35.42H430.92Q432.46 -35.42 433.34000000000003 -34.540000000000006Q434.22 -33.660000000000004 434.22 -32.12V-3.3Q434.22 -1.76 433.34000000000003 -0.88Q432.46 0.0 430.92 0.0H349.52Q347.98 0.0 347.1 -0.88Q346.22 -1.76 346.22 -3.3V-150.7Q346.22 -152.24 347.1 -153.12Q347.98 -154.0 349.52 -154.0H430.92Q432.46 -154.0 433.34000000000003 -153.12Q434.22 -152.24 434.22 -150.7V-121.88Q434.22 -120.34 433.34000000000003 -119.46000000000001Q432.46 -118.58 430.92 -118.58Z" fill="#F0EBE2"/>
    <path d="M453.56 -2.2V-151.8Q453.56 -154.0 455.76 -154.0H488.1Q504.38 -154.0 513.8399999999999 -143.11Q523.3 -132.22 523.3 -113.52V-40.48Q523.3 -21.78 513.8399999999999 -10.89Q504.38 0.0 488.1 0.0H455.76Q453.56 0.0 453.56 -2.2ZM466.1 -10.34H488.1Q498.88 -10.56 505.15 -18.59Q511.42 -26.62 511.42 -40.7V-113.08Q511.42 -127.38 505.15 -135.51999999999998Q498.88 -143.66 487.88 -143.66H466.1Q465.22 -143.66 465.22 -142.78V-11.22Q465.22 -10.34 466.1 -10.34Z M549.4599999999999 -35.2V-118.58Q549.4599999999999 -135.3 559.3599999999999 -145.53Q569.26 -155.76 585.54 -155.76Q601.8199999999999 -155.76 611.9399999999999 -145.53Q622.06 -135.3 622.06 -118.58V-35.2Q622.06 -18.7 611.9399999999999 -8.469999999999999Q601.8199999999999 1.76 585.54 1.76Q569.48 1.76 559.47 -8.469999999999999Q549.4599999999999 -18.7 549.4599999999999 -35.2ZM610.4 -34.76V-119.02Q610.4 -130.68 603.47 -138.05Q596.54 -145.42 585.54 -145.42Q574.76 -145.42 567.94 -138.05Q561.12 -130.68 561.12 -119.02V-34.76Q561.12 -23.1 567.94 -15.84Q574.76 -8.58 585.54 -8.58Q596.54 -8.58 603.47 -15.84Q610.4 -23.1 610.4 -34.76Z M646.68 -35.2V-118.58Q646.68 -135.3 656.5799999999999 -145.53Q666.48 -155.76 682.76 -155.76Q699.04 -155.76 709.16 -145.53Q719.28 -135.3 719.28 -118.58V-35.2Q719.28 -18.7 709.16 -8.469999999999999Q699.04 1.76 682.76 1.76Q666.7 1.76 656.69 -8.469999999999999Q646.68 -18.7 646.68 -35.2ZM707.62 -34.76V-119.02Q707.62 -130.68 700.69 -138.05Q693.76 -145.42 682.76 -145.42Q671.98 -145.42 665.1600000000001 -138.05Q658.34 -130.68 658.34 -119.02V-34.76Q658.34 -23.1 665.1600000000001 -15.84Q671.98 -8.58 682.76 -8.58Q693.76 -8.58 700.69 -15.84Q707.62 -23.1 707.62 -34.76Z M807.26 -1.76 783.0600000000001 -71.5Q782.84 -72.16 782.1800000000001 -72.16H760.4Q759.52 -72.16 759.52 -71.28V-2.2Q759.52 0.0 757.32 0.0H750.0600000000001Q747.86 0.0 747.86 -2.2V-151.8Q747.86 -154.0 750.0600000000001 -154.0H784.16Q799.5600000000001 -154.0 809.02 -142.56Q818.48 -131.12 818.48 -112.64Q818.48 -97.9 812.1 -87.56Q805.72 -77.22 794.72 -73.48Q793.84 -73.26 794.0600000000001 -72.38L818.9200000000001 -2.42L819.14 -1.54Q819.14 0.0 817.1600000000001 0.0H809.9Q807.9200000000001 0.0 807.26 -1.76ZM759.52 -142.78V-82.72Q759.52 -81.84 760.4 -81.84H782.84Q793.62 -81.84 800.22 -90.31Q806.82 -98.78 806.82 -112.64Q806.82 -126.72 800.22 -135.19Q793.62 -143.66 782.84 -143.66H760.4Q759.52 -143.66 759.52 -142.78Z" fill="#F0EBE2"/>
  </g>
  <circle cx="1602.57" cy="714.00" r="17.60" fill="#E07020"/>
  <g transform="translate(1637.77, 780.00)">
    <path d="M114.84 -70.84V-40.04Q114.84 -38.5 113.96000000000001 -37.620000000000005Q113.08 -36.74 111.54 -36.74H104.94Q103.62 -36.74 103.62 -35.42V-3.3Q103.62 -1.76 102.74000000000001 -0.88Q101.86 0.0 100.32000000000001 0.0H65.56Q64.02 0.0 63.14 -0.88Q62.26 -1.76 62.26 -3.3V-35.42Q62.26 -36.74 60.94 -36.74H5.06Q3.52 -36.74 2.64 -37.620000000000005Q1.76 -38.5 1.76 -40.04V-64.46Q1.76 -66.44 2.42 -68.42L29.04 -151.36Q29.92 -154.0 32.78 -154.0H69.96Q71.72 -154.0 72.49000000000001 -153.01Q73.26 -152.02 72.82000000000001 -150.26L50.160000000000004 -75.68Q49.94 -74.14 51.26 -74.14H60.94Q62.26 -74.14 62.26 -75.46V-90.42Q62.26 -91.96 63.14 -92.84Q64.02 -93.72 65.56 -93.72H100.32000000000001Q101.86 -93.72 102.74000000000001 -92.84Q103.62 -91.96 103.62 -90.42V-75.46Q103.62 -74.14 104.94 -74.14H111.54Q113.08 -74.14 113.96000000000001 -73.25999999999999Q114.84 -72.38 114.84 -70.84Z M137.48 -154.0H173.56Q175.1 -154.0 175.98 -153.12Q176.85999999999999 -152.24 176.85999999999999 -150.7V-3.3Q176.85999999999999 -1.76 175.98 -0.88Q175.1 0.0 173.56 0.0H138.79999999999998Q137.26 0.0 136.38 -0.88Q135.5 -1.76 135.5 -3.3V-115.06Q135.5 -116.38 134.18 -116.38H119.66Q118.11999999999999 -116.38 117.24 -117.25999999999999Q116.36 -118.14 116.36 -119.68V-145.2Q116.36 -148.06 119.0 -148.94L133.51999999999998 -153.34Q135.5 -154.0 137.48 -154.0Z" fill="#E07020"/>
  </g>

  <!-- Tagline -->
  <g transform="translate(933.23, 870.00)">
    <path d="M17.262 -22.638H9.24Q8.988000000000001 -22.638 8.988000000000001 -22.386000000000003V-18.354000000000003Q8.988000000000001 -18.102 9.24 -18.102H13.398000000000001Q13.692 -18.102 13.86 -17.934Q14.028 -17.766000000000002 14.028 -17.472V-11.97Q14.028 -11.676 13.86 -11.508Q13.692 -11.34 13.398000000000001 -11.34H9.24Q8.988000000000001 -11.34 8.988000000000001 -11.088000000000001V-7.014Q8.988000000000001 -6.7620000000000005 9.24 -6.7620000000000005H17.262Q17.556 -6.7620000000000005 17.724 -6.594Q17.892 -6.426 17.892 -6.132000000000001V-0.63Q17.892 -0.336 17.724 -0.168Q17.556 0.0 17.262 0.0H1.7220000000000002Q1.4280000000000002 0.0 1.2600000000000002 -0.168Q1.092 -0.336 1.092 -0.63V-28.770000000000003Q1.092 -29.064 1.2600000000000002 -29.232Q1.4280000000000002 -29.400000000000002 1.7220000000000002 -29.400000000000002H17.262Q17.556 -29.400000000000002 17.724 -29.232Q17.892 -29.064 17.892 -28.770000000000003V-23.268Q17.892 -22.974 17.724 -22.806Q17.556 -22.638 17.262 -22.638Z M44.55 -29.400000000000002H51.102000000000004Q51.396 -29.400000000000002 51.564 -29.232Q51.732 -29.064 51.732 -28.770000000000003V-0.63Q51.732 -0.336 51.564 -0.168Q51.396 0.0 51.102000000000004 0.0H43.626000000000005Q43.08 0.0 42.954 -0.546L39.762 -13.272Q39.72 -13.398000000000001 39.594 -13.398000000000001Q39.468 -13.398000000000001 39.468 -13.23L39.552 -0.63Q39.552 -0.336 39.384 -0.168Q39.216 0.0 38.922 0.0H32.37Q32.076 0.0 31.908 -0.168Q31.74 -0.336 31.74 -0.63V-28.770000000000003Q31.74 -29.064 31.908 -29.232Q32.076 -29.400000000000002 32.37 -29.400000000000002H39.762Q40.308 -29.400000000000002 40.434 -28.854000000000003L43.668 -16.086000000000002Q43.71 -15.918000000000001 43.836 -15.918000000000001Q43.962 -15.918000000000001 43.962 -16.086000000000002L43.92 -28.770000000000003Q43.92 -29.064 44.088 -29.232Q44.256 -29.400000000000002 44.55 -29.400000000000002Z M85.026 -28.770000000000003V-23.268Q85.026 -22.974 84.858 -22.806Q84.69 -22.638 84.396 -22.638H79.44Q79.188 -22.638 79.188 -22.386000000000003V-0.63Q79.188 -0.336 79.02000000000001 -0.168Q78.852 0.0 78.55799999999999 0.0H71.922Q71.628 0.0 71.46000000000001 -0.168Q71.292 -0.336 71.292 -0.63V-22.386000000000003Q71.292 -22.638 71.03999999999999 -22.638H66.21Q65.916 -22.638 65.74799999999999 -22.806Q65.58 -22.974 65.58 -23.268V-28.770000000000003Q65.58 -29.064 65.74799999999999 -29.232Q65.916 -29.400000000000002 66.21 -29.400000000000002H84.396Q84.69 -29.400000000000002 84.858 -29.232Q85.026 -29.064 85.026 -28.770000000000003Z M109.66799999999999 -0.546 107.106 -11.088000000000001Q107.02199999999999 -11.298 106.938 -11.298Q106.77 -11.298 106.77 -11.046000000000001V-0.63Q106.77 -0.336 106.602 -0.168Q106.434 0.0 106.14 0.0H99.50399999999999Q99.21 0.0 99.042 -0.168Q98.874 -0.336 98.874 -0.63V-28.770000000000003Q98.874 -29.064 99.042 -29.232Q99.21 -29.400000000000002 99.50399999999999 -29.400000000000002H108.954Q111.47399999999999 -29.400000000000002 113.42699999999999 -28.203000000000003Q115.38 -27.006 116.472 -24.885Q117.564 -22.764000000000003 117.564 -20.034000000000002Q117.564 -17.724 116.76599999999999 -15.897Q115.96799999999999 -14.07 114.45599999999999 -12.936Q114.288 -12.81 114.33 -12.600000000000001L117.732 -0.7140000000000001Q117.774 -0.63 117.774 -0.504Q117.774 0.0 117.18599999999999 0.0H110.34Q109.794 0.0 109.66799999999999 -0.546ZM107.02199999999999 -22.638Q106.77 -22.638 106.77 -22.386000000000003V-17.556Q106.77 -17.304000000000002 107.02199999999999 -17.304000000000002H107.568Q108.49199999999999 -17.304000000000002 109.07999999999998 -17.997Q109.66799999999999 -18.69 109.66799999999999 -19.950000000000003Q109.66799999999999 -21.252000000000002 109.101 -21.945Q108.53399999999999 -22.638 107.568 -22.638Z M147.624 -22.638H139.602Q139.35 -22.638 139.35 -22.386000000000003V-18.354000000000003Q139.35 -18.102 139.602 -18.102H143.76Q144.054 -18.102 144.22199999999998 -17.934Q144.39 -17.766000000000002 144.39 -17.472V-11.97Q144.39 -11.676 144.22199999999998 -11.508Q144.054 -11.34 143.76 -11.34H139.602Q139.35 -11.34 139.35 -11.088000000000001V-7.014Q139.35 -6.7620000000000005 139.602 -6.7620000000000005H147.624Q147.918 -6.7620000000000005 148.086 -6.594Q148.254 -6.426 148.254 -6.132000000000001V-0.63Q148.254 -0.336 148.086 -0.168Q147.918 0.0 147.624 0.0H132.084Q131.79 0.0 131.622 -0.168Q131.454 -0.336 131.454 -0.63V-28.770000000000003Q131.454 -29.064 131.622 -29.232Q131.79 -29.400000000000002 132.084 -29.400000000000002H147.624Q147.918 -29.400000000000002 148.086 -29.232Q148.254 -29.064 148.254 -28.770000000000003V-23.268Q148.254 -22.974 148.086 -22.806Q147.918 -22.638 147.624 -22.638Z M161.51399999999998 -0.63V-6.3420000000000005Q161.51399999999998 -6.720000000000001 161.724 -7.140000000000001L169.74599999999998 -22.344Q169.87199999999999 -22.638 169.578 -22.638H162.14399999999998Q161.85 -22.638 161.682 -22.806Q161.51399999999998 -22.974 161.51399999999998 -23.268V-28.770000000000003Q161.51399999999998 -29.064 161.682 -29.232Q161.85 -29.400000000000002 162.14399999999998 -29.400000000000002H177.6Q177.894 -29.400000000000002 178.062 -29.232Q178.23 -29.064 178.23 -28.770000000000003V-23.058Q178.23 -22.68 178.01999999999998 -22.26L169.914 -7.056Q169.78799999999998 -6.7620000000000005 170.082 -6.7620000000000005H177.6Q177.894 -6.7620000000000005 178.062 -6.594Q178.23 -6.426 178.23 -6.132000000000001V-0.63Q178.23 -0.336 178.062 -0.168Q177.894 0.0 177.6 0.0H162.14399999999998Q161.85 0.0 161.682 -0.168Q161.51399999999998 -0.336 161.51399999999998 -0.63Z M232.79399999999998 -12.516000000000002Q232.79399999999998 -14.280000000000001 233.90699999999998 -15.372000000000002Q235.01999999999998 -16.464000000000002 236.742 -16.464000000000002Q238.464 -16.464000000000002 239.577 -15.372000000000002Q240.69 -14.280000000000001 240.69 -12.516000000000002Q240.69 -10.836000000000002 239.55599999999998 -9.702000000000002Q238.422 -8.568000000000001 236.742 -8.568000000000001Q235.01999999999998 -8.568000000000001 233.90699999999998 -9.681000000000001Q232.79399999999998 -10.794 232.79399999999998 -12.516000000000002Z M295.00199999999995 -8.064V-10.5Q295.00199999999995 -10.794 295.16999999999996 -10.962Q295.33799999999997 -11.13 295.63199999999995 -11.13H302.2679999999999Q302.56199999999995 -11.13 302.72999999999996 -10.962Q302.89799999999997 -10.794 302.89799999999997 -10.5V-7.98Q302.89799999999997 -7.308000000000001 303.2339999999999 -6.867000000000001Q303.56999999999994 -6.426 304.11599999999993 -6.426Q304.70399999999995 -6.426 305.0609999999999 -6.867000000000001Q305.41799999999995 -7.308000000000001 305.41799999999995 -7.98V-28.770000000000003Q305.41799999999995 -29.064 305.58599999999996 -29.232Q305.75399999999996 -29.400000000000002 306.04799999999994 -29.400000000000002H312.68399999999997Q312.97799999999995 -29.400000000000002 313.14599999999996 -29.232Q313.31399999999996 -29.064 313.31399999999996 -28.770000000000003V-8.064Q313.31399999999996 -5.586 312.159 -3.6750000000000003Q311.00399999999996 -1.764 308.92499999999995 -0.714Q306.84599999999995 0.336 304.11599999999993 0.336Q301.42799999999994 0.336 299.34899999999993 -0.714Q297.2699999999999 -1.764 296.13599999999997 -3.6750000000000003Q295.00199999999995 -5.586 295.00199999999995 -8.064Z M327.2459999999999 -8.652000000000001V-20.748Q327.2459999999999 -24.864 329.7869999999999 -27.3Q332.328 -29.736 336.56999999999994 -29.736Q340.81199999999995 -29.736 343.35299999999995 -27.3Q345.89399999999995 -24.864 345.89399999999995 -20.748V-8.652000000000001Q345.89399999999995 -4.5360000000000005 343.35299999999995 -2.1Q340.81199999999995 0.336 336.56999999999994 0.336Q332.328 0.336 329.7869999999999 -2.1Q327.2459999999999 -4.5360000000000005 327.2459999999999 -8.652000000000001ZM337.99799999999993 -8.316V-21.084Q337.99799999999993 -21.966 337.61999999999995 -22.47Q337.24199999999996 -22.974 336.56999999999994 -22.974Q335.89799999999997 -22.974 335.52 -22.47Q335.14199999999994 -21.966 335.14199999999994 -21.084V-8.316Q335.14199999999994 -7.434 335.52 -6.93Q335.89799999999997 -6.426 336.56999999999994 -6.426Q337.24199999999996 -6.426 337.61999999999995 -6.93Q337.99799999999993 -7.434 337.99799999999993 -8.316Z M359.7419999999999 -8.736V-28.770000000000003Q359.7419999999999 -29.064 359.9099999999999 -29.232Q360.0779999999999 -29.400000000000002 360.3719999999999 -29.400000000000002H367.0079999999999Q367.3019999999999 -29.400000000000002 367.4699999999999 -29.232Q367.6379999999999 -29.064 367.6379999999999 -28.770000000000003V-7.98Q367.6379999999999 -7.266 367.97399999999993 -6.846Q368.30999999999995 -6.426 368.85599999999994 -6.426Q369.40199999999993 -6.426 369.7169999999999 -6.846Q370.0319999999999 -7.266 370.0319999999999 -7.98V-28.770000000000003Q370.0319999999999 -29.064 370.19999999999993 -29.232Q370.36799999999994 -29.400000000000002 370.6619999999999 -29.400000000000002H377.29799999999994Q377.5919999999999 -29.400000000000002 377.75999999999993 -29.232Q377.92799999999994 -29.064 377.92799999999994 -28.770000000000003V-8.736Q377.92799999999994 -6.048 376.7939999999999 -3.99Q375.6599999999999 -1.9320000000000002 373.6019999999999 -0.798Q371.5439999999999 0.336 368.85599999999994 0.336Q366.1259999999999 0.336 364.0679999999999 -0.798Q362.00999999999993 -1.9320000000000002 360.8759999999999 -3.99Q359.7419999999999 -6.048 359.7419999999999 -8.736Z M408.1979999999999 -22.638H400.17599999999993Q399.9239999999999 -22.638 399.9239999999999 -22.386000000000003V-18.354000000000003Q399.9239999999999 -18.102 400.17599999999993 -18.102H404.33399999999995Q404.62799999999993 -18.102 404.79599999999994 -17.934Q404.96399999999994 -17.766000000000002 404.96399999999994 -17.472V-11.97Q404.96399999999994 -11.676 404.79599999999994 -11.508Q404.62799999999993 -11.34 404.33399999999995 -11.34H400.17599999999993Q399.9239999999999 -11.34 399.9239999999999 -11.088000000000001V-7.014Q399.9239999999999 -6.7620000000000005 400.17599999999993 -6.7620000000000005H408.1979999999999Q408.4919999999999 -6.7620000000000005 408.6599999999999 -6.594Q408.8279999999999 -6.426 408.8279999999999 -6.132000000000001V-0.63Q408.8279999999999 -0.336 408.6599999999999 -0.168Q408.4919999999999 0.0 408.1979999999999 0.0H392.6579999999999Q392.3639999999999 0.0 392.1959999999999 -0.168Q392.0279999999999 -0.336 392.0279999999999 -0.63V-28.770000000000003Q392.0279999999999 -29.064 392.1959999999999 -29.232Q392.3639999999999 -29.400000000000002 392.6579999999999 -29.400000000000002H408.1979999999999Q408.4919999999999 -29.400000000000002 408.6599999999999 -29.232Q408.8279999999999 -29.064 408.8279999999999 -28.770000000000003V-23.268Q408.8279999999999 -22.974 408.6599999999999 -22.806Q408.4919999999999 -22.638 408.1979999999999 -22.638Z M422.08799999999997 -0.63V-6.3420000000000005Q422.08799999999997 -6.720000000000001 422.29799999999994 -7.140000000000001L430.31999999999994 -22.344Q430.44599999999997 -22.638 430.15199999999993 -22.638H422.71799999999996Q422.4239999999999 -22.638 422.256 -22.806Q422.08799999999997 -22.974 422.08799999999997 -23.268V-28.770000000000003Q422.08799999999997 -29.064 422.256 -29.232Q422.4239999999999 -29.400000000000002 422.71799999999996 -29.400000000000002H438.1739999999999Q438.46799999999996 -29.400000000000002 438.63599999999997 -29.232Q438.804 -29.064 438.804 -28.770000000000003V-23.058Q438.804 -22.68 438.59399999999994 -22.26L430.48799999999994 -7.056Q430.36199999999997 -6.7620000000000005 430.65599999999995 -6.7620000000000005H438.1739999999999Q438.46799999999996 -6.7620000000000005 438.63599999999997 -6.594Q438.804 -6.426 438.804 -6.132000000000001V-0.63Q438.804 -0.336 438.63599999999997 -0.168Q438.46799999999996 0.0 438.1739999999999 0.0H422.71799999999996Q422.4239999999999 0.0 422.256 -0.168Q422.08799999999997 -0.336 422.08799999999997 -0.63Z M493.36799999999994 -12.516000000000002Q493.36799999999994 -14.280000000000001 494.48099999999994 -15.372000000000002Q495.59399999999994 -16.464000000000002 497.3159999999999 -16.464000000000002Q499.03799999999995 -16.464000000000002 500.15099999999995 -15.372000000000002Q501.26399999999995 -14.280000000000001 501.26399999999995 -12.516000000000002Q501.26399999999995 -10.836000000000002 500.12999999999994 -9.702000000000002Q498.9959999999999 -8.568000000000001 497.3159999999999 -8.568000000000001Q495.59399999999994 -8.568000000000001 494.48099999999994 -9.681000000000001Q493.36799999999994 -10.794 493.36799999999994 -12.516000000000002Z M561.7499999999999 -0.546 555.8699999999999 -28.728V-28.896Q555.8699999999999 -29.400000000000002 556.4579999999999 -29.400000000000002H563.6819999999999Q564.3119999999999 -29.400000000000002 564.3539999999999 -28.812L566.2439999999999 -13.944Q566.2439999999999 -13.818000000000001 566.3699999999999 -13.818000000000001Q566.4959999999999 -13.818000000000001 566.4959999999999 -13.944L568.2179999999998 -28.812Q568.2599999999999 -29.400000000000002 568.8899999999999 -29.400000000000002H575.9039999999999Q576.6179999999999 -29.400000000000002 576.4919999999998 -28.728L570.5279999999999 -0.546Q570.4019999999999 0.0 569.8139999999999 0.0H562.4639999999999Q561.8759999999999 0.0 561.7499999999999 -0.546Z M590.2139999999998 -0.63V-28.770000000000003Q590.2139999999998 -29.064 590.3819999999998 -29.232Q590.5499999999998 -29.400000000000002 590.8439999999998 -29.400000000000002H597.4799999999998Q597.7739999999999 -29.400000000000002 597.9419999999999 -29.232Q598.1099999999999 -29.064 598.1099999999999 -28.770000000000003V-0.63Q598.1099999999999 -0.336 597.9419999999999 -0.168Q597.7739999999999 0.0 597.4799999999998 0.0H590.8439999999998Q590.5499999999998 0.0 590.3819999999998 -0.168Q590.2139999999998 -0.336 590.2139999999998 -0.63Z M617.7119999999999 -0.546 611.8319999999999 -28.728V-28.896Q611.8319999999999 -29.400000000000002 612.4199999999998 -29.400000000000002H619.6439999999999Q620.2739999999999 -29.400000000000002 620.3159999999999 -28.812L622.2059999999999 -13.944Q622.2059999999999 -13.818000000000001 622.3319999999999 -13.818000000000001Q622.4579999999999 -13.818000000000001 622.4579999999999 -13.944L624.1799999999998 -28.812Q624.2219999999999 -29.400000000000002 624.8519999999999 -29.400000000000002H631.8659999999999Q632.5799999999999 -29.400000000000002 632.4539999999998 -28.728L626.4899999999999 -0.546Q626.3639999999999 0.0 625.7759999999998 0.0H618.4259999999999Q617.8379999999999 0.0 617.7119999999999 -0.546Z M662.3459999999998 -22.638H654.3239999999998Q654.0719999999999 -22.638 654.0719999999999 -22.386000000000003V-18.354000000000003Q654.0719999999999 -18.102 654.3239999999998 -18.102H658.4819999999999Q658.7759999999998 -18.102 658.9439999999998 -17.934Q659.1119999999999 -17.766000000000002 659.1119999999999 -17.472V-11.97Q659.1119999999999 -11.676 658.9439999999998 -11.508Q658.7759999999998 -11.34 658.4819999999999 -11.34H654.3239999999998Q654.0719999999999 -11.34 654.0719999999999 -11.088000000000001V-7.014Q654.0719999999999 -6.7620000000000005 654.3239999999998 -6.7620000000000005H662.3459999999998Q662.6399999999999 -6.7620000000000005 662.8079999999999 -6.594Q662.9759999999999 -6.426 662.9759999999999 -6.132000000000001V-0.63Q662.9759999999999 -0.336 662.8079999999999 -0.168Q662.6399999999999 0.0 662.3459999999998 0.0H646.8059999999998Q646.5119999999998 0.0 646.3439999999998 -0.168Q646.1759999999998 -0.336 646.1759999999998 -0.63V-28.770000000000003Q646.1759999999998 -29.064 646.3439999999998 -29.232Q646.5119999999998 -29.400000000000002 646.8059999999998 -29.400000000000002H662.3459999999998Q662.6399999999999 -29.400000000000002 662.8079999999999 -29.232Q662.9759999999999 -29.064 662.9759999999999 -28.770000000000003V-23.268Q662.9759999999999 -22.974 662.8079999999999 -22.806Q662.6399999999999 -22.638 662.3459999999998 -22.638Z M676.2359999999999 -0.63V-6.3420000000000005Q676.2359999999999 -6.720000000000001 676.4459999999999 -7.140000000000001L684.4679999999998 -22.344Q684.5939999999998 -22.638 684.2999999999998 -22.638H676.8659999999999Q676.5719999999999 -22.638 676.4039999999999 -22.806Q676.2359999999999 -22.974 676.2359999999999 -23.268V-28.770000000000003Q676.2359999999999 -29.064 676.4039999999999 -29.232Q676.5719999999999 -29.400000000000002 676.8659999999999 -29.400000000000002H692.3219999999999Q692.6159999999999 -29.400000000000002 692.7839999999999 -29.232Q692.9519999999999 -29.064 692.9519999999999 -28.770000000000003V-23.058Q692.9519999999999 -22.68 692.7419999999998 -22.26L684.6359999999999 -7.056Q684.5099999999999 -6.7620000000000005 684.8039999999999 -6.7620000000000005H692.3219999999999Q692.6159999999999 -6.7620000000000005 692.7839999999999 -6.594Q692.9519999999999 -6.426 692.9519999999999 -6.132000000000001V-0.63Q692.9519999999999 -0.336 692.7839999999999 -0.168Q692.6159999999999 0.0 692.3219999999999 0.0H676.8659999999999Q676.5719999999999 0.0 676.4039999999999 -0.168Q676.2359999999999 -0.336 676.2359999999999 -0.63Z" fill="#E07020"/>
  </g>

  <!-- Sub-tagline -->
  <g transform="translate(922.18, 940.00)">
    <path d="M12.384 -19.744H5.184Q5.056 -19.744 5.056 -19.616V-12.672Q5.056 -12.544 5.184 -12.544H9.6Q9.92 -12.544 9.92 -12.224V-10.208Q9.92 -9.888 9.6 -9.888H5.184Q5.056 -9.888 5.056 -9.76V-2.7840000000000003Q5.056 -2.656 5.184 -2.656H12.384Q12.704 -2.656 12.704 -2.336V-0.32Q12.704 0.0 12.384 0.0H2.3040000000000003Q1.984 0.0 1.984 -0.32V-22.080000000000002Q1.984 -22.400000000000002 2.3040000000000003 -22.400000000000002H12.384Q12.704 -22.400000000000002 12.704 -22.080000000000002V-20.064Q12.704 -19.744 12.384 -19.744Z M21.04 -5.472V-6.304Q21.04 -6.6240000000000006 21.36 -6.6240000000000006H23.727999999999998Q24.048 -6.6240000000000006 24.048 -6.304V-5.632Q24.048 -4.16 24.784 -3.2800000000000002Q25.519999999999996 -2.4 26.671999999999997 -2.4Q27.823999999999998 -2.4 28.575999999999997 -3.248Q29.327999999999996 -4.096 29.327999999999996 -5.472Q29.327999999999996 -6.4 28.927999999999997 -7.104Q28.528 -7.808 27.872 -8.368Q27.215999999999998 -8.928 25.744 -10.016Q24.112 -11.232000000000001 23.183999999999997 -12.096Q22.255999999999997 -12.96 21.616 -14.176Q20.976 -15.392 20.976 -17.024Q20.976 -19.616 22.512 -21.136Q24.048 -22.656 26.511999999999997 -22.656Q29.071999999999996 -22.656 30.624 -21.024Q32.176 -19.392 32.176 -16.736V-15.936Q32.176 -15.616 31.855999999999998 -15.616H29.488Q29.168 -15.616 29.168 -15.936V-16.8Q29.168 -18.240000000000002 28.432 -19.12Q27.695999999999998 -20.0 26.511999999999997 -20.0Q25.392 -20.0 24.688 -19.216Q23.983999999999998 -18.432000000000002 23.983999999999998 -17.024Q23.983999999999998 -15.744 24.688 -14.864Q25.392 -13.984 27.407999999999998 -12.512Q29.327999999999996 -11.072000000000001 30.303999999999995 -10.176Q31.279999999999998 -9.28 31.808 -8.208Q32.336 -7.136 32.336 -5.664Q32.336 -2.976 30.767999999999997 -1.3599999999999999Q29.199999999999996 0.256 26.671999999999997 0.256Q24.144 0.256 22.592 -1.3279999999999998Q21.04 -2.912 21.04 -5.472Z M40.992 -5.5360000000000005V-16.896Q40.992 -19.52 42.57599999999999 -21.088Q44.16 -22.656 46.751999999999995 -22.656Q49.376 -22.656 50.959999999999994 -21.088Q52.544 -19.52 52.544 -16.896V-16.384Q52.544 -16.064 52.224 -16.064L49.791999999999994 -15.936Q49.471999999999994 -15.936 49.471999999999994 -16.256V-17.088Q49.471999999999994 -18.400000000000002 48.72 -19.200000000000003Q47.967999999999996 -20.0 46.751999999999995 -20.0Q45.535999999999994 -20.0 44.8 -19.200000000000003Q44.06399999999999 -18.400000000000002 44.06399999999999 -17.088V-5.312Q44.06399999999999 -4.0 44.8 -3.2Q45.535999999999994 -2.4 46.751999999999995 -2.4Q47.967999999999996 -2.4 48.72 -3.2Q49.471999999999994 -4.0 49.471999999999994 -5.312V-6.144Q49.471999999999994 -6.464 49.791999999999994 -6.464L52.224 -6.336Q52.544 -6.336 52.544 -6.016V-5.5360000000000005Q52.544 -2.912 50.959999999999994 -1.3279999999999998Q49.376 0.256 46.751999999999995 0.256Q44.16 0.256 42.57599999999999 -1.3279999999999998Q40.992 -2.912 40.992 -5.5360000000000005Z M70.32 -0.28800000000000003 69.616 -3.968Q69.616 -4.032 69.568 -4.064Q69.52 -4.096 69.45599999999999 -4.096H64.24Q64.17599999999999 -4.096 64.12799999999999 -4.064Q64.08 -4.032 64.08 -3.968L63.407999999999994 -0.28800000000000003Q63.376 0.0 63.056 0.0H60.623999999999995Q60.46399999999999 0.0 60.38399999999999 -0.096Q60.303999999999995 -0.192 60.33599999999999 -0.352L65.104 -22.112000000000002Q65.16799999999999 -22.400000000000002 65.45599999999999 -22.400000000000002H68.304Q68.624 -22.400000000000002 68.65599999999999 -22.112000000000002L73.45599999999999 -0.352V-0.28800000000000003Q73.45599999999999 0.0 73.16799999999999 0.0H70.672Q70.384 0.0 70.32 -0.28800000000000003ZM64.72 -6.5280000000000005H68.976Q69.072 -6.5280000000000005 69.072 -6.656000000000001L66.896 -18.016000000000002Q66.86399999999999 -18.080000000000002 66.832 -18.080000000000002Q66.8 -18.080000000000002 66.768 -18.016000000000002L64.624 -6.656000000000001Q64.624 -6.5280000000000005 64.72 -6.5280000000000005Z M93.37599999999999 -16.0Q93.37599999999999 -13.184000000000001 91.904 -11.456Q90.43199999999999 -9.728 88.03199999999998 -9.728H85.02399999999999Q84.89599999999999 -9.728 84.89599999999999 -9.6V-0.32Q84.89599999999999 0.0 84.57599999999998 0.0H82.14399999999999Q81.82399999999998 0.0 81.82399999999998 -0.32V-22.112000000000002Q81.82399999999998 -22.432000000000002 82.14399999999999 -22.432000000000002H87.87199999999999Q90.33599999999998 -22.432000000000002 91.856 -20.656Q93.37599999999999 -18.88 93.37599999999999 -16.0ZM90.30399999999999 -15.936Q90.30399999999999 -17.696 89.50399999999999 -18.736Q88.70399999999998 -19.776 87.39199999999998 -19.776H85.02399999999999Q84.89599999999999 -19.776 84.89599999999999 -19.648V-12.32Q84.89599999999999 -12.192 85.02399999999999 -12.192H87.39199999999998Q88.70399999999998 -12.192 89.50399999999999 -13.2Q90.30399999999999 -14.208 90.30399999999999 -15.936Z M112.68799999999999 -19.744H105.48799999999999Q105.35999999999999 -19.744 105.35999999999999 -19.616V-12.672Q105.35999999999999 -12.544 105.48799999999999 -12.544H109.90399999999998Q110.22399999999999 -12.544 110.22399999999999 -12.224V-10.208Q110.22399999999999 -9.888 109.90399999999998 -9.888H105.48799999999999Q105.35999999999999 -9.888 105.35999999999999 -9.76V-2.7840000000000003Q105.35999999999999 -2.656 105.48799999999999 -2.656H112.68799999999999Q113.00799999999998 -2.656 113.00799999999998 -2.336V-0.32Q113.00799999999998 0.0 112.68799999999999 0.0H102.60799999999999Q102.28799999999998 0.0 102.28799999999998 -0.32V-22.080000000000002Q102.28799999999998 -22.400000000000002 102.60799999999999 -22.400000000000002H112.68799999999999Q113.00799999999998 -22.400000000000002 113.00799999999998 -22.080000000000002V-20.064Q113.00799999999998 -19.744 112.68799999999999 -19.744Z M134.064 -5.344V-17.056Q134.064 -19.584 135.648 -21.119999999999997Q137.232 -22.656 139.82399999999998 -22.656Q142.416 -22.656 144.016 -21.119999999999997Q145.61599999999999 -19.584 145.61599999999999 -17.024V-15.68Q145.61599999999999 -15.36 145.296 -15.36H142.864Q142.54399999999998 -15.36 142.54399999999998 -15.68V-17.088Q142.54399999999998 -18.400000000000002 141.79199999999997 -19.200000000000003Q141.04 -20.0 139.82399999999998 -20.0Q138.608 -20.0 137.856 -19.200000000000003Q137.10399999999998 -18.400000000000002 137.10399999999998 -17.088V-5.312Q137.10399999999998 -4.0 137.856 -3.2Q138.608 -2.4 139.82399999999998 -2.4Q141.04 -2.4 141.79199999999997 -3.2Q142.54399999999998 -4.0 142.54399999999998 -5.312V-8.832Q142.54399999999998 -8.96 142.416 -8.96H139.98399999999998Q139.664 -8.96 139.664 -9.28V-11.264Q139.664 -11.584 139.98399999999998 -11.584H145.296Q145.61599999999999 -11.584 145.61599999999999 -11.264V-5.344Q145.61599999999999 -2.816 144.016 -1.2799999999999998Q142.416 0.256 139.82399999999998 0.256Q137.232 0.256 135.648 -1.2799999999999998Q134.064 -2.816 134.064 -5.344Z M163.552 -0.28800000000000003 162.84799999999998 -3.968Q162.84799999999998 -4.032 162.79999999999998 -4.064Q162.75199999999998 -4.096 162.688 -4.096H157.47199999999998Q157.408 -4.096 157.35999999999999 -4.064Q157.31199999999998 -4.032 157.31199999999998 -3.968L156.64 -0.28800000000000003Q156.60799999999998 0.0 156.28799999999998 0.0H153.856Q153.696 0.0 153.61599999999999 -0.096Q153.53599999999997 -0.192 153.56799999999998 -0.352L158.33599999999998 -22.112000000000002Q158.39999999999998 -22.400000000000002 158.688 -22.400000000000002H161.536Q161.856 -22.400000000000002 161.88799999999998 -22.112000000000002L166.688 -0.352V-0.28800000000000003Q166.688 0.0 166.39999999999998 0.0H163.904Q163.61599999999999 0.0 163.552 -0.28800000000000003ZM157.952 -6.5280000000000005H162.208Q162.30399999999997 -6.5280000000000005 162.30399999999997 -6.656000000000001L160.128 -18.016000000000002Q160.09599999999998 -18.080000000000002 160.06399999999996 -18.080000000000002Q160.03199999999998 -18.080000000000002 160.0 -18.016000000000002L157.856 -6.656000000000001Q157.856 -6.5280000000000005 157.952 -6.5280000000000005Z M185.42399999999998 -22.400000000000002H187.856Q188.176 -22.400000000000002 188.176 -22.080000000000002V-0.32Q188.176 0.0 187.856 0.0H185.42399999999998Q185.10399999999998 0.0 185.10399999999998 -0.32V-16.192Q185.10399999999998 -16.288 185.05599999999998 -16.288Q185.00799999999998 -16.288 184.944 -16.224L181.87199999999999 -10.496Q181.77599999999998 -10.272 181.58399999999997 -10.272Q181.392 -10.272 181.296 -10.496L178.25599999999997 -16.192Q178.19199999999998 -16.256 178.14399999999998 -16.256Q178.09599999999998 -16.256 178.09599999999998 -16.16V-0.32Q178.09599999999998 0.0 177.77599999999998 0.0H175.344Q175.02399999999997 0.0 175.02399999999997 -0.32V-22.080000000000002Q175.02399999999997 -22.400000000000002 175.344 -22.400000000000002H177.77599999999998Q177.99999999999997 -22.400000000000002 178.16 -22.176000000000002L181.51999999999998 -16.16Q181.552 -16.128 181.61599999999999 -16.128Q181.67999999999998 -16.128 181.712 -16.16L185.04 -22.176000000000002Q185.16799999999998 -22.400000000000002 185.42399999999998 -22.400000000000002Z M208.44799999999998 -19.744H201.248Q201.12 -19.744 201.12 -19.616V-12.672Q201.12 -12.544 201.248 -12.544H205.664Q205.98399999999998 -12.544 205.98399999999998 -12.224V-10.208Q205.98399999999998 -9.888 205.664 -9.888H201.248Q201.12 -9.888 201.12 -9.76V-2.7840000000000003Q201.12 -2.656 201.248 -2.656H208.44799999999998Q208.768 -2.656 208.768 -2.336V-0.32Q208.768 0.0 208.44799999999998 0.0H198.368Q198.048 0.0 198.048 -0.32V-22.080000000000002Q198.048 -22.400000000000002 198.368 -22.400000000000002H208.44799999999998Q208.768 -22.400000000000002 208.768 -22.080000000000002V-20.064Q208.768 -19.744 208.44799999999998 -19.744Z M241.93599999999998 -9.056000000000001Q241.93599999999998 -9.952000000000002 242.512 -10.528Q243.088 -11.104 243.98399999999998 -11.104Q244.88 -11.104 245.456 -10.528Q246.03199999999998 -9.952000000000002 246.03199999999998 -9.056000000000001Q246.03199999999998 -8.16 245.456 -7.584Q244.88 -7.007999999999999 243.98399999999998 -7.007999999999999Q243.088 -7.007999999999999 242.512 -7.584Q241.93599999999998 -8.16 241.93599999999998 -9.056000000000001Z M290.94399999999996 -16.64V-5.76Q290.94399999999996 -3.552 289.856 -2.0Q288.768 -0.448 286.912 0.032Q286.816 0.096 286.816 0.192V3.168Q286.816 3.488 286.496 3.488H284.032Q283.712 3.488 283.712 3.168V0.192Q283.712 0.096 283.616 0.032Q281.76 -0.48 280.688 -2.016Q279.616 -3.552 279.616 -5.76V-16.64Q279.616 -19.328 281.18399999999997 -20.991999999999997Q282.752 -22.656 285.28 -22.656Q287.808 -22.656 289.376 -20.991999999999997Q290.94399999999996 -19.328 290.94399999999996 -16.64ZM287.87199999999996 -16.96Q287.87199999999996 -18.304000000000002 287.15199999999993 -19.152Q286.43199999999996 -20.0 285.28 -20.0Q284.128 -20.0 283.408 -19.152Q282.688 -18.304000000000002 282.688 -16.96V-5.44Q282.688 -4.096 283.408 -3.248Q284.128 -2.4 285.28 -2.4Q286.43199999999996 -2.4 287.15199999999993 -3.248Q287.87199999999996 -4.096 287.87199999999996 -5.44Z M300.304 -6.08V-22.080000000000002Q300.304 -22.400000000000002 300.62399999999997 -22.400000000000002H303.056Q303.376 -22.400000000000002 303.376 -22.080000000000002V-5.76Q303.376 -4.256 304.12799999999993 -3.3280000000000003Q304.87999999999994 -2.4 306.09599999999995 -2.4Q307.34399999999994 -2.4 308.09599999999995 -3.3280000000000003Q308.84799999999996 -4.256 308.84799999999996 -5.76V-22.080000000000002Q308.84799999999996 -22.400000000000002 309.16799999999995 -22.400000000000002H311.59999999999997Q311.91999999999996 -22.400000000000002 311.91999999999996 -22.080000000000002V-6.08Q311.91999999999996 -3.232 310.31999999999994 -1.488Q308.71999999999997 0.256 306.09599999999995 0.256Q303.472 0.256 301.888 -1.488Q300.304 -3.232 300.304 -6.08Z M321.72799999999995 -0.32V-22.080000000000002Q321.72799999999995 -22.400000000000002 322.04799999999994 -22.400000000000002H324.47999999999996Q324.79999999999995 -22.400000000000002 324.79999999999995 -22.080000000000002V-0.32Q324.79999999999995 0.0 324.47999999999996 0.0H322.04799999999994Q321.72799999999995 0.0 321.72799999999995 -0.32Z M333.712 -0.32V-2.464Q333.712 -2.624 333.808 -2.848L341.23199999999997 -19.584Q341.264 -19.648 341.23199999999997 -19.695999999999998Q341.2 -19.744 341.13599999999997 -19.744H334.032Q333.712 -19.744 333.712 -20.064V-22.080000000000002Q333.712 -22.400000000000002 334.032 -22.400000000000002H344.24Q344.56 -22.400000000000002 344.56 -22.080000000000002V-19.936Q344.56 -19.808 344.464 -19.552L337.008 -2.816Q336.976 -2.7520000000000002 337.008 -2.704Q337.03999999999996 -2.656 337.104 -2.656H344.24Q344.56 -2.656 344.56 -2.336V-0.32Q344.56 0.0 344.24 0.0H334.032Q333.712 0.0 333.712 -0.32Z M365.55199999999996 -5.344V-17.056Q365.55199999999996 -19.584 367.13599999999997 -21.119999999999997Q368.71999999999997 -22.656 371.31199999999995 -22.656Q373.90399999999994 -22.656 375.50399999999996 -21.119999999999997Q377.104 -19.584 377.104 -17.024V-15.68Q377.104 -15.36 376.784 -15.36H374.352Q374.032 -15.36 374.032 -15.68V-17.088Q374.032 -18.400000000000002 373.28 -19.200000000000003Q372.52799999999996 -20.0 371.31199999999995 -20.0Q370.09599999999995 -20.0 369.34399999999994 -19.200000000000003Q368.592 -18.400000000000002 368.592 -17.088V-5.312Q368.592 -4.0 369.34399999999994 -3.2Q370.09599999999995 -2.4 371.31199999999995 -2.4Q372.52799999999996 -2.4 373.28 -3.2Q374.032 -4.0 374.032 -5.312V-8.832Q374.032 -8.96 373.90399999999994 -8.96H371.472Q371.152 -8.96 371.152 -9.28V-11.264Q371.152 -11.584 371.472 -11.584H376.784Q377.104 -11.584 377.104 -11.264V-5.344Q377.104 -2.816 375.50399999999996 -1.2799999999999998Q373.90399999999994 0.256 371.31199999999995 0.256Q368.71999999999997 0.256 367.13599999999997 -1.2799999999999998Q365.55199999999996 -2.816 365.55199999999996 -5.344Z M395.03999999999996 -0.28800000000000003 394.336 -3.968Q394.336 -4.032 394.288 -4.064Q394.24 -4.096 394.176 -4.096H388.96Q388.89599999999996 -4.096 388.84799999999996 -4.064Q388.8 -4.032 388.8 -3.968L388.128 -0.28800000000000003Q388.096 0.0 387.776 0.0H385.344Q385.18399999999997 0.0 385.104 -0.096Q385.024 -0.192 385.056 -0.352L389.824 -22.112000000000002Q389.888 -22.400000000000002 390.176 -22.400000000000002H393.024Q393.344 -22.400000000000002 393.376 -22.112000000000002L398.176 -0.352V-0.28800000000000003Q398.176 0.0 397.888 0.0H395.392Q395.104 0.0 395.03999999999996 -0.28800000000000003ZM389.44 -6.5280000000000005H393.69599999999997Q393.792 -6.5280000000000005 393.792 -6.656000000000001L391.616 -18.016000000000002Q391.584 -18.080000000000002 391.552 -18.080000000000002Q391.52 -18.080000000000002 391.488 -18.016000000000002L389.344 -6.656000000000001Q389.344 -6.5280000000000005 389.44 -6.5280000000000005Z M416.912 -22.400000000000002H419.344Q419.664 -22.400000000000002 419.664 -22.080000000000002V-0.32Q419.664 0.0 419.344 0.0H416.912Q416.592 0.0 416.592 -0.32V-16.192Q416.592 -16.288 416.544 -16.288Q416.496 -16.288 416.43199999999996 -16.224L413.36 -10.496Q413.264 -10.272 413.072 -10.272Q412.88 -10.272 412.784 -10.496L409.74399999999997 -16.192Q409.68 -16.256 409.632 -16.256Q409.584 -16.256 409.584 -16.16V-0.32Q409.584 0.0 409.264 0.0H406.832Q406.512 0.0 406.512 -0.32V-22.080000000000002Q406.512 -22.400000000000002 406.832 -22.400000000000002H409.264Q409.488 -22.400000000000002 409.64799999999997 -22.176000000000002L413.008 -16.16Q413.03999999999996 -16.128 413.104 -16.128Q413.168 -16.128 413.2 -16.16L416.52799999999996 -22.176000000000002Q416.656 -22.400000000000002 416.912 -22.400000000000002Z M439.936 -19.744H432.736Q432.60799999999995 -19.744 432.60799999999995 -19.616V-12.672Q432.60799999999995 -12.544 432.736 -12.544H437.152Q437.472 -12.544 437.472 -12.224V-10.208Q437.472 -9.888 437.152 -9.888H432.736Q432.60799999999995 -9.888 432.60799999999995 -9.76V-2.7840000000000003Q432.60799999999995 -2.656 432.736 -2.656H439.936Q440.256 -2.656 440.256 -2.336V-0.32Q440.256 0.0 439.936 0.0H429.85599999999994Q429.53599999999994 0.0 429.53599999999994 -0.32V-22.080000000000002Q429.53599999999994 -22.400000000000002 429.85599999999994 -22.400000000000002H439.936Q440.256 -22.400000000000002 440.256 -22.080000000000002V-20.064Q440.256 -19.744 439.936 -19.744Z M473.4239999999999 -9.056000000000001Q473.4239999999999 -9.952000000000002 473.9999999999999 -10.528Q474.5759999999999 -11.104 475.4719999999999 -11.104Q476.36799999999994 -11.104 476.94399999999996 -10.528Q477.5199999999999 -9.952000000000002 477.5199999999999 -9.056000000000001Q477.5199999999999 -8.16 476.94399999999996 -7.584Q476.36799999999994 -7.007999999999999 475.4719999999999 -7.007999999999999Q474.5759999999999 -7.007999999999999 473.9999999999999 -7.584Q473.4239999999999 -8.16 473.4239999999999 -9.056000000000001Z M519.9679999999998 -0.28800000000000003 519.2639999999999 -3.968Q519.2639999999999 -4.032 519.2159999999999 -4.064Q519.1679999999999 -4.096 519.1039999999998 -4.096H513.8879999999999Q513.8239999999998 -4.096 513.7759999999998 -4.064Q513.7279999999998 -4.032 513.7279999999998 -3.968L513.0559999999999 -0.28800000000000003Q513.0239999999999 0.0 512.7039999999998 0.0H510.2719999999999Q510.11199999999985 0.0 510.03199999999987 -0.096Q509.9519999999999 -0.192 509.98399999999987 -0.352L514.7519999999998 -22.112000000000002Q514.8159999999999 -22.400000000000002 515.1039999999998 -22.400000000000002H517.9519999999999Q518.2719999999998 -22.400000000000002 518.3039999999999 -22.112000000000002L523.1039999999998 -0.352V-0.28800000000000003Q523.1039999999998 0.0 522.8159999999999 0.0H520.3199999999998Q520.0319999999999 0.0 519.9679999999998 -0.28800000000000003ZM514.3679999999998 -6.5280000000000005H518.6239999999999Q518.7199999999999 -6.5280000000000005 518.7199999999999 -6.656000000000001L516.5439999999999 -18.016000000000002Q516.5119999999998 -18.080000000000002 516.4799999999998 -18.080000000000002Q516.4479999999999 -18.080000000000002 516.4159999999998 -18.016000000000002L514.2719999999998 -6.656000000000001Q514.2719999999998 -6.5280000000000005 514.3679999999998 -6.5280000000000005Z M531.0559999999998 -5.5360000000000005V-16.896Q531.0559999999998 -19.52 532.6399999999999 -21.088Q534.2239999999998 -22.656 536.8159999999999 -22.656Q539.4399999999998 -22.656 541.0239999999999 -21.088Q542.6079999999998 -19.52 542.6079999999998 -16.896V-16.384Q542.6079999999998 -16.064 542.2879999999999 -16.064L539.8559999999999 -15.936Q539.5359999999998 -15.936 539.5359999999998 -16.256V-17.088Q539.5359999999998 -18.400000000000002 538.7839999999999 -19.200000000000003Q538.0319999999999 -20.0 536.8159999999999 -20.0Q535.5999999999999 -20.0 534.8639999999998 -19.200000000000003Q534.1279999999998 -18.400000000000002 534.1279999999998 -17.088V-5.312Q534.1279999999998 -4.0 534.8639999999998 -3.2Q535.5999999999999 -2.4 536.8159999999999 -2.4Q538.0319999999999 -2.4 538.7839999999999 -3.2Q539.5359999999998 -4.0 539.5359999999998 -5.312V-6.144Q539.5359999999998 -6.464 539.8559999999999 -6.464L542.2879999999999 -6.336Q542.6079999999998 -6.336 542.6079999999998 -6.016V-5.5360000000000005Q542.6079999999998 -2.912 541.0239999999999 -1.3279999999999998Q539.4399999999998 0.256 536.8159999999999 0.256Q534.2239999999998 0.256 532.6399999999999 -1.3279999999999998Q531.0559999999998 -2.912 531.0559999999998 -5.5360000000000005Z M563.0719999999999 -22.080000000000002V-20.064Q563.0719999999999 -19.744 562.752 -19.744H558.56Q558.4319999999999 -19.744 558.4319999999999 -19.616V-0.32Q558.4319999999999 0.0 558.112 0.0H555.68Q555.3599999999999 0.0 555.3599999999999 -0.32V-19.616Q555.3599999999999 -19.744 555.232 -19.744H551.2639999999999Q550.944 -19.744 550.944 -20.064V-22.080000000000002Q550.944 -22.400000000000002 551.2639999999999 -22.400000000000002H562.752Q563.0719999999999 -22.400000000000002 563.0719999999999 -22.080000000000002Z M572.016 -0.32V-22.080000000000002Q572.016 -22.400000000000002 572.3359999999999 -22.400000000000002H574.7679999999999Q575.088 -22.400000000000002 575.088 -22.080000000000002V-0.32Q575.088 0.0 574.7679999999999 0.0H572.3359999999999Q572.016 0.0 572.016 -0.32Z M584.6079999999998 -5.6000000000000005V-16.768Q584.6079999999998 -19.424 586.2079999999999 -21.04Q587.8079999999999 -22.656 590.4319999999999 -22.656Q593.0879999999999 -22.656 594.704 -21.04Q596.3199999999999 -19.424 596.3199999999999 -16.768V-5.6000000000000005Q596.3199999999999 -2.944 594.704 -1.3439999999999999Q593.0879999999999 0.256 590.4319999999999 0.256Q587.8079999999999 0.256 586.2079999999999 -1.3439999999999999Q584.6079999999998 -2.944 584.6079999999998 -5.6000000000000005ZM593.2479999999999 -5.472V-16.928Q593.2479999999999 -18.304000000000002 592.4799999999999 -19.152Q591.7119999999999 -20.0 590.4319999999999 -20.0Q589.1839999999999 -20.0 588.4319999999998 -19.152Q587.6799999999998 -18.304000000000002 587.6799999999998 -16.928V-5.472Q587.6799999999998 -4.096 588.4319999999998 -3.248Q589.1839999999999 -2.4 590.4319999999999 -2.4Q591.7119999999999 -2.4 592.4799999999999 -3.248Q593.2479999999999 -4.096 593.2479999999999 -5.472Z M615.1839999999999 -22.400000000000002H617.5839999999998Q617.9039999999999 -22.400000000000002 617.9039999999999 -22.080000000000002V-0.32Q617.9039999999999 0.0 617.5839999999998 0.0H614.8319999999999Q614.5759999999999 0.0 614.4799999999999 -0.256L609.0399999999998 -14.88Q609.0079999999999 -14.944 608.944 -14.928Q608.8799999999999 -14.912 608.8799999999999 -14.848L608.9119999999999 -0.32Q608.9119999999999 0.0 608.5919999999999 0.0H606.1599999999999Q605.8399999999999 0.0 605.8399999999999 -0.32V-22.080000000000002Q605.8399999999999 -22.400000000000002 606.1599999999999 -22.400000000000002H608.8799999999999Q609.1359999999999 -22.400000000000002 609.2319999999999 -22.144000000000002L614.7039999999998 -7.5200000000000005Q614.7359999999999 -7.424 614.8 -7.44Q614.8639999999999 -7.456 614.8639999999999 -7.5520000000000005V-22.080000000000002Q614.8639999999999 -22.400000000000002 615.1839999999999 -22.400000000000002Z M639.8239999999998 -5.344V-17.056Q639.8239999999998 -19.584 641.4079999999999 -21.119999999999997Q642.9919999999998 -22.656 645.584 -22.656Q648.1759999999999 -22.656 649.7759999999998 -21.119999999999997Q651.3759999999999 -19.584 651.3759999999999 -17.024V-15.68Q651.3759999999999 -15.36 651.0559999999999 -15.36H648.6239999999999Q648.3039999999999 -15.36 648.3039999999999 -15.68V-17.088Q648.3039999999999 -18.400000000000002 647.5519999999999 -19.200000000000003Q646.8 -20.0 645.584 -20.0Q644.3679999999999 -20.0 643.616 -19.200000000000003Q642.8639999999999 -18.400000000000002 642.8639999999999 -17.088V-5.312Q642.8639999999999 -4.0 643.616 -3.2Q644.3679999999999 -2.4 645.584 -2.4Q646.8 -2.4 647.5519999999999 -3.2Q648.3039999999999 -4.0 648.3039999999999 -5.312V-8.832Q648.3039999999999 -8.96 648.1759999999999 -8.96H645.7439999999999Q645.4239999999999 -8.96 645.4239999999999 -9.28V-11.264Q645.4239999999999 -11.584 645.7439999999999 -11.584H651.0559999999999Q651.3759999999999 -11.584 651.3759999999999 -11.264V-5.344Q651.3759999999999 -2.816 649.7759999999998 -1.2799999999999998Q648.1759999999999 0.256 645.584 0.256Q642.9919999999998 0.256 641.4079999999999 -1.2799999999999998Q639.8239999999998 -2.816 639.8239999999998 -5.344Z M669.3119999999999 -0.28800000000000003 668.608 -3.968Q668.608 -4.032 668.56 -4.064Q668.512 -4.096 668.4479999999999 -4.096H663.232Q663.1679999999999 -4.096 663.1199999999999 -4.064Q663.0719999999999 -4.032 663.0719999999999 -3.968L662.4 -0.28800000000000003Q662.3679999999999 0.0 662.0479999999999 0.0H659.6159999999999Q659.4559999999999 0.0 659.376 -0.096Q659.2959999999999 -0.192 659.328 -0.352L664.0959999999999 -22.112000000000002Q664.16 -22.400000000000002 664.4479999999999 -22.400000000000002H667.2959999999999Q667.6159999999999 -22.400000000000002 667.6479999999999 -22.112000000000002L672.4479999999999 -0.352V-0.28800000000000003Q672.4479999999999 0.0 672.16 0.0H669.6639999999999Q669.376 0.0 669.3119999999999 -0.28800000000000003ZM663.7119999999999 -6.5280000000000005H667.968Q668.064 -6.5280000000000005 668.064 -6.656000000000001L665.8879999999999 -18.016000000000002Q665.8559999999999 -18.080000000000002 665.8239999999998 -18.080000000000002Q665.7919999999999 -18.080000000000002 665.7599999999999 -18.016000000000002L663.6159999999999 -6.656000000000001Q663.6159999999999 -6.5280000000000005 663.7119999999999 -6.5280000000000005Z M691.184 -22.400000000000002H693.6159999999999Q693.9359999999999 -22.400000000000002 693.9359999999999 -22.080000000000002V-0.32Q693.9359999999999 0.0 693.6159999999999 0.0H691.184Q690.8639999999999 0.0 690.8639999999999 -0.32V-16.192Q690.8639999999999 -16.288 690.8159999999999 -16.288Q690.7679999999999 -16.288 690.704 -16.224L687.632 -10.496Q687.536 -10.272 687.3439999999999 -10.272Q687.1519999999999 -10.272 687.0559999999999 -10.496L684.016 -16.192Q683.9519999999999 -16.256 683.9039999999999 -16.256Q683.8559999999999 -16.256 683.8559999999999 -16.16V-0.32Q683.8559999999999 0.0 683.536 0.0H681.1039999999999Q680.7839999999999 0.0 680.7839999999999 -0.32V-22.080000000000002Q680.7839999999999 -22.400000000000002 681.1039999999999 -22.400000000000002H683.536Q683.7599999999999 -22.400000000000002 683.92 -22.176000000000002L687.28 -16.16Q687.3119999999999 -16.128 687.376 -16.128Q687.4399999999999 -16.128 687.4719999999999 -16.16L690.8 -22.176000000000002Q690.9279999999999 -22.400000000000002 691.184 -22.400000000000002Z M714.208 -19.744H707.0079999999999Q706.88 -19.744 706.88 -19.616V-12.672Q706.88 -12.544 707.0079999999999 -12.544H711.424Q711.7439999999999 -12.544 711.7439999999999 -12.224V-10.208Q711.7439999999999 -9.888 711.424 -9.888H707.0079999999999Q706.88 -9.888 706.88 -9.76V-2.7840000000000003Q706.88 -2.656 707.0079999999999 -2.656H714.208Q714.5279999999999 -2.656 714.5279999999999 -2.336V-0.32Q714.5279999999999 0.0 714.208 0.0H704.1279999999999Q703.808 0.0 703.808 -0.32V-22.080000000000002Q703.808 -22.400000000000002 704.1279999999999 -22.400000000000002H714.208Q714.5279999999999 -22.400000000000002 714.5279999999999 -22.080000000000002V-20.064Q714.5279999999999 -19.744 714.208 -19.744Z" fill="#8A8078"/>
  </g>

</svg>
