<?xml version='1.0' encoding='UTF-8'?>
<svg width="74mm" height="74mm" version="1.1" viewBox="0 0 74 74" xmlns="http://www.w3.org/2000/svg"><path d="M4,4H6V6H4zM6,4H8V6H6zM8,4H10V6H8zM10,4H12V6H10zM12,4H14V6H12zM14,4H16V6H14zM16,4H18V6H16zM20,4H22V6H20zM22,4H24V6H22zM26,4H28V6H26zM30,4H32V6H30zM36,4H38V6H36zM42,4H44V6H42zM44,4H46V6H44zM48,4H50V6H48zM52,4H54V6H52zM56,4H58V6H56zM58,4H60V6H58zM60,4H62V6H60zM62,4H64V6H62zM64,4H66V6H64zM66,4H68V6H66zM68,4H70V6H68zM4,6H6V8H4zM16,6H18V8H16zM26,6H28V8H26zM32,6H34V8H32zM34,6H36V8H34zM36,6H38V8H36zM38,6H40V8H38zM40,6H42V8H40zM42,6H44V8H42zM46,6H48V8H46zM48,6H50V8H48zM52,6H54V8H52zM56,6H58V8H56zM68,6H70V8H68zM4,8H6V10H4zM8,8H10V10H8zM10,8H12V10H10zM12,8H14V10H12zM16,8H18V10H16zM20,8H22V10H20zM26,8H28V10H26zM28,8H30V10H28zM30,8H32V10H30zM32,8H34V10H32zM34,8H36V10H34zM36,8H38V10H36zM38,8H40V10H38zM46,8H48V10H46zM48,8H50V10H48zM50,8H52V10H50zM52,8H54V10H52zM56,8H58V10H56zM60,8H62V10H60zM62,8H64V10H62zM64,8H66V10H64zM68,8H70V10H68zM4,10H6V12H4zM8,10H10V12H8zM10,10H12V12H10zM12,10H14V12H12zM16,10H18V12H16zM24,10H26V12H24zM28,10H30V12H28zM30,10H32V12H30zM34,10H36V12H34zM44,10H46V12H44zM46,10H48V12H46zM50,10H52V12H50zM52,10H54V12H52zM56,10H58V12H56zM60,10H62V12H60zM62,10H64V12H62zM64,10H66V12H64zM68,10H70V12H68zM4,12H6V14H4zM8,12H10V14H8zM10,12H12V14H10zM12,12H14V14H12zM16,12H18V14H16zM20,12H22V14H20zM22,12H24V14H22zM26,12H28V14H26zM30,12H32V14H30zM34,12H36V14H34zM36,12H38V14H36zM40,12H42V14H40zM42,12H44V14H42zM46,12H48V14H46zM48,12H50V14H48zM56,12H58V14H56zM60,12H62V14H60zM62,12H64V14H62zM64,12H66V14H64zM68,12H70V14H68zM4,14H6V16H4zM16,14H18V16H16zM22,14H24V16H22zM24,14H26V16H24zM26,14H28V16H26zM28,14H30V16H28zM30,14H32V16H30zM32,14H34V16H32zM34,14H36V16H34zM36,14H38V16H36zM38,14H40V16H38zM40,14H42V16H40zM42,14H44V16H42zM46,14H48V16H46zM48,14H50V16H48zM50,14H52V16H50zM52,14H54V16H52zM56,14H58V16H56zM68,14H70V16H68zM4,16H6V18H4zM6,16H8V18H6zM8,16H10V18H8zM10,16H12V18H10zM12,16H14V18H12zM14,16H16V18H14zM16,16H18V18H16zM20,16H22V18H20zM24,16H26V18H24zM28,16H30V18H28zM32,16H34V18H32zM36,16H38V18H36zM40,16H42V18H40zM44,16H46V18H44zM48,16H50V18H48zM52,16H54V18H52zM56,16H58V18H56zM58,16H60V18H58zM60,16H62V18H60zM62,16H64V18H62zM64,16H66V18H64zM66,16H68V18H66zM68,16H70V18H68zM20,18H22V20H20zM22,18H24V20H22zM28,18H30V20H28zM34,18H36V20H34zM36,18H38V20H36zM38,18H40V20H38zM50,18H52V20H50zM14,20H16V22H14zM16,20H18V22H16zM26,20H28V22H26zM28,20H30V22H28zM30,20H32V22H30zM32,20H34V22H32zM38,20H40V22H38zM42,20H44V22H42zM48,20H50V22H48zM50,20H52V22H50zM56,20H58V22H56zM60,20H62V22H60zM64,20H66V22H64zM68,20H70V22H68zM6,22H8V24H6zM10,22H12V24H10zM12,22H14V24H12zM14,22H16V24H14zM20,22H22V24H20zM24,22H26V24H24zM26,22H28V24H26zM38,22H40V24H38zM42,22H44V24H42zM44,22H46V24H44zM48,22H50V24H48zM50,22H52V24H50zM54,22H56V24H54zM58,22H60V24H58zM60,22H62V24H60zM64,22H66V24H64zM6,24H8V26H6zM8,24H10V26H8zM10,24H12V26H10zM16,24H18V26H16zM28,24H30V26H28zM32,24H34V26H32zM34,24H36V26H34zM36,24H38V26H36zM38,24H40V26H38zM40,24H42V26H40zM44,24H46V26H44zM46,24H48V26H46zM54,24H56V26H54zM58,24H60V26H58zM62,24H64V26H62zM64,24H66V26H64zM66,24H68V26H66zM4,26H6V28H4zM8,26H10V28H8zM10,26H12V28H10zM12,26H14V28H12zM14,26H16V28H14zM22,26H24V28H22zM26,26H28V28H26zM28,26H30V28H28zM32,26H34V28H32zM36,26H38V28H36zM42,26H44V28H42zM48,26H50V28H48zM52,26H54V28H52zM54,26H56V28H54zM58,26H60V28H58zM64,26H66V28H64zM66,26H68V28H66zM68,26H70V28H68zM4,28H6V30H4zM14,28H16V30H14zM16,28H18V30H16zM20,28H22V30H20zM24,28H26V30H24zM26,28H28V30H26zM28,28H30V30H28zM36,28H38V30H36zM44,28H46V30H44zM46,28H48V30H46zM48,28H50V30H48zM50,28H52V30H50zM52,28H54V30H52zM56,28H58V30H56zM60,28H62V30H60zM62,28H64V30H62zM68,28H70V30H68zM6,30H8V32H6zM12,30H14V32H12zM14,30H16V32H14zM20,30H22V32H20zM22,30H24V32H22zM26,30H28V32H26zM34,30H36V32H34zM36,30H38V32H36zM40,30H42V32H40zM42,30H44V32H42zM44,30H46V32H44zM46,30H48V32H46zM48,30H50V32H48zM50,30H52V32H50zM56,30H58V32H56zM62,30H64V32H62zM68,30H70V32H68zM14,32H16V34H14zM16,32H18V34H16zM18,32H20V34H18zM20,32H22V34H20zM28,32H30V34H28zM32,32H34V34H32zM40,32H42V34H40zM48,32H50V34H48zM62,32H64V34H62zM66,32H68V34H66zM12,34H14V36H12zM18,34H20V36H18zM20,34H22V36H20zM22,34H24V36H22zM26,34H28V36H26zM34,34H36V36H34zM38,34H40V36H38zM40,34H42V36H40zM42,34H44V36H42zM50,34H52V36H50zM60,34H62V36H60zM64,34H66V36H64zM66,34H68V36H66zM4,36H6V38H4zM6,36H8V38H6zM8,36H10V38H8zM12,36H14V38H12zM14,36H16V38H14zM16,36H18V38H16zM18,36H20V38H18zM20,36H22V38H20zM22,36H24V38H22zM24,36H26V38H24zM26,36H28V38H26zM28,36H30V38H28zM32,36H34V38H32zM34,36H36V38H34zM38,36H40V38H38zM44,36H46V38H44zM50,36H52V38H50zM60,36H62V38H60zM64,36H66V38H64zM68,36H70V38H68zM8,38H10V40H8zM12,38H14V40H12zM22,38H24V40H22zM26,38H28V40H26zM28,38H30V40H28zM30,38H32V40H30zM32,38H34V40H32zM38,38H40V40H38zM40,38H42V40H40zM44,38H46V40H44zM50,38H52V40H50zM52,38H54V40H52zM56,38H58V40H56zM58,38H60V40H58zM68,38H70V40H68zM6,40H8V42H6zM8,40H10V42H8zM10,40H12V42H10zM12,40H14V42H12zM14,40H16V42H14zM16,40H18V42H16zM30,40H32V42H30zM32,40H34V42H32zM34,40H36V42H34zM38,40H40V42H38zM40,40H42V42H40zM48,40H50V42H48zM50,40H52V42H50zM58,40H60V42H58zM62,40H64V42H62zM64,40H66V42H64zM66,40H68V42H66zM68,40H70V42H68zM6,42H8V44H6zM14,42H16V44H14zM18,42H20V44H18zM20,42H22V44H20zM24,42H26V44H24zM28,42H30V44H28zM30,42H32V44H30zM36,42H38V44H36zM38,42H40V44H38zM40,42H42V44H40zM50,42H52V44H50zM52,42H54V44H52zM56,42H58V44H56zM58,42H60V44H58zM62,42H64V44H62zM64,42H66V44H64zM66,42H68V44H66zM68,42H70V44H68zM4,44H6V46H4zM6,44H8V46H6zM8,44H10V46H8zM12,44H14V46H12zM14,44H16V46H14zM16,44H18V46H16zM24,44H26V46H24zM30,44H32V46H30zM34,44H36V46H34zM38,44H40V46H38zM40,44H42V46H40zM42,44H44V46H42zM44,44H46V46H44zM54,44H56V46H54zM56,44H58V46H56zM58,44H60V46H58zM60,44H62V46H60zM62,44H64V46H62zM4,46H6V48H4zM6,46H8V48H6zM8,46H10V48H8zM10,46H12V48H10zM14,46H16V48H14zM18,46H20V48H18zM20,46H22V48H20zM24,46H26V48H24zM26,46H28V48H26zM28,46H30V48H28zM34,46H36V48H34zM36,46H38V48H36zM40,46H42V48H40zM42,46H44V48H42zM44,46H46V48H44zM46,46H48V48H46zM52,46H54V48H52zM56,46H58V48H56zM58,46H60V48H58zM60,46H62V48H60zM64,46H66V48H64zM66,46H68V48H66zM4,48H6V50H4zM8,48H10V50H8zM10,48H12V50H10zM16,48H18V50H16zM18,48H20V50H18zM22,48H24V50H22zM24,48H26V50H24zM26,48H28V50H26zM28,48H30V50H28zM30,48H32V50H30zM32,48H34V50H32zM42,48H44V50H42zM44,48H46V50H44zM46,48H48V50H46zM62,48H64V50H62zM64,48H66V50H64zM4,50H6V52H4zM14,50H16V52H14zM22,50H24V52H22zM28,50H30V52H28zM30,50H32V52H30zM32,50H34V52H32zM34,50H36V52H34zM36,50H38V52H36zM42,50H44V52H42zM48,50H50V52H48zM52,50H54V52H52zM58,50H60V52H58zM60,50H62V52H60zM62,50H64V52H62zM64,50H66V52H64zM4,52H6V54H4zM6,52H8V54H6zM14,52H16V54H14zM16,52H18V54H16zM20,52H22V54H20zM26,52H28V54H26zM28,52H30V54H28zM32,52H34V54H32zM34,52H36V54H34zM40,52H42V54H40zM42,52H44V54H42zM50,52H52V54H50zM52,52H54V54H52zM54,52H56V54H54zM56,52H58V54H56zM58,52H60V54H58zM60,52H62V54H60zM62,52H64V54H62zM68,52H70V54H68zM20,54H22V56H20zM22,54H24V56H22zM24,54H26V56H24zM26,54H28V56H26zM28,54H30V56H28zM32,54H34V56H32zM36,54H38V56H36zM40,54H42V56H40zM46,54H48V56H46zM48,54H50V56H48zM52,54H54V56H52zM60,54H62V56H60zM62,54H64V56H62zM68,54H70V56H68zM4,56H6V58H4zM6,56H8V58H6zM8,56H10V58H8zM10,56H12V58H10zM12,56H14V58H12zM14,56H16V58H14zM16,56H18V58H16zM22,56H24V58H22zM26,56H28V58H26zM28,56H30V58H28zM34,56H36V58H34zM40,56H42V58H40zM42,56H44V58H42zM48,56H50V58H48zM50,56H52V58H50zM52,56H54V58H52zM56,56H58V58H56zM60,56H62V58H60zM66,56H68V58H66zM4,58H6V60H4zM16,58H18V60H16zM20,58H22V60H20zM32,58H34V60H32zM34,58H36V60H34zM38,58H40V60H38zM40,58H42V60H40zM46,58H48V60H46zM48,58H50V60H48zM50,58H52V60H50zM52,58H54V60H52zM60,58H62V60H60zM62,58H64V60H62zM64,58H66V60H64zM66,58H68V60H66zM4,60H6V62H4zM8,60H10V62H8zM10,60H12V62H10zM12,60H14V62H12zM16,60H18V62H16zM22,60H24V62H22zM24,60H26V62H24zM28,60H30V62H28zM30,60H32V62H30zM34,60H36V62H34zM36,60H38V62H36zM38,60H40V62H38zM40,60H42V62H40zM42,60H44V62H42zM44,60H46V62H44zM46,60H48V62H46zM48,60H50V62H48zM52,60H54V62H52zM54,60H56V62H54zM56,60H58V62H56zM58,60H60V62H58zM60,60H62V62H60zM66,60H68V62H66zM68,60H70V62H68zM4,62H6V64H4zM8,62H10V64H8zM10,62H12V64H10zM12,62H14V64H12zM16,62H18V64H16zM22,62H24V64H22zM26,62H28V64H26zM28,62H30V64H28zM32,62H34V64H32zM36,62H38V64H36zM40,62H42V64H40zM42,62H44V64H42zM44,62H46V64H44zM46,62H48V64H46zM50,62H52V64H50zM54,62H56V64H54zM58,62H60V64H58zM60,62H62V64H60zM62,62H64V64H62zM66,62H68V64H66zM4,64H6V66H4zM8,64H10V66H8zM10,64H12V66H10zM12,64H14V66H12zM16,64H18V66H16zM24,64H26V66H24zM26,64H28V66H26zM28,64H30V66H28zM32,64H34V66H32zM36,64H38V66H36zM38,64H40V66H38zM42,64H44V66H42zM60,64H62V66H60zM62,64H64V66H62zM66,64H68V66H66zM68,64H70V66H68zM4,66H6V68H4zM16,66H18V68H16zM22,66H24V68H22zM34,66H36V68H34zM38,66H40V68H38zM40,66H42V68H40zM48,66H50V68H48zM54,66H56V68H54zM62,66H64V68H62zM4,68H6V70H4zM6,68H8V70H6zM8,68H10V70H8zM10,68H12V70H10zM12,68H14V70H12zM14,68H16V70H14zM16,68H18V70H16zM22,68H24V70H22zM28,68H30V70H28zM32,68H34V70H32zM36,68H38V70H36zM42,68H44V70H42zM44,68H46V70H44zM48,68H50V70H48zM50,68H52V70H50zM52,68H54V70H52zM64,68H66V70H64zM66,68H68V70H66z" id="qr-path" fill="#000000" fill-opacity="1" fill-rule="nonzero" stroke="none" /></svg>